<svg width="100" height="100" viewBox="0 0 26.458 26.458" xmlns="http://www.w3.org/2000/svg"><defs><clipPath id="al"><path d="M539.61 597.2l.162.018-.162-.018m-5.512-.641c-.554-.167-.29-.822-.29-.822l.414-3.407c-.399 3.646.001 3.77.001 3.77.352.48 4.509.996 5.387 1.1zm.289-5.59l-.165 1.361c.045-.408.099-.86.165-1.361"/></clipPath><clipPath id="y"><path d="M-13903 14986h28835v-28835h-28835z"/></clipPath><clipPath id="E"><path d="M-13903 14986h28835v-28835h-28835z"/></clipPath><clipPath id="F"><path d="M513.93 594.93l7.159 4.437 4.998-8.063-7.159-4.437z"/></clipPath><clipPath id="K"><path d="M520.27 606.47s-5.612 0-5.612-5.612v-26.195c.001-.171.087-5.609 5.612-5.609h26.192s5.612 0 5.612 5.612v26.192s0 5.612-5.612 5.612z"/></clipPath><clipPath id="M"><path d="M520.27 606.47s-5.612 0-5.612-5.612v-26.195c.001-.171.087-5.609 5.612-5.609h26.192s5.612 0 5.612 5.612v26.192s0 5.612-5.612 5.612z"/></clipPath><clipPath id="aX"><path d="M520.27 606.47s-5.612 0-5.612-5.612v-26.195c.001-.171.087-5.609 5.612-5.609h26.192s5.612 0 5.612 5.612v26.192s0 5.612-5.612 5.612z"/></clipPath><clipPath id="aV"><path d="M521.96 597.46l-4.101-3.254a1.467 1.467 0 01-.141-.131.718.718 0 01-.121-.079c-.197-.168-.27-.436-.233-.721a.712.712 0 01.144-.439l.006-.006c.047-.085.1-.168.167-.246l3.405-3.976c.405-.472 1.024-.607 1.383-.3.358.307.32.94-.085 1.412l-3.006 3.51 3.644 2.891c.488.387.646 1.001.352 1.37-.142.179-.364.269-.611.269a1.32 1.32 0 01-.803-.3"/></clipPath><clipPath id="h"><path d="M514.66 576.81h37.417v-7.756H514.66z"/></clipPath><clipPath id="aS"><path d="M523.85 595.83c.047.101.078.2.088.298 0 0-.023-.113-.088-.298m-2.369-1.94c-1.1-3.117.367-7.058.367-7.058l2.714-5.627.529-6.196c.126-.917.79-.975.79-.975-.4.337-.476 1.048-.476 1.048l-.55 6.196c-1.54 1.504-2.091 5.949-2.091 5.949-2.309.926-.953 6.334-.953 6.334a4.136 4.136 0 012.039 2.269c-.448-.948-2.369-1.94-2.369-1.94"/></clipPath><clipPath id="g"><path d="M-32768 32767h65535v-65535h-65535z"/></clipPath><clipPath id="j"><path d="M-32768 32767h65535v-65535h-65535z"/></clipPath><clipPath id="k"><path d="M525.88 574.04h-5.5v22.094h5.5z"/></clipPath><clipPath id="O"><path d="M514.66 576.81v-2.147c.001-.171.087-5.609 5.612-5.609h26.192s5.612 0 5.612 5.612v2.144z"/></clipPath><clipPath id="t"><path d="M465.1 585.43l30.855 53.441 68.272-39.417-30.855-53.441z"/></clipPath><clipPath id="aP"><path d="M521.14 581.31l-1.942-6.19s.099-.747.736-1.08c0 0-.551.375-.279 1.359l1.691 5.848.134 4.144z"/></clipPath><clipPath id="s"><path d="M-13903 14986h28835v-28835h-28835z"/></clipPath><clipPath id="d"><path d="M-13903 14986h28835v-28835h-28835z"/></clipPath><clipPath id="e"><path d="M520.98 586.33l5.205-9.798-6.483-3.443-5.204 9.798z"/></clipPath><clipPath id="U"><path d="M477.24 606.47v-25.803s.834-.051 2.377-.057h.615c9.523.036 40.367 1.802 71.843 21.435v4.425z"/></clipPath><clipPath id="S"><path d="M477.24 606.47h74.835v-25.861H477.24z"/></clipPath><clipPath id="aM"><path d="M524.53 598.16c-.441 2.633 2.254 3.624 2.254 3.624-3.49-.593-2.254-3.624-2.254-3.624"/></clipPath><clipPath id="R"><path d="M520.27 606.47s-5.612 0-5.612-5.612v-26.195c.001-.171.087-5.609 5.612-5.609h26.192s5.612 0 5.612 5.612v26.192s0 5.612-5.612 5.612z"/></clipPath><clipPath id="m"><path d="M-13903 14986h28835v-28835h-28835z"/></clipPath><clipPath id="n"><path d="M525.04 603.53l3.558-3.557-3.558-3.557-3.557 3.557z"/></clipPath><clipPath id="W"><path d="M540.9 596.54c-.447-.101-.697-.674-.559-1.278l1.162-5.077c.004-.016.009-.028.014-.043.004-.354.277-.737.715-.944l4.709-2.225c.562-.264 1.174-.143 1.37.27.195.414-.1.965-.661 1.231l-4.545 2.147-1.146 5.011c-.124.542-.518.925-.92.925a.6.6 0 01-.139-.017"/></clipPath><clipPath id="Y"><path d="M520.27 606.47s-5.612 0-5.612-5.612v-26.195c.001-.171.087-5.609 5.612-5.609h26.192s5.612 0 5.612 5.612v26.192s0 5.612-5.612 5.612z"/></clipPath><clipPath id="aL"><path d="M520.27 606.47s-5.612 0-5.612-5.612v-26.195c.001-.171.087-5.609 5.612-5.609h26.192s5.612 0 5.612 5.612v26.192s0 5.612-5.612 5.612z"/></clipPath><clipPath id="aJ"><path d="M525.55 602.5c-1.391-.403-2.292-1.836-2.047-3.263.016-.094.037-.187.061-.277.052-.189-.863-1.18-1.049-1.236-.672-.207-.4-.686-.812-1.356 0 0-2.126-3.585-.431-9.757l2.905-5.601a1.346 1.346 0 01-.007-.202l.384-5.908c.045-.699.608-1.29 1.307-1.281.745.009 1.322.64 1.275 1.374l-.389 5.983c.026.172.02.352-.029.532l-1.835 6.256a1.152 1.152 0 01-.095.242c-.431 1.151-.419 5.844-.373 6.415 0 0 .168 2.512.366 2.872a2.894 2.894 0 012.765-.219 2.892 2.892 0 011.711 2.757 2.9 2.9 0 01-3.707 2.669"/></clipPath><clipPath id="Z"><path d="M537.82 588.21a1.292 1.292 0 01-.908-1.585l1.523-5.607a1.224 1.224 0 01-.008-.202l.388-5.982a1.292 1.292 0 012.577.167l-.388 5.983c.027.172.02.352-.029.532l-1.571 5.785a1.291 1.291 0 01-1.584.909"/></clipPath><clipPath id="aI"><path d="M520.27 606.47s-5.612 0-5.612-5.612v-26.195c.001-.171.087-5.609 5.612-5.609h26.192s5.612 0 5.612 5.612v26.192s0 5.612-5.612 5.612z"/></clipPath><clipPath id="aG"><path d="M521.19 586.99l-.573-5.781a1.21 1.21 0 01-.079-.185l-1.767-5.73a1.29 1.29 0 012.468-.76l1.767 5.727c.086.152.144.324.162.508l.592 5.966a1.291 1.291 0 11-2.57.255"/></clipPath><clipPath id="ab"><path d="M520.27 606.47s-5.612 0-5.612-5.612v-26.195c.001-.171.087-5.609 5.612-5.609h26.192s5.612 0 5.612 5.612v26.192s0 5.612-5.612 5.612z"/></clipPath><clipPath id="aF"><path d="M520.27 606.47s-5.612 0-5.612-5.612v-26.195c.001-.171.087-5.609 5.612-5.609h26.192s5.612 0 5.612 5.612v26.192s0 5.612-5.612 5.612z"/></clipPath><clipPath id="aD"><path d="M548.32 587.23c-.58 0-.923-.247-1.107-.454-.461-.515-.423-1.265-.408-1.43V573.65h.79v11.715l-.002.043c-.016.152-.009.601.21.843.114.127.284.189.527.189-.001.003.372 0 .602-.222.138-.134.205-.329.205-.595h.789c0 .484-.148.874-.442 1.161-.433.42-1.012.446-1.143.446h-.021"/></clipPath><clipPath id="ac"><path d="M542.02 597.65c0-.201.02-.395.059-.584-.758.473-2.088.715-3.909-1.188 0 0-2.787-2.579-2.543-8.974l-.89-5.74a1.217 1.217 0 01-.089-.181l-2.079-5.623a1.29 1.29 0 012.421-.896l2.08 5.623c.094.146.161.314.19.497l1.633 4.498.512 2.122s-1.083 6.564 2.288 7.462c0 0 .834.439 1.134.982a2.897 2.897 0 11-.807 2.002"/></clipPath><clipPath id="aA"><path d="M523.85 590.03l4.345-3.856h.001l-.288.555-3.735 3.484-.182 3.991z"/></clipPath><clipPath id="ae"><path d="M520.27 606.47s-5.612 0-5.612-5.612v-26.195c.001-.171.087-5.609 5.612-5.609h26.192s5.612 0 5.612 5.612v26.192s0 5.612-5.612 5.612z"/></clipPath><clipPath id="p"><path d="M-13903 14986h28835v-28835h-28835z"/></clipPath><clipPath id="q"><path d="M527.12 596.08l4.543-7.916-6.736-3.865-4.542 7.917z"/></clipPath><clipPath id="af"><path d="M539.58 597.57l-5.204-.566a1.328 1.328 0 01-.19-.036.58.58 0 01-.144-.002c-.257-.037-.461-.225-.581-.486a.696.696 0 01-.113-.448l.002-.008a1.565 1.565 0 01.01-.297l.762-5.179c.09-.615.542-1.06 1.009-.99.467.067.772.623.682 1.239l-.672 4.571 4.624.503c.619.069 1.08.503 1.028.972-.047.428-.502.736-1.052.736-.053 0-.107-.002-.161-.009"/></clipPath><clipPath id="ah"><path d="M520.27 606.47s-5.612 0-5.612-5.612v-26.195c.001-.171.087-5.609 5.612-5.609h26.192s5.612 0 5.612 5.612v26.192s0 5.612-5.612 5.612z"/></clipPath><clipPath id="ax"><path d="M523.7 595.7l-.206-5.205.002-.044c-.088-.344.075-.784.445-1.098l3.964-3.379c.471-.402 1.095-.446 1.391-.097.298.349.157.957-.315 1.36l-3.826 3.26.203 5.137c.025.62-.327 1.135-.785 1.153l-.024.001c-.448 0-.825-.48-.849-1.088"/></clipPath><clipPath id="w"><path d="M532.74 595.74h8.05v-21.7h-8.05z"/></clipPath><clipPath id="au"><path d="M541.96 589.83l5.202-2.586-.423.461-4.515 2.386-1.219 3.804z"/></clipPath><clipPath id="v"><path d="M-13903 14986h28835v-28835h-28835z"/></clipPath><clipPath id="a"><path d="M-13903 14986h28835v-28835h-28835z"/></clipPath><clipPath id="b"><path d="M544.09 596.97l6.405-6.404-6.405-6.405-6.404 6.405z"/></clipPath><clipPath id="ai"><path d="M540.53 595.48a.822.822 0 01.259.256s-.094-.109-.259-.256m-2.325-.171c-2.305-2.569-2.14-8.475-2.14-8.475l-.979-5.713-2.15-5.82c-.197-.845.594-1.265.594-1.265-.495.723-.193 1.265-.193 1.265l2.037 5.82c.526 5.932 1.689 6.68 1.689 6.68-1.74 1.997 1.241 6.98 1.241 6.98.943-.282 1.81.33 2.226.699-.74-.474-2.325-.171-2.325-.171"/></clipPath><clipPath id="C"><path d="M533.55 597.22h6.229v-6.25h-6.229z"/></clipPath><clipPath id="ar"><path d="M538.92 581.12l.215-6.399s.315-.684 1.02-.817c0 0-.636.198-.664 1.218l-.356 5.998-.825 1.679z"/></clipPath><clipPath id="B"><path d="M-13903 14986h28835v-28835h-28835z"/></clipPath><clipPath id="aY"><path d="M522.31 597.09l.129.102a8.203 8.203 0 01-.129-.102m-4.346-3.448c-.383-.433.186-.851.186-.851l2.147-2.677c-2.259 2.888-1.985 3.204-1.985 3.204.046.594 3.302 3.218 3.998 3.772zm3.19-4.598l-.857 1.07c.253-.323.537-.679.857-1.07"/></clipPath><clipPath id="z"><path d="M539.23 583.72l5.37-5.371-5.37-5.37-5.371 5.37z"/></clipPath><clipPath id="I"><path d="M543.22 601.93l3.557-3.557-3.557-3.557-3.556 3.557z"/></clipPath><clipPath id="H"><path d="M-13903 14986h28835v-28835h-28835z"/></clipPath><clipPath id="ao"><path d="M542.72 596.56c-.443 2.631 2.253 3.623 2.253 3.623-3.491-.593-2.253-3.623-2.253-3.623"/></clipPath><clipPath id="az"><path d="M520.27 606.47s-5.612 0-5.612-5.612v-26.195c.001-.171.087-5.609 5.612-5.609h26.192s5.612 0 5.612 5.612v26.192s0 5.612-5.612 5.612z"/></clipPath><linearGradient id="at" x2="1" gradientTransform="scale(7.5952 -7.5952) rotate(45 127.649 47.016)" gradientUnits="userSpaceOnUse"><stop stop-color="#fff" offset="0"/><stop stop-color="#fff" offset="1"/></linearGradient><linearGradient id="aK" x2="1" gradientTransform="scale(21.36 -21.36) rotate(45 45.82 15.353)" gradientUnits="userSpaceOnUse"><stop stop-color="#f9a72b" offset="0"/><stop stop-color="#f9a72b" offset=".378"/><stop stop-color="#ef2e32" offset="1"/></linearGradient><linearGradient id="J" x2="1" gradientTransform="scale(1.6823 -1.6823) rotate(45 591.33 211.52)" gradientUnits="userSpaceOnUse"><stop stop-color="#fff" offset="0"/><stop stop-color="#fff" stop-opacity="0" offset="1"/></linearGradient><linearGradient id="aq" x2="1" gradientTransform="scale(1.6823 -1.6823) rotate(45 591.33 211.52)" gradientUnits="userSpaceOnUse"><stop stop-color="#fff" offset="0"/><stop stop-color="#fff" offset="1"/></linearGradient><linearGradient id="L" x2="1" gradientTransform="matrix(37.417 0 0 -37.417 514.66 587.76)" gradientUnits="userSpaceOnUse"><stop stop-color="#f35cb5" offset="0"/><stop stop-color="#d3d2d2" offset="1"/></linearGradient><linearGradient id="G" x2="1" gradientTransform="matrix(5.1233 3.1752 3.1752 -5.1233 518.96 591.36)" gradientUnits="userSpaceOnUse"><stop stop-color="#fff" offset="0"/><stop stop-color="#fff" offset=".461"/><stop stop-color="#fff" stop-opacity="0" offset="1"/></linearGradient><linearGradient id="N" x2="1" gradientTransform="matrix(37.417 0 0 -37.417 514.66 587.76)" gradientUnits="userSpaceOnUse"><stop stop-color="#fff" offset="0"/><stop stop-color="#4f4c4d" offset="1"/></linearGradient><linearGradient id="aw" x2="1" gradientTransform="scale(9.0572 -9.0572) rotate(45 108.872 39.257)" gradientUnits="userSpaceOnUse"><stop stop-color="#fff" offset="0"/><stop stop-color="#fff" offset="1"/></linearGradient><linearGradient id="D" x2="1" gradientTransform="matrix(6.0274 0 0 -6.0274 533.75 594.09)" gradientUnits="userSpaceOnUse"><stop stop-color="#fff" offset="0"/><stop stop-color="#fff" offset=".461"/><stop stop-color="#fff" stop-opacity="0" offset="1"/></linearGradient><linearGradient id="an" x2="1" gradientTransform="matrix(6.0274 0 0 -6.0274 533.75 594.09)" gradientUnits="userSpaceOnUse"><stop stop-color="#fff" offset="0"/><stop stop-color="#fff" offset=".461"/><stop stop-color="#fff" offset="1"/></linearGradient><linearGradient id="c" x2="1" gradientTransform="scale(9.0572 -9.0572) rotate(45 108.872 39.257)" gradientUnits="userSpaceOnUse"><stop stop-color="#fff" stop-opacity=".5" offset="0"/><stop stop-color="#fff" stop-opacity="0" offset="1"/></linearGradient><linearGradient id="ba" x2="1" gradientTransform="matrix(5.1233 3.1752 3.1752 -5.1233 518.96 591.36)" gradientUnits="userSpaceOnUse"><stop stop-color="#fff" offset="0"/><stop stop-color="#fff" offset=".461"/><stop stop-color="#fff" offset="1"/></linearGradient><linearGradient id="Q" x2="1" gradientTransform="matrix(0 7.7561 7.7561 0 533.37 569.05)" gradientUnits="userSpaceOnUse"><stop stop-color="#fff" offset="0"/><stop stop-color="#fff" offset=".784"/><stop stop-color="#fff" offset="1"/></linearGradient><linearGradient id="ay" x2="1" gradientTransform="scale(11.9488 -11.9488) rotate(60.154 64.93 12.84)" gradientUnits="userSpaceOnUse"><stop stop-color="#f35e2f" offset="0"/><stop stop-color="#ef2e32" offset="1"/></linearGradient><linearGradient id="x" x2="1" gradientTransform="matrix(7.8841 0 0 -7.8841 532.91 584.89)" gradientUnits="userSpaceOnUse"><stop stop-color="#fff" stop-opacity="0" offset="0"/><stop stop-color="#fff" offset=".539"/><stop stop-color="#fff" offset="1"/></linearGradient><linearGradient id="ak" x2="1" gradientTransform="matrix(7.8841 0 0 -7.8841 532.91 584.89)" gradientUnits="userSpaceOnUse"><stop stop-color="#fff" offset="0"/><stop stop-color="#fff" offset=".539"/><stop stop-color="#fff" offset="1"/></linearGradient><linearGradient id="aC" x2="1" gradientTransform="scale(9.0572 -9.0572) rotate(60.153 85.462 17.085)" gradientUnits="userSpaceOnUse"><stop stop-color="#fff" offset="0"/><stop stop-color="#fff" offset="1"/></linearGradient><linearGradient id="r" x2="1" gradientTransform="scale(9.0572 -9.0572) rotate(60.153 85.462 17.085)" gradientUnits="userSpaceOnUse"><stop stop-color="#fff" stop-opacity=".5" offset="0"/><stop stop-color="#fff" stop-opacity="0" offset="1"/></linearGradient><linearGradient id="ag" x2="1" gradientTransform="matrix(7.4523 0 0 -7.4523 533.34 593.56)" gradientUnits="userSpaceOnUse"><stop stop-color="#f9a72b" offset="0"/><stop stop-color="#ef2e32" offset="1"/></linearGradient><linearGradient id="i" x2="1" gradientTransform="matrix(0 7.7561 7.7561 0 533.37 569.05)" gradientUnits="userSpaceOnUse"><stop stop-color="#fff" offset="0"/><stop stop-color="#fff" offset=".784"/><stop stop-color="#fff" stop-opacity="0" offset="1"/></linearGradient><linearGradient id="aE" x2="1" gradientTransform="matrix(3.1297 0 0 -3.1297 546.8 580.44)" gradientUnits="userSpaceOnUse"><stop stop-color="#a7a5a6" offset="0"/><stop stop-color="#f4f4f4" offset="1"/></linearGradient><linearGradient id="ad" x2="1" gradientTransform="scale(13.014 -13.014) rotate(45 75.472 26.827)" gradientUnits="userSpaceOnUse"><stop stop-color="#f9a72b" offset="0"/><stop stop-color="#f9a72b" offset=".378"/><stop stop-color="#ef2e32" offset="1"/></linearGradient><linearGradient id="aH" x2="1" gradientTransform="matrix(6.4913 -5.8147 -5.8147 -6.4913 518 583.8)" gradientUnits="userSpaceOnUse"><stop stop-color="#f35e2f" offset="0"/><stop stop-color="#ef2e32" offset="1"/></linearGradient><linearGradient id="A" x2="1" gradientTransform="scale(7.5952 -7.5952) rotate(45 127.649 47.016)" gradientUnits="userSpaceOnUse"><stop stop-color="#fff" stop-opacity=".5" offset="0"/><stop stop-color="#fff" stop-opacity="0" offset="1"/></linearGradient><linearGradient id="aa" x2="1" gradientTransform="scale(8.7144 -8.7144) rotate(20.99 211.112 132.3)" gradientUnits="userSpaceOnUse"><stop stop-color="#f35e2f" offset="0"/><stop stop-color="#ef2e32" offset="1"/></linearGradient><linearGradient id="aO" x2="1" gradientTransform="scale(1.6823 -1.6823) rotate(45 587.072 197.992)" gradientUnits="userSpaceOnUse"><stop stop-color="#fff" offset="0"/><stop stop-color="#fff" offset="1"/></linearGradient><linearGradient id="o" x2="1" gradientTransform="scale(1.6823 -1.6823) rotate(45 587.072 197.992)" gradientUnits="userSpaceOnUse"><stop stop-color="#fff" offset="0"/><stop stop-color="#fff" stop-opacity="0" offset="1"/></linearGradient><linearGradient id="X" x2="1" gradientTransform="scale(11.949 -11.949) rotate(45 82.7 29.587)" gradientUnits="userSpaceOnUse"><stop stop-color="#f35e2f" offset="0"/><stop stop-color="#ef2e32" offset="1"/></linearGradient><linearGradient id="aW" x2="1" gradientTransform="matrix(6.3046 3.9735 3.9735 -6.3046 518.82 590.75)" gradientUnits="userSpaceOnUse"><stop stop-color="#f9a72b" offset="0"/><stop stop-color="#ef2e32" offset="1"/></linearGradient><linearGradient id="aR" x2="1" gradientTransform="scale(9.2987 -9.2987) rotate(62.025 80.091 14.98)" gradientUnits="userSpaceOnUse"><stop stop-color="#fff" offset="0"/><stop stop-color="#fff" offset="1"/></linearGradient><linearGradient id="f" x2="1" gradientTransform="scale(9.2987 -9.2987) rotate(62.025 80.091 14.98)" gradientUnits="userSpaceOnUse"><stop stop-color="#fff" stop-opacity=".5" offset="0"/><stop stop-color="#fff" stop-opacity="0" offset="1"/></linearGradient><linearGradient id="l" x2="1" gradientTransform="matrix(-4.809 0 0 4.809 525.88 585.08)" gradientUnits="userSpaceOnUse"><stop stop-color="#fff" stop-opacity="0" offset="0"/><stop stop-color="#fff" offset=".892"/><stop stop-color="#fff" offset="1"/></linearGradient><linearGradient id="V" x2="1" gradientTransform="scale(59.764 -59.764) rotate(-60 -4.123 -11.946)" gradientUnits="userSpaceOnUse"><stop stop-color="#fff" offset="0"/><stop stop-color="#fff" offset="1"/></linearGradient><linearGradient id="aU" x2="1" gradientTransform="matrix(-4.809 0 0 4.809 525.88 585.08)" gradientUnits="userSpaceOnUse"><stop stop-color="#fff" offset="0"/><stop stop-color="#fff" offset=".892"/><stop stop-color="#fff" offset="1"/></linearGradient><linearGradient id="u" x2="1" gradientTransform="scale(59.764 -59.764) rotate(-60 -4.123 -11.946)" gradientUnits="userSpaceOnUse"><stop stop-color="#fff" stop-opacity="0" offset="0"/><stop stop-color="#fff" offset="1"/></linearGradient><mask id="T" x="0" y="0" width="1" height="1" maskUnits="userSpaceOnUse"><g clip-path="url(#s)"><g clip-path="url(#t)"><path d="M465.1 585.43l30.855 53.441 68.272-39.417-30.855-53.441z" fill="url(#u)"/></g></g></mask><mask id="av" x="0" y="0" width="1" height="1" maskUnits="userSpaceOnUse"><g clip-path="url(#a)"><g clip-path="url(#b)"><path d="M544.09 596.97l6.405-6.404-6.405-6.405-6.404 6.405z" fill="url(#c)"/></g></g></mask><mask id="P" x="0" y="0" width="1" height="1" maskUnits="userSpaceOnUse"><g clip-path="url(#g)"><g clip-path="url(#h)"><path d="M514.66 576.81h37.417v-7.756H514.66z" fill="url(#i)"/></g></g></mask><mask id="aT" x="0" y="0" width="1" height="1" maskUnits="userSpaceOnUse"><g clip-path="url(#j)"><g clip-path="url(#k)"><path d="M525.88 574.04h-5.5v22.094h5.5z" fill="url(#l)"/></g></g></mask><mask id="aN" x="0" y="0" width="1" height="1" maskUnits="userSpaceOnUse"><g clip-path="url(#m)"><g clip-path="url(#n)"><path d="M525.04 603.53l3.558-3.557-3.558-3.557-3.557 3.557z" fill="url(#o)"/></g></g></mask><mask id="aB" x="0" y="0" width="1" height="1" maskUnits="userSpaceOnUse"><g clip-path="url(#p)"><g clip-path="url(#q)"><path d="M527.12 596.08l4.543-7.916-6.736-3.865-4.542 7.917z" fill="url(#r)"/></g></g></mask><mask id="aQ" x="0" y="0" width="1" height="1" maskUnits="userSpaceOnUse"><g clip-path="url(#d)"><g clip-path="url(#e)"><path d="M520.98 586.33l5.205-9.798-6.483-3.443-5.204 9.798z" fill="url(#f)"/></g></g></mask><mask id="aj" x="0" y="0" width="1" height="1" maskUnits="userSpaceOnUse"><g clip-path="url(#v)"><g clip-path="url(#w)"><path d="M532.74 595.74h8.05v-21.7h-8.05z" fill="url(#x)"/></g></g></mask><mask id="as" x="0" y="0" width="1" height="1" maskUnits="userSpaceOnUse"><g clip-path="url(#y)"><g clip-path="url(#z)"><path d="M539.23 583.72l5.37-5.371-5.37-5.37-5.371 5.37z" fill="url(#A)"/></g></g></mask><mask id="am" x="0" y="0" width="1" height="1" maskUnits="userSpaceOnUse"><g clip-path="url(#B)"><g clip-path="url(#C)"><path d="M533.55 597.22h6.229v-6.25h-6.229z" fill="url(#D)"/></g></g></mask><mask id="aZ" x="0" y="0" width="1" height="1" maskUnits="userSpaceOnUse"><g clip-path="url(#E)"><g clip-path="url(#F)"><path d="M513.93 594.93l7.159 4.437 4.998-8.063-7.159-4.437z" fill="url(#G)"/></g></g></mask><mask id="ap" x="0" y="0" width="1" height="1" maskUnits="userSpaceOnUse"><g clip-path="url(#H)"><g clip-path="url(#I)"><path d="M543.22 601.93l3.557-3.557-3.557-3.557-3.556 3.557z" fill="url(#J)"/></g></g></mask></defs><g transform="matrix(.62537 0 0 -.62537 -320.327 380.81)" clip-path="url(#K)"><path d="M520.27 606.47s-5.612 0-5.612-5.612v-26.195c.001-.171.087-5.609 5.612-5.609h26.192s5.612 0 5.612 5.612v26.192s0 5.612-5.612 5.612z" fill="url(#L)"/></g><g transform="matrix(.62537 0 0 -.62537 -320.327 380.81)" clip-path="url(#M)"><path d="M520.27 606.47s-5.612 0-5.612-5.612v-26.195c.001-.171.087-5.609 5.612-5.609h26.192s5.612 0 5.612 5.612v26.192s0 5.612-5.612 5.612z" fill="url(#N)"/></g><g transform="matrix(.62537 0 0 -.62537 -320.327 380.81)" clip-path="url(#O)"><g mask="url(#P)"><path d="M514.66 576.81v-2.147c.001-.171.087-5.609 5.612-5.609h26.192s5.612 0 5.612 5.612v2.144z" fill="url(#Q)"/></g></g><g transform="matrix(.62537 0 0 -.62537 -320.327 380.81)" clip-path="url(#R)"><g clip-path="url(#S)"><g mask="url(#T)" clip-path="url(#U)" opacity=".6"><path d="M477.24 606.47v-25.803s.834-.051 2.377-.057h.615c9.523.036 40.367 1.802 71.843 21.435v4.425z" fill="url(#V)"/></g></g><path d="M547.65 588.48l-4.546 2.148-1.146 5.011c-.138.604-.613 1.01-1.059.908-.447-.102-.697-.674-.559-1.278l1.162-5.078c.003-.014.009-.028.013-.043.005-.354.278-.736.716-.943l4.71-2.225c.56-.265 1.173-.143 1.369.27.195.415-.1.965-.66 1.23zm-9.83-.27a1.292 1.292 0 01-.908-1.585l1.523-5.606a1.341 1.341 0 01-.008-.201l.389-5.983a1.29 1.29 0 112.576.167l-.388 5.982c.027.172.02.353-.029.532l-1.571 5.785a1.29 1.29 0 01-1.584.909z" fill="none" stroke="#fff" stroke-width="2.2"/><path d="M544.92 600.55a2.896 2.896 0 01-2.838-3.48c-.758.473-2.088.714-3.908-1.189 0 0-2.788-2.578-2.544-8.973l-.89-5.741a1.112 1.112 0 01-.088-.18l-2.08-5.623a1.29 1.29 0 112.422-.896l2.079 5.623c.094.146.162.313.19.497l1.633 4.497.512 2.122s-1.083 6.565 2.289 7.462c0 0 .833.44 1.133.982a2.896 2.896 0 112.09 4.899z" fill="none" stroke="#fff" stroke-width="2.2"/><path d="M539.58 597.57l-5.204-.567a1.434 1.434 0 01-.189-.035.63.63 0 01-.144-.002c-.257-.038-.462-.225-.582-.487a.7.7 0 01-.112-.447l.002-.009a1.42 1.42 0 01.01-.297l.761-5.179c.091-.615.542-1.059 1.01-.99.467.068.771.623.681 1.239l-.672 4.571 4.624.504c.619.068 1.08.503 1.029.971-.052.47-.594.795-1.214.728z" fill="none" stroke="#fff" stroke-width="2.2"/><path d="M533.53 574.04s-.79.421-.593 1.265l2.149 5.82.979 5.713s-.164 5.906 2.141 8.474c0 0 2.073-.395 2.584.428 0 0-1.169-1.35-2.486-.955 0 0-2.981-4.984-1.24-6.98 0 0-1.163-.748-1.69-6.68l-2.037-5.82s-.301-.542.193-1.265zm.86 16.93l-.58 4.768s-.263.655.29.822l5.675.66s-5.156-.581-5.55-1.12c0 0-.494-.152.165-5.13zm8.33 5.59s-1.237 3.031 2.253 3.624c0 0-2.695-.992-2.253-3.624zm-4.41-13.76l.61-1.68.216-6.398s.314-.685 1.02-.818c0 0-.637.197-.665 1.219l-.355 5.997zm8.43 4.9l-4.516 2.386-1.218 3.804.954-4.064 5.203-2.587m-18.183-.009l-3.826 3.261.203 5.137c.024.619-.327 1.135-.785 1.153s-.849-.468-.873-1.088l-.206-5.204c-.001-.015.002-.03.002-.045-.088-.344.075-.783.444-1.098l3.964-3.379c.472-.401 1.095-.445 1.392-.097.297.349.157.958-.315 1.36z" fill="none" stroke="#fff" stroke-width="2.2"/><path d="M527.91 586.73l-3.736 3.484-.181 3.99-.141-4.173 4.346-3.856m19.392-12.525h-.79v11.696c-.015.165-.053.915.407 1.43.185.207.528.454 1.107.454.063.002.699.006 1.164-.447.294-.286.444-.677.444-1.16h-.79c0 .266-.067.46-.205.594-.23.223-.604.225-.602.223-.243 0-.412-.062-.527-.189-.219-.243-.226-.691-.21-.844l.002-.042zm-24.99 14.5a1.292 1.292 0 01-1.413-1.158l-.574-5.781a1.267 1.267 0 01-.078-.185l-1.767-5.729a1.29 1.29 0 112.467-.761l1.768 5.729c.085.151.143.322.162.506l.592 5.966a1.291 1.291 0 01-1.157 1.413z" fill="none" stroke="#fff" stroke-width="2.2"/><path d="M529.25 599.84a2.9 2.9 0 01-3.707 2.67c-1.391-.403-2.292-1.836-2.047-3.263a3.51 3.51 0 01.061-.278c.051-.188-.864-1.178-1.05-1.236-.672-.207-.4-.686-.811-1.355 0 0-2.127-3.586-.431-9.757l2.905-5.601a1.35 1.35 0 01-.008-.202l.385-5.909c.045-.698.608-1.289 1.307-1.28a1.29 1.29 0 011.274 1.374l-.388 5.983c.026.172.02.352-.03.531l-1.835 6.257a1.153 1.153 0 01-.094.242c-.431 1.15-.42 5.844-.374 6.414 0 0 .169 2.512.367 2.872a2.894 2.894 0 012.765-.219 2.892 2.892 0 011.711 2.757z" fill="none" stroke="#fff" stroke-width="2.2"/><path d="M524.53 598.17s-1.237 3.031 2.253 3.624c0 0-2.695-.991-2.253-3.624zm-3.05-12.78l-.341-4.08-1.942-6.191s.1-.746.736-1.08c0 0-.55.375-.279 1.36l1.692 5.848zm4.4-11.35s-.664.058-.79.974l-.53 6.197-2.713 5.627s-1.467 3.941-.367 7.058c0 0 2.347 1.211 2.457 2.238 0 0-.33-1.651-2.127-2.567 0 0-1.356-5.408.954-6.334 0 0 .55-4.446 2.09-5.949l.549-6.196s.076-.711.477-1.048z" fill="none" stroke="#fff" stroke-width="2.2"/><path d="M521.96 597.46l-4.1-3.254a1.489 1.489 0 01-.142-.131.588.588 0 01-.12-.078c-.198-.169-.271-.437-.233-.722a.7.7 0 01.143-.438l.007-.007c.046-.084.1-.168.167-.246l3.405-3.975c.404-.473 1.023-.607 1.382-.3.358.307.321.939-.084 1.412l-3.006 3.509 3.644 2.891c.487.388.645 1.001.352 1.371-.294.369-.927.355-1.415-.032z" fill="none" stroke="#fff" stroke-width="2.2"/><path d="M521.15 589.04l-3.005 3.748s-.568.417-.186.851l4.476 3.55s-4.076-3.21-4.127-3.875c0 0-.34-.39 2.842-4.274z" fill="none" stroke="#fff" stroke-width="2.2"/></g><g transform="matrix(.62537 0 0 -.62537 -320.327 380.81)" clip-path="url(#W)"><path d="M540.9 596.54c-.447-.101-.697-.674-.559-1.278l1.162-5.077c.004-.016.009-.028.014-.043.004-.354.277-.737.715-.944l4.709-2.225c.562-.264 1.174-.143 1.37.27.195.414-.1.965-.661 1.231l-4.545 2.147-1.146 5.011c-.124.542-.518.925-.92.925a.6.6 0 01-.139-.017" fill="url(#X)"/></g><g transform="matrix(.62537 0 0 -.62537 -320.327 380.81)" clip-path="url(#Y)"><path d="M547.65 588.48l-4.546 2.148-1.146 5.011c-.138.604-.613 1.01-1.059.908-.447-.102-.697-.674-.559-1.278l1.162-5.078c.003-.014.009-.028.013-.043.005-.354.278-.736.716-.943l4.71-2.225c.56-.265 1.173-.143 1.369.27.195.415-.1.965-.66 1.23z" fill="none" stroke="#bf1b2c" stroke-width=".44"/></g><g transform="matrix(.62537 0 0 -.62537 -320.327 380.81)" clip-path="url(#Z)"><path d="M537.82 588.21a1.292 1.292 0 01-.908-1.585l1.523-5.607a1.224 1.224 0 01-.008-.202l.388-5.982a1.292 1.292 0 012.577.167l-.388 5.983c.027.172.02.352-.029.532l-1.571 5.785a1.291 1.291 0 01-1.584.909" fill="url(#aa)"/></g><g transform="matrix(.62537 0 0 -.62537 -320.327 380.81)" clip-path="url(#ab)"><path d="M537.82 588.21a1.292 1.292 0 01-.908-1.585l1.523-5.606a1.341 1.341 0 01-.008-.201l.389-5.983a1.29 1.29 0 112.576.167l-.388 5.982c.027.172.02.353-.029.532l-1.571 5.785a1.29 1.29 0 01-1.584.909z" fill="none" stroke="#bf1b2c" stroke-width=".44"/></g><g transform="matrix(.62537 0 0 -.62537 -320.327 380.81)" clip-path="url(#ac)"><path d="M542.02 597.65c0-.201.02-.395.059-.584-.758.473-2.088.715-3.909-1.188 0 0-2.787-2.579-2.543-8.974l-.89-5.74a1.217 1.217 0 01-.089-.181l-2.079-5.623a1.29 1.29 0 012.421-.896l2.08 5.623c.094.146.161.314.19.497l1.633 4.498.512 2.122s-1.083 6.564 2.288 7.462c0 0 .834.439 1.134.982a2.897 2.897 0 11-.807 2.002" fill="url(#ad)"/></g><g transform="matrix(.62537 0 0 -.62537 -320.327 380.81)" clip-path="url(#ae)"><path d="M544.92 600.55a2.896 2.896 0 01-2.838-3.48c-.758.473-2.088.714-3.908-1.189 0 0-2.788-2.578-2.544-8.973l-.89-5.741a1.112 1.112 0 01-.088-.18l-2.08-5.623a1.29 1.29 0 112.422-.896l2.079 5.623c.094.146.162.313.19.497l1.633 4.497.512 2.122s-1.083 6.565 2.289 7.462c0 0 .833.44 1.133.982a2.896 2.896 0 112.09 4.899z" fill="none" stroke="#bf1b2c" stroke-width=".44"/></g><g transform="matrix(.62537 0 0 -.62537 -320.327 380.81)" clip-path="url(#af)"><path d="M539.58 597.57l-5.204-.566a1.328 1.328 0 01-.19-.036.58.58 0 01-.144-.002c-.257-.037-.461-.225-.581-.486a.696.696 0 01-.113-.448l.002-.008a1.565 1.565 0 01.01-.297l.762-5.179c.09-.615.542-1.06 1.009-.99.467.067.772.623.682 1.239l-.672 4.571 4.624.503c.619.069 1.08.503 1.028.972-.047.428-.502.736-1.052.736-.053 0-.107-.002-.161-.009" fill="url(#ag)"/></g><g transform="matrix(.62537 0 0 -.62537 -320.327 380.81)" clip-path="url(#ah)"><path d="M539.58 597.57l-5.204-.567a1.434 1.434 0 01-.189-.035.63.63 0 01-.144-.002c-.257-.038-.462-.225-.582-.487a.7.7 0 01-.112-.447l.002-.009a1.42 1.42 0 01.01-.297l.761-5.179c.091-.615.542-1.059 1.01-.99.467.068.771.623.681 1.239l-.672 4.571 4.624.504c.619.068 1.08.503 1.029.971-.052.47-.594.795-1.214.728z" fill="none" stroke="#bf1b2c" stroke-width=".44"/></g><g transform="matrix(.62537 0 0 -.62537 -320.327 380.81)" clip-path="url(#ai)"><g mask="url(#aj)"><path d="M540.53 595.48a.822.822 0 01.259.256s-.094-.109-.259-.256m-2.325-.171c-2.305-2.569-2.14-8.475-2.14-8.475l-.979-5.713-2.15-5.82c-.197-.845.594-1.265.594-1.265-.495.723-.193 1.265-.193 1.265l2.037 5.82c.526 5.932 1.689 6.68 1.689 6.68-1.74 1.997 1.241 6.98 1.241 6.98.943-.282 1.81.33 2.226.699-.74-.474-2.325-.171-2.325-.171" fill="url(#ak)"/></g></g><g transform="matrix(.62537 0 0 -.62537 -320.327 380.81)" clip-path="url(#al)"><g mask="url(#am)"><path d="M539.61 597.2l.162.018-.162-.018m-5.512-.641c-.554-.167-.29-.822-.29-.822l.414-3.407c-.399 3.646.001 3.77.001 3.77.352.48 4.509.996 5.387 1.1zm.289-5.59l-.165 1.361c.045-.408.099-.86.165-1.361" fill="url(#an)"/></g></g><g transform="matrix(.62537 0 0 -.62537 -320.327 380.81)" clip-path="url(#ao)"><g mask="url(#ap)"><path d="M542.72 596.56c-.443 2.631 2.253 3.623 2.253 3.623-3.491-.593-2.253-3.623-2.253-3.623" fill="url(#aq)"/></g></g><g transform="matrix(.62537 0 0 -.62537 -320.327 380.81)" clip-path="url(#ar)"><g mask="url(#as)"><path d="M538.92 581.12l.215-6.399s.315-.684 1.02-.817c0 0-.636.198-.664 1.218l-.356 5.998-.825 1.679z" fill="url(#at)"/></g></g><g transform="matrix(.62537 0 0 -.62537 -320.327 380.81)" clip-path="url(#au)"><g mask="url(#av)"><path d="M541.96 589.83l5.202-2.586-.423.461-4.515 2.386-1.219 3.804z" fill="url(#aw)"/></g></g><g transform="matrix(.62537 0 0 -.62537 -320.327 380.81)" clip-path="url(#ax)"><path d="M523.7 595.7l-.206-5.205.002-.044c-.088-.344.075-.784.445-1.098l3.964-3.379c.471-.402 1.095-.446 1.391-.097.298.349.157.957-.315 1.36l-3.826 3.26.203 5.137c.025.62-.327 1.135-.785 1.153l-.024.001c-.448 0-.825-.48-.849-1.088" fill="url(#ay)"/></g><g transform="matrix(.62537 0 0 -.62537 -320.327 380.81)" clip-path="url(#az)"><path d="M528.98 587.23l-3.826 3.261.203 5.137c.024.619-.327 1.135-.785 1.153s-.849-.468-.873-1.088l-.206-5.204c-.001-.015.002-.03.002-.045-.088-.344.075-.783.444-1.098l3.964-3.379c.472-.401 1.095-.445 1.392-.097.297.349.157.958-.315 1.36z" fill="none" stroke="#bf1b2c" stroke-linecap="round" stroke-linejoin="round" stroke-width=".44"/></g><g transform="matrix(.62537 0 0 -.62537 -320.327 380.81)" clip-path="url(#aA)"><g mask="url(#aB)"><path d="M523.85 590.03l4.345-3.856h.001l-.288.555-3.735 3.484-.182 3.991z" fill="url(#aC)"/></g></g><g transform="matrix(.62537 0 0 -.62537 -320.327 380.81)" clip-path="url(#aD)"><path d="M548.32 587.23c-.58 0-.923-.247-1.107-.454-.461-.515-.423-1.265-.408-1.43V573.65h.79v11.715l-.002.043c-.016.152-.009.601.21.843.114.127.284.189.527.189-.001.003.372 0 .602-.222.138-.134.205-.329.205-.595h.789c0 .484-.148.874-.442 1.161-.433.42-1.012.446-1.143.446h-.021" fill="url(#aE)"/></g><g transform="matrix(.62537 0 0 -.62537 -320.327 380.81)" clip-path="url(#aF)"><path d="M547.59 573.65h-.79v11.696c-.015.165-.053.915.407 1.43.185.207.528.454 1.107.454.063.002.699.006 1.164-.447.294-.286.444-.677.444-1.16h-.79c0 .266-.067.46-.205.594-.23.223-.604.225-.602.223-.243 0-.412-.062-.527-.189-.219-.243-.226-.691-.21-.844l.002-.042z" fill="none" stroke="#4f4c4d" stroke-width=".44"/></g><g transform="matrix(.62537 0 0 -.62537 -320.327 380.81)" clip-path="url(#aG)"><path d="M521.19 586.99l-.573-5.781a1.21 1.21 0 01-.079-.185l-1.767-5.73a1.29 1.29 0 012.468-.76l1.767 5.727c.086.152.144.324.162.508l.592 5.966a1.291 1.291 0 11-2.57.255" fill="url(#aH)"/></g><g transform="matrix(.62537 0 0 -.62537 -320.327 380.81)" clip-path="url(#aI)"><path d="M522.6 588.15a1.292 1.292 0 01-1.413-1.158l-.574-5.781a1.267 1.267 0 01-.078-.185l-1.767-5.729a1.29 1.29 0 112.467-.761l1.768 5.729c.085.151.143.322.162.506l.592 5.966a1.291 1.291 0 01-1.157 1.413z" fill="none" stroke="#bf1b2c" stroke-width=".44"/></g><g transform="matrix(.62537 0 0 -.62537 -320.327 380.81)" clip-path="url(#aJ)"><path d="M525.55 602.5c-1.391-.403-2.292-1.836-2.047-3.263.016-.094.037-.187.061-.277.052-.189-.863-1.18-1.049-1.236-.672-.207-.4-.686-.812-1.356 0 0-2.126-3.585-.431-9.757l2.905-5.601a1.346 1.346 0 01-.007-.202l.384-5.908c.045-.699.608-1.29 1.307-1.281.745.009 1.322.64 1.275 1.374l-.389 5.983c.026.172.02.352-.029.532l-1.835 6.256a1.152 1.152 0 01-.095.242c-.431 1.151-.419 5.844-.373 6.415 0 0 .168 2.512.366 2.872a2.894 2.894 0 012.765-.219 2.892 2.892 0 011.711 2.757 2.9 2.9 0 01-3.707 2.669" fill="url(#aK)"/></g><g transform="matrix(.62537 0 0 -.62537 -320.327 380.81)" clip-path="url(#aL)"><path d="M529.25 599.84a2.9 2.9 0 01-3.707 2.67c-1.391-.403-2.292-1.836-2.047-3.263a3.51 3.51 0 01.061-.278c.051-.188-.864-1.178-1.05-1.236-.672-.207-.4-.686-.811-1.355 0 0-2.127-3.586-.431-9.757l2.905-5.601a1.35 1.35 0 01-.008-.202l.385-5.909c.045-.698.608-1.289 1.307-1.28a1.29 1.29 0 011.274 1.374l-.388 5.983c.026.172.02.352-.03.531l-1.835 6.257a1.153 1.153 0 01-.094.242c-.431 1.15-.42 5.844-.374 6.414 0 0 .169 2.512.367 2.872a2.894 2.894 0 012.765-.219 2.892 2.892 0 011.711 2.757z" fill="none" stroke="#bf1b2c" stroke-width=".44"/></g><g transform="matrix(.62537 0 0 -.62537 -320.327 380.81)" clip-path="url(#aM)"><g mask="url(#aN)"><path d="M524.53 598.16c-.441 2.633 2.254 3.624 2.254 3.624-3.49-.593-2.254-3.624-2.254-3.624" fill="url(#aO)"/></g></g><g transform="matrix(.62537 0 0 -.62537 -320.327 380.81)" clip-path="url(#aP)"><g mask="url(#aQ)"><path d="M521.14 581.31l-1.942-6.19s.099-.747.736-1.08c0 0-.551.375-.279 1.359l1.691 5.848.134 4.144z" fill="url(#aR)"/></g></g><g transform="matrix(.62537 0 0 -.62537 -320.327 380.81)" clip-path="url(#aS)"><g mask="url(#aT)"><path d="M523.85 595.83c.047.101.078.2.088.298 0 0-.023-.113-.088-.298m-2.369-1.94c-1.1-3.117.367-7.058.367-7.058l2.714-5.627.529-6.196c.126-.917.79-.975.79-.975-.4.337-.476 1.048-.476 1.048l-.55 6.196c-1.54 1.504-2.091 5.949-2.091 5.949-2.309.926-.953 6.334-.953 6.334a4.136 4.136 0 012.039 2.269c-.448-.948-2.369-1.94-2.369-1.94" fill="url(#aU)"/></g></g><g transform="matrix(.62537 0 0 -.62537 -320.327 380.81)" clip-path="url(#aV)"><path d="M521.96 597.46l-4.101-3.254a1.467 1.467 0 01-.141-.131.718.718 0 01-.121-.079c-.197-.168-.27-.436-.233-.721a.712.712 0 01.144-.439l.006-.006c.047-.085.1-.168.167-.246l3.405-3.976c.405-.472 1.024-.607 1.383-.3.358.307.32.94-.085 1.412l-3.006 3.51 3.644 2.891c.488.387.646 1.001.352 1.37-.142.179-.364.269-.611.269a1.32 1.32 0 01-.803-.3" fill="url(#aW)"/></g><g transform="matrix(.62537 0 0 -.62537 -320.327 380.81)" clip-path="url(#aX)"><path d="M521.96 597.46l-4.1-3.254a1.489 1.489 0 01-.142-.131.588.588 0 01-.12-.078c-.198-.169-.271-.437-.233-.722a.7.7 0 01.143-.438l.007-.007c.046-.084.1-.168.167-.246l3.405-3.975c.404-.473 1.023-.607 1.382-.3.358.307.321.939-.084 1.412l-3.006 3.509 3.644 2.891c.487.388.645 1.001.352 1.371-.294.369-.927.355-1.415-.032z" fill="none" stroke="#bf1b2c" stroke-width=".44"/></g><g transform="matrix(.62537 0 0 -.62537 -320.327 380.81)" clip-path="url(#aY)"><g mask="url(#aZ)"><path d="M522.31 597.09l.129.102a8.203 8.203 0 01-.129-.102m-4.346-3.448c-.383-.433.186-.851.186-.851l2.147-2.677c-2.259 2.888-1.985 3.204-1.985 3.204.046.594 3.302 3.218 3.998 3.772zm3.19-4.598l-.857 1.07c.253-.323.537-.679.857-1.07" fill="url(#ba)"/></g></g><path d="M5.032 1.528s-3.51 0-3.51 3.51v16.38s0 3.51 3.51 3.51h16.38s3.51 0 3.51-3.51V5.038s0-3.51-3.51-3.51z" fill="none" stroke="#231f20" stroke-width=".413"/></svg>