<svg xmlns="http://www.w3.org/2000/svg" width="100" height="100" viewBox="0 0 26.458 26.458"><defs><clipPath clipPathUnits="userSpaceOnUse" id="af"><path d="M526.418 176.046c8.259 8.242 10.756 6.21 10.756 6.21-1.079 2.127-2.267 2.048-2.506 2.095zm-.397-.399l.397.399-.397-.399"/></clipPath><clipPath clipPathUnits="userSpaceOnUse" id="r"><path d="M520.271 202.364s-5.612 0-5.612-5.613v-26.196c0-.153.071-4.566 4.102-5.454l.077-.001h28.848c1.651.357 4.389 1.539 4.389 5.459v26.192s0 5.613-5.612 5.613z"/></clipPath><clipPath clipPathUnits="userSpaceOnUse" id="s"><path d="M543.266 197.376l-1.973-4.305.968-.658 1.865 4.476c.381 1.041.352 1.364.168 1.364-.303 0-1.028-.877-1.028-.877"/></clipPath><clipPath clipPathUnits="userSpaceOnUse" id="u"><path d="M520.271 202.364s-5.612 0-5.612-5.613v-26.196c0-.153.071-4.566 4.102-5.454l.077-.001h28.848c1.651.357 4.389 1.539 4.389 5.459v26.192s0 5.613-5.612 5.613z"/></clipPath><clipPath clipPathUnits="userSpaceOnUse" id="v"><path d="M545.023 196.929l-2.697-4.532.991-.844 2.6 4.734c.567 1.142.554 1.491.329 1.491-.353 0-1.223-.849-1.223-.849"/></clipPath><clipPath clipPathUnits="userSpaceOnUse" id="x"><path d="M520.271 202.364s-5.612 0-5.612-5.613v-26.196c0-.153.071-4.566 4.102-5.454l.077-.001h28.848c1.651.357 4.389 1.539 4.389 5.459v26.192s0 5.613-5.612 5.613z"/></clipPath><clipPath clipPathUnits="userSpaceOnUse" id="y"><path d="M546.919 195.684l-3.383-4.046.846-.99 3.319 4.261c.783 1.101.784 1.423.517 1.423-.38 0-1.299-.648-1.299-.648"/></clipPath><clipPath clipPathUnits="userSpaceOnUse" id="A"><path d="M520.271 202.364s-5.612 0-5.612-5.613v-26.196c0-.153.071-4.566 4.102-5.454l.077-.001h28.848c1.651.357 4.389 1.539 4.389 5.459v26.192s0 5.613-5.612 5.613z"/></clipPath><clipPath clipPathUnits="userSpaceOnUse" id="B"><path d="M547.276 192.839l-2.83-2.398.812-.895 2.76 2.571c.738.773.614.977.276.977-.376 0-1.018-.255-1.018-.255"/></clipPath><clipPath clipPathUnits="userSpaceOnUse" id="D"><path d="M520.271 202.364s-5.612 0-5.612-5.613v-26.196c0-.153.071-4.566 4.102-5.454l.077-.001h28.848c1.651.357 4.389 1.539 4.389 5.459v26.192s0 5.613-5.612 5.613z"/></clipPath><clipPath clipPathUnits="userSpaceOnUse" id="E"><path d="M535.752 194.712c.812-.759 1.252-3.356 1.252-3.356l1.166.224c-.491.736-.276.622-.279 1.573-.002.951-.608 1.76-.608 1.76-.315.348-.578.47-.793.47-.503-.001-.738-.671-.738-.671"/></clipPath><clipPath clipPathUnits="userSpaceOnUse" id="G"><path d="M520.271 202.364s-5.612 0-5.612-5.613v-26.196c0-.153.071-4.566 4.102-5.454l.077-.001h28.848c1.651.357 4.389 1.539 4.389 5.459v26.192s0 5.613-5.612 5.613z"/></clipPath><clipPath clipPathUnits="userSpaceOnUse" id="H"><path d="M524.298 172.982a3.276 3.276 0 01-3.256-3.67c.215-1.796 1.812-2.8 3.61-2.584 1.798.217 3.112 1.568 2.896 3.366a3.277 3.277 0 01-3.249 2.888h-.001"/></clipPath><clipPath clipPathUnits="userSpaceOnUse" id="J"><path d="M520.271 202.364s-5.612 0-5.612-5.613v-26.196c0-.153.071-4.566 4.102-5.454l.077-.001h28.848c1.651.357 4.389 1.539 4.389 5.459v26.192s0 5.613-5.612 5.613z"/></clipPath><clipPath clipPathUnits="userSpaceOnUse" id="K"><path d="M536.347 186.876c-.888-.851-.78-2.13.071-3.019.853-.888 2.127-1.05 3.014-.198.889.852.918 2.263.065 3.152a2.222 2.222 0 01-1.608.686c-.555 0-1.11-.206-1.542-.621"/></clipPath><clipPath clipPathUnits="userSpaceOnUse" id="M"><path d="M520.271 202.364s-5.612 0-5.612-5.613v-26.196c0-.153.071-4.566 4.102-5.454l.077-.001h28.848c1.651.357 4.389 1.539 4.389 5.459v26.192s0 5.613-5.612 5.613z"/></clipPath><clipPath clipPathUnits="userSpaceOnUse" id="N"><path d="M534.261 185.035l-10.52-10.602c-.414-.416.639-.423 1.707-1.481l1.778-1.767c1.081-.928 1.083-2.111 1.495-1.695l9.061 12.026c.413.416.19 1.306-.497 1.988l-1.034 1.047c-.451.448-.99.696-1.423.696-.227 0-.426-.068-.567-.212"/></clipPath><clipPath clipPathUnits="userSpaceOnUse" id="P"><path d="M520.271 202.364s-5.612 0-5.612-5.613v-26.196c0-.153.071-4.566 4.102-5.454l.077-.001h28.848c1.651.357 4.389 1.539 4.389 5.459v26.192s0 5.613-5.612 5.613z"/></clipPath><clipPath clipPathUnits="userSpaceOnUse" id="Q"><path d="M514.659 184.323c1.035.712 1.712 1.846 1.751 3.273a4.62 4.62 0 01-1.751 3.755z"/></clipPath><clipPath clipPathUnits="userSpaceOnUse" id="S"><path d="M520.271 202.364s-5.612 0-5.612-5.613v-26.196c0-.153.071-4.566 4.102-5.454l.077-.001h28.848c1.651.357 4.389 1.539 4.389 5.459v26.192s0 5.613-5.612 5.613z"/></clipPath><clipPath clipPathUnits="userSpaceOnUse" id="T"><path d="M514.973 185.325l-.314-.222v-7.59l4.798-6.804c.333-.469 1.243-.398 2.034.161l2.867 2.021c.792.559 1.166 1.393.833 1.863l-8.46 11.993c-.058.082-.111.118-.167.118-.265 0-.575-.824-1.591-1.54"/></clipPath><clipPath clipPathUnits="userSpaceOnUse" id="V"><path d="M520.271 202.364s-5.612 0-5.612-5.613v-26.196c0-.153.071-4.566 4.102-5.454l.077-.001h28.848c1.651.357 4.389 1.539 4.389 5.459v26.192s0 5.613-5.612 5.613z"/></clipPath><clipPath clipPathUnits="userSpaceOnUse" id="n"><path d="M516.685 187.254l9.872-7.755-8.48-10.795-9.872 7.754z"/></clipPath><clipPath clipPathUnits="userSpaceOnUse" id="m"><path d="M-13903.2 14582.3H14932v-28835.2h-28835.2z"/></clipPath><clipPath clipPathUnits="userSpaceOnUse" id="W"><path d="M514.659 183.632v-4.495c2.342-3.198 5.662-7.577 5.662-7.577-5.88 8.412-4.858 12.837-4.858 12.837-.1-.213-.414-.487-.804-.765"/></clipPath><clipPath clipPathUnits="userSpaceOnUse" id="b"><path d="M523.22 171.673l2.314-1.818-1.811-2.305-2.314 1.818z"/></clipPath><clipPath clipPathUnits="userSpaceOnUse" id="a"><path d="M-13903.2 14582.3H14932v-28835.2h-28835.2z"/></clipPath><clipPath clipPathUnits="userSpaceOnUse" id="Z"><path d="M522.409 169.612c0-.569.476-1.029 1.062-1.029.588 0 1.063.46 1.063 1.029 0 .568-.475 1.028-1.063 1.028-.586 0-1.062-.46-1.062-1.028"/></clipPath><clipPath clipPathUnits="userSpaceOnUse" id="k"><path d="M537.114 186.889l1.155-1.335-1.334-1.155-1.155 1.335z"/></clipPath><clipPath clipPathUnits="userSpaceOnUse" id="j"><path d="M-32768 32767h65535v-65535h-65535z"/></clipPath><clipPath clipPathUnits="userSpaceOnUse" id="ac"><path d="M536.463 185.779c-.064-.327.136-.641.446-.701.311-.06.613.156.677.483.063.326-.138.639-.447.699a.533.533 0 01-.105.01.593.593 0 01-.571-.491"/></clipPath><clipPath clipPathUnits="userSpaceOnUse" id="h"><path d="M532.397 189.902l9.1-10.513-10.699-9.261-9.1 10.513z"/></clipPath><clipPath clipPathUnits="userSpaceOnUse" id="g"><path d="M-32768 32767h65535v-65535h-65535z"/></clipPath><clipPath clipPathUnits="userSpaceOnUse" id="p"><path d="M520.271 202.364s-5.612 0-5.612-5.613v-26.196c.001-.153.071-4.566 4.103-5.454l.076-.001h28.848c1.651.357 4.389 1.539 4.389 5.459v26.192s0 5.613-5.612 5.613z"/></clipPath><clipPath clipPathUnits="userSpaceOnUse" id="ai"><path d="M537.582 191.552s-1.949-.012.057-2.71c0 0-.293-.963.327-1.319l2.271-1.863s4.705 3.33 5.131 4.064c0 0-3.355 3.029-4.075 3.347 0 0-2.013-2.416-3.711-1.519"/></clipPath><clipPath clipPathUnits="userSpaceOnUse" id="ak"><path d="M520.271 202.364s-5.612 0-5.612-5.613v-26.196c0-.153.071-4.566 4.102-5.454l.077-.001h28.848c1.651.357 4.389 1.539 4.389 5.459v26.192s0 5.613-5.612 5.613z"/></clipPath><clipPath clipPathUnits="userSpaceOnUse" id="e"><path d="M539.454 194.379l4.654-5.376-5.306-4.592-4.654 5.375z"/></clipPath><clipPath clipPathUnits="userSpaceOnUse" id="d"><path d="M-13903.2 14582.3H14932v-28835.2h-28835.2z"/></clipPath><clipPath clipPathUnits="userSpaceOnUse" id="al"><path d="M541.146 191.771c.144.114.237.232.259.355 0 0-.102-.132-.259-.355m-3.155-1.115c-1.14.683-.386-.679-.386-.679l.815-1.286c-.154-.254.012-.712.012-.712l1.322-.987c-.993 1.16.714 3.82 1.392 4.779-.801-.633-3.155-1.115-3.155-1.115m2.203-3.992l-.44.328c.111-.129.257-.24.44-.328"/></clipPath><linearGradient x1="0" y1="0" x2="1" y2="0" gradientUnits="userSpaceOnUse" gradientTransform="matrix(.76415 -.8828 -.8828 -.76415 536.642 186.11)" spreadMethod="pad" id="ae"><stop offset="0" stop-color="#fff"/><stop offset="1" stop-color="#fff"/></linearGradient><linearGradient x1="0" y1="0" x2="1" y2="0" gradientUnits="userSpaceOnUse" gradientTransform="scale(52.9161 -52.9161) rotate(45 9.483 9.827)" spreadMethod="pad" id="q"><stop offset="0" stop-color="#50ade5"/><stop offset="1" stop-color="#fff"/></linearGradient><linearGradient x1="0" y1="0" x2="1" y2="0" gradientUnits="userSpaceOnUse" gradientTransform="scale(-3.12646 3.12646) rotate(50.94 -152.212 -152.261)" spreadMethod="pad" id="w"><stop offset="0" stop-color="#fbcec5"/><stop offset="1" stop-color="#bb8661"/></linearGradient><linearGradient x1="0" y1="0" x2="1" y2="0" gradientUnits="userSpaceOnUse" gradientTransform="scale(-3.1269 3.1269) rotate(60.07 -140.607 -120.555)" spreadMethod="pad" id="z"><stop offset="0" stop-color="#fbcec5"/><stop offset="1" stop-color="#bb8661"/></linearGradient><linearGradient x1="0" y1="0" x2="1" y2="0" gradientUnits="userSpaceOnUse" gradientTransform="matrix(-1.62208 2.35955 2.41072 .63989 547.568 190.16)" spreadMethod="pad" id="C"><stop offset="0" stop-color="#fbcec5"/><stop offset="1" stop-color="#bb8661"/></linearGradient><linearGradient x1="0" y1="0" x2="1" y2="0" gradientUnits="userSpaceOnUse" gradientTransform="scale(-4.04325 4.04325) rotate(44.774 -124.182 -137.924)" spreadMethod="pad" id="F"><stop offset="0" stop-color="#fbcec5"/><stop offset="1" stop-color="#bb8661"/></linearGradient><linearGradient x1="0" y1="0" x2="1" y2="0" gradientUnits="userSpaceOnUse" gradientTransform="matrix(6.50713 .78185 .78185 -6.50713 521.025 169.452)" spreadMethod="pad" id="I"><stop offset="0" stop-color="#fbcec5"/><stop offset="1" stop-color="#bb8661"/></linearGradient><linearGradient x1="0" y1="0" x2="1" y2="0" gradientUnits="userSpaceOnUse" gradientTransform="scale(4.9614 -4.9614) rotate(49.121 96.546 99.421)" spreadMethod="pad" id="f"><stop offset="0" stop-color="#fff"/><stop offset="1" stop-opacity="0" stop-color="#fff"/></linearGradient><linearGradient x1="0" y1="0" x2="1" y2="0" gradientUnits="userSpaceOnUse" gradientTransform="scale(4.9614 -4.9614) rotate(49.121 96.546 99.421)" spreadMethod="pad" id="an"><stop offset="0" stop-color="#fff"/><stop offset="1" stop-color="#fff"/></linearGradient><linearGradient x1="0" y1="0" x2="1" y2="0" gradientUnits="userSpaceOnUse" gradientTransform="scale(-7.12709 7.12709) rotate(44.778 -69.99 -79.334)" spreadMethod="pad" id="aj"><stop offset="0" stop-color="#fbcec5"/><stop offset="1" stop-color="#bb8661"/></linearGradient><linearGradient x1="0" y1="0" x2="1" y2="0" gradientUnits="userSpaceOnUse" gradientTransform="scale(3.22348 -3.22348) rotate(49.121 143.548 151.984)" spreadMethod="pad" id="i"><stop offset="0" stop-color="#fff"/><stop offset="1" stop-opacity="0" stop-color="#fff"/></linearGradient><linearGradient x1="0" y1="0" x2="1" y2="0" gradientUnits="userSpaceOnUse" gradientTransform="scale(3.22348 -3.22348) rotate(49.121 143.548 151.984)" spreadMethod="pad" id="ah"><stop offset="0" stop-color="#fff"/><stop offset="1" stop-color="#fff"/></linearGradient><linearGradient x1="0" y1="0" x2="1" y2="0" gradientUnits="userSpaceOnUse" gradientTransform="matrix(.76415 -.8828 -.8828 -.76415 536.642 186.11)" spreadMethod="pad" id="l"><stop offset="0" stop-color="#fff"/><stop offset="1" stop-opacity="0" stop-color="#fff"/></linearGradient><linearGradient x1="0" y1="0" x2="1" y2="0" gradientUnits="userSpaceOnUse" gradientTransform="scale(-2.8071 2.8071) rotate(44.774 -180.959 -200.695)" spreadMethod="pad" id="t"><stop offset="0" stop-color="#fbcec5"/><stop offset="1" stop-color="#bb8661"/></linearGradient><linearGradient x1="0" y1="0" x2="1" y2="0" gradientUnits="userSpaceOnUse" gradientTransform="scale(4.457 -4.457) rotate(46.195 109.35 120.127)" spreadMethod="pad" id="L"><stop offset="0" stop-color="#fbcec5"/><stop offset="1" stop-color="#bb8661"/></linearGradient><linearGradient x1="0" y1="0" x2="1" y2="0" gradientUnits="userSpaceOnUse" gradientTransform="scale(2.10032 -2.10032) rotate(38.15 241.635 319.279)" spreadMethod="pad" id="c"><stop offset="0" stop-color="#fff"/><stop offset="1" stop-opacity="0" stop-color="#fff"/></linearGradient><linearGradient x1="0" y1="0" x2="1" y2="0" gradientUnits="userSpaceOnUse" gradientTransform="scale(2.10032 -2.10032) rotate(38.15 241.635 319.279)" spreadMethod="pad" id="ab"><stop offset="0" stop-color="#fff"/><stop offset="1" stop-color="#fff"/></linearGradient><linearGradient x1="0" y1="0" x2="1" y2="0" gradientUnits="userSpaceOnUse" gradientTransform="scale(12.84778 -12.84778) rotate(38.149 40.458 50.577)" spreadMethod="pad" id="o"><stop offset="0" stop-color="#fff"/><stop offset="1" stop-opacity="0" stop-color="#fff"/></linearGradient><linearGradient x1="0" y1="0" x2="1" y2="0" gradientUnits="userSpaceOnUse" gradientTransform="scale(12.84778 -12.84778) rotate(38.149 40.458 50.577)" spreadMethod="pad" id="Y"><stop offset="0" stop-color="#fff"/><stop offset="1" stop-color="#fff"/></linearGradient><linearGradient x1="0" y1="0" x2="1" y2="0" gradientUnits="userSpaceOnUse" gradientTransform="matrix(5.73444 4.0459 2.40157 -3.40375 515.464 176.37)" spreadMethod="pad" id="U"><stop offset="0" stop-color="#fbcec5"/><stop offset="1" stop-color="#bb8661"/></linearGradient><linearGradient x1="0" y1="0" x2="1" y2="0" gradientUnits="userSpaceOnUse" gradientTransform="scale(9.2546 -9.2546) rotate(1.576 766.133 1982.197)" spreadMethod="pad" id="R"><stop offset="0" stop-color="#fbcec5"/><stop offset="1" stop-color="#bb8661"/></linearGradient><linearGradient x1="0" y1="0" x2="1" y2="0" gradientUnits="userSpaceOnUse" gradientTransform="matrix(-4.98186 4.94257 2.98533 3.00919 534.275 175.087)" spreadMethod="pad" id="O"><stop offset="0" stop-color="#fbcec5"/><stop offset="1" stop-color="#bb8661"/></linearGradient><mask maskUnits="userSpaceOnUse" x="0" y="0" width="1" height="1" id="aa"><g clip-path="url(#a)"><g clip-path="url(#b)"><path d="M523.22 171.673l2.314-1.818-1.811-2.305-2.314 1.818z" fill="url(#c)"/></g></g></mask><mask maskUnits="userSpaceOnUse" x="0" y="0" width="1" height="1" id="am"><g clip-path="url(#d)"><g clip-path="url(#e)"><path d="M539.454 194.379l4.654-5.376-5.306-4.592-4.654 5.375z" fill="url(#f)"/></g></g></mask><mask maskUnits="userSpaceOnUse" x="0" y="0" width="1" height="1" id="ag"><g clip-path="url(#g)"><g clip-path="url(#h)"><path d="M532.397 189.902l9.1-10.513-10.699-9.261-9.1 10.513z" fill="url(#i)"/></g></g></mask><mask maskUnits="userSpaceOnUse" x="0" y="0" width="1" height="1" id="ad"><g clip-path="url(#j)"><g clip-path="url(#k)"><path d="M537.114 186.889l1.155-1.335-1.334-1.155-1.155 1.335z" fill="url(#l)"/></g></g></mask><mask maskUnits="userSpaceOnUse" x="0" y="0" width="1" height="1" id="X"><g clip-path="url(#m)"><g clip-path="url(#n)"><path d="M516.685 187.254l9.872-7.755-8.48-10.795-9.872 7.754z" fill="url(#o)"/></g></g></mask></defs><g clip-path="url(#p)" transform="matrix(.62536 0 0 -.62538 -320.318 128.083)"><path d="M520.271 202.364s-5.612 0-5.612-5.613v-26.196c.001-.153.071-4.566 4.103-5.454l.076-.001h28.848c1.651.357 4.389 1.539 4.389 5.459v26.192s0 5.613-5.612 5.613z" fill="url(#q)"/></g><g clip-path="url(#r)" transform="matrix(.62536 0 0 -.62538 -320.318 128.083)" fill="none"><path d="M541.294 193.07l1.972 4.306s1.87 2.266.86-.486l-1.864-4.476zm1.032-.673l2.698 4.532s2.342 2.284.894-.642l-2.6-4.733zm1.211-.759l3.382 4.047s2.676 1.884.783-.776l-3.32-4.261zm.909-1.197l2.83 2.398s2.306.915.742-.722l-2.76-2.57zm-7.442.915s-.44 2.596-1.251 3.356c0 0 .477 1.363 1.53.201 0 0 .607-.809.609-1.76.002-.95-.213-.838.278-1.573z" stroke="#fff" stroke-width="2.64"/><path d="M541.294 193.07l1.972 4.306s1.87 2.266.86-.486l-1.864-4.476zm1.032-.673l2.698 4.532s2.342 2.284.894-.642l-2.6-4.733zm1.211-.759l3.382 4.047s2.676 1.884.783-.776l-3.32-4.261zm.909-1.197l2.83 2.398s2.306.915.742-.722l-2.76-2.57zm-7.442.915s-.44 2.596-1.251 3.356c0 0 .477 1.363 1.53.201 0 0 .607-.809.609-1.76.002-.95-.213-.838.278-1.573z" stroke="#fff" stroke-width="2.64"/><path d="M541.294 193.07l1.972 4.306s1.87 2.266.86-.486l-1.864-4.476zm1.032-.673l2.698 4.532s2.342 2.284.894-.642l-2.6-4.733zm1.211-.759l3.382 4.047s2.676 1.884.783-.776l-3.32-4.261zm.909-1.197l2.83 2.398s2.306.915.742-.722l-2.76-2.57zm-7.442.915s-.44 2.596-1.251 3.356c0 0 .477 1.363 1.53.201 0 0 .607-.809.609-1.76.002-.95-.213-.838.278-1.573zm-9.455-21.262c.216-1.797-1.1-3.149-2.896-3.366-1.798-.216-3.396.789-3.611 2.585a3.278 3.278 0 106.507.781z" stroke="#fff" stroke-width="2.64"/><path d="M525.905 169.333a2.056 2.056 0 00-1.8-2.288 2.057 2.057 0 101.799 2.288zm13.527 14.327c-.888-.853-2.16-.691-3.014.197-.85.889-.96 2.169-.07 3.02a2.227 2.227 0 003.148-.065 2.227 2.227 0 00-.064-3.152z" stroke="#fff" stroke-width="2.64"/><path d="M538.347 184.241a1.401 1.401 0 10-1.94 2.023 1.401 1.401 0 001.94-2.023z" stroke="#fff" stroke-width="2.64"/><path d="M534.26 185.036c.411.415 1.303.2 1.99-.484l1.034-1.048c.688-.681.911-1.571.5-1.988l-9.062-12.026c-.412-.416-.414.768-1.494 1.696l-1.78 1.766c-1.067 1.058-2.12 1.066-1.707 1.48zm-17.85 2.56c-.07-2.555-2.185-4.172-4.741-4.103-2.555.07-4.58 1.802-4.51 4.357a4.628 4.628 0 109.252-.254z" stroke="#fff" stroke-width="2.64"/><path d="M513.957 186.872a2.907 2.907 0 10-5.812.162 2.907 2.907 0 005.812-.162z" stroke="#fff" stroke-width="2.64"/><path d="M525.192 174.754c.332-.47-.041-1.304-.834-1.863l-2.865-2.021c-.792-.56-1.703-.63-2.035-.16l-8.46 11.993c-.332.469.825.277 1.928 1.177l2.047 1.445c1.23.867 1.426 1.89 1.758 1.422z" stroke="#fff" stroke-width="2.64"/><path d="M512.433 182.317s2.7 1.37 3.03 2.08c0 0-1.022-4.425 4.858-12.837 0 0-7.291 9.617-7.888 10.757zm12.102-12.705c0-.568-.476-1.028-1.063-1.028s-1.064.46-1.064 1.028c0 .568.477 1.029 1.064 1.029.587 0 1.063-.461 1.063-1.03zm13.051 15.948c-.064-.325-.366-.542-.676-.482a.588.588 0 00-.447.7c.063.327.365.543.675.483a.589.589 0 00.448-.7zm-11.566-9.914l8.648 8.704c.24-.046 1.427.033 2.506-2.094 0 0-2.576 2.098-11.153-6.61zm-17.874 13.333s3.537 3.322 5.812 1.673c0 0-3.126 3.382-5.812-1.673zm29.494-.136s-.294-.964.326-1.32l2.27-1.862s4.705 3.329 5.132 4.063c0 0-3.355 3.03-4.075 3.347 0 0-2.013-2.415-3.712-1.518 0 0-1.949-.013.058-2.71z" stroke="#fff" stroke-width="2.64"/><path d="M540.194 186.664l-1.762 1.314s-.167.46-.012.713l-.815 1.287s-.755 1.361.386.68c0 0 3.274.67 3.414 1.467 0 0-3.42-4.408-1.21-5.46z" stroke="#fff" stroke-width="2.64"/><path d="M541.294 193.07l1.972 4.306s1.87 2.266.86-.486l-1.864-4.476zm1.032-.673l2.698 4.532s2.342 2.284.894-.642l-2.6-4.733zm1.211-.759l3.382 4.047s2.676 1.884.783-.776l-3.32-4.261zm.909-1.197l2.83 2.398s2.306.915.742-.722l-2.76-2.57zm-7.442.915s-.44 2.596-1.251 3.356c0 0 .477 1.363 1.53.201 0 0 .607-.809.609-1.76.002-.95-.213-.838.278-1.573z" stroke="#6f4324" stroke-width=".88" stroke-linejoin="round"/></g><g clip-path="url(#s)" transform="matrix(.62536 0 0 -.62538 -320.318 128.083)"><path d="M543.266 197.376l-1.973-4.305.968-.658 1.865 4.476c.381 1.041.352 1.364.168 1.364-.303 0-1.028-.877-1.028-.877" fill="url(#t)"/></g><g clip-path="url(#u)" transform="matrix(.62536 0 0 -.62538 -320.318 128.083)"><path d="M541.294 193.07l1.972 4.306s1.87 2.266.86-.486l-1.864-4.476z" fill="none" stroke="#6f4324" stroke-width=".44"/></g><g clip-path="url(#v)" transform="matrix(.62536 0 0 -.62538 -320.318 128.083)"><path d="M545.023 196.929l-2.697-4.532.991-.844 2.6 4.734c.567 1.142.554 1.491.329 1.491-.353 0-1.223-.849-1.223-.849" fill="url(#w)"/></g><g clip-path="url(#x)" transform="matrix(.62536 0 0 -.62538 -320.318 128.083)"><path d="M542.326 192.397l2.698 4.532s2.342 2.284.894-.642l-2.6-4.733z" fill="none" stroke="#6f4324" stroke-width=".44"/></g><g clip-path="url(#y)" transform="matrix(.62536 0 0 -.62538 -320.318 128.083)"><path d="M546.919 195.684l-3.383-4.046.846-.99 3.319 4.261c.783 1.101.784 1.423.517 1.423-.38 0-1.299-.648-1.299-.648" fill="url(#z)"/></g><g clip-path="url(#A)" transform="matrix(.62536 0 0 -.62538 -320.318 128.083)"><path d="M543.537 191.638l3.382 4.047s2.676 1.884.783-.776l-3.32-4.261z" fill="none" stroke="#6f4324" stroke-width=".44"/></g><g clip-path="url(#B)" transform="matrix(.62536 0 0 -.62538 -320.318 128.083)"><path d="M547.276 192.839l-2.83-2.398.812-.895 2.76 2.571c.738.773.614.977.276.977-.376 0-1.018-.255-1.018-.255" fill="url(#C)"/></g><g clip-path="url(#D)" transform="matrix(.62536 0 0 -.62538 -320.318 128.083)"><path d="M544.446 190.441l2.83 2.398s2.306.915.742-.722l-2.76-2.57z" fill="none" stroke="#6f4324" stroke-width=".44"/></g><g clip-path="url(#E)" transform="matrix(.62536 0 0 -.62538 -320.318 128.083)"><path d="M535.752 194.712c.812-.759 1.252-3.356 1.252-3.356l1.166.224c-.491.736-.276.622-.279 1.573-.002.951-.608 1.76-.608 1.76-.315.348-.578.47-.793.47-.503-.001-.738-.671-.738-.671" fill="url(#F)"/></g><g clip-path="url(#G)" transform="matrix(.62536 0 0 -.62538 -320.318 128.083)"><path d="M537.004 191.356s-.44 2.596-1.251 3.356c0 0 .477 1.363 1.53.201 0 0 .607-.809.609-1.76.002-.95-.213-.838.278-1.573z" fill="none" stroke="#6f4324" stroke-width=".44"/></g><g clip-path="url(#H)" transform="matrix(.62536 0 0 -.62538 -320.318 128.083)"><path d="M524.298 172.982a3.276 3.276 0 01-3.256-3.67c.215-1.796 1.812-2.8 3.61-2.584 1.798.217 3.112 1.568 2.896 3.366a3.277 3.277 0 01-3.249 2.888h-.001" fill="url(#I)"/></g><g clip-path="url(#J)" transform="matrix(.62536 0 0 -.62538 -320.318 128.083)" fill="none" stroke="#6f4324"><path d="M527.549 170.094c.216-1.797-1.1-3.149-2.896-3.366-1.798-.216-3.396.789-3.611 2.585a3.278 3.278 0 106.507.781z" stroke-width=".88"/><path d="M525.905 169.333a2.056 2.056 0 00-1.8-2.288 2.057 2.057 0 101.799 2.288z" stroke-width=".44"/></g><g clip-path="url(#K)" transform="matrix(.62536 0 0 -.62538 -320.318 128.083)"><path d="M536.347 186.876c-.888-.851-.78-2.13.071-3.019.853-.888 2.127-1.05 3.014-.198.889.852.918 2.263.065 3.152a2.222 2.222 0 01-1.608.686c-.555 0-1.11-.206-1.542-.621" fill="url(#L)"/></g><g clip-path="url(#M)" transform="matrix(.62536 0 0 -.62538 -320.318 128.083)" fill="none" stroke="#6f4324"><path d="M539.432 183.66c-.888-.853-2.16-.691-3.014.197-.85.889-.96 2.169-.07 3.02a2.227 2.227 0 003.148-.065 2.227 2.227 0 00-.064-3.152z" stroke-width=".88"/><path d="M538.347 184.241a1.401 1.401 0 10-1.94 2.023 1.401 1.401 0 001.94-2.023z" stroke-width=".44"/></g><g clip-path="url(#N)" transform="matrix(.62536 0 0 -.62538 -320.318 128.083)"><path d="M534.261 185.035l-10.52-10.602c-.414-.416.639-.423 1.707-1.481l1.778-1.767c1.081-.928 1.083-2.111 1.495-1.695l9.061 12.026c.413.416.19 1.306-.497 1.988l-1.034 1.047c-.451.448-.99.696-1.423.696-.227 0-.426-.068-.567-.212" fill="url(#O)"/></g><g clip-path="url(#P)" transform="matrix(.62536 0 0 -.62538 -320.318 128.083)"><path d="M534.26 185.036c.411.415 1.303.2 1.99-.484l1.034-1.048c.688-.681.911-1.571.5-1.988l-9.062-12.026c-.412-.416-.414.768-1.494 1.696l-1.78 1.766c-1.067 1.058-2.12 1.066-1.707 1.48z" fill="none" stroke="#6f4324" stroke-width=".88"/></g><g clip-path="url(#Q)" transform="matrix(.62536 0 0 -.62538 -320.318 128.083)"><path d="M514.659 184.323c1.035.712 1.712 1.846 1.751 3.273a4.62 4.62 0 01-1.751 3.755z" fill="url(#R)"/></g><g clip-path="url(#S)" transform="matrix(.62536 0 0 -.62538 -320.318 128.083)"><path d="M516.41 187.596c-.07-2.555-2.185-4.172-4.741-4.103-2.555.07-4.58 1.802-4.51 4.357a4.628 4.628 0 109.252-.254z" fill="none" stroke="#6f4324" stroke-width=".88"/></g><g clip-path="url(#T)" transform="matrix(.62536 0 0 -.62538 -320.318 128.083)"><path d="M514.973 185.325l-.314-.222v-7.59l4.798-6.804c.333-.469 1.243-.398 2.034.161l2.867 2.021c.792.559 1.166 1.393.833 1.863l-8.46 11.993c-.058.082-.111.118-.167.118-.265 0-.575-.824-1.591-1.54" fill="url(#U)"/></g><g clip-path="url(#V)" transform="matrix(.62536 0 0 -.62538 -320.318 128.083)"><path d="M525.192 174.754c.332-.47-.041-1.304-.834-1.863l-2.865-2.021c-.792-.56-1.703-.63-2.035-.16l-8.46 11.993c-.332.469.825.277 1.928 1.177l2.047 1.445c1.23.867 1.426 1.89 1.758 1.422z" fill="none" stroke="#6f4324" stroke-width=".88"/></g><g clip-path="url(#W)" transform="matrix(.62536 0 0 -.62538 -320.318 128.083)"><g mask="url(#X)"><path d="M514.659 183.632v-4.495c2.342-3.198 5.662-7.577 5.662-7.577-5.88 8.412-4.858 12.837-4.858 12.837-.1-.213-.414-.487-.804-.765" fill="url(#Y)"/></g></g><g clip-path="url(#Z)" transform="matrix(.62536 0 0 -.62538 -320.318 128.083)"><g mask="url(#aa)"><path d="M522.409 169.612c0-.569.476-1.029 1.062-1.029.588 0 1.063.46 1.063 1.029 0 .568-.475 1.028-1.063 1.028-.586 0-1.062-.46-1.062-1.028" fill="url(#ab)"/></g></g><g clip-path="url(#ac)" transform="matrix(.62536 0 0 -.62538 -320.318 128.083)"><g mask="url(#ad)"><path d="M536.463 185.779c-.064-.327.136-.641.446-.701.311-.06.613.156.677.483.063.326-.138.639-.447.699a.533.533 0 01-.105.01.593.593 0 01-.571-.491" fill="url(#ae)"/></g></g><g clip-path="url(#af)" transform="matrix(.62536 0 0 -.62538 -320.318 128.083)"><g mask="url(#ag)"><path d="M526.418 176.046c8.259 8.242 10.756 6.21 10.756 6.21-1.079 2.127-2.267 2.048-2.506 2.095zm-.397-.399l.397.399-.397-.399" fill="url(#ah)"/></g></g><g clip-path="url(#ai)" transform="matrix(.62536 0 0 -.62538 -320.318 128.083)"><path d="M537.582 191.552s-1.949-.012.057-2.71c0 0-.293-.963.327-1.319l2.271-1.863s4.705 3.33 5.131 4.064c0 0-3.355 3.029-4.075 3.347 0 0-2.013-2.416-3.711-1.519" fill="url(#aj)"/></g><g clip-path="url(#ak)" transform="matrix(.62536 0 0 -.62538 -320.318 128.083)"><path d="M537.64 188.843s-.294-.964.326-1.32l2.27-1.862s4.705 3.329 5.132 4.063c0 0-3.355 3.03-4.075 3.347 0 0-2.013-2.415-3.712-1.518 0 0-1.949-.013.058-2.71z" fill="none" stroke="#6f4324" stroke-width=".88"/></g><g clip-path="url(#al)" transform="matrix(.62536 0 0 -.62538 -320.318 128.083)"><g mask="url(#am)"><path d="M541.146 191.771c.144.114.237.232.259.355 0 0-.102-.132-.259-.355m-3.155-1.115c-1.14.683-.386-.679-.386-.679l.815-1.286c-.154-.254.012-.712.012-.712l1.322-.987c-.993 1.16.714 3.82 1.392 4.779-.801-.633-3.155-1.115-3.155-1.115m2.203-3.992l-.44.328c.111-.129.257-.24.44-.328" fill="url(#an)"/></g></g><path d="M0 0s-5.613 0-5.613-5.613v-26.192s0-5.612 5.613-5.612h26.192s5.613 0 5.613 5.612v26.192S31.805 0 26.192 0z" fill="none" stroke="#231f20" stroke-width=".66" transform="matrix(.62536 0 0 -.62538 5.04 1.53)"/></svg>