<svg width="100" height="100" viewBox="0 0 26.458 26.458" xmlns="http://www.w3.org/2000/svg"><defs><clipPath id="aS"><path d="M474.75 606.47s-5.612 0-5.612-5.612v-26.195c.001-.162.079-5.096 4.849-5.572h27.472c1.389.16 5.096 1.014 5.096 5.575v26.192s0 5.612-5.613 5.612z"/></clipPath><clipPath id="aZ"><path d="M496.84 582.87c-.277-.411-.273-.9.012-1.091l2.448-1.652 1.468-4.428a.898.898 0 011.705.565l-1.53 4.617a.87.87 0 01-.112.219.488.488 0 01-.192.292l-2.783 1.876a.465.465 0 01-.264.078c-.254 0-.55-.177-.752-.476"/></clipPath><clipPath id="K"><path d="M-13949 14986h28835v-28835h-28835z"/></clipPath><clipPath id="ab"><path d="M469.13 606.51l-.001-.001v-25.803s36.96-2.245 74.836 21.379v4.425h-.001z"/></clipPath><clipPath id="Z"><path d="M469.13 606.51h74.836v-25.861H469.13z"/></clipPath><clipPath id="Y"><path d="M474.75 606.47s-5.612 0-5.612-5.612v-26.195c.001-.162.079-5.096 4.849-5.572h27.472c1.389.16 5.096 1.014 5.096 5.575v26.192s0 5.612-5.613 5.612z"/></clipPath><clipPath id="T"><path d="M474.75 606.47s-5.612 0-5.612-5.612v-26.195c.001-.162.079-5.096 4.849-5.572h27.473c1.388.16 5.095 1.014 5.095 5.575v26.192s0 5.612-5.613 5.612z"/></clipPath><clipPath id="q"><path d="M469.13 576.85h37.417v-7.756H469.13z"/></clipPath><clipPath id="p"><path d="M-32768 32767h65535v-65535h-65535z"/></clipPath><clipPath id="V"><path d="M469.13 576.85v-2.183c.001-.162.079-5.096 4.849-5.572h27.473c1.388.16 5.095 1.014 5.095 5.575v2.18z"/></clipPath><clipPath id="ad"><path d="M483.02 578.59l-.923-2.075c-.045-.1-.029-.218.029-.334a.392.392 0 01.029-.053.975.975 0 01.289-.282l1.419-1.316c.199-.183.601-.071.899.25.298.322.378.733.18.916l-1.042.965.572 1.284c.109.246-.126.59-.529.769-.158.07-.318.105-.461.105-.219 0-.396-.08-.462-.229"/></clipPath><clipPath id="af"><path d="M474.75 606.47s-5.612 0-5.612-5.612v-26.195c.001-.162.079-5.096 4.849-5.572h27.472c1.389.16 5.096 1.014 5.096 5.575v26.192s0 5.612-5.613 5.612z"/></clipPath><clipPath id="ag"><path d="M478.56 579.77l-3.033-3.495c-.019-.023-.033-.048-.05-.072h-3.187a.997.997 0 110-1.993h4.628a.995.995 0 01.816 1.566l2.332 2.687a.997.997 0 11-1.506 1.307"/></clipPath><clipPath id="ai"><path d="M474.75 606.47s-5.612 0-5.612-5.612v-26.195c.001-.162.079-5.096 4.849-5.572h27.472c1.389.16 5.096 1.014 5.096 5.575v26.192s0 5.612-5.613 5.612z"/></clipPath><clipPath id="aj"><path d="M484.51 581.84c0-.387.094-.749.256-1.072-.04.004-.079.012-.12.012h-5.609a1.216 1.216 0 01-1.216-1.217v-1.224c0-.673.544-1.217 1.216-1.217l5.204.811c.671 0 1.621.95 1.621 1.622v.008c0 .045-.009.086-.013.128a2.398 2.398 0 013.456 2.149 2.398 2.398 0 01-4.795 0"/></clipPath><clipPath id="al"><path d="M474.75 606.47s-5.612 0-5.612-5.612v-26.195c.001-.162.079-5.096 4.849-5.572h27.472c1.389.16 5.096 1.014 5.096 5.575v26.192s0 5.612-5.613 5.612z"/></clipPath><clipPath id="am"><path d="M476.42 580.16l-.115-1.134a1.689 1.689 0 011.512-1.849l1.891-.192c.928-.094.916.668 1.01 1.596l.114 1.134c.094.928.258 1.672-.67 1.766l-1.891.19a1.69 1.69 0 01-1.851-1.511"/></clipPath><clipPath id="ao"><path d="M474.75 606.47s-5.612 0-5.612-5.612v-26.195c.001-.162.079-5.096 4.849-5.572h27.472c1.389.16 5.096 1.014 5.096 5.575v26.192s0 5.612-5.613 5.612z"/></clipPath><clipPath id="ap"><path d="M477.98 579.33a.996.996 0 01-.231-1.391l1.565-2.189h-2.69a.997.997 0 110-1.993h4.628l.014.001c.038.001.076.007.113.011l.083.01c.029.007.056.018.084.027.035.01.07.02.103.034.02.008.038.021.057.031.04.02.079.04.116.067l.01.005c.016.011.028.027.043.039.034.027.066.052.096.083.02.021.035.044.053.065.023.028.047.057.066.087.016.024.027.05.041.076.017.032.033.062.047.095.011.028.018.057.026.085.01.033.02.067.027.101.006.035.008.069.011.104.001.025.007.05.007.076l-.001.013c-.001.04-.007.078-.012.117-.003.026-.004.053-.01.08-.007.031-.019.062-.029.094-.009.031-.017.062-.03.092-.011.024-.026.048-.039.071-.019.034-.036.069-.058.101-.003.003-.004.008-.007.012l-2.692 3.765a.997.997 0 01-1.391.231"/></clipPath><clipPath id="ar"><path d="M474.75 606.47s-5.612 0-5.612-5.612v-26.195c.001-.162.079-5.096 4.849-5.572h27.472c1.389.16 5.096 1.014 5.096 5.575v26.192s0 5.612-5.613 5.612z"/></clipPath><clipPath id="k"><path d="M476.7 581.36h3.446v-3.784H476.7z"/></clipPath><clipPath id="j"><path d="M-32768 32767h65535v-65535h-65535z"/></clipPath><clipPath id="as"><path d="M476.87 580.45l-.168-1.627c0-.748.776-1.245.776-1.245-.776.811-.473 1.245-.473 1.245l.406 1.492c.237 1.047 2.737.819 2.737.819l-2.095.194a1.221 1.221 0 01-1.183-.878"/></clipPath><clipPath id="R"><path d="M483.84 583.83h3.311v-3.141h-3.311z"/></clipPath><clipPath id="Q"><path d="M-13949 14986h28835v-28835h-28835z"/></clipPath><clipPath id="av"><path d="M485.29 580.68c-.74 2.529 1.859 3.141 1.859 3.141-3.311-.372-1.859-3.141-1.859-3.141"/></clipPath><clipPath id="z"><path d="M483.59 578.96h5.243v-4.899h-5.243z"/></clipPath><clipPath id="y"><path d="M-13949 14986h28835v-28835h-28835z"/></clipPath><clipPath id="ay"><path d="M484.23 578.96c-.084 0-.638-.088 1.828-2.77l2.777-2.129-2.635 2.352s-1.758 1.534-1.96 2.547h-.01"/></clipPath><clipPath id="h"><path d="M481.13 580.41h3.839v-1.087h-3.839z"/></clipPath><clipPath id="g"><path d="M-13949 14986h28835v-28835h-28835z"/></clipPath><clipPath id="aB"><path d="M481.27 580.41l-.126-1.022c.196.914 3.829 1.022 3.829 1.022zm-.135-1.087l.009.065a.35.35 0 01-.009-.065"/></clipPath><clipPath id="I"><path d="M475.45 575.34h4.022v-1.284h-4.022z"/></clipPath><clipPath id="H"><path d="M-32768 32767h65535v-65535h-65535z"/></clipPath><clipPath id="aE"><path d="M479.26 575.34h.212l-.097.001-.115-.001m-2.854 0c-.906-.402 0-1.284 0-1.284-.956 1.167 2.02 1.276 2.854 1.284z"/></clipPath><clipPath id="t"><path d="M471.2 575.88h4.022v-1.284H471.2z"/></clipPath><clipPath id="s"><path d="M-13949 14986h28835v-28835h-28835z"/></clipPath><clipPath id="aH"><path d="M475 575.88h.213l-.099.001-.114-.001m-2.854 0c-.905-.402 0-1.284 0-1.284-.955 1.166 2.016 1.276 2.854 1.284z"/></clipPath><clipPath id="O"><path d="M477.66 579.1h2.064v-3.446h-2.064z"/></clipPath><clipPath id="N"><path d="M-13949 14986h28835v-28835h-28835z"/></clipPath><clipPath id="aK"><path d="M478.02 578.25l1.697-2.601-1.291 2.23c-.44.844 0 1.216 0 1.216-.773-.18-.406-.845-.406-.845"/></clipPath><clipPath id="br"><path d="M497.3 587.84c.095-.097.186-.189.274-.275zm2.016-2.018l3.118-1.569c-.487.246-2.885 1.491-2.857 2.015 0 0-.136-.54-2.003 1.297zm3.203-1.613l-.085.044.085-.044"/></clipPath><clipPath id="n"><path d="M482.52 577.13h1.602v-2.221h-1.602z"/></clipPath><clipPath id="B"><path d="M-32768 32767h65535v-65535h-65535z"/></clipPath><clipPath id="C"><path d="M502.51 584.21h-5.219v3.63h5.219z"/></clipPath><clipPath id="bo"><path d="M496.21 585.2l-.306-6.244-1.467-3.614c-.477-1.023 0-1.133 0-1.133-.293.301.147 1.03.147 1.03l1.626 3.852c-.389 4.268.423 6.109.423 6.109-.48.623-.18 2.934-.18 2.934-.109-.551-.243-2.934-.243-2.934"/></clipPath><clipPath id="m"><path d="M-13949 14986h28835v-28835h-28835z"/></clipPath><clipPath id="v"><path d="M-13949 14986h28835v-28835h-28835z"/></clipPath><clipPath id="w"><path d="M496.63 574.21h-2.673v13.925h2.673z"/></clipPath><clipPath id="bl"><path d="M496.52 590.81c-.741 2.529 1.858 3.14 1.858 3.14-3.311-.372-1.858-3.14-1.858-3.14"/></clipPath><clipPath id="aN"><path d="M482.76 577.06l.025.068a.394.394 0 01-.025-.068m-.246-.646l1.064-1.001c-.442.462-.974 1.147-.818 1.647zm1.602-1.507l-.538.506c.288-.299.538-.506.538-.506"/></clipPath><clipPath id="d"><path d="M-13949 14986h28835v-28835h-28835z"/></clipPath><clipPath id="e"><path d="M495.07 593.95h3.311v-3.141h-3.311z"/></clipPath><clipPath id="bk"><path d="M474.75 606.47s-5.612 0-5.612-5.612v-26.195c.001-.162.079-5.096 4.849-5.572h27.472c1.389.16 5.096 1.014 5.096 5.575v26.192s0 5.612-5.613 5.612z"/></clipPath><clipPath id="bi"><path d="M497.07 588.57c-.304-.316-.342-.774-.084-1.023l2.171-2.092a.552.552 0 01.223-.129l3.016-1.509c.362-.181.816-.009 1.012.382.196.393.062.858-.302 1.039l-2.983 1.493-2.035 1.96a.578.578 0 01-.407.156.866.866 0 01-.611-.277"/></clipPath><clipPath id="bh"><path d="M474.75 606.47s-5.612 0-5.612-5.612v-26.195c.001-.162.079-5.096 4.849-5.572h27.472c1.389.16 5.096 1.014 5.096 5.575v26.192s0 5.612-5.613 5.612z"/></clipPath><clipPath id="bf"><path d="M495.72 591.82c0-1.105.627-1.848 1.578-2.265-1.177-.674-1.129-1.734-1.248-2.711l-.22-2.054-.184-2.567-.14-3.151c-.015-.048-.031-.097-.04-.149l-1.624-4.081a.985.985 0 01.814-1.133c.537-.088.898.323 1.134.813l1.623 4.08c.05.124.076.26.07.401l-.074 2.019c-.111.651-.046.622.163.853.803.894.803.894 1.154 2.475l.294 1.622c.056.454.329 1.5-.386 3.336 1.524.037 2.476 1.242 2.476 2.512a2.695 2.695 0 01-5.39 0"/></clipPath><clipPath id="bc"><path d="M497.81 581.68l1.943-1.263 1.357-4.527-1.137 4.527-2.163 1.516z"/></clipPath><clipPath id="aQ"><path d="M484.12 579.38c-.352-.262-.463-.708-.249-.996l1.806-2.415a.533.533 0 01.199-.163l2.732-1.976c.329-.237.803-.141 1.06.214.257.356.2.835-.129 1.073l-2.704 1.956-1.691 2.262a.602.602 0 01-.494.23.887.887 0 01-.53-.185"/></clipPath><clipPath id="a"><path d="M-32768 32767h65535v-65535h-65535z"/></clipPath><clipPath id="b"><path d="M497.81 581.93h3.3v-6.044h-3.3z"/></clipPath><clipPath id="bb"><path d="M474.75 606.47s-5.612 0-5.612-5.612v-26.195c.001-.162.079-5.096 4.849-5.572h27.472c1.389.16 5.096 1.014 5.096 5.575v26.192s0 5.612-5.613 5.612z"/></clipPath><clipPath id="L"><path d="M456.99 585.47l30.855 53.442 68.273-39.417-30.855-53.442z"/></clipPath><clipPath id="aW"><path d="M495.02 587.7l-2.456-2.529c2.896 2.896 3.886 2.713 3.886 2.713v.403z"/></clipPath><clipPath id="aT"><path d="M497.6 589.27l-2.7-1.342a.553.553 0 01-.197-.165l-2.434-2.333c-.293-.281-.284-.765.02-1.082.303-.316.785-.347 1.078-.066l2.41 2.309 2.53 1.256c.321.16.423.609.229 1-.149.299-.426.48-.692.48a.536.536 0 01-.244-.057"/></clipPath><clipPath id="E"><path d="M-13949 14986h28835v-28835h-28835z"/></clipPath><clipPath id="F"><path d="M496.45 585.17h-3.887v3.117h3.887z"/></clipPath><clipPath id="aV"><path d="M474.75 606.47s-5.612 0-5.612-5.612v-26.195c.001-.162.079-5.096 4.849-5.572h27.472c1.389.16 5.096 1.014 5.096 5.575v26.192s0 5.612-5.613 5.612z"/></clipPath><linearGradient id="aR" x2="1" gradientTransform="matrix(1.515 1.515 1.515 -1.515 485.91 575.73)" gradientUnits="userSpaceOnUse"><stop stop-color="#f9a72b" offset="0"/><stop stop-color="#ef2e32" offset="1"/></linearGradient><linearGradient id="aG" x2="1" gradientTransform="matrix(3.469 0 0 -3.469 476.01 574.7)" gradientUnits="userSpaceOnUse"><stop stop-color="#fff" offset="0"/><stop stop-color="#fff" offset="1"/></linearGradient><linearGradient id="M" x2="1" gradientTransform="scale(59.765 -59.765) rotate(-60 -4.191 -11.829)" gradientUnits="userSpaceOnUse"><stop stop-color="#fff" offset="0"/><stop stop-color="#fff" stop-opacity="0" offset="1"/></linearGradient><linearGradient id="U" x2="1" gradientTransform="matrix(37.417 0 0 -37.417 469.13 587.8)" gradientUnits="userSpaceOnUse"><stop stop-color="#e79496" offset="0"/><stop stop-color="#fff" offset="1"/></linearGradient><linearGradient id="X" x2="1" gradientTransform="matrix(0 7.7562 7.7562 0 487.84 569.09)" gradientUnits="userSpaceOnUse"><stop stop-color="#fff" offset="0"/><stop stop-color="#fff" offset=".784"/><stop stop-color="#fff" offset="1"/></linearGradient><linearGradient id="r" x2="1" gradientTransform="matrix(0 7.7562 7.7562 0 487.84 569.09)" gradientUnits="userSpaceOnUse"><stop stop-color="#fff" offset="0"/><stop stop-color="#fff" offset=".784"/><stop stop-color="#fff" stop-opacity="0" offset="1"/></linearGradient><linearGradient id="ae" x2="1" gradientTransform="matrix(-.00016 4.3759 4.3759 .00016 483.56 574.44)" gradientUnits="userSpaceOnUse"><stop stop-color="#f35e2f" offset="0"/><stop stop-color="#ef2e32" offset="1"/></linearGradient><linearGradient id="ah" x2="1" gradientTransform="scale(5.2664 -5.2664) rotate(45 177.665 53.78)" gradientUnits="userSpaceOnUse"><stop stop-color="#f35e2f" offset="0"/><stop stop-color="#ef2e32" offset="1"/></linearGradient><linearGradient id="ak" x2="1" gradientTransform="matrix(0 7.1153 7.1153 0 483.56 577.13)" gradientUnits="userSpaceOnUse"><stop stop-color="#ef2e32" offset="0"/><stop stop-color="#f9a72b" offset="1"/></linearGradient><linearGradient id="an" x2="1" gradientTransform="matrix(4.6098 -.00016 -.00016 -4.6098 476.3 579.33)" gradientUnits="userSpaceOnUse"><stop stop-color="#a7a5a6" offset="0"/><stop stop-color="#f4f4f4" offset="1"/></linearGradient><linearGradient id="aq" x2="1" gradientTransform="scale(6.5581 -6.5581) rotate(45 142.673 43.642)" gradientUnits="userSpaceOnUse"><stop stop-color="#f9a72b" offset="0"/><stop stop-color="#ef2e32" offset="1"/></linearGradient><linearGradient id="au" x2="1" gradientTransform="matrix(3.4462 0 0 -3.4462 476.71 579.45)" gradientUnits="userSpaceOnUse"><stop stop-color="#fff" offset="0"/><stop stop-color="#fff" offset="1"/></linearGradient><linearGradient id="l" x2="1" gradientTransform="matrix(3.4462 0 0 -3.4462 476.71 579.45)" gradientUnits="userSpaceOnUse"><stop stop-color="#fff" offset="0"/><stop stop-color="#fff" stop-opacity="0" offset="1"/></linearGradient><linearGradient id="ax" x2="1" gradientTransform="matrix(2.1754 0 0 -2.1754 484.97 582.26)" gradientUnits="userSpaceOnUse"><stop stop-color="#fff" offset="0"/><stop stop-color="#fff" offset="1"/></linearGradient><linearGradient id="S" x2="1" gradientTransform="matrix(2.1754 0 0 -2.1754 484.97 582.26)" gradientUnits="userSpaceOnUse"><stop stop-color="#fff" offset="0"/><stop stop-color="#fff" stop-opacity="0" offset="1"/></linearGradient><linearGradient id="aA" x2="1" gradientTransform="matrix(4.7166 0 0 -4.7166 484.12 576.51)" gradientUnits="userSpaceOnUse"><stop stop-color="#fff" offset="0"/><stop stop-color="#fff" offset="1"/></linearGradient><linearGradient id="A" x2="1" gradientTransform="matrix(4.7166 0 0 -4.7166 484.12 576.51)" gradientUnits="userSpaceOnUse"><stop stop-color="#fff" offset="0"/><stop stop-color="#fff" stop-opacity="0" offset="1"/></linearGradient><linearGradient id="bt" x2="1" gradientTransform="matrix(-5.2188 0 0 5.2188 502.51 586.03)" gradientUnits="userSpaceOnUse"><stop stop-color="#fff" offset="0"/><stop stop-color="#fff" offset="1"/></linearGradient><linearGradient id="aD" x2="1" gradientTransform="matrix(3.8383 0 0 -3.8383 481.13 579.87)" gradientUnits="userSpaceOnUse"><stop stop-color="#fff" offset="0"/><stop stop-color="#fff" offset="1"/></linearGradient><linearGradient id="i" x2="1" gradientTransform="matrix(3.8383 0 0 -3.8383 481.13 579.87)" gradientUnits="userSpaceOnUse"><stop stop-color="#fff" stop-opacity="0" offset="0"/><stop stop-color="#fff" offset="1"/></linearGradient><linearGradient id="ac" x2="1" gradientTransform="scale(59.765 -59.765) rotate(-60 -4.191 -11.829)" gradientUnits="userSpaceOnUse"><stop stop-color="#fff" offset="0"/><stop stop-color="#fff" offset="1"/></linearGradient><linearGradient id="J" x2="1" gradientTransform="matrix(3.469 0 0 -3.469 476.01 574.7)" gradientUnits="userSpaceOnUse"><stop stop-color="#fff" offset="0"/><stop stop-color="#fff" stop-opacity="0" offset="1"/></linearGradient><linearGradient id="aJ" x2="1" gradientTransform="matrix(3.4687 0 0 -3.4687 471.75 575.24)" gradientUnits="userSpaceOnUse"><stop stop-color="#fff" offset="0"/><stop stop-color="#fff" offset="1"/></linearGradient><linearGradient id="u" x2="1" gradientTransform="matrix(3.4687 0 0 -3.4687 471.75 575.24)" gradientUnits="userSpaceOnUse"><stop stop-color="#fff" stop-opacity=".5" offset="0"/><stop stop-color="#fff" stop-opacity="0" offset="1"/></linearGradient><linearGradient id="aM" x2="1" gradientTransform="matrix(1.7841 0 0 -1.7841 477.94 577.37)" gradientUnits="userSpaceOnUse"><stop stop-color="#fff" offset="0"/><stop stop-color="#fff" offset="1"/></linearGradient><linearGradient id="P" x2="1" gradientTransform="matrix(1.7841 0 0 -1.7841 477.94 577.37)" gradientUnits="userSpaceOnUse"><stop stop-color="#fff" offset="0"/><stop stop-color="#fff" stop-opacity="0" offset="1"/></linearGradient><linearGradient id="aP" x2="1" gradientTransform="matrix(1.6015 0 0 -1.6015 482.52 576.02)" gradientUnits="userSpaceOnUse"><stop stop-color="#fff" offset="0"/><stop stop-color="#fff" offset="1"/></linearGradient><linearGradient id="o" x2="1" gradientTransform="matrix(1.6015 0 0 -1.6015 482.52 576.02)" gradientUnits="userSpaceOnUse"><stop stop-color="#fff" stop-opacity=".5" offset="0"/><stop stop-color="#fff" stop-opacity="0" offset="1"/></linearGradient><linearGradient id="D" x2="1" gradientTransform="matrix(-5.2188 0 0 5.2188 502.51 586.03)" gradientUnits="userSpaceOnUse"><stop stop-color="#fff" offset="0"/><stop stop-color="#fff" stop-opacity="0" offset="1"/></linearGradient><linearGradient id="aU" x2="1" gradientTransform="scale(2.1426 -2.1426) rotate(55.356 376.92 82.9)" gradientUnits="userSpaceOnUse"><stop stop-color="#f35e2f" offset="0"/><stop stop-color="#ef2e32" offset="1"/></linearGradient><linearGradient id="aY" x2="1" gradientTransform="matrix(-3.8866 0 0 3.8866 496.45 586.73)" gradientUnits="userSpaceOnUse"><stop stop-color="#fff" offset="0"/><stop stop-color="#fff" offset="1"/></linearGradient><linearGradient id="G" x2="1" gradientTransform="matrix(-3.8866 0 0 3.8866 496.45 586.73)" gradientUnits="userSpaceOnUse"><stop stop-color="#fff" stop-opacity=".5" offset="0"/><stop stop-color="#fff" stop-opacity="0" offset="1"/></linearGradient><linearGradient id="ba" x2="1" gradientTransform="scale(9.1732 -9.1732) rotate(45 103.735 33.586)" gradientUnits="userSpaceOnUse"><stop stop-color="#f35e2f" offset="0"/><stop stop-color="#ef2e32" offset="1"/></linearGradient><linearGradient id="be" x2="1" gradientTransform="matrix(3.3 0 0 -3.3 497.81 578.91)" gradientUnits="userSpaceOnUse"><stop stop-color="#fff" offset="0"/><stop stop-color="#fff" offset="1"/></linearGradient><linearGradient id="c" x2="1" gradientTransform="matrix(3.3 0 0 -3.3 497.81 578.91)" gradientUnits="userSpaceOnUse"><stop stop-color="#fff" stop-opacity=".5" offset="0"/><stop stop-color="#fff" stop-opacity="0" offset="1"/></linearGradient><linearGradient id="bg" x2="1" gradientTransform="scale(13.1957 -13.1957) rotate(45 72.533 22.677)" gradientUnits="userSpaceOnUse"><stop stop-color="#f9a72b" offset="0"/><stop stop-color="#f9a72b" offset=".378"/><stop stop-color="#ef2e32" offset="1"/></linearGradient><linearGradient id="bj" x2="1" gradientTransform="matrix(1.2506 1.7398 1.7398 -1.2506 499.43 585.25)" gradientUnits="userSpaceOnUse"><stop stop-color="#f9a72b" offset="0"/><stop stop-color="#ef2e32" offset="1"/></linearGradient><linearGradient id="bn" x2="1" gradientTransform="matrix(2.1754 0 0 -2.1754 496.21 592.38)" gradientUnits="userSpaceOnUse"><stop stop-color="#fff" offset="0"/><stop stop-color="#fff" offset="1"/></linearGradient><linearGradient id="f" x2="1" gradientTransform="matrix(2.1754 0 0 -2.1754 496.21 592.38)" gradientUnits="userSpaceOnUse"><stop stop-color="#fff" offset="0"/><stop stop-color="#fff" stop-opacity="0" offset="1"/></linearGradient><linearGradient id="bq" x2="1" gradientTransform="matrix(-2.4084 0 0 2.4084 496.63 581.18)" gradientUnits="userSpaceOnUse"><stop stop-color="#fff" offset="0"/><stop stop-color="#fff" offset="1"/></linearGradient><linearGradient id="x" x2="1" gradientTransform="matrix(-2.4084 0 0 2.4084 496.63 581.18)" gradientUnits="userSpaceOnUse"><stop stop-color="#fff" offset="0"/><stop stop-color="#fff" stop-opacity="0" offset="1"/></linearGradient><mask id="bp" x="0" y="0" width="1" height="1" maskUnits="userSpaceOnUse"><g clip-path="url(#v)"><g clip-path="url(#w)"><path d="M496.63 574.21h-2.673v13.925h2.673z" fill="url(#x)"/></g></g></mask><mask id="bd" x="0" y="0" width="1" height="1" maskUnits="userSpaceOnUse"><g clip-path="url(#a)"><g clip-path="url(#b)"><path d="M497.81 581.93h3.3v-6.044h-3.3z" fill="url(#c)"/></g></g></mask><mask id="aC" x="0" y="0" width="1" height="1" maskUnits="userSpaceOnUse"><g clip-path="url(#g)"><g clip-path="url(#h)"><path d="M481.13 580.41h3.839v-1.087h-3.839z" fill="url(#i)"/></g></g></mask><mask id="at" x="0" y="0" width="1" height="1" maskUnits="userSpaceOnUse"><g clip-path="url(#j)"><g clip-path="url(#k)"><path d="M476.7 581.36h3.446v-3.784H476.7z" fill="url(#l)"/></g></g></mask><mask id="aO" x="0" y="0" width="1" height="1" maskUnits="userSpaceOnUse"><g clip-path="url(#m)"><g clip-path="url(#n)"><path d="M482.52 577.13h1.602v-2.221h-1.602z" fill="url(#o)"/></g></g></mask><mask id="W" x="0" y="0" width="1" height="1" maskUnits="userSpaceOnUse"><g clip-path="url(#p)"><g clip-path="url(#q)"><path d="M469.13 576.85h37.417v-7.756H469.13z" fill="url(#r)"/></g></g></mask><mask id="aI" x="0" y="0" width="1" height="1" maskUnits="userSpaceOnUse"><g clip-path="url(#s)"><g clip-path="url(#t)"><path d="M471.2 575.88h4.022v-1.284H471.2z" fill="url(#u)"/></g></g></mask><mask id="bm" x="0" y="0" width="1" height="1" maskUnits="userSpaceOnUse"><g clip-path="url(#d)"><g clip-path="url(#e)"><path d="M495.07 593.95h3.311v-3.141h-3.311z" fill="url(#f)"/></g></g></mask><mask id="az" x="0" y="0" width="1" height="1" maskUnits="userSpaceOnUse"><g clip-path="url(#y)"><g clip-path="url(#z)"><path d="M483.59 578.96h5.243v-4.899h-5.243z" fill="url(#A)"/></g></g></mask><mask id="bs" x="0" y="0" width="1" height="1" maskUnits="userSpaceOnUse"><g clip-path="url(#B)"><g clip-path="url(#C)"><path d="M502.51 584.21h-5.219v3.63h5.219z" fill="url(#D)"/></g></g></mask><mask id="aX" x="0" y="0" width="1" height="1" maskUnits="userSpaceOnUse"><g clip-path="url(#E)"><g clip-path="url(#F)"><path d="M496.45 585.17h-3.887v3.117h3.887z" fill="url(#G)"/></g></g></mask><mask id="aF" x="0" y="0" width="1" height="1" maskUnits="userSpaceOnUse"><g clip-path="url(#H)"><g clip-path="url(#I)"><path d="M475.45 575.34h4.022v-1.284h-4.022z" fill="url(#J)"/></g></g></mask><mask id="aa" x="0" y="0" width="1" height="1" maskUnits="userSpaceOnUse"><g clip-path="url(#K)"><g clip-path="url(#L)"><path d="M456.99 585.47l30.855 53.442 68.273-39.417-30.855-53.442z" fill="url(#M)"/></g></g></mask><mask id="aL" x="0" y="0" width="1" height="1" maskUnits="userSpaceOnUse"><g clip-path="url(#N)"><g clip-path="url(#O)"><path d="M477.66 579.1h2.064v-3.446h-2.064z" fill="url(#P)"/></g></g></mask><mask id="aw" x="0" y="0" width="1" height="1" maskUnits="userSpaceOnUse"><g clip-path="url(#Q)"><g clip-path="url(#R)"><path d="M483.84 583.83h3.311v-3.141h-3.311z" fill="url(#S)"/></g></g></mask></defs><g transform="matrix(.62537 0 0 -.62537 -291.86 380.802)" clip-path="url(#T)"><path d="M474.75 606.47s-5.612 0-5.612-5.612v-26.195c.001-.162.079-5.096 4.849-5.572h27.473c1.388.16 5.095 1.014 5.095 5.575v26.192s0 5.612-5.613 5.612z" fill="url(#U)"/></g><g transform="matrix(.62537 0 0 -.62537 -291.86 380.802)" clip-path="url(#V)"><g mask="url(#W)"><path d="M469.13 576.85v-2.183c.001-.162.079-5.096 4.849-5.572h27.473c1.388.16 5.095 1.014 5.095 5.575v2.18z" fill="url(#X)"/></g></g><g transform="matrix(.62537 0 0 -.62537 -291.86 380.802)" clip-path="url(#Y)"><g clip-path="url(#Z)"><g mask="url(#aa)" clip-path="url(#ab)" opacity=".6"><path d="M469.13 606.51l-.001-.001v-25.803s36.96-2.245 74.836 21.379v4.425h-.001z" fill="url(#ac)"/></g></g><path d="M483.94 578.72c-.4.178-.814.123-.924-.124l-.923-2.075c-.045-.1-.029-.218.029-.334a.959.959 0 01.318-.335l1.42-1.316c.198-.183.6-.071.899.251.298.322.378.731.181.915l-1.044.966.572 1.282c.109.247-.127.591-.528.77zm-3.97 1.15a.998.998 0 01-1.407-.1l-3.033-3.495c-.019-.023-.033-.048-.05-.072h-3.187a.997.997 0 110-1.993h4.628a.996.996 0 01.816 1.567l2.332 2.686a.997.997 0 01-.099 1.407z" fill="none" stroke="#fff" stroke-width="2.2"/><path d="M486.91 584.24a2.397 2.397 0 01-2.141-3.47c-.041.005-.079.012-.121.012h-5.608a1.215 1.215 0 01-1.216-1.216v-1.225c0-.672.544-1.216 1.216-1.216l5.203.811c.672 0 1.622.95 1.622 1.622v.008c0 .044-.009.086-.013.128a2.398 2.398 0 111.058 4.546z" fill="none" stroke="#fff" stroke-width="2.2"/><path d="M480.72 578.58c-.094-.928-.082-1.69-1.01-1.596l-1.891.192a1.687 1.687 0 00-1.511 1.849l.115 1.135a1.69 1.69 0 001.85 1.511l1.891-.191c.928-.094.765-.838.67-1.766z" fill="none" stroke="#fff" stroke-width="2.2"/><path d="M482.02 574.13c.023.029.046.057.066.087.015.024.027.05.041.076.017.032.034.063.047.096.011.028.018.056.026.084.01.034.021.066.027.101s.008.069.01.105c.002.025.008.049.008.074l-.001.015c-.001.039-.007.077-.012.117-.003.026-.005.053-.01.078-.007.032-.019.063-.029.095-.01.031-.018.062-.03.092-.011.025-.026.047-.039.071-.019.035-.036.069-.058.101l-.007.012-2.692 3.765a.996.996 0 11-1.622-1.159l1.565-2.189h-2.69a.997.997 0 010-1.994h4.628l.014.002c.038 0 .076.006.113.011.028.003.056.005.083.01.029.007.056.018.084.026.035.011.071.02.103.035.02.008.038.02.057.03.039.02.08.041.116.067l.01.005c.016.012.028.027.044.039.033.027.065.053.095.083.019.021.035.043.053.065z" fill="none" stroke="#fff" stroke-width="2.2"/><path d="M477.48 577.58s-.777.497-.777 1.245l.169 1.627s.203.844 1.182.878l2.095-.194s-2.5.228-2.737-.82l-.405-1.491s-.304-.434.473-1.245zm7.81 3.1s-1.453 2.769 1.858 3.141c0 0-2.599-.612-1.858-3.141zm-1.05-1.72s-.824.102 1.818-2.77l2.777-2.128-2.635 2.351s-1.757 1.534-1.96 2.547zm-2.97 1.45h3.703s-3.804-.114-3.838-1.087zm-4.86-6.35s-.905.882 0 1.284h3.067s-4.174.068-3.067-1.284zm-4.26.54s-.904.882 0 1.284h3.067s-4.174.068-3.067-1.284z" fill="none" stroke="#fff" stroke-width="2.2"/><path d="M479.72 575.65l-1.697 2.601s-.367.665.406.845c0 0-.44-.372 0-1.216zm3.07 1.48l-.27-.714 1.601-1.507s-1.702 1.401-1.331 2.221zm6.75-2.01l-2.704 1.956-1.691 2.262c-.215.288-.673.307-1.024.045-.352-.263-.463-.708-.249-.996l1.806-2.415a.54.54 0 01.199-.163l2.732-1.976c.329-.237.803-.141 1.06.214s.2.836-.129 1.073zm3.82 9.17l2.41 2.308 2.529 1.257c.322.16.424.607.229 1s-.614.582-.935.423l-2.7-1.342a.55.55 0 01-.197-.167l-2.435-2.332c-.292-.281-.283-.765.02-1.081.304-.317.786-.347 1.079-.066z" fill="none" stroke="#fff" stroke-width="2.2"/><path d="M492.56 585.17l2.457 2.53 1.43.587v-.404s-.99.183-3.887-2.713zm9.91-8.9l-1.53 4.616a.904.904 0 01-.112.219.483.483 0 01-.192.291l-2.783 1.877c-.284.192-.739.014-1.016-.398-.277-.411-.272-.9.012-1.091l2.448-1.652 1.468-4.427a.898.898 0 111.705.565z" fill="none" stroke="#fff" stroke-width="2.2"/><path d="M497.81 581.68l1.943-1.264 1.357-4.527-1.137 4.527-2.163 1.517z" fill="none" stroke="#fff" stroke-width="2.2"/><path d="M495.83 584.79l.22 2.053c.119.978.071 2.038 1.248 2.713-.951.416-1.578 1.159-1.578 2.264a2.694 2.694 0 105.39 0c0-1.27-.952-2.475-2.477-2.512.716-1.836.442-2.882.387-3.337l-.294-1.621c-.351-1.582-.351-1.582-1.154-2.475-.209-.232-.274-.201-.163-.854l.075-2.018a.992.992 0 00-.07-.401l-1.625-4.08c-.234-.49-.596-.901-1.134-.813a.987.987 0 00-.813 1.134l1.624 4.08a.82.82 0 00.041.149l.14 3.151z" fill="none" stroke="#fff" stroke-width="2.2"/><path d="M503.11 585.23l-2.984 1.493-2.034 1.961c-.259.248-.715.194-1.019-.121-.304-.317-.342-.775-.084-1.024l2.172-2.092a.556.556 0 01.223-.129l3.015-1.509c.363-.181.816-.009 1.012.383s.062.857-.301 1.038zm-6.59 5.58s-1.453 2.769 1.858 3.141c0 0-2.599-.612-1.858-3.141zm-2.09-16.6s-.477.11 0 1.133l1.467 3.615.307 6.244s.133 2.383.243 2.933c0 0-.301-2.31.179-2.933 0 0-.812-1.842-.422-6.109l-1.627-3.852s-.44-.729-.147-1.031z" fill="none" stroke="#fff" stroke-width="2.2"/><path d="M497.3 587.84l2.015-2.017 3.204-1.613s-2.974 1.476-2.942 2.058c0 0-.149-.592-2.277 1.572z" fill="none" stroke="#fff" stroke-width="2.2"/></g><g transform="matrix(.62537 0 0 -.62537 -291.86 380.802)" clip-path="url(#ad)"><path d="M483.02 578.59l-.923-2.075c-.045-.1-.029-.218.029-.334a.392.392 0 01.029-.053.975.975 0 01.289-.282l1.419-1.316c.199-.183.601-.071.899.25.298.322.378.733.18.916l-1.042.965.572 1.284c.109.246-.126.59-.529.769-.158.07-.318.105-.461.105-.219 0-.396-.08-.462-.229" fill="url(#ae)"/></g><g transform="matrix(.62537 0 0 -.62537 -291.86 380.802)" clip-path="url(#af)"><path d="M483.94 578.72c-.4.178-.814.123-.924-.124l-.923-2.075c-.045-.1-.029-.218.029-.334a.959.959 0 01.318-.335l1.42-1.316c.198-.183.6-.071.899.251.298.322.378.731.181.915l-1.044.966.572 1.282c.109.247-.127.591-.528.77z" fill="none" stroke="#bf1b2c" stroke-width=".44"/></g><g transform="matrix(.62537 0 0 -.62537 -291.86 380.802)" clip-path="url(#ag)"><path d="M478.56 579.77l-3.033-3.495c-.019-.023-.033-.048-.05-.072h-3.187a.997.997 0 110-1.993h4.628a.995.995 0 01.816 1.566l2.332 2.687a.997.997 0 11-1.506 1.307" fill="url(#ah)"/></g><g transform="matrix(.62537 0 0 -.62537 -291.86 380.802)" clip-path="url(#ai)"><path d="M479.97 579.87a.998.998 0 01-1.407-.1l-3.033-3.495c-.019-.023-.033-.048-.05-.072h-3.187a.997.997 0 110-1.993h4.628a.996.996 0 01.816 1.567l2.332 2.686a.997.997 0 01-.099 1.407z" fill="none" stroke="#bf1b2c" stroke-width=".44"/></g><g transform="matrix(.62537 0 0 -.62537 -291.86 380.802)" clip-path="url(#aj)"><path d="M484.51 581.84c0-.387.094-.749.256-1.072-.04.004-.079.012-.12.012h-5.609a1.216 1.216 0 01-1.216-1.217v-1.224c0-.673.544-1.217 1.216-1.217l5.204.811c.671 0 1.621.95 1.621 1.622v.008c0 .045-.009.086-.013.128a2.398 2.398 0 013.456 2.149 2.398 2.398 0 01-4.795 0" fill="url(#ak)"/></g><g transform="matrix(.62537 0 0 -.62537 -291.86 380.802)" clip-path="url(#al)"><path d="M486.91 584.24a2.397 2.397 0 01-2.141-3.47c-.041.005-.079.012-.121.012h-5.608a1.215 1.215 0 01-1.216-1.216v-1.225c0-.672.544-1.216 1.216-1.216l5.203.811c.672 0 1.622.95 1.622 1.622v.008c0 .044-.009.086-.013.128a2.398 2.398 0 111.058 4.546z" fill="none" stroke="#bf1b2c" stroke-width=".44"/></g><g transform="matrix(.62537 0 0 -.62537 -291.86 380.802)" clip-path="url(#am)"><path d="M476.42 580.16l-.115-1.134a1.689 1.689 0 011.512-1.849l1.891-.192c.928-.094.916.668 1.01 1.596l.114 1.134c.094.928.258 1.672-.67 1.766l-1.891.19a1.69 1.69 0 01-1.851-1.511" fill="url(#an)"/></g><g transform="matrix(.62537 0 0 -.62537 -291.86 380.802)" clip-path="url(#ao)"><path d="M480.72 578.58c-.094-.928-.082-1.69-1.01-1.596l-1.891.192a1.687 1.687 0 00-1.511 1.849l.115 1.135a1.69 1.69 0 001.85 1.511l1.891-.191c.928-.094.765-.838.67-1.766z" fill="none" stroke="#4f4c4d" stroke-width=".44"/></g><g transform="matrix(.62537 0 0 -.62537 -291.86 380.802)" clip-path="url(#ap)"><path d="M477.98 579.33a.996.996 0 01-.231-1.391l1.565-2.189h-2.69a.997.997 0 110-1.993h4.628l.014.001c.038.001.076.007.113.011l.083.01c.029.007.056.018.084.027.035.01.07.02.103.034.02.008.038.021.057.031.04.02.079.04.116.067l.01.005c.016.011.028.027.043.039.034.027.066.052.096.083.02.021.035.044.053.065.023.028.047.057.066.087.016.024.027.05.041.076.017.032.033.062.047.095.011.028.018.057.026.085.01.033.02.067.027.101.006.035.008.069.011.104.001.025.007.05.007.076l-.001.013c-.001.04-.007.078-.012.117-.003.026-.004.053-.01.08-.007.031-.019.062-.029.094-.009.031-.017.062-.03.092-.011.024-.026.048-.039.071-.019.034-.036.069-.058.101-.003.003-.004.008-.007.012l-2.692 3.765a.997.997 0 01-1.391.231" fill="url(#aq)"/></g><g transform="matrix(.62537 0 0 -.62537 -291.86 380.802)" clip-path="url(#ar)"><path d="M482.02 574.13c.023.029.046.057.066.087.015.024.027.05.041.076.017.032.034.063.047.096.011.028.018.056.026.084.01.034.021.066.027.101s.008.069.01.105c.002.025.008.049.008.074l-.001.015c-.001.039-.007.077-.012.117-.003.026-.005.053-.01.078-.007.032-.019.063-.029.095-.01.031-.018.062-.03.092-.011.025-.026.047-.039.071-.019.035-.036.069-.058.101l-.007.012-2.692 3.765a.996.996 0 11-1.622-1.159l1.565-2.189h-2.69a.997.997 0 010-1.994h4.628l.014.002c.038 0 .076.006.113.011.028.003.056.005.083.01.029.007.056.018.084.026.035.011.071.02.103.035.02.008.038.02.057.03.039.02.08.041.116.067l.01.005c.016.012.028.027.044.039.033.027.065.053.095.083.019.021.035.043.053.065z" fill="none" stroke="#bf1b2c" stroke-width=".44"/></g><g transform="matrix(.62537 0 0 -.62537 -291.86 380.802)" clip-path="url(#as)"><g mask="url(#at)"><path d="M476.87 580.45l-.168-1.627c0-.748.776-1.245.776-1.245-.776.811-.473 1.245-.473 1.245l.406 1.492c.237 1.047 2.737.819 2.737.819l-2.095.194a1.221 1.221 0 01-1.183-.878" fill="url(#au)"/></g></g><g transform="matrix(.62537 0 0 -.62537 -291.86 380.802)" clip-path="url(#av)"><g mask="url(#aw)"><path d="M485.29 580.68c-.74 2.529 1.859 3.141 1.859 3.141-3.311-.372-1.859-3.141-1.859-3.141" fill="url(#ax)"/></g></g><g transform="matrix(.62537 0 0 -.62537 -291.86 380.802)" clip-path="url(#ay)"><g mask="url(#az)"><path d="M484.23 578.96c-.084 0-.638-.088 1.828-2.77l2.777-2.129-2.635 2.352s-1.758 1.534-1.96 2.547h-.01" fill="url(#aA)"/></g></g><g transform="matrix(.62537 0 0 -.62537 -291.86 380.802)" clip-path="url(#aB)"><g mask="url(#aC)"><path d="M481.27 580.41l-.126-1.022c.196.914 3.829 1.022 3.829 1.022zm-.135-1.087l.009.065a.35.35 0 01-.009-.065" fill="url(#aD)"/></g></g><g transform="matrix(.62537 0 0 -.62537 -291.86 380.802)" clip-path="url(#aE)"><g mask="url(#aF)"><path d="M479.26 575.34h.212l-.097.001-.115-.001m-2.854 0c-.906-.402 0-1.284 0-1.284-.956 1.167 2.02 1.276 2.854 1.284z" fill="url(#aG)"/></g></g><g transform="matrix(.62537 0 0 -.62537 -291.86 380.802)" clip-path="url(#aH)"><g mask="url(#aI)"><path d="M475 575.88h.213l-.099.001-.114-.001m-2.854 0c-.905-.402 0-1.284 0-1.284-.955 1.166 2.016 1.276 2.854 1.284z" fill="url(#aJ)"/></g></g><g transform="matrix(.62537 0 0 -.62537 -291.86 380.802)" clip-path="url(#aK)"><g mask="url(#aL)"><path d="M478.02 578.25l1.697-2.601-1.291 2.23c-.44.844 0 1.216 0 1.216-.773-.18-.406-.845-.406-.845" fill="url(#aM)"/></g></g><g transform="matrix(.62537 0 0 -.62537 -291.86 380.802)" clip-path="url(#aN)"><g mask="url(#aO)"><path d="M482.76 577.06l.025.068a.394.394 0 01-.025-.068m-.246-.646l1.064-1.001c-.442.462-.974 1.147-.818 1.647zm1.602-1.507l-.538.506c.288-.299.538-.506.538-.506" fill="url(#aP)"/></g></g><g transform="matrix(.62537 0 0 -.62537 -291.86 380.802)" clip-path="url(#aQ)"><path d="M484.12 579.38c-.352-.262-.463-.708-.249-.996l1.806-2.415a.533.533 0 01.199-.163l2.732-1.976c.329-.237.803-.141 1.06.214.257.356.2.835-.129 1.073l-2.704 1.956-1.691 2.262a.602.602 0 01-.494.23.887.887 0 01-.53-.185" fill="url(#aR)"/></g><g transform="matrix(.62537 0 0 -.62537 -291.86 380.802)" clip-path="url(#aS)"><path d="M489.54 575.12l-2.704 1.956-1.691 2.262c-.215.288-.673.307-1.024.045-.352-.263-.463-.708-.249-.996l1.806-2.415a.54.54 0 01.199-.163l2.732-1.976c.329-.237.803-.141 1.06.214s.2.836-.129 1.073z" fill="none" stroke="#bf1b2c" stroke-width=".44"/></g><g transform="matrix(.62537 0 0 -.62537 -291.86 380.802)" clip-path="url(#aT)"><path d="M497.6 589.27l-2.7-1.342a.553.553 0 01-.197-.165l-2.434-2.333c-.293-.281-.284-.765.02-1.082.303-.316.785-.347 1.078-.066l2.41 2.309 2.53 1.256c.321.16.423.609.229 1-.149.299-.426.48-.692.48a.536.536 0 01-.244-.057" fill="url(#aU)"/></g><g transform="matrix(.62537 0 0 -.62537 -291.86 380.802)" clip-path="url(#aV)"><path d="M493.36 584.29l2.41 2.308 2.529 1.257c.322.16.424.607.229 1s-.614.582-.935.423l-2.7-1.342a.55.55 0 01-.197-.167l-2.435-2.332c-.292-.281-.283-.765.02-1.081.304-.317.786-.347 1.079-.066z" fill="none" stroke="#bf1b2c" stroke-width=".44"/></g><g transform="matrix(.62537 0 0 -.62537 -291.86 380.802)" clip-path="url(#aW)"><g mask="url(#aX)"><path d="M495.02 587.7l-2.456-2.529c2.896 2.896 3.886 2.713 3.886 2.713v.403z" fill="url(#aY)"/></g></g><g transform="matrix(.62537 0 0 -.62537 -291.86 380.802)" clip-path="url(#aZ)"><path d="M496.84 582.87c-.277-.411-.273-.9.012-1.091l2.448-1.652 1.468-4.428a.898.898 0 011.705.565l-1.53 4.617a.87.87 0 01-.112.219.488.488 0 01-.192.292l-2.783 1.876a.465.465 0 01-.264.078c-.254 0-.55-.177-.752-.476" fill="url(#ba)"/></g><g transform="matrix(.62537 0 0 -.62537 -291.86 380.802)" clip-path="url(#bb)"><path d="M502.47 576.27l-1.53 4.616a.904.904 0 01-.112.219.483.483 0 01-.192.291l-2.783 1.877c-.284.192-.739.014-1.016-.398-.277-.411-.272-.9.012-1.091l2.448-1.652 1.468-4.427a.898.898 0 111.705.565z" fill="none" stroke="#bf1b2c" stroke-width=".44"/></g><g transform="matrix(.62537 0 0 -.62537 -291.86 380.802)" clip-path="url(#bc)"><g mask="url(#bd)"><path d="M497.81 581.68l1.943-1.263 1.357-4.527-1.137 4.527-2.163 1.516z" fill="url(#be)"/></g></g><g transform="matrix(.62537 0 0 -.62537 -291.86 380.802)" clip-path="url(#bf)"><path d="M495.72 591.82c0-1.105.627-1.848 1.578-2.265-1.177-.674-1.129-1.734-1.248-2.711l-.22-2.054-.184-2.567-.14-3.151c-.015-.048-.031-.097-.04-.149l-1.624-4.081a.985.985 0 01.814-1.133c.537-.088.898.323 1.134.813l1.623 4.08c.05.124.076.26.07.401l-.074 2.019c-.111.651-.046.622.163.853.803.894.803.894 1.154 2.475l.294 1.622c.056.454.329 1.5-.386 3.336 1.524.037 2.476 1.242 2.476 2.512a2.695 2.695 0 01-5.39 0" fill="url(#bg)"/></g><g transform="matrix(.62537 0 0 -.62537 -291.86 380.802)" clip-path="url(#bh)"><path d="M495.83 584.79l.22 2.053c.119.978.071 2.038 1.248 2.713-.951.416-1.578 1.159-1.578 2.264a2.694 2.694 0 105.39 0c0-1.27-.952-2.475-2.477-2.512.716-1.836.442-2.882.387-3.337l-.294-1.621c-.351-1.582-.351-1.582-1.154-2.475-.209-.232-.274-.201-.163-.854l.075-2.018a.992.992 0 00-.07-.401l-1.625-4.08c-.234-.49-.596-.901-1.134-.813a.987.987 0 00-.813 1.134l1.624 4.08a.82.82 0 00.041.149l.14 3.151z" fill="none" stroke="#bf1b2c" stroke-width=".44"/></g><g transform="matrix(.62537 0 0 -.62537 -291.86 380.802)" clip-path="url(#bi)"><path d="M497.07 588.57c-.304-.316-.342-.774-.084-1.023l2.171-2.092a.552.552 0 01.223-.129l3.016-1.509c.362-.181.816-.009 1.012.382.196.393.062.858-.302 1.039l-2.983 1.493-2.035 1.96a.578.578 0 01-.407.156.866.866 0 01-.611-.277" fill="url(#bj)"/></g><g transform="matrix(.62537 0 0 -.62537 -291.86 380.802)" clip-path="url(#bk)"><path d="M503.11 585.23l-2.984 1.493-2.034 1.961c-.259.248-.715.194-1.019-.121-.304-.317-.342-.775-.084-1.024l2.172-2.092a.556.556 0 01.223-.129l3.015-1.509c.363-.181.816-.009 1.012.383s.062.857-.301 1.038z" fill="none" stroke="#bf1b2c" stroke-width=".44"/></g><g transform="matrix(.62537 0 0 -.62537 -291.86 380.802)" clip-path="url(#bl)"><g mask="url(#bm)"><path d="M496.52 590.81c-.741 2.529 1.858 3.14 1.858 3.14-3.311-.372-1.858-3.14-1.858-3.14" fill="url(#bn)"/></g></g><g transform="matrix(.62537 0 0 -.62537 -291.86 380.802)" clip-path="url(#bo)"><g mask="url(#bp)"><path d="M496.21 585.2l-.306-6.244-1.467-3.614c-.477-1.023 0-1.133 0-1.133-.293.301.147 1.03.147 1.03l1.626 3.852c-.389 4.268.423 6.109.423 6.109-.48.623-.18 2.934-.18 2.934-.109-.551-.243-2.934-.243-2.934" fill="url(#bq)"/></g></g><g transform="matrix(.62537 0 0 -.62537 -291.86 380.802)" clip-path="url(#br)"><g mask="url(#bs)"><path d="M497.3 587.84c.095-.097.186-.189.274-.275zm2.016-2.018l3.118-1.569c-.487.246-2.885 1.491-2.857 2.015 0 0-.136-.54-2.003 1.297zm3.203-1.613l-.085.044.085-.044" fill="url(#bt)"/></g></g><path d="M5.033 1.52s-3.51 0-3.51 3.51v16.38s0 3.51 3.51 3.51h16.38s3.51 0 3.51-3.51V5.03s0-3.51-3.51-3.51z" fill="none" stroke="#231f20" stroke-width=".413"/></svg>