<svg width="100" height="100" viewBox="0 0 26.458 26.458" xmlns="http://www.w3.org/2000/svg"><defs><clipPath id="p"><path d="M-13903 14897h28835v-28835h-28835z"/></clipPath><clipPath id="K"><path d="M520.27 516.67s-5.612 0-5.612-5.612v-26.196c.001-.171.087-5.609 5.612-5.609h26.192s5.612 0 5.612 5.612v26.193s0 5.612-5.612 5.612z"/></clipPath><clipPath id="n"><path d="M513.46 507.85l8.68 10.815 11.102-8.91-8.68-10.815z"/></clipPath><clipPath id="aZ"><path d="M543.26 490.6c.841-.097 2.851-1.925 2.853-1.927l-2.056 2.012z"/></clipPath><clipPath id="E"><path d="M-13903 14897h28835v-28835h-28835z"/></clipPath><clipPath id="F"><path d="M542.28 489.47l2.1 2.616 2.717-2.18-2.1-2.616z"/></clipPath><clipPath id="aW"><path d="M540.69 488.96l.883-.132c-.007.02-.62 1.743-2.265 4.129 0 0 1.852-2.848 1.382-3.997"/></clipPath><clipPath id="w"><path d="M546.57 496.3l-13.241-13.241-13.241 13.241 13.241 13.241z"/></clipPath><clipPath id="B"><path d="M-13903 14897h28835v-28835h-28835z"/></clipPath><clipPath id="C"><path d="M537.29 490.44l2.903 3.618 3.393-2.724-2.903-3.617z"/></clipPath><clipPath id="aT"><path d="M538.24 496.03c2.317-.035 3.805-2.953 3.819-2.979-.395 1.614-2.97 3.429-2.97 3.429a1.089 1.089 0 00-.849-.45m-.05 0h.05-.041z"/></clipPath><clipPath id="v"><path d="M-13903 14897h28835v-28835h-28835z"/></clipPath><clipPath id="y"><path d="M-13903 14897h28835v-28835h-28835z"/></clipPath><clipPath id="z"><path d="M536.52 494.39l3.189 3.974 4.026-3.231-3.189-3.974z"/></clipPath><clipPath id="aQ"><path d="M529 501.48c-.57 2.066 8.2-4.89 8.2-4.89l-8.228 6.603c-.433-.848.028-1.713.028-1.713"/></clipPath><clipPath id="T"><path d="M526.37 490.24l.216-.215c8.878 9.093 9.3 8.373 9.3 8.373l4.408 4.185c-4.513-1.666-13.924-12.343-13.924-12.343"/></clipPath><clipPath id="s"><path d="M-13903 14897h28835v-28835h-28835z"/></clipPath><clipPath id="t"><path d="M525.03 499.31l6.831 8.512 8.73-7.006-6.831-8.513z"/></clipPath><clipPath id="aP"><path d="M520.27 516.67s-5.612 0-5.612-5.612v-26.196c.001-.171.087-5.609 5.612-5.609h26.192s5.612 0 5.612 5.612v26.193s0 5.612-5.612 5.612z"/></clipPath><clipPath id="aN"><path d="M518.34 513.14l1.502-1.205c-1.086.872-.489 1.472-.489 1.472l-.486.39z"/></clipPath><clipPath id="aM"><path d="M520.27 516.67s-5.612 0-5.612-5.612v-26.196c.001-.171.087-5.609 5.612-5.609h26.192s5.612 0 5.612 5.612v26.193s0 5.612-5.612 5.612z"/></clipPath><clipPath id="aK"><path d="M529.01 501.12l10.039-8.179s1.956-2.525 1.247-4.168l2.427-.382 3.626-7.218s1.748 3.787 3.705 3.952l-5.847 5.872-1.223-.199s-1.132.957-.738 2.016c.395 1.059-2.765 3.653-3.272 4.061 0 0-.563-.984-1.441-.28l-8.657 7.018s-.975-1.603.134-2.493"/></clipPath><clipPath id="aJ"><path d="M520.27 516.67s-5.612 0-5.612-5.612v-26.196c.001-.171.087-5.609 5.612-5.609h26.192s5.612 0 5.612 5.612v26.193s0 5.612-5.612 5.612z"/></clipPath><clipPath id="aH"><path d="M517.2 512.62l20.93-16.798.701.874-20.93 16.797z"/></clipPath><clipPath id="aG"><path d="M520.27 516.67s-5.612 0-5.612-5.612v-26.196c.001-.171.087-5.609 5.612-5.609h26.192s5.612 0 5.612 5.612v26.193s0 5.612-5.612 5.612z"/></clipPath><clipPath id="aE"><path d="M536.69 494.78c-.491-.612-.186-1.674.682-2.37.869-.698 1.97-.766 2.462-.153.491.613.185 1.673-.683 2.369-.47.379-1.01.572-1.484.572-.399 0-.752-.138-.977-.418m.922-2.07c-.727.584-1.027 1.421-.667 1.866.357.446 1.238.335 1.965-.249.728-.584 1.028-1.42.67-1.867-.148-.183-.385-.273-.664-.273-.396 0-.876.18-1.304.523"/></clipPath><clipPath id="aD"><path d="M520.27 516.67s-5.612 0-5.612-5.612v-26.196c.001-.171.087-5.609 5.612-5.609h26.192s5.612 0 5.612 5.612v26.193s0 5.612-5.612 5.612z"/></clipPath><clipPath id="aB"><path d="M538.01 493.23s.951-1.147 1.432-.053l-1.022.973-.092.074s.222-.979-.318-.994"/></clipPath><clipPath id="aA"><path d="M520.27 516.67s-5.612 0-5.612-5.612v-26.196c.001-.171.087-5.609 5.612-5.609h26.192s5.612 0 5.612 5.612v26.193s0 5.612-5.612 5.612z"/></clipPath><clipPath id="ax"><path d="M520.33 485.16l-.17-.634c.283 1.034 1.057.549 1.057.549l-.253.254z"/></clipPath><clipPath id="m"><path d="M-13903 14897h28835v-28835h-28835z"/></clipPath><clipPath id="H"><path d="M-13903 14897h28835v-28835h-28835z"/></clipPath><clipPath id="I"><path d="M519.64 485.04l1.045 1.045 1.045-1.045-1.045-1.045z"/></clipPath><clipPath id="aw"><path d="M520.27 516.67s-5.612 0-5.612-5.612v-26.196c.001-.171.087-5.609 5.612-5.609h26.192s5.612 0 5.612 5.612v26.193s0 5.612-5.612 5.612z"/></clipPath><clipPath id="au"><path d="M520.26 485.23l-.203-.758.554-.554.758.204.203.756-.555.555z"/></clipPath><clipPath id="ar"><path d="M523.55 488l.174.17c1.032 1.054 1.336 1.13 1.336 1.13l-.169.162zm-2.095-2.283L523.55 488c-.453-.449-1.672-1.673-2.095-2.283m-.241-.263l.095-.024c.007.061.06.161.146.287z"/></clipPath><clipPath id="L"><path d="M541.67 508.06l-16.206-17.073 1.661-1.66 17.095 16.237 2.558 5.077z"/></clipPath><clipPath id="j"><path d="M-13903 14897h28835v-28835h-28835z"/></clipPath><clipPath id="k"><path d="M519.2 487.45l3.939 3.938 3.939-3.938-3.939-3.939z"/></clipPath><clipPath id="aq"><path d="M520.27 516.67s-5.612 0-5.612-5.612v-26.196c.001-.171.087-5.609 5.612-5.609h26.192s5.612 0 5.612 5.612v26.193s0 5.612-5.612 5.612z"/></clipPath><clipPath id="ao"><path d="M521 485.46l.595-.595 4.267 3.937-.927.925z"/></clipPath><clipPath id="al"><path d="M525.39 490.85l-.28-1.044c.464 1.704 2.086.557 2.086.557l-.764.765z"/></clipPath><clipPath id="N"><path d="M520.27 516.67s-5.612 0-5.612-5.612v-26.196c.001-.171.087-5.609 5.612-5.609h26.192s5.612 0 5.612 5.612v26.193s0 5.612-5.612 5.612z"/></clipPath><clipPath id="g"><path d="M-32768 32767h65535v-65535h-65535z"/></clipPath><clipPath id="h"><path d="M524.26 490.66l1.895 1.895 1.895-1.895-1.895-1.895z"/></clipPath><clipPath id="ak"><path d="M520.27 516.67s-5.612 0-5.612-5.612v-26.196c.001-.171.087-5.609 5.612-5.609h26.192s5.612 0 5.612 5.612v26.193s0 5.612-5.612 5.612z"/></clipPath><clipPath id="ai"><path d="M525.26 490.97l-.335-1.247.914-.913 1.247.334.334 1.246-.912.915z"/></clipPath><clipPath id="af"><path d="M529.57 487.66s.672-.218-.149-1.058l1.027 1.026s-1.204.026-3.05 1.79c0 0 1.295-1.439 2.172-1.758m-.207-1.116l.058.058z"/></clipPath><clipPath id="d"><path d="M-13903 14897h28835v-28835h-28835z"/></clipPath><clipPath id="e"><path d="M528.92 485.02l2.962 2.962-2.962 2.962-2.962-2.962z"/></clipPath><clipPath id="ae"><path d="M520.27 516.67s-5.612 0-5.612-5.612v-26.196c.001-.171.087-5.609 5.612-5.609h26.192s5.612 0 5.612 5.612v26.193s0 5.612-5.612 5.612z"/></clipPath><clipPath id="ac"><path d="M526.68 489.28s2.391-1.245 2.54-3.079l1.582 1.582s-1.414-.167-3.599 2.018z"/></clipPath><clipPath id="Z"><path d="M522.74 493.28c.842.823 1.059.151 1.059.151.321-.879 1.759-2.172 1.759-2.172-1.764 1.846-1.79 3.049-1.79 3.049zm-.056-.056l.056.056-.056-.056"/></clipPath><clipPath id="O"><path d="M542.01 507.64l-15.792-16.636.914-.914 16.635 15.791 1.785 3.544z"/></clipPath><clipPath id="bc"><path d="M517.76 512.86c.808-.156 11.164-8.444 11.192-8.466l-10.965 8.799z"/></clipPath><clipPath id="q"><path d="M521.16 492.78l2.962 2.962 2.961-2.962-2.961-2.961z"/></clipPath><clipPath id="Y"><path d="M520.27 516.67s-5.612 0-5.612-5.612v-26.196c.001-.171.087-5.609 5.612-5.609h26.192s5.612 0 5.612 5.612v26.193s0 5.612-5.612 5.612z"/></clipPath><clipPath id="W"><path d="M522.34 493.08c1.834-.15 3.08-2.54 3.08-2.54l.52.521c-2.184 2.186-2.018 3.6-2.018 3.6z"/></clipPath><clipPath id="Q"><path d="M541.75 507.99l-16.133-16.995.395-.395s15.397 16.5 19.035 16.855l1.483 2.942z"/></clipPath><clipPath id="a"><path d="M-13903 14897h28835v-28835h-28835z"/></clipPath><clipPath id="b"><path d="M515.72 500.5l20.356 20.355 20.355-20.355-20.355-20.356z"/></clipPath><linearGradient id="aL" x2="1" gradientTransform="scale(7.63 -7.63) rotate(-51.251 -31.796 -105.278)" gradientUnits="userSpaceOnUse"><stop stop-color="#855333" offset="0"/><stop stop-color="#855333" offset=".326"/><stop stop-color="#bf935b" offset=".891"/><stop stop-color="#bf935b" offset="1"/></linearGradient><linearGradient id="o" x2="1" gradientTransform="matrix(.25159 .3135 .3135 -.25159 523.22 508.48)" gradientUnits="userSpaceOnUse"><stop stop-color="#fff" stop-opacity="0" offset="0"/><stop stop-color="#fff" offset="1"/></linearGradient><linearGradient id="ap" x2="1" gradientTransform="scale(3.83187 -3.83187) rotate(75 151.412 25.087)" gradientUnits="userSpaceOnUse"><stop stop-color="#f2ef1d" offset="0"/><stop stop-color="#a47343" offset="1"/></linearGradient><linearGradient id="aF" x2="1" gradientTransform="matrix(3.144 -2.5232 -2.5232 -3.144 536.69 494.78)" gradientUnits="userSpaceOnUse"><stop stop-color="#a7a5a6" offset="0"/><stop stop-color="#a7a5a6" offset=".181"/><stop stop-color="#676565" offset=".518"/><stop stop-color="#656263" offset="1"/></linearGradient><linearGradient id="D" x2="1" gradientTransform="matrix(1.4094 1.7561 1.7561 -1.4094 539.59 489.84)" gradientUnits="userSpaceOnUse"><stop stop-color="#fff" stop-opacity="0" offset="0"/><stop stop-color="#fff" offset="1"/></linearGradient><linearGradient id="aY" x2="1" gradientTransform="matrix(1.4094 1.7561 1.7561 -1.4094 539.59 489.84)" gradientUnits="userSpaceOnUse"><stop stop-color="#fff" offset="0"/><stop stop-color="#fff" offset="1"/></linearGradient><linearGradient id="aC" x2="1" gradientTransform="matrix(1.222 -.98069 -.98069 -1.222 538.01 493.83)" gradientUnits="userSpaceOnUse"><stop stop-color="#a7a5a6" offset="0"/><stop stop-color="#a7a5a6" offset=".181"/><stop stop-color="#676565" offset=".518"/><stop stop-color="#656263" offset="1"/></linearGradient><linearGradient id="i" x2="1" gradientTransform="matrix(1.322 1.322 1.322 -1.322 525.3 489.61)" gradientUnits="userSpaceOnUse"><stop stop-color="#fff" stop-opacity="0" offset="0"/><stop stop-color="#fff" offset="1"/></linearGradient><linearGradient id="an" x2="1" gradientTransform="matrix(1.322 1.322 1.322 -1.322 525.3 489.61)" gradientUnits="userSpaceOnUse"><stop stop-color="#fff" offset="0"/><stop stop-color="#fff" offset="1"/></linearGradient><linearGradient id="u" x2="1" gradientTransform="matrix(.82551 1.0286 1.0286 -.82551 532.26 498.86)" gradientUnits="userSpaceOnUse"><stop stop-color="#fff" stop-opacity="0" offset="0"/><stop stop-color="#fff" offset="1"/></linearGradient><linearGradient id="aS" x2="1" gradientTransform="matrix(.82551 1.0286 1.0286 -.82551 532.26 498.86)" gradientUnits="userSpaceOnUse"><stop stop-color="#fff" offset="0"/><stop stop-color="#fff" offset="1"/></linearGradient><linearGradient id="aj" x2="1" gradientTransform="scale(2.23692 -2.23692) rotate(75 260.616 43.411)" gradientUnits="userSpaceOnUse"><stop stop-color="#f2ef1d" offset="0"/><stop stop-color="#a47343" offset="1"/></linearGradient><linearGradient id="G" x2="1" gradientTransform="matrix(.35379 .44084 .44084 -.35379 544.6 489.53)" gradientUnits="userSpaceOnUse"><stop stop-color="#fff" stop-opacity="0" offset="0"/><stop stop-color="#fff" offset="1"/></linearGradient><linearGradient id="P" x2="1" gradientTransform="scale(13.9079 -13.9079) rotate(75 42.931 6.825)" gradientUnits="userSpaceOnUse"><stop stop-color="#6a7379" offset="0"/><stop stop-color="#c4dde6" offset=".528"/><stop stop-color="#c4dde6" offset="1"/></linearGradient><linearGradient id="bb" x2="1" gradientTransform="matrix(.35379 .44084 .44084 -.35379 544.6 489.53)" gradientUnits="userSpaceOnUse"><stop stop-color="#fff" offset="0"/><stop stop-color="#fff" offset="1"/></linearGradient><linearGradient id="aO" x2="1" gradientTransform="matrix(1.5016 -1.2051 -1.2051 -1.5016 518.6 513.47)" gradientUnits="userSpaceOnUse"><stop stop-color="#a7a5a6" offset="0"/><stop stop-color="#656263" offset="1"/></linearGradient><linearGradient id="f" x2="1" gradientTransform="rotate(45 -324.69 881.41) scale(1.534)" gradientUnits="userSpaceOnUse"><stop stop-color="#fff" stop-opacity="0" offset="0"/><stop stop-color="#fff" offset="1"/></linearGradient><linearGradient id="ah" x2="1" gradientTransform="rotate(45 -324.69 881.41) scale(1.534)" gradientUnits="userSpaceOnUse"><stop stop-color="#fff" offset="0"/><stop stop-color="#fff" offset="1"/></linearGradient><linearGradient id="J" x2="1" gradientTransform="matrix(.80272 .80272 .80272 -.80272 520.17 484.51)" gradientUnits="userSpaceOnUse"><stop stop-color="#fff" stop-opacity="0" offset="0"/><stop stop-color="#fff" offset="1"/></linearGradient><linearGradient id="az" x2="1" gradientTransform="matrix(.80272 .80272 .80272 -.80272 520.17 484.51)" gradientUnits="userSpaceOnUse"><stop stop-color="#fff" offset="0"/><stop stop-color="#fff" offset="1"/></linearGradient><linearGradient id="ad" x2="1" gradientTransform="rotate(165 233.254 278.598) scale(4.3686)" gradientUnits="userSpaceOnUse"><stop stop-color="#f2ef1d" offset="0"/><stop stop-color="#a47343" offset="1"/></linearGradient><linearGradient id="V" x2="1" gradientTransform="scale(-18.574 18.574) rotate(-45 18.16 48.624)" gradientUnits="userSpaceOnUse"><stop stop-color="#fff" offset="0"/><stop stop-color="#fff" offset=".031"/><stop stop-color="#fff" offset="1"/></linearGradient><linearGradient id="x" x2="1" gradientTransform="scale(-18.574 18.574) rotate(-45 18.16 48.624)" gradientUnits="userSpaceOnUse"><stop stop-color="#fff" stop-opacity=".6" offset="0"/><stop stop-color="#fff" offset=".031"/><stop stop-color="#fff" stop-opacity="0" offset="1"/></linearGradient><linearGradient id="M" x2="1" gradientTransform="scale(8.9555 -8.9555) rotate(30 134.465 82.833)" gradientUnits="userSpaceOnUse"><stop stop-color="#c4dde6" offset="0"/><stop stop-color="#6a7379" offset="1"/></linearGradient><linearGradient id="be" x2="1" gradientTransform="matrix(.25159 .3135 .3135 -.25159 523.22 508.48)" gradientUnits="userSpaceOnUse"><stop stop-color="#fff" offset="0"/><stop stop-color="#fff" offset="1"/></linearGradient><linearGradient id="r" x2="1" gradientTransform="matrix(1.0845 1.0845 1.0845 -1.0845 523.89 492.01)" gradientUnits="userSpaceOnUse"><stop stop-color="#fff" stop-opacity="0" offset="0"/><stop stop-color="#fff" offset="1"/></linearGradient><linearGradient id="ab" x2="1" gradientTransform="matrix(1.0845 1.0845 1.0845 -1.0845 523.89 492.01)" gradientUnits="userSpaceOnUse"><stop stop-color="#fff" offset="0"/><stop stop-color="#fff" offset="1"/></linearGradient><linearGradient id="A" x2="1" gradientTransform="matrix(.58104 .72401 .72401 -.58104 540.1 494.5)" gradientUnits="userSpaceOnUse"><stop stop-color="#fff" stop-opacity="0" offset="0"/><stop stop-color="#fff" offset="1"/></linearGradient><linearGradient id="aV" x2="1" gradientTransform="matrix(.58104 .72401 .72401 -.58104 540.1 494.5)" gradientUnits="userSpaceOnUse"><stop stop-color="#fff" offset="0"/><stop stop-color="#fff" offset="1"/></linearGradient><linearGradient id="X" x2="1" gradientTransform="scale(4.3682 -4.3682) rotate(74.999 133.693 21.483)" gradientUnits="userSpaceOnUse"><stop stop-color="#f2ef1d" offset="0"/><stop stop-color="#a47343" offset="1"/></linearGradient><linearGradient id="aI" x2="1" gradientTransform="matrix(.70086 .8733 .8733 -.70086 527.66 504.22)" gradientUnits="userSpaceOnUse"><stop stop-color="#656263" offset="0"/><stop stop-color="#676565" offset=".482"/><stop stop-color="#a7a5a6" offset=".819"/><stop stop-color="#a7a5a6" offset="1"/></linearGradient><linearGradient id="S" x2="1" gradientTransform="scale(28.506 -28.506) rotate(-45 -11.54 -30.882)" gradientUnits="userSpaceOnUse"><stop stop-color="#fff" offset="0"/><stop stop-color="#fff" offset="1"/></linearGradient><linearGradient id="l" x2="1" gradientTransform="scale(5.4382 -5.4382) rotate(-45 -59.85 -160.32)" gradientUnits="userSpaceOnUse"><stop stop-color="#fff" stop-opacity="0" offset="0"/><stop stop-color="#fff" offset="1"/></linearGradient><linearGradient id="at" x2="1" gradientTransform="scale(5.4382 -5.4382) rotate(-45 -59.85 -160.32)" gradientUnits="userSpaceOnUse"><stop stop-color="#fff" offset="0"/><stop stop-color="#fff" offset="1"/></linearGradient><linearGradient id="c" x2="1" gradientTransform="scale(28.506 -28.506) rotate(-45 -11.54 -30.882)" gradientUnits="userSpaceOnUse"><stop stop-color="#fff" stop-opacity="0" offset="0"/><stop stop-color="#fff" offset="1"/></linearGradient><linearGradient id="av" x2="1" gradientTransform="scale(1.3587 -1.3587) rotate(75.001 424.352 71.088)" gradientUnits="userSpaceOnUse"><stop stop-color="#f2ef1d" offset="0"/><stop stop-color="#a47343" offset="1"/></linearGradient><mask id="aR" x="0" y="0" width="1" height="1" maskUnits="userSpaceOnUse"><g clip-path="url(#s)"><g clip-path="url(#t)"><path d="M525.03 499.31l6.831 8.512 8.73-7.006-6.831-8.513z" fill="url(#u)"/></g></g></mask><mask id="R" x="0" y="0" width="1" height="1" maskUnits="userSpaceOnUse"><g clip-path="url(#a)"><g clip-path="url(#b)"><path d="M515.72 500.5l20.356 20.355 20.355-20.355-20.355-20.356z" fill="url(#c)"/></g></g></mask><mask id="am" x="0" y="0" width="1" height="1" maskUnits="userSpaceOnUse"><g clip-path="url(#g)"><g clip-path="url(#h)"><path d="M524.26 490.66l1.895 1.895 1.895-1.895-1.895-1.895z" fill="url(#i)"/></g></g></mask><mask id="as" x="0" y="0" width="1" height="1" maskUnits="userSpaceOnUse"><g clip-path="url(#j)"><g clip-path="url(#k)"><path d="M519.2 487.45l3.939 3.938 3.939-3.938-3.939-3.939z" fill="url(#l)"/></g></g></mask><mask id="bd" x="0" y="0" width="1" height="1" maskUnits="userSpaceOnUse"><g clip-path="url(#m)"><g clip-path="url(#n)"><path d="M513.46 507.85l8.68 10.815 11.102-8.91-8.68-10.815z" fill="url(#o)"/></g></g></mask><mask id="aa" x="0" y="0" width="1" height="1" maskUnits="userSpaceOnUse"><g clip-path="url(#p)"><g clip-path="url(#q)"><path d="M521.16 492.78l2.962 2.962 2.961-2.962-2.961-2.961z" fill="url(#r)"/></g></g></mask><mask id="ag" x="0" y="0" width="1" height="1" maskUnits="userSpaceOnUse"><g clip-path="url(#d)"><g clip-path="url(#e)"><path d="M528.92 485.02l2.962 2.962-2.962 2.962-2.962-2.962z" fill="url(#f)"/></g></g></mask><mask id="U" x="0" y="0" width="1" height="1" maskUnits="userSpaceOnUse"><g clip-path="url(#v)"><g clip-path="url(#w)"><path d="M546.57 496.3l-13.241-13.241-13.241 13.241 13.241 13.241z" fill="url(#x)"/></g></g></mask><mask id="aU" x="0" y="0" width="1" height="1" maskUnits="userSpaceOnUse"><g clip-path="url(#y)"><g clip-path="url(#z)"><path d="M536.52 494.39l3.189 3.974 4.026-3.231-3.189-3.974z" fill="url(#A)"/></g></g></mask><mask id="aX" x="0" y="0" width="1" height="1" maskUnits="userSpaceOnUse"><g clip-path="url(#B)"><g clip-path="url(#C)"><path d="M537.29 490.44l2.903 3.618 3.393-2.724-2.903-3.617z" fill="url(#D)"/></g></g></mask><mask id="ba" x="0" y="0" width="1" height="1" maskUnits="userSpaceOnUse"><g clip-path="url(#E)"><g clip-path="url(#F)"><path d="M542.28 489.47l2.1 2.616 2.717-2.18-2.1-2.616z" fill="url(#G)"/></g></g></mask><mask id="ay" x="0" y="0" width="1" height="1" maskUnits="userSpaceOnUse"><g clip-path="url(#H)"><g clip-path="url(#I)"><path d="M519.64 485.04l1.045 1.045 1.045-1.045-1.045-1.045z" fill="url(#J)"/></g></g></mask></defs><g transform="matrix(.62442 0 0 -.62816 -319.82 326.012)" clip-path="url(#K)"><path d="M552.08 479.25h-37.417v37.417h37.417z" fill="#231f20"/><path d="M527.88 492.03l-3.807-9.556 7.082 7.049 2.861-9.327 1.731 9.335 7.619-7.765-2.429 10.329 9.074.414-7.102 3.973 8.295 4.381-8.456.831 6.768 6.76-9.082-2.541.183 8.662-4.221-8.712-2.702 6.196-1.59-7.081-7.515 9.101 2.434-9.961-9.199 1.17 6.143-4.627-8.494-3.049 10.43-1.657-7.604-5.976z" fill="none" stroke="#f2ef1d" stroke-linecap="round" stroke-linejoin="round" stroke-width=".88"/><path d="M533.83 483.3l1.687 7.45 6.305-6.424-1.689 8.268 7.022.393-5.473 3.45 7.056 3.771-6.806 1.003 4.863 5.796-7.27-2.508.523 6.501-3.92-7.109-2.208 5.62s-1.778-5.864-1.765-6.217c.013-.354-6.184 7.524-6.184 7.524l2.698-8.41-8.264 1.761 5.358-3.761-6.938-2.624 8.428-1.169-5.32-4.984 6.595.878-2.611-7.17 5.949 5.479z" fill="none" stroke="#f2ef1d" stroke-linecap="round" stroke-linejoin="round" stroke-width=".88"/><path d="M527.88 492.03l-3.807-9.556 7.082 7.049 2.861-9.327 1.731 9.335 7.619-7.765-2.429 10.329 9.074.414-7.102 3.973 8.295 4.381-8.456.831 6.768 6.76-9.082-2.541.183 8.662-4.221-8.712-2.702 6.196-1.59-7.081-7.515 9.101 2.434-9.961-9.199 1.17 6.143-4.627-8.494-3.049 10.43-1.657-7.604-5.976z" fill="#f68712"/><path d="M533.83 483.3l1.687 7.45 6.305-6.424-1.689 8.268 7.022.393-5.473 3.45 7.056 3.771-6.806 1.003 4.863 5.796-7.27-2.508.523 6.501-3.92-7.109-2.208 5.62s-1.778-5.864-1.765-6.217c.013-.354-6.184 7.524-6.184 7.524l2.698-8.41-8.264 1.761 5.358-3.761-6.938-2.624 8.428-1.169-5.32-4.984 6.595.878-2.611-7.17 5.949 5.479z" fill="#ed1c24"/><path d="M525.46 490.99l16.206 17.073 5.108 2.58-2.557-5.077-17.096-16.237z" fill="none" stroke="#fddd10" stroke-miterlimit="5" stroke-width="2.2"/><path d="M547.02 510.89l-.595-.3-4.78-2.408-.034-.017-.026-.028-16.133-16.995-.148-.155 1.813-1.813.156.148 16.994 16.132.029.027.017.034 2.407 4.779zm-.496-.496l-2.408-4.78-16.995-16.133-1.509 1.51 16.132 16.995 4.78 2.408" fill="none" stroke="#fddd10" stroke-miterlimit="5" stroke-width="2.2"/><path d="M526.22 491l15.791 16.635 3.542 1.785-1.784-3.543-16.635-15.791z" fill="none" stroke="#fddd10" stroke-miterlimit="5" stroke-width="2.2"/><path d="M525.62 490.99l.395-.395s15.397 16.5 19.035 16.855l1.482 2.943-4.779-2.408z" fill="none" stroke="#fddd10" stroke-miterlimit="5" stroke-width="2.2"/><path d="M526.37 490.24s9.411 10.677 13.925 12.343l-4.41-4.186s-.421.721-9.299-8.373m-4.246 3.056l1.582 1.582s-.167-1.415 2.018-3.6l-.521-.521s-1.246 2.389-3.079 2.539z" fill="none" stroke="#fddd10" stroke-miterlimit="5" stroke-width="2.2"/><path d="M522.68 493.22l1.085 1.085s.026-1.204 1.789-3.05c0 0-1.438 1.294-1.759 2.172 0 0-.227.702-1.115-.207zm6.54-7.02l1.582 1.582s-1.415-.167-3.6 2.018l-.521-.521s2.389-1.246 2.539-3.079z" fill="none" stroke="#fddd10" stroke-miterlimit="5" stroke-width="2.2"/><path d="M529.36 486.54l1.085 1.085s-1.204.026-3.05 1.789c0 0 1.294-1.438 2.171-1.759 0 0 .703-.227-.206-1.115zm-4.43 3.18l.334 1.247 1.247.334.914-.913-.335-1.247-1.247-.334z" fill="none" stroke="#fddd10" stroke-miterlimit="5" stroke-width="2.2"/><path d="M525.11 489.8l.279 1.044 1.043.278.764-.764s-1.621 1.146-2.086-.558zm-3.52-4.94l-.595.596 3.936 4.266.926-.925z" fill="none" stroke="#fddd10" stroke-miterlimit="5" stroke-width="2.2"/><path d="M521.22 485.46l3.677 4.008.169-.162s-.304-.076-1.337-1.129c0 0-2.372-2.308-2.414-2.741zm-1.17-.99l.203.757.757.203.554-.554-.202-.758-.758-.203z" fill="none" stroke="#fddd10" stroke-miterlimit="5" stroke-width="2.2"/><path d="M520.16 484.52l.17.634.633.169.253-.254s-.774.486-1.056-.549zm5.3 6.47l16.206 17.073 5.108 2.58-2.557-5.077-17.096-16.237z" fill="none" stroke="#fddd10" stroke-miterlimit="5" stroke-width="2.2"/><path d="M547.02 510.89l-.595-.3-4.78-2.408-.034-.017-.026-.028-16.133-16.995-.148-.155 1.813-1.813.156.148 16.994 16.132.029.027.017.034 2.407 4.779zm-.496-.496l-2.408-4.78-16.995-16.133-1.509 1.51 16.132 16.995 4.78 2.408" fill="none" stroke="#fddd10" stroke-miterlimit="5" stroke-width="2.2"/><path d="M526.22 491l15.791 16.635 3.542 1.785-1.784-3.543-16.635-15.791z" fill="none" stroke="#fddd10" stroke-miterlimit="5" stroke-width="2.2"/><path d="M525.62 490.99l.395-.395s15.397 16.5 19.035 16.855l1.482 2.943-4.779-2.408z" fill="none" stroke="#fddd10" stroke-miterlimit="5" stroke-width="2.2"/><path d="M526.37 490.24s9.411 10.677 13.925 12.343l-4.41-4.186s-.421.721-9.299-8.373m-4.246 3.056l1.582 1.582s-.167-1.415 2.018-3.6l-.521-.521s-1.246 2.389-3.079 2.539z" fill="none" stroke="#fddd10" stroke-miterlimit="5" stroke-width="2.2"/><path d="M522.68 493.22l1.085 1.085s.026-1.204 1.789-3.05c0 0-1.438 1.294-1.759 2.172 0 0-.227.702-1.115-.207zm6.54-7.02l1.582 1.582s-1.415-.167-3.6 2.018l-.521-.521s2.389-1.246 2.539-3.079z" fill="none" stroke="#fddd10" stroke-miterlimit="5" stroke-width="2.2"/><path d="M529.36 486.54l1.085 1.085s-1.204.026-3.05 1.789c0 0 1.294-1.438 2.171-1.759 0 0 .703-.227-.206-1.115zm-4.43 3.18l.334 1.247 1.247.334.914-.913-.335-1.247-1.247-.334z" fill="none" stroke="#fddd10" stroke-miterlimit="5" stroke-width="2.2"/><path d="M525.11 489.8l.279 1.044 1.043.278.764-.764s-1.621 1.146-2.086-.558zm-3.52-4.94l-.595.596 3.936 4.266.926-.925z" fill="none" stroke="#fddd10" stroke-miterlimit="5" stroke-width="2.2"/><path d="M521.22 485.46l3.677 4.008.169-.162s-.304-.076-1.337-1.129c0 0-2.372-2.308-2.414-2.741zm-1.17-.99l.203.757.757.203.554-.554-.202-.758-.758-.203z" fill="none" stroke="#fddd10" stroke-miterlimit="5" stroke-width="2.2"/><path d="M520.16 484.52l.17.634.633.169.253-.254s-.774.486-1.056-.549zm5.3 6.47l16.206 17.073 5.108 2.58-2.557-5.077-17.096-16.237z" fill="none" stroke="#fddd10" stroke-miterlimit="5" stroke-width="2.2"/><path d="M547.02 510.89l-.595-.3-4.78-2.408-.034-.017-.026-.028-16.133-16.995-.148-.155 1.813-1.813.156.148 16.994 16.132.029.027.017.034 2.407 4.779zm-.496-.496l-2.408-4.78-16.995-16.133-1.509 1.51 16.132 16.995 4.78 2.408" fill="none" stroke="#fddd10" stroke-miterlimit="5" stroke-width="2.2"/><path d="M526.22 491l15.791 16.635 3.542 1.785-1.784-3.543-16.635-15.791z" fill="none" stroke="#fddd10" stroke-miterlimit="5" stroke-width="2.2"/><path d="M525.62 490.99l.395-.395s15.397 16.5 19.035 16.855l1.482 2.943-4.779-2.408z" fill="none" stroke="#fddd10" stroke-miterlimit="5" stroke-width="2.2"/><path d="M526.37 490.24s9.411 10.677 13.925 12.343l-4.41-4.186s-.421.721-9.299-8.373m-4.246 3.056l1.582 1.582s-.167-1.415 2.018-3.6l-.521-.521s-1.246 2.389-3.079 2.539z" fill="none" stroke="#fddd10" stroke-miterlimit="5" stroke-width="2.2"/><path d="M522.68 493.22l1.085 1.085s.026-1.204 1.789-3.05c0 0-1.438 1.294-1.759 2.172 0 0-.227.702-1.115-.207zm6.54-7.02l1.582 1.582s-1.415-.167-3.6 2.018l-.521-.521s2.389-1.246 2.539-3.079z" fill="none" stroke="#fddd10" stroke-miterlimit="5" stroke-width="2.2"/><path d="M529.36 486.54l1.085 1.085s-1.204.026-3.05 1.789c0 0 1.294-1.438 2.171-1.759 0 0 .703-.227-.206-1.115zm-4.43 3.18l.334 1.247 1.247.334.914-.913-.335-1.247-1.247-.334z" fill="none" stroke="#fddd10" stroke-miterlimit="5" stroke-width="2.2"/><path d="M525.11 489.8l.279 1.044 1.043.278.764-.764s-1.621 1.146-2.086-.558zm-3.52-4.94l-.595.596 3.936 4.266.926-.925z" fill="none" stroke="#fddd10" stroke-miterlimit="5" stroke-width="2.2"/><path d="M521.22 485.46l3.677 4.008.169-.162s-.304-.076-1.337-1.129c0 0-2.372-2.308-2.414-2.741zm-1.17-.99l.203.757.757.203.554-.554-.202-.758-.758-.203z" fill="none" stroke="#fddd10" stroke-miterlimit="5" stroke-width="2.2"/><path d="M520.16 484.52l.17.634.633.169.253-.254s-.774.486-1.056-.549zm18.17 9.7s.224-.979-.318-.994c0 0 .951-1.147 1.432-.052l-1.022.972" fill="none" stroke="#fddd10" stroke-miterlimit="5" stroke-width="2.2"/><path d="M537.61 492.71c-.727.583-1.027 1.421-.669 1.866.358.447 1.239.335 1.967-.249s1.027-1.42.669-1.866c-.358-.447-1.239-.335-1.967.249zm1.539 1.917c-.869.697-1.97.766-2.462.153-.491-.612-.186-1.674.682-2.371.869-.696 1.971-.765 2.462-.153.491.613.186 1.674-.682 2.371zm-.319 2.063l-20.931 16.798-.701-.873 20.931-16.798z" fill="none" stroke="#fddd10" stroke-miterlimit="5" stroke-width="2.2"/><path d="M528.88 503.62s-.975-1.603.134-2.493l10.04-8.18s1.955-2.523 1.246-4.166l2.428-.382 3.626-7.219s1.748 3.787 3.704 3.953l-5.847 5.872-1.223-.199s-1.132.957-.738 2.016c.395 1.058-2.764 3.652-3.273 4.061 0 0-.561-.985-1.44-.279zm-10.54 9.52l.527.656.485-.388s-.596-.601.49-1.473z" fill="none" stroke="#fddd10" stroke-miterlimit="5" stroke-width="2.2"/><path d="M529 501.48s-.461.865-.027 1.713l8.228-6.604s-8.77 6.956-8.201 4.891zm9.2-5.45s.547-.037.898.45c0 0 2.576-1.815 2.969-3.43 0 0-1.511 2.987-3.867 2.98zm1.11-3.08s1.852-2.849 1.382-3.996l.883-.133s-.611 1.728-2.265 4.129zm3.95-2.34l.798.084 2.055-2.011s-2.012 1.829-2.853 1.927zm-25.27 22.59l10.964-8.799s-10.383 8.311-11.191 8.466" fill="none" stroke="#fddd10" stroke-miterlimit="5" stroke-width="2.2"/><path d="M538.33 494.22s.224-.979-.318-.994c0 0 .951-1.147 1.432-.052l-1.022.972" fill="none" stroke="#fddd10" stroke-miterlimit="5" stroke-width="2.2"/><path d="M537.61 492.71c-.727.583-1.027 1.421-.669 1.866.358.447 1.239.335 1.967-.249s1.027-1.42.669-1.866c-.358-.447-1.239-.335-1.967.249zm1.539 1.917c-.869.697-1.97.766-2.462.153-.491-.612-.186-1.674.682-2.371.869-.696 1.971-.765 2.462-.153.491.613.186 1.674-.682 2.371zm-.319 2.063l-20.931 16.798-.701-.873 20.931-16.798z" fill="none" stroke="#fddd10" stroke-miterlimit="5" stroke-width="2.2"/><path d="M528.88 503.62s-.975-1.603.134-2.493l10.04-8.18s1.955-2.523 1.246-4.166l2.428-.382 3.626-7.219s1.748 3.787 3.704 3.953l-5.847 5.872-1.223-.199s-1.132.957-.738 2.016c.395 1.058-2.764 3.652-3.273 4.061 0 0-.561-.985-1.44-.279zm-10.54 9.52l.527.656.485-.388s-.596-.601.49-1.473z" fill="none" stroke="#fddd10" stroke-miterlimit="5" stroke-width="2.2"/><path d="M529 501.48s-.461.865-.027 1.713l8.228-6.604s-8.77 6.956-8.201 4.891zm9.2-5.45s.547-.037.898.45c0 0 2.576-1.815 2.969-3.43 0 0-1.511 2.987-3.867 2.98zm1.11-3.08s1.852-2.849 1.382-3.996l.883-.133s-.611 1.728-2.265 4.129zm3.95-2.34l.798.084 2.055-2.011s-2.012 1.829-2.853 1.927zm-25.27 22.59l10.964-8.799s-10.383 8.311-11.191 8.466" fill="none" stroke="#fddd10" stroke-miterlimit="5" stroke-width="2.2"/><path d="M538.33 494.22s.224-.979-.318-.994c0 0 .951-1.147 1.432-.052l-1.022.972" fill="none" stroke="#fddd10" stroke-miterlimit="5" stroke-width="2.2"/><path d="M537.61 492.71c-.727.583-1.027 1.421-.669 1.866.358.447 1.239.335 1.967-.249s1.027-1.42.669-1.866c-.358-.447-1.239-.335-1.967.249zm1.539 1.917c-.869.697-1.97.766-2.462.153-.491-.612-.186-1.674.682-2.371.869-.696 1.971-.765 2.462-.153.491.613.186 1.674-.682 2.371zm-.319 2.063l-20.931 16.798-.701-.873 20.931-16.798z" fill="none" stroke="#fddd10" stroke-miterlimit="5" stroke-width="2.2"/><path d="M528.88 503.62s-.975-1.603.134-2.493l10.04-8.18s1.955-2.523 1.246-4.166l2.428-.382 3.626-7.219s1.748 3.787 3.704 3.953l-5.847 5.872-1.223-.199s-1.132.957-.738 2.016c.395 1.058-2.764 3.652-3.273 4.061 0 0-.561-.985-1.44-.279zm-10.54 9.52l.527.656.485-.388s-.596-.601.49-1.473z" fill="none" stroke="#fddd10" stroke-miterlimit="5" stroke-width="2.2"/><path d="M529 501.48s-.461.865-.027 1.713l8.228-6.604s-8.77 6.956-8.201 4.891zm9.2-5.45s.547-.037.898.45c0 0 2.576-1.815 2.969-3.43 0 0-1.511 2.987-3.867 2.98zm1.11-3.08s1.852-2.849 1.382-3.996l.883-.133s-.611 1.728-2.265 4.129zm3.95-2.34l.798.084 2.055-2.011s-2.012 1.829-2.853 1.927zm-25.27 22.59l10.964-8.799s-10.383 8.311-11.191 8.466" fill="none" stroke="#fddd10" stroke-miterlimit="5" stroke-width="2.2"/><path d="M525.46 490.99l16.206 17.073 5.108 2.58-2.557-5.077-17.096-16.237z" fill="none" stroke="#4f4c4d" stroke-width="1.32"/><path d="M547.02 510.89l-.595-.3-4.78-2.408-.034-.017-.026-.028-16.133-16.995-.148-.155 1.813-1.813.156.148 16.994 16.132.029.027.017.034 2.407 4.779zm-.496-.496l-2.408-4.78-16.995-16.133-1.509 1.51 16.132 16.995 4.78 2.408" fill="none" stroke="#4f4c4d" stroke-width="1.32"/><path d="M526.22 491l15.791 16.635 3.542 1.785-1.784-3.543-16.635-15.791z" fill="none" stroke="#4f4c4d" stroke-width="1.32"/><path d="M525.62 490.99l.395-.395s15.397 16.5 19.035 16.855l1.482 2.943-4.779-2.408z" fill="none" stroke="#4f4c4d" stroke-width="1.32"/><path d="M526.37 490.24s9.411 10.677 13.925 12.343l-4.41-4.186s-.421.721-9.299-8.373m-4.246 3.056l1.582 1.582s-.167-1.415 2.018-3.6l-.521-.521s-1.246 2.389-3.079 2.539z" fill="none" stroke="#4f4c4d" stroke-width="1.32"/><path d="M522.68 493.22l1.085 1.085s.026-1.204 1.789-3.05c0 0-1.438 1.294-1.759 2.172 0 0-.227.702-1.115-.207zm6.54-7.02l1.582 1.582s-1.415-.167-3.6 2.018l-.521-.521s2.389-1.246 2.539-3.079z" fill="none" stroke="#4f4c4d" stroke-width="1.32"/><path d="M529.36 486.54l1.085 1.085s-1.204.026-3.05 1.789c0 0 1.294-1.438 2.171-1.759 0 0 .703-.227-.206-1.115zm-4.43 3.18l.334 1.247 1.247.334.914-.913-.335-1.247-1.247-.334z" fill="none" stroke="#4f4c4d" stroke-width="1.32"/><path d="M525.11 489.8l.279 1.044 1.043.278.764-.764s-1.621 1.146-2.086-.558zm-3.52-4.94l-.595.596 3.936 4.266.926-.925z" fill="none" stroke="#4f4c4d" stroke-width="1.32"/><path d="M521.22 485.46l3.677 4.008.169-.162s-.304-.076-1.337-1.129c0 0-2.372-2.308-2.414-2.741zm-1.17-.99l.203.757.757.203.554-.554-.202-.758-.758-.203z" fill="none" stroke="#4f4c4d" stroke-width="1.32"/><path d="M520.16 484.52l.17.634.633.169.253-.254s-.774.486-1.056-.549z" fill="none" stroke="#4f4c4d" stroke-width="1.32"/></g><g transform="matrix(.62442 0 0 -.62816 -319.82 326.012)" clip-path="url(#L)"><path d="M541.67 508.06l-16.206-17.073 1.661-1.66 17.095 16.237 2.558 5.077z" fill="url(#M)"/></g><g transform="matrix(.62442 0 0 -.62816 -319.82 326.012)" clip-path="url(#N)"><path d="M547.02 510.89l-.595-.3-4.78-2.408-.034-.017-.026-.028-16.133-16.995-.148-.155 1.813-1.813.156.148 16.994 16.132.029.027.017.034 2.407 4.779zm-.496-.496l-2.408-4.78-16.995-16.133-1.509 1.51 16.132 16.995z" fill="#4f4c4d"/></g><g transform="matrix(.62442 0 0 -.62816 -319.82 326.012)" clip-path="url(#O)"><path d="M542.01 507.64l-15.792-16.636.914-.914 16.635 15.791 1.785 3.544z" fill="url(#P)"/></g><g transform="matrix(.62442 0 0 -.62816 -319.82 326.012)" clip-path="url(#Q)"><g mask="url(#R)"><path d="M541.75 507.99l-16.133-16.995.395-.395s15.397 16.5 19.035 16.855l1.483 2.942z" fill="url(#S)"/></g></g><g transform="matrix(.62442 0 0 -.62816 -319.82 326.012)" clip-path="url(#T)"><g mask="url(#U)"><path d="M526.37 490.24l.216-.215c8.878 9.093 9.3 8.373 9.3 8.373l4.408 4.185c-4.513-1.666-13.924-12.343-13.924-12.343" fill="url(#V)"/></g></g><g transform="matrix(.62442 0 0 -.62816 -319.82 326.012)" clip-path="url(#W)"><path d="M522.34 493.08c1.834-.15 3.08-2.54 3.08-2.54l.52.521c-2.184 2.186-2.018 3.6-2.018 3.6z" fill="url(#X)"/></g><g transform="matrix(.62442 0 0 -.62816 -319.82 326.012)" clip-path="url(#Y)"><path d="M522.34 493.08l1.582 1.582s-.167-1.415 2.018-3.6l-.521-.521s-1.246 2.389-3.079 2.539z" fill="none" stroke="#a47343" stroke-miterlimit="10" stroke-width=".22"/></g><g transform="matrix(.62442 0 0 -.62816 -319.82 326.012)" clip-path="url(#Z)"><g mask="url(#aa)"><path d="M522.74 493.28c.842.823 1.059.151 1.059.151.321-.879 1.759-2.172 1.759-2.172-1.764 1.846-1.79 3.049-1.79 3.049zm-.056-.056l.056.056-.056-.056" fill="url(#ab)"/></g></g><g transform="matrix(.62442 0 0 -.62816 -319.82 326.012)" clip-path="url(#ac)"><path d="M526.68 489.28s2.391-1.245 2.54-3.079l1.582 1.582s-1.414-.167-3.599 2.018z" fill="url(#ad)"/></g><g transform="matrix(.62442 0 0 -.62816 -319.82 326.012)" clip-path="url(#ae)"><path d="M529.22 486.2l1.582 1.582s-1.415-.167-3.6 2.018l-.521-.521s2.389-1.246 2.539-3.079z" fill="none" stroke="#a47343" stroke-miterlimit="10" stroke-width=".22"/></g><g transform="matrix(.62442 0 0 -.62816 -319.82 326.012)" clip-path="url(#af)"><g mask="url(#ag)"><path d="M529.57 487.66s.672-.218-.149-1.058l1.027 1.026s-1.204.026-3.05 1.79c0 0 1.295-1.439 2.172-1.758m-.207-1.116l.058.058z" fill="url(#ah)"/></g></g><g transform="matrix(.62442 0 0 -.62816 -319.82 326.012)" clip-path="url(#ai)"><path d="M525.26 490.97l-.335-1.247.914-.913 1.247.334.334 1.246-.912.915z" fill="url(#aj)"/></g><g transform="matrix(.62442 0 0 -.62816 -319.82 326.012)" clip-path="url(#ak)"><path d="M524.93 489.72l.334 1.247 1.247.334.914-.913-.335-1.247-1.247-.334z" fill="none" stroke="#a47343" stroke-miterlimit="10" stroke-width=".22"/></g><g transform="matrix(.62442 0 0 -.62816 -319.82 326.012)" clip-path="url(#al)"><g mask="url(#am)"><path d="M525.39 490.85l-.28-1.044c.464 1.704 2.086.557 2.086.557l-.764.765z" fill="url(#an)"/></g></g><g transform="matrix(.62442 0 0 -.62816 -319.82 326.012)" clip-path="url(#ao)"><path d="M521 485.46l.595-.595 4.267 3.937-.927.925z" fill="url(#ap)"/></g><g transform="matrix(.62442 0 0 -.62816 -319.82 326.012)" clip-path="url(#aq)"><path d="M521.59 484.86l-.595.596 3.936 4.266.926-.925z" fill="none" stroke="#a47343" stroke-miterlimit="10" stroke-width=".22"/></g><g transform="matrix(.62442 0 0 -.62816 -319.82 326.012)" clip-path="url(#ar)"><g mask="url(#as)"><path d="M523.55 488l.174.17c1.032 1.054 1.336 1.13 1.336 1.13l-.169.162zm-2.095-2.283L523.55 488c-.453-.449-1.672-1.673-2.095-2.283m-.241-.263l.095-.024c.007.061.06.161.146.287z" fill="url(#at)"/></g></g><g transform="matrix(.62442 0 0 -.62816 -319.82 326.012)" clip-path="url(#au)"><path d="M520.26 485.23l-.203-.758.554-.554.758.204.203.756-.555.555z" fill="url(#av)"/></g><g transform="matrix(.62442 0 0 -.62816 -319.82 326.012)" clip-path="url(#aw)"><path d="M520.05 484.47l.203.757.757.203.554-.554-.202-.758-.758-.203z" fill="none" stroke="#a47343" stroke-miterlimit="10" stroke-width=".22"/></g><g transform="matrix(.62442 0 0 -.62816 -319.82 326.012)" clip-path="url(#ax)"><g mask="url(#ay)"><path d="M520.33 485.16l-.17-.634c.283 1.034 1.057.549 1.057.549l-.253.254z" fill="url(#az)"/></g></g><g transform="matrix(.62442 0 0 -.62816 -319.82 326.012)" clip-path="url(#aA)" fill="none" stroke="#5a3114" stroke-linecap="round" stroke-linejoin="round" stroke-width="1.32"><path d="M538.33 494.22s.224-.979-.318-.994c0 0 .951-1.147 1.432-.052l-1.022.972"/><path d="M537.61 492.71c-.727.583-1.027 1.421-.669 1.866.358.447 1.239.335 1.967-.249s1.027-1.42.669-1.866c-.358-.447-1.239-.335-1.967.249zm1.539 1.917c-.869.697-1.97.766-2.462.153-.491-.612-.186-1.674.682-2.371.869-.696 1.971-.765 2.462-.153.491.613.186 1.674-.682 2.371zm-.319 2.063l-20.931 16.798-.701-.873 20.931-16.798z"/><path d="M528.88 503.62s-.975-1.603.134-2.493l10.04-8.18s1.955-2.523 1.246-4.166l2.428-.382 3.626-7.219s1.748 3.787 3.704 3.953l-5.847 5.872-1.223-.199s-1.132.957-.738 2.016c.395 1.058-2.764 3.652-3.273 4.061 0 0-.561-.985-1.44-.279zm-10.54 9.52l.527.656.485-.388s-.596-.601.49-1.473z"/><path d="M529 501.48s-.461.865-.027 1.713l8.228-6.604s-8.77 6.956-8.201 4.891zm9.2-5.45s.547-.037.898.45c0 0 2.576-1.815 2.969-3.43 0 0-1.511 2.987-3.867 2.98zm1.11-3.08s1.852-2.849 1.382-3.996l.883-.133s-.611 1.728-2.265 4.129zm3.95-2.34l.798.084 2.055-2.011s-2.012 1.829-2.853 1.927zm-25.27 22.59l10.964-8.799s-10.383 8.311-11.191 8.466"/></g><g transform="matrix(.62442 0 0 -.62816 -319.82 326.012)" clip-path="url(#aB)"><path d="M538.01 493.23s.951-1.147 1.432-.053l-1.022.973-.092.074s.222-.979-.318-.994" fill="url(#aC)"/></g><g transform="matrix(.62442 0 0 -.62816 -319.82 326.012)" clip-path="url(#aD)"><path d="M538.33 494.22s.224-.979-.318-.994c0 0 .951-1.147 1.432-.052l-1.022.972" fill="none" stroke="#4f4c4d" stroke-width=".22"/></g><g transform="matrix(.62442 0 0 -.62816 -319.82 326.012)" clip-path="url(#aE)"><path d="M536.69 494.78c-.491-.612-.186-1.674.682-2.37.869-.698 1.97-.766 2.462-.153.491.613.185 1.673-.683 2.369-.47.379-1.01.572-1.484.572-.399 0-.752-.138-.977-.418m.922-2.07c-.727.584-1.027 1.421-.667 1.866.357.446 1.238.335 1.965-.249.728-.584 1.028-1.42.67-1.867-.148-.183-.385-.273-.664-.273-.396 0-.876.18-1.304.523" fill="url(#aF)"/></g><g transform="matrix(.62442 0 0 -.62816 -319.82 326.012)" clip-path="url(#aG)"><path d="M537.61 492.71c-.727.583-1.027 1.421-.669 1.866.358.447 1.239.335 1.967-.249s1.027-1.42.669-1.866c-.358-.447-1.239-.335-1.967.249zm1.539 1.917c-.869.697-1.97.766-2.462.153-.491-.612-.186-1.674.682-2.371.869-.696 1.971-.765 2.462-.153.491.613.186 1.674-.682 2.371z" fill="none" stroke="#4f4c4d" stroke-width=".22"/></g><g transform="matrix(.62442 0 0 -.62816 -319.82 326.012)" clip-path="url(#aH)"><path d="M517.2 512.62l20.93-16.798.701.874-20.93 16.797z" fill="url(#aI)"/></g><g transform="matrix(.62442 0 0 -.62816 -319.82 326.012)" clip-path="url(#aJ)"><path d="M538.83 496.69l-20.931 16.798-.701-.873 20.931-16.798z" fill="none" stroke="#4f4c4d" stroke-width=".22"/></g><g transform="matrix(.62442 0 0 -.62816 -319.82 326.012)" clip-path="url(#aK)"><path d="M529.01 501.12l10.039-8.179s1.956-2.525 1.247-4.168l2.427-.382 3.626-7.218s1.748 3.787 3.705 3.952l-5.847 5.872-1.223-.199s-1.132.957-.738 2.016c.395 1.059-2.765 3.653-3.272 4.061 0 0-.563-.984-1.441-.28l-8.657 7.018s-.975-1.603.134-2.493" fill="url(#aL)"/></g><g transform="matrix(.62442 0 0 -.62816 -319.82 326.012)" clip-path="url(#aM)"><path d="M528.88 503.62s-.975-1.603.134-2.493l10.04-8.18s1.955-2.523 1.246-4.166l2.428-.382 3.626-7.219s1.748 3.787 3.704 3.953l-5.847 5.872-1.223-.199s-1.132.957-.738 2.016c.395 1.058-2.764 3.652-3.273 4.061 0 0-.561-.985-1.44-.279z" fill="none" stroke="#6f4324" stroke-width=".22"/></g><g transform="matrix(.62442 0 0 -.62816 -319.82 326.012)" clip-path="url(#aN)"><path d="M518.34 513.14l1.502-1.205c-1.086.872-.489 1.472-.489 1.472l-.486.39z" fill="url(#aO)"/></g><g transform="matrix(.62442 0 0 -.62816 -319.82 326.012)" clip-path="url(#aP)"><path d="M518.34 513.14l.527.656.485-.388s-.596-.601.49-1.473z" fill="none" stroke="#4f4c4d" stroke-width=".22"/></g><g transform="matrix(.62442 0 0 -.62816 -319.82 326.012)" clip-path="url(#aQ)"><g mask="url(#aR)"><path d="M529 501.48c-.57 2.066 8.2-4.89 8.2-4.89l-8.228 6.603c-.433-.848.028-1.713.028-1.713" fill="url(#aS)"/></g></g><g transform="matrix(.62442 0 0 -.62816 -319.82 326.012)" clip-path="url(#aT)"><g mask="url(#aU)"><path d="M538.24 496.03c2.317-.035 3.805-2.953 3.819-2.979-.395 1.614-2.97 3.429-2.97 3.429a1.089 1.089 0 00-.849-.45m-.05 0h.05-.041z" fill="url(#aV)"/></g></g><g transform="matrix(.62442 0 0 -.62816 -319.82 326.012)" clip-path="url(#aW)"><g mask="url(#aX)"><path d="M540.69 488.96l.883-.132c-.007.02-.62 1.743-2.265 4.129 0 0 1.852-2.848 1.382-3.997" fill="url(#aY)"/></g></g><g transform="matrix(.62442 0 0 -.62816 -319.82 326.012)" clip-path="url(#aZ)"><g mask="url(#ba)"><path d="M543.26 490.6c.841-.097 2.851-1.925 2.853-1.927l-2.056 2.012z" fill="url(#bb)"/></g></g><g transform="matrix(.62442 0 0 -.62816 -319.82 326.012)" clip-path="url(#bc)"><g mask="url(#bd)"><path d="M517.76 512.86c.808-.156 11.164-8.444 11.192-8.466l-10.965 8.799z" fill="url(#be)"/></g></g><path d="M0 0s-5.613 0-5.613-5.613v-26.192s0-5.612 5.613-5.612h26.192s5.613 0 5.613 5.612v26.192S31.805 0 26.192 0z" fill="none" stroke="#231f20" stroke-width=".66" transform="matrix(.62442 0 0 -.62816 5.044 1.442)"/></svg>