<svg xmlns="http://www.w3.org/2000/svg" width="100" height="100" viewBox="0 0 26.458 26.458"><defs><linearGradient x1="0" y1="0" x2="1" y2="0" gradientUnits="userSpaceOnUse" gradientTransform="matrix(0 9.79122 9.79122 0 533.37 437.447)" spreadMethod="pad" id="s"><stop offset="0" stop-color="#66aac6"/><stop offset="1" stop-color="#66aac6"/></linearGradient><linearGradient x1="0" y1="0" x2="1" y2="0" gradientUnits="userSpaceOnUse" gradientTransform="matrix(0 29.66712 29.66712 0 533.322 437.95)" spreadMethod="pad" id="l"><stop offset="0" stop-color="#dbe6ea"/><stop offset=".531" stop-color="#d6e3e9"/><stop offset=".781" stop-color="#66aac6"/><stop offset="1" stop-color="#66aac6"/></linearGradient><linearGradient x1="0" y1="0" x2="1" y2="0" gradientUnits="userSpaceOnUse" gradientTransform="matrix(0 31.66257 31.66257 0 533.322 436.952)" spreadMethod="pad" id="j"><stop offset="0" stop-color="#66aac6"/><stop offset=".219" stop-color="#66aac6"/><stop offset=".469" stop-color="#d6e3e9"/><stop offset="1" stop-color="#dbe6ea"/></linearGradient><linearGradient x1="0" y1="0" x2="1" y2="0" gradientUnits="userSpaceOnUse" gradientTransform="scale(14.13834 -14.13834) rotate(30.001 79.754 52.937)" spreadMethod="pad" id="o"><stop offset="0" stop-color="#fff"/><stop offset="1" stop-color="#fff"/></linearGradient><linearGradient x1="0" y1="0" x2="1" y2="0" gradientUnits="userSpaceOnUse" gradientTransform="scale(14.13834 -14.13834) rotate(30.001 79.754 52.937)" spreadMethod="pad" id="d"><stop offset="0" stop-color="#fff"/><stop offset="1" stop-opacity="0" stop-color="#fff"/></linearGradient><linearGradient x1="0" y1="0" x2="1" y2="0" gradientUnits="userSpaceOnUse" gradientTransform="matrix(37.41734 0 0 -37.41734 514.658 453.06)" spreadMethod="pad" id="i"><stop offset="0" stop-color="#ed1c24"/><stop offset="1" stop-color="#200"/></linearGradient><linearGradient x1="0" y1="0" x2="1" y2="0" gradientUnits="userSpaceOnUse" gradientTransform="matrix(0 9.79122 9.79122 0 533.37 437.447)" spreadMethod="pad" id="f"><stop offset="0" stop-opacity="0" stop-color="#fff"/><stop offset="1" stop-opacity=".4" stop-color="#fff"/></linearGradient><linearGradient x1="0" y1="0" x2="1" y2="0" gradientUnits="userSpaceOnUse" gradientTransform="matrix(-2.26839 1.38603 3.48824 1.13996 540.094 446.195)" spreadMethod="pad" id="z"><stop offset="0" stop-color="#fff"/><stop offset="1" stop-color="#fff"/></linearGradient><linearGradient x1="0" y1="0" x2="1" y2="0" gradientUnits="userSpaceOnUse" gradientTransform="matrix(-2.26839 1.38603 3.48824 1.13996 540.094 446.195)" spreadMethod="pad" id="b"><stop offset="0" stop-color="#fff"/><stop offset="1" stop-opacity="0" stop-color="#fff"/></linearGradient><linearGradient x1="0" y1="0" x2="1" y2="0" gradientUnits="userSpaceOnUse" gradientTransform="matrix(-2.7554 1.5401 3.33108 1.0432 528.898 446.14)" spreadMethod="pad" id="w"><stop offset="0" stop-color="#fff"/><stop offset="1" stop-color="#fff"/></linearGradient><linearGradient x1="0" y1="0" x2="1" y2="0" gradientUnits="userSpaceOnUse" gradientTransform="matrix(-2.7554 1.5401 3.33108 1.0432 528.898 446.14)" spreadMethod="pad" id="h"><stop offset="0" stop-color="#fff"/><stop offset="1" stop-opacity="0" stop-color="#fff"/></linearGradient><clipPath clipPathUnits="userSpaceOnUse" id="a"><path d="M-13903.2 14851.7H14932v-28835.2h-28835.2z"/></clipPath><clipPath clipPathUnits="userSpaceOnUse" id="k"><path d="M520.271 471.768s-5.612 0-5.612-5.612v-26.195c.001-.171.087-5.61 5.612-5.61h26.192s5.612 0 5.612 5.613v26.192s0 5.612-5.612 5.612z"/></clipPath><clipPath clipPathUnits="userSpaceOnUse" id="x"><path d="M538.474 447.362c-1.333-.079-2.101-.048-2.078-.45.025-.401 1.149-1.062 2.483-.984 1.333.08 2.371.868 2.347 1.269-.012.203-.372.263-.896.263-.516 0-1.194-.058-1.856-.098"/></clipPath><clipPath clipPathUnits="userSpaceOnUse" id="c"><path d="M-32768 32767h65535v-65535h-65535z"/></clipPath><clipPath clipPathUnits="userSpaceOnUse" id="m"><path d="M528.252 465.461c-4.283-2.494-6.33-6.961-4.574-9.978 1.757-3.017 6.654-3.442 10.936-.947 4.283 2.495 6.331 6.961 4.574 9.978-.987 1.696-2.966 2.572-5.27 2.572-1.797 0-3.79-.532-5.666-1.625"/></clipPath><clipPath clipPathUnits="userSpaceOnUse" id="p"><path d="M520.271 471.768s-5.612 0-5.612-5.612v-26.195c.001-.171.087-5.61 5.612-5.61h26.192s5.612 0 5.612 5.613v26.192s0 5.612-5.612 5.612z"/></clipPath><clipPath clipPathUnits="userSpaceOnUse" id="e"><path d="M-13903.2 14851.7H14932v-28835.2h-28835.2z"/></clipPath><clipPath clipPathUnits="userSpaceOnUse" id="q"><path d="M533.719 446.783c-.042.018.305-1.645.208-2.588-.065-.617-.58-.655-.607-.642 0 0-.64.232-.695.844-.087.949.386 2.426.296 2.386-1.181-.516-7.482-2.331-10.208.265 0 0 .672-3.256 4.736-2.134 0 0-1.388-2.573-1.205-3.571 0 0 1.583-3.638 7.08-3.894 0 0 4.934-.189 6.829 3.719 0 0 .061 2.294-.745 3.468 0 0 3.703.278 4.619 2.603 0 0-3.299-3.337-10.308-.456"/></clipPath><clipPath clipPathUnits="userSpaceOnUse" id="t"><path d="M520.271 471.768s-5.612 0-5.612-5.612v-26.195c.001-.171.087-5.61 5.612-5.61h26.192s5.612 0 5.612 5.613v26.192s0 5.612-5.612 5.612z"/></clipPath><clipPath clipPathUnits="userSpaceOnUse" id="u"><path d="M525.079 447.177c-.021-.402 1.026-1.181 2.361-1.249 1.333-.067 2.45.604 2.47 1.007.021.401-1.382.396-2.716.462-.585.03-1.06.069-1.41.069-.45 0-.694-.063-.705-.289"/></clipPath><clipPath clipPathUnits="userSpaceOnUse" id="g"><path d="M-13903.2 14851.7H14932v-28835.2h-28835.2z"/></clipPath><mask maskUnits="userSpaceOnUse" x="0" y="0" width="1" height="1" id="y"><g clip-path="url(#a)"><path d="M538.072 444.812l-3.416 2.087 4.894 1.6 3.417-2.088z" fill="url(#b)"/></g></mask><mask maskUnits="userSpaceOnUse" x="0" y="0" width="1" height="1" id="n"><g clip-path="url(#c)"><path d="M526.677 475.324l20.783-11.999-11.271-19.521-20.782 11.999z" fill="url(#d)"/></g></mask><mask maskUnits="userSpaceOnUse" x="0" y="0" width="1" height="1" id="r"><g clip-path="url(#e)"><path d="M522.713 447.239h21.314v-9.978h-21.314z" fill="url(#f)"/></g></mask><mask maskUnits="userSpaceOnUse" x="0" y="0" width="1" height="1" id="v"><g clip-path="url(#g)"><path d="M526.808 444.883l-3.589 2.006 4.962 1.554 3.589-2.006z" fill="url(#h)"/></g></mask></defs><path d="M520.271 471.768s-5.612 0-5.612-5.612v-26.195c.001-.171.087-5.61 5.612-5.61h26.192s5.612 0 5.612 5.613v26.192s0 5.612-5.612 5.612z" fill="url(#i)" transform="matrix(.6244 0 0 -.62815 -319.81 297.78)"/><path d="M0 0c0 6.632-5.368 12.008-11.99 12.008S-23.98 6.632-23.98 0c0-1.504.279-2.943.783-4.27-.495-1.495-.783-2.946-.783-3.824 0-2.43 2.198-4.4 4.91-4.4l.063.002c-.356-1.036-.554-1.952-.554-2.564 0-2.539 3.389-4.598 7.571-4.598s7.572 2.059 7.572 4.598c0 .612-.198 1.528-.555 2.564l.063-.002c2.712 0 4.91 1.97 4.91 4.4 0 .878-.288 2.329-.783 3.824C-.279-2.943 0-1.504 0 0z" fill="none" stroke="#ed1c24" stroke-width="1.32" transform="matrix(.6244 0 0 -.62815 20.687 10.962)"/><path d="M0 0c-3.564 0-6.574 1.649-6.574 3.601 0 .491.187 1.328.501 2.24l.464 1.35-1.451-.029-.053-.003c-2.124.001-3.879 1.527-3.879 3.404 0 .788.287 2.166.733 3.509l.111.337-.126.332a10.988 10.988 0 00-.718 3.915c0 6.072 4.931 11.011 10.992 11.011 6.061 0 10.992-4.939 10.992-11.011 0-1.344-.242-2.661-.718-3.915l-.126-.332.111-.337c.446-1.343.733-2.721.733-3.509 0-1.877-1.755-3.403-3.912-3.403l-.043.003-1.428.028.464-1.35c.314-.912.501-1.749.501-2.24C6.574 1.649 3.564 0 0 0z" fill="none" stroke="#ed1c24" stroke-width="1.32" transform="matrix(.6244 0 0 -.62815 13.2 22.68)"/><path d="M0 0c1.757-3.017-.29-7.484-4.574-9.978-4.282-2.495-9.179-2.07-10.935.947-1.758 3.016.29 7.483 4.573 9.978C-6.654 3.441-1.757 3.017 0 0z" fill="none" stroke="#ed1c24" stroke-width="1.32" transform="matrix(.6244 0 0 -.62815 16.864 5.994)"/><path d="M0 0c.262 1.865 2.042.491 3.893.231 1.849-.259 3.443.198 3.181-1.668-.262-1.864-1.973-3.166-3.823-2.907C1.401-4.084-.261-1.865 0 0z" fill="none" stroke="#ed1c24" stroke-width="1.32" transform="matrix(.6244 0 0 -.62815 7.664 13.88)"/><path d="M0 0c-.103 1.881-1.994.662-3.859.56-1.865-.102-3.414.488-3.311-1.392.103-1.881 1.698-3.322 3.563-3.221C-1.742-3.951.102-1.88 0 0z" fill="none" stroke="#ed1c24" stroke-width="1.32" transform="matrix(.6244 0 0 -.62815 18.827 14.063)"/><path d="M0 0s.672-3.256 4.736-2.134c0 0-1.388-2.573-1.205-3.571 0 0 1.582-3.637 7.079-3.894 0 0 4.935-.188 6.83 3.72 0 0 .061 2.294-.746 3.467 0 0 3.704.278 4.62 2.603 0 0-3.299-3.337-10.308-.455-.043.018.305-1.646.207-2.588-.064-.618-.579-.656-.606-.642 0 0-.64.232-.695.844-.086.949.386 2.426.295 2.386C9.027-.78 2.725-2.596 0 0z" fill="none" stroke="#ed1c24" stroke-width="1.32" transform="matrix(.6244 0 0 -.62815 6.577 16.966)"/><path d="M0 0s.024 2.185.904 3.341" fill="none" stroke="#ed1c24" stroke-width="1.32" transform="matrix(.6244 0 0 -.62815 8.97 21.709)"/><path d="M0 0s.082 2.371.467 3.691" fill="none" stroke="#ed1c24" stroke-width="1.32" transform="matrix(.6244 0 0 -.62815 10.66 22.868)"/><path d="M0 0s-.024 2.185-.904 3.341" fill="none" stroke="#ed1c24" stroke-width="1.32" transform="matrix(.6244 0 0 -.62815 17.467 21.58)"/><path d="M0 0s-.082 2.371-.467 3.691" fill="none" stroke="#ed1c24" stroke-width="1.32" transform="matrix(.6244 0 0 -.62815 15.777 22.739)"/><path d="M0 0s.009 3.303 0 3.769" fill="none" stroke="#ed1c24" stroke-width="1.32" transform="matrix(.6244 0 0 -.62815 13.2 23.307)"/><path d="M0 0c-.334 0-.001-1.677-.001-2.625 0-.02-.003-.034-.004-.053-.435-.51-.752-.058-.789-.002 0 .019-.004.034-.004.055C-.798-1.677-.465 0-.799 0s-.906-1.677-.906-2.625c0-.95.875-1.115 1.209-1.115.074 0 .095.01.091.033a.05.05 0 00.007-.006l.006.002c0-.019.021-.029.09-.029.333 0 1.209.165 1.209 1.115C.907-1.677.333 0 0 0z" fill="none" stroke="#ed1c24" stroke-width="1.32" transform="matrix(.6244 0 0 -.62815 13.449 17.132)"/><path d="M0 0c.02.402.781.288 2.115.221C3.449.154 4.852.159 4.832-.242c-.02-.403-1.137-1.074-2.471-1.006C1.026-1.181-.02-.402 0 0z" fill="none" stroke="#ed1c24" stroke-width="1.32" transform="matrix(.6244 0 0 -.62815 8.054 16.885)"/><path d="M0 0c-.024.402.744.371 2.078.45C3.411.529 4.806.687 4.829.286 4.853-.117 3.817-.905 2.483-.983 1.149-1.062.024-.401 0 0z" fill="none" stroke="#ed1c24" stroke-width="1.32" transform="matrix(.6244 0 0 -.62815 15.12 17.051)"/><path d="M521.331 456.607c0-1.505.279-2.943.784-4.271-.495-1.494-.784-2.945-.784-3.823 0-2.43 2.199-4.401 4.911-4.401.02 0 .041.003.063.003-.357-1.037-.555-1.952-.555-2.564 0-2.54 3.39-4.598 7.572-4.598 4.181 0 7.571 2.058 7.571 4.598 0 .612-.198 1.527-.555 2.564.022 0 .042-.003.063-.003 2.712 0 4.911 1.971 4.911 4.401 0 .878-.289 2.329-.784 3.823.505 1.328.784 2.766.784 4.271 0 6.632-5.369 12.008-11.99 12.008-6.622 0-11.991-5.376-11.991-12.008" fill="url(#j)" transform="matrix(.6244 0 0 -.62815 -319.81 297.78)"/><g clip-path="url(#k)" transform="matrix(.6244 0 0 -.62815 -319.81 297.78)"><path d="M545.312 456.607c0 6.632-5.368 12.008-11.99 12.008s-11.99-5.376-11.99-12.008c0-1.504.279-2.943.783-4.27-.495-1.495-.783-2.946-.783-3.824 0-2.43 2.198-4.4 4.91-4.4l.063.002c-.356-1.036-.554-1.952-.554-2.564 0-2.54 3.389-4.598 7.57-4.598 4.182 0 7.572 2.059 7.572 4.598 0 .612-.198 1.528-.555 2.564l.064-.002c2.712 0 4.91 1.97 4.91 4.4 0 .878-.288 2.329-.783 3.824.504 1.327.783 2.766.783 4.27z" fill="none" stroke="#231f20" stroke-width=".44" stroke-miterlimit="500"/></g><path d="M522.329 456.607c0-1.345.242-2.663.719-3.916l.126-.332-.112-.337c-.446-1.343-.733-2.72-.733-3.509 0-1.876 1.755-3.403 3.88-3.404l.052.004 1.452.028-.464-1.35c-.314-.912-.501-1.748-.501-2.24 0-1.951 3.011-3.601 6.574-3.601 3.563 0 6.573 1.65 6.573 3.601 0 .492-.188 1.328-.501 2.24l-.464 1.35 1.428-.028.043-.003c2.158 0 3.913 1.527 3.913 3.403 0 .789-.287 2.166-.733 3.509l-.112.337.126.332c.477 1.254.719 2.571.719 3.916 0 6.071-4.931 11.01-10.992 11.01-6.062 0-10.993-4.939-10.993-11.01" fill="url(#l)" transform="matrix(.6244 0 0 -.62815 -319.81 297.78)"/><g clip-path="url(#m)" transform="matrix(.6244 0 0 -.62815 -319.81 297.78)"><g mask="url(#n)"><path d="M528.252 465.461c-4.283-2.494-6.33-6.961-4.574-9.978 1.757-3.017 6.654-3.442 10.936-.947 4.283 2.495 6.331 6.961 4.574 9.978-.987 1.696-2.966 2.572-5.27 2.572-1.797 0-3.79-.532-5.666-1.625" fill="url(#o)"/></g></g><g clip-path="url(#p)" transform="matrix(.6244 0 0 -.62815 -319.81 297.78)"><path d="M524.454 451.962c.262 1.865 2.042.491 3.893.231 1.85-.259 3.443.198 3.181-1.668-.262-1.864-1.973-3.166-3.823-2.907-1.85.26-3.512 2.48-3.25 4.344m17.877-.292c-.103 1.88-1.994.662-3.86.56-1.864-.102-3.413.488-3.31-1.392.103-1.881 1.698-3.322 3.563-3.221 1.865.102 3.709 2.173 3.607 4.053" fill="#231f20"/></g><g clip-path="url(#q)" transform="matrix(.6244 0 0 -.62815 -319.81 297.78)"><g mask="url(#r)"><path d="M533.719 446.783c-.042.018.305-1.645.208-2.588-.065-.617-.58-.655-.607-.642 0 0-.64.232-.695.844-.087.949.386 2.426.296 2.386-1.181-.516-7.482-2.331-10.208.265 0 0 .672-3.256 4.736-2.134 0 0-1.388-2.573-1.205-3.571 0 0 1.583-3.638 7.08-3.894 0 0 4.934-.189 6.829 3.719 0 0 .061 2.294-.745 3.468 0 0 3.703.278 4.619 2.603 0 0-3.299-3.337-10.308-.456" fill="url(#s)"/></g></g><g clip-path="url(#t)" transform="matrix(.6244 0 0 -.62815 -319.81 297.78)"><path d="M526.545 439.498s.024 2.185.904 3.34m1.802-5.186s.082 2.371.467 3.691m10.435-1.64s-.024 2.185-.904 3.341m-1.802-5.186s-.082 2.371-.467 3.691m-3.66-4.597s.009 3.303 0 3.77" fill="none" stroke="#231f20" stroke-width=".44" stroke-linecap="round" stroke-miterlimit="500"/><path d="M533.72 446.784c-.335 0-.002-1.677-.002-2.625 0-.02-.003-.034-.004-.053-.435-.51-.752-.058-.789-.002 0 .019-.004.034-.004.055 0 .948.333 2.625 0 2.625-.335 0-.907-1.677-.907-2.625 0-.95.875-1.115 1.21-1.115.073 0 .094.01.09.033a.05.05 0 00.007-.006l.006.002c0-.019.021-.029.09-.029.333 0 1.21.165 1.21 1.115 0 .948-.575 2.625-.908 2.625" fill="#231f20"/></g><g clip-path="url(#u)" transform="matrix(.6244 0 0 -.62815 -319.81 297.78)"><g mask="url(#v)"><path d="M525.079 447.177c-.021-.402 1.026-1.181 2.361-1.249 1.333-.067 2.45.604 2.47 1.007.021.401-1.382.396-2.716.462-.585.03-1.06.069-1.41.069-.45 0-.694-.063-.705-.289" fill="url(#w)"/></g></g><g clip-path="url(#x)" transform="matrix(.6244 0 0 -.62815 -319.81 297.78)"><g mask="url(#y)"><path d="M538.474 447.362c-1.333-.079-2.101-.048-2.078-.45.025-.401 1.149-1.062 2.483-.984 1.333.08 2.371.868 2.347 1.269-.012.203-.372.263-.896.263-.516 0-1.194-.058-1.856-.098" fill="url(#z)"/></g></g><path d="M0 0s-5.613 0-5.613-5.613v-26.192s0-5.612 5.613-5.612h26.192s5.613 0 5.613 5.612v26.192S31.805 0 26.192 0z" fill="none" stroke="#231f20" stroke-width=".66" transform="matrix(.6244 0 0 -.62815 5.052 1.438)"/></svg>