<svg width="100" height="100" viewBox="0 0 26.458 26.458" xmlns="http://www.w3.org/2000/svg"><defs><clipPath id="e"><path d="M474.14 512.12l4.49 4.49 4.49-4.49-4.49-4.49z"/></clipPath><clipPath id="ae"><path d="M487.91 508.02h-11.537l-.407-15.727c0-3.31 11.944-10.245 11.944-10.245s11.945 6.935 11.945 10.245l-.407 15.727z"/></clipPath><clipPath id="n"><path d="M485 509.28l13.528-7.81-7.161-12.403-13.528 7.81z"/></clipPath><clipPath id="aw"><path d="M488.25 503.77v-.001c1.562-3.421 6.299-4.683 6.299-4.683v3.009c-2.189.302-3.015 1.675-3.015 1.675z"/></clipPath><clipPath id="B"><path d="M-13949 14897h28835v-28835h-28835z"/></clipPath><clipPath id="C"><path d="M489.82 506.5l6.753-3.899-3.603-6.241-6.753 3.899z"/></clipPath><clipPath id="au"><path d="M481.69 503.77l-.408-10.308c.756-.884 3.113-2.883 6.631-5.17 3.519 2.286 5.876 4.286 6.632 5.17l-.407 10.308z"/></clipPath><clipPath id="as"><path d="M480.77 504.59l-.408-11.392c.699-.974 3.495-3.341 7.555-5.926 4.062 2.584 6.858 4.952 7.557 5.925l-.409 11.393z"/></clipPath><clipPath id="ap"><path d="M476.89 498.54v-3.429c3.386-6.438 9.388-10.517 9.388-10.517l1.632-1.003 3.617 2.301c-9.551 4.332-14.637 12.648-14.637 12.648z"/></clipPath><clipPath id="t"><path d="M484.63 508.1l15.036-8.681-8.59-14.877-15.035 8.681z"/></clipPath><clipPath id="y"><path d="M-32768 32767h65535v-65535h-65535z"/></clipPath><clipPath id="z"><path d="M480.55 504.88L498 494.805l-10.131-17.549-17.45 10.075z"/></clipPath><clipPath id="am"><path d="M487.23 507.19c.007-.019 3.017-7.723 11.536-8.65l-.125 4.598s-4.756-1.39-9.51 4.052z"/></clipPath><clipPath id="s"><path d="M-13949 14897h28835v-28835h-28835z"/></clipPath><clipPath id="v"><path d="M-13949 14897h28835v-28835h-28835z"/></clipPath><clipPath id="w"><path d="M490.11 512.19l12.398-7.158-6.63-11.483-12.398 7.158z"/></clipPath><clipPath id="aj"><path d="M477.3 507.19l-.143-3.855s4.414-10.285 18.312-14.516l.06-.018-.06.018s2.559 1.842 3.011 3.652c.454 1.809 0 .174 0 .174s-17.094 9.207-18.724 13.87c0 0 12.826-10.707 19.178-12.717v1.625s-14.221 5.356-17.142 11.767zm21.642-13.394l-.008.002.008-.002m.017-.006l-.017.006a.107.107 0 01.017-.006m.005-.002l-.005.002.005-.002m.012-.003l-.012.003.012-.003m.015-.006l-.004.002.004-.002m.008-.001l-.008.001.008-.001m.019-.007l-.019.007a.23.23 0 01.019-.007m.006-.001l-.006.001.006-.001m.01-.004l-.01.004.01-.004m.004-.001l-.004.001.004-.001m.097-.03a4.71 4.71 0 00-.097.03c.029-.009.061-.02.097-.03m.004-.001l-.004.001.004-.001m.177-.057l-.177.057.177-.057m.146-.046a6.496 6.496 0 01-.146.046l.146-.046m.251-.079l-.251.079.251-.079c.001-.001.001-.001 0 0m-4.173-4.755l-.011.004.011-.004m.014-.004l-.014.004.014-.004h.002-.002m.018-.006l-.016.006.016-.006m.008-.003l-.008.003a.069.069 0 00.008-.003m.015-.004c-.005.002-.009.004-.015.004.006 0 .009-.002.015-.004m.006-.002a.014.014 0 01-.006.002l.006-.002m.014-.003l-.014.003c.005-.001.009-.003.014-.003m.036-.012l-.036.012.036-.012m.002-.001l-.002.001.002-.001m.004-.001l-.004.001.004-.001m.162-.048l-.162.048.162-.048m.012-.004l-.012.004.012-.004m.132-.041l-.132.041.132-.041m.004-.001l-.004.001.004-.001m.032-.009l-.032.009.032-.009m.239-.073l-.239.073.239-.073m.006-.002l-.006.002a.014.014 0 01.006-.002m.035-.011l-.035.011.035-.011m.086-.026l-.084.026.084-.026m-.086.026h.002-.002m.108-.032l-.022.006.022-.006m.049-.016l-.049.016.049-.016m.075-.022l-.075.022.075-.022m.06-.019l-.038.012.038-.012m.071-.022l-.071.022.071-.022m.029-.008l-.029.008.029-.008m.025-.007l-.025.007.025-.007m.163-.05l-.163.05.163-.05m.08-.024a1.466 1.466 0 00-.062.019l.062-.019m.023-.007l-.023.007.023-.007m.031-.01l-.031.01.031-.01m.034-.01l-.016.005.016-.005m.087-.026l-.087.026.087-.026m.001-.001l-.001.001.001-.001m2.731-.832l-2.731.832 2.731-.832m.065-.019l-.065.019.065-.019m.031-.01l-.031.01.031-.01m.006-.002l-.006.002.006-.002m.009-.003l-.009.003.009-.003m.055-.016l-.055.016.055-.016m.002-.001l-.002.001.002-.001m1.63-.496l-1.63.496 1.63-.496"/></clipPath><clipPath id="aC"><path d="M481.41 496.62c3.45-4.587 9.179-6.498 9.179-6.498l3.715 3.069c-6.713.369-12.661 9.323-12.661 9.323z"/></clipPath><clipPath id="a"><path d="M-13949 14897h28835v-28835h-28835z"/></clipPath><clipPath id="b"><path d="M484.82 520.46l32.566-18.802-17.243-29.865-32.566 18.801z"/></clipPath><clipPath id="ah"><path d="M477.3 507.19l-.408-14.902c0-1.905 6.281-6.446 11.02-9.257 4.742 2.81 11.022 7.351 11.022 9.257l-.408 14.902z"/></clipPath><clipPath id="ag"><path d="M474.75 516.67s-5.612 0-5.612-5.612v-26.196c.001-.171.087-5.609 5.612-5.609h26.192s5.613 0 5.613 5.612v26.193s0 5.612-5.613 5.612z"/></clipPath><clipPath id="m"><path d="M-13949 14897h28835v-28835h-28835z"/></clipPath><clipPath id="ad"><path d="M474.75 516.67s-5.612 0-5.612-5.612v-26.196c.001-.171.087-5.609 5.612-5.609h26.192s5.613 0 5.613 5.612v26.193s0 5.612-5.613 5.612z"/></clipPath><clipPath id="aa"><path d="M469.8 513.95a5.236 5.236 0 01-.258-.554c2.257-1.022 2.252-3.104 2.252-3.104v3.658z"/></clipPath><clipPath id="E"><path d="M-13949 14897h28835v-28835h-28835z"/></clipPath><clipPath id="F"><path d="M467.43 512.12l3.098 3.097 3.097-3.097-3.097-3.097z"/></clipPath><clipPath id="X"><path d="M503.55 513.95c.983-.006 1.779-.139 2.425-.351a5.878 5.878 0 01-.168.351zm-.057 0h-.058.115z"/></clipPath><clipPath id="H"><path d="M474.75 516.67s-5.612 0-5.612-5.612v-26.196c.001-.171.087-5.609 5.612-5.609h26.192s5.613 0 5.613 5.612v26.193s0 5.612-5.613 5.612z"/></clipPath><clipPath id="j"><path d="M-32768 32767h65535v-65535h-65535z"/></clipPath><clipPath id="k"><path d="M503.17 513.68l1.773 1.773 1.773-1.773-1.773-1.773z"/></clipPath><clipPath id="U"><path d="M494.53 513.95c5.207-.027 5.198-3.658 5.198-3.658v3.658zm-.056 0h-.059.115z"/></clipPath><clipPath id="g"><path d="M-13949 14897h28835v-28835h-28835z"/></clipPath><clipPath id="h"><path d="M492.59 512.12l4.49 4.49 4.49-4.49-4.49-4.49z"/></clipPath><clipPath id="R"><path d="M485.37 513.95c5.207-.027 5.197-3.658 5.197-3.658v3.658zm-.057 0h-.058.115z"/></clipPath><clipPath id="J"><path d="M503.07 514.27v-3.978h-2.951v3.978h-6.142v-3.978h-3.062v3.978h-6.143v-3.978h-3.062v3.978h-6.143v-3.978h-3.361v3.978h-2.217c-.513-.785-.854-1.828-.854-3.21v-26.196c.001-.171.087-5.609 5.612-5.609h26.192s5.613 0 5.613 5.612v26.193s0 1.686-.924 3.21z"/></clipPath><clipPath id="p"><path d="M-32768 32767h65535v-65535h-65535z"/></clipPath><clipPath id="q"><path d="M483.43 512.12l4.49 4.49 4.491-4.49-4.491-4.49z"/></clipPath><clipPath id="O"><path d="M476.09 513.95c5.206-.027 5.196-3.658 5.196-3.658v3.658zm-.058 0h-.059.117z"/></clipPath><clipPath id="N"><path d="M463.64 476.55h51.306v37.381H463.64z"/></clipPath><clipPath id="d"><path d="M-32768 32767h65535v-65535h-65535z"/></clipPath><clipPath id="az"><path d="M481.81 503.77s5.314-7.914 12.733-9.187v1.679s-7.25 1.43-11.189 7.508z"/></clipPath><clipPath id="L"><path d="M474.75 516.67s-5.612 0-5.612-5.612v-26.196c.001-.171.087-5.609 5.612-5.609h26.192s5.613 0 5.613 5.612v26.193s0 5.612-5.613 5.612z"/></clipPath><clipPath id="M"><path d="M463.64 513.93h51.306v-37.381H463.64z"/></clipPath><linearGradient id="T" x2="1" gradientTransform="matrix(2.6564 2.6564 2.6564 -2.6564 487.5 511.7)" gradientUnits="userSpaceOnUse"><stop stop-color="#00567f" offset="0"/><stop stop-color="#00567f" offset="1"/></linearGradient><linearGradient id="G" x2="1" gradientTransform="matrix(2.6564 2.6564 2.6564 -2.6564 468.72 511.7)" gradientUnits="userSpaceOnUse"><stop stop-color="#fff" stop-opacity="0" offset="0"/><stop stop-color="#fff" stop-opacity=".7" offset="1"/></linearGradient><linearGradient id="ao" x2="1" gradientTransform="scale(14.316 -14.316) rotate(30 83.08 45.78)" gradientUnits="userSpaceOnUse"><stop stop-color="#fff" offset="0"/><stop stop-color="#fff" offset="1"/></linearGradient><linearGradient id="o" x2="1" gradientTransform="scale(15.6207 -15.6207) rotate(29.999 75.504 41.405)" gradientUnits="userSpaceOnUse"><stop stop-color="#fff" stop-opacity=".8" offset="0"/><stop stop-color="#fff" stop-opacity="0" offset=".829"/><stop stop-color="#fff" stop-opacity="0" offset="1"/></linearGradient><linearGradient id="aB" x2="1" gradientTransform="scale(15.6207 -15.6207) rotate(29.999 75.504 41.405)" gradientUnits="userSpaceOnUse"><stop stop-color="#fff" offset="0"/><stop stop-color="#fff" offset=".829"/><stop stop-color="#fff" offset="1"/></linearGradient><linearGradient id="D" x2="1" gradientTransform="scale(7.797 -7.797) rotate(30 151.925 84.558)" gradientUnits="userSpaceOnUse"><stop stop-color="#fff" stop-opacity=".8" offset="0"/><stop stop-color="#fff" stop-opacity="0" offset=".713"/><stop stop-color="#fff" stop-opacity="0" offset="1"/></linearGradient><linearGradient id="l" x2="1" gradientTransform="scale(3.7566 -3.7566) rotate(-45 -97.12 -230.598)" gradientUnits="userSpaceOnUse"><stop stop-color="#fff" stop-opacity="0" offset="0"/><stop stop-color="#fff" stop-opacity=".7" offset="1"/></linearGradient><linearGradient id="Z" x2="1" gradientTransform="scale(3.7566 -3.7566) rotate(-45 -97.12 -230.598)" gradientUnits="userSpaceOnUse"><stop stop-color="#00567f" offset="0"/><stop stop-color="#00567f" offset="1"/></linearGradient><linearGradient id="ay" x2="1" gradientTransform="scale(7.797 -7.797) rotate(30 151.925 84.558)" gradientUnits="userSpaceOnUse"><stop stop-color="#fff" offset="0"/><stop stop-color="#fff" offset=".713"/><stop stop-color="#fff" offset="1"/></linearGradient><linearGradient id="K" x2="1" gradientTransform="matrix(0 35.015 35.015 0 486.9 479.25)" gradientUnits="userSpaceOnUse"><stop stop-color="#11578b" offset="0"/><stop stop-color="#11578b" offset=".245"/><stop stop-color="#061726" offset="1"/></linearGradient><linearGradient id="c" x2="1" gradientTransform="scale(31.21 -31.21) rotate(30.001 37.808 20.368)" gradientUnits="userSpaceOnUse"><stop stop-color="#fff" stop-opacity=".8" offset="0"/><stop stop-color="#fff" stop-opacity="0" offset="1"/></linearGradient><linearGradient id="al" x2="1" gradientTransform="scale(31.21 -31.21) rotate(30.001 37.808 20.368)" gradientUnits="userSpaceOnUse"><stop stop-color="#fff" offset="0"/><stop stop-color="#fff" offset="1"/></linearGradient><linearGradient id="i" x2="1" gradientTransform="scale(3.7566 -3.7566) rotate(-45 -98.32 -227.7)" gradientUnits="userSpaceOnUse"><stop stop-color="#fff" stop-opacity="0" offset="0"/><stop stop-color="#fff" stop-opacity=".7" offset="1"/></linearGradient><linearGradient id="W" x2="1" gradientTransform="scale(3.7566 -3.7566) rotate(-45 -98.32 -227.7)" gradientUnits="userSpaceOnUse"><stop stop-color="#00567f" offset="0"/><stop stop-color="#00567f" offset="1"/></linearGradient><linearGradient id="A" x2="1" gradientTransform="scale(18.9995 -18.9995) rotate(30 61.148 33.619)" gradientUnits="userSpaceOnUse"><stop stop-color="#fff" stop-opacity=".8" offset="0"/><stop stop-color="#fff" stop-opacity="0" offset="1"/></linearGradient><linearGradient id="ai" x2="1" gradientTransform="scale(26.36 -26.36) rotate(30 44.78 24.12)" gradientUnits="userSpaceOnUse"><stop stop-color="#6a7379" offset="0"/><stop stop-color="#c4dde6" offset=".6"/><stop stop-color="#c4dde6" offset="1"/></linearGradient><linearGradient id="ar" x2="1" gradientTransform="scale(18.9995 -18.9995) rotate(30 61.148 33.619)" gradientUnits="userSpaceOnUse"><stop stop-color="#fff" offset="0"/><stop stop-color="#fff" offset="1"/></linearGradient><linearGradient id="aE" x2="1" gradientTransform="scale(15.6254 -15.6254) rotate(30 75.031 41.333)" gradientUnits="userSpaceOnUse"><stop stop-color="#fff" offset="0"/><stop stop-color="#fff" offset=".898"/><stop stop-color="#fff" offset="1"/></linearGradient><linearGradient id="r" x2="1" gradientTransform="matrix(2.6564 2.6564 2.6564 -2.6564 487.5 511.7)" gradientUnits="userSpaceOnUse"><stop stop-color="#fff" stop-opacity="0" offset="0"/><stop stop-color="#fff" stop-opacity=".7" offset="1"/></linearGradient><linearGradient id="ac" x2="1" gradientTransform="matrix(2.6564 2.6564 2.6564 -2.6564 468.72 511.7)" gradientUnits="userSpaceOnUse"><stop stop-color="#00567f" offset="0"/><stop stop-color="#00567f" offset="1"/></linearGradient><linearGradient id="af" x2="1" gradientTransform="scale(28.456 -28.456) rotate(30 41.514 22.267)" gradientUnits="userSpaceOnUse"><stop stop-color="#c4dde6" offset="0"/><stop stop-color="#6a7379" offset="1"/></linearGradient><linearGradient id="av" x2="1" gradientTransform="scale(16.286 -16.286) rotate(30.001 72.275 39.66)" gradientUnits="userSpaceOnUse"><stop stop-color="#6a7379" offset="0"/><stop stop-color="#c4dde6" offset=".585"/><stop stop-color="#c4dde6" offset="1"/></linearGradient><linearGradient id="u" x2="1" gradientTransform="scale(15.6254 -15.6254) rotate(30 75.031 41.333)" gradientUnits="userSpaceOnUse"><stop stop-color="#fff" stop-opacity=".8" offset="0"/><stop stop-color="#fff" stop-opacity="0" offset=".898"/><stop stop-color="#fff" stop-opacity="0" offset="1"/></linearGradient><linearGradient id="I" x2="1" gradientTransform="matrix(37.417 0 0 -37.417 469.13 497.96)" gradientUnits="userSpaceOnUse"><stop stop-color="#69cff6" offset="0"/><stop stop-color="#00adef" offset="1"/></linearGradient><linearGradient id="f" x2="1" gradientTransform="scale(3.757 -3.757) rotate(-45 -100.764 -221.746)" gradientUnits="userSpaceOnUse"><stop stop-color="#fff" stop-opacity="0" offset="0"/><stop stop-color="#fff" stop-opacity=".7" offset="1"/></linearGradient><linearGradient id="Q" x2="1" gradientTransform="scale(3.757 -3.757) rotate(-45 -100.764 -221.746)" gradientUnits="userSpaceOnUse"><stop stop-color="#00567f" offset="0"/><stop stop-color="#00567f" offset="1"/></linearGradient><linearGradient id="at" x2="1" gradientTransform="scale(18.43 -18.43) rotate(30 63.916 34.93)" gradientUnits="userSpaceOnUse"><stop stop-color="#c4dde6" offset="0"/><stop stop-color="#6a7379" offset="1"/></linearGradient><linearGradient id="x" x2="1" gradientTransform="scale(14.316 -14.316) rotate(30 83.08 45.78)" gradientUnits="userSpaceOnUse"><stop stop-color="#fff" stop-opacity=".8" offset="0"/><stop stop-color="#fff" stop-opacity="0" offset="1"/></linearGradient><mask id="S" x="0" y="0" width="1" height="1" maskUnits="userSpaceOnUse"><g clip-path="url(#p)"><g clip-path="url(#q)"><path d="M483.43 512.12l4.49 4.49 4.491-4.49-4.491-4.49z" fill="url(#r)"/></g></g></mask><mask id="ak" x="0" y="0" width="1" height="1" maskUnits="userSpaceOnUse"><g clip-path="url(#a)"><g clip-path="url(#b)"><path d="M484.82 520.46l32.566-18.802-17.243-29.865-32.566 18.801z" fill="url(#c)"/></g></g></mask><mask id="V" x="0" y="0" width="1" height="1" maskUnits="userSpaceOnUse"><g clip-path="url(#g)"><g clip-path="url(#h)"><path d="M492.59 512.12l4.49 4.49 4.49-4.49-4.49-4.49z" fill="url(#i)"/></g></g></mask><mask id="Y" x="0" y="0" width="1" height="1" maskUnits="userSpaceOnUse"><g clip-path="url(#j)"><g clip-path="url(#k)"><path d="M503.17 513.68l1.773 1.773 1.773-1.773-1.773-1.773z" fill="url(#l)"/></g></g></mask><mask id="aA" x="0" y="0" width="1" height="1" maskUnits="userSpaceOnUse"><g clip-path="url(#m)"><g clip-path="url(#n)"><path d="M485 509.28l13.528-7.81-7.161-12.403-13.528 7.81z" fill="url(#o)"/></g></g></mask><mask id="P" x="0" y="0" width="1" height="1" maskUnits="userSpaceOnUse"><g clip-path="url(#d)"><g clip-path="url(#e)"><path d="M474.14 512.12l4.49 4.49 4.49-4.49-4.49-4.49z" fill="url(#f)"/></g></g></mask><mask id="aD" x="0" y="0" width="1" height="1" maskUnits="userSpaceOnUse"><g clip-path="url(#s)"><g clip-path="url(#t)"><path d="M484.63 508.1l15.036-8.681-8.59-14.877-15.035 8.681z" fill="url(#u)"/></g></g></mask><mask id="an" x="0" y="0" width="1" height="1" maskUnits="userSpaceOnUse"><g clip-path="url(#v)"><g clip-path="url(#w)"><path d="M490.11 512.19l12.398-7.158-6.63-11.483-12.398 7.158z" fill="url(#x)"/></g></g></mask><mask id="aq" x="0" y="0" width="1" height="1" maskUnits="userSpaceOnUse"><g clip-path="url(#y)"><g clip-path="url(#z)"><path d="M480.55 504.88L498 494.805l-10.131-17.549-17.45 10.075z" fill="url(#A)"/></g></g></mask><mask id="ax" x="0" y="0" width="1" height="1" maskUnits="userSpaceOnUse"><g clip-path="url(#B)"><g clip-path="url(#C)"><path d="M489.82 506.5l6.753-3.899-3.603-6.241-6.753 3.899z" fill="url(#D)"/></g></g></mask><mask id="ab" x="0" y="0" width="1" height="1" maskUnits="userSpaceOnUse"><g clip-path="url(#E)"><g clip-path="url(#F)"><path d="M467.43 512.12l3.098 3.097 3.097-3.097-3.097-3.097z" fill="url(#G)"/></g></g></mask></defs><g transform="matrix(.62537 0 0 -.62537 -291.857 324.633)" clip-path="url(#H)"><path d="M474.75 516.67s-5.612 0-5.612-5.612v-26.196c.001-.171.087-5.609 5.612-5.609h26.192s5.613 0 5.613 5.612v26.193s0 5.612-5.613 5.612z" fill="url(#I)"/></g><g transform="matrix(.62537 0 0 -.62537 -291.857 324.633)" clip-path="url(#J)"><path d="M503.07 514.27v-3.978h-2.951v3.978h-6.142v-3.978h-3.062v3.978h-6.143v-3.978h-3.062v3.978h-6.143v-3.978h-3.361v3.978h-2.217c-.513-.785-.854-1.828-.854-3.21v-26.196c.001-.171.087-5.609 5.612-5.609h26.192s5.613 0 5.613 5.612v26.193s0 1.686-.924 3.21z" fill="url(#K)"/></g><g transform="matrix(.62537 0 0 -.62537 -291.857 324.633)" clip-path="url(#L)"><g clip-path="url(#M)"><g clip-path="url(#N)" fill="#00adef" opacity=".4"><path d="M478.66 506.24h-5.313v3.658h5.313zm2.66 4.03h-5.313v3.658h5.313zm-9.53 0h-5.313v3.658h5.313zm18.87 0h-5.313v3.658h5.313zm9.06 0h-5.313v3.658h5.313zm9.13 0h-5.313v3.658h5.313zm-36.22-3.97h-5.313v3.658h5.313zm18.03-.06h-5.313v3.658h5.313zm-6.03.06h-5.313v3.658h5.313zm18.03-.13h-5.313v3.658h5.313zm-6.03.07h-5.313v3.658h5.313zm11.97-.02h-5.313v3.658h5.313zm-33.62-4.16h-5.313v3.658h5.313zm12 0h-5.313v3.658h5.313zm-6.03.06h-5.313v3.658h5.313zm18.03-.13h-5.313v3.658h5.313zm-6.03.07h-5.313v3.658h5.313zm18-.08h-5.313v3.658h5.313zm-6.03.06h-5.313v3.658h5.313zm-26.26-4.22h-5.313v3.658h5.313zm-6.03.06h-5.313v3.658h5.313zm18.03-.06h-5.313v3.658h5.313zm-6.03.06h-5.313v3.658h5.313zm18.03-.12h-5.313v3.658h5.313zm-6.03.06h-5.313v3.658h5.313zm11.97-.02h-5.313v3.658h5.313zm-33.62-4.16h-5.313v3.658h5.313zm12 0h-5.313v3.658h5.313zm-6.03.06h-5.313v3.657h5.313zm18.03-.12h-5.313v3.658h5.313zm-6.03.06h-5.313v3.658h5.313zm18-.08h-5.313v3.658h5.313zm-6.03.06h-5.313v3.658h5.313zm-25.94-4.38h-5.313v3.658h5.313zm-6.03.06h-5.313v3.658h5.313zm18.03-.06h-5.314v3.658h5.314zm-6.04.06h-5.313v3.658h5.313zm18.03-.12h-5.313v3.658h5.313zm-6.03.06h-5.313v3.658h5.313zm11.97-.02h-5.313v3.658h5.313zm-33.62-4.16h-5.313v3.658h5.313zm-6.03.06h-5.313v3.658h5.313zm18.03-.06h-5.313v3.658h5.313zm-6.03.06h-5.313v3.658h5.313zm18.03-.12h-5.313v3.658h5.313zm-6.03.06h-5.314v3.658h5.314zm18-.08h-5.313v3.658h5.313zm-6.03.06h-5.313v3.658h5.313zm-26.4-4.23h-5.313v3.658h5.313zm-6.03.06h-5.313v3.658h5.313zm18.03-.06h-5.313v3.658h5.313zm-6.03.06h-5.313v3.658h5.313zm18.03-.12h-5.313v3.658h5.313zm-6.03.06h-5.313v3.658h5.313zm11.96-.02h-5.313v3.658h5.313zm-33.62-4.16h-5.313v3.658h5.313zm12 0h-5.313v3.658h5.313zm-6.03.06h-5.313v3.658h5.313zm18.03-.12h-5.313v3.658h5.313zm-6.03.06h-5.313v3.658h5.313zm18-.08h-5.313v3.658h5.313zm-6.03.06h-5.313v3.658h5.313z"/></g></g></g><g transform="matrix(.62537 0 0 -.62537 -291.857 324.633)" clip-path="url(#O)"><g mask="url(#P)"><path d="M476.09 513.95c5.206-.027 5.196-3.658 5.196-3.658v3.658zm-.058 0h-.059.117z" fill="url(#Q)"/></g></g><g transform="matrix(.62537 0 0 -.62537 -291.857 324.633)" clip-path="url(#R)"><g mask="url(#S)"><path d="M485.37 513.95c5.207-.027 5.197-3.658 5.197-3.658v3.658zm-.057 0h-.058.115z" fill="url(#T)"/></g></g><g transform="matrix(.62537 0 0 -.62537 -291.857 324.633)" clip-path="url(#U)"><g mask="url(#V)"><path d="M494.53 513.95c5.207-.027 5.198-3.658 5.198-3.658v3.658zm-.056 0h-.059.115z" fill="url(#W)"/></g></g><g transform="matrix(.62537 0 0 -.62537 -291.857 324.633)" clip-path="url(#X)"><g mask="url(#Y)"><path d="M503.55 513.95c.983-.006 1.779-.139 2.425-.351a5.878 5.878 0 01-.168.351zm-.057 0h-.058.115z" fill="url(#Z)"/></g></g><g transform="matrix(.62537 0 0 -.62537 -291.857 324.633)" clip-path="url(#aa)"><g mask="url(#ab)"><path d="M469.8 513.95a5.236 5.236 0 01-.258-.554c2.257-1.022 2.252-3.104 2.252-3.104v3.658z" fill="url(#ac)"/></g></g><g transform="matrix(.62537 0 0 -.62537 -291.857 324.633)" clip-path="url(#ad)"><path d="M487.91 508.02h-11.537l-.407-15.727c0-3.31 11.944-10.245 11.944-10.245s11.945 6.935 11.945 10.245l-.408 15.727z" fill="none" stroke="#9cdff9" stroke-miterlimit="10" stroke-width="2.2"/></g><g transform="matrix(.62537 0 0 -.62537 -291.857 324.633)" clip-path="url(#ae)"><path d="M487.91 508.02h-11.537l-.407-15.727c0-3.31 11.944-10.245 11.944-10.245s11.945 6.935 11.945 10.245l-.407 15.727z" fill="url(#af)"/></g><g transform="matrix(.62537 0 0 -.62537 -291.857 324.633)" clip-path="url(#ag)"><path d="M487.91 508.02h-11.537l-.407-15.727c0-3.31 11.944-10.245 11.944-10.245s11.945 6.935 11.945 10.245l-.408 15.727z" fill="none" stroke="#393536" stroke-miterlimit="10" stroke-width=".88"/></g><g transform="matrix(.62537 0 0 -.62537 -291.857 324.633)" clip-path="url(#ah)"><path d="M477.3 507.19l-.408-14.902c0-1.905 6.281-6.446 11.02-9.257 4.742 2.81 11.022 7.351 11.022 9.257l-.408 14.902z" fill="url(#ai)"/></g><g transform="matrix(.62537 0 0 -.62537 -291.857 324.633)" clip-path="url(#aj)"><g mask="url(#ak)"><path d="M477.3 507.19l-.143-3.855s4.414-10.285 18.312-14.516l.06-.018-.06.018s2.559 1.842 3.011 3.652c.454 1.809 0 .174 0 .174s-17.094 9.207-18.724 13.87c0 0 12.826-10.707 19.178-12.717v1.625s-14.221 5.356-17.142 11.767zm21.642-13.394l-.008.002.008-.002m.017-.006l-.017.006a.107.107 0 01.017-.006m.005-.002l-.005.002.005-.002m.012-.003l-.012.003.012-.003m.015-.006l-.004.002.004-.002m.008-.001l-.008.001.008-.001m.019-.007l-.019.007a.23.23 0 01.019-.007m.006-.001l-.006.001.006-.001m.01-.004l-.01.004.01-.004m.004-.001l-.004.001.004-.001m.097-.03a4.71 4.71 0 00-.097.03c.029-.009.061-.02.097-.03m.004-.001l-.004.001.004-.001m.177-.057l-.177.057.177-.057m.146-.046a6.496 6.496 0 01-.146.046l.146-.046m.251-.079l-.251.079.251-.079c.001-.001.001-.001 0 0m-4.173-4.755l-.011.004.011-.004m.014-.004l-.014.004.014-.004h.002-.002m.018-.006l-.016.006.016-.006m.008-.003l-.008.003a.069.069 0 00.008-.003m.015-.004c-.005.002-.009.004-.015.004.006 0 .009-.002.015-.004m.006-.002a.014.014 0 01-.006.002l.006-.002m.014-.003l-.014.003c.005-.001.009-.003.014-.003m.036-.012l-.036.012.036-.012m.002-.001l-.002.001.002-.001m.004-.001l-.004.001.004-.001m.162-.048l-.162.048.162-.048m.012-.004l-.012.004.012-.004m.132-.041l-.132.041.132-.041m.004-.001l-.004.001.004-.001m.032-.009l-.032.009.032-.009m.239-.073l-.239.073.239-.073m.006-.002l-.006.002a.014.014 0 01.006-.002m.035-.011l-.035.011.035-.011m.086-.026l-.084.026.084-.026m-.086.026h.002-.002m.108-.032l-.022.006.022-.006m.049-.016l-.049.016.049-.016m.075-.022l-.075.022.075-.022m.06-.019l-.038.012.038-.012m.071-.022l-.071.022.071-.022m.029-.008l-.029.008.029-.008m.025-.007l-.025.007.025-.007m.163-.05l-.163.05.163-.05m.08-.024a1.466 1.466 0 00-.062.019l.062-.019m.023-.007l-.023.007.023-.007m.031-.01l-.031.01.031-.01m.034-.01l-.016.005.016-.005m.087-.026l-.087.026.087-.026m.001-.001l-.001.001.001-.001m2.731-.832l-2.731.832 2.731-.832m.065-.019l-.065.019.065-.019m.031-.01l-.031.01.031-.01m.006-.002l-.006.002.006-.002m.009-.003l-.009.003.009-.003m.055-.016l-.055.016.055-.016m.002-.001l-.002.001.002-.001m1.63-.496l-1.63.496 1.63-.496" fill="url(#al)"/></g></g><g transform="matrix(.62537 0 0 -.62537 -291.857 324.633)" clip-path="url(#am)"><g mask="url(#an)"><path d="M487.23 507.19c.007-.019 3.017-7.723 11.536-8.65l-.125 4.598s-4.756-1.39-9.51 4.052z" fill="url(#ao)"/></g></g><g transform="matrix(.62537 0 0 -.62537 -291.857 324.633)" clip-path="url(#ap)"><g mask="url(#aq)"><path d="M476.89 498.54v-3.429c3.386-6.438 9.388-10.517 9.388-10.517l1.632-1.003 3.617 2.301c-9.551 4.332-14.637 12.648-14.637 12.648z" fill="url(#ar)"/></g></g><g transform="matrix(.62537 0 0 -.62537 -291.857 324.633)" clip-path="url(#as)"><path d="M480.77 504.59l-.408-11.392c.699-.974 3.495-3.341 7.555-5.926 4.062 2.584 6.858 4.952 7.557 5.925l-.409 11.393z" fill="url(#at)"/></g><g transform="matrix(.62537 0 0 -.62537 -291.857 324.633)" clip-path="url(#au)"><path d="M481.69 503.77l-.408-10.308c.756-.884 3.113-2.883 6.631-5.17 3.519 2.286 5.876 4.286 6.632 5.17l-.407 10.308z" fill="url(#av)"/></g><g transform="matrix(.62537 0 0 -.62537 -291.857 324.633)" clip-path="url(#aw)"><g mask="url(#ax)"><path d="M488.25 503.77v-.001c1.562-3.421 6.299-4.683 6.299-4.683v3.009c-2.189.302-3.015 1.675-3.015 1.675z" fill="url(#ay)"/></g></g><g transform="matrix(.62537 0 0 -.62537 -291.857 324.633)" clip-path="url(#az)"><g mask="url(#aA)"><path d="M481.81 503.77s5.314-7.914 12.733-9.187v1.679s-7.25 1.43-11.189 7.508z" fill="url(#aB)"/></g></g><g transform="matrix(.62537 0 0 -.62537 -291.857 324.633)" clip-path="url(#aC)"><g mask="url(#aD)"><path d="M481.41 496.62c3.45-4.587 9.179-6.498 9.179-6.498l3.715 3.069c-6.713.369-12.661 9.323-12.661 9.323z" fill="url(#aE)"/></g></g><path d="M5.033 1.527s-3.51 0-3.51 3.51v16.38s0 3.51 3.51 3.51h16.38s3.51 0 3.51-3.51V5.037s0-3.51-3.51-3.51z" fill="none" stroke="#231f20" stroke-width=".413"/></svg>