<svg xmlns="http://www.w3.org/2000/svg" width="100" height="100" viewBox="0 0 26.458 26.458"><defs><clipPath clipPathUnits="userSpaceOnUse" id="o"><path d="M482.57 105.244c-2.633-.037-3.631-2.569-3.661-3.954v-.125c.01-.455.134-.758.345-.758.88 0 2.31-.414 2.31-.414s.33 0 1.87-1.897c2.165-2.668 3.006 1.834 2.419 2.567-.586.734-1.026 1.613-1.026 1.959 0 .344.401 2.337-1.646 2.588-.17.021-.335.032-.493.034z"/></clipPath><clipPath clipPathUnits="userSpaceOnUse" id="a"><path d="M-13948.7 14492.5h28835.2v-28835.2h-28835.2z"/></clipPath><clipPath clipPathUnits="userSpaceOnUse" id="c"><path d="M-13948.7 14492.5h28835.2v-28835.2h-28835.2z"/></clipPath><clipPath clipPathUnits="userSpaceOnUse" id="s"><path d="M474.816 95.756c-2.421-4.285 1.252-8.309 1.252-8.309s1.104-1.691 1.177-3.751c.013-1.616 2.907-2.502 5.334.919 2.428 3.422.589 2.87 2.318 3.826 1.728.957 3.127 4.562 3.201 6.071-1.251-1.95-1.987-2.797-2.538-2.834-.368 0-.074.699.11 1.491.183.79 1.14 2.888.441 5.536-.478 1.434-1.361-1.786-1.765-3.799-.405-2.013-1.225-5.876-3.409-5.398-1.035.226-1.386-.383-1.697-.991-.345-.675-.642-1.35-1.774-.885-1.751.719-1.659 2.654-.522 3.278 1.136.623 1.393 2.567 1.1 2.944-.293.376-.917 1.603-.314 2.043.602.44.314.843-.383 1.943-.696 1.1-1.576 1.723-2.652 2.304.795-1.583.892-2.597.121-4.388"/></clipPath><clipPath clipPathUnits="userSpaceOnUse" id="r"><path d="M473.99 100.144h14.108V82.266H473.99z"/></clipPath><clipPath clipPathUnits="userSpaceOnUse" id="e"><path d="M-13948.7 14492.5h28835.2v-28835.2h-28835.2z"/></clipPath><clipPath clipPathUnits="userSpaceOnUse" id="v"><path d="M477.521 98.28h5.002v-9.988h-5.002z"/></clipPath><clipPath clipPathUnits="userSpaceOnUse" id="n"><path d="M478.909 105.244h7.127V97.26h-7.127z"/></clipPath><clipPath clipPathUnits="userSpaceOnUse" id="m"><path d="M474.746 112.562s-5.612 0-5.612-5.612V80.753c.001-.168.086-5.529 5.491-5.607h26.361c.543.015 5.49.299 5.565 5.491v26.36c-.016.544-.303 5.565-5.613 5.565z"/></clipPath><clipPath clipPathUnits="userSpaceOnUse" id="k"><path d="M474.746 112.562s-5.612 0-5.612-5.612V80.753c.001-.168.086-5.529 5.491-5.607h26.361c.543.015 5.49.299 5.565 5.491v26.36c-.016.544-.303 5.565-5.613 5.565z"/></clipPath><clipPath clipPathUnits="userSpaceOnUse" id="i"><path d="M474.746 112.562s-5.612 0-5.612-5.612V80.753c.001-.168.086-5.529 5.491-5.607h26.361c.543.015 5.49.299 5.565 5.491v26.36c-.016.544-.303 5.565-5.613 5.565z"/></clipPath><clipPath clipPathUnits="userSpaceOnUse" id="w"><path d="M480.022 96.153c-.97.126-1.025-.55-.768-1.467.256-.917 1.143-2.384-.125-3.703-.828-.861-1.599-1.204-1.608-1.69v-.018c.005-.254.219-.551.743-.983.109.894.586 2.433 2.529 2.433 1.037 0 1.719 1.921 1.729 3.835v.082c-.008 1.646-.517 3.267-1.729 3.637-.109-.696.073-2.236-.771-2.126"/></clipPath><linearGradient x1="0" y1="0" x2="1" y2="0" gradientUnits="userSpaceOnUse" gradientTransform="scale(8.54608 -8.54608) rotate(-72.265 20.89 -43.605)" spreadMethod="pad" id="y"><stop offset="0" stop-color="#412b23"/><stop offset="1" stop-color="#412b23"/></linearGradient><linearGradient x1="0" y1="0" x2="1" y2="0" gradientUnits="userSpaceOnUse" gradientTransform="scale(8.54608 -8.54608) rotate(-72.265 20.89 -43.605)" spreadMethod="pad" id="b"><stop offset="0" stop-color="#fff"/><stop offset="1" stop-opacity="0" stop-color="#fff"/></linearGradient><linearGradient x1="0" y1="0" x2="1" y2="0" gradientUnits="userSpaceOnUse" gradientTransform="scale(-10.85414 10.85414) rotate(83.307 -26.58 -21.078)" spreadMethod="pad" id="u"><stop offset="0" stop-color="#fff"/><stop offset="1" stop-color="#fff"/></linearGradient><linearGradient x1="0" y1="0" x2="1" y2="0" gradientUnits="userSpaceOnUse" gradientTransform="scale(-10.85414 10.85414) rotate(83.307 -26.58 -21.078)" spreadMethod="pad" id="d"><stop offset="0" stop-color="#fff"/><stop offset="1" stop-opacity="0" stop-color="#fff"/></linearGradient><linearGradient x1="0" y1="0" x2="1" y2="0" gradientUnits="userSpaceOnUse" gradientTransform="scale(8.04542 -8.04542) rotate(64.369 40.2 40.991)" spreadMethod="pad" id="q"><stop offset="0" stop-color="#412b23"/><stop offset="1" stop-color="#412b23"/></linearGradient><linearGradient x1="0" y1="0" x2="1" y2="0" gradientUnits="userSpaceOnUse" gradientTransform="scale(8.04542 -8.04542) rotate(64.369 40.2 40.991)" spreadMethod="pad" id="f"><stop offset="0" stop-color="#fff"/><stop offset="1" stop-opacity="0" stop-color="#fff"/></linearGradient><linearGradient x1="0" y1="0" x2="1" y2="0" gradientUnits="userSpaceOnUse" gradientTransform="scale(52.91519 -52.91519) rotate(45 7 9.638)" spreadMethod="pad" id="g"><stop offset="0" stop-color="#ebdac2"/><stop offset=".004" stop-color="#ebdac2"/><stop offset="1" stop-color="#e29e8a"/></linearGradient><linearGradient x1="0" y1="0" x2="1" y2="0" gradientUnits="userSpaceOnUse" gradientTransform="matrix(0 47.50083 47.50083 0 471.115 69.571)" spreadMethod="pad" id="h"><stop offset="0" stop-color="#e29e8a"/><stop offset="1" stop-color="#bd6c6d"/></linearGradient><linearGradient x1="0" y1="0" x2="1" y2="0" gradientUnits="userSpaceOnUse" gradientTransform="matrix(0 21.0291 21.0291 0 481.206 82.472)" spreadMethod="pad" id="l"><stop offset="0" stop-color="#bd6c6d"/><stop offset="1" stop-color="#e29e8a"/></linearGradient><linearGradient x1="0" y1="0" x2="1" y2="0" gradientUnits="userSpaceOnUse" gradientTransform="matrix(0 21.82345 21.82345 0 482.12 82.002)" spreadMethod="pad" id="j"><stop offset="0" stop-color="#e29e8a"/><stop offset="1" stop-color="#bd6c6d"/></linearGradient><mask maskUnits="userSpaceOnUse" x="0" y="0" width="1" height="1" id="x"><g clip-path="url(#a)"><path d="M473.826 89.219l3.52 11.007 8.985-2.873-3.52-11.008z" fill="url(#b)"/></g></mask><mask maskUnits="userSpaceOnUse" x="0" y="0" width="1" height="1" id="t"><g clip-path="url(#c)"><path d="M472.608 79.377l-2.407 20.509 17.683 2.075 2.407-20.509z" fill="url(#d)"/></g></mask><mask maskUnits="userSpaceOnUse" x="0" y="0" width="1" height="1" id="p"><g clip-path="url(#e)"><path d="M484.931 108.868l5.524-11.514-10.572-5.072-5.524 11.513z" fill="url(#f)"/></g></mask></defs><path d="M474.746 112.562s-5.612 0-5.612-5.612V80.753c.001-.169.085-5.529 5.492-5.607h26.36c.543.015 5.49.299 5.565 5.491v26.36c-.016.544-.304 5.565-5.613 5.565z" fill="url(#g)" transform="matrix(.62536 0 0 -.62538 -291.849 71.923)"/><path d="M474.746 112.562s-5.612 0-5.612-5.612V80.753c.001-.169.085-5.529 5.492-5.607h1.837c4.916 6.681 3.809 12.14 4.276 20.971.335 6.361-.033 11.881-.687 16.445z" fill="url(#h)" transform="matrix(.62536 0 0 -.62538 -291.849 71.923)"/><g clip-path="url(#i)" transform="matrix(.62536 0 0 -.62538 -291.849 71.923)"><path d="M476.009 127.577s5.775-11.66 4.73-31.46c-.595-11.275 1.375-17.05-9.9-26.895-11.275-9.844-9.35 32.395-9.35 32.395l5.61 14.41z" fill="none" stroke="#6f4324" stroke-width=".44" stroke-miterlimit="10"/></g><path d="M476.363 102.458c-.258-1.582-.592-1.886-1.142-2.106l.516-13.823s.736-1.141.736-2.244c.772-5.151 4.892-2.613 5.628-1.619.736.994 2.023 3.2 5.003 6.953 2.98 3.751 2.686 15.819-2.317 18.43-.808.423-1.569.603-2.277.603-3.673 0-5.932-4.868-6.147-6.194" fill="url(#j)" transform="matrix(.62536 0 0 -.62538 -291.849 71.923)"/><g clip-path="url(#k)" transform="matrix(.62536 0 0 -.62538 -291.849 71.923)"><path d="M475.22 100.352c.55.22.885.524 1.143 2.105.257 1.582 3.42 8.204 8.424 5.592 5.003-2.612 5.298-14.678 2.318-18.43-2.98-3.753-4.267-5.96-5.003-6.954-.736-.993-4.856-3.53-5.63 1.62 0 1.103-.734 2.243-.734 2.243" fill="none" stroke="#6f4324" stroke-width=".44" stroke-linecap="round" stroke-miterlimit="10"/></g><path d="M476.856 102.377c-.239-1.473-.828-2.352-1.574-2.352a.971.971 0 00-.658.267c1.238-2.481.731-3.678-.002-4.864-1.964-3.312.581-7.626 1.475-8.552l.035-.035.026-.04c.033-.053.799-1.254.815-2.477.272-1.768.968-2.664 2.068-2.664 1.096 0 2.33.861 2.658 1.304.2.269.448.641.763 1.114.834 1.249 2.095 3.139 4.251 5.852 1.678 2.115 2.296 7.361 1.375 11.695-.637 3-1.892 5.123-3.532 5.981-.695.362-1.384.546-2.046.546-3.245 0-5.434-4.43-5.654-5.775" fill="url(#l)" transform="matrix(.62536 0 0 -.62538 -291.849 71.923)"/><g clip-path="url(#m)" transform="matrix(.62536 0 0 -.62538 -291.849 71.923)"><g clip-path="url(#n)"><g mask="url(#p)" clip-path="url(#o)" opacity=".7"><path d="M482.57 105.244c-2.633-.037-3.631-2.569-3.661-3.954v-.125c.01-.455.134-.758.345-.758.88 0 2.31-.414 2.31-.414s.33 0 1.87-1.897c2.165-2.668 3.006 1.834 2.419 2.567-.586.734-1.026 1.613-1.026 1.959 0 .344.401 2.337-1.646 2.588-.17.021-.335.032-.493.034z" fill="url(#q)"/></g></g><g clip-path="url(#r)"><g mask="url(#t)" clip-path="url(#s)" opacity=".6"><path d="M474.816 95.756c-2.421-4.285 1.252-8.309 1.252-8.309s1.104-1.691 1.177-3.751c.013-1.616 2.907-2.502 5.334.919 2.428 3.422.589 2.87 2.318 3.826 1.728.957 3.127 4.562 3.201 6.071-1.251-1.95-1.987-2.797-2.538-2.834-.368 0-.074.699.11 1.491.183.79 1.14 2.888.441 5.536-.478 1.434-1.361-1.786-1.765-3.799-.405-2.013-1.225-5.876-3.409-5.398-1.035.226-1.386-.383-1.697-.991-.345-.675-.642-1.35-1.774-.885-1.751.719-1.659 2.654-.522 3.278 1.136.623 1.393 2.567 1.1 2.944-.293.376-.917 1.603-.314 2.043.602.44.314.843-.383 1.943-.696 1.1-1.576 1.723-2.652 2.304.795-1.583.892-2.597.121-4.388" fill="url(#u)"/></g></g><path d="M477.356 98.521s.127-.177.355-.459c.118-.138.258-.305.43-.465.088-.078.183-.154.28-.215l.188-.135.093-.068.12-.129a1 1 0 00.259-.72c-.01-.29-.126-.51-.24-.713a2.96 2.96 0 00-.195-.27l-.003-.005.023.027-.005-.008-.01-.013-.02-.028c-.011-.017-.031-.043-.035-.053.01-.008.014.01.013-.006a.436.436 0 01.039-.222 1.894 1.894 0 01.348-.537l.039-.042.02-.02.01-.01.057-.063c.034-.047.052-.052.126-.18a1.45 1.45 0 00.08-.158l.038-.11c.029-.078.044-.148.058-.217.029-.142.036-.274.039-.405a3.097 3.097 0 00-.084-.756 3.055 3.055 0 00-1.193-1.832l-.236-.173-.196-.156c-.533-.437-.921-1-.82-1.405.034-.215.202-.412.374-.564a2.82 2.82 0 01.525-.34c.32-.164.517-.254.517-.254l-.001-.003-.146.034c-.094.026-.237.048-.411.104-.173.058-.385.13-.611.258-.212.135-.478.312-.598.633-.127.314-.075.701.087 1.032.159.336.4.643.684.923.289.292.633.491.863.812.24.311.408.686.487 1.078.084.382.075.821-.054 1.131-.007.032-.047.076-.076.116-.015.02-.07.072-.097.11-.07.08-.132.164-.192.251a1.987 1.987 0 00-.266.567.963.963 0 00.023.627c.096.222.242.318.34.458.096.137.183.281.195.43a.568.568 0 01-.112.405c-.165.23-.437.402-.566.63a3.952 3.952 0 00-.327.576 4.87 4.87 0 00-.216.532" fill="#6f4324"/><path d="M478.643 88.441s.001.07.017.198c.018.128.046.32.13.557.088.232.223.525.517.79a1.56 1.56 0 00.91.383l.182.006.094.001h.011c-.068.008-.016.002-.03.004h.005l.02.001.037.003c.188.015.457-.01.565.06.14.023.277.114.406.195.241.183.445.53.621.941l.13.32c.037.114.075.231.12.345.086.244.175.49.265.74.183.492.318.966.413 1.411.093.447.087.872.003 1.285a4.865 4.865 0 01-.44 1.211 7.99 7.99 0 01-.68 1.074 5.287 5.287 0 01-.794.824 4.67 4.67 0 01-.824.58c-.264.162-.519.27-.733.364-.43.175-.707.258-.707.258l.193.01c.128.003.314.004.552-.016a4.44 4.44 0 001.893-.586 4.78 4.78 0 001.07-.817c.335-.358.638-.745.9-1.202.256-.452.485-.958.58-1.512.1-.55.085-1.133-.042-1.679-.123-.548-.326-1.064-.53-1.554-.21-.484-.386-.98-.646-1.436-.255-.446-.55-.895-1.005-1.142-.447-.24-.963-.24-1.342-.184-.4.081-.74.02-1.01-.157a1.767 1.767 0 01-.56-.6 2.875 2.875 0 01-.29-.676" fill="#6f4324"/><path d="M479.985 98.274s-.376.23-.845.828a3.91 3.91 0 00-.622 1.22 4.123 4.123 0 00-.15 1.78c.092.651.298 1.345.642 2.012l.06.13c.038.067.053.084.08.13l.153.235c.104.157.19.32.34.472.14.15.265.322.424.456.163.13.318.271.494.39.71.472 1.643.651 2.516.484a3.612 3.612 0 002.259-1.37c.263-.378.429-.864.398-1.337l-.024-.315-.002-.296c.007-.198.028-.393.073-.578.052-.182.117-.358.223-.504.1-.135.26-.293.392-.467a5.39 5.39 0 00.637-1.076c.339-.747.505-1.53.548-2.27.059-.746-.054-1.444-.165-2.077l-.238-.892-.29-.779c-.197-.482-.405-.887-.568-1.22l-.59-1.014-.048.03.563 1.021c.154.337.352.743.537 1.223l.266.778.206.885c.087.625.175 1.31.092 2.026a6.139 6.139 0 01-.594 2.156c-.172.347-.38.685-.632.99-.12.15-.263.275-.418.466a1.972 1.972 0 00-.302.62c-.06.22-.092.442-.107.665-.011.228-.01.45.005.655 0 .38-.131.721-.37 1.021-.516.56-1.24.924-1.964 1.038l-.272.05-.272.008c-.184.02-.36-.024-.54-.042-.182-.009-.347-.088-.524-.126-.17-.058-.324-.153-.49-.224-.155-.093-.295-.208-.445-.309-.144-.108-.252-.245-.383-.364-.131-.11-.237-.279-.348-.428l-.165-.226-.071-.099-.063-.118a5.937 5.937 0 01-.704-1.857 3.836 3.836 0 01.05-1.672 3.98 3.98 0 01.524-1.197c.204-.303.4-.518.538-.658.14-.138.226-.2.226-.2z" fill="#6f4324"/><path d="M483.131 104.96s.022-.097.044-.269c.02-.17.04-.418.022-.717a2.73 2.73 0 00-.076-.478 1.863 1.863 0 00-.217-.506 1.387 1.387 0 00-.431-.417 1.578 1.578 0 00-.59-.193 1.012 1.012 0 00-.309-.02l-.307.008c-.198.036-.39.063-.583.108-.357.098-.69.19-.975.27-.288.111-.53.177-.7.272-.087.045-.147.072-.201.107l-.09.072.326.295s.009-.004.021-.016c.023-.017.084-.05.147-.089.126-.086.358-.168.611-.289l.952-.335c.163-.05.348-.089.528-.137l.277-.027a.894.894 0 01.278 0c.188.003.365.057.529.131.159.084.296.201.403.341.104.141.178.298.234.454.051.158.084.311.105.456a4 4 0 01.027.71c-.01.17-.025.268-.025.268m2.097-14.642s.026-.285-.051-.662a5.395 5.395 0 00-.168-.63 5.113 5.113 0 00-.138-.333c-.044-.116-.113-.22-.17-.33-.058-.11-.114-.222-.186-.32-.072-.1-.128-.208-.208-.295-.086-.084-.158-.176-.248-.246-.087-.07-.16-.145-.246-.2a2.065 2.065 0 00-.6-.317l-.054.045s.019.063.064.162c.047.098.103.244.195.4l.14.256c.047.093.115.177.174.273.113.195.22.413.362.61.132.202.274.398.389.593l.36.51c.112.145.21.267.275.353l.11.131" fill="#6f4324"/><path d="M502.888 87.842l-.263.433-.3.498a17.77 17.77 0 00-.308.728c-.126.265-.195.566-.278.883l-.127.488c-.034.169-.048.344-.073.52l-.067.543-.017.137-.002.153v.27l-.002.547c.02.192.05.387.074.579.036.393.142.759.235 1.124.04.184.101.36.17.53.064.174.128.344.191.51.141.329.311.632.455.925l.5.774c.172.228.351.42.498.598.142.182.304.307.42.425l.377.357.296-.324-.345-.352c-.105-.116-.255-.238-.382-.416-.136-.171-.288-.365-.454-.577l-.463-.734c-.13-.28-.288-.564-.417-.874a116.88 116.88 0 01-.173-.482 2.898 2.898 0 01-.154-.5c-.082-.343-.179-.691-.206-1.043l-.065-.526-.006-.547-.003-.271v-.121l.013-.13c.02-.172.04-.341.057-.508.021-.167.031-.333.06-.491.04-.157.077-.311.114-.46.074-.3.134-.586.246-.826l.263-.675.278-.51.244-.443zm-2.804-1.799s-.16.204-.42.572c-.123.193-.27.44-.44.72-.147.285-.33.605-.468.98-.161.365-.295.778-.437 1.215-.057.223-.123.45-.173.686-.048.237-.081.482-.122.73-.043.247-.053.503-.081.76l-.018.194-.003.218-.002.377-.003.763c.022.267.068.543.102.814.052.554.199 1.068.33 1.58.034.127.062.255.1.38l.138.365.269.716c.202.46.458.875.668 1.28l.728 1.064c.248.312.507.573.718.814.205.248.436.416.602.575.347.304.547.471.547.471l.297-.325-.485-.494c-.15-.163-.358-.335-.538-.585-.188-.242-.41-.509-.637-.81l-.65-1.034c-.183-.392-.404-.793-.583-1.229a119.84 119.84 0 01-.245-.677l-.125-.344c-.035-.118-.06-.239-.09-.359-.116-.482-.25-.97-.288-1.468-.03-.248-.066-.494-.09-.743l-.008-.763-.005-.378c0-.056-.003-.137 0-.174l.014-.182c.023-.242.028-.483.065-.716.036-.234.063-.465.105-.689l.138-.65c.115-.418.223-.813.359-1.166.117-.36.275-.67.39-.955l.359-.7.36-.609z" fill="#fff"/><path d="M497.57 84.44s-.2.256-.527.716c-.156.24-.34.546-.551.895-.185.358-.42.755-.591 1.222-.202.458-.37.972-.548 1.519l-.225.855c-.06.296-.101.602-.153.912-.055.309-.067.629-.103.95l-.022.243-.003.03v.065l-.001.059v.117l-.003.473-.004.957c.02.333.069.679.118 1.017.057.336.07.689.167 1.008l.247.967c.043.159.078.32.126.476l.172.457.338.895c.102.297.275.558.413.826l.422.774.915 1.327c.31.389.633.716.902 1.015.258.309.547.517.756.715.436.377.688.583.688.583l.298-.325-.611-.622c-.187-.204-.45-.421-.675-.736-.238-.305-.515-.641-.801-1.021l-.815-1.3c-.231-.493-.51-.997-.735-1.546l-.307-.851-.157-.434c-.044-.148-.075-.301-.113-.452l-.22-.916c-.09-.305-.091-.621-.142-.932-.036-.312-.084-.622-.113-.936l-.011-.956-.006-.473c0-.073-.004-.17 0-.222l.018-.23c.029-.304.035-.606.083-.9.045-.293.078-.584.13-.865l.176-.82c.145-.524.28-1.022.452-1.465.146-.453.346-.843.49-1.2.175-.343.322-.641.454-.885l.45-.761z" fill="#fff"/><path d="M494.428 82.439l-.183.229c-.115.15-.302.364-.508.65-.103.147-.227.296-.344.48l-.37.612c-.135.22-.278.457-.428.705-.135.253-.25.529-.383.814-.123.289-.285.58-.39.902-.119.319-.226.654-.342.998-.127.34-.198.707-.29 1.077-.084.372-.202.749-.238 1.145-.05.394-.104.795-.157 1.2-.039.408-.052.823-.064 1.24-.023.42.001.84.03 1.263.032.423.03.85.106 1.27.056.422.131.84.202 1.259.105.41.21.82.312 1.226.091.409.243.798.385 1.182.145.384.275.767.46 1.122.17.358.34.71.503 1.056.192.33.394.646.584.955.353.634.814 1.152 1.194 1.65.392.492.82.887 1.175 1.247.363.355.722.62.993.858.271.233.507.409.665.51l.243.166.302-.321-.21-.198c-.145-.126-.323-.324-.566-.58-.233-.257-.544-.546-.849-.924-.294-.385-.657-.798-.995-1.29l-.512-.778c-.086-.136-.183-.268-.264-.413-.079-.147-.16-.295-.24-.446-.16-.302-.334-.608-.495-.93l-.437-1.008c-.16-.337-.269-.702-.392-1.066-.115-.366-.264-.728-.34-1.113l-.28-1.15-.183-1.18c-.076-.391-.077-.791-.112-1.186a9.552 9.552 0 01-.042-1.182c.011-.391 0-.781.026-1.164l.111-1.132c.021-.373.121-.73.175-1.084.07-.353.115-.703.218-1.03l.262-.962c.076-.313.208-.597.303-.88l.296-.804.326-.695c.101-.22.197-.423.285-.613.091-.188.2-.354.284-.507l.555-.96z" fill="#fff"/><g clip-path="url(#v)"><g mask="url(#x)" clip-path="url(#w)" opacity=".3"><path d="M480.022 96.153c-.97.126-1.025-.55-.768-1.467.256-.917 1.143-2.384-.125-3.703-.828-.861-1.599-1.204-1.608-1.69v-.018c.005-.254.219-.551.743-.983.109.894.586 2.433 2.529 2.433 1.037 0 1.719 1.921 1.729 3.835v.082c-.008 1.646-.517 3.267-1.729 3.637-.109-.696.073-2.236-.771-2.126" fill="url(#y)"/></g></g></g><path d="M0 0s-5.613 0-5.613-5.613v-26.192s0-5.612 5.613-5.612h26.192s5.613 0 5.613 5.612v26.192S31.805 0 26.192 0z" fill="none" stroke="#231f20" stroke-width=".66" transform="matrix(.62536 0 0 -.62538 5.04 1.53)"/></svg>