<svg xmlns="http://www.w3.org/2000/svg" width="100" height="100" viewBox="0 0 26.458 26.458"><defs><clipPath clipPathUnits="userSpaceOnUse" id="Z"><path d="M481.283 359.082s.981-.371.539-1.694c0 0 1.222 1.238-.539 1.694z"/></clipPath><clipPath clipPathUnits="userSpaceOnUse" id="s"><path d="M-13948.7 14761.9h28835.2v-28835.2h-28835.2z"/></clipPath><clipPath clipPathUnits="userSpaceOnUse" id="B"><path d="M472.588 381.544c-.063-.023-.127-.048-.191-.073 29.296-1.49 32.871-25.353 33.219-33.753v31.865a4.726 4.726 0 01-2.296 1.961zm33.028-34.713l.026.038c-.006.262-.014.545-.026.849z"/></clipPath><clipPath clipPathUnits="userSpaceOnUse" id="c"><path d="M-13948.7 14761.9h28835.2v-28835.2h-28835.2z"/></clipPath><clipPath clipPathUnits="userSpaceOnUse" id="E"><path d="M469.134 350.159c.001-.171.087-5.609 5.612-5.609h26.192s.206 0 .539.039c-26.068 1.5-31.341 21.026-32.343 30.791z"/></clipPath><clipPath clipPathUnits="userSpaceOnUse" id="H"><path d="M474.746 381.967s-5.612 0-5.612-5.613v-26.195c.001-.171.087-5.609 5.612-5.609h26.192s5.613 0 5.613 5.612v26.192s0 5.613-5.613 5.613z"/></clipPath><clipPath clipPathUnits="userSpaceOnUse" id="J"><path d="M474.746 381.967s-5.612 0-5.612-5.613v-26.195c.001-.171.087-5.609 5.612-5.609h26.192s5.613 0 5.613 5.612v26.192s0 5.613-5.613 5.613z"/></clipPath><clipPath clipPathUnits="userSpaceOnUse" id="N"><path d="M474.746 381.967s-5.612 0-5.612-5.613v-26.195c.001-.171.087-5.609 5.612-5.609h26.192s5.613 0 5.613 5.612v26.192s0 5.613-5.613 5.613z"/></clipPath><clipPath clipPathUnits="userSpaceOnUse" id="k"><path d="M-13948.7 14761.9h28835.2v-28835.2h-28835.2z"/></clipPath><clipPath clipPathUnits="userSpaceOnUse" id="O"><path d="M498.883 367.59l5.742 7.366-3.486 1.561c3.438-1.557-2.23-8.893-2.256-8.927"/></clipPath><clipPath clipPathUnits="userSpaceOnUse" id="R"><path d="M474.746 381.967s-5.612 0-5.612-5.613v-26.195c.001-.171.087-5.609 5.612-5.609h26.192s5.613 0 5.613 5.612v26.192s0 5.613-5.613 5.613z"/></clipPath><clipPath clipPathUnits="userSpaceOnUse" id="m"><path d="M-13948.7 14761.9h28835.2v-28835.2h-28835.2z"/></clipPath><clipPath clipPathUnits="userSpaceOnUse" id="S"><path d="M487.02 366.29s.981-.372.538-1.695c0 0 1.223 1.239-.538 1.695z"/></clipPath><clipPath clipPathUnits="userSpaceOnUse" id="y"><path d="M-13948.7 14761.9h28835.2v-28835.2h-28835.2z"/></clipPath><clipPath clipPathUnits="userSpaceOnUse" id="V"><path d="M487.495 367.843c4.071-1.234 1.116-4.482 1.116-4.482 1.598 1.044 1.266 2.566 1.266 2.566-.372 1.762-2.382 1.916-2.382 1.916z"/></clipPath><clipPath clipPathUnits="userSpaceOnUse" id="Y"><path d="M474.746 381.967s-5.612 0-5.612-5.613v-26.195c.001-.171.087-5.609 5.612-5.609h26.192s5.613 0 5.613 5.612v26.192s0 5.613-5.613 5.613z"/></clipPath><clipPath clipPathUnits="userSpaceOnUse" id="w"><path d="M-32768 32767h65535v-65535h-65535z"/></clipPath><clipPath clipPathUnits="userSpaceOnUse" id="g"><path d="M-13948.7 14761.9h28835.2v-28835.2h-28835.2z"/></clipPath><clipPath clipPathUnits="userSpaceOnUse" id="u"><path d="M-13948.7 14761.9h28835.2v-28835.2h-28835.2z"/></clipPath><clipPath clipPathUnits="userSpaceOnUse" id="ac"><path d="M481.759 360.634c4.071-1.233 1.115-4.482 1.115-4.482 1.599 1.045 1.267 2.567 1.267 2.567-.373 1.761-2.382 1.915-2.382 1.915z"/></clipPath><clipPath clipPathUnits="userSpaceOnUse" id="af"><path d="M474.746 381.967s-5.612 0-5.612-5.613v-26.195c.001-.171.087-5.609 5.612-5.609h26.192s5.613 0 5.613 5.612v26.192s0 5.613-5.613 5.613z"/></clipPath><clipPath clipPathUnits="userSpaceOnUse" id="q"><path d="M-32768 32767h65535v-65535h-65535z"/></clipPath><clipPath clipPathUnits="userSpaceOnUse" id="ag"><path d="M505.795 357.178s.981-.371.54-1.694c0 0 .109.111.216.281v1.038c-.145.147-.384.278-.756.375z"/></clipPath><clipPath clipPathUnits="userSpaceOnUse" id="o"><path d="M-13948.7 14761.9h28835.2v-28835.2h-28835.2z"/></clipPath><clipPath clipPathUnits="userSpaceOnUse" id="aj"><path d="M506.271 358.731c.097-.03.19-.06.28-.093v.049c-.171.035-.28.044-.28.044z"/></clipPath><clipPath clipPathUnits="userSpaceOnUse" id="am"><path d="M474.746 381.967s-5.612 0-5.612-5.613v-26.195c.001-.171.087-5.609 5.612-5.609h26.192s5.613 0 5.613 5.612v26.192s0 5.613-5.613 5.613z"/></clipPath><clipPath clipPathUnits="userSpaceOnUse" id="a"><path d="M-13948.7 14761.9h28835.2v-28835.2h-28835.2z"/></clipPath><clipPath clipPathUnits="userSpaceOnUse" id="an"><path d="M500.288 350.099s.981-.372.539-1.695c0 0 1.223 1.239-.539 1.695z"/></clipPath><clipPath clipPathUnits="userSpaceOnUse" id="i"><path d="M-32768 32767h65535v-65535h-65535z"/></clipPath><clipPath clipPathUnits="userSpaceOnUse" id="aq"><path d="M500.764 351.652c4.07-1.234 1.116-4.482 1.116-4.482 1.599 1.045 1.267 2.566 1.267 2.566-.374 1.761-2.383 1.916-2.383 1.916z"/></clipPath><clipPath clipPathUnits="userSpaceOnUse" id="at"><path d="M474.746 381.967s-5.612 0-5.612-5.613v-26.195c.001-.171.087-5.609 5.612-5.609h26.192s5.613 0 5.613 5.612v26.192s0 5.613-5.613 5.613z"/></clipPath><clipPath clipPathUnits="userSpaceOnUse" id="e"><path d="M-13948.7 14761.9h28835.2v-28835.2h-28835.2z"/></clipPath><clipPath clipPathUnits="userSpaceOnUse" id="av"><path d="M477.496 344.55h2.93l1.406 1.802-6.177 2.766c1.811-.82 2.195-2.547 1.841-4.568"/></clipPath><clipPath clipPathUnits="userSpaceOnUse" id="K"><path d="M490.928 351.072l10.177 13.054-6.177 2.766c6.106-2.766-4-15.82-4-15.82"/></clipPath><linearGradient x1="0" y1="0" x2="1" y2="0" gradientUnits="userSpaceOnUse" gradientTransform="scale(16.42717 -16.42717) rotate(-45 -11.162 -46.633)" spreadMethod="pad" id="t"><stop offset="0" stop-opacity="0" stop-color="#fff"/><stop offset="1" stop-color="#fff"/></linearGradient><linearGradient x1="0" y1="0" x2="1" y2="0" gradientUnits="userSpaceOnUse" gradientTransform="scale(48.37703 -48.37703) rotate(45 14.353 7.822)" spreadMethod="pad" id="A"><stop offset="0" stop-color="#077139"/><stop offset=".169" stop-color="#077139"/><stop offset=".713" stop-color="#044821"/><stop offset="1" stop-color="#044821"/></linearGradient><linearGradient x1="0" y1="0" x2="1" y2="0" gradientUnits="userSpaceOnUse" gradientTransform="scale(23.6208 -23.6208) rotate(-45 -8.263 -32.66)" spreadMethod="pad" id="D"><stop offset="0" stop-color="#40b93c"/><stop offset=".287" stop-color="#40b93c"/><stop offset=".831" stop-color="#40b93c"/><stop offset="1" stop-color="#40b93c"/></linearGradient><linearGradient x1="0" y1="0" x2="1" y2="0" gradientUnits="userSpaceOnUse" gradientTransform="scale(23.6208 -23.6208) rotate(-45 -8.263 -32.66)" spreadMethod="pad" id="h"><stop offset="0" stop-opacity="0" stop-color="#fff"/><stop offset=".287" stop-opacity="0" stop-color="#fff"/><stop offset=".831" stop-color="#fff"/><stop offset="1" stop-color="#fff"/></linearGradient><linearGradient x1="0" y1="0" x2="1" y2="0" gradientUnits="userSpaceOnUse" gradientTransform="scale(-23.3899 23.3899) rotate(-45 8.287 32.82)" spreadMethod="pad" id="G"><stop offset="0" stop-color="#40b93c"/><stop offset=".287" stop-color="#40b93c"/><stop offset=".831" stop-color="#40b93c"/><stop offset="1" stop-color="#40b93c"/></linearGradient><linearGradient x1="0" y1="0" x2="1" y2="0" gradientUnits="userSpaceOnUse" gradientTransform="scale(-23.3899 23.3899) rotate(-45 8.287 32.82)" spreadMethod="pad" id="d"><stop offset="0" stop-opacity="0" stop-color="#fff"/><stop offset=".287" stop-opacity="0" stop-color="#fff"/><stop offset=".831" stop-color="#fff"/><stop offset="1" stop-color="#fff"/></linearGradient><linearGradient x1="0" y1="0" x2="1" y2="0" gradientUnits="userSpaceOnUse" gradientTransform="scale(19.9776 -19.9776) rotate(81.133 23.065 5.153)" spreadMethod="pad" id="I"><stop offset="0" stop-color="#565353"/><stop offset="1" stop-color="#231f20"/></linearGradient><linearGradient x1="0" y1="0" x2="1" y2="0" gradientUnits="userSpaceOnUse" gradientTransform="scale(9.2693 -9.2693) rotate(-45 -21.267 -84.669)" spreadMethod="pad" id="Q"><stop offset="0" stop-color="#fff"/><stop offset="1" stop-color="#fff"/></linearGradient><linearGradient x1="0" y1="0" x2="1" y2="0" gradientUnits="userSpaceOnUse" gradientTransform="scale(9.2693 -9.2693) rotate(-45 -21.267 -84.669)" spreadMethod="pad" id="l"><stop offset="0" stop-opacity="0" stop-color="#fff"/><stop offset="1" stop-color="#fff"/></linearGradient><linearGradient x1="0" y1="0" x2="1" y2="0" gradientUnits="userSpaceOnUse" gradientTransform="scale(16.427 -16.427) rotate(-45 -10.443 -44.676)" spreadMethod="pad" id="f"><stop offset="0" stop-opacity="0" stop-color="#fff"/><stop offset="1" stop-color="#fff"/></linearGradient><linearGradient x1="0" y1="0" x2="1" y2="0" gradientUnits="userSpaceOnUse" gradientTransform="scale(16.427 -16.427) rotate(-45 -10.443 -44.676)" spreadMethod="pad" id="ax"><stop offset="0" stop-color="#fff"/><stop offset="1" stop-color="#fff"/></linearGradient><linearGradient x1="0" y1="0" x2="1" y2="0" gradientUnits="userSpaceOnUse" gradientTransform="scale(-22.3203 22.3203) rotate(-87.572 -2.456 18.902)" spreadMethod="pad" id="au"><stop offset="0" stop-color="#565353"/><stop offset="1" stop-color="#231f20"/></linearGradient><linearGradient x1="0" y1="0" x2="1" y2="0" gradientUnits="userSpaceOnUse" gradientTransform="matrix(2.41038 0 0 -2.41038 500.765 349.41)" spreadMethod="pad" id="j"><stop offset="0" stop-opacity="0" stop-color="#fff"/><stop offset="1" stop-color="#fff"/></linearGradient><linearGradient x1="0" y1="0" x2="1" y2="0" gradientUnits="userSpaceOnUse" gradientTransform="matrix(2.41038 0 0 -2.41038 500.765 349.41)" spreadMethod="pad" id="as"><stop offset="0" stop-color="#fff"/><stop offset="1" stop-color="#fff"/></linearGradient><linearGradient x1="0" y1="0" x2="1" y2="0" gradientUnits="userSpaceOnUse" gradientTransform="matrix(.95201 0 0 -.95201 500.289 349.252)" spreadMethod="pad" id="b"><stop offset="0" stop-opacity="0" stop-color="#fff"/><stop offset="1" stop-color="#fff"/></linearGradient><linearGradient x1="0" y1="0" x2="1" y2="0" gradientUnits="userSpaceOnUse" gradientTransform="matrix(.95201 0 0 -.95201 500.289 349.252)" spreadMethod="pad" id="ap"><stop offset="0" stop-color="#fff"/><stop offset="1" stop-color="#fff"/></linearGradient><linearGradient x1="0" y1="0" x2="1" y2="0" gradientUnits="userSpaceOnUse" gradientTransform="matrix(2.41033 0 0 -2.41033 506.271 356.49)" spreadMethod="pad" id="p"><stop offset="0" stop-opacity="0" stop-color="#fff"/><stop offset="1" stop-color="#fff"/></linearGradient><linearGradient x1="0" y1="0" x2="1" y2="0" gradientUnits="userSpaceOnUse" gradientTransform="matrix(2.41033 0 0 -2.41033 506.271 356.49)" spreadMethod="pad" id="al"><stop offset="0" stop-color="#fff"/><stop offset="1" stop-color="#fff"/></linearGradient><linearGradient x1="0" y1="0" x2="1" y2="0" gradientUnits="userSpaceOnUse" gradientTransform="matrix(.95193 0 0 -.95193 487.02 365.443)" spreadMethod="pad" id="U"><stop offset="0" stop-color="#fff"/><stop offset="1" stop-color="#fff"/></linearGradient><linearGradient x1="0" y1="0" x2="1" y2="0" gradientUnits="userSpaceOnUse" gradientTransform="matrix(.95203 0 0 -.95203 505.795 356.33)" spreadMethod="pad" id="r"><stop offset="0" stop-opacity="0" stop-color="#fff"/><stop offset="1" stop-color="#fff"/></linearGradient><linearGradient x1="0" y1="0" x2="1" y2="0" gradientUnits="userSpaceOnUse" gradientTransform="matrix(.95203 0 0 -.95203 505.795 356.33)" spreadMethod="pad" id="ai"><stop offset="0" stop-color="#fff"/><stop offset="1" stop-color="#fff"/></linearGradient><linearGradient x1="0" y1="0" x2="1" y2="0" gradientUnits="userSpaceOnUse" gradientTransform="matrix(.95193 0 0 -.95193 487.02 365.443)" spreadMethod="pad" id="n"><stop offset="0" stop-opacity="0" stop-color="#fff"/><stop offset="1" stop-color="#fff"/></linearGradient><linearGradient x1="0" y1="0" x2="1" y2="0" gradientUnits="userSpaceOnUse" gradientTransform="matrix(2.41037 0 0 -2.41037 481.76 358.394)" spreadMethod="pad" id="v"><stop offset="0" stop-opacity="0" stop-color="#fff"/><stop offset="1" stop-color="#fff"/></linearGradient><linearGradient x1="0" y1="0" x2="1" y2="0" gradientUnits="userSpaceOnUse" gradientTransform="matrix(2.41037 0 0 -2.41037 481.76 358.394)" spreadMethod="pad" id="ae"><stop offset="0" stop-color="#fff"/><stop offset="1" stop-color="#fff"/></linearGradient><linearGradient x1="0" y1="0" x2="1" y2="0" gradientUnits="userSpaceOnUse" gradientTransform="matrix(.95195 0 0 -.95195 481.283 358.235)" spreadMethod="pad" id="x"><stop offset="0" stop-opacity="0" stop-color="#fff"/><stop offset="1" stop-color="#fff"/></linearGradient><linearGradient x1="0" y1="0" x2="1" y2="0" gradientUnits="userSpaceOnUse" gradientTransform="matrix(.95195 0 0 -.95195 481.283 358.235)" spreadMethod="pad" id="ab"><stop offset="0" stop-color="#fff"/><stop offset="1" stop-color="#fff"/></linearGradient><linearGradient x1="0" y1="0" x2="1" y2="0" gradientUnits="userSpaceOnUse" gradientTransform="matrix(2.41037 0 0 -2.41037 487.496 365.602)" spreadMethod="pad" id="z"><stop offset="0" stop-opacity="0" stop-color="#fff"/><stop offset="1" stop-color="#fff"/></linearGradient><linearGradient x1="0" y1="0" x2="1" y2="0" gradientUnits="userSpaceOnUse" gradientTransform="matrix(2.41037 0 0 -2.41037 487.496 365.602)" spreadMethod="pad" id="X"><stop offset="0" stop-color="#fff"/><stop offset="1" stop-color="#fff"/></linearGradient><linearGradient x1="0" y1="0" x2="1" y2="0" gradientUnits="userSpaceOnUse" gradientTransform="scale(16.42716 -16.42716) rotate(-45 -11.162 -46.633)" spreadMethod="pad" id="M"><stop offset="0" stop-color="#fff"/><stop offset="1" stop-color="#fff"/></linearGradient><mask maskUnits="userSpaceOnUse" x="0" y="0" width="1" height="1" id="T"><g clip-path="url(#m)"><path d="M487.019 366.29h1.762v-1.694h-1.762z" fill="url(#n)"/></g></mask><mask maskUnits="userSpaceOnUse" x="0" y="0" width="1" height="1" id="ao"><g clip-path="url(#a)"><path d="M500.289 350.099h1.761v-1.694h-1.761z" fill="url(#b)"/></g></mask><mask maskUnits="userSpaceOnUse" x="0" y="0" width="1" height="1" id="aw"><g clip-path="url(#e)"><path d="M473.37 346.834l5.373 5.373 5.373-5.373-5.373-5.373z" fill="url(#f)"/></g></mask><mask maskUnits="userSpaceOnUse" x="0" y="0" width="1" height="1" id="C"><g clip-path="url(#g)"><path d="M452.627 363.516l35.528 35.528 35.528-35.528-35.528-35.528z" fill="url(#h)"/></g></mask><mask maskUnits="userSpaceOnUse" x="0" y="0" width="1" height="1" id="ar"><g clip-path="url(#i)"><path d="M500.764 351.652h4.07v-4.482h-4.07z" fill="url(#j)"/></g></mask><mask maskUnits="userSpaceOnUse" x="0" y="0" width="1" height="1" id="P"><g clip-path="url(#k)"><path d="M494.42 372.053l7.334 7.335 7.334-7.335-7.334-7.334z" fill="url(#l)"/></g></mask><mask maskUnits="userSpaceOnUse" x="0" y="0" width="1" height="1" id="F"><g clip-path="url(#c)"><path d="M517.681 359.965l-31.982-31.981-31.981 31.981 31.981 31.981z" fill="url(#d)"/></g></mask><mask maskUnits="userSpaceOnUse" x="0" y="0" width="1" height="1" id="ak"><g clip-path="url(#o)"><path d="M506.271 358.731h.28v-.092h-.28z" fill="url(#p)"/></g></mask><mask maskUnits="userSpaceOnUse" x="0" y="0" width="1" height="1" id="ah"><g clip-path="url(#q)"><path d="M505.795 357.177h.981v-1.694h-.981z" fill="url(#r)"/></g></mask><mask maskUnits="userSpaceOnUse" x="0" y="0" width="1" height="1" id="L"><g clip-path="url(#s)"><path d="M483.018 358.982l12.999 12.999 12.998-12.999-12.998-12.998z" fill="url(#t)"/></g></mask><mask maskUnits="userSpaceOnUse" x="0" y="0" width="1" height="1" id="ad"><g clip-path="url(#u)"><path d="M481.76 360.635h4.07v-4.482h-4.07z" fill="url(#v)"/></g></mask><mask maskUnits="userSpaceOnUse" x="0" y="0" width="1" height="1" id="aa"><g clip-path="url(#w)"><path d="M481.283 359.082h1.761v-1.694h-1.761z" fill="url(#x)"/></g></mask><mask maskUnits="userSpaceOnUse" x="0" y="0" width="1" height="1" id="W"><g clip-path="url(#y)"><path d="M487.495 367.843h4.07v-4.481h-4.07z" fill="url(#z)"/></g></mask></defs><path d="M474.746 381.967s-5.612 0-5.612-5.613v-26.195c.001-.171.087-5.609 5.612-5.609h26.192s5.613 0 5.613 5.612v26.192s0 5.613-5.613 5.613z" fill="url(#A)" transform="matrix(.62536 0 0 -.62538 -291.849 240.402)"/><g clip-path="url(#B)" transform="matrix(.62536 0 0 -.62538 -291.849 240.402)"><g mask="url(#C)"><path d="M472.588 381.544c-.063-.023-.127-.048-.191-.073 29.296-1.49 32.871-25.353 33.219-33.753v31.865a4.726 4.726 0 01-2.296 1.961zm33.028-34.713l.026.038c-.006.262-.014.545-.026.849z" fill="url(#D)"/></g></g><g clip-path="url(#E)" transform="matrix(.62536 0 0 -.62538 -291.849 240.402)"><g mask="url(#F)"><path d="M469.134 350.159c.001-.171.087-5.609 5.612-5.609h26.192s.206 0 .539.039c-26.068 1.5-31.341 21.026-32.343 30.791z" fill="url(#G)"/></g></g><g clip-path="url(#H)" transform="matrix(.62536 0 0 -.62538 -291.849 240.402)"><path d="M451.068 337.526l-.408.519 9.24 7.272 6.942 8.899.245 5.939 17.437 22.35 11.81 3.796.202-.627-11.616-3.736-17.182-22.022-.245-5.94-7.153-9.153z" fill="none" stroke="#f68712" stroke-width=".44"/><path d="M453.433 336.402l-.408.518 9.24 7.275 6.942 8.898.245 5.939 17.436 22.35 11.81 3.797.202-.628-11.616-3.734-17.18-22.024-.247-5.94-7.153-9.152z" fill="none" stroke="#f68712" stroke-width=".44"/><path d="M455.799 335.281l-.408.518 9.239 7.276 6.942 8.897.246 5.937 17.436 22.351 11.81 3.796.202-.629-11.617-3.734-17.18-22.023-.246-5.937-7.153-9.152z" fill="none" stroke="#f68712" stroke-width=".44"/><path d="M458.163 334.16l-.408.519 9.24 7.274 6.942 8.895.245 5.942 17.436 22.348 11.81 3.796.202-.63-11.616-3.732-17.181-22.021-.246-5.942-.065-.084-7.088-9.065z" fill="none" stroke="#f68712" stroke-width=".44"/><path d="M451.068 337.526l-.408.519 9.24 7.272 6.942 8.899.245 5.939 17.437 22.35 11.81 3.796.202-.627-11.616-3.736-17.182-22.022-.245-5.94-7.153-9.153z" fill="#fff200"/><path d="M453.433 336.402l-.408.518 9.24 7.275 6.942 8.898.245 5.939 17.436 22.35 11.81 3.797.202-.628-11.616-3.734-17.18-22.024-.247-5.94-7.153-9.152z" fill="#fff200"/><path d="M455.799 335.281l-.408.518 9.239 7.276 6.942 8.897.246 5.937 17.436 22.351 11.81 3.796.202-.629-11.617-3.734-17.18-22.023-.246-5.937-7.153-9.152z" fill="#fff200"/><path d="M458.163 334.16l-.408.519 9.24 7.274 6.942 8.895.245 5.942 17.436 22.348 11.81 3.796.202-.63-11.616-3.732-17.181-22.021-.246-5.942-.065-.084-7.088-9.065z" fill="#fff200"/><path d="M485.567 390.219l-8.824-11.312" fill="none" stroke="#fff200" stroke-width=".176" stroke-miterlimit="10"/><path d="M478.122 378.252c-.522-.67-1.565-.918-2.325-.556-.762.361-.956 1.197-.434 1.866.524.672 1.565.923 2.327.561.762-.36.955-1.197.432-1.871m-3.646 1.731c-.523-.67-1.565-.92-2.326-.558-.762.36-.956 1.197-.433 1.867.523.67 1.565.923 2.327.56.761-.36.955-1.196.432-1.87m2.254 2.89c-.523-.67-1.565-.92-2.326-.56-.762.362-.956 1.198-.433 1.869.524.67 1.564.922 2.326.56.76-.361.956-1.197.433-1.87" fill="#fab80a"/><path d="M478.122 378.783c-.522-.669-1.565-.917-2.325-.556-.762.362-.956 1.198-.434 1.867.524.672 1.565.923 2.327.562s.955-1.198.432-1.873m-3.646 1.732c-.523-.669-1.565-.92-2.326-.558-.762.361-.956 1.197-.433 1.867.523.671 1.565.922 2.327.561.761-.36.955-1.197.432-1.87" fill="#fff200"/><path d="M496.834 376.66a.756.756 0 00-.883-.212c-.288.137-.361.453-.164.707.199.252.594.351.883.212.289-.136.362-.455.164-.708zm-.947-1.212a.75.75 0 00-.882-.213c-.288.136-.361.453-.164.71a.766.766 0 00.883.209c.288-.136.36-.456.163-.706zm-.947-1.216a.765.765 0 00-.882-.213c-.288.136-.362.458-.163.71a.757.757 0 00.88.21c.29-.137.364-.454.166-.707zm-.947-1.216a.762.762 0 00-.881-.21c-.29.137-.362.456-.164.708a.757.757 0 00.882.213c.288-.135.36-.456.163-.71zm-.946-1.21a.757.757 0 00-.883-.213c-.288.135-.361.456-.162.708a.752.752 0 00.88.212c.29-.136.363-.454.165-.707z" fill="none" stroke="#f68712" stroke-width=".44"/><path d="M520.506 365.185l-24.29 11.524.189.397 24.289-11.524zm-.947-1.213l-24.29 11.525.189.398 24.289-11.526zm-.947-1.216l-24.289 11.525.189.398 24.288-11.526zm-.946-1.211l-24.29 11.523.189.397 24.289-11.522zm-.949-1.216l-24.287 11.526.188.397 24.288-11.525z" fill="none" stroke="#f68712" stroke-width=".44"/><path d="M496.834 376.66a.756.756 0 00-.883-.212c-.288.137-.361.453-.164.707.199.252.594.351.883.212.289-.136.362-.455.164-.708m-.947-1.211a.75.75 0 00-.882-.213c-.288.136-.361.453-.164.71a.766.766 0 00.883.209c.288-.136.36-.456.163-.706m-.947-1.216a.765.765 0 00-.882-.213c-.288.136-.362.458-.163.71a.757.757 0 00.88.21c.29-.137.364-.454.166-.707m-.948-1.216a.762.762 0 00-.881-.21c-.29.137-.362.456-.164.708a.757.757 0 00.882.213c.288-.135.36-.456.163-.71m-.946-1.211a.757.757 0 00-.883-.213c-.288.135-.361.456-.162.708a.752.752 0 00.88.212c.29-.136.363-.454.165-.707" fill="#fff200"/><path d="M520.506 365.185l-24.29 11.524.189.397 24.289-11.524zm-.947-1.213l-24.29 11.525.189.398 24.289-11.526zm-.947-1.216l-24.289 11.525.189.398 24.288-11.526zm-.946-1.211l-24.29 11.523.189.397 24.289-11.522zm-.949-1.216l-24.287 11.526.188.397 24.288-11.525z" fill="#fff200"/><path d="M507.488 357.994l-.347.271 1.14 1.462-.34 1.462-15.988 7.585-2.206-.639-.98-1.257-.348.271 1.07 1.369 2.502.725.075-.035 16.256-7.712.434-1.874z" fill="none" stroke="#f68712" stroke-width=".44"/><path d="M507.488 357.994l-.347.271 1.14 1.462-.34 1.462-15.988 7.585-2.206-.639-.98-1.257-.348.271 1.07 1.369 2.502.725.075-.035 16.256-7.712.434-1.874z" fill="#fff200"/><text transform="matrix(.58059 .71976 .8142 -.4551 491.863 372.75)" style="-inkscape-font-specification:BankGothic-Medium" font-weight="700" font-size="1.352" font-family="BankGothic" fill="#fff"><tspan x="0 0.90195149 2.0459559 3.1913126 4.2649999 5.3102899" y="0">JUDB56</tspan></text><path d="M483.96 386.141c.684-.307.773-1.128.195-1.833l-5.576-6.804c-.578-.704-1.601-1.027-2.286-.72l-5.86 2.625c-.684.307-.771 1.129-.195 1.834l5.576 6.803c.578.705 1.603 1.028 2.287.721m-18.719-22.2c-.674.329-.736 1.152-.136 1.838l5.79 6.623c.6.684 1.634.974 2.309.645l5.772-2.811c.675-.328.735-1.152.136-1.838l-5.79-6.621c-.6-.686-1.635-.977-2.31-.648" fill="none" stroke="#fff" stroke-width=".44" stroke-miterlimit="10"/><path d="M488.855 363.775c1.103 1.665.522 2.997.522 2.997s1.176-1.331-.522-2.997m-10.694 16.338s.546-.907-.526-1.599c.61.713.614 1.1.526 1.6m-3.696 1.723s.546-.907-.526-1.599c.61.713.614 1.1.526 1.6" fill="#fff"/><path d="M490.928 348.053l-6.658 3.158v2.496l10.63 11.129 6.656-.661v-2.496z" fill="none" stroke="#231f20" stroke-width=".44" stroke-linecap="round" stroke-linejoin="round"/><path d="M490.928 350.548l-6.658 3.159 10.63 13.625 6.656-3.157zm-6.658 3.158v-2.496l6.658-3.158v2.495z" fill="none" stroke="#231f20" stroke-width=".44" stroke-linecap="round" stroke-linejoin="round"/><path d="M0 0c.055.04.12.061.194.061A.305.305 0 00.387 0c.052-.041.078-.101.078-.179a.355.355 0 00-.011-.08.215.215 0 00-.122-.146.308.308 0 00-.138-.027.335.335 0 00-.105.017A.275.275 0 000-.366a.215.215 0 00-.061.078.261.261 0 00-.022.109A.21.21 0 000 0zm-.362-.429a.502.502 0 01.141-.156.63.63 0 01.195-.094.785.785 0 01.22-.031.71.71 0 01.284.052.613.613 0 01.187.126.468.468 0 01.133.311c0 .091-.022.17-.066.238a.364.364 0 01-.198.145v.006a.405.405 0 01.251.154.472.472 0 01.088.291c0 .097-.02.181-.058.252a.53.53 0 01-.154.178.673.673 0 01-.217.105.932.932 0 01-.502.002.643.643 0 01-.22-.102.54.54 0 01-.155-.177.535.535 0 01-.058-.256c0-.116.03-.213.089-.291A.43.43 0 01-.15.168V.162A.333.333 0 01-.349.024a.415.415 0 01-.067-.237c0-.081.018-.153.054-.216zM-.098.725a.297.297 0 00.17.16.372.372 0 00.247 0 .3.3 0 00.164-.16A.335.335 0 00.506.6.276.276 0 00.414.389a.298.298 0 00-.098-.06.336.336 0 00-.12-.02.35.35 0 00-.227.074c-.062.049-.093.121-.093.215 0 .047.009.089.026.127z" fill="none" stroke="#231f20" stroke-linecap="round" stroke-linejoin="round" transform="matrix(.28847 .33224 .37605 -.22844 486.69 354.409)"/><path d="M0 0l-.072.414.005.006a.436.436 0 01.16-.108.533.533 0 01.194-.033.511.511 0 01.411.182.572.572 0 01.109.197.754.754 0 01.037.24.654.654 0 01-.671.655.908.908 0 01-.252-.035.632.632 0 01-.213-.109.55.55 0 01-.207-.432h.367c.009.084.04.15.093.199.054.05.122.074.204.074.048 0 .092-.01.131-.029a.341.341 0 00.098-.078.386.386 0 00.084-.245.415.415 0 00-.021-.132.29.29 0 00-.292-.208.316.316 0 00-.16.035.372.372 0 00-.116.11h-.331l.179-1.008H.746V0z" fill="none" stroke="#231f20" stroke-linecap="round" stroke-linejoin="round" transform="matrix(.28847 .33224 .37605 -.22844 486.97 354.976)"/><path d="M0 0v.714h.746V0h.406v1.859H.746v-.801H0v.801h-.405V0z" fill="none" stroke="#231f20" stroke-linecap="round" stroke-linejoin="round" transform="matrix(.28847 .33224 .37605 -.22844 487.267 355.543)"/><path d="M0 0a.26.26 0 00.09-.074.355.355 0 00.055-.108.496.496 0 00.018-.129.407.407 0 00-.077-.233.271.271 0 00-.091-.077.266.266 0 00-.124-.028.234.234 0 00-.116.028.277.277 0 00-.088.075.322.322 0 00-.054.108.425.425 0 00.049.358.243.243 0 00.209.107C-.079.027-.036.019 0 0zm-.31.596a.211.211 0 00.16.067.232.232 0 00.165-.059.433.433 0 00.104-.143A.706.706 0 00.174.28C.185.216.193.158.196.108L.191.104A.44.44 0 01.015.26.555.555 0 01-.444.256.582.582 0 01-.633.119a.547.547 0 01-.106-.19.753.753 0 01.012-.479c.03-.08.073-.15.129-.211A.623.623 0 01-.14-.954c.138 0 .251.027.34.082.089.055.16.127.213.216.053.09.09.19.111.303.021.113.031.227.031.341a1.5 1.5 0 01-.039.339.989.989 0 01-.124.306.67.67 0 01-.219.221.6.6 0 01-.328.085.667.667 0 01-.217-.033A.51.51 0 01-.677.65.632.632 0 01-.741.437h.348c.012.06.04.113.083.159z" fill="none" stroke="#231f20" stroke-linecap="round" stroke-linejoin="round" transform="matrix(.28847 .33224 .37605 -.22844 488.248 356.042)"/><path d="M0 0l-.072.414.005.006a.436.436 0 01.16-.108.533.533 0 01.194-.033.511.511 0 01.411.182.572.572 0 01.109.197.754.754 0 01.037.24.654.654 0 01-.671.655.908.908 0 01-.252-.035.632.632 0 01-.213-.109.55.55 0 01-.207-.432h.367c.009.084.04.15.093.199.054.05.122.074.204.074.048 0 .092-.01.131-.029a.341.341 0 00.098-.078.386.386 0 00.084-.245.415.415 0 00-.021-.132.29.29 0 00-.292-.208.316.316 0 00-.16.035.372.372 0 00-.116.11h-.331l.179-1.008H.746V0z" fill="none" stroke="#231f20" stroke-linecap="round" stroke-linejoin="round" transform="matrix(.28847 .33224 .37605 -.22844 488.35 356.565)"/><path d="M0 0a.424.424 0 00.125-.03.24.24 0 00.096-.072.194.194 0 00.037-.125.217.217 0 00-.077-.179.276.276 0 00-.179-.063c-.092 0-.163.031-.21.092a.364.364 0 00-.068.233h-.349A.777.777 0 01-.575-.4a.605.605 0 01.127-.2A.603.603 0 010-.773a.74.74 0 01.217.032.615.615 0 01.195.097.537.537 0 01.14.16.412.412 0 01.055.215.43.43 0 01-.064.235.314.314 0 01-.189.138v.005a.399.399 0 01.32.414.563.563 0 01-.204.443.65.65 0 01-.214.115.859.859 0 01-.531-.006.56.56 0 01-.349-.336.725.725 0 01-.045-.281h.349a.494.494 0 00.023.14.293.293 0 00.156.191c.039.02.085.028.138.028a.303.303 0 00.21-.076.272.272 0 00.085-.21.274.274 0 00-.04-.159A.24.24 0 00.15.293.402.402 0 00.014.265a2.288 2.288 0 00-.14-.004V0A.882.882 0 000 0z" fill="none" stroke="#231f20" stroke-linecap="round" stroke-linejoin="round" transform="matrix(.28847 .33224 .37605 -.22844 488.977 357)"/><path d="M0 0a.424.424 0 00.125-.03.24.24 0 00.096-.072.194.194 0 00.037-.125.217.217 0 00-.077-.179.276.276 0 00-.179-.063c-.092 0-.163.031-.21.092a.364.364 0 00-.068.233h-.349A.777.777 0 01-.575-.4a.605.605 0 01.127-.2A.603.603 0 010-.773a.74.74 0 01.217.032.615.615 0 01.195.097.537.537 0 01.14.16.412.412 0 01.055.215.43.43 0 01-.064.235.314.314 0 01-.189.138v.005a.399.399 0 01.32.414.563.563 0 01-.204.443.65.65 0 01-.214.115.859.859 0 01-.531-.006.56.56 0 01-.349-.336.725.725 0 01-.045-.281h.349a.494.494 0 00.023.14.293.293 0 00.156.191c.039.02.085.028.138.028a.303.303 0 00.21-.076.272.272 0 00.085-.21.274.274 0 00-.04-.159A.24.24 0 00.15.293.402.402 0 00.014.265a2.288 2.288 0 00-.14-.004V0A.882.882 0 000 0z" fill="none" stroke="#231f20" stroke-linecap="round" stroke-linejoin="round" transform="matrix(.28847 .33224 .37605 -.22844 489.39 357.477)"/><path d="M0 0v-.788h-.303v-.186A.698.698 0 00-.18-.983a.275.275 0 00.187-.116.267.267 0 00.043-.117h.194V0z" fill="none" stroke="#231f20" stroke-linecap="round" stroke-linejoin="round" transform="matrix(.28847 .33224 .37605 -.22844 487.878 353.638)"/><path d="M0 0a.177.177 0 00-.061.05.212.212 0 00-.036.072.303.303 0 00.001.168.228.228 0 00.037.073.187.187 0 00.061.051.176.176 0 00.161 0 .186.186 0 00.058-.05.227.227 0 00.036-.071.298.298 0 00-.032-.239.181.181 0 00-.058-.052.158.158 0 00-.082-.02A.193.193 0 000 0zm.206-.396a.14.14 0 00-.107-.045.152.152 0 00-.109.039.259.259 0 00-.07.095.525.525 0 00-.038.12.777.777 0 00-.014.115l.004.004a.298.298 0 01.117-.105.373.373 0 01.306.003.344.344 0 01.196.218.481.481 0 01-.094.459.396.396 0 01-.305.128A.432.432 0 01-.134.58.414.414 0 01-.276.437.562.562 0 01-.35.236 1.224 1.224 0 01-.371.008c0-.075.008-.151.026-.226a.657.657 0 01.082-.204.472.472 0 01.147-.148.395.395 0 01.218-.057.428.428 0 01.264.087.336.336 0 01.084.105c.022.042.036.09.043.144H.261a.214.214 0 00-.055-.105z" fill="none" stroke="#231f20" stroke-linecap="round" stroke-linejoin="round" transform="matrix(.28847 .33224 .37605 -.22844 487.917 354.088)"/><path d="M0 0l-.312.422h.317V0zm-.504.625V.399L.019-.31h.219v.732h.16v.203h-.16v.281H.005V.625z" fill="none" stroke="#231f20" stroke-linecap="round" stroke-linejoin="round" transform="matrix(.28847 .33224 .37605 -.22844 488.119 354.514)"/><path d="M0 0a.274.274 0 00.083-.021.145.145 0 00.064-.047.128.128 0 00.025-.083.147.147 0 00-.051-.12.183.183 0 00-.119-.041c-.062 0-.109.02-.14.061a.238.238 0 00-.046.155h-.233a.541.541 0 01.034-.171.392.392 0 01.084-.132.356.356 0 01.13-.086.491.491 0 01.444.055c.038.03.069.065.093.107.025.042.037.09.037.143 0 .06-.014.112-.043.157a.21.21 0 01-.126.092v.003A.27.27 0 01.393.17C.43.22.449.279.449.349A.376.376 0 01.17.72.557.557 0 01-.183.717.387.387 0 01-.416.493a.5.5 0 01-.03-.187h.233a.354.354 0 00.015.092c.009.03.022.055.04.077a.176.176 0 00.064.05c.026.013.057.02.092.02a.204.204 0 00.14-.052.177.177 0 00.057-.139.176.176 0 00-.027-.106A.16.16 0 00.1.195.295.295 0 00.01.176 1.549 1.549 0 00-.084.173V0A.588.588 0 000 0z" fill="none" stroke="#231f20" stroke-linecap="round" stroke-linejoin="round" transform="matrix(.28847 .33224 .37605 -.22844 488.447 354.772)"/><path d="M0 0a.441.441 0 01.083-.156.379.379 0 01.138-.104.467.467 0 01.192-.037c.055 0 .108.008.158.026a.386.386 0 01.222.194c.022.048.033.1.033.16 0 .062-.01.114-.029.158a.406.406 0 01-.078.117.615.615 0 01-.109.093 8.755 8.755 0 01-.123.082 2.05 2.05 0 00-.12.088.539.539 0 00-.104.109h.57v.212h-.885c0-.07.01-.131.03-.183A.517.517 0 01.06.618.698.698 0 01.182.505C.228.47.277.435.329.398.355.381.383.361.413.343A.58.58 0 00.495.279.355.355 0 00.557.201.202.202 0 00.582.102a.183.183 0 00-.051-.138.179.179 0 00-.13-.05.16.16 0 00-.09.025.194.194 0 00-.06.067.31.31 0 00-.032.09.55.55 0 00-.009.098h-.234A.562.562 0 010 0z" fill="none" stroke="#231f20" stroke-linecap="round" stroke-linejoin="round" transform="matrix(.28847 .33224 .37605 -.22844 488.53 355.011)"/><path d="M0 0l-.312.422h.317V0zm-.504.625V.399L.019-.31h.219v.732h.16v.203h-.16v.281H.005V.625z" fill="none" stroke="#231f20" stroke-linecap="round" stroke-linejoin="round" transform="matrix(.28847 .33224 .37605 -.22844 488.947 355.468)"/><path d="M0 0a.161.161 0 00.06-.05.207.207 0 00.036-.071.293.293 0 000-.169.235.235 0 00-.038-.072.172.172 0 00-.144-.071.17.17 0 00-.136.07.207.207 0 00-.036.071.279.279 0 00-.012.081c0 .029.004.058.011.084a.245.245 0 00.034.073.167.167 0 00.139.073A.179.179 0 000 0zm-.207.396A.14.14 0 00-.1.442.156.156 0 00.01.403.287.287 0 00.079.308.5.5 0 00.116.187.96.96 0 00.131.072L.127.068A.29.29 0 01.01.173.373.373 0 01-.296.17.4.4 0 01-.422.079a.35.35 0 01-.07-.127.475.475 0 01.094-.459.414.414 0 01.133-.095.42.42 0 01.172-.034c.092 0 .167.018.227.055a.417.417 0 01.142.144c.035.059.06.126.074.202.013.075.02.151.02.227a.968.968 0 01-.026.226.657.657 0 01-.082.204.459.459 0 01-.147.147.395.395 0 01-.218.057.454.454 0 01-.145-.022.354.354 0 01-.203-.17.427.427 0 01-.043-.143h.233a.2.2 0 00.054.105z" fill="none" stroke="#231f20" stroke-linecap="round" stroke-linejoin="round" transform="matrix(.28847 .33224 .37605 -.22844 489.342 355.724)"/><path d="M0 0c.037.027.08.041.129.041A.201.201 0 00.258 0C.293-.027.31-.066.31-.119a.215.215 0 00-.007-.053.134.134 0 00-.027-.055.143.143 0 00-.055-.043.216.216 0 00-.092-.017.226.226 0 00-.069.011.173.173 0 00-.06.032.162.162 0 00-.055.125c0 .053.018.092.055.119zm-.241-.285A.327.327 0 01-.147-.39a.411.411 0 01.13-.062.52.52 0 01.336.014.386.386 0 01.124.084.286.286 0 01.068.106.29.29 0 01-.023.26.237.237 0 01-.132.096v.004a.273.273 0 01.167.103.32.32 0 01.059.194.342.342 0 01-.141.286.456.456 0 01-.145.071.614.614 0 01-.335.002.457.457 0 01-.146-.069.355.355 0 01-.103-.118.35.35 0 01-.039-.17c0-.078.02-.142.059-.195A.288.288 0 01-.1.112V.108A.219.219 0 01-.232.017a.28.28 0 01-.045-.159c0-.054.012-.102.036-.143zm.176.768A.204.204 0 00-.02.549a.244.244 0 00.068.042c.027.01.054.014.083.014.03 0 .057-.004.082-.014A.259.259 0 00.278.549.187.187 0 00.322.483.22.22 0 00.321.321.193.193 0 00.211.22a.21.21 0 00-.08-.014c-.06 0-.11.017-.152.049a.174.174 0 00-.062.143c0 .032.006.06.018.085z" fill="none" stroke="#231f20" stroke-linecap="round" stroke-linejoin="round" transform="matrix(.28847 .33224 .37605 -.22844 489.5 356.012)"/><path d="M0 0l-.312.422h.317V0zm-.504.625V.399L.019-.31h.219v.732h.16v.203h-.16v.281H.005V.625z" fill="none" stroke="#231f20" stroke-linecap="round" stroke-linejoin="round" transform="matrix(.28847 .33224 .37605 -.22844 489.775 356.423)"/><path d="M0 0a.274.274 0 00.083-.021.145.145 0 00.064-.047.128.128 0 00.025-.083.147.147 0 00-.051-.12.183.183 0 00-.119-.041c-.062 0-.109.02-.14.061a.238.238 0 00-.046.155h-.233a.541.541 0 01.034-.171.392.392 0 01.084-.132.356.356 0 01.13-.086.491.491 0 01.444.055c.038.03.069.065.093.107.025.042.037.09.037.143 0 .06-.014.112-.043.157a.21.21 0 01-.126.092v.003A.27.27 0 01.393.17C.43.22.449.279.449.349A.376.376 0 01.17.72.557.557 0 01-.183.717.387.387 0 01-.416.493a.5.5 0 01-.03-.187h.233a.354.354 0 00.015.092c.009.03.022.055.04.077a.176.176 0 00.064.05c.026.013.057.02.092.02a.204.204 0 00.14-.052.177.177 0 00.057-.139.176.176 0 00-.027-.106A.16.16 0 00.1.195.295.295 0 00.01.176 1.549 1.549 0 00-.084.173V0A.588.588 0 000 0z" fill="none" stroke="#231f20" stroke-linecap="round" stroke-linejoin="round" transform="matrix(.28847 .33224 .37605 -.22844 490.104 356.68)"/><path d="M0 0l-.048.276.003.004A.31.31 0 01.062.208.35.35 0 01.191.187c.06 0 .112.01.158.032a.357.357 0 01.189.219A.538.538 0 01.563.6a.424.424 0 01-.134.314.438.438 0 01-.314.121.612.612 0 01-.167-.023.404.404 0 01-.143-.073.348.348 0 01-.098-.12.372.372 0 01-.039-.168h.244c.006.056.026.1.062.133.036.033.081.05.136.05A.18.18 0 00.197.813.182.182 0 00.262.762.239.239 0 00.304.687.283.283 0 00.305.511.19.19 0 00.198.39.203.203 0 00.11.372a.212.212 0 00-.107.024.25.25 0 00-.077.073h-.22l.118-.672h.674V0z" fill="none" stroke="#231f20" stroke-linecap="round" stroke-linejoin="round" transform="matrix(.28847 .33224 .37605 -.22844 490.239 357.027)"/><path d="M0 0l-.312.422h.317V0zm-.504.625V.399L.019-.31h.219v.732h.16v.203h-.16v.281H.005V.625z" fill="none" stroke="#231f20" stroke-linecap="round" stroke-linejoin="round" transform="matrix(.28847 .33224 .37605 -.22844 490.603 357.377)"/><path d="M0 0a.177.177 0 00-.061.05.212.212 0 00-.036.072.303.303 0 00.001.168.228.228 0 00.037.073.187.187 0 00.061.051.176.176 0 00.161 0 .186.186 0 00.058-.05.227.227 0 00.036-.071.298.298 0 00-.032-.239.181.181 0 00-.058-.052.158.158 0 00-.082-.02A.193.193 0 000 0zm.206-.396a.14.14 0 00-.107-.045.152.152 0 00-.109.039.259.259 0 00-.07.095.525.525 0 00-.038.12.777.777 0 00-.014.115l.004.004a.298.298 0 01.117-.105.373.373 0 01.306.003.344.344 0 01.196.218.481.481 0 01-.094.459.396.396 0 01-.305.128A.432.432 0 01-.134.58.414.414 0 01-.276.437.562.562 0 01-.35.236 1.224 1.224 0 01-.371.008c0-.075.008-.151.026-.226a.657.657 0 01.082-.204.472.472 0 01.147-.148.395.395 0 01.218-.057.428.428 0 01.264.087.336.336 0 01.084.105c.022.042.036.09.043.144H.261a.214.214 0 00-.055-.105z" fill="none" stroke="#231f20" stroke-linecap="round" stroke-linejoin="round" transform="matrix(.28847 .33224 .37605 -.22844 490.954 357.586)"/><path d="M0 0c.037.027.08.041.129.041A.201.201 0 00.258 0C.293-.027.31-.066.31-.119a.215.215 0 00-.007-.053.134.134 0 00-.027-.055.143.143 0 00-.055-.043.216.216 0 00-.092-.017.226.226 0 00-.069.011.173.173 0 00-.06.032.162.162 0 00-.055.125c0 .053.018.092.055.119zm-.241-.285A.327.327 0 01-.147-.39a.411.411 0 01.13-.062.52.52 0 01.336.014.386.386 0 01.124.084.286.286 0 01.068.106.29.29 0 01-.023.26.237.237 0 01-.132.096v.004a.273.273 0 01.167.103.32.32 0 01.059.194.342.342 0 01-.141.286.456.456 0 01-.145.071.614.614 0 01-.335.002.457.457 0 01-.146-.069.355.355 0 01-.103-.118.35.35 0 01-.039-.17c0-.078.02-.142.059-.195A.288.288 0 01-.1.112V.108A.219.219 0 01-.232.017a.28.28 0 01-.045-.159c0-.054.012-.102.036-.143zm.176.768A.204.204 0 00-.02.549a.244.244 0 00.068.042c.027.01.054.014.083.014.03 0 .057-.004.082-.014A.259.259 0 00.278.549.187.187 0 00.322.483.22.22 0 00.321.321.193.193 0 00.211.22a.21.21 0 00-.08-.014c-.06 0-.11.017-.152.049a.174.174 0 00-.062.143c0 .032.006.06.018.085z" fill="none" stroke="#231f20" stroke-linecap="round" stroke-linejoin="round" transform="matrix(.28847 .33224 .37605 -.22844 491.156 357.92)"/><path d="M0 0l-.312.422h.317V0zm-.504.625V.399L.019-.31h.219v.732h.16v.203h-.16v.281H.005V.625z" fill="none" stroke="#231f20" stroke-linecap="round" stroke-linejoin="round" transform="matrix(.28847 .33224 .37605 -.22844 491.432 358.33)"/><path d="M0 0a.45.45 0 01-.177.037.626.626 0 01-.254-.049.55.55 0 01-.309-.341.738.738 0 01-.041-.251c0-.093.013-.179.041-.258a.602.602 0 01.119-.208.532.532 0 01.19-.139.61.61 0 01.597.063.468.468 0 01.118.136.47.47 0 01.057.188H.083A.265.265 0 00-.01-.979a.274.274 0 00-.167-.051.309.309 0 00-.155.035.3.3 0 00-.104.096.435.435 0 00-.057.136.692.692 0 000 .31c.012.05.031.094.057.133a.31.31 0 00.259.131.291.291 0 00.207-.07.296.296 0 00.085-.198h-.271V-.66H.36v.67H.188L.16-.131A.39.39 0 010 0z" fill="none" stroke="#231f20" stroke-linecap="round" stroke-linejoin="round" transform="matrix(.28847 .33224 .37605 -.22844 488.778 353.303)"/><path d="M0 0v.476h.497V0h.271v1.239H.497V.704H0v.535h-.27V0z" fill="none" stroke="#231f20" stroke-linecap="round" stroke-linejoin="round" transform="matrix(.28847 .33224 .37605 -.22844 488.56 353.866)"/><path d="M0 0l.513.831h.003V0h.253v1.239h-.27l-.511-.83h-.004v.83h-.253V0z" fill="none" stroke="#231f20" stroke-linecap="round" stroke-linejoin="round" transform="matrix(.28847 .33224 .37605 -.22844 488.928 354.289)"/><path d="M0 0v-.788h-.303v-.186A.698.698 0 00-.18-.983a.275.275 0 00.187-.116.267.267 0 00.043-.117h.194V0z" fill="none" stroke="#231f20" stroke-linecap="round" stroke-linejoin="round" transform="matrix(.28847 .33224 .37605 -.22844 489.912 354.603)"/><path d="M0 0a.177.177 0 00-.061.05.212.212 0 00-.036.072.303.303 0 00.001.168.228.228 0 00.037.073.187.187 0 00.061.051.176.176 0 00.161 0 .186.186 0 00.058-.05.227.227 0 00.036-.071.298.298 0 00-.032-.239.181.181 0 00-.058-.052.158.158 0 00-.082-.02A.193.193 0 000 0zm.206-.396a.14.14 0 00-.107-.045.152.152 0 00-.109.039.259.259 0 00-.07.095.525.525 0 00-.038.12.777.777 0 00-.014.115l.004.004a.298.298 0 01.117-.105.373.373 0 01.306.003.344.344 0 01.196.218.481.481 0 01-.094.459.396.396 0 01-.305.128A.432.432 0 01-.134.58.414.414 0 01-.276.437.562.562 0 01-.35.236 1.224 1.224 0 01-.371.008c0-.075.008-.151.026-.226a.657.657 0 01.082-.204.472.472 0 01.147-.148.395.395 0 01.218-.057.428.428 0 01.264.087.336.336 0 01.084.105c.022.042.036.09.043.144H.261a.214.214 0 00-.055-.105z" fill="none" stroke="#231f20" stroke-linecap="round" stroke-linejoin="round" transform="matrix(.28847 .33224 .37605 -.22844 489.951 355.053)"/><path d="M0 0c.037.027.08.041.129.041A.201.201 0 00.258 0C.293-.027.31-.066.31-.119a.215.215 0 00-.007-.053.134.134 0 00-.027-.055.143.143 0 00-.055-.043.216.216 0 00-.092-.017.226.226 0 00-.069.011.173.173 0 00-.06.032.162.162 0 00-.055.125c0 .053.018.092.055.119zm-.241-.285A.327.327 0 01-.147-.39a.411.411 0 01.13-.062.52.52 0 01.336.014.386.386 0 01.124.084.286.286 0 01.068.106.29.29 0 01-.023.26.237.237 0 01-.132.096v.004a.273.273 0 01.167.103.32.32 0 01.059.194.342.342 0 01-.141.286.456.456 0 01-.145.071.614.614 0 01-.335.002.457.457 0 01-.146-.069.355.355 0 01-.103-.118.35.35 0 01-.039-.17c0-.078.02-.142.059-.195A.288.288 0 01-.1.112V.108A.219.219 0 01-.232.017a.28.28 0 01-.045-.159c0-.054.012-.102.036-.143zm.176.768A.204.204 0 00-.02.549a.244.244 0 00.068.042c.027.01.054.014.083.014.03 0 .057-.004.082-.014A.259.259 0 00.278.549.187.187 0 00.322.483.22.22 0 00.321.321.193.193 0 00.211.22a.21.21 0 00-.08-.014c-.06 0-.11.017-.152.049a.174.174 0 00-.062.143c0 .032.006.06.018.085z" fill="none" stroke="#231f20" stroke-linecap="round" stroke-linejoin="round" transform="matrix(.28847 .33224 .37605 -.22844 490.153 355.387)"/><path d="M0 0l-.312.422h.317V0zm-.504.625V.399L.019-.31h.219v.732h.16v.203h-.16v.281H.005V.625z" fill="none" stroke="#231f20" stroke-linecap="round" stroke-linejoin="round" transform="matrix(.28847 .33224 .37605 -.22844 490.429 355.797)"/><path d="M0 0a.274.274 0 00.083-.021.145.145 0 00.064-.047.128.128 0 00.025-.083.147.147 0 00-.051-.12.183.183 0 00-.119-.041c-.062 0-.109.02-.14.061a.238.238 0 00-.046.155h-.233a.541.541 0 01.034-.171.392.392 0 01.084-.132.356.356 0 01.13-.086.491.491 0 01.444.055c.038.03.069.065.093.107.025.042.037.09.037.143 0 .06-.014.112-.043.157a.21.21 0 01-.126.092v.003A.27.27 0 01.393.17C.43.22.449.279.449.349A.376.376 0 01.17.72.557.557 0 01-.183.717.387.387 0 01-.416.493a.5.5 0 01-.03-.187h.233a.354.354 0 00.015.092c.009.03.022.055.04.077a.176.176 0 00.064.05c.026.013.057.02.092.02a.204.204 0 00.14-.052.177.177 0 00.057-.139.176.176 0 00-.027-.106A.16.16 0 00.1.195.295.295 0 00.01.176 1.549 1.549 0 00-.084.173V0A.588.588 0 000 0z" fill="none" stroke="#231f20" stroke-linecap="round" stroke-linejoin="round" transform="matrix(.28847 .33224 .37605 -.22844 490.758 356.055)"/><path d="M0 0l-.048.276.003.004A.31.31 0 01.062.208.35.35 0 01.191.187c.06 0 .112.01.158.032a.357.357 0 01.189.219A.538.538 0 01.563.6a.424.424 0 01-.134.314.438.438 0 01-.314.121.612.612 0 01-.167-.023.404.404 0 01-.143-.073.348.348 0 01-.098-.12.372.372 0 01-.039-.168h.244c.006.056.026.1.062.133.036.033.081.05.136.05A.18.18 0 00.197.813.182.182 0 00.262.762.239.239 0 00.304.687.283.283 0 00.305.511.19.19 0 00.198.39.203.203 0 00.11.372a.212.212 0 00-.107.024.25.25 0 00-.077.073h-.22l.118-.672h.674V0z" fill="none" stroke="#231f20" stroke-linecap="round" stroke-linejoin="round" transform="matrix(.28847 .33224 .37605 -.22844 490.892 356.402)"/><path d="M0 0l-.312.422h.317V0zm-.504.625V.399L.019-.31h.219v.732h.16v.203h-.16v.281H.005V.625z" fill="none" stroke="#231f20" stroke-linecap="round" stroke-linejoin="round" transform="matrix(.28847 .33224 .37605 -.22844 491.257 356.751)"/><path d="M0 0a.45.45 0 01-.177.037.626.626 0 01-.254-.049.55.55 0 01-.309-.341.738.738 0 01-.041-.251c0-.093.013-.179.041-.258a.602.602 0 01.119-.208.532.532 0 01.19-.139.61.61 0 01.597.063.468.468 0 01.118.136.47.47 0 01.057.188H.083A.265.265 0 00-.01-.979a.274.274 0 00-.167-.051.309.309 0 00-.155.035.3.3 0 00-.104.096.435.435 0 00-.057.136.692.692 0 000 .31c.012.05.031.094.057.133a.31.31 0 00.259.131.291.291 0 00.207-.07.296.296 0 00.085-.198h-.271V-.66H.36v.67H.188L.16-.131A.39.39 0 010 0z" fill="none" stroke="#231f20" stroke-linecap="round" stroke-linejoin="round" transform="matrix(.28847 .33224 .37605 -.22844 492.1 357.128)"/><path d="M0 0a.325.325 0 01-.179.242.467.467 0 01-.219.042.543.543 0 01-.15-.021.38.38 0 01-.129-.068.337.337 0 01-.091-.118.402.402 0 01-.034-.175v-.107h.244v.056c0 .03.002.057.007.083a.2.2 0 00.024.065.125.125 0 00.048.043c.02.01.046.016.078.016a.146.146 0 00.082-.02.11.11 0 00.043-.05.221.221 0 00.015-.065.85.85 0 00.003-.069v-.836h.27v.848A.84.84 0 010 0z" fill="none" stroke="#231f20" stroke-linecap="round" stroke-linejoin="round" transform="matrix(.28847 .33224 .37605 -.22844 492.377 357.612)"/><path d="M0 0a.195.195 0 00.119-.034C.15-.058.165-.095.165-.147A.154.154 0 00.15-.219a.133.133 0 00-.101-.064.395.395 0 00-.07-.007h-.253V0zm.034-.501c.059 0 .112.005.161.016a.325.325 0 01.123.05.231.231 0 01.08.095.333.333 0 01.029.146.273.273 0 01-.042.156.306.306 0 01-.125.102.297.297 0 01.169.116.342.342 0 01.056.199.346.346 0 01-.036.162.31.31 0 01-.097.112.433.433 0 01-.139.065.67.67 0 01-.161.02h-.596V-.501zM.015.526A.456.456 0 00.091.519.174.174 0 00.155.492.13.13 0 00.199.443a.17.17 0 00.016-.08C.215.3.197.254.162.227a.229.229 0 00-.141-.04h-.295v.339z" fill="none" stroke="#231f20" stroke-linecap="round" stroke-linejoin="round" transform="matrix(.28847 .33224 .37605 -.22844 492.425 357.985)"/><path d="M492.665 349.7l-.638.306v1.095l1.923 1.342v-1.099z" fill="none" stroke="#231f20" stroke-width=".44" stroke-linecap="round" stroke-linejoin="round"/><path d="M493.247 349.9l-.638.306-.466.507 1.637.985v-1.1z" fill="none" stroke="#231f20" stroke-width=".44" stroke-linecap="round" stroke-linejoin="round"/><path d="M492.665 350.799l-.638.302 1.284 1.646.64-.303zm-.638.302l.638-.302V349.7l-.638.306z" fill="none" stroke="#231f20" stroke-width=".44" stroke-linecap="round" stroke-linejoin="round"/><path d="M493.343 352.653l.517-.218-.517-.66s.352.485.33.582c-.022.098-.16.206-.33.296zm-.096-2.753v.545l-.31-.397zm1.904 3.02l-.638.306v1.095l1.922 1.342v-1.1z" fill="none" stroke="#231f20" stroke-width=".44" stroke-linecap="round" stroke-linejoin="round"/><path d="M495.733 353.12l-.638.306-.465.507 1.636.985v-1.1z" fill="none" stroke="#231f20" stroke-width=".44" stroke-linecap="round" stroke-linejoin="round"/><path d="M495.151 354.019l-.638.302 1.283 1.646.64-.303zm-.638.302l.638-.302v-1.099l-.638.306z" fill="none" stroke="#231f20" stroke-width=".44" stroke-linecap="round" stroke-linejoin="round"/><path d="M495.829 355.872l.517-.218-.517-.659s.352.484.33.581c-.022.098-.161.206-.33.296zm-.096-2.752v.545l-.31-.397zm1.782 2.846l-.638.306v1.095l1.922 1.342v-1.099z" fill="none" stroke="#231f20" stroke-width=".44" stroke-linecap="round" stroke-linejoin="round"/><path d="M498.097 356.166l-.638.306-.465.507 1.636.985v-1.1z" fill="none" stroke="#231f20" stroke-width=".44" stroke-linecap="round" stroke-linejoin="round"/><path d="M497.515 357.065l-.638.302 1.283 1.646.64-.303z" fill="none" stroke="#231f20" stroke-width=".44" stroke-linecap="round" stroke-linejoin="round"/><path d="M496.877 357.368l.638-.302v-1.1l-.638.307zm1.316 1.551l.517-.218-.517-.66s.352.485.33.582c-.022.098-.161.206-.33.296zm-.096-2.753v.545l-.31-.397zm1.723 2.69l-.638.306v1.095l1.923 1.342v-1.1z" fill="none" stroke="#231f20" stroke-width=".44" stroke-linecap="round" stroke-linejoin="round"/><path d="M500.402 359.055l-.638.306-.466.507 1.637.985v-1.1z" fill="none" stroke="#231f20" stroke-width=".44" stroke-linecap="round" stroke-linejoin="round"/><path d="M499.82 359.954l-.638.302 1.284 1.646.64-.303z" fill="none" stroke="#231f20" stroke-width=".44" stroke-linecap="round" stroke-linejoin="round"/><path d="M499.183 360.257l.638-.302v-1.1l-.638.307zm1.315 1.551l.517-.218-.517-.659s.352.484.33.581c-.022.098-.16.206-.33.296zm-.096-2.753v.545l-.309-.397zm-5.474 7.837l6.177-2.766-10.177-13.055s10.107 13.055 4 15.821z" fill="none" stroke="#231f20" stroke-width=".44" stroke-linecap="round" stroke-linejoin="round"/><path d="M490.928 348.053l-6.658 3.158v2.496l10.63 11.129 6.656-.661v-2.496z" fill="#231f20"/></g><path d="M484.27 353.706l6.658-3.159 10.628 13.627-6.657 3.157z" fill="url(#I)" transform="matrix(.62536 0 0 -.62538 -291.849 240.402)"/><g clip-path="url(#J)" transform="matrix(.62536 0 0 -.62538 -291.849 240.402)"><path d="M484.27 353.706v-2.496l6.658-3.158v2.495z" fill="#231f20"/><text transform="matrix(.60537 .6972 .79594 -.48355 486.97 353.97)" style="-inkscape-font-specification:HelveticaNeue-Bold" font-weight="700" font-size="1.23" font-family="HelveticaNeue" fill="#fff"><tspan x="0 0.68415123 1.3683025 2.2800939 2.9642453 3.6483965 4.3325477" y="0">85H9533</tspan></text><text transform="matrix(.60533 .69724 .79597 -.48356 487.754 353.495)" style="-inkscape-font-specification:HelveticaNeue-Bold" font-weight="700" font-size=".82" font-family="HelveticaNeue" fill="#fff"><tspan x="0 0.45613033 0.91226065 1.368391 1.8245213 2.2806516 2.7367821 3.1929123 3.6490426 4.1051731 4.5613031 5.0174336 5.4735641 5.9296942 6.3858247" y="0">164324984354684</tspan> <tspan x="0 0.62266713 1.2305675 1.8384678 2.0665329 2.5226634 2.9787936 3.4349239 3.8910544 4.3471847 4.8033152 5.2594452 5.4875107 6.1101775 6.566308" y=".984">GHN 1684354 GJB</tspan></text><path d="M492.665 349.7l-.638.306v1.095l1.923 1.342v-1.099z" fill="#bbbaba"/><path d="M493.247 349.9l-.638.306-.466.507 1.637.985v-1.1z" fill="#bbbaba"/><path d="M492.665 350.799l-.638.302 1.284 1.646.64-.303z" fill="#cccbcc"/><path d="M492.027 351.101l.638-.302V349.7l-.638.306z" fill="#abaaaa"/><path d="M493.343 352.653l.517-.218-.517-.66s.352.485.33.582c-.022.098-.16.206-.33.296" fill="#fff"/><path d="M493.247 349.9v.545l-.31-.397z" fill="#abaaaa"/><path d="M495.151 352.92l-.638.306v1.095l1.922 1.342v-1.1z" fill="#bbbaba"/><path d="M495.733 353.12l-.638.306-.465.507 1.636.985v-1.1z" fill="#bbbaba"/><path d="M495.151 354.019l-.638.302 1.283 1.646.64-.303z" fill="#cccbcc"/><path d="M494.513 354.321l.638-.302v-1.099l-.638.306z" fill="#abaaaa"/><path d="M495.829 355.872l.517-.218-.517-.659s.352.484.33.581c-.022.098-.161.206-.33.296" fill="#fff"/><path d="M495.733 353.12v.545l-.31-.397z" fill="#abaaaa"/><path d="M497.515 355.966l-.638.306v1.095l1.922 1.342v-1.099z" fill="#bbbaba"/><path d="M498.097 356.166l-.638.306-.465.507 1.636.985v-1.1z" fill="#bbbaba"/><path d="M497.515 357.065l-.638.302 1.283 1.646.64-.303z" fill="#cccbcc"/><path d="M496.877 357.368l.638-.302v-1.1l-.638.307z" fill="#abaaaa"/><path d="M498.193 358.919l.517-.218-.517-.66s.352.485.33.582c-.022.098-.161.206-.33.296" fill="#fff"/><path d="M498.097 356.166v.545l-.31-.397z" fill="#abaaaa"/><path d="M499.82 358.856l-.638.306v1.095l1.923 1.342v-1.1z" fill="#bbbaba"/><path d="M500.402 359.055l-.638.306-.466.507 1.637.985v-1.1z" fill="#bbbaba"/><path d="M499.82 359.954l-.638.302 1.284 1.646.64-.303z" fill="#cccbcc"/><path d="M499.183 360.257l.638-.302v-1.1l-.638.307z" fill="#abaaaa"/><path d="M500.498 361.808l.517-.218-.517-.659s.352.484.33.581c-.022.098-.16.206-.33.296" fill="#fff"/><path d="M500.402 359.055v.545l-.309-.397z" fill="#abaaaa"/></g><g clip-path="url(#K)" transform="matrix(.62536 0 0 -.62538 -291.849 240.402)"><g mask="url(#L)"><path d="M490.928 351.072l10.177 13.054-6.177 2.766c6.106-2.766-4-15.82-4-15.82" fill="url(#M)"/></g></g><g clip-path="url(#N)" transform="matrix(.62536 0 0 -.62538 -291.849 240.402)"><path d="M499.885 367.56a.97.97 0 00-1.13-.273l-3.242 1.535c-.37.177-.463.581-.208.91l4.926 6.318c.254.324.761.448 1.131.271l3.242-1.539c.37-.177.463-.582.21-.907z" fill="none" stroke="#f68712" stroke-width=".44"/><path d="M499.885 368.3a.971.971 0 00-1.13-.271l-3.242 1.536c-.37.176-.463.579-.208.909l4.926 6.318a.974.974 0 001.131.272l3.242-1.54c.37-.174.463-.582.21-.908z" fill="none" stroke="#f68712" stroke-width=".44"/><path d="M501.14 376.517l3.485-1.56-5.743-7.367s5.703 7.366 2.257 8.927z" fill="none" stroke="#f68712" stroke-width=".44"/><path d="M499.885 367.56a.97.97 0 00-1.13-.273l-3.242 1.535c-.37.177-.463.581-.208.91l4.926 6.318c.254.324.761.448 1.131.271l3.242-1.539c.37-.177.463-.582.21-.907z" fill="#fab80a"/><path d="M499.885 368.3a.971.971 0 00-1.13-.271l-3.242 1.536c-.37.176-.463.579-.208.909l4.926 6.318a.974.974 0 001.131.272l3.242-1.54c.37-.174.463-.582.21-.908z" fill="#fff200"/></g><g clip-path="url(#O)" transform="matrix(.62536 0 0 -.62538 -291.849 240.402)"><g mask="url(#P)"><path d="M498.883 367.59l5.742 7.366-3.486 1.561c3.438-1.557-2.23-8.893-2.256-8.927" fill="url(#Q)"/></g></g><g clip-path="url(#R)" transform="matrix(.62536 0 0 -.62538 -291.849 240.402)"><path d="M487.835 364.197c-.398-.511-1.192-.701-1.774-.429-.58.277-.728.917-.33 1.428.4.51 1.193.701 1.774.422.581-.271.73-.908.33-1.421z" fill="none" stroke="#f68712" stroke-width=".44"/><path d="M485.605 363.184c-.948.45-1.188 1.492-.537 2.328.651.834 1.946 1.144 2.894.693.947-.451 1.188-1.49.537-2.322-.65-.835-1.947-1.146-2.894-.7zm2.987 3.83c-1.456.693-3.444.215-4.444-1.067-1-1.28-.629-2.881.827-3.571 1.455-.69 3.444-.213 4.444 1.073 1 1.28.63 2.874-.827 3.565z" fill="none" stroke="#f68712" stroke-width=".44"/><path d="M487.835 364.197c-.398-.511-1.192-.701-1.774-.429-.58.277-.728.917-.33 1.428.4.51 1.193.701 1.774.422.581-.271.73-.908.33-1.421" fill="#fab80a"/><path d="M485.605 363.184c-.948.45-1.188 1.492-.537 2.328.651.834 1.946 1.144 2.894.693.947-.451 1.188-1.49.537-2.322-.65-.835-1.947-1.146-2.894-.7m2.987 3.83c-1.456.694-3.444.216-4.444-1.066-1-1.28-.629-2.881.827-3.571 1.455-.69 3.444-.213 4.444 1.073 1 1.28.63 2.874-.827 3.565" fill="#fab80a"/><path d="M487.835 364.775c-.398-.51-1.192-.7-1.774-.43-.58.28-.728.918-.33 1.431.4.51 1.193.698 1.774.421.581-.274.73-.909.33-1.422z" fill="none" stroke="#f68712" stroke-width=".44"/><path d="M485.605 363.764c-.948.449-1.188 1.489-.537 2.326.651.833 1.946 1.144 2.894.694.947-.452 1.188-1.491.537-2.323-.65-.835-1.947-1.145-2.894-.697zm2.987 3.828c-1.456.693-3.444.217-4.444-1.067-1-1.28-.629-2.88.827-3.572 1.455-.687 3.444-.212 4.444 1.073 1 1.28.63 2.875-.827 3.566z" fill="none" stroke="#f68712" stroke-width=".44"/><path d="M487.835 364.775c-.398-.51-1.192-.7-1.774-.43-.58.28-.728.918-.33 1.431.4.51 1.193.698 1.774.421.581-.274.73-.909.33-1.422" fill="#fff200"/><path d="M485.605 363.764c-.948.449-1.188 1.489-.537 2.326.651.833 1.946 1.144 2.894.694.947-.452 1.188-1.491.537-2.323-.65-.835-1.947-1.145-2.894-.697m2.987 3.828c-1.456.693-3.444.217-4.444-1.067-1-1.28-.629-2.88.827-3.572 1.455-.687 3.444-.212 4.444 1.073 1 1.28.63 2.875-.827 3.566" fill="#fff200"/></g><g clip-path="url(#S)" transform="matrix(.62536 0 0 -.62538 -291.849 240.402)"><g mask="url(#T)"><path d="M487.02 366.29s.981-.372.538-1.695c0 0 1.223 1.239-.538 1.695z" fill="url(#U)"/></g></g><g clip-path="url(#V)" transform="matrix(.62536 0 0 -.62538 -291.849 240.402)"><g mask="url(#W)"><path d="M487.495 367.843c4.071-1.234 1.116-4.482 1.116-4.482 1.598 1.044 1.266 2.566 1.266 2.566-.372 1.762-2.382 1.916-2.382 1.916z" fill="url(#X)"/></g></g><g clip-path="url(#Y)" transform="matrix(.62536 0 0 -.62538 -291.849 240.402)"><path d="M483.206 359.751l-.347.271 1.943 2.489.347-.271z" fill="none" stroke="#f68712" stroke-width=".44"/><path d="M483.206 359.751l-.347.271 1.943 2.489.347-.271z" fill="#fff200"/><path d="M482.1 356.989c-.399-.511-1.193-.701-1.775-.429-.58.277-.728.917-.33 1.428.4.51 1.193.701 1.774.422.581-.271.73-.908.33-1.421z" fill="none" stroke="#f68712" stroke-width=".44"/><path d="M479.87 355.976c-.949.45-1.189 1.492-.538 2.328.651.834 1.946 1.144 2.894.693.947-.451 1.188-1.49.537-2.322-.65-.835-1.947-1.146-2.894-.7zm2.986 3.83c-1.456.693-3.444.215-4.444-1.067-1-1.28-.629-2.881.827-3.571 1.455-.69 3.444-.213 4.444 1.073 1 1.28.63 2.874-.827 3.565z" fill="none" stroke="#f68712" stroke-width=".44"/><path d="M482.1 356.989c-.399-.511-1.193-.701-1.775-.429-.58.277-.728.917-.33 1.428.4.51 1.193.701 1.774.422.581-.271.73-.908.33-1.421" fill="#fab80a"/><path d="M479.87 355.976c-.949.45-1.189 1.492-.538 2.328.651.834 1.946 1.144 2.894.693.947-.451 1.188-1.49.537-2.322-.65-.835-1.947-1.146-2.894-.7m2.987 3.83c-1.456.694-3.444.216-4.444-1.066-1-1.28-.629-2.881.827-3.571 1.455-.69 3.444-.213 4.444 1.073 1 1.28.63 2.874-.827 3.565" fill="#fab80a"/><path d="M482.1 357.567c-.399-.51-1.193-.7-1.775-.43-.58.28-.728.918-.33 1.431.4.51 1.193.698 1.774.421.581-.274.73-.909.33-1.422z" fill="none" stroke="#f68712" stroke-width=".44"/><path d="M479.87 356.556c-.949.449-1.189 1.489-.538 2.326.651.833 1.946 1.144 2.894.694.947-.452 1.188-1.491.537-2.323-.65-.835-1.947-1.145-2.894-.697zm2.986 3.828c-1.456.693-3.444.217-4.444-1.067-1-1.28-.629-2.88.827-3.572 1.455-.687 3.444-.212 4.444 1.073 1 1.28.63 2.875-.827 3.566z" fill="none" stroke="#f68712" stroke-width=".44"/><path d="M482.1 357.567c-.399-.51-1.193-.7-1.775-.43-.58.28-.728.918-.33 1.431.4.51 1.193.698 1.774.421.581-.274.73-.909.33-1.422" fill="#fff200"/><path d="M479.87 356.556c-.949.449-1.189 1.489-.538 2.326.651.833 1.946 1.144 2.894.694.947-.452 1.188-1.491.537-2.323-.65-.835-1.947-1.145-2.894-.697m2.987 3.828c-1.456.693-3.444.217-4.444-1.067-1-1.28-.629-2.88.827-3.572 1.455-.687 3.444-.212 4.444 1.073 1 1.28.63 2.875-.827 3.566" fill="#fff200"/></g><g clip-path="url(#Z)" transform="matrix(.62536 0 0 -.62538 -291.849 240.402)"><g mask="url(#aa)"><path d="M481.283 359.082s.981-.371.539-1.694c0 0 1.222 1.238-.539 1.694z" fill="url(#ab)"/></g></g><g clip-path="url(#ac)" transform="matrix(.62536 0 0 -.62538 -291.849 240.402)"><g mask="url(#ad)"><path d="M481.759 360.634c4.071-1.233 1.115-4.482 1.115-4.482 1.599 1.045 1.267 2.567 1.267 2.567-.373 1.761-2.382 1.915-2.382 1.915z" fill="url(#ae)"/></g></g><g clip-path="url(#af)" transform="matrix(.62536 0 0 -.62538 -291.849 240.402)"><path d="M506.61 355.085c-.397-.511-1.191-.701-1.773-.43-.581.278-.728.918-.33 1.429.399.51 1.193.7 1.774.422.58-.271.729-.908.33-1.421z" fill="none" stroke="#f68712" stroke-width=".44"/><path d="M504.38 354.071c-.947.45-1.187 1.492-.536 2.328.65.834 1.946 1.144 2.894.693.947-.45 1.188-1.489.537-2.322-.65-.835-1.947-1.146-2.894-.699zm2.988 3.83c-1.456.693-3.444.215-4.444-1.067-1.001-1.28-.63-2.88.827-3.57 1.455-.69 3.444-.214 4.444 1.072 1 1.28.629 2.874-.827 3.565z" fill="none" stroke="#f68712" stroke-width=".44"/><path d="M506.61 355.085c-.397-.511-1.191-.701-1.773-.43-.581.278-.728.918-.33 1.429.399.51 1.193.7 1.774.422.58-.271.729-.908.33-1.421" fill="#fab80a"/><path d="M504.38 354.071c-.947.45-1.187 1.492-.536 2.328.65.834 1.946 1.144 2.894.693.947-.45 1.188-1.489.537-2.322-.65-.835-1.947-1.146-2.894-.699m2.987 3.83c-1.456.693-3.444.215-4.444-1.067-1.001-1.28-.63-2.88.827-3.57 1.455-.69 3.444-.214 4.444 1.072 1 1.28.629 2.874-.827 3.565" fill="#fab80a"/><path d="M506.61 355.663c-.397-.511-1.191-.701-1.773-.43-.581.279-.728.918-.33 1.431.399.509 1.193.698 1.774.421.58-.274.729-.909.33-1.422z" fill="none" stroke="#f68712" stroke-width=".44"/><path d="M504.38 354.651c-.947.45-1.187 1.49-.536 2.326.65.834 1.946 1.145 2.894.695.947-.452 1.188-1.491.537-2.323-.65-.835-1.947-1.145-2.894-.697zm2.988 3.828c-1.456.693-3.444.217-4.444-1.067-1.001-1.28-.63-2.88.827-3.572 1.455-.687 3.444-.212 4.444 1.073 1 1.281.629 2.875-.827 3.566z" fill="none" stroke="#f68712" stroke-width=".44"/><path d="M506.61 355.663c-.397-.511-1.191-.701-1.773-.43-.581.279-.728.918-.33 1.431.399.509 1.193.698 1.774.421.58-.274.729-.909.33-1.422" fill="#fff200"/><path d="M504.38 354.651c-.947.45-1.187 1.49-.536 2.326.65.834 1.946 1.145 2.894.695.947-.452 1.188-1.491.537-2.323-.65-.835-1.947-1.145-2.894-.697m2.987 3.828c-1.456.693-3.444.217-4.444-1.067-1.001-1.28-.63-2.88.827-3.572 1.455-.687 3.444-.212 4.444 1.073 1 1.28.629 2.875-.827 3.566" fill="#fff200"/></g><g clip-path="url(#ag)" transform="matrix(.62536 0 0 -.62538 -291.849 240.402)"><g mask="url(#ah)"><path d="M505.795 357.178s.981-.371.54-1.694c0 0 .109.111.216.281v1.038c-.145.147-.384.278-.756.375z" fill="url(#ai)"/></g></g><g clip-path="url(#aj)" transform="matrix(.62536 0 0 -.62538 -291.849 240.402)"><g mask="url(#ak)"><path d="M506.271 358.731c.097-.03.19-.06.28-.093v.049c-.171.035-.28.044-.28.044z" fill="url(#al)"/></g></g><g clip-path="url(#am)" transform="matrix(.62536 0 0 -.62538 -291.849 240.402)"><path d="M508.387 349.807l-5.32 2.521.803 1.03-.347.27-1.943-2.49.347-.272.864 1.107 5.408-2.564z" fill="none" stroke="#f68712" stroke-width=".44"/><path d="M508.387 349.807l-5.32 2.521.803 1.03-.347.27-1.943-2.49.347-.272.864 1.107 5.408-2.564z" fill="#fff200"/><path d="M503.311 343.303l-5.318 2.522.316.404-.347.271-.98-1.255-2.207-.642-15.989 7.587-.34 1.463 1.141 1.46-.346.27-1.27-1.624.434-1.876 16.332-7.749 2.504.728.475.608 5.407-2.565z" fill="none" stroke="#f68712" stroke-width=".44"/><path d="M503.311 343.303l-5.318 2.522.316.404-.347.271-.98-1.255-2.207-.642-15.989 7.587-.34 1.463 1.141 1.46-.346.27-1.27-1.624.434-1.876 16.332-7.749 2.504.728.475.608 5.407-2.565z" fill="#fff200"/><path d="M528.97 370.067l-5.318 2.522.316.404-.347.271-.98-1.255-2.207-.642-15.989 7.587-.339 1.463 1.141 1.46-.347.27-1.27-1.624.434-1.876 16.332-7.749 2.504.728.475.608 5.407-2.565z" fill="none" stroke="#f68712" stroke-width=".44"/><path d="M528.97 370.067l-5.318 2.522.316.404-.347.271-.98-1.255-2.207-.642-15.989 7.587-.339 1.463 1.141 1.46-.347.27-1.27-1.624.434-1.876 16.332-7.749 2.504.728.475.608 5.407-2.565z" fill="#fff200"/><path d="M501.104 348.006c-.398-.511-1.192-.701-1.774-.429-.58.277-.728.917-.33 1.428.4.51 1.193.701 1.774.422.581-.271.73-.908.33-1.421z" fill="none" stroke="#f68712" stroke-width=".44"/><path d="M498.875 346.993c-.948.45-1.188 1.492-.537 2.328.65.834 1.946 1.144 2.894.693.947-.451 1.188-1.49.537-2.322-.65-.835-1.947-1.146-2.894-.7zm2.987 3.83c-1.456.693-3.444.215-4.444-1.067-1.001-1.28-.63-2.881.827-3.571 1.455-.69 3.444-.213 4.444 1.073 1 1.28.629 2.874-.827 3.565z" fill="none" stroke="#f68712" stroke-width=".44"/><path d="M501.104 348.006c-.398-.511-1.192-.701-1.774-.429-.58.277-.728.917-.33 1.428.4.51 1.193.701 1.774.422.581-.271.73-.908.33-1.421" fill="#fab80a"/><path d="M498.875 346.993c-.948.45-1.188 1.492-.537 2.328.65.834 1.946 1.144 2.894.693.947-.451 1.188-1.49.537-2.322-.65-.835-1.947-1.146-2.894-.7m2.987 3.83c-1.456.694-3.444.216-4.444-1.066-1.001-1.28-.63-2.881.827-3.571 1.455-.69 3.444-.213 4.444 1.073 1 1.28.629 2.874-.827 3.565" fill="#fab80a"/><path d="M501.104 348.584c-.398-.51-1.192-.7-1.774-.429-.58.278-.728.917-.33 1.43.4.51 1.193.698 1.774.421.581-.274.73-.909.33-1.422z" fill="none" stroke="#f68712" stroke-width=".44"/><path d="M498.875 347.573c-.948.449-1.188 1.489-.537 2.326.65.833 1.946 1.144 2.894.694.947-.452 1.188-1.491.537-2.323-.65-.835-1.947-1.145-2.894-.697zm2.987 3.828c-1.456.693-3.444.217-4.444-1.067-1.001-1.28-.63-2.88.827-3.572 1.455-.687 3.444-.212 4.444 1.073 1 1.28.629 2.875-.827 3.566z" fill="none" stroke="#f68712" stroke-width=".44"/><path d="M501.104 348.584c-.398-.51-1.192-.7-1.774-.429-.58.278-.728.917-.33 1.43.4.51 1.193.698 1.774.421.581-.274.73-.909.33-1.422" fill="#fff200"/><path d="M498.875 347.573c-.948.449-1.188 1.489-.537 2.326.65.833 1.946 1.144 2.894.694.947-.452 1.188-1.491.537-2.323-.65-.835-1.947-1.145-2.894-.697m2.987 3.828c-1.456.693-3.444.217-4.444-1.067-1.001-1.28-.63-2.88.827-3.572 1.455-.687 3.444-.212 4.444 1.073 1 1.28.629 2.875-.827 3.566" fill="#fff200"/></g><g clip-path="url(#an)" transform="matrix(.62536 0 0 -.62538 -291.849 240.402)"><g mask="url(#ao)"><path d="M500.288 350.099s.981-.372.539-1.695c0 0 1.223 1.239-.539 1.695z" fill="url(#ap)"/></g></g><g clip-path="url(#aq)" transform="matrix(.62536 0 0 -.62538 -291.849 240.402)"><g mask="url(#ar)"><path d="M500.764 351.652c4.07-1.234 1.116-4.482 1.116-4.482 1.599 1.045 1.267 2.566 1.267 2.566-.374 1.761-2.383 1.916-2.383 1.916z" fill="url(#as)"/></g></g><g clip-path="url(#at)" transform="matrix(.62536 0 0 -.62538 -291.849 240.402)"><path d="M471.68 330.328l-6.658 3.157v2.498l10.628 11.13 6.66-.662v-2.496z" fill="none" stroke="#231f20" stroke-width=".44" stroke-linecap="round" stroke-linejoin="round"/><path d="M481.047 342.84l-.638.301 1.284 1.648.64-.304zm-9.367-10.014l-6.658 3.157 10.628 13.626 6.66-3.158z" fill="none" stroke="#231f20" stroke-width=".44" stroke-linecap="round" stroke-linejoin="round"/><path d="M475.654 349.118l6.177-2.766-10.177-13.055s10.107 13.055 4 15.821z" fill="none" stroke="#231f20" stroke-width=".44" stroke-linecap="round" stroke-linejoin="round"/><path d="M471.68 330.328l-6.658 3.157v2.498l10.628 11.13 6.66-.662v-2.496z" fill="#231f20"/><path d="M481.047 342.84l-.638.301 1.284 1.648.64-.304z" fill="#cccbcc"/></g><path d="M472.117 345.08c.701-.328 1.564-.53 2.629-.53h6.079l1.484 1.901-6.659 3.158z" fill="url(#au)" transform="matrix(.62536 0 0 -.62538 -291.849 240.402)"/><g clip-path="url(#av)" transform="matrix(.62536 0 0 -.62538 -291.849 240.402)"><g mask="url(#aw)"><path d="M477.496 344.55h2.93l1.406 1.802-6.177 2.766c1.811-.82 2.195-2.547 1.841-4.568" fill="url(#ax)"/></g></g><path d="M0 0s-5.613 0-5.613-5.613v-26.192s0-5.612 5.613-5.612h26.192s5.613 0 5.613 5.612v26.192S31.805 0 26.192 0z" fill="none" stroke="#231f20" stroke-width=".66" transform="matrix(.62536 0 0 -.62538 5.04 1.53)"/></svg>