<svg xmlns="http://www.w3.org/2000/svg" width="100" height="100" viewBox="0 0 26.458 26.458"><defs><linearGradient id="r" spreadMethod="pad" gradientTransform="matrix(0 10.59644 10.59644 0 185.978 306.889)" gradientUnits="userSpaceOnUse" y2="0" x2="1" y1="0" x1="0"><stop offset="0" stop-color="#fff"/><stop offset="1" stop-color="#fff"/></linearGradient><linearGradient id="E" spreadMethod="pad" gradientTransform="translate(17.325 689.995) scale(7.88329)" gradientUnits="userSpaceOnUse" y2="0" x2="1" y1="0" x1="0"><stop offset="0" stop-color="#656263"/><stop offset="1" stop-color="#231f20"/></linearGradient><linearGradient id="i" spreadMethod="pad" gradientTransform="matrix(0 10.80742 10.80742 0 192.778 320.099)" gradientUnits="userSpaceOnUse" y2="0" x2="1" y1="0" x1="0"><stop offset="0" stop-opacity="0" stop-color="#fff"/><stop offset=".281" stop-opacity="0" stop-color="#fff"/><stop offset="1" stop-opacity=".3" stop-color="#fff"/></linearGradient><linearGradient id="x" spreadMethod="pad" gradientTransform="matrix(0 10.80742 10.80742 0 192.778 320.099)" gradientUnits="userSpaceOnUse" y2="0" x2="1" y1="0" x1="0"><stop offset="0" stop-color="#abe4fa"/><stop offset=".281" stop-color="#abe4fa"/><stop offset="1" stop-color="#abe4fa"/></linearGradient><linearGradient id="f" spreadMethod="pad" gradientTransform="matrix(0 3.07998 3.07998 0 201.642 312.316)" gradientUnits="userSpaceOnUse" y2="0" x2="1" y1="0" x1="0"><stop offset="0" stop-opacity="0" stop-color="#fff"/><stop offset=".41" stop-color="#fff"/><stop offset="1" stop-color="#fff"/></linearGradient><linearGradient id="u" spreadMethod="pad" gradientTransform="matrix(0 3.07998 3.07998 0 201.642 312.316)" gradientUnits="userSpaceOnUse" y2="0" x2="1" y1="0" x1="0"><stop offset="0" stop-color="#fff"/><stop offset=".41" stop-color="#fff"/><stop offset="1" stop-color="#fff"/></linearGradient><linearGradient id="D" spreadMethod="pad" gradientTransform="translate(10.431 689.995) scale(6.19661)" gradientUnits="userSpaceOnUse" y2="0" x2="1" y1="0" x1="0"><stop offset="0" stop-color="#656263"/><stop offset="1" stop-color="#231f20"/></linearGradient><linearGradient id="c" spreadMethod="pad" gradientTransform="matrix(0 10.59644 10.59644 0 185.978 306.889)" gradientUnits="userSpaceOnUse" y2="0" x2="1" y1="0" x1="0"><stop offset="0" stop-opacity="0" stop-color="#fff"/><stop offset="1" stop-color="#fff"/></linearGradient><linearGradient id="F" spreadMethod="pad" gradientTransform="translate(-.66 685.155) scale(12.5216)" gradientUnits="userSpaceOnUse" y2="0" x2="1" y1="0" x1="0"><stop offset="0" stop-color="#656263"/><stop offset="1" stop-color="#231f20"/></linearGradient><linearGradient id="o" spreadMethod="pad" gradientTransform="matrix(0 25.79115 25.79115 0 192.88 305.59)" gradientUnits="userSpaceOnUse" y2="0" x2="1" y1="0" x1="0"><stop offset="0" stop-color="#d3d2d2"/><stop offset=".5" stop-color="#fff"/><stop offset="1" stop-color="#fff"/></linearGradient><linearGradient id="m" spreadMethod="pad" gradientTransform="matrix(0 28.01239 28.01239 0 192.879 303.993)" gradientUnits="userSpaceOnUse" y2="0" x2="1" y1="0" x1="0"><stop offset="0" stop-color="#fff"/><stop offset=".5" stop-color="#fff"/><stop offset="1" stop-color="#d3d2d2"/></linearGradient><linearGradient id="k" spreadMethod="pad" gradientTransform="matrix(0 37.41732 37.41732 0 192.87 299.649)" gradientUnits="userSpaceOnUse" y2="0" x2="1" y1="0" x1="0"><stop offset="0" stop-color="#385783"/><stop offset="1" stop-color="#50ade5"/></linearGradient><linearGradient id="z" spreadMethod="pad" gradientTransform="translate(-.66 680.315) scale(5.44496)" gradientUnits="userSpaceOnUse" y2="0" x2="1" y1="0" x1="0"><stop offset="0" stop-color="#656263"/><stop offset="1" stop-color="#231f20"/></linearGradient><linearGradient id="A" spreadMethod="pad" gradientTransform="translate(5.5 680.315) scale(2.43832)" gradientUnits="userSpaceOnUse" y2="0" x2="1" y1="0" x1="0"><stop offset="0" stop-color="#656263"/><stop offset="1" stop-color="#231f20"/></linearGradient><linearGradient id="B" spreadMethod="pad" gradientTransform="translate(8.773 680.315) scale(16.3398)" gradientUnits="userSpaceOnUse" y2="0" x2="1" y1="0" x1="0"><stop offset="0" stop-color="#656263"/><stop offset="1" stop-color="#231f20"/></linearGradient><linearGradient id="C" spreadMethod="pad" gradientTransform="translate(-.66 689.995) scale(10.4224)" gradientUnits="userSpaceOnUse" y2="0" x2="1" y1="0" x1="0"><stop offset="0" stop-color="#656263"/><stop offset="1" stop-color="#231f20"/></linearGradient><linearGradient id="G" spreadMethod="pad" gradientTransform="translate(12.54 685.155) scale(12.5216)" gradientUnits="userSpaceOnUse" y2="0" x2="1" y1="0" x1="0"><stop offset="0" stop-color="#656263"/><stop offset="1" stop-color="#231f20"/></linearGradient><clipPath id="b" clipPathUnits="userSpaceOnUse"><path d="M178.524 317.485h15.348v-10.596h-15.348z"/></clipPath><clipPath id="a" clipPathUnits="userSpaceOnUse"><path d="M-14243.7 14717h28835.2v-28835.2h-28835.2z"/></clipPath><clipPath id="p" clipPathUnits="userSpaceOnUse"><path d="M178.524 317.485c.881-3.629 4.693-5.058 4.693-5.058l8.727-.002c.953.037.935-.66.935-.66.202-2.016-.716-4.876-.716-4.876l.917 2.86c.792 2.435 0 2.824 0 2.824-.44.55-7.102.165-7.102.165-5.848.388-7.454 4.747-7.454 4.747z"/></clipPath><clipPath id="e" clipPathUnits="userSpaceOnUse"><path d="M196.894 315.396h9.496v-3.08h-9.496z"/></clipPath><clipPath id="d" clipPathUnits="userSpaceOnUse"><path d="M-14243.7 14717h28835.2v-28835.2h-28835.2z"/></clipPath><clipPath id="s" clipPathUnits="userSpaceOnUse"><path d="M202.1 312.719s-2.53.037-5.206-.403h5.169s1.91.38 4.328 3.08c0 0-2.129-1.951-4.291-2.677"/></clipPath><clipPath id="h" clipPathUnits="userSpaceOnUse"><path d="M178.286 330.906h28.985v-10.807h-28.985z"/></clipPath><clipPath id="g" clipPathUnits="userSpaceOnUse"><path d="M-32768 32767h65535v-65535h-65535z"/></clipPath><clipPath id="v" clipPathUnits="userSpaceOnUse"><path d="M183.64 330.906c-2.958 0-5.355-2.419-5.355-5.404 0-2.984 2.397-5.404 5.355-5.404h18.277c2.956 0 5.353 2.42 5.353 5.404 0 2.985-2.397 5.404-5.353 5.404z"/></clipPath><clipPath id="y" clipPathUnits="userSpaceOnUse"><path d="M179.773 337.066s-5.612 0-5.612-5.612v-26.196c.001-.171.087-5.609 5.612-5.609h26.192s5.613 0 5.613 5.612v26.193s0 5.612-5.613 5.612z"/></clipPath><clipPath id="l" clipPathUnits="userSpaceOnUse"><path d="M184.024 332.005c-4 0-7.241-5.002-7.241-9.001v-2.53c0-3.999 3.241-9.002 7.241-9.002h7.902c-.074-5.28-2.347-7.479-2.347-7.479 5.133 1.834 6.6 7.479 6.6 7.479h5.555c4 0 7.241 5.003 7.241 9.002v2.53c0 3.999-3.241 9.001-7.241 9.001z"/></clipPath><clipPath id="n" clipPathUnits="userSpaceOnUse"><path d="M184.024 331.382c-3.65 0-6.618-4.729-6.618-8.378v-2.53c0-3.649 2.968-8.378 6.618-8.378h7.902a.62.62 0 00.624-.632c-.037-2.666-.615-4.589-1.211-5.874 3.192 2.197 4.225 5.995 4.237 6.039.071.275.32.467.603.467h5.555c3.649 0 6.619 4.729 6.619 8.378v2.53c0 3.649-2.97 8.378-6.619 8.378z"/></clipPath><clipPath id="j" clipPathUnits="userSpaceOnUse"><path d="M179.773 337.066s-5.612 0-5.612-5.612v-26.196c.001-.171.087-5.609 5.612-5.609h26.192s5.613 0 5.613 5.612v26.193s0 5.612-5.613 5.612z"/></clipPath><mask id="q" height="1" width="1" y="0" x="0" maskUnits="userSpaceOnUse"><g clip-path="url(#a)"><g clip-path="url(#b)"><path d="M178.524 317.485h15.348v-10.596h-15.348z" fill="url(#c)"/></g></g></mask><mask id="t" height="1" width="1" y="0" x="0" maskUnits="userSpaceOnUse"><g clip-path="url(#d)"><g clip-path="url(#e)"><path d="M196.894 315.396h9.496v-3.08h-9.496z" fill="url(#f)"/></g></g></mask><mask id="w" height="1" width="1" y="0" x="0" maskUnits="userSpaceOnUse"><g clip-path="url(#g)"><g clip-path="url(#h)"><path d="M178.286 330.906h28.985v-10.807h-28.985z" fill="url(#i)"/></g></g></mask></defs><g clip-path="url(#j)" transform="matrix(.6244 0 0 -.62815 -107.2 213.167)"><path d="M179.773 337.066s-5.612 0-5.612-5.612v-26.196c.001-.171.087-5.609 5.612-5.609h26.192s5.613 0 5.613 5.612v26.193s0 5.612-5.613 5.612z" fill="url(#k)"/><path d="M201.734 332.006h-17.71c-4 0-7.242-5.002-7.242-9.001v-2.53c0-4 3.242-9.002 7.242-9.002h7.902c-.073-5.281-2.347-7.48-2.347-7.48 5.133 1.834 6.6 7.48 6.6 7.48h5.555c4 0 7.241 5.002 7.241 9.002v2.53c0 3.999-3.242 9-7.24 9z" fill="none" stroke="#b2d5e3" stroke-width="2.2" stroke-linecap="round" stroke-linejoin="round"/><path d="M201.734 332.006h-17.71c-4 0-7.242-5.002-7.242-9.001v-2.53c0-4 3.242-9.002 7.242-9.002h7.902c-.073-5.281-2.347-7.48-2.347-7.48 5.133 1.834 6.6 7.48 6.6 7.48h5.555c4 0 7.241 5.002 7.241 9.002v2.53c0 3.999-3.242 9-7.24 9z" fill="none" stroke="#656263" stroke-width=".88" stroke-linecap="round" stroke-linejoin="round"/></g><g clip-path="url(#l)" transform="matrix(.6244 0 0 -.62815 -107.2 213.167)"><path d="M184.024 332.005c-4 0-7.241-5.002-7.241-9.001v-2.53c0-3.999 3.241-9.002 7.241-9.002h7.902c-.074-5.28-2.347-7.479-2.347-7.479 5.133 1.834 6.6 7.479 6.6 7.479h5.555c4 0 7.241 5.003 7.241 9.002v2.53c0 3.999-3.241 9.001-7.241 9.001z" fill="url(#m)"/></g><g clip-path="url(#n)" transform="matrix(.6244 0 0 -.62815 -107.2 213.167)"><path d="M184.024 331.382c-3.65 0-6.618-4.729-6.618-8.378v-2.53c0-3.649 2.968-8.378 6.618-8.378h7.902a.62.62 0 00.624-.632c-.037-2.666-.615-4.589-1.211-5.874 3.192 2.197 4.225 5.995 4.237 6.039.071.275.32.467.603.467h5.555c3.649 0 6.619 4.729 6.619 8.378v2.53c0 3.649-2.97 8.378-6.619 8.378z" fill="url(#o)"/></g><g clip-path="url(#p)" transform="matrix(.6244 0 0 -.62815 -107.2 213.167)"><g mask="url(#q)"><path d="M178.524 317.485c.881-3.629 4.693-5.058 4.693-5.058l8.727-.002c.953.037.935-.66.935-.66.202-2.016-.716-4.876-.716-4.876l.917 2.86c.792 2.435 0 2.824 0 2.824-.44.55-7.102.165-7.102.165-5.848.388-7.454 4.747-7.454 4.747z" fill="url(#r)"/></g></g><g clip-path="url(#s)" transform="matrix(.6244 0 0 -.62815 -107.2 213.167)"><g mask="url(#t)"><path d="M202.1 312.719s-2.53.037-5.206-.403h5.169s1.91.38 4.328 3.08c0 0-2.129-1.951-4.291-2.677" fill="url(#u)"/></g></g><g clip-path="url(#v)" transform="matrix(.6244 0 0 -.62815 -107.2 213.167)"><g mask="url(#w)"><path d="M183.64 330.906c-2.958 0-5.355-2.419-5.355-5.404 0-2.984 2.397-5.404 5.355-5.404h18.277c2.956 0 5.353 2.42 5.353 5.404 0 2.985-2.397 5.404-5.353 5.404z" fill="url(#x)"/></g></g><g clip-path="url(#y)" transform="matrix(.6244 0 0 -.62815 -107.2 213.167)" fill="none" stroke-width="1.32" stroke-linecap="round" stroke-miterlimit="10"><path d="M0 0h4.125" stroke="url(#z)" transform="translate(180.706 326.616)"/><path d="M0 0h1.118" stroke="url(#A)" transform="translate(186.865 326.616)"/><path d="M0 0h15.02" stroke="url(#B)" transform="translate(190.138 326.616)"/><path d="M0 0h9.102" stroke="url(#C)" transform="translate(180.706 316.936)"/><path d="M0 0h4.876" stroke="url(#D)" transform="translate(191.797 316.936)"/><path d="M0 0h6.563" stroke="url(#E)" transform="translate(198.69 316.936)"/><path d="M0 0h11.201" stroke="url(#F)" transform="translate(180.706 321.776)"/><path d="M0 0h11.201" stroke="url(#G)" transform="translate(193.905 321.776)"/></g><path d="M0 0s-5.613 0-5.613-5.613v-26.192s0-5.612 5.613-5.612h26.192s5.613 0 5.613 5.612v26.192S31.805 0 26.192 0z" fill="none" stroke="#231f20" stroke-width=".66" transform="matrix(.6244 0 0 -.62815 5.052 1.438)"/></svg>