<svg xmlns="http://www.w3.org/2000/svg" xmlns:xlink="http://www.w3.org/1999/xlink" width="100" height="100" viewBox="0 0 26.458 26.458"><defs><linearGradient x1="0" y1="0" x2="1" y2="0" gradientUnits="userSpaceOnUse" gradientTransform="matrix(-4.85047 1.51755 1.51755 4.85047 502.347 46.75)" spreadMethod="pad" id="v"><stop offset="0" stop-color="#fff"/><stop offset="1" stop-color="#fff"/></linearGradient><linearGradient x1="0" y1="0" x2="1" y2="0" gradientUnits="userSpaceOnUse" gradientTransform="matrix(5.78705 0 0 -5.78705 485.358 50.024)" spreadMethod="pad" id="c"><stop offset="0" stop-color="#fff"/><stop offset="1" stop-opacity="0" stop-color="#fff"/></linearGradient><linearGradient x1="0" y1="0" x2="1" y2="0" gradientUnits="userSpaceOnUse" gradientTransform="matrix(5.78705 0 0 -5.78705 485.358 50.024)" spreadMethod="pad" id="E"><stop offset="0" stop-color="#fff"/><stop offset="1" stop-color="#fff"/></linearGradient><linearGradient x1="0" y1="0" x2="1" y2="0" gradientUnits="userSpaceOnUse" gradientTransform="scale(52.91552 -52.91552) rotate(45 5.976 10.063)" spreadMethod="pad" id="l"><stop offset="0" stop-color="#ebdac2"/><stop offset=".004" stop-color="#ebdac2"/><stop offset="1" stop-color="#e29e8a"/></linearGradient><linearGradient x1="0" y1="0" x2="1" y2="0" gradientUnits="userSpaceOnUse" gradientTransform="matrix(0 -11.40891 -11.40891 0 490.172 54.461)" spreadMethod="pad" id="n"><stop offset="0" stop-color="#fff"/><stop offset="1" stop-color="#918f90"/></linearGradient><linearGradient x1="0" y1="0" x2="1" y2="0" gradientUnits="userSpaceOnUse" gradientTransform="matrix(0 -10.42565 -10.42565 0 490.204 53.97)" spreadMethod="pad" id="p"><stop offset="0" stop-color="#918f90"/><stop offset=".003" stop-color="#918f90"/><stop offset="1" stop-color="#fff"/></linearGradient><linearGradient x1="0" y1="0" x2="1" y2="0" gradientUnits="userSpaceOnUse" gradientTransform="matrix(15.81432 0 0 -15.81432 477.851 48.164)" spreadMethod="pad" id="s"><stop offset="0" stop-color="#fff"/><stop offset="1" stop-color="#fff"/></linearGradient><linearGradient x1="0" y1="0" x2="1" y2="0" gradientUnits="userSpaceOnUse" gradientTransform="matrix(15.81432 0 0 -15.81432 477.851 48.164)" spreadMethod="pad" id="g"><stop offset="0" stop-color="#fff"/><stop offset="1" stop-opacity="0" stop-color="#fff"/></linearGradient><linearGradient xlink:href="#a" id="x" gradientUnits="userSpaceOnUse" gradientTransform="matrix(0 -9.98887 -9.98887 0 489.842 54.464)" x1="0" y1="0" x2="1" y2="0" spreadMethod="pad"/><linearGradient x1="0" y1="0" x2="1" y2="0" gradientUnits="userSpaceOnUse" gradientTransform="matrix(-4.85047 1.51755 1.51755 4.85047 502.347 46.75)" spreadMethod="pad" id="i"><stop offset="0" stop-color="#fff"/><stop offset="1" stop-opacity="0" stop-color="#fff"/></linearGradient><linearGradient x1="0" y1="0" x2="1" y2="0" gradientUnits="userSpaceOnUse" gradientTransform="scale(25.27665 -25.27665) rotate(45 12.612 21.623)" spreadMethod="pad" id="e"><stop offset="0" stop-color="#fff"/><stop offset="1" stop-opacity="0" stop-color="#fff"/></linearGradient><linearGradient x1="0" y1="0" x2="1" y2="0" gradientUnits="userSpaceOnUse" gradientTransform="scale(25.27665 -25.27665) rotate(45 12.612 21.623)" spreadMethod="pad" id="M"><stop offset="0" stop-color="#fff"/><stop offset="1" stop-color="#fff"/></linearGradient><linearGradient x1="0" y1="0" x2="1" y2="0" gradientUnits="userSpaceOnUse" gradientTransform="scale(4.70061 -4.70061) rotate(45 65.048 119.158)" spreadMethod="pad" id="k"><stop offset="0" stop-color="#fff"/><stop offset="1" stop-opacity="0" stop-color="#fff"/></linearGradient><linearGradient x1="0" y1="0" x2="1" y2="0" gradientUnits="userSpaceOnUse" gradientTransform="scale(4.70061 -4.70061) rotate(45 65.048 119.158)" spreadMethod="pad" id="I"><stop offset="0" stop-color="#fff"/><stop offset="1" stop-color="#fff"/></linearGradient><linearGradient x1="0" y1="0" x2="1" y2="0" gradientUnits="userSpaceOnUse" gradientTransform="matrix(0 -9.00609 -9.00609 0 489.842 53.973)" spreadMethod="pad" id="B"><stop offset="0" stop-color="#00adef"/><stop offset=".995" stop-color="#e6f7fd"/><stop offset="1" stop-color="#e6f7fd"/></linearGradient><linearGradient x1="0" y1="0" x2="1" y2="0" gradientUnits="userSpaceOnUse" gradientTransform="matrix(0 -9.98887 -9.98887 0 489.842 54.464)" spreadMethod="pad" id="a"><stop offset="0" stop-color="#e6f7fd"/><stop offset=".005" stop-color="#e6f7fd"/><stop offset="1" stop-color="#00adef"/></linearGradient><linearGradient xlink:href="#a" id="z" gradientUnits="userSpaceOnUse" gradientTransform="matrix(0 -9.98887 -9.98887 0 489.842 54.464)" x1="0" y1="0" x2="1" y2="0" spreadMethod="pad"/><clipPath clipPathUnits="userSpaceOnUse" id="b"><path d="M-32768 32767h65535v-65535h-65535z"/></clipPath><clipPath clipPathUnits="userSpaceOnUse" id="m"><path d="M474.746 67.661s-5.612 0-5.612-5.612V35.853c.001-.169.086-5.53 5.491-5.608h26.361c.543.015 5.49.299 5.565 5.492v26.359c-.016.544-.303 5.565-5.613 5.565z"/></clipPath><clipPath clipPathUnits="userSpaceOnUse" id="C"><path d="M484.864 50.024c0-2.481 2.065-4.491 4.611-4.491s4.611 2.01 4.611 4.491c0 2.479-2.065 4.491-4.611 4.491s-4.611-2.012-4.611-4.491"/></clipPath><clipPath clipPathUnits="userSpaceOnUse" id="o"><path d="M474.746 67.661s-5.612 0-5.612-5.612V35.853c.001-.169.086-5.53 5.491-5.608h26.361c.543.015 5.49.299 5.565 5.492v26.359c-.016.544-.303 5.565-5.613 5.565z"/></clipPath><clipPath clipPathUnits="userSpaceOnUse" id="f"><path d="M-32768 32767h65535v-65535h-65535z"/></clipPath><clipPath clipPathUnits="userSpaceOnUse" id="q"><path d="M477.659 48.411s4.455-7.582 16.775-3.515c-7.26-1.2-15.206-.129-10.476 7.736-4.621-2.42-6.299-4.221-6.299-4.221"/></clipPath><clipPath clipPathUnits="userSpaceOnUse" id="h"><path d="M-13948.7 14447.6h28835.2v-28835.2h-28835.2z"/></clipPath><clipPath clipPathUnits="userSpaceOnUse" id="t"><path d="M497.574 49.343c2.342-.328 4.676-1.419 2.47-3.377 1.65.298 2.338.69 2.338.69s-.625 2.688-4.663 2.688l-.145-.001"/></clipPath><clipPath clipPathUnits="userSpaceOnUse" id="w"><path d="M474.746 67.661s-5.612 0-5.612-5.612V35.853c.001-.169.086-5.53 5.491-5.608h26.361c.543.015 5.49.299 5.565 5.492v26.359c-.016.544-.303 5.565-5.613 5.565z"/></clipPath><clipPath clipPathUnits="userSpaceOnUse" id="y"><path d="M474.746 67.661s-5.612 0-5.612-5.612V35.853c.001-.169.086-5.53 5.491-5.608h26.361c.543.015 5.49.299 5.565 5.492v26.359c-.016.544-.303 5.565-5.613 5.565z"/></clipPath><clipPath clipPathUnits="userSpaceOnUse" id="A"><path d="M474.746 67.661s-5.612 0-5.612-5.612V35.853c.001-.169.086-5.53 5.491-5.608h26.361c.543.015 5.49.299 5.565 5.492v26.359c-.016.544-.303 5.565-5.613 5.565z"/></clipPath><clipPath clipPathUnits="userSpaceOnUse" id="F"><path d="M474.746 67.661s-5.612 0-5.612-5.612V35.853c.001-.169.086-5.53 5.491-5.608h26.361c.543.015 5.49.299 5.565 5.492v26.359c-.016.544-.303 5.565-5.613 5.565z"/></clipPath><clipPath clipPathUnits="userSpaceOnUse" id="j"><path d="M-13948.7 14447.6h28835.2v-28835.2h-28835.2z"/></clipPath><clipPath clipPathUnits="userSpaceOnUse" id="G"><path d="M484.93 50.493a2.35 2.35 0 014.701 0 2.35 2.35 0 01-4.701 0"/></clipPath><clipPath clipPathUnits="userSpaceOnUse" id="J"><path d="M474.746 67.661s-5.612 0-5.612-5.612V35.853c.001-.169.086-5.53 5.491-5.608h26.361c.543.015 5.49.299 5.565 5.492v26.359c-.016.544-.303 5.565-5.613 5.565z"/></clipPath><clipPath clipPathUnits="userSpaceOnUse" id="d"><path d="M-13948.7 14447.6h28835.2v-28835.2h-28835.2z"/></clipPath><clipPath clipPathUnits="userSpaceOnUse" id="K"><path d="M487.397 64.085c-.614-.017-1.218-.099-1.816-.181a8.787 8.787 0 01-.89-.149 20.395 20.395 0 01-.872-.183c-.576-.129-1.127-.318-1.676-.472-.546-.164-1.064-.377-1.578-.561-.511-.194-.979-.455-1.449-.67a18.924 18.924 0 01-2.508-1.446l-1.048-.73c-.33-.235-.615-.498-.892-.726-.553-.46-1.022-.869-1.375-1.25-.366-.362-.633-.667-.82-.866l-.28-.315.261-.354 1.276.889c.399.295.917.597 1.503.96.577.378 1.271.729 2.016 1.13.368.211.781.372 1.193.568.414.193.841.392 1.299.554.9.364 1.873.679 2.892.958.516.116 1.033.267 1.569.359.537.081 1.075.211 1.629.255.551.058 1.106.133 1.668.142l.842.036.844-.016c1.127-.017 2.249-.146 3.344-.326a24.667 24.667 0 003.162-.772 25.445 25.445 0 002.845-1.092 26.1 26.1 0 002.43-1.248 26.468 26.468 0 003.372-2.306c.772-.621 1.161-1.016 1.161-1.016l.309.313s-.078.131-.242.354c-.167.221-.405.556-.751.939-.34.389-.765.854-1.296 1.344-.532.484-1.14 1.038-1.867 1.556-.723.521-1.521 1.09-2.436 1.568-.904.495-1.886.995-2.958 1.379a23.61 23.61 0 01-1.65.543c-.562.176-1.143.317-1.733.442a24.971 24.971 0 01-3.637.41c-.308.008-.614.025-.922.025z"/></clipPath><mask maskUnits="userSpaceOnUse" x="0" y="0" width="1" height="1" id="D"><g clip-path="url(#b)"><path d="M484.864 54.514h9.221v-8.982h-9.221z" fill="url(#c)"/></g></mask><mask maskUnits="userSpaceOnUse" x="0" y="0" width="1" height="1" id="L"><g clip-path="url(#d)"><path d="M489.001 80.938l21.244-21.244-21.244-21.244-21.245 21.244z" fill="url(#e)"/></g></mask><mask maskUnits="userSpaceOnUse" x="0" y="0" width="1" height="1" id="r"><g clip-path="url(#f)"><path d="M477.659 52.632h16.775V40.83h-16.775z" fill="url(#g)"/></g></mask><mask maskUnits="userSpaceOnUse" x="0" y="0" width="1" height="1" id="u"><g clip-path="url(#h)"><path d="M501.954 44.596l-5.342 1.671 1.391 4.447 5.342-1.671z" fill="url(#i)"/></g></mask><mask maskUnits="userSpaceOnUse" x="0" y="0" width="1" height="1" id="H"><g clip-path="url(#j)"><path d="M487.28 55.193l4.7-4.7-4.7-4.701-4.701 4.701z" fill="url(#k)"/></g></mask></defs><path d="M474.746 67.661s-5.612 0-5.612-5.612V35.853c.001-.169.085-5.53 5.492-5.608h26.36c.543.015 5.49.299 5.565 5.492v26.359c-.016.544-.304 5.565-5.613 5.565z" fill="url(#l)" transform="matrix(.6244 0 0 -.62815 -291.384 43.94)"/><g clip-path="url(#m)" transform="matrix(.6244 0 0 -.62815 -291.384 43.94)"><path d="M476.504 48.576s8.525 10.395 20.02 3.74a437.084 437.084 0 015.665-3.74c1.1-.715 3.355-2.493-.55-3.144-3.905-.65-10.945-2.576-15.565-2.466-4.62.11-8.91 3.19-9.57 5.61z" fill="none" stroke="#fff" stroke-width=".44" stroke-miterlimit="10"/></g><path d="M476.504 48.577c.66-2.421 4.95-5.5 9.57-5.611 4.62-.11 11.659 1.815 15.564 2.467 3.905.651 1.651 2.428.55 3.144a443.42 443.42 0 00-5.664 3.739c-2.788 1.614-5.4 2.225-7.759 2.225-7.369 0-12.261-5.964-12.261-5.964" fill="url(#n)" transform="matrix(.6244 0 0 -.62815 -291.384 43.94)"/><g clip-path="url(#o)" transform="matrix(.6244 0 0 -.62815 -291.384 43.94)"><path d="M476.759 48.526c.234-.691.689-1.32 1.21-1.867a10.157 10.157 0 011.878-1.517c.685-.431 1.41-.798 2.16-1.103.758-.288 1.537-.52 2.332-.67.786-.125 1.606-.22 2.419-.165.407.014.815.015 1.222.039l1.222.12c.816.064 1.625.22 2.437.332.81.127 1.618.289 2.427.432 1.615.32 3.222.662 4.84.999.81.174 1.62.327 2.43.474.415.078.802.138 1.184.256.37.115.753.269.968.514.216.23.146.554-.081.86-.217.303-.521.569-.837.81-.644.467-1.362.91-2.041 1.369l-4.128 2.725.013-.008c-.405.212-.801.443-1.213.64-.418.183-.824.396-1.256.544l-.64.243-.655.197c-.433.147-.885.218-1.326.327-.451.064-.898.158-1.354.182-.452.052-.908.052-1.363.06-.454-.02-.91-.027-1.362-.091-.453-.041-.9-.13-1.347-.216l-.665-.158-.656-.193c-.433-.14-.865-.29-1.284-.47a8.482 8.482 0 01-.626-.275c-.207-.096-.415-.192-.615-.302a15.921 15.921 0 01-1.193-.674 19.554 19.554 0 01-2.224-1.602 17.194 17.194 0 01-1.876-1.812m-.424.19a17.516 17.516 0 001.982 2.003c.709.613 1.46 1.18 2.252 1.69.397.255.804.492 1.222.71.207.115.42.217.633.319.21.105.426.203.645.292.433.19.88.35 1.328.502l.68.208.692.172c.465.095.932.193 1.406.24.472.07.949.079 1.425.1.476-.006.953-.005 1.428-.057.476-.026.944-.121 1.416-.187.462-.113.934-.187 1.385-.338l.684-.205.667-.25c.45-.153.87-.372 1.306-.561.428-.203.837-.44 1.257-.66l.01-.005.016-.01c.672-.477 1.364-.922 2.018-1.424l1.987-1.473c.67-.49 1.35-.926 2.046-1.412.338-.254.668-.53.937-.891.132-.181.253-.392.29-.653.049-.26-.055-.554-.22-.743-.341-.38-.77-.528-1.175-.667-.406-.131-.837-.203-1.23-.282a68.386 68.386 0 01-2.411-.531c-1.598-.374-3.207-.758-4.821-1.117-.812-.163-1.62-.346-2.437-.493-.824-.121-1.637-.287-2.473-.36l-1.247-.137c-.421-.028-.845-.034-1.267-.052l-.635-.022c-.252.003-.424.027-.64.039l-.308.023-.327.047c-.217.034-.44.06-.651.102-.845.166-1.667.419-2.464.73-.794.322-1.543.744-2.253 1.217-.704.48-1.372 1.027-1.937 1.678-.555.649-1.063 1.388-1.26 2.26l-.025.116z" fill="#231f20"/></g><path d="M477.066 48.46c.844-2.244 4.896-4.897 9.02-4.995.124-.003.249-.004.377-.004 3.206 0 7.571.923 11.08 1.665 1.484.314 2.885.61 4.013.798 1.64.274 1.773.691 1.783.737.05.243-.373.815-1.422 1.497-.583.379-3.593 2.338-5.644 3.726-2.472 1.433-4.999 2.158-7.508 2.158-6.282 0-10.773-4.561-11.699-5.582" fill="url(#p)" transform="matrix(.6244 0 0 -.62815 -291.384 43.94)"/><g clip-path="url(#q)" transform="matrix(.6244 0 0 -.62815 -291.384 43.94)"><g mask="url(#r)"><path d="M477.659 48.411s4.455-7.582 16.775-3.515c-7.26-1.2-15.206-.129-10.476 7.736-4.621-2.42-6.299-4.221-6.299-4.221" fill="url(#s)"/></g></g><g clip-path="url(#t)" transform="matrix(.6244 0 0 -.62815 -291.384 43.94)"><g mask="url(#u)"><path d="M497.574 49.343c2.342-.328 4.676-1.419 2.47-3.377 1.65.298 2.338.69 2.338.69s-.625 2.688-4.663 2.688l-.145-.001" fill="url(#v)"/></g></g><g clip-path="url(#w)" transform="matrix(.6244 0 0 -.62815 -291.384 43.94)"><path d="M505.269 49.731s-.363.413-1.058 1.078c-.347.331-.775.73-1.288 1.158-.508.436-1.1.906-1.767 1.388-.664.486-1.408.98-2.221 1.454-.813.477-1.698.933-2.645 1.327-.946.396-1.954.74-3.004.97-.53.1-1.054.244-1.598.271-.542.047-1.083.134-1.63.095-.547-.016-1.084.001-1.63-.077-.544-.059-1.09-.102-1.618-.195-.531-.08-1.06-.157-1.574-.274l-.77-.158-.75-.194c-.993-.248-1.927-.58-2.801-.917-.864-.362-1.667-.736-2.371-1.149-.714-.395-1.322-.832-1.854-1.224a14.154 14.154 0 01-1.285-1.123 10.55 10.55 0 01-.74-.806l-.242-.3-.348.267.229.335c.155.215.38.534.717.896.33.37.76.788 1.28 1.244.527.444 1.148.923 1.882 1.35.722.451 1.546.863 2.433 1.264.894.383 1.86.736 2.886.998.256.07.513.138.773.207l.792.17c.53.117 1.08.194 1.635.275.562.094 1.096.132 1.642.19l.409.04.102.01.026.002.03.002h.285l.868-.005c.58.025 1.15-.077 1.72-.14.573-.045 1.12-.207 1.67-.326a18.138 18.138 0 003.098-1.082c.969-.433 1.848-.96 2.656-1.48a26.26 26.26 0 002.189-1.59c.332-.253.63-.52.91-.777.286-.25.543-.505.784-.74.487-.47.888-.902 1.213-1.26.328-.356.56-.659.723-.86l.242-.314" fill="#855333"/></g><path d="M485.384 54.116a5.857 5.857 0 01-1.426-3.835 5.884 5.884 0 1111.769 0 5.848 5.848 0 01-.714 2.812c-2.227 1.031-4.328 1.442-6.258 1.442a13.91 13.91 0 01-3.371-.419" fill="url(#x)" transform="matrix(.6244 0 0 -.62815 -291.384 43.94)"/><g clip-path="url(#y)" transform="matrix(.6244 0 0 -.62815 -291.384 43.94)"><path d="M495.727 50.281a5.865 5.865 0 01-.714 2.812c-3.603 1.668-6.873 1.71-9.629 1.023a5.86 5.86 0 01-1.427-3.835 5.885 5.885 0 0111.77 0z" fill="none" stroke="#231f20" stroke-width=".44" stroke-miterlimit="10"/><path d="M476.504 48.576s3.218 3.915 8.36 5.4c-.651.13-1.28.232-1.43.183-.77 0-2.31 1.842-2.667 2.2-.165-.33.385-1.485 1.457-2.723-.907-.027-1.87.193-4.29 1.458.55-.633 1.677-1.513 2.255-2.118-.633-.055-2.722.22-2.722.22s.522-.77 1.842-1.452c-.908-.38-3.3-.06-4.51-.006-1.21.055.11-.33 2.227-1.21-1.374-.192-3.684.44-4.372 1.155-.055-.275.385-1.814 2.447-2.52-.742-.21-1.87-.532-4.427-.56.632-.467 1.732-.329 4.73-.439-.715-.633-3.383-.963-4.95-1.018 1.347-1.21 5.885 1.018 5.885 1.018l.263.14c-.034.091-.074.183-.098.272" fill="#231f20"/></g><path d="M485.384 54.116a5.857 5.857 0 01-1.426-3.835 5.884 5.884 0 1111.769 0 5.848 5.848 0 01-.714 2.812c-2.227 1.031-4.328 1.442-6.258 1.442a13.91 13.91 0 01-3.371-.419" fill="url(#z)" transform="matrix(.6244 0 0 -.62815 -291.384 43.94)"/><g clip-path="url(#A)" transform="matrix(.6244 0 0 -.62815 -291.384 43.94)"><path d="M495.727 50.281a5.865 5.865 0 01-.714 2.812c-3.603 1.668-6.873 1.71-9.629 1.023a5.86 5.86 0 01-1.427-3.835 5.885 5.885 0 0111.77 0z" fill="none" stroke="#3871c1" stroke-width=".44" stroke-miterlimit="10"/></g><path d="M485.662 53.67a5.38 5.38 0 01-1.206-3.389 5.392 5.392 0 015.387-5.385 5.391 5.391 0 015.386 5.385c0 .844-.199 1.681-.578 2.429-1.95.88-3.933 1.326-5.898 1.326-1.029 0-2.068-.123-3.091-.366" fill="url(#B)" transform="matrix(.6244 0 0 -.62815 -291.384 43.94)"/><g clip-path="url(#C)" transform="matrix(.6244 0 0 -.62815 -291.384 43.94)"><g mask="url(#D)"><path d="M484.864 50.024c0-2.481 2.065-4.491 4.611-4.491s4.611 2.01 4.611 4.491c0 2.479-2.065 4.491-4.611 4.491s-4.611-2.012-4.611-4.491" fill="url(#E)"/></g></g><g clip-path="url(#F)" transform="matrix(.6244 0 0 -.62815 -291.384 43.94)"><path d="M487.492 50.281a2.35 2.35 0 104.7 0 2.35 2.35 0 00-4.7 0" fill="#231f20"/></g><g clip-path="url(#G)" transform="matrix(.6244 0 0 -.62815 -291.384 43.94)"><g mask="url(#H)"><path d="M484.93 50.493a2.35 2.35 0 014.701 0 2.35 2.35 0 01-4.701 0" fill="url(#I)"/></g></g><g clip-path="url(#J)" transform="matrix(.6244 0 0 -.62815 -291.384 43.94)"><path d="M484.864 53.976s4.744 1.898 10.498-1.04" fill="none" stroke="#231f20" stroke-width=".44" stroke-linecap="round" stroke-linejoin="round" stroke-miterlimit="10"/></g><g clip-path="url(#K)" transform="matrix(.6244 0 0 -.62815 -291.384 43.94)"><g mask="url(#L)"><path d="M487.397 64.085c-.614-.017-1.218-.099-1.816-.181a8.787 8.787 0 01-.89-.149 20.395 20.395 0 01-.872-.183c-.576-.129-1.127-.318-1.676-.472-.546-.164-1.064-.377-1.578-.561-.511-.194-.979-.455-1.449-.67a18.924 18.924 0 01-2.508-1.446l-1.048-.73c-.33-.235-.615-.498-.892-.726-.553-.46-1.022-.869-1.375-1.25-.366-.362-.633-.667-.82-.866l-.28-.315.261-.354 1.276.889c.399.295.917.597 1.503.96.577.378 1.271.729 2.016 1.13.368.211.781.372 1.193.568.414.193.841.392 1.299.554.9.364 1.873.679 2.892.958.516.116 1.033.267 1.569.359.537.081 1.075.211 1.629.255.551.058 1.106.133 1.668.142l.842.036.844-.016c1.127-.017 2.249-.146 3.344-.326a24.667 24.667 0 003.162-.772 25.445 25.445 0 002.845-1.092 26.1 26.1 0 002.43-1.248 26.468 26.468 0 003.372-2.306c.772-.621 1.161-1.016 1.161-1.016l.309.313s-.078.131-.242.354c-.167.221-.405.556-.751.939-.34.389-.765.854-1.296 1.344-.532.484-1.14 1.038-1.867 1.556-.723.521-1.521 1.09-2.436 1.568-.904.495-1.886.995-2.958 1.379a23.61 23.61 0 01-1.65.543c-.562.176-1.143.317-1.733.442a24.971 24.971 0 01-3.637.41c-.308.008-.614.025-.922.025z" fill="url(#M)"/></g></g><path d="M0 0s-5.613 0-5.613-5.613v-26.192s0-5.612 5.613-5.612h26.192s5.613 0 5.613 5.612v26.192S31.805 0 26.192 0z" fill="none" stroke="#231f20" stroke-width=".66" transform="matrix(.6244 0 0 -.62815 5.052 1.438)"/></svg>