<svg width="100" height="100" viewBox="0 0 26.458 26.458" xmlns="http://www.w3.org/2000/svg"><defs><clipPath id="aj"><path d="M546.04 540.4h1.192v-1.988h-1.192z"/></clipPath><clipPath id="bW"><path d="M544.83 540.26a.147.147 0 01-.123-.164.144.144 0 01.164-.122.146.146 0 01.124.163.147.147 0 01-.144.125l-.021-.002"/></clipPath><clipPath id="af"><path d="M-13903 14942h28835v-28835h-28835z"/></clipPath><clipPath id="ag"><path d="M544.7 540.26h.309v-.3h-.309z"/></clipPath><clipPath id="al"><path d="M520.27 561.57s-5.612 0-5.612-5.613v-26.195c.001-.171.087-5.609 5.612-5.609h26.192s5.612 0 5.612 5.612v26.192s0 5.613-5.612 5.613z"/></clipPath><clipPath id="an"><path d="M516.96 550.88v-13.316h4.466v14.626c-1.428-.45-2.918-.888-4.466-1.31"/></clipPath><clipPath id="bS"><path d="M529.7 546.96s-3.811-.729-2.891-1.074c0 0 1.185-.328 2.422-.355 0 0-1.722.467-1.09.754 0 0 1.387.53 2.4.2 0 0 .514-.288.776-.798 0 0-.001.788.43.87 0 0 4.224-.345 8.501-3.52 0 0-4.43 3.997-9.395 3.997-.383 0-.767-.023-1.153-.074"/></clipPath><clipPath id="ap"><path d="M525.33 553.5v-15.936h4.468v17.652a98.166 98.166 0 00-4.468-1.716"/></clipPath><clipPath id="Q"><path d="M-32768 32767h65535v-65535h-65535z"/></clipPath><clipPath id="R"><path d="M525.89 547.03h14.358v-3.997H525.89z"/></clipPath><clipPath id="ar"><path d="M533.69 556.93v-19.37h4.087v21.436a78.262 78.262 0 00-4.087-2.066"/></clipPath><clipPath id="at"><path d="M549.66 537.56h2.413v18.394s0 3.198-2.413 4.765z"/></clipPath><clipPath id="bP"><path d="M530.42 549.39s1.452-.797 2.074-.715c0 0 5.095-.055 9.045-4.619 0 0-4.272 5.252-8.397 5.141 0 0-.082-.797-2.722.193z"/></clipPath><clipPath id="av"><path d="M542.13 561.57l-.452-.289v-23.718h4.088v24.007z"/></clipPath><clipPath id="y"><path d="M-13903 14942h28835v-28835h-28835z"/></clipPath><clipPath id="z"><path d="M530.42 549.39h11.12v-5.335h-11.12z"/></clipPath><clipPath id="k"><path d="M514.66 561.57h37.417v-37.417H514.66z"/></clipPath><clipPath id="j"><path d="M-32768 32767h65535v-65535h-65535z"/></clipPath><clipPath id="bM"><path d="M541.84 537.25s.799-.33 1.294-.193c0 0 .219-.867 4.166-.632 0 0 .536-.523 1.636.123 0 0-1.031-.454-1.609.083 0 0-2.372-.67-4.015.619 0 0-.784-.234-1.472 0"/></clipPath><clipPath id="F"><path d="M514.66 561.57h37.417v-37.417H514.66z"/></clipPath><clipPath id="d"><path d="M-13903 14942h28835v-28835h-28835z"/></clipPath><clipPath id="e"><path d="M541.84 537.25h7.095v-1.348h-7.095z"/></clipPath><clipPath id="E"><path d="M-32768 32767h65535v-65535h-65535z"/></clipPath><clipPath id="n"><path d="M514.66 561.57h37.417v-37.417H514.66z"/></clipPath><clipPath id="bJ"><path d="M528.85 541.74c1.283.526 2.232.164 2.232.164 1.26-.451 1.618-1.641 1.618-1.641 1.247-2.497 2.209-2.672 2.209-2.672-.595.498-.229 1.344-.229 1.344 1.155-1.549 2.92-1.603 2.92-1.603-.656.476-.812 2.005-.812 2.005 1.706-.048 4.181-1.099 4.181-1.099-1.339 1.052-4.639 1.526-4.639 1.526l.348-1.677-2.475 1.535v-.933l-.715.933c0 .314-.996 1.786-.996 1.786-.763.588-1.486.768-2.083.768-.932 0-1.559-.436-1.559-.436"/></clipPath><clipPath id="m"><path d="M-32768 32767h65535v-65535h-65535z"/></clipPath><clipPath id="g"><path d="M-13903 14942h28835v-28835h-28835z"/></clipPath><clipPath id="h"><path d="M528.85 542.27h12.118v-4.934H528.85z"/></clipPath><clipPath id="q"><path d="M514.66 561.57h37.417v-37.417H514.66z"/></clipPath><clipPath id="p"><path d="M-32768 32767h65535v-65535h-65535z"/></clipPath><clipPath id="bG"><path d="M545.6 533.08s.325-.06.624.135c0 0-.282-.128-.543 0 0 0-.19.066-.081.415.001.003.001.004-.001.004-.03 0-.504-.554.001-.554"/></clipPath><clipPath id="ax"><path d="M520.27 561.57s-5.612 0-5.612-5.613v-26.195c.001-.171.087-5.609 5.612-5.609h26.192s5.612 0 5.612 5.612v26.192s0 5.613-5.612 5.613z"/></clipPath><clipPath id="s"><path d="M-13903 14942h28835v-28835h-28835z"/></clipPath><clipPath id="t"><path d="M545.1 533.63h1.129v-.615H545.1z"/></clipPath><clipPath id="aG"><path d="M541.32 537.41c.294-.649 1.702-.574 1.702-.574.661-.97 4.295-.624 4.295-.624.791-.465 1.683.094 1.683.094.44.277.124.458.124.458.42.544-.641 1.03-.641 1.03-.636.214-1.257-.681-1.257-.681-.354.356-3.822.735-3.822.735-.342.629-2.256 1.275-2.35 1.347 0 0-.027-1.136.266-1.785"/></clipPath><clipPath id="aI"><path d="M520.27 561.57s-5.612 0-5.612-5.613v-26.195c.001-.171.087-5.609 5.612-5.609h26.192s5.612 0 5.612 5.612v26.192s0 5.613-5.612 5.613z"/></clipPath><clipPath id="bF"><path d="M520.27 561.57s-5.612 0-5.612-5.613v-26.195c.001-.171.087-5.609 5.612-5.609h26.192s5.612 0 5.612 5.612v26.192s0 5.613-5.612 5.613z"/></clipPath><clipPath id="bC"><path d="M537.78 536.69s1.43-.603 1.76-1.236c0 0 1.315-.817 1.877-.726 0 0 .213-1.173 3.825-.752 0 0-3.674-.147-3.56 1.1 0 0-1.06-.339-1.811.636 0 0-.208-.033-.954.546-.163.127-.841.434-1.098.434l-.039-.002"/></clipPath><clipPath id="aJ"><path d="M526.95 537.58c-.226-1.317-.584-.421-.584-.421-1.239 2.29-1.25.617-1.25.617.13-2.546-2.618-3.426-2.618-3.426-.987-.187-1.545-.284-1.545-.284-.547.55-.948-.516-.948-.516-.171-.816.401-.955.401-.955.141-.702 1.105-.6 1.105-.6 1.931-.516 4.249 2.621 4.249 2.621.301-3.046 3.325.158 3.325.158 8.519 5.656 2.136 7.485 2.136 7.485a4.021 4.021 0 01-.575.043c-3.399 0-3.696-4.722-3.696-4.722"/></clipPath><clipPath id="v"><path d="M-32768 32767h65535v-65535h-65535z"/></clipPath><clipPath id="w"><path d="M537.78 536.69h7.461v-3.137h-7.461z"/></clipPath><clipPath id="aL"><path d="M520.27 561.57s-5.612 0-5.612-5.613v-26.195c.001-.171.087-5.609 5.612-5.609h26.192s5.612 0 5.612 5.612v26.192s0 5.613-5.612 5.613z"/></clipPath><clipPath id="aM"><path d="M532.07 550.57s-4.794-1.1.292-2.287c0 0 4.06.015 7.316-2.905 0 0 3.251-2.699 3.331-3.862l.728-.107s-5.052 9.223-10.85 9.224c-.271 0-.543-.02-.817-.063"/></clipPath><clipPath id="bz"><path d="M530.01 535.77c.709.532 1.24 1.003 1.24 1.003a43.32 43.32 0 00-1.24-1.003m-3.427-1.237l-.456.924s-.387-.116-1.038-.123c0 0 .021-1.466-2.858-3.042 0 0 1.217.055 3.57 2.824 0 0 .06.157.078.115 0 0 .217-1.332.704-1.466 0 0 .704-.107 3.427 2.005-1.202-.901-2.917-1.977-3.427-1.237"/></clipPath><clipPath id="aO"><path d="M520.27 561.57s-5.612 0-5.612-5.613v-26.195c.001-.171.087-5.609 5.612-5.609h26.192s5.612 0 5.612 5.612v26.192s0 5.613-5.612 5.613z"/></clipPath><clipPath id="B"><path d="M-13903 14942h28835v-28835h-28835z"/></clipPath><clipPath id="C"><path d="M522.23 536.77h9.019v-4.48h-9.019z"/></clipPath><clipPath id="aP"><path d="M527.63 547.19s-4.472-1.463 1.016-2.277c0 0 6.139.407 8.334-.65 0 0 4.146-1.747 4.593-2.926 0 0-.413-.213-.629-1.214-1.858 1.313-5.143.109-5.143.109-1.567-.284-2.097.525-2.097.525-.786 1.16-1.803 1.517-1.803 1.517-2.543.905-3.482-.401-3.482-.401.173 1.106-.204 1.634-.204 1.634-1.709 2.226-2.847 0-2.847 0-1.402-2.876 1.271-2.804 2.063-2.725-.617-.723-.964-1.403-.964-1.403-.733-1.117-.703-.153-.703-.153-.225 2.593-.901 1.063-.901 1.063-.897-2.387-3.768-2.099-3.768-2.099-.98.223-1.53.356-1.53.356-.281.722-1.074-.095-1.074-.095-.483-.68-.013-1.036-.013-1.036-.151-.699.773-.991.773-.991 1.566-1.242 4.943.711 4.943.711-.938-2.913 3.112-1.181 3.112-1.181 1.652.294 2.888.653 3.812 1.049 1.465.077 2.623-.14 2.623-.14 2.46-1.694 4.397-1.867 5.662-1.665.554-.309 1.357-.703 1.924-.751 0 0 .167-1.102 4.09-.701 0 0-.877-.821.356-.958 0 0 .585.05.742.387 0 0 .489-.075.657.336 0 0 .752.113.333.674 0 0-.709 1.086-2.337.412 0 0-2.635.45-3.093 1.086 0 0-.277.363-.624.705.241.527.294 1.125.264 1.668.581-.443 1.51-.769 2.979-.468 0 0 1.221-.659 1.688 0 0 0 .425.244.548.513 0 0 .082-.056.407.351 0 0-.122 1.422-.955 2.195 0 0-.698 2.544-4.291 1.158 0 0-4.907 5.869-11.326 5.869-1.012 0-2.061-.146-3.135-.484"/></clipPath><clipPath id="aR"><path d="M520.27 561.57s-5.612 0-5.612-5.613v-26.195c.001-.171.087-5.609 5.612-5.609h26.192s5.612 0 5.612 5.612v26.192s0 5.613-5.612 5.613z"/></clipPath><clipPath id="bw"><path d="M524.94 539.92c.348.752.661-.88.661-.88 0 .238-.202 1.375-.342 1.448a.057.057 0 01-.024.006c-.136 0-.295-.574-.295-.574"/></clipPath><clipPath id="aS"><path d="M544.46 540.12c-.046-.206.134-.423.4-.483.267-.06.522.059.569.266.047.206-.132.422-.4.483a.61.61 0 01-.139.015c-.212 0-.391-.11-.43-.281"/></clipPath><clipPath id="a"><path d="M-13903 14942h28835v-28835h-28835z"/></clipPath><clipPath id="b"><path d="M524.94 540.67h.66v-1.632h-.66z"/></clipPath><clipPath id="aU"><path d="M520.27 561.57s-5.612 0-5.612-5.613v-26.195c.001-.171.087-5.609 5.612-5.609h26.192s5.612 0 5.612 5.612v26.192s0 5.613-5.612 5.613z"/></clipPath><clipPath id="aV"><path d="M541.19 539.1l-.242 1.017c-.073-.602.242-1.017.242-1.017"/></clipPath><clipPath id="bt"><path d="M523.4 537.3s-.642-.796-3.208-1.045c0 0 1.76-.158 3.777 1.045 0 0 .347.812.679.934 0 0-.887-.245-1.248-.934"/></clipPath><clipPath id="aX"><path d="M520.27 561.57s-5.612 0-5.612-5.613v-26.195c.001-.171.087-5.609 5.612-5.609h26.192s5.612 0 5.612 5.612v26.192s0 5.613-5.612 5.613z"/></clipPath><clipPath id="H"><path d="M-13903 14942h28835v-28835h-28835z"/></clipPath><clipPath id="I"><path d="M520.2 538.24h4.455v-2.136H520.2z"/></clipPath><clipPath id="L"><path d="M524.46 542.93h3.641v-2.261h-3.641z"/></clipPath><clipPath id="K"><path d="M-13903 14942h28835v-28835h-28835z"/></clipPath><clipPath id="bq"><path d="M518.79 537.04s.469-.639 1.073-.345c0 0-.761-.068-1.073.345z"/></clipPath><clipPath id="aY"><path d="M527.57 541.21s.339.413.536.583c0 0-.437-.186-.964-.288-.202-.04-.78-.004-1.232.798-.051.089.073-.148.151-.384.078-.237.111-.474-.121-.386-.415.157-.681.562-.544 1.394 0 0-.931-2.26 2.174-1.717"/></clipPath><clipPath id="N"><path d="M-13903 14942h28835v-28835h-28835z"/></clipPath><clipPath id="O"><path d="M518.79 537.04h1.074v-.638h-1.074z"/></clipPath><clipPath id="U"><path d="M533.3 542.36l7.064-4.079-3.574-6.191-7.064 4.079z"/></clipPath><clipPath id="T"><path d="M-32768 32767h65535v-65535h-65535z"/></clipPath><clipPath id="bn"><path d="M519.21 537.59s-.542-.04-.632.426c0 0-.147-.734.632-.426"/></clipPath><clipPath id="bb"><path d="M532.03 539.34v.001-.001m.002-.005a.042.042 0 01-.002.005l.002-.005m-.447-1.98c.411.379 2.126-.185 2.126-.185 2.659-2.055 4.822-1.686 4.822-1.686-1.98-.128-4.51 1.686-4.51 1.686-.312.273-.613.281-.613.281-.925.502-1.347 1.782-1.378 1.884.321-1.03-.298-1.811-.447-1.98m-.031-.033"/></clipPath><clipPath id="W"><path d="M-32768 32767h65535v-65535h-65535z"/></clipPath><clipPath id="X"><path d="M518.44 538.02h.779v-.735h-.779z"/></clipPath><clipPath id="aa"><path d="M541.25 540.26h5.14v-2.803h-5.14z"/></clipPath><clipPath id="Z"><path d="M-13903 14942h28835v-28835h-28835z"/></clipPath><clipPath id="bk"><path d="M530.99 537.61s-2.805-1.473-3.832-.838c0 0-.978-1.197-2.438-.63 0 0-.715.292.257 1.686 0 0-.956-.903-.486-1.802 0 0 .504-.837 2.704.234 0 0 3.392.649 3.777 1.045 0 0 1.577 1.049.219 2.959 0 0 .924-1.629-.201-2.654"/></clipPath><clipPath id="be"><path d="M541.26 540c-.007.161-.002.264-.002.264a1.55 1.55 0 01.002-.264m1.006-1.937s.96-.602 2.442-.144c0 0 .355-.231.975-.309 0 0 .708.151.506.689 0 0-.366.868-.861.537 0 0-.313-.242-.184-.597 0 0 .026-.14-.436 0 0 0-1.797-.631-2.771.295 0 0-.607.696-.677 1.466.021-.519.167-1.646 1.006-1.937"/></clipPath><clipPath id="ac"><path d="M-32768 32767h65535v-65535h-65535z"/></clipPath><clipPath id="ad"><path d="M524.01 535.19v5.075h8.544v-5.075z"/></clipPath><clipPath id="bV"><path d="M520.27 561.57s-5.612 0-5.612-5.613v-26.195c.001-.171.087-5.609 5.612-5.609h26.192s5.612 0 5.612 5.612v26.192s0 5.613-5.612 5.613z"/></clipPath><clipPath id="ai"><path d="M-13903 14942h28835v-28835h-28835z"/></clipPath><clipPath id="bh"><path d="M546.04 540.4s.703-.868.619-1.466c0 0 .018-.503.231-.522 0 0 .342.074.176.44 0 0 .019.583-1.026 1.548z"/></clipPath><linearGradient id="bm" x2="1" gradientTransform="matrix(0 4.5491 4.5491 0 528.05 535.71)" gradientUnits="userSpaceOnUse"><stop stop-color="#93c8dd" offset="0"/><stop stop-color="#93c8dd" offset="1"/></linearGradient><linearGradient id="aK" x2="1" gradientTransform="matrix(13.544 0 0 -13.544 519.97 537.12)" gradientUnits="userSpaceOnUse"><stop stop-color="#fff" offset="0"/><stop stop-color="#93c8dd" offset="1"/></linearGradient><linearGradient id="am" x2="1" gradientTransform="matrix(0 37.417 37.417 0 533.37 524.15)" gradientUnits="userSpaceOnUse"><stop stop-color="#002844" offset="0"/><stop stop-color="#231f20" offset="1"/></linearGradient><linearGradient id="ak" x2="1" gradientTransform="matrix(0 1.9877 1.9877 0 546.58 538.41)" gradientUnits="userSpaceOnUse"><stop stop-color="#fff" offset="0"/><stop stop-color="#fff" stop-opacity="0" offset="1"/></linearGradient><linearGradient id="bj" x2="1" gradientTransform="matrix(0 1.9877 1.9877 0 546.58 538.41)" gradientUnits="userSpaceOnUse"><stop stop-color="#93c8dd" offset="0"/><stop stop-color="#93c8dd" offset="1"/></linearGradient><linearGradient id="ah" x2="1" gradientTransform="matrix(0 .28962 .28962 0 544.85 539.97)" gradientUnits="userSpaceOnUse"><stop stop-color="#fff" stop-opacity="0" offset="0"/><stop stop-color="#fff" offset=".501"/><stop stop-color="#fff" offset="1"/></linearGradient><linearGradient id="ao" x2="1" gradientTransform="matrix(71.854 0 0 -71.854 482.16 544.88)" gradientUnits="userSpaceOnUse"><stop stop-color="#00adef" offset="0"/><stop stop-color="#ed1c24" offset="1"/></linearGradient><linearGradient id="bp" x2="1" gradientTransform="matrix(0 .50187 .50187 0 518.89 537.52)" gradientUnits="userSpaceOnUse"><stop stop-color="#93c8dd" offset="0"/><stop stop-color="#93c8dd" offset="1"/></linearGradient><linearGradient id="Y" x2="1" gradientTransform="matrix(0 .50187 .50187 0 518.89 537.52)" gradientUnits="userSpaceOnUse"><stop stop-color="#fff" stop-opacity="0" offset="0"/><stop stop-color="#fff" offset="1"/></linearGradient><linearGradient id="ab" x2="1" gradientTransform="matrix(0 2.6537 2.6537 0 543.74 537.61)" gradientUnits="userSpaceOnUse"><stop stop-color="#fff" stop-opacity="0" offset="0"/><stop stop-color="#fff" offset="1"/></linearGradient><linearGradient id="bg" x2="1" gradientTransform="matrix(0 2.6537 2.6537 0 543.74 537.61)" gradientUnits="userSpaceOnUse"><stop stop-color="#93c8dd" offset="0"/><stop stop-color="#93c8dd" offset="1"/></linearGradient><linearGradient id="bY" x2="1" gradientTransform="matrix(0 .28962 .28962 0 544.85 539.97)" gradientUnits="userSpaceOnUse"><stop stop-color="#fff" offset="0"/><stop stop-color="#fff" offset=".501"/><stop stop-color="#fff" offset="1"/></linearGradient><linearGradient id="aq" x2="1" gradientTransform="matrix(71.858 0 0 -71.858 482.16 546.39)" gradientUnits="userSpaceOnUse"><stop stop-color="#00adef" offset="0"/><stop stop-color="#ed1c24" offset="1"/></linearGradient><linearGradient id="bs" x2="1" gradientTransform="matrix(0 .42195 .42195 0 519.33 536.61)" gradientUnits="userSpaceOnUse"><stop stop-color="#93c8dd" offset="0"/><stop stop-color="#93c8dd" offset="1"/></linearGradient><linearGradient id="P" x2="1" gradientTransform="matrix(0 .42195 .42195 0 519.33 536.61)" gradientUnits="userSpaceOnUse"><stop stop-color="#fff" stop-opacity="0" offset="0"/><stop stop-color="#fff" offset="1"/></linearGradient><linearGradient id="V" x2="1" gradientTransform="scale(7.5603 -7.5603) rotate(30 168.063 95.584)" gradientUnits="userSpaceOnUse"><stop stop-color="#fff" offset="0"/><stop stop-color="#fff" stop-opacity="0" offset="1"/></linearGradient><linearGradient id="bd" x2="1" gradientTransform="scale(7.5603 -7.5603) rotate(30 168.063 95.584)" gradientUnits="userSpaceOnUse"><stop stop-color="#93c8dd" offset="0"/><stop stop-color="#93c8dd" offset="1"/></linearGradient><linearGradient id="as" x2="1" gradientTransform="matrix(71.857 0 0 -71.857 482.16 548.28)" gradientUnits="userSpaceOnUse"><stop stop-color="#00adef" offset="0"/><stop stop-color="#ed1c24" offset="1"/></linearGradient><linearGradient id="S" x2="1" gradientTransform="matrix(13.582 0 0 -13.582 526.67 545.03)" gradientUnits="userSpaceOnUse"><stop stop-color="#fff" offset="0"/><stop stop-color="#fff" stop-opacity="0" offset="1"/></linearGradient><linearGradient id="bv" x2="1" gradientTransform="matrix(0 1.9843 1.9843 0 522.42 536.25)" gradientUnits="userSpaceOnUse"><stop stop-color="#93c8dd" offset="0"/><stop stop-color="#93c8dd" offset="1"/></linearGradient><linearGradient id="J" x2="1" gradientTransform="matrix(0 1.9843 1.9843 0 522.42 536.25)" gradientUnits="userSpaceOnUse"><stop stop-color="#fff" offset="0"/><stop stop-color="#fff" stop-opacity="0" offset="1"/></linearGradient><linearGradient id="M" x2="1" gradientTransform="matrix(2.8409 0 0 -2.8409 525.26 542.03)" gradientUnits="userSpaceOnUse"><stop stop-color="#fff" stop-opacity="0" offset="0"/><stop stop-color="#fff" offset="1"/></linearGradient><linearGradient id="ba" x2="1" gradientTransform="matrix(2.8409 0 0 -2.8409 525.26 542.03)" gradientUnits="userSpaceOnUse"><stop stop-color="#93c8dd" offset="0"/><stop stop-color="#c3d8e0" offset="1"/></linearGradient><linearGradient id="au" x2="1" gradientTransform="matrix(71.86 0 0 -71.86 482.16 554.86)" gradientUnits="userSpaceOnUse"><stop stop-color="#00adef" offset="0"/><stop stop-color="#ed1c24" offset="1"/></linearGradient><linearGradient id="by" x2="1" gradientTransform="matrix(0 1.4545 1.4545 0 525.27 539.04)" gradientUnits="userSpaceOnUse"><stop stop-color="#93c8dd" offset="0"/><stop stop-color="#93c8dd" offset="1"/></linearGradient><linearGradient id="aW" x2="1" gradientTransform="matrix(.25308 0 0 -.25308 540.93 539.61)" gradientUnits="userSpaceOnUse"><stop stop-color="#fff" offset="0"/><stop stop-color="#fff" offset=".628"/><stop stop-color="#93c8dd" offset="1"/></linearGradient><linearGradient id="c" x2="1" gradientTransform="matrix(0 1.4545 1.4545 0 525.27 539.04)" gradientUnits="userSpaceOnUse"><stop stop-color="#fff" offset="0"/><stop stop-color="#fff" stop-opacity="0" offset="1"/></linearGradient><linearGradient id="bU" x2="1" gradientTransform="matrix(13.582 0 0 -13.582 526.67 545.03)" gradientUnits="userSpaceOnUse"><stop stop-color="#c3d8e0" offset="0"/><stop stop-color="#93c8dd" offset="1"/></linearGradient><linearGradient id="aT" x2="1" gradientTransform="matrix(0 .77988 .77988 0 544.94 539.62)" gradientUnits="userSpaceOnUse"><stop stop-color="#ed1c24" offset="0"/><stop stop-color="#ed1c24" offset=".265"/><stop stop-color="#57070c" offset="1"/></linearGradient><linearGradient id="bB" x2="1" gradientTransform="matrix(0 4.4807 4.4807 0 526.74 532.29)" gradientUnits="userSpaceOnUse"><stop stop-color="#93c8dd" offset="0"/><stop stop-color="#93c8dd" offset="1"/></linearGradient><linearGradient id="D" x2="1" gradientTransform="matrix(0 4.4807 4.4807 0 526.74 532.29)" gradientUnits="userSpaceOnUse"><stop stop-color="#fff" stop-opacity="0" offset="0"/><stop stop-color="#fff" offset="1"/></linearGradient><linearGradient id="aQ" x2="1" gradientTransform="scale(24.142 -24.142) rotate(45 38.177 14.973)" gradientUnits="userSpaceOnUse"><stop stop-color="#fff" offset="0"/><stop stop-color="#fff" offset=".543"/><stop stop-color="#93c8dd" offset="1"/></linearGradient><linearGradient id="aw" x2="1" gradientTransform="matrix(71.854 0 0 -71.854 482.16 550.84)" gradientUnits="userSpaceOnUse"><stop stop-color="#00adef" offset="0"/><stop stop-color="#ed1c24" offset="1"/></linearGradient><linearGradient id="bE" x2="1" gradientTransform="matrix(0 2.8076 2.8076 0 541.51 533.89)" gradientUnits="userSpaceOnUse"><stop stop-color="#93c8dd" offset="0"/><stop stop-color="#93c8dd" offset="1"/></linearGradient><linearGradient id="aN" x2="1" gradientTransform="matrix(14.796 -4.6058 -4.5038 -14.472 529.79 548.75)" gradientUnits="userSpaceOnUse"><stop stop-color="#fff" offset="0"/><stop stop-color="#fff" offset=".265"/><stop stop-color="#93c8dd" offset="1"/></linearGradient><linearGradient id="x" x2="1" gradientTransform="matrix(0 2.8076 2.8076 0 541.51 533.89)" gradientUnits="userSpaceOnUse"><stop stop-color="#fff" offset="0"/><stop stop-color="#fff" stop-opacity="0" offset="1"/></linearGradient><linearGradient id="aF" x2="1" gradientTransform="translate(499.92 142.14) scale(17.429)" gradientUnits="userSpaceOnUse"><stop stop-color="#fff" offset="0"/><stop stop-color="#fff" offset="1"/></linearGradient><linearGradient id="ae" x2="1" gradientTransform="matrix(0 4.5491 4.5491 0 528.05 535.71)" gradientUnits="userSpaceOnUse"><stop stop-color="#fff" stop-opacity="0" offset="0"/><stop stop-color="#fff" offset="1"/></linearGradient><linearGradient id="bI" x2="1" gradientTransform="matrix(0 .56375 .56375 0 545.8 533.07)" gradientUnits="userSpaceOnUse"><stop stop-color="#cadae1" offset="0"/><stop stop-color="#93c8dd" offset="1"/></linearGradient><linearGradient id="u" x2="1" gradientTransform="matrix(0 .56375 .56375 0 545.8 533.07)" gradientUnits="userSpaceOnUse"><stop stop-color="#fff" offset="0"/><stop stop-color="#fff" stop-opacity="0" offset="1"/></linearGradient><linearGradient id="aH" x2="1" gradientTransform="scale(-3.1684 3.1684) rotate(89.999 -170.62 -1.44)" gradientUnits="userSpaceOnUse"><stop stop-color="#93c8dd" offset="0"/><stop stop-color="#fff" offset=".606"/><stop stop-color="#fff" offset="1"/></linearGradient><linearGradient id="l" x2="1" gradientTransform="matrix(17.429 0 0 -17.429 499.92 538.17)" gradientUnits="userSpaceOnUse"><stop stop-color="#fff" stop-opacity="0" offset="0"/><stop stop-color="#fff" offset="1"/></linearGradient><linearGradient id="A" x2="1" gradientTransform="matrix(0 5.335 5.335 0 535.98 544.05)" gradientUnits="userSpaceOnUse"><stop stop-color="#fff" offset="0"/><stop stop-color="#fff" stop-opacity="0" offset="1"/></linearGradient><linearGradient id="bL" x2="1" gradientTransform="matrix(0 4.8438 4.8438 0 534.91 537.33)" gradientUnits="userSpaceOnUse"><stop stop-color="#93c8dd" offset="0"/><stop stop-color="#c3d8e0" offset="1"/></linearGradient><linearGradient id="i" x2="1" gradientTransform="matrix(0 4.8438 4.8438 0 534.91 537.33)" gradientUnits="userSpaceOnUse"><stop stop-color="#fff" stop-opacity="0" offset="0"/><stop stop-color="#fff" offset="1"/></linearGradient><linearGradient id="r" x2="1" gradientTransform="matrix(17.427 0 0 -17.427 511.97 549.75)" gradientUnits="userSpaceOnUse"><stop stop-color="#fff" stop-opacity="0" offset="0"/><stop stop-color="#fff" offset="1"/></linearGradient><linearGradient id="az" x2="1" gradientTransform="translate(511.97 130.57) scale(17.427)" gradientUnits="userSpaceOnUse"><stop stop-color="#fff" offset="0"/><stop stop-color="#fff" offset="1"/></linearGradient><linearGradient id="bR" x2="1" gradientTransform="matrix(0 5.335 5.335 0 535.98 544.05)" gradientUnits="userSpaceOnUse"><stop stop-color="#c3d8e0" offset="0"/><stop stop-color="#93c8dd" offset="1"/></linearGradient><linearGradient id="aD" x2="1" gradientTransform="translate(501.89 147.14) scale(17.248)" gradientUnits="userSpaceOnUse"><stop stop-color="#fff" offset="0"/><stop stop-color="#fff" offset="1"/></linearGradient><linearGradient id="bO" x2="1" gradientTransform="matrix(0 1.0244 1.0244 0 545.39 536.22)" gradientUnits="userSpaceOnUse"><stop stop-color="#93c8dd" offset="0"/><stop stop-color="#93c8dd" offset="1"/></linearGradient><linearGradient id="o" x2="1" gradientTransform="matrix(17.307 0 0 -17.307 506.86 543.01)" gradientUnits="userSpaceOnUse"><stop stop-color="#fff" stop-opacity="0" offset="0"/><stop stop-color="#fff" offset="1"/></linearGradient><linearGradient id="aB" x2="1" gradientTransform="translate(506.86 137.3) scale(17.307)" gradientUnits="userSpaceOnUse"><stop stop-color="#fff" offset="0"/><stop stop-color="#fff" offset="1"/></linearGradient><linearGradient id="G" x2="1" gradientTransform="matrix(17.248 0 0 -17.248 501.89 533.17)" gradientUnits="userSpaceOnUse"><stop stop-color="#fff" stop-opacity="0" offset="0"/><stop stop-color="#fff" offset="1"/></linearGradient><linearGradient id="f" x2="1" gradientTransform="matrix(0 1.0244 1.0244 0 545.39 536.22)" gradientUnits="userSpaceOnUse"><stop stop-color="#fff" stop-opacity="0" offset="0"/><stop stop-color="#fff" offset="1"/></linearGradient><mask id="aC" x="0" y="0" width="1" height="1" maskUnits="userSpaceOnUse"><g clip-path="url(#E)"><g clip-path="url(#F)"><path d="M514.66 561.57h37.417v-37.417H514.66z" fill="url(#G)"/></g></g></mask><mask id="bx" x="0" y="0" width="1" height="1" maskUnits="userSpaceOnUse"><g clip-path="url(#a)"><g clip-path="url(#b)"><path d="M524.94 540.67h.66v-1.632h-.66z" fill="url(#c)"/></g></g></mask><mask id="bK" x="0" y="0" width="1" height="1" maskUnits="userSpaceOnUse"><g clip-path="url(#g)"><g clip-path="url(#h)"><path d="M528.85 542.27h12.118v-4.934H528.85z" fill="url(#i)"/></g></g></mask><mask id="aE" x="0" y="0" width="1" height="1" maskUnits="userSpaceOnUse"><g clip-path="url(#j)"><g clip-path="url(#k)"><path d="M514.66 561.57h37.417v-37.417H514.66z" fill="url(#l)"/></g></g></mask><mask id="aA" x="0" y="0" width="1" height="1" maskUnits="userSpaceOnUse"><g clip-path="url(#m)"><g clip-path="url(#n)"><path d="M514.66 561.57h37.417v-37.417H514.66z" fill="url(#o)"/></g></g></mask><mask id="ay" x="0" y="0" width="1" height="1" maskUnits="userSpaceOnUse"><g clip-path="url(#p)"><g clip-path="url(#q)"><path d="M514.66 561.57h37.417v-37.417H514.66z" fill="url(#r)"/></g></g></mask><mask id="bH" x="0" y="0" width="1" height="1" maskUnits="userSpaceOnUse"><g clip-path="url(#s)"><g clip-path="url(#t)"><path d="M545.1 533.63h1.129v-.615H545.1z" fill="url(#u)"/></g></g></mask><mask id="bD" x="0" y="0" width="1" height="1" maskUnits="userSpaceOnUse"><g clip-path="url(#v)"><g clip-path="url(#w)"><path d="M537.78 536.69h7.461v-3.137h-7.461z" fill="url(#x)"/></g></g></mask><mask id="bQ" x="0" y="0" width="1" height="1" maskUnits="userSpaceOnUse"><g clip-path="url(#y)"><g clip-path="url(#z)"><path d="M530.42 549.39h11.12v-5.335h-11.12z" fill="url(#A)"/></g></g></mask><mask id="bA" x="0" y="0" width="1" height="1" maskUnits="userSpaceOnUse"><g clip-path="url(#B)"><g clip-path="url(#C)"><path d="M522.23 536.77h9.019v-4.48h-9.019z" fill="url(#D)"/></g></g></mask><mask id="bN" x="0" y="0" width="1" height="1" maskUnits="userSpaceOnUse"><g clip-path="url(#d)"><g clip-path="url(#e)"><path d="M541.84 537.25h7.095v-1.348h-7.095z" fill="url(#f)"/></g></g></mask><mask id="bu" x="0" y="0" width="1" height="1" maskUnits="userSpaceOnUse"><g clip-path="url(#H)"><g clip-path="url(#I)"><path d="M520.2 538.24h4.455v-2.136H520.2z" fill="url(#J)"/></g></g></mask><mask id="aZ" x="0" y="0" width="1" height="1" maskUnits="userSpaceOnUse"><g clip-path="url(#K)"><g clip-path="url(#L)"><path d="M524.46 542.93h3.641v-2.261h-3.641z" fill="url(#M)"/></g></g></mask><mask id="br" x="0" y="0" width="1" height="1" maskUnits="userSpaceOnUse"><g clip-path="url(#N)"><g clip-path="url(#O)"><path d="M518.79 537.04h1.074v-.638h-1.074z" fill="url(#P)"/></g></g></mask><mask id="bT" x="0" y="0" width="1" height="1" maskUnits="userSpaceOnUse"><g clip-path="url(#Q)"><g clip-path="url(#R)"><path d="M525.89 547.03h14.358v-3.997H525.89z" fill="url(#S)"/></g></g></mask><mask id="bc" x="0" y="0" width="1" height="1" maskUnits="userSpaceOnUse"><g clip-path="url(#T)"><g clip-path="url(#U)"><path d="M533.3 542.36l7.064-4.079-3.574-6.191-7.064 4.079z" fill="url(#V)"/></g></g></mask><mask id="bo" x="0" y="0" width="1" height="1" maskUnits="userSpaceOnUse"><g clip-path="url(#W)"><g clip-path="url(#X)"><path d="M518.44 538.02h.779v-.735h-.779z" fill="url(#Y)"/></g></g></mask><mask id="bf" x="0" y="0" width="1" height="1" maskUnits="userSpaceOnUse"><g clip-path="url(#Z)"><g clip-path="url(#aa)"><path d="M541.25 540.26h5.14v-2.803h-5.14z" fill="url(#ab)"/></g></g></mask><mask id="bl" x="0" y="0" width="1" height="1" maskUnits="userSpaceOnUse"><g clip-path="url(#ac)"><g clip-path="url(#ad)"><path d="M524.01 535.19v5.075h8.544v-5.075z" fill="url(#ae)"/></g></g></mask><mask id="bX" x="0" y="0" width="1" height="1" maskUnits="userSpaceOnUse"><g clip-path="url(#af)"><g clip-path="url(#ag)"><path d="M544.7 540.26h.309v-.3h-.309z" fill="url(#ah)"/></g></g></mask><mask id="bi" x="0" y="0" width="1" height="1" maskUnits="userSpaceOnUse"><g clip-path="url(#ai)"><g clip-path="url(#aj)"><path d="M546.04 540.4h1.192v-1.988h-1.192z" fill="url(#ak)"/></g></g></mask></defs><g transform="matrix(.62537 0 0 -.62537 -320.325 352.71)" clip-path="url(#al)"><path d="M520.27 561.57s-5.612 0-5.612-5.613v-26.195c.001-.171.087-5.609 5.612-5.609h26.192s5.612 0 5.612 5.612v26.192s0 5.613-5.612 5.613z" fill="url(#am)"/></g><g transform="matrix(.62537 0 0 -.62537 -320.325 352.71)" clip-path="url(#an)"><path d="M516.96 550.88v-13.316h4.466v14.626c-1.428-.45-2.918-.888-4.466-1.31" fill="url(#ao)"/></g><g transform="matrix(.62537 0 0 -.62537 -320.325 352.71)" clip-path="url(#ap)"><path d="M525.33 553.5v-15.936h4.468v17.652a98.166 98.166 0 00-4.468-1.716" fill="url(#aq)"/></g><g transform="matrix(.62537 0 0 -.62537 -320.325 352.71)" clip-path="url(#ar)"><path d="M533.69 556.93v-19.37h4.087v21.436a78.262 78.262 0 00-4.087-2.066" fill="url(#as)"/></g><g transform="matrix(.62537 0 0 -.62537 -320.325 352.71)" clip-path="url(#at)"><path d="M549.66 537.56h2.413v18.394s0 3.198-2.413 4.765z" fill="url(#au)"/></g><g transform="matrix(.62537 0 0 -.62537 -320.325 352.71)" clip-path="url(#av)"><path d="M542.13 561.57l-.452-.289v-23.718h4.088v24.007z" fill="url(#aw)"/></g><g transform="matrix(.62537 0 0 -.62537 -320.325 352.71)" clip-path="url(#ax)"><g mask="url(#ay)"><path d="M0 0h-17.427" fill="none" stroke="url(#az)" stroke-width=".88" transform="translate(529.4 549.75)"/><g mask="url(#aA)"><path d="M0 0h-17.307" fill="none" stroke="url(#aB)" stroke-width=".88" transform="translate(524.16 543.01)"/><g mask="url(#aC)"><path d="M0 0h-17.247" fill="none" stroke="url(#aD)" stroke-width=".88" transform="translate(519.14 533.17)"/><g mask="url(#aE)"><path d="M0 0h-17.429" fill="none" stroke="url(#aF)" stroke-width=".88" transform="translate(517.35 538.17)"/></g><path d="M541.06 539.19c.095-.072 2.009-.718 2.351-1.347 0 0 3.468-.38 3.821-.736 0 0 .622.897 1.259.682 0 0 1.06-.486.639-1.03 0 0 .316-.181-.124-.457 0 0-.891-.56-1.683-.095 0 0-3.633-.346-4.294.623 0 0-1.408-.074-1.702.574-.294.649-.267 1.786-.267 1.786zm-14.11-1.61s.33 5.242 4.271 4.679c0 0 6.384-1.829-2.135-7.486 0 0-3.025-3.203-3.326-.158 0 0-2.318-3.136-4.249-2.621 0 0-.964-.101-1.105.601 0 0-.572.138-.4.955 0 0 .4 1.065.946.515 0 0 .559.097 1.546.285 0 0 2.747.879 2.619 3.425 0 0 .009 1.673 1.25-.617 0 0 .357-.895.583.422zm16.79 3.83s-5.534 10.105-11.666 9.162c0 0-4.795-1.1.29-2.287 0 0 4.061.015 7.317-2.905 0 0 3.251-2.698 3.331-3.861z" fill="none" stroke="#fff" stroke-linecap="round" stroke-linejoin="round" stroke-width="2.2"/><path d="M547.5 534.18s-.71 1.085-2.337.412c0 0-2.635.449-3.093 1.085 0 0-.277.363-.624.706.241.527.294 1.124.265 1.668.579-.443 1.508-.77 2.978-.469 0 0 1.221-.658 1.688 0 0 0 .425.245.548.514 0 0 .082-.056.406.35 0 0-.12 1.424-.954 2.196 0 0-.698 2.543-4.292 1.157 0 0-6.574 7.865-14.46 5.386 0 0-4.471-1.463 1.017-2.277 0 0 6.138.407 8.332-.65 0 0 4.147-1.748 4.594-2.927 0 0-.414-.212-.628-1.214-1.858 1.314-5.145.11-5.145.11-1.566-.284-2.096.525-2.096.525-.786 1.16-1.803 1.516-1.803 1.516-2.543.906-3.482-.4-3.482-.4.172 1.106-.204 1.634-.204 1.634-1.709 2.226-2.848 0-2.848 0-1.4-2.876 1.272-2.804 2.065-2.725-.617-.724-.965-1.402-.965-1.402-.733-1.118-.704-.154-.704-.154-.224 2.593-.9 1.063-.9 1.063-.897-2.387-3.767-2.098-3.767-2.098-.981.221-1.531.354-1.531.354-.281.723-1.074-.094-1.074-.094-.482-.68-.013-1.036-.013-1.036-.15-.7.774-.991.774-.991 1.566-1.243 4.942.71 4.942.71-.938-2.912 3.113-1.18 3.113-1.18 1.651.293 2.887.654 3.811 1.049 1.465.076 2.624-.141 2.624-.141 2.459-1.693 4.396-1.866 5.662-1.665.552-.308 1.356-.703 1.922-.75 0 0 .168-1.102 4.092-.701 0 0-.878-.821.354-.958 0 0 .587.049.743.386 0 0 .489-.075.657.337 0 0 .751.112.333.674zm-16.42 2.86s1.426.946.789 2.406m-4.559 1.194s.574.812 1.107 1.234m-9.977-4.424s.326-.212.7-.12m.07-.87s.652-.139.757 0m.433-3.86s.421-.178.608 0m.502-.6s.066-.082.403.291m2.247 4.749s.218.646.667.982m14.543-2.792s-1.057 1.113-1.769 1.164m3.809.026s-.708.632-1.083.703m6.563 1.007s.064-.32-.46.4" fill="none" stroke="#fff" stroke-linecap="round" stroke-linejoin="round" stroke-width="2.2"/><path d="M545.15 539.54s.781.131.463.842c0 0-.49.974-1.874.356 0 0 .376.187.714-.15 0 0-.74-1.217.697-1.048z" fill="none" stroke="#fff" stroke-linecap="round" stroke-linejoin="round" stroke-width="2.2"/><path d="M545.43 539.9c-.047-.206-.301-.325-.568-.265s-.447.276-.4.483.301.326.568.266c.268-.061.447-.277.4-.484zm-3.89 1.47s.254-.336.404-.86m-.754-1.41s-.315.415-.242 1.016m-15.558 2.814s-.932-2.261 2.174-1.717c0 0 .339.413.536.582 0 0-.438-.185-.964-.289-.202-.039-.78-.003-1.233.799-.1.179.495-.945.031-.769-.416.157-.681.562-.544 1.394zm13.15-7.45s-2.163-.369-4.821 1.685c0 0-1.813.597-2.158.152 0 0 .845.85.476 2.02 0 0 .416-1.368 1.38-1.89 0 0 .301-.008.613-.282 0 0 2.53-1.813 4.51-1.685zm2.72 4.78s-.092-1.819 1.008-2.201c0 0 .961-.601 2.442-.143 0 0 .355-.232.975-.31 0 0 .708.151.507.689 0 0-.367.868-.862.538 0 0-.313-.243-.184-.599 0 0 .026-.139-.436 0 0 0-1.797-.63-2.77.296 0 0-.753.864-.68 1.73zm4.78.14s.703-.868.619-1.466c0 0 .018-.503.231-.522 0 0 .342.074.176.44 0 0 .019.584-1.026 1.548z" fill="none" stroke="#fff" stroke-linecap="round" stroke-linejoin="round" stroke-width="2.2"/><path d="M524.98 537.83s-.955-.903-.486-1.802c0 0 .504-.837 2.704.235 0 0 3.392.647 3.777 1.043 0 0 1.576 1.05.22 2.96 0 0 .923-1.629-.202-2.654 0 0-2.805-1.473-3.831-.838 0 0-.979-1.196-2.439-.63 0 0-.714.293.257 1.686zm-6.4.19s-.147-.735.632-.426c0 0-.541-.04-.632.426zm.21-.98s.469-.638 1.074-.345c0 0-.762-.067-1.074.345zm1.4-.78s1.76-.159 3.776 1.043c0 0 .349.813.679.934 0 0-.886-.244-1.247-.934 0 0-.641-.795-3.208-1.043zm4.75 3.66s.177.642.318.568c.14-.073.342-1.21.342-1.448 0 0-.311 1.632-.66.88zm-2.71-7.63s1.217.056 3.569 2.824c0 0 .061.157.079.115 0 0 .217-1.332.704-1.466 0 0 .91-.139 4.668 3.008 0 0-3.856-3.417-4.668-2.241l-.455.924s-.388-.115-1.039-.121c0 0 .02-1.467-2.858-3.043zm15.55 4.4s1.43-.602 1.76-1.236c0 0 1.315-.817 1.877-.725 0 0 .213-1.174 3.824-.752 0 0-3.674-.147-3.56 1.1 0 0-1.059-.34-1.811.636 0 0-.208-.034-.953.546-.173.134-.917.467-1.137.431zm8.74-3.52s.097.843-.287.714m.937-.374s.065.712-.394.755m-1.176-.635c.02.063-.532-.55 0-.55 0 0 .325-.061.623.135 0 0-.281-.128-.542 0 0 0-.191.067-.081.415z" fill="none" stroke="#fff" stroke-linecap="round" stroke-linejoin="round" stroke-width="2.2"/><path d="M528.85 541.74s1.69 1.176 3.641-.332c0 0 .997-1.472.997-1.785l.715-.934v.934l2.475-1.535-.348 1.677s3.3-.474 4.638-1.527c0 0-2.475 1.052-4.18 1.1 0 0 .156-1.529.811-2.005 0 0-1.764.054-2.919 1.603 0 0-.366-.846.229-1.344 0 0-.963.175-2.209 2.672 0 0-.358 1.19-1.618 1.641 0 0-.95.362-2.232-.165zm12.99-4.49s.797-.33 1.293-.192c0 0 .22-.868 4.166-.633 0 0 .536-.523 1.636.124 0 0-1.031-.454-1.609.082 0 0-2.371-.669-4.015.619 0 0-.784-.234-1.471 0zm-11.42 12.14s1.452-.797 2.073-.715c0 0 5.097-.055 9.047-4.62 0 0-4.272 5.253-8.398 5.143 0 0-.082-.798-2.722.192zm9.83-6.35s-5.137 4.636-10.548 3.923c0 0-3.81-.729-2.891-1.074 0 0 1.185-.328 2.422-.356 0 0-1.723.468-1.09.756 0 0 1.387.528 2.4.198 0 0 .515-.286.776-.796 0 0 0 .787.43.87 0 0 4.225-.346 8.501-3.521z" fill="none" stroke="#fff" stroke-linecap="round" stroke-linejoin="round" stroke-width="2.2"/><path d="M540.33 543.04c-7.937 6.439-13.587 3.107-13.587 3.107-.633-.375 1.906-.674 1.906-.674M545 540.14a.145.145 0 10-.287-.041.145.145 0 00.287.041z" fill="none" stroke="#fff" stroke-linecap="round" stroke-linejoin="round" stroke-width="2.2"/><path d="M541.06 539.19c.095-.072 2.009-.718 2.351-1.347 0 0 3.468-.38 3.821-.736 0 0 .622.897 1.259.682 0 0 1.06-.486.639-1.03 0 0 .316-.181-.124-.457 0 0-.891-.56-1.683-.095 0 0-3.633-.346-4.294.623 0 0-1.408-.074-1.702.574-.294.649-.267 1.786-.267 1.786zm-14.11-1.61s.33 5.242 4.271 4.679c0 0 6.384-1.829-2.135-7.486 0 0-3.025-3.203-3.326-.158 0 0-2.318-3.136-4.249-2.621 0 0-.964-.101-1.105.601 0 0-.572.138-.4.955 0 0 .4 1.065.946.515 0 0 .559.097 1.546.285 0 0 2.747.879 2.619 3.425 0 0 .009 1.673 1.25-.617 0 0 .357-.895.583.422zm16.79 3.83s-5.534 10.105-11.666 9.162c0 0-4.795-1.1.29-2.287 0 0 4.061.015 7.317-2.905 0 0 3.251-2.698 3.331-3.861z" fill="none" stroke="#5c869a" stroke-linecap="round" stroke-linejoin="round" stroke-width=".88"/><path d="M547.5 534.18s-.71 1.085-2.337.412c0 0-2.635.449-3.093 1.085 0 0-.277.363-.624.706.241.527.294 1.124.265 1.668.579-.443 1.508-.77 2.978-.469 0 0 1.221-.658 1.688 0 0 0 .425.245.548.514 0 0 .082-.056.406.35 0 0-.12 1.424-.954 2.196 0 0-.698 2.543-4.292 1.157 0 0-6.574 7.865-14.46 5.386 0 0-4.471-1.463 1.017-2.277 0 0 6.138.407 8.332-.65 0 0 4.147-1.748 4.594-2.927 0 0-.414-.212-.628-1.214-1.858 1.314-5.145.11-5.145.11-1.566-.284-2.096.525-2.096.525-.786 1.16-1.803 1.516-1.803 1.516-2.543.906-3.482-.4-3.482-.4.172 1.106-.204 1.634-.204 1.634-1.709 2.226-2.848 0-2.848 0-1.4-2.876 1.272-2.804 2.065-2.725-.617-.724-.965-1.402-.965-1.402-.733-1.118-.704-.154-.704-.154-.224 2.593-.9 1.063-.9 1.063-.897-2.387-3.767-2.098-3.767-2.098-.981.221-1.531.354-1.531.354-.281.723-1.074-.094-1.074-.094-.482-.68-.013-1.036-.013-1.036-.15-.7.774-.991.774-.991 1.566-1.243 4.942.71 4.942.71-.938-2.912 3.113-1.18 3.113-1.18 1.651.293 2.887.654 3.811 1.049 1.465.076 2.624-.141 2.624-.141 2.459-1.693 4.396-1.866 5.662-1.665.552-.308 1.356-.703 1.922-.75 0 0 .168-1.102 4.092-.701 0 0-.878-.821.354-.958 0 0 .587.049.743.386 0 0 .489-.075.657.337 0 0 .751.112.333.674zm-16.42 2.86s1.426.946.789 2.406m-4.559 1.194s.574.812 1.107 1.234m-9.977-4.424s.326-.212.7-.12m.07-.87s.652-.139.757 0m.433-3.86s.421-.178.608 0m.502-.6s.066-.082.403.291m2.247 4.749s.218.646.667.982m14.543-2.792s-1.057 1.113-1.769 1.164m3.809.026s-.708.632-1.083.703m6.563 1.007s.064-.32-.46.4" fill="none" stroke="#5c869a" stroke-linecap="round" stroke-linejoin="round" stroke-width=".88"/><path d="M545.15 539.54s.781.131.463.842c0 0-.49.974-1.874.356 0 0 .376.187.714-.15 0 0-.74-1.217.697-1.048z" fill="none" stroke="#5c869a" stroke-linecap="round" stroke-linejoin="round" stroke-width=".88"/><path d="M545.43 539.9c-.047-.206-.301-.325-.568-.265s-.447.276-.4.483.301.326.568.266c.268-.061.447-.277.4-.484zm-3.89 1.47s.254-.336.404-.86m-.754-1.41s-.315.415-.242 1.016m-15.558 2.814s-.932-2.261 2.174-1.717c0 0 .339.413.536.582 0 0-.438-.185-.964-.289-.202-.039-.78-.003-1.233.799-.1.179.495-.945.031-.769-.416.157-.681.562-.544 1.394zm13.15-7.45s-2.163-.369-4.821 1.685c0 0-1.813.597-2.158.152 0 0 .845.85.476 2.02 0 0 .416-1.368 1.38-1.89 0 0 .301-.008.613-.282 0 0 2.53-1.813 4.51-1.685zm2.72 4.78s-.092-1.819 1.008-2.201c0 0 .961-.601 2.442-.143 0 0 .355-.232.975-.31 0 0 .708.151.507.689 0 0-.367.868-.862.538 0 0-.313-.243-.184-.599 0 0 .026-.139-.436 0 0 0-1.797-.63-2.77.296 0 0-.753.864-.68 1.73zm4.78.14s.703-.868.619-1.466c0 0 .018-.503.231-.522 0 0 .342.074.176.44 0 0 .019.584-1.026 1.548z" fill="none" stroke="#5c869a" stroke-linecap="round" stroke-linejoin="round" stroke-width=".88"/><path d="M524.98 537.83s-.955-.903-.486-1.802c0 0 .504-.837 2.704.235 0 0 3.392.647 3.777 1.043 0 0 1.576 1.05.22 2.96 0 0 .923-1.629-.202-2.654 0 0-2.805-1.473-3.831-.838 0 0-.979-1.196-2.439-.63 0 0-.714.293.257 1.686zm-6.4.19s-.147-.735.632-.426c0 0-.541-.04-.632.426zm.21-.98s.469-.638 1.074-.345c0 0-.762-.067-1.074.345zm1.4-.78s1.76-.159 3.776 1.043c0 0 .349.813.679.934 0 0-.886-.244-1.247-.934 0 0-.641-.795-3.208-1.043zm4.75 3.66s.177.642.318.568c.14-.073.342-1.21.342-1.448 0 0-.311 1.632-.66.88zm-2.71-7.63s1.217.056 3.569 2.824c0 0 .061.157.079.115 0 0 .217-1.332.704-1.466 0 0 .91-.139 4.668 3.008 0 0-3.856-3.417-4.668-2.241l-.455.924s-.388-.115-1.039-.121c0 0 .02-1.467-2.858-3.043zm15.55 4.4s1.43-.602 1.76-1.236c0 0 1.315-.817 1.877-.725 0 0 .213-1.174 3.824-.752 0 0-3.674-.147-3.56 1.1 0 0-1.059-.34-1.811.636 0 0-.208-.034-.953.546-.173.134-.917.467-1.137.431zm8.74-3.52s.097.843-.287.714m.937-.374s.065.712-.394.755m-1.176-.635c.02.063-.532-.55 0-.55 0 0 .325-.061.623.135 0 0-.281-.128-.542 0 0 0-.191.067-.081.415z" fill="none" stroke="#5c869a" stroke-linecap="round" stroke-linejoin="round" stroke-width=".88"/><path d="M528.85 541.74s1.69 1.176 3.641-.332c0 0 .997-1.472.997-1.785l.715-.934v.934l2.475-1.535-.348 1.677s3.3-.474 4.638-1.527c0 0-2.475 1.052-4.18 1.1 0 0 .156-1.529.811-2.005 0 0-1.764.054-2.919 1.603 0 0-.366-.846.229-1.344 0 0-.963.175-2.209 2.672 0 0-.358 1.19-1.618 1.641 0 0-.95.362-2.232-.165zm12.99-4.49s.797-.33 1.293-.192c0 0 .22-.868 4.166-.633 0 0 .536-.523 1.636.124 0 0-1.031-.454-1.609.082 0 0-2.371-.669-4.015.619 0 0-.784-.234-1.471 0zm-11.42 12.14s1.452-.797 2.073-.715c0 0 5.097-.055 9.047-4.62 0 0-4.272 5.253-8.398 5.143 0 0-.082-.798-2.722.192zm9.83-6.35s-5.137 4.636-10.548 3.923c0 0-3.81-.729-2.891-1.074 0 0 1.185-.328 2.422-.356 0 0-1.723.468-1.09.756 0 0 1.387.528 2.4.198 0 0 .515-.286.776-.796 0 0 0 .787.43.87 0 0 4.225-.346 8.501-3.521z" fill="none" stroke="#5c869a" stroke-linecap="round" stroke-linejoin="round" stroke-width=".88"/><path d="M540.33 543.04c-7.937 6.439-13.587 3.107-13.587 3.107-.633-.375 1.906-.674 1.906-.674M545 540.14a.145.145 0 10-.287-.041.145.145 0 00.287.041z" fill="none" stroke="#5c869a" stroke-linecap="round" stroke-linejoin="round" stroke-width=".88"/></g></g></g></g><g transform="matrix(.62537 0 0 -.62537 -320.325 352.71)" clip-path="url(#aG)"><path d="M541.32 537.41c.294-.649 1.702-.574 1.702-.574.661-.97 4.295-.624 4.295-.624.791-.465 1.683.094 1.683.094.44.277.124.458.124.458.42.544-.641 1.03-.641 1.03-.636.214-1.257-.681-1.257-.681-.354.356-3.822.735-3.822.735-.342.629-2.256 1.275-2.35 1.347 0 0-.027-1.136.266-1.785" fill="url(#aH)"/></g><g transform="matrix(.62537 0 0 -.62537 -320.325 352.71)" clip-path="url(#aI)"><path d="M541.06 539.19c.095-.072 2.009-.718 2.351-1.347 0 0 3.468-.38 3.821-.736 0 0 .622.897 1.259.682 0 0 1.06-.486.639-1.03 0 0 .316-.181-.124-.457 0 0-.891-.56-1.683-.095 0 0-3.633-.346-4.294.623 0 0-1.408-.074-1.702.574-.294.649-.267 1.786-.267 1.786z" fill="none" stroke="#5c869a" stroke-width=".22"/></g><g transform="matrix(.62537 0 0 -.62537 -320.325 352.71)" clip-path="url(#aJ)"><path d="M526.95 537.58c-.226-1.317-.584-.421-.584-.421-1.239 2.29-1.25.617-1.25.617.13-2.546-2.618-3.426-2.618-3.426-.987-.187-1.545-.284-1.545-.284-.547.55-.948-.516-.948-.516-.171-.816.401-.955.401-.955.141-.702 1.105-.6 1.105-.6 1.931-.516 4.249 2.621 4.249 2.621.301-3.046 3.325.158 3.325.158 8.519 5.656 2.136 7.485 2.136 7.485a4.021 4.021 0 01-.575.043c-3.399 0-3.696-4.722-3.696-4.722" fill="url(#aK)"/></g><g transform="matrix(.62537 0 0 -.62537 -320.325 352.71)" clip-path="url(#aL)"><path d="M526.95 537.58s.33 5.242 4.271 4.679c0 0 6.384-1.829-2.135-7.486 0 0-3.025-3.203-3.326-.158 0 0-2.318-3.136-4.249-2.621 0 0-.964-.101-1.105.601 0 0-.572.138-.4.955 0 0 .4 1.065.946.515 0 0 .559.097 1.546.285 0 0 2.747.879 2.619 3.425 0 0 .009 1.673 1.25-.617 0 0 .357-.895.583.422z" fill="none" stroke="#5c869a" stroke-width=".22"/></g><g transform="matrix(.62537 0 0 -.62537 -320.325 352.71)" clip-path="url(#aM)"><path d="M532.07 550.57s-4.794-1.1.292-2.287c0 0 4.06.015 7.316-2.905 0 0 3.251-2.699 3.331-3.862l.728-.107s-5.052 9.223-10.85 9.224c-.271 0-.543-.02-.817-.063" fill="url(#aN)"/></g><g transform="matrix(.62537 0 0 -.62537 -320.325 352.71)" clip-path="url(#aO)"><path d="M543.74 541.41s-5.534 10.105-11.666 9.162c0 0-4.795-1.1.29-2.287 0 0 4.061.015 7.317-2.905 0 0 3.251-2.698 3.331-3.861z" fill="none" stroke="#5c869a" stroke-width=".22"/></g><g transform="matrix(.62537 0 0 -.62537 -320.325 352.71)" clip-path="url(#aP)"><path d="M527.63 547.19s-4.472-1.463 1.016-2.277c0 0 6.139.407 8.334-.65 0 0 4.146-1.747 4.593-2.926 0 0-.413-.213-.629-1.214-1.858 1.313-5.143.109-5.143.109-1.567-.284-2.097.525-2.097.525-.786 1.16-1.803 1.517-1.803 1.517-2.543.905-3.482-.401-3.482-.401.173 1.106-.204 1.634-.204 1.634-1.709 2.226-2.847 0-2.847 0-1.402-2.876 1.271-2.804 2.063-2.725-.617-.723-.964-1.403-.964-1.403-.733-1.117-.703-.153-.703-.153-.225 2.593-.901 1.063-.901 1.063-.897-2.387-3.768-2.099-3.768-2.099-.98.223-1.53.356-1.53.356-.281.722-1.074-.095-1.074-.095-.483-.68-.013-1.036-.013-1.036-.151-.699.773-.991.773-.991 1.566-1.242 4.943.711 4.943.711-.938-2.913 3.112-1.181 3.112-1.181 1.652.294 2.888.653 3.812 1.049 1.465.077 2.623-.14 2.623-.14 2.46-1.694 4.397-1.867 5.662-1.665.554-.309 1.357-.703 1.924-.751 0 0 .167-1.102 4.09-.701 0 0-.877-.821.356-.958 0 0 .585.05.742.387 0 0 .489-.075.657.336 0 0 .752.113.333.674 0 0-.709 1.086-2.337.412 0 0-2.635.45-3.093 1.086 0 0-.277.363-.624.705.241.527.294 1.125.264 1.668.581-.443 1.51-.769 2.979-.468 0 0 1.221-.659 1.688 0 0 0 .425.244.548.513 0 0 .082-.056.407.351 0 0-.122 1.422-.955 2.195 0 0-.698 2.544-4.291 1.158 0 0-4.907 5.869-11.326 5.869-1.012 0-2.061-.146-3.135-.484" fill="url(#aQ)"/></g><g transform="matrix(.62537 0 0 -.62537 -320.325 352.71)" clip-path="url(#aR)"><path d="M547.5 534.18s-.71 1.085-2.337.412c0 0-2.635.449-3.093 1.085 0 0-.277.363-.624.706.241.527.294 1.124.265 1.668.579-.443 1.508-.77 2.978-.469 0 0 1.221-.658 1.688 0 0 0 .425.245.548.514 0 0 .082-.056.406.35 0 0-.12 1.424-.954 2.196 0 0-.698 2.543-4.292 1.157 0 0-6.574 7.865-14.46 5.386 0 0-4.471-1.463 1.017-2.277 0 0 6.138.407 8.332-.65 0 0 4.147-1.748 4.594-2.927 0 0-.414-.212-.628-1.214-1.858 1.314-5.145.11-5.145.11-1.566-.284-2.096.525-2.096.525-.786 1.16-1.803 1.516-1.803 1.516-2.543.906-3.482-.4-3.482-.4.172 1.106-.204 1.634-.204 1.634-1.709 2.226-2.848 0-2.848 0-1.4-2.876 1.272-2.804 2.065-2.725-.617-.724-.965-1.402-.965-1.402-.733-1.118-.704-.154-.704-.154-.224 2.593-.9 1.063-.9 1.063-.897-2.387-3.767-2.098-3.767-2.098-.981.221-1.531.354-1.531.354-.281.723-1.074-.094-1.074-.094-.482-.68-.013-1.036-.013-1.036-.15-.7.774-.991.774-.991 1.566-1.243 4.942.71 4.942.71-.938-2.912 3.113-1.18 3.113-1.18 1.651.293 2.887.654 3.811 1.049 1.465.076 2.624-.141 2.624-.141 2.459-1.693 4.396-1.866 5.662-1.665.552-.308 1.356-.703 1.922-.75 0 0 .168-1.102 4.092-.701 0 0-.878-.821.354-.958 0 0 .587.049.743.386 0 0 .489-.075.657.337 0 0 .751.112.333.674zm-16.42 2.86s1.426.946.789 2.406m-4.559 1.194s.574.812 1.107 1.234m-9.977-4.424s.326-.212.7-.12m.07-.87s.652-.139.757 0m.433-3.86s.421-.178.608 0m.502-.6s.066-.082.403.291m2.247 4.749s.218.646.667.982m14.543-2.792s-1.057 1.113-1.769 1.164m3.809.026s-.708.632-1.083.703m6.563 1.007s.064-.32-.46.4" fill="none" stroke="#5c869a" stroke-linecap="round" stroke-linejoin="round" stroke-width=".22"/><path d="M545.15 539.54s.781.131.463.842c0 0-.49.974-1.874.356 0 0 .376.187.714-.15 0 0-.74-1.217.697-1.048" fill="#5c869a"/></g><g transform="matrix(.62537 0 0 -.62537 -320.325 352.71)" clip-path="url(#aS)"><path d="M544.46 540.12c-.046-.206.134-.423.4-.483.267-.06.522.059.569.266.047.206-.132.422-.4.483a.61.61 0 01-.139.015c-.212 0-.391-.11-.43-.281" fill="url(#aT)"/></g><g transform="matrix(.62537 0 0 -.62537 -320.325 352.71)" clip-path="url(#aU)" fill="none" stroke="#5c869a"><path d="M545.43 539.9c-.047-.206-.301-.325-.568-.265s-.447.276-.4.483.301.326.568.266c.268-.061.447-.277.4-.484z" stroke-width=".11"/><path d="M541.54 541.37s.254-.336.404-.86" stroke-linecap="round" stroke-linejoin="round" stroke-width=".22"/></g><g transform="matrix(.62537 0 0 -.62537 -320.325 352.71)" clip-path="url(#aV)"><path d="M541.19 539.1l-.242 1.017c-.073-.602.242-1.017.242-1.017" fill="url(#aW)"/></g><g transform="matrix(.62537 0 0 -.62537 -320.325 352.71)" clip-path="url(#aX)"><path d="M541.19 539.1s-.315.415-.242 1.016" fill="none" stroke="#5c869a" stroke-linecap="round" stroke-linejoin="round" stroke-width=".22"/></g><g transform="matrix(.62537 0 0 -.62537 -320.325 352.71)" clip-path="url(#aY)"><g mask="url(#aZ)"><path d="M527.57 541.21s.339.413.536.583c0 0-.437-.186-.964-.288-.202-.04-.78-.004-1.232.798-.051.089.073-.148.151-.384.078-.237.111-.474-.121-.386-.415.157-.681.562-.544 1.394 0 0-.931-2.26 2.174-1.717" fill="url(#ba)"/></g></g><g transform="matrix(.62537 0 0 -.62537 -320.325 352.71)" clip-path="url(#bb)"><g mask="url(#bc)"><path d="M532.03 539.34v.001-.001m.002-.005a.042.042 0 01-.002.005l.002-.005m-.447-1.98c.411.379 2.126-.185 2.126-.185 2.659-2.055 4.822-1.686 4.822-1.686-1.98-.128-4.51 1.686-4.51 1.686-.312.273-.613.281-.613.281-.925.502-1.347 1.782-1.378 1.884.321-1.03-.298-1.811-.447-1.98m-.031-.033" fill="url(#bd)"/></g></g><g transform="matrix(.62537 0 0 -.62537 -320.325 352.71)" clip-path="url(#be)"><g mask="url(#bf)"><path d="M541.26 540c-.007.161-.002.264-.002.264a1.55 1.55 0 01.002-.264m1.006-1.937s.96-.602 2.442-.144c0 0 .355-.231.975-.309 0 0 .708.151.506.689 0 0-.366.868-.861.537 0 0-.313-.242-.184-.597 0 0 .026-.14-.436 0 0 0-1.797-.631-2.771.295 0 0-.607.696-.677 1.466.021-.519.167-1.646 1.006-1.937" fill="url(#bg)"/></g></g><g transform="matrix(.62537 0 0 -.62537 -320.325 352.71)" clip-path="url(#bh)"><g mask="url(#bi)"><path d="M546.04 540.4s.703-.868.619-1.466c0 0 .018-.503.231-.522 0 0 .342.074.176.44 0 0 .019.583-1.026 1.548z" fill="url(#bj)"/></g></g><g transform="matrix(.62537 0 0 -.62537 -320.325 352.71)" clip-path="url(#bk)"><g mask="url(#bl)"><path d="M530.99 537.61s-2.805-1.473-3.832-.838c0 0-.978-1.197-2.438-.63 0 0-.715.292.257 1.686 0 0-.956-.903-.486-1.802 0 0 .504-.837 2.704.234 0 0 3.392.649 3.777 1.045 0 0 1.577 1.049.219 2.959 0 0 .924-1.629-.201-2.654" fill="url(#bm)"/></g></g><g transform="matrix(.62537 0 0 -.62537 -320.325 352.71)" clip-path="url(#bn)"><g mask="url(#bo)"><path d="M519.21 537.59s-.542-.04-.632.426c0 0-.147-.734.632-.426" fill="url(#bp)"/></g></g><g transform="matrix(.62537 0 0 -.62537 -320.325 352.71)" clip-path="url(#bq)"><g mask="url(#br)"><path d="M518.79 537.04s.469-.639 1.073-.345c0 0-.761-.068-1.073.345z" fill="url(#bs)"/></g></g><g transform="matrix(.62537 0 0 -.62537 -320.325 352.71)" clip-path="url(#bt)"><g mask="url(#bu)"><path d="M523.4 537.3s-.642-.796-3.208-1.045c0 0 1.76-.158 3.777 1.045 0 0 .347.812.679.934 0 0-.887-.245-1.248-.934" fill="url(#bv)"/></g></g><g transform="matrix(.62537 0 0 -.62537 -320.325 352.71)" clip-path="url(#bw)"><g mask="url(#bx)"><path d="M524.94 539.92c.348.752.661-.88.661-.88 0 .238-.202 1.375-.342 1.448a.057.057 0 01-.024.006c-.136 0-.295-.574-.295-.574" fill="url(#by)"/></g></g><g transform="matrix(.62537 0 0 -.62537 -320.325 352.71)" clip-path="url(#bz)"><g mask="url(#bA)"><path d="M530.01 535.77c.709.532 1.24 1.003 1.24 1.003a43.32 43.32 0 00-1.24-1.003m-3.427-1.237l-.456.924s-.387-.116-1.038-.123c0 0 .021-1.466-2.858-3.042 0 0 1.217.055 3.57 2.824 0 0 .06.157.078.115 0 0 .217-1.332.704-1.466 0 0 .704-.107 3.427 2.005-1.202-.901-2.917-1.977-3.427-1.237" fill="url(#bB)"/></g></g><g transform="matrix(.62537 0 0 -.62537 -320.325 352.71)" clip-path="url(#bC)"><g mask="url(#bD)"><path d="M537.78 536.69s1.43-.603 1.76-1.236c0 0 1.315-.817 1.877-.726 0 0 .213-1.173 3.825-.752 0 0-3.674-.147-3.56 1.1 0 0-1.06-.339-1.811.636 0 0-.208-.033-.954.546-.163.127-.841.434-1.098.434l-.039-.002" fill="url(#bE)"/></g></g><g transform="matrix(.62537 0 0 -.62537 -320.325 352.71)" clip-path="url(#bF)"><path d="M546.52 533.17s.097.843-.287.714m.937-.374s.065.712-.394.755" fill="none" stroke="#5c869a" stroke-linecap="round" stroke-linejoin="round" stroke-width=".22"/></g><g transform="matrix(.62537 0 0 -.62537 -320.325 352.71)" clip-path="url(#bG)"><g mask="url(#bH)"><path d="M545.6 533.08s.325-.06.624.135c0 0-.282-.128-.543 0 0 0-.19.066-.081.415.001.003.001.004-.001.004-.03 0-.504-.554.001-.554" fill="url(#bI)"/></g></g><g transform="matrix(.62537 0 0 -.62537 -320.325 352.71)" clip-path="url(#bJ)"><g mask="url(#bK)"><path d="M528.85 541.74c1.283.526 2.232.164 2.232.164 1.26-.451 1.618-1.641 1.618-1.641 1.247-2.497 2.209-2.672 2.209-2.672-.595.498-.229 1.344-.229 1.344 1.155-1.549 2.92-1.603 2.92-1.603-.656.476-.812 2.005-.812 2.005 1.706-.048 4.181-1.099 4.181-1.099-1.339 1.052-4.639 1.526-4.639 1.526l.348-1.677-2.475 1.535v-.933l-.715.933c0 .314-.996 1.786-.996 1.786-.763.588-1.486.768-2.083.768-.932 0-1.559-.436-1.559-.436" fill="url(#bL)"/></g></g><g transform="matrix(.62537 0 0 -.62537 -320.325 352.71)" clip-path="url(#bM)"><g mask="url(#bN)"><path d="M541.84 537.25s.799-.33 1.294-.193c0 0 .219-.867 4.166-.632 0 0 .536-.523 1.636.123 0 0-1.031-.454-1.609.083 0 0-2.372-.67-4.015.619 0 0-.784-.234-1.472 0" fill="url(#bO)"/></g></g><g transform="matrix(.62537 0 0 -.62537 -320.325 352.71)" clip-path="url(#bP)"><g mask="url(#bQ)"><path d="M530.42 549.39s1.452-.797 2.074-.715c0 0 5.095-.055 9.045-4.619 0 0-4.272 5.252-8.397 5.141 0 0-.082-.797-2.722.193z" fill="url(#bR)"/></g></g><g transform="matrix(.62537 0 0 -.62537 -320.325 352.71)" clip-path="url(#bS)"><g mask="url(#bT)"><path d="M529.7 546.96s-3.811-.729-2.891-1.074c0 0 1.185-.328 2.422-.355 0 0-1.722.467-1.09.754 0 0 1.387.53 2.4.2 0 0 .514-.288.776-.798 0 0-.001.788.43.87 0 0 4.224-.345 8.501-3.52 0 0-4.43 3.997-9.395 3.997-.383 0-.767-.023-1.153-.074" fill="url(#bU)"/></g></g><g transform="matrix(.62537 0 0 -.62537 -320.325 352.71)" clip-path="url(#bV)"><path d="M540.33 543.04c-7.937 6.439-13.587 3.107-13.587 3.107-.633-.375 1.906-.674 1.906-.674" fill="none" stroke="#5c869a" stroke-linecap="round" stroke-linejoin="round" stroke-width=".22"/></g><g transform="matrix(.62537 0 0 -.62537 -320.325 352.71)" clip-path="url(#bW)"><g mask="url(#bX)"><path d="M544.83 540.26a.147.147 0 01-.123-.164.144.144 0 01.164-.122.146.146 0 01.124.163.147.147 0 01-.144.125l-.021-.002" fill="url(#bY)"/></g></g><path d="M5.032 1.516s-3.51 0-3.51 3.51v16.38s0 3.51 3.51 3.51h16.38s3.51 0 3.51-3.51V5.026s0-3.51-3.51-3.51z" fill="none" stroke="#231f20" stroke-width=".413"/></svg>