<svg xmlns="http://www.w3.org/2000/svg" width="100" height="100" viewBox="0 0 26.458 26.458"><defs><clipPath id="p" clipPathUnits="userSpaceOnUse"><path d="M128.636 606.981h49.348v-40.075h-49.348z"/></clipPath><clipPath id="ak" clipPathUnits="userSpaceOnUse"><path d="M137.908 579.699h12.794v-12.793h-12.794z"/></clipPath><clipPath id="ah" clipPathUnits="userSpaceOnUse"><path d="M151.549 566.906h12.793v12.793h-12.793z"/></clipPath><clipPath id="ag" clipPathUnits="userSpaceOnUse"><path d="M151.549 579.699h12.793v-12.793h-12.793z"/></clipPath><clipPath id="af" clipPathUnits="userSpaceOnUse"><path d="M150.895 577.155a2.86 2.86 0 010-4.045 2.845 2.845 0 011.518-.791v-1.196h-1.19v-1.009h1.19v-1.06h1.006v1.06h1.241v1.009h-1.241v1.195c.557.099 1.09.362 1.521.792a2.862 2.862 0 010 4.045 2.848 2.848 0 01-2.023.838 2.85 2.85 0 01-2.022-.838m.727-3.318a1.83 1.83 0 102.59 2.59 1.832 1.832 0 000-2.59 1.825 1.825 0 00-1.295-.535c-.468 0-.937.178-1.295.535"/></clipPath><clipPath id="ad" clipPathUnits="userSpaceOnUse"><path d="M165.19 566.906h12.794V579.7H165.19z"/></clipPath><clipPath id="ac" clipPathUnits="userSpaceOnUse"><path d="M165.19 579.699h12.794v-12.793H165.19z"/></clipPath><clipPath id="ab" clipPathUnits="userSpaceOnUse"><path d="M164.536 577.155a2.86 2.86 0 01-.001-4.045c.43-.429.962-.692 1.519-.791v1.053a1.833 1.833 0 00-.79 3.055c.228.227.501.383.79.466v1.055a2.845 2.845 0 01-1.518-.793m.329-7.041h1.189v1.009h-1.189z"/></clipPath><clipPath id="Z" clipPathUnits="userSpaceOnUse"><path d="M137.908 585.388h12.793v12.793h-12.793z"/></clipPath><clipPath id="Y" clipPathUnits="userSpaceOnUse"><path d="M137.908 598.18h12.793v-12.792h-12.793z"/></clipPath><clipPath id="X" clipPathUnits="userSpaceOnUse"><path d="M137.255 595.636a2.859 2.859 0 010-4.044 2.833 2.833 0 011.518-.792v-1.196h-1.19v-1.008h1.19v-1.072h1.005v1.072h1.24v1.008h-1.24v1.196a2.859 2.859 0 011.521 4.836 2.853 2.853 0 01-2.022.838 2.844 2.844 0 01-2.022-.838m.728-3.317a1.829 1.829 0 000 2.589 1.83 1.83 0 002.589 0 1.832 1.832 0 000-2.589 1.827 1.827 0 00-1.295-.537 1.82 1.82 0 00-1.294.537"/></clipPath><clipPath id="V" clipPathUnits="userSpaceOnUse"><path d="M151.549 585.387h12.793v12.793h-12.793z"/></clipPath><clipPath id="U" clipPathUnits="userSpaceOnUse"><path d="M151.549 598.18h12.793v-12.793h-12.793z"/></clipPath><clipPath id="T" clipPathUnits="userSpaceOnUse"><path d="M150.895 595.636a2.86 2.86 0 010-4.045c.429-.43.962-.692 1.518-.791v-1.196h-1.19v-1.009h1.19v-1.071h1.006v1.071h1.241v1.009h-1.241v1.196a2.86 2.86 0 011.521 4.836 2.848 2.848 0 01-2.023.838 2.85 2.85 0 01-2.022-.838m.727-3.317a1.831 1.831 0 00.001 2.589 1.832 1.832 0 002.589-2.589 1.825 1.825 0 00-1.295-.537c-.469 0-.938.179-1.295.537"/></clipPath><clipPath id="R" clipPathUnits="userSpaceOnUse"><path d="M165.19 585.387h12.794v12.793H165.19z"/></clipPath><clipPath id="Q" clipPathUnits="userSpaceOnUse"><path d="M165.19 598.181h12.794v-12.794H165.19z"/></clipPath><clipPath id="P" clipPathUnits="userSpaceOnUse"><path d="M164.536 595.636a2.858 2.858 0 010-4.045 2.841 2.841 0 011.518-.791v1.053a1.831 1.831 0 00-.79 3.055c.228.228.501.383.79.465v1.056a2.845 2.845 0 01-1.518-.793m.329-7.041h1.189v1.009h-1.189z"/></clipPath><clipPath id="N" clipPathUnits="userSpaceOnUse"><path d="M159.47 575.707h12.793V588.5H159.47z"/></clipPath><clipPath id="M" clipPathUnits="userSpaceOnUse"><path d="M159.47 588.5h12.793v-12.793H159.47z"/></clipPath><clipPath id="L" clipPathUnits="userSpaceOnUse"><path d="M158.816 585.956a2.861 2.861 0 010-4.046 2.845 2.845 0 011.518-.791v-1.195h-1.19v-1.009h1.19v-1.071h1.005v1.071h1.241v1.009h-1.241v1.194a2.854 2.854 0 011.522.792 2.862 2.862 0 01-.001 4.046 2.85 2.85 0 01-2.022.838c-.732 0-1.463-.28-2.022-.838m.727-3.318a1.83 1.83 0 00.001 2.59 1.83 1.83 0 002.589-2.59 1.828 1.828 0 00-1.295-.536c-.469 0-.937.179-1.295.536"/></clipPath><clipPath id="J" clipPathUnits="userSpaceOnUse"><path d="M136.997 580.757h14.015v11.44h-14.015z"/></clipPath><clipPath id="I" clipPathUnits="userSpaceOnUse"><path d="M136.997 592.197h14.015v-11.44h-14.015z"/></clipPath><clipPath id="H" clipPathUnits="userSpaceOnUse"><path d="M147.869 585.695l.878-.878-.846-.844a2.86 2.86 0 01-4.495-2.345 2.86 2.86 0 115.72 0c0 .607-.19 1.17-.514 1.633l.846.845.841-.84.713.712-.842.841.758.758-.711.711-.757-.758-.877.878zm-3.434-4.067a1.832 1.832 0 003.663 0 1.831 1.831 0 00-3.663 0"/></clipPath><clipPath id="aH" clipPathUnits="userSpaceOnUse"><path d="M146.611 580.854c.004.316.003.505.003.505zm-1.282-6.723s.27-.29.862 0c0 0 .558.22.392 1.541l.028 5.182c-.02-1.627-.171-6.623-1.282-6.723"/></clipPath><clipPath id="F" clipPathUnits="userSpaceOnUse"><path d="M132.243 575.707h12.793V588.5h-12.793z"/></clipPath><clipPath id="a" clipPathUnits="userSpaceOnUse"><path d="M-32768 32767h65535v-65535h-65535z"/></clipPath><clipPath id="E" clipPathUnits="userSpaceOnUse"><path d="M132.243 588.5h12.793v-12.793h-12.793z"/></clipPath><clipPath id="D" clipPathUnits="userSpaceOnUse"><path d="M131.59 585.956a2.86 2.86 0 01-.001-4.046c.43-.429.962-.692 1.518-.791v-1.195h-1.19v-1.009h1.19v-1.071h1.006v1.071h1.24l.001 1.009h-1.241v1.194a2.861 2.861 0 011.521 4.838 2.854 2.854 0 01-2.023.838c-.731 0-1.463-.28-2.021-.838m.727-3.318a1.83 1.83 0 102.589 2.59 1.83 1.83 0 000-2.59 1.826 1.826 0 00-1.295-.536c-.468 0-.937.179-1.294.536"/></clipPath><clipPath id="aE" clipPathUnits="userSpaceOnUse"><path d="M149.637 581.888c.003.317.002.506.002.506zm-1.282-6.722s.269-.29.861 0c0 0 .557.219.393 1.54l.028 5.182c-.02-1.626-.171-6.623-1.282-6.722"/></clipPath><clipPath id="B" clipPathUnits="userSpaceOnUse"><path d="M159.47 594.188h12.793v12.793H159.47z"/></clipPath><clipPath id="c" clipPathUnits="userSpaceOnUse"><path d="M-32768 32767h65535v-65535h-65535z"/></clipPath><clipPath id="A" clipPathUnits="userSpaceOnUse"><path d="M159.47 606.981h12.793v-12.793H159.47z"/></clipPath><clipPath id="z" clipPathUnits="userSpaceOnUse"><path d="M158.816 604.436a2.859 2.859 0 010-4.044c.429-.43.962-.692 1.518-.791v-1.196h-1.19v-1.008h1.19v-1.072h1.005v1.072h1.241v1.008h-1.241v1.195a2.859 2.859 0 011.521 4.836 2.846 2.846 0 01-2.022.838 2.85 2.85 0 01-2.022-.838m.727-3.317a1.83 1.83 0 102.59 2.59 1.83 1.83 0 000-2.589 1.828 1.828 0 00-2.59-.001"/></clipPath><clipPath id="aB" clipPathUnits="userSpaceOnUse"><path d="M149.224 591.841c-.491-1.967-2.259-.438-2.844.136.232-.573-.018-2.238-.135-2.92.28.898 1.549 1.558 1.549 1.558 1.925.138 2-2.569 2-2.569.79-5.555-1.217-6.05-1.217-6.05 1.719-.275 1.938.88 1.938.88.105.632-1.236 11.922-1.236 11.922.052-1.761-.055-2.957-.055-2.957m-3.033.33s.07-.077.189-.194c-.044.109-.105.179-.189.194zm0-3.41s.022.113.054.296a1.189 1.189 0 01-.054-.296"/></clipPath><clipPath id="x" clipPathUnits="userSpaceOnUse"><path d="M145.829 594.188h12.793v12.793h-12.793z"/></clipPath><clipPath id="e" clipPathUnits="userSpaceOnUse"><path d="M-14289.2 14986.4H14546v-28835.2h-28835.2z"/></clipPath><clipPath id="w" clipPathUnits="userSpaceOnUse"><path d="M145.829 606.981h12.793v-12.793h-12.793z"/></clipPath><clipPath id="v" clipPathUnits="userSpaceOnUse"><path d="M145.174 604.436a2.86 2.86 0 010-4.044c.43-.43.963-.692 1.518-.791v-1.196h-1.189v-1.008h1.189v-1.072h1.006v1.072h1.241v1.008h-1.241v1.195a2.859 2.859 0 011.521 4.836 2.847 2.847 0 01-2.022.838 2.851 2.851 0 01-2.023-.838m.728-3.317a1.83 1.83 0 102.59 2.59 1.832 1.832 0 000-2.589 1.825 1.825 0 00-1.295-.537c-.469 0-.938.179-1.295.536"/></clipPath><clipPath id="ay" clipPathUnits="userSpaceOnUse"><path d="M149.795 595.095c.349-.176 1.135-6.432 1.373-8.383-.214 1.929-.774 7.699-.774 7.699-.116.579-.575.679-.599.684zm1.442-8.959l-.069.576c.031-.289.055-.492.069-.576"/></clipPath><clipPath id="t" clipPathUnits="userSpaceOnUse"><path d="M132.238 594.177h12.8v12.786h-12.8z"/></clipPath><clipPath id="g" clipPathUnits="userSpaceOnUse"><path d="M-14289.2 14986.4H14546v-28835.2h-28835.2z"/></clipPath><clipPath id="s" clipPathUnits="userSpaceOnUse"><path d="M132.238 606.963h12.801v-12.786h-12.801z"/></clipPath><clipPath id="r" clipPathUnits="userSpaceOnUse"><path d="M131.599 604.443a2.862 2.862 0 01-.012-4.046 2.85 2.85 0 011.516-.795l-.003-1.196-1.191.004-.002-1.009 1.189-.004-.002-1.071 1.005-.002.004 1.071 1.24-.004.003 1.008-1.241.005.003 1.195a2.86 2.86 0 011.535 4.832 2.849 2.849 0 01-2.028.843 2.853 2.853 0 01-2.016-.831m.718-3.32a1.833 1.833 0 00.007 2.59 1.832 1.832 0 102.582-2.598 1.829 1.829 0 00-1.291-.532c-.47 0-.94.18-1.298.54"/></clipPath><clipPath id="av" clipPathUnits="userSpaceOnUse"><path d="M144.988 594.426c.45-.224.141-6.543.033-8.502.135 1.933.65 7.732.65 7.732-.031.605-.683.77-.683.77zm0-9.075l.033.573c-.02-.286-.032-.488-.033-.573"/></clipPath><clipPath id="aj" clipPathUnits="userSpaceOnUse"><path d="M137.255 577.155a2.86 2.86 0 010-4.045 2.845 2.845 0 011.518-.791v-1.196h-1.19v-1.009h1.19v-1.06h1.005v1.06h1.24v1.009h-1.24v1.195a2.86 2.86 0 011.521 4.837 2.855 2.855 0 01-2.022.838 2.85 2.85 0 01-2.022-.838m.727-3.318a1.83 1.83 0 00.001 2.59 1.83 1.83 0 002.588 0 1.829 1.829 0 00-1.294-3.125c-.469 0-.938.178-1.295.535"/></clipPath><clipPath id="i" clipPathUnits="userSpaceOnUse"><path d="M-14289.2 14986.4H14546v-28835.2h-28835.2z"/></clipPath><clipPath id="n" clipPathUnits="userSpaceOnUse"><path d="M128.636 606.471h37.418v-37.417h-37.418z"/></clipPath><clipPath id="m" clipPathUnits="userSpaceOnUse"><path d="M134.248 606.47s-5.612 0-5.612-5.612v-26.195c.001-.171.087-5.609 5.612-5.609h26.193s5.613 0 5.613 5.612v26.192s0 5.612-5.613 5.612z"/></clipPath><clipPath id="as" clipPathUnits="userSpaceOnUse"><path d="M146.888 601.381s2.665-.575 2.555-2.994c0 0-.296-1.611-1.357-2.758 0 0 1.736.612 1.736 2.977 0 0-.05 2.243-2.934 2.775z"/></clipPath><clipPath id="k" clipPathUnits="userSpaceOnUse"><path d="M-32768 32767h65535v-65535h-65535z"/></clipPath><clipPath id="al" clipPathUnits="userSpaceOnUse"><path d="M137.908 566.906h12.793v12.793h-12.793z"/></clipPath><linearGradient id="aG" spreadMethod="pad" gradientTransform="rotate(90 -213.02 362.016) scale(7.35704)" gradientUnits="userSpaceOnUse" y2="0" x2="1" y1="0" x1="0"><stop offset="0" stop-color="#fff"/><stop offset="1" stop-color="#fff"/></linearGradient><linearGradient id="au" spreadMethod="pad" gradientTransform="rotate(90 -223.637 371.992) scale(5.75194)" gradientUnits="userSpaceOnUse" y2="0" x2="1" y1="0" x1="0"><stop offset="0" stop-color="#fff"/><stop offset="1" stop-color="#fff"/></linearGradient><linearGradient id="aq" spreadMethod="pad" gradientTransform="rotate(174.007 57.25 298.55) scale(1.42004)" gradientUnits="userSpaceOnUse" y2="0" x2="1" y1="0" x1="0"><stop offset="0" stop-color="#ec008c"/><stop offset="1" stop-color="#f8a3d6"/></linearGradient><linearGradient id="ap" spreadMethod="pad" gradientTransform="rotate(180 75.337 294.206) scale(7.09921)" gradientUnits="userSpaceOnUse" y2="0" x2="1" y1="0" x1="0"><stop offset="0" stop-color="#ec008c"/><stop offset=".278" stop-color="#ec008c"/><stop offset="1" stop-color="#f8a3d6"/></linearGradient><linearGradient id="ao" spreadMethod="pad" gradientTransform="rotate(180 73.241 289.907) scale(1.4194)" gradientUnits="userSpaceOnUse" y2="0" x2="1" y1="0" x1="0"><stop offset="0" stop-color="#ec008c"/><stop offset="1" stop-color="#f8a3d6"/></linearGradient><linearGradient id="an" spreadMethod="pad" gradientTransform="rotate(180 74.694 290.38) scale(1.41918)" gradientUnits="userSpaceOnUse" y2="0" x2="1" y1="0" x1="0"><stop offset="0" stop-color="#ec008c"/><stop offset="1" stop-color="#f8a3d6"/></linearGradient><linearGradient id="am" spreadMethod="pad" gradientTransform="rotate(-172.635 94.308 290.283) scale(1.41944)" gradientUnits="userSpaceOnUse" y2="0" x2="1" y1="0" x1="0"><stop offset="0" stop-color="#ec008c"/><stop offset="1" stop-color="#f8a3d6"/></linearGradient><linearGradient id="ax" spreadMethod="pad" gradientTransform="rotate(90 -220.01 365.34) scale(9.07493)" gradientUnits="userSpaceOnUse" y2="0" x2="1" y1="0" x1="0"><stop offset="0" stop-color="#fff"/><stop offset="1" stop-color="#fff"/></linearGradient><linearGradient id="j" spreadMethod="pad" gradientTransform="rotate(90 -220.01 365.34) scale(9.07493)" gradientUnits="userSpaceOnUse" y2="0" x2="1" y1="0" x1="0"><stop offset="0" stop-opacity="0" stop-color="#fff"/><stop offset="1" stop-color="#fff"/></linearGradient><linearGradient id="o" spreadMethod="pad" gradientTransform="matrix(0 37.41732 37.41732 0 147.345 569.054)" gradientUnits="userSpaceOnUse" y2="0" x2="1" y1="0" x1="0"><stop offset="0" stop-color="#da1259"/><stop offset="1" stop-color="#fff"/></linearGradient><linearGradient id="q" spreadMethod="pad" gradientTransform="scale(7.63976 -7.63976) rotate(45.162 103.587 -18.91)" gradientUnits="userSpaceOnUse" y2="0" x2="1" y1="0" x1="0"><stop offset="0" stop-color="#8d198f"/><stop offset=".125" stop-color="#8d198f"/><stop offset=".818" stop-color="#ed127b"/><stop offset="1" stop-color="#ed127b"/></linearGradient><linearGradient id="aA" spreadMethod="pad" gradientTransform="matrix(-1.4429 8.95956 -6.33422 -1.02 151.475 586.174)" gradientUnits="userSpaceOnUse" y2="0" x2="1" y1="0" x1="0"><stop offset="0" stop-color="#fff"/><stop offset="1" stop-color="#fff"/></linearGradient><linearGradient id="h" spreadMethod="pad" gradientTransform="matrix(-1.4429 8.95956 -6.33422 -1.02 151.475 586.174)" gradientUnits="userSpaceOnUse" y2="0" x2="1" y1="0" x1="0"><stop offset="0" stop-opacity="0" stop-color="#fff"/><stop offset="1" stop-color="#fff"/></linearGradient><linearGradient id="u" spreadMethod="pad" gradientTransform="scale(7.64002 -7.64002) rotate(45 104.852 -16.682)" gradientUnits="userSpaceOnUse" y2="0" x2="1" y1="0" x1="0"><stop offset="0" stop-color="#8d198f"/><stop offset=".125" stop-color="#8d198f"/><stop offset=".818" stop-color="#ed127b"/><stop offset="1" stop-color="#ed127b"/></linearGradient><linearGradient id="aD" spreadMethod="pad" gradientTransform="rotate(90 -216.799 365.155) scale(12.84434)" gradientUnits="userSpaceOnUse" y2="0" x2="1" y1="0" x1="0"><stop offset="0" stop-color="#fff"/><stop offset="1" stop-color="#fff"/></linearGradient><linearGradient id="f" spreadMethod="pad" gradientTransform="rotate(90 -216.799 365.155) scale(12.84434)" gradientUnits="userSpaceOnUse" y2="0" x2="1" y1="0" x1="0"><stop offset="0" stop-color="#fff"/><stop offset="1" stop-opacity="0" stop-color="#fff"/></linearGradient><linearGradient id="ai" spreadMethod="pad" gradientTransform="scale(7.63988 -7.63988) rotate(45 100.025 -16.148)" gradientUnits="userSpaceOnUse" y2="0" x2="1" y1="0" x1="0"><stop offset="0" stop-color="#8d198f"/><stop offset=".125" stop-color="#8d198f"/><stop offset=".818" stop-color="#ed127b"/><stop offset="1" stop-color="#ed127b"/></linearGradient><linearGradient id="y" spreadMethod="pad" gradientTransform="scale(7.64002 -7.64002) rotate(45 105.744 -14.526)" gradientUnits="userSpaceOnUse" y2="0" x2="1" y1="0" x1="0"><stop offset="0" stop-color="#8d198f"/><stop offset=".125" stop-color="#8d198f"/><stop offset=".818" stop-color="#ed127b"/><stop offset="1" stop-color="#ed127b"/></linearGradient><linearGradient id="ar" spreadMethod="pad" gradientTransform="rotate(180 75.032 299.193) scale(6.35333)" gradientUnits="userSpaceOnUse" y2="0" x2="1" y1="0" x1="0"><stop offset="0" stop-color="#ec008c"/><stop offset="1" stop-color="#fff"/></linearGradient><linearGradient id="d" spreadMethod="pad" gradientTransform="rotate(90 -213.02 362.016) scale(7.35704)" gradientUnits="userSpaceOnUse" y2="0" x2="1" y1="0" x1="0"><stop offset="0" stop-color="#fff"/><stop offset="1" stop-opacity="0" stop-color="#fff"/></linearGradient><linearGradient id="C" spreadMethod="pad" gradientTransform="scale(7.63972 -7.63972) rotate(45 101.046 -17.62)" gradientUnits="userSpaceOnUse" y2="0" x2="1" y1="0" x1="0"><stop offset="0" stop-color="#8d198f"/><stop offset=".125" stop-color="#8d198f"/><stop offset=".818" stop-color="#ed127b"/><stop offset="1" stop-color="#ed127b"/></linearGradient><linearGradient id="aJ" spreadMethod="pad" gradientTransform="rotate(90 -214.015 359.987) scale(7.35704)" gradientUnits="userSpaceOnUse" y2="0" x2="1" y1="0" x1="0"><stop offset="0" stop-color="#fff"/><stop offset="1" stop-color="#fff"/></linearGradient><linearGradient id="b" spreadMethod="pad" gradientTransform="rotate(90 -214.015 359.987) scale(7.35704)" gradientUnits="userSpaceOnUse" y2="0" x2="1" y1="0" x1="0"><stop offset="0" stop-color="#fff"/><stop offset="1" stop-opacity="0" stop-color="#fff"/></linearGradient><linearGradient id="G" spreadMethod="pad" gradientTransform="matrix(0 7.6398 7.6398 0 147.209 578.768)" gradientUnits="userSpaceOnUse" y2="0" x2="1" y1="0" x1="0"><stop offset="0" stop-color="#8d198f"/><stop offset=".125" stop-color="#8d198f"/><stop offset=".818" stop-color="#ed127b"/><stop offset="1" stop-color="#ed127b"/></linearGradient><linearGradient id="l" spreadMethod="pad" gradientTransform="rotate(90 -223.637 371.992) scale(5.75194)" gradientUnits="userSpaceOnUse" y2="0" x2="1" y1="0" x1="0"><stop offset="0" stop-color="#fff"/><stop offset="1" stop-opacity="0" stop-color="#fff"/></linearGradient><linearGradient id="K" spreadMethod="pad" gradientTransform="scale(7.63988 -7.63988) rotate(45 102.826 -13.317)" gradientUnits="userSpaceOnUse" y2="0" x2="1" y1="0" x1="0"><stop offset="0" stop-color="#8d198f"/><stop offset=".125" stop-color="#8d198f"/><stop offset=".818" stop-color="#ed127b"/><stop offset="1" stop-color="#ed127b"/></linearGradient><linearGradient id="O" spreadMethod="pad" gradientTransform="scale(7.64004 -7.64004) rotate(45 104.728 -13.047)" gradientUnits="userSpaceOnUse" y2="0" x2="1" y1="0" x1="0"><stop offset="0" stop-color="#8d198f"/><stop offset=".125" stop-color="#8d198f"/><stop offset=".818" stop-color="#ed127b"/><stop offset="1" stop-color="#ed127b"/></linearGradient><linearGradient id="S" spreadMethod="pad" gradientTransform="scale(7.64004 -7.64004) rotate(45 103.835 -15.202)" gradientUnits="userSpaceOnUse" y2="0" x2="1" y1="0" x1="0"><stop offset="0" stop-color="#8d198f"/><stop offset=".125" stop-color="#8d198f"/><stop offset=".818" stop-color="#ed127b"/><stop offset="1" stop-color="#ed127b"/></linearGradient><linearGradient id="W" spreadMethod="pad" gradientTransform="scale(7.63973 -7.63973) rotate(45 102.947 -17.358)" gradientUnits="userSpaceOnUse" y2="0" x2="1" y1="0" x1="0"><stop offset="0" stop-color="#8d198f"/><stop offset=".125" stop-color="#8d198f"/><stop offset=".818" stop-color="#ed127b"/><stop offset="1" stop-color="#ed127b"/></linearGradient><linearGradient id="aa" spreadMethod="pad" gradientTransform="scale(7.63988 -7.63988) rotate(45 101.81 -11.837)" gradientUnits="userSpaceOnUse" y2="0" x2="1" y1="0" x1="0"><stop offset="0" stop-color="#8d198f"/><stop offset=".125" stop-color="#8d198f"/><stop offset=".818" stop-color="#ed127b"/><stop offset="1" stop-color="#ed127b"/></linearGradient><linearGradient id="ae" spreadMethod="pad" gradientTransform="scale(7.63988 -7.63988) rotate(45 100.917 -13.993)" gradientUnits="userSpaceOnUse" y2="0" x2="1" y1="0" x1="0"><stop offset="0" stop-color="#8d198f"/><stop offset=".125" stop-color="#8d198f"/><stop offset=".818" stop-color="#ed127b"/><stop offset="1" stop-color="#ed127b"/></linearGradient><mask id="aI" height="1" width="1" y="0" x="0" maskUnits="userSpaceOnUse"><g clip-path="url(#a)"><path d="M146.748 581.359h-1.419v-7.518h1.419z" fill="url(#b)"/></g></mask><mask id="aF" height="1" width="1" y="0" x="0" maskUnits="userSpaceOnUse"><g clip-path="url(#c)"><path d="M149.774 582.393h-1.419v-7.518h1.419z" fill="url(#d)"/></g></mask><mask id="aC" height="1" width="1" y="0" x="0" maskUnits="userSpaceOnUse"><g clip-path="url(#e)"><path d="M150.62 594.798h-4.429v-13.077h4.429z" fill="url(#f)"/></g></mask><mask id="az" height="1" width="1" y="0" x="0" maskUnits="userSpaceOnUse"><g clip-path="url(#g)"><path d="M152.643 586.362l-1.443 8.96-2.813-.453 1.443-8.96z" fill="url(#h)"/></g></mask><mask id="aw" height="1" width="1" y="0" x="0" maskUnits="userSpaceOnUse"><g clip-path="url(#i)"><path d="M145.672 594.426h-.683v-9.075h.683z" fill="url(#j)"/></g></mask><mask id="at" height="1" width="1" y="0" x="0" maskUnits="userSpaceOnUse"><g clip-path="url(#k)"><path d="M149.822 601.38h-2.934v-5.752h2.934z" fill="url(#l)"/></g></mask></defs><g clip-path="url(#m)" transform="matrix(.62536 0 0 -.62538 -78.915 380.803)"><path d="M166.054 569.054h-37.417v37.417h37.417z" fill="#fff"/><g clip-path="url(#n)" opacity=".4"><path d="M128.636 569.054h37.417v37.417h-37.417z" fill="url(#o)"/></g><g clip-path="url(#p)" opacity=".4"><path d="M131.599 604.443a2.862 2.862 0 01-.012-4.046 2.85 2.85 0 011.516-.795l-.003-1.196-1.191.004-.002-1.009 1.189-.004-.002-1.071 1.005-.002.004 1.071 1.24-.004.003 1.008-1.241.005.003 1.195a2.86 2.86 0 011.535 4.832 2.849 2.849 0 01-2.028.843 2.853 2.853 0 01-2.016-.831m.718-3.32a1.833 1.833 0 00.007 2.59 1.832 1.832 0 102.582-2.598 1.829 1.829 0 00-1.291-.532c-.47 0-.94.18-1.298.54" fill="url(#q)"/><g clip-path="url(#r)"><g clip-path="url(#s)"><g clip-path="url(#t)" opacity=".2"><path d="M133.67 595.63c-2.229 2.24-1.809 6.267.935 8.996 2.745 2.73 6.775 3.125 9.003.885 2.227-2.24 1.808-6.268-.937-8.997-2.744-2.729-6.775-3.125-9.002-.885" fill="#fff"/></g></g></g><path d="M145.174 604.436a2.86 2.86 0 010-4.044c.43-.43.963-.692 1.518-.791v-1.196h-1.189v-1.008h1.189v-1.072h1.006v1.072h1.241v1.008h-1.241v1.195a2.859 2.859 0 011.521 4.836 2.847 2.847 0 01-2.022.838 2.851 2.851 0 01-2.023-.838m.728-3.317a1.83 1.83 0 102.59 2.59 1.832 1.832 0 000-2.589 1.825 1.825 0 00-1.295-.537c-.469 0-.938.179-1.295.536" fill="url(#u)"/><g clip-path="url(#v)"><g clip-path="url(#w)"><g clip-path="url(#x)" opacity=".2"><path d="M147.27 595.63c-2.234 2.233-1.826 6.262.91 9 2.737 2.735 6.767 3.143 9 .91 2.234-2.234 1.826-6.263-.91-9-2.737-2.737-6.766-3.145-9-.91" fill="#fff"/></g></g></g><path d="M158.816 604.436a2.859 2.859 0 010-4.044c.429-.43.962-.692 1.518-.791v-1.196h-1.19v-1.008h1.19v-1.072h1.005v1.072h1.241v1.008h-1.241v1.195a2.859 2.859 0 011.521 4.836 2.846 2.846 0 01-2.022.838 2.85 2.85 0 01-2.022-.838m.727-3.317a1.83 1.83 0 102.59 2.59 1.83 1.83 0 000-2.589 1.828 1.828 0 00-2.59-.001" fill="url(#y)"/><g clip-path="url(#z)"><g clip-path="url(#A)"><g clip-path="url(#B)" opacity=".2"><path d="M160.911 595.63c-2.234 2.233-1.826 6.262.91 9 2.738 2.736 6.767 3.144 9 .91 2.235-2.234 1.827-6.263-.91-9s-6.766-3.145-9-.91" fill="#fff"/></g></g></g><path d="M131.59 585.956a2.86 2.86 0 01-.001-4.046c.43-.429.962-.692 1.518-.791v-1.195h-1.19v-1.009h1.19v-1.071h1.006v1.071h1.24l.001 1.009h-1.241v1.194a2.861 2.861 0 011.521 4.838 2.854 2.854 0 01-2.023.838c-.731 0-1.463-.28-2.021-.838m.727-3.318a1.83 1.83 0 102.589 2.59 1.83 1.83 0 000-2.59 1.826 1.826 0 00-1.295-.536c-.468 0-.937.179-1.294.536" fill="url(#C)"/><g clip-path="url(#D)"><g clip-path="url(#E)"><g clip-path="url(#F)" opacity=".2"><path d="M133.685 577.148c-2.234 2.233-1.826 6.263.91 9 2.737 2.736 6.767 3.144 9 .91 2.234-2.234 1.826-6.263-.91-9-2.737-2.736-6.766-3.144-9-.91" fill="#fff"/></g></g></g><path d="M147.869 585.695l.878-.878-.846-.844a2.86 2.86 0 01-4.495-2.345 2.86 2.86 0 115.72 0c0 .607-.19 1.17-.514 1.633l.846.845.841-.84.713.712-.842.841.758.758-.711.711-.757-.758-.877.878zm-3.434-4.067a1.832 1.832 0 003.663 0 1.831 1.831 0 00-3.663 0" fill="url(#G)"/><g clip-path="url(#H)"><g clip-path="url(#I)"><g clip-path="url(#J)" opacity=".2"><path d="M151.012 586.477c0-3.159-3.138-5.72-7.008-5.72s-7.008 2.561-7.008 5.72c0 3.16 3.138 5.72 7.008 5.72s7.008-2.56 7.008-5.72" fill="#fff"/></g></g></g><path d="M158.816 585.956a2.861 2.861 0 010-4.046 2.845 2.845 0 011.518-.791v-1.195h-1.19v-1.009h1.19v-1.071h1.005v1.071h1.241v1.009h-1.241v1.194a2.854 2.854 0 011.522.792 2.862 2.862 0 01-.001 4.046 2.85 2.85 0 01-2.022.838c-.732 0-1.463-.28-2.022-.838m.727-3.318a1.83 1.83 0 00.001 2.59 1.83 1.83 0 002.589-2.59 1.828 1.828 0 00-1.295-.536c-.469 0-.937.179-1.295.536" fill="url(#K)"/><g clip-path="url(#L)"><g clip-path="url(#M)"><g clip-path="url(#N)" opacity=".2"><path d="M160.911 577.148c-2.234 2.233-1.826 6.263.91 9 2.738 2.736 6.767 3.144 9 .911 2.235-2.234 1.827-6.264-.91-9-2.737-2.737-6.766-3.145-9-.91" fill="#fff"/></g></g></g><path d="M164.536 595.636a2.858 2.858 0 010-4.045 2.841 2.841 0 011.518-.791v1.053a1.831 1.831 0 00-.79 3.055c.228.228.501.383.79.465v1.056a2.845 2.845 0 01-1.518-.793m.329-7.041h1.189v1.009h-1.189z" fill="url(#O)"/><g clip-path="url(#P)"><g clip-path="url(#Q)"><g clip-path="url(#R)" opacity=".2"><path d="M166.631 586.829c-2.234 2.234-1.826 6.263.91 9 2.738 2.737 6.767 3.145 9 .91 2.235-2.233 1.827-6.262-.91-9-2.737-2.736-6.766-3.143-9-.91" fill="#fff"/></g></g></g><path d="M150.895 595.636a2.86 2.86 0 010-4.045c.429-.43.962-.692 1.518-.791v-1.196h-1.19v-1.009h1.19v-1.071h1.006v1.071h1.241v1.009h-1.241v1.196a2.86 2.86 0 011.521 4.836 2.848 2.848 0 01-2.023.838 2.85 2.85 0 01-2.022-.838m.727-3.317a1.831 1.831 0 00.001 2.589 1.832 1.832 0 002.589-2.589 1.825 1.825 0 00-1.295-.537c-.469 0-.938.179-1.295.537" fill="url(#S)"/><g clip-path="url(#T)"><g clip-path="url(#U)"><g clip-path="url(#V)" opacity=".2"><path d="M152.99 586.829c-2.234 2.234-1.826 6.263.91 9 2.738 2.737 6.767 3.144 9 .91 2.234-2.233 1.827-6.263-.91-9-2.737-2.736-6.766-3.143-9-.91" fill="#fff"/></g></g></g><path d="M137.255 595.636a2.859 2.859 0 010-4.044 2.833 2.833 0 011.518-.792v-1.196h-1.19v-1.008h1.19v-1.072h1.005v1.072h1.24v1.008h-1.24v1.196a2.859 2.859 0 011.521 4.836 2.853 2.853 0 01-2.022.838 2.844 2.844 0 01-2.022-.838m.728-3.317a1.829 1.829 0 000 2.589 1.83 1.83 0 002.589 0 1.832 1.832 0 000-2.589 1.827 1.827 0 00-1.295-.537 1.82 1.82 0 00-1.294.537" fill="url(#W)"/><g clip-path="url(#X)"><g clip-path="url(#Y)"><g clip-path="url(#Z)" opacity=".2"><path d="M139.35 586.829c-2.234 2.234-1.826 6.263.91 9 2.737 2.737 6.767 3.144 9 .91 2.234-2.233 1.826-6.263-.91-9-2.737-2.736-6.766-3.143-9-.91" fill="#fff"/></g></g></g><path d="M164.536 577.155a2.86 2.86 0 01-.001-4.045c.43-.429.962-.692 1.519-.791v1.053a1.833 1.833 0 00-.79 3.055c.228.227.501.383.79.466v1.055a2.845 2.845 0 01-1.518-.793m.329-6.032v-1.009h1.188l.001.001v1.008z" fill="url(#aa)"/><g clip-path="url(#ab)"><g clip-path="url(#ac)"><g clip-path="url(#ad)" opacity=".2"><path d="M166.631 568.347c-2.234 2.233-1.826 6.263.91 9 2.738 2.737 6.767 3.144 9 .911 2.235-2.235 1.827-6.264-.91-9-2.737-2.737-6.766-3.145-9-.91" fill="#fff"/></g></g></g><path d="M150.895 577.155a2.86 2.86 0 010-4.045 2.845 2.845 0 011.518-.791v-1.196h-1.19v-1.009h1.19v-1.06h1.006v1.06h1.241v1.009h-1.241v1.195c.557.099 1.09.362 1.521.792a2.862 2.862 0 010 4.045 2.848 2.848 0 01-2.023.838 2.85 2.85 0 01-2.022-.838m.727-3.318a1.83 1.83 0 102.59 2.59 1.832 1.832 0 000-2.59 1.825 1.825 0 00-1.295-.535c-.468 0-.937.178-1.295.535" fill="url(#ae)"/><g clip-path="url(#af)"><g clip-path="url(#ag)"><g clip-path="url(#ah)" opacity=".2"><path d="M152.99 568.347c-2.234 2.233-1.826 6.263.91 9 2.738 2.737 6.767 3.144 9 .91 2.235-2.234 1.827-6.263-.91-9-2.737-2.736-6.766-3.144-9-.91" fill="#fff"/></g></g></g><path d="M137.255 577.155a2.86 2.86 0 010-4.045 2.845 2.845 0 011.518-.791v-1.196h-1.19v-1.009h1.19v-1.06h1.005v1.06h1.24v1.009h-1.24v1.195a2.86 2.86 0 011.521 4.837 2.855 2.855 0 01-2.022.838 2.85 2.85 0 01-2.022-.838m.727-3.318a1.83 1.83 0 00.001 2.59 1.83 1.83 0 002.588 0 1.829 1.829 0 00-1.294-3.125c-.469 0-.938.178-1.295.535" fill="url(#ai)"/><g clip-path="url(#aj)"><g clip-path="url(#ak)"><g clip-path="url(#al)" opacity=".2"><path d="M139.35 568.347c-2.234 2.233-1.826 6.263.91 9 2.737 2.737 6.767 3.144 9 .91 2.234-2.234 1.826-6.263-.91-9-2.737-2.736-6.766-3.144-9-.91" fill="#fff"/></g></g></g></g><path d="M149.136 585.97a1.175 1.175 0 011.316-1.014l.082.01a1.174 1.174 0 011.015 1.317l-1.042 8.059a1.174 1.174 0 01-1.315 1.015l-.083-.011a1.174 1.174 0 01-1.014-1.316z" fill="none" stroke="#fff" stroke-width="3.08" stroke-linecap="round" stroke-linejoin="round"/><path d="M147.361 575.683c0-.649.526-1.175 1.175-1.175h.083c.649 0 1.175.526 1.175 1.175v10.594c0 .65-.526.735-1.175.735h-.083a1.175 1.175 0 01-1.175-1.175zm-2.906-.946c0-.65.526-1.175 1.175-1.175h.083c.649 0 1.175.526 1.175 1.175v10.154c0 .649-.526 1.175-1.175 1.175h-.083a1.175 1.175 0 01-1.175-1.175z" fill="none" stroke="#fff" stroke-width="3.08" stroke-linecap="round" stroke-linejoin="round"/><path d="M144.455 593.846c0 .649.526 1.175 1.175 1.175l2.99.608c.648 0 1.174-.526 1.174-1.175l.88-11.476c0-.65-.526-1.175-1.174-1.175l-4.75-.61c-.65 0-1.175.528-1.175 1.176z" fill="none" stroke="#fff" stroke-width="3.08" stroke-linecap="round" stroke-linejoin="round"/><path d="M142.916 585.664a1.175 1.175 0 011.046-1.292l.082-.008c.646-.068 1.224.4 1.292 1.046l.848 8.082a1.176 1.176 0 01-1.046 1.291l-.083.008a1.176 1.176 0 01-1.292-1.045zm.795 12.722a3.177 3.177 0 116.354 0 3.177 3.177 0 01-6.354 0z" fill="none" stroke="#fff" stroke-width="3.08" stroke-linecap="round" stroke-linejoin="round"/><path d="M148.085 595.629s1.737.612 1.737 2.977c0 0-.05 2.244-2.935 2.775 0 0 2.666-.575 2.556-2.995 0 0-.296-1.61-1.358-2.757zm-3.097-1.203s.651-.165.683-.77c0 0-.678-7.645-.683-8.305 0 0 .533 8.809 0 9.075zm4.806.669s.48-.09.599-.683c0 0 .742-7.624.844-8.277 0 0-1.03 8.758-1.443 8.96zm-.516-.297s1.342-11.29 1.237-11.922c0 0-.219-1.155-1.938-.88 0 0 2.008.495 1.217 6.05 0 0-.076 2.707-2 2.569 0 0-1.555-.809-1.603-1.854 0 0 .64 3.291 0 3.41 0 0 2.442-2.698 3.032-.33 0 0 .107 1.196.055 2.957z" fill="none" stroke="#fff" stroke-width="3.08" stroke-linecap="round" stroke-linejoin="round"/><path d="M149.216 575.165s.557.22.392 1.54l.031 5.688s.043-7.109-1.284-7.228c0 0 .27-.29.861 0zm-3.025-1.034s.557.22.392 1.54l.031 5.688s.043-7.109-1.284-7.228c0 0 .269-.29.861 0z" fill="none" stroke="#fff" stroke-width="3.08" stroke-linecap="round" stroke-linejoin="round"/><path d="M149.136 585.97a1.175 1.175 0 011.316-1.014l.082.01a1.174 1.174 0 011.015 1.317l-1.042 8.059a1.174 1.174 0 01-1.315 1.015l-.083-.011a1.174 1.174 0 01-1.014-1.316z" fill="none" stroke="#782f9a" stroke-width="1.32"/><path d="M147.361 575.683c0-.649.526-1.175 1.175-1.175h.083c.649 0 1.175.526 1.175 1.175v10.594c0 .65-.526.735-1.175.735h-.083a1.175 1.175 0 01-1.175-1.175zm-2.906-.946c0-.65.526-1.175 1.175-1.175h.083c.649 0 1.175.526 1.175 1.175v10.154c0 .649-.526 1.175-1.175 1.175h-.083a1.175 1.175 0 01-1.175-1.175z" fill="none" stroke="#782f9a" stroke-width="1.32"/><path d="M144.455 593.846c0 .649.526 1.175 1.175 1.175l2.99.608c.648 0 1.174-.526 1.174-1.175l.88-11.476c0-.65-.526-1.175-1.174-1.175l-4.75-.61c-.65 0-1.175.528-1.175 1.176z" fill="none" stroke="#782f9a" stroke-width="1.32"/><path d="M142.916 585.664a1.175 1.175 0 011.046-1.292l.082-.008c.646-.068 1.224.4 1.292 1.046l.848 8.082a1.176 1.176 0 01-1.046 1.291l-.083.008a1.176 1.176 0 01-1.292-1.045zm.795 12.722a3.177 3.177 0 116.354 0 3.177 3.177 0 01-6.354 0z" fill="none" stroke="#782f9a" stroke-width="1.32"/><path d="M148.085 595.629s1.737.612 1.737 2.977c0 0-.05 2.244-2.935 2.775 0 0 2.666-.575 2.556-2.995 0 0-.296-1.61-1.358-2.757zm-3.097-1.203s.651-.165.683-.77c0 0-.678-7.645-.683-8.305 0 0 .533 8.809 0 9.075zm4.806.669s.48-.09.599-.683c0 0 .742-7.624.844-8.277 0 0-1.03 8.758-1.443 8.96zm-.516-.297s1.342-11.29 1.237-11.922c0 0-.219-1.155-1.938-.88 0 0 2.008.495 1.217 6.05 0 0-.076 2.707-2 2.569 0 0-1.555-.809-1.603-1.854 0 0 .64 3.291 0 3.41 0 0 2.442-2.698 3.032-.33 0 0 .107 1.196.055 2.957z" fill="none" stroke="#782f9a" stroke-width="1.32"/><path d="M149.216 575.165s.557.22.392 1.54l.031 5.688s.043-7.109-1.284-7.228c0 0 .27-.29.861 0zM146.191 574.131s.557.22.392 1.54l.031 5.688s.043-7.109-1.284-7.228c0 0 .269-.29.861 0z" fill="none" stroke="#782f9a" stroke-width="1.32"/></g><path d="M149.192 595.356l-.083-.011a1.174 1.174 0 01-1.014-1.315l1.041-8.06a1.178 1.178 0 011.316-1.015l.082.012a1.173 1.173 0 011.015 1.315l-1.041 8.059a1.176 1.176 0 01-1.164 1.025 1.12 1.12 0 01-.152-.01" fill="url(#am)" transform="matrix(.62536 0 0 -.62538 -78.915 380.803)"/><path d="M148.536 587.011a1.174 1.174 0 01-1.175-1.173v-10.155c0-.649.526-1.174 1.175-1.174h.083c.649 0 1.175.525 1.175 1.174v10.595c0 .648-.526.733-1.175.733z" fill="url(#an)" transform="matrix(.62536 0 0 -.62538 -78.915 380.803)"/><path d="M145.63 586.066a1.176 1.176 0 01-1.176-1.175v-10.154c0-.649.527-1.175 1.176-1.175h.083c.649 0 1.175.526 1.175 1.175v10.154c0 .649-.526 1.175-1.175 1.175z" fill="url(#ao)" transform="matrix(.62536 0 0 -.62538 -78.915 380.803)"/><path d="M145.63 595.021a1.177 1.177 0 01-1.176-1.176l-.879-11.477c0-.648.526-1.174 1.175-1.174l4.749.608c.649 0 1.174.527 1.174 1.176l-.879 11.476c0 .649-.526 1.175-1.175 1.175z" fill="url(#ap)" transform="matrix(.62536 0 0 -.62538 -78.915 380.803)"/><path d="M143.763 593.746l-.847-8.082a1.175 1.175 0 011.046-1.291l.083-.009c.645-.068 1.223.4 1.292 1.046l.847 8.081a1.175 1.175 0 01-1.046 1.292l-.082.009a1.177 1.177 0 01-1.293-1.046" fill="url(#aq)" transform="matrix(.62536 0 0 -.62538 -78.915 380.803)"/><path d="M143.711 598.387a3.177 3.177 0 116.353 0 3.176 3.176 0 01-6.353 0" fill="url(#ar)" transform="matrix(.62536 0 0 -.62538 -78.915 380.803)"/><g clip-path="url(#as)" transform="matrix(.62536 0 0 -.62538 -78.915 380.803)"><g mask="url(#at)"><path d="M146.888 601.381s2.665-.575 2.555-2.994c0 0-.296-1.611-1.357-2.758 0 0 1.736.612 1.736 2.977 0 0-.05 2.243-2.934 2.775z" fill="url(#au)"/></g></g><g clip-path="url(#av)" transform="matrix(.62536 0 0 -.62538 -78.915 380.803)"><g mask="url(#aw)"><path d="M144.988 594.426c.45-.224.141-6.543.033-8.502.135 1.933.65 7.732.65 7.732-.031.605-.683.77-.683.77zm0-9.075l.033.573c-.02-.286-.032-.488-.033-.573" fill="url(#ax)"/></g></g><g clip-path="url(#ay)" transform="matrix(.62536 0 0 -.62538 -78.915 380.803)"><g mask="url(#az)"><path d="M149.795 595.095c.349-.176 1.135-6.432 1.373-8.383-.214 1.929-.774 7.699-.774 7.699-.116.579-.575.679-.599.684zm1.442-8.959l-.069.576c.031-.289.055-.492.069-.576" fill="url(#aA)"/></g></g><g clip-path="url(#aB)" transform="matrix(.62536 0 0 -.62538 -78.915 380.803)"><g mask="url(#aC)"><path d="M149.224 591.841c-.491-1.967-2.259-.438-2.844.136.232-.573-.018-2.238-.135-2.92.28.898 1.549 1.558 1.549 1.558 1.925.138 2-2.569 2-2.569.79-5.555-1.217-6.05-1.217-6.05 1.719-.275 1.938.88 1.938.88.105.632-1.236 11.922-1.236 11.922.052-1.761-.055-2.957-.055-2.957m-3.033.33s.07-.077.189-.194c-.044.109-.105.179-.189.194zm0-3.41s.022.113.054.296a1.189 1.189 0 01-.054-.296" fill="url(#aD)"/></g></g><g clip-path="url(#aE)" transform="matrix(.62536 0 0 -.62538 -78.915 380.803)"><g mask="url(#aF)"><path d="M149.637 581.888c.003.317.002.506.002.506zm-1.282-6.722s.269-.29.861 0c0 0 .557.219.393 1.54l.028 5.182c-.02-1.626-.171-6.623-1.282-6.722" fill="url(#aG)"/></g></g><g clip-path="url(#aH)" transform="matrix(.62536 0 0 -.62538 -78.915 380.803)"><g mask="url(#aI)"><path d="M146.611 580.854c.004.316.003.505.003.505zm-1.282-6.723s.27-.29.862 0c0 0 .558.22.392 1.541l.028 5.182c-.02-1.627-.171-6.623-1.282-6.723" fill="url(#aJ)"/></g></g><path d="M0 0s-5.613 0-5.613-5.613v-26.192s0-5.612 5.613-5.612h26.192s5.613 0 5.613 5.612v26.192S31.805 0 26.192 0z" fill="none" stroke="#231f20" stroke-width=".66" transform="matrix(.62536 0 0 -.62538 5.04 1.53)"/></svg>