<svg xmlns="http://www.w3.org/2000/svg" width="100" height="100" viewBox="0 0 26.458 26.458"><defs><linearGradient x1="0" y1="0" x2="1" y2="0" gradientUnits="userSpaceOnUse" gradientTransform="matrix(61.15932 0 0 -61.15932 507.948 624.273)" spreadMethod="pad" id="n"><stop offset="0" stop-color="#fff"/><stop offset=".005" stop-color="#fff"/><stop offset="1" stop-opacity=".5" stop-color="#fff"/></linearGradient><linearGradient x1="0" y1="0" x2="1" y2="0" gradientUnits="userSpaceOnUse" gradientTransform="rotate(90 -45.517 582.839) scale(8.08494)" spreadMethod="pad" id="r"><stop offset="0" stop-color="#fff"/><stop offset="1" stop-opacity="0" stop-color="#fff"/></linearGradient><linearGradient x1="0" y1="0" x2="1" y2="0" gradientUnits="userSpaceOnUse" gradientTransform="scale(52.91605 -52.91605) rotate(45 19.722 5.585)" spreadMethod="pad" id="C"><stop offset="0" stop-color="#50ade5"/><stop offset="1" stop-color="#3871c1"/></linearGradient><linearGradient x1="0" y1="0" x2="1" y2="0" gradientUnits="userSpaceOnUse" gradientTransform="matrix(61.15933 0 0 -61.15933 507.948 624.273)" spreadMethod="pad" id="F"><stop offset="0" stop-color="#fff"/><stop offset=".005" stop-color="#fff"/><stop offset="1" stop-color="#00adef"/></linearGradient><linearGradient x1="0" y1="0" x2="1" y2="0" gradientUnits="userSpaceOnUse" gradientTransform="matrix(11.46312 0 0 -11.46312 521.354 634.351)" spreadMethod="pad" id="H"><stop offset="0" stop-color="#a61217"/><stop offset="1" stop-color="#ed1c24"/></linearGradient><linearGradient x1="0" y1="0" x2="1" y2="0" gradientUnits="userSpaceOnUse" gradientTransform="matrix(1.41943 0 0 -1.41943 521.086 636.815)" spreadMethod="pad" id="I"><stop offset="0" stop-color="#3871c1"/><stop offset="1" stop-color="#00adef"/></linearGradient><linearGradient x1="0" y1="0" x2="1" y2="0" gradientUnits="userSpaceOnUse" gradientTransform="matrix(1.41917 0 0 -1.41917 521.086 632.285)" spreadMethod="pad" id="J"><stop offset="0" stop-color="#f89d78"/><stop offset="1" stop-color="#a47343"/></linearGradient><linearGradient x1="0" y1="0" x2="1" y2="0" gradientUnits="userSpaceOnUse" gradientTransform="matrix(1.41943 0 0 -1.41943 522.303 626.981)" spreadMethod="pad" id="K"><stop offset="0" stop-color="#3871c1"/><stop offset="1" stop-color="#00adef"/></linearGradient><linearGradient x1="0" y1="0" x2="1" y2="0" gradientUnits="userSpaceOnUse" gradientTransform="matrix(1.41943 0 0 -1.41943 525.209 626.035)" spreadMethod="pad" id="L"><stop offset="0" stop-color="#3871c1"/><stop offset="1" stop-color="#00adef"/></linearGradient><linearGradient x1="0" y1="0" x2="1" y2="0" gradientUnits="userSpaceOnUse" gradientTransform="matrix(5.33969 0 0 -5.33969 521.897 636.612)" spreadMethod="pad" id="M"><stop offset="0" stop-color="#3871c1"/><stop offset="1" stop-color="#00adef"/></linearGradient><linearGradient x1="0" y1="0" x2="1" y2="0" gradientUnits="userSpaceOnUse" gradientTransform="matrix(6.35331 0 0 -6.35331 521.627 644.607)" spreadMethod="pad" id="N"><stop offset="0" stop-color="#f89d78"/><stop offset="1" stop-color="#a47343"/></linearGradient><linearGradient x1="0" y1="0" x2="1" y2="0" gradientUnits="userSpaceOnUse" gradientTransform="matrix(0 5.75197 5.75197 0 523.336 641.92)" spreadMethod="pad" id="Q"><stop offset="0" stop-color="#fff"/><stop offset="1" stop-color="#fff"/></linearGradient><linearGradient x1="0" y1="0" x2="1" y2="0" gradientUnits="userSpaceOnUse" gradientTransform="matrix(3.59345 0 0 -3.59345 546.045 625.449)" spreadMethod="pad" id="f"><stop offset="0" stop-color="#fff"/><stop offset="1" stop-opacity="0" stop-color="#fff"/></linearGradient><linearGradient x1="0" y1="0" x2="1" y2="0" gradientUnits="userSpaceOnUse" gradientTransform="matrix(0 7.6355 7.6355 0 543.79 620.254)" spreadMethod="pad" id="h"><stop offset="0" stop-color="#fff"/><stop offset="1" stop-opacity="0" stop-color="#fff"/></linearGradient><linearGradient x1="0" y1="0" x2="1" y2="0" gradientUnits="userSpaceOnUse" gradientTransform="matrix(0 11.98991 11.98991 0 538.358 618.043)" spreadMethod="pad" id="l"><stop offset="0" stop-color="#fff"/><stop offset="1" stop-opacity="0" stop-color="#fff"/></linearGradient><linearGradient x1="0" y1="0" x2="1" y2="0" gradientUnits="userSpaceOnUse" gradientTransform="scale(9.07527 -9.07527) rotate(-85.061 -7.92 -66.924)" spreadMethod="pad" id="b"><stop offset="0" stop-opacity="0" stop-color="#fff"/><stop offset="1" stop-color="#fff"/></linearGradient><linearGradient x1="0" y1="0" x2="1" y2="0" gradientUnits="userSpaceOnUse" gradientTransform="matrix(.78132 9.04135 9.04135 -.78132 533.79 627.924)" spreadMethod="pad" id="t"><stop offset="0" stop-opacity="0" stop-color="#fff"/><stop offset="1" stop-color="#fff"/></linearGradient><linearGradient x1="0" y1="0" x2="1" y2="0" gradientUnits="userSpaceOnUse" gradientTransform="matrix(0 5.75197 5.75197 0 536.625 636.931)" spreadMethod="pad" id="v"><stop offset="0" stop-color="#fff"/><stop offset="1" stop-opacity="0" stop-color="#fff"/></linearGradient><linearGradient x1="0" y1="0" x2="1" y2="0" gradientUnits="userSpaceOnUse" gradientTransform="rotate(90 -53.9 577.932) scale(9.59893)" spreadMethod="pad" id="x"><stop offset="0" stop-color="#fff"/><stop offset="1" stop-opacity="0" stop-color="#fff"/></linearGradient><linearGradient x1="0" y1="0" x2="1" y2="0" gradientUnits="userSpaceOnUse" gradientTransform="matrix(0 7.35705 7.35705 0 525.812 620.074)" spreadMethod="pad" id="d"><stop offset="0" stop-color="#fff"/><stop offset="1" stop-opacity="0" stop-color="#fff"/></linearGradient><linearGradient x1="0" y1="0" x2="1" y2="0" gradientUnits="userSpaceOnUse" gradientTransform="matrix(0 7.35705 7.35705 0 522.694 621.054)" spreadMethod="pad" id="B"><stop offset="0" stop-color="#fff"/><stop offset="1" stop-opacity="0" stop-color="#fff"/></linearGradient><linearGradient x1="0" y1="0" x2="1" y2="0" gradientUnits="userSpaceOnUse" gradientTransform="scale(9.07527 -9.07527) rotate(-85.061 -9.336 -66.132)" spreadMethod="pad" id="j"><stop offset="0" stop-opacity="0" stop-color="#fff"/><stop offset="1" stop-color="#fff"/></linearGradient><linearGradient x1="0" y1="0" x2="1" y2="0" gradientUnits="userSpaceOnUse" gradientTransform="matrix(0 5.75197 5.75197 0 523.336 641.92)" spreadMethod="pad" id="p"><stop offset="0" stop-color="#fff"/><stop offset="1" stop-opacity="0" stop-color="#fff"/></linearGradient><linearGradient x1="0" y1="0" x2="1" y2="0" gradientUnits="userSpaceOnUse" gradientTransform="rotate(90 -53.9 577.932) scale(9.59893)" spreadMethod="pad" id="al"><stop offset="0" stop-color="#fff"/><stop offset="1" stop-color="#fff"/></linearGradient><linearGradient x1="0" y1="0" x2="1" y2="0" gradientUnits="userSpaceOnUse" gradientTransform="scale(9.07505 -9.07505) rotate(-85.061 -8.952 -66.402)" spreadMethod="pad" id="z"><stop offset="0" stop-opacity="0" stop-color="#fff"/><stop offset="1" stop-color="#fff"/></linearGradient><linearGradient x1="0" y1="0" x2="1" y2="0" gradientUnits="userSpaceOnUse" gradientTransform="scale(9.07527 -9.07527) rotate(-85.061 -9.336 -66.132)" spreadMethod="pad" id="T"><stop offset="0" stop-color="#fff"/><stop offset="1" stop-color="#fff"/></linearGradient><linearGradient x1="0" y1="0" x2="1" y2="0" gradientUnits="userSpaceOnUse" gradientTransform="matrix(3.59345 0 0 -3.59345 546.045 625.449)" spreadMethod="pad" id="aM"><stop offset="0" stop-color="#fff"/><stop offset="1" stop-color="#fff"/></linearGradient><linearGradient x1="0" y1="0" x2="1" y2="0" gradientUnits="userSpaceOnUse" gradientTransform="matrix(0 7.63549 7.63549 0 543.79 620.254)" spreadMethod="pad" id="aJ"><stop offset="0" stop-color="#fff"/><stop offset="1" stop-color="#fff"/></linearGradient><linearGradient x1="0" y1="0" x2="1" y2="0" gradientUnits="userSpaceOnUse" gradientTransform="matrix(0 11.98991 11.98991 0 538.358 618.043)" spreadMethod="pad" id="aG"><stop offset="0" stop-color="#fff"/><stop offset="1" stop-color="#fff"/></linearGradient><linearGradient x1="0" y1="0" x2="1" y2="0" gradientUnits="userSpaceOnUse" gradientTransform="matrix(5.33969 0 0 -5.33969 521.897 632.285)" spreadMethod="pad" id="U"><stop offset="0" stop-color="#a61217"/><stop offset="1" stop-color="#ed1c24"/></linearGradient><linearGradient x1="0" y1="0" x2="1" y2="0" gradientUnits="userSpaceOnUse" gradientTransform="scale(9.07527 -9.07527) rotate(-85.061 -7.92 -66.924)" spreadMethod="pad" id="aD"><stop offset="0" stop-color="#fff"/><stop offset="1" stop-color="#fff"/></linearGradient><linearGradient x1="0" y1="0" x2="1" y2="0" gradientUnits="userSpaceOnUse" gradientTransform="matrix(1.41917 0 0 -1.41917 539.714 630.71)" spreadMethod="pad" id="aA"><stop offset="0" stop-color="#f89d78"/><stop offset="1" stop-color="#a47343"/></linearGradient><linearGradient x1="0" y1="0" x2="1" y2="0" gradientUnits="userSpaceOnUse" gradientTransform="matrix(14.59036 0 0 -14.59036 535.186 624.102)" spreadMethod="pad" id="az"><stop offset="0" stop-color="#37ab9c"/><stop offset="1" stop-color="#3f6460"/></linearGradient><linearGradient x1="0" y1="0" x2="1" y2="0" gradientUnits="userSpaceOnUse" gradientTransform="matrix(1.41943 0 0 -1.41943 526.425 635.7)" spreadMethod="pad" id="V"><stop offset="0" stop-color="#3871c1"/><stop offset="1" stop-color="#06afef"/></linearGradient><linearGradient x1="0" y1="0" x2="1" y2="0" gradientUnits="userSpaceOnUse" gradientTransform="rotate(90 -45.517 582.839) scale(8.08494)" spreadMethod="pad" id="ay"><stop offset="0" stop-color="#fff"/><stop offset="1" stop-color="#fff"/></linearGradient><linearGradient x1="0" y1="0" x2="1" y2="0" gradientUnits="userSpaceOnUse" gradientTransform="scale(9.07505 -9.07505) rotate(-85.061 -8.952 -66.402)" spreadMethod="pad" id="Y"><stop offset="0" stop-color="#fff"/><stop offset="1" stop-color="#fff"/></linearGradient><linearGradient x1="0" y1="0" x2="1" y2="0" gradientUnits="userSpaceOnUse" gradientTransform="matrix(.78132 9.04135 9.04135 -.78132 533.79 627.924)" spreadMethod="pad" id="av"><stop offset="0" stop-color="#fff"/><stop offset="1" stop-color="#fff"/></linearGradient><linearGradient x1="0" y1="0" x2="1" y2="0" gradientUnits="userSpaceOnUse" gradientTransform="matrix(0 5.75197 5.75197 0 536.625 636.931)" spreadMethod="pad" id="as"><stop offset="0" stop-color="#fff"/><stop offset="1" stop-color="#fff"/></linearGradient><linearGradient x1="0" y1="0" x2="1" y2="0" gradientUnits="userSpaceOnUse" gradientTransform="matrix(6.35374 0 0 -6.35374 534.915 639.618)" spreadMethod="pad" id="ap"><stop offset="0" stop-color="#f89d78"/><stop offset="1" stop-color="#a47343"/></linearGradient><linearGradient x1="0" y1="0" x2="1" y2="0" gradientUnits="userSpaceOnUse" gradientTransform="matrix(5.33969 0 0 -5.33969 535.186 631.623)" spreadMethod="pad" id="ao"><stop offset="0" stop-color="#f89d78"/><stop offset="1" stop-color="#a47343"/></linearGradient><linearGradient x1="0" y1="0" x2="1" y2="0" gradientUnits="userSpaceOnUse" gradientTransform="matrix(1.41968 0 0 -1.41968 534.375 631.826)" spreadMethod="pad" id="an"><stop offset="0" stop-color="#f89d78"/><stop offset="1" stop-color="#a47343"/></linearGradient><linearGradient x1="0" y1="0" x2="1" y2="0" gradientUnits="userSpaceOnUse" gradientTransform="matrix(.0001 2.22186 2.22186 -.0001 523.796 638.45)" spreadMethod="pad" id="ai"><stop offset="0" stop-color="#f68712"/><stop offset="1" stop-color="#fff200"/></linearGradient><linearGradient x1="0" y1="0" x2="1" y2="0" gradientUnits="userSpaceOnUse" gradientTransform="matrix(0 7.35705 7.35705 0 525.812 620.074)" spreadMethod="pad" id="ah"><stop offset="0" stop-color="#fff"/><stop offset="1" stop-color="#fff"/></linearGradient><linearGradient x1="0" y1="0" x2="1" y2="0" gradientUnits="userSpaceOnUse" gradientTransform="matrix(1.41917 0 0 -1.41917 526.425 631.152)" spreadMethod="pad" id="Z"><stop offset="0" stop-color="#f89d78"/><stop offset="1" stop-color="#a47343"/></linearGradient><linearGradient x1="0" y1="0" x2="1" y2="0" gradientUnits="userSpaceOnUse" gradientTransform="matrix(0 7.35705 7.35705 0 522.694 621.054)" spreadMethod="pad" id="ae"><stop offset="0" stop-color="#fff"/><stop offset="1" stop-color="#fff"/></linearGradient><linearGradient x1="0" y1="0" x2="1" y2="0" gradientUnits="userSpaceOnUse" gradientTransform="matrix(1.41917 0 0 -1.41917 522.303 623.314)" spreadMethod="pad" id="ab"><stop offset="0" stop-color="#a61217"/><stop offset="1" stop-color="#ed1c24"/></linearGradient><linearGradient x1="0" y1="0" x2="1" y2="0" gradientUnits="userSpaceOnUse" gradientTransform="matrix(1.41917 0 0 -1.41917 525.209 622.367)" spreadMethod="pad" id="aa"><stop offset="0" stop-color="#a61217"/><stop offset="1" stop-color="#ed1c24"/></linearGradient><clipPath clipPathUnits="userSpaceOnUse" id="aw"><path d="M535.341 629.536s-.154-1.33 1.051-1.165c-.112-.011-1.025-.01-.672 3.243 0 0 .546 5.488 3.381.38v1.471s-.142 1.726.139 2.244c-.224-.287-.982-1.144-2.035-1.075 0 0-1.28.036-1.54 1.807zm3.899 6.173c.045.058.069.093.069.093a.409.409 0 01-.069-.093m-2.848-7.338a.12.12 0 01.011.002l-.011-.002"/></clipPath><clipPath clipPathUnits="userSpaceOnUse" id="q"><path d="M-32768 32767h65535v-65535h-65535z"/></clipPath><clipPath clipPathUnits="userSpaceOnUse" id="at"><path d="M534.169 636.223s.012-5.844-.018-7.77c.061 1.948.296 8.293.765 8.478 0 0-.664-.108-.747-.708m-.034-8.333c.006.084.011.282.016.563a34.508 34.508 0 01-.016-.563"/></clipPath><clipPath clipPathUnits="userSpaceOnUse" id="s"><path d="M-32768 32767h65535v-65535h-65535z"/></clipPath><clipPath clipPathUnits="userSpaceOnUse" id="aq"><path d="M535.157 639.908c0-2.364 1.739-2.977 1.739-2.977-1.063 1.148-1.359 2.757-1.359 2.757-.111 2.42 2.555 2.995 2.555 2.995-2.872-.529-2.934-2.757-2.935-2.775"/></clipPath><clipPath clipPathUnits="userSpaceOnUse" id="y"><path d="M-13903.2 15031.3H14932v-28835.2h-28835.2z"/></clipPath><clipPath clipPathUnits="userSpaceOnUse" id="u"><path d="M-13903.2 15031.3H14932v-28835.2h-28835.2z"/></clipPath><clipPath clipPathUnits="userSpaceOnUse" id="am"><path d="M520.271 651.371s-5.612 0-5.612-5.612v-26.195c.001-.171.087-5.61 5.612-5.61h26.192s5.612 0 5.612 5.613v26.192s0 5.612-5.612 5.612z"/></clipPath><clipPath clipPathUnits="userSpaceOnUse" id="af"><path d="M525.172 626.928l-.002.503s-.002-.188.002-.503m.028-5.186c-.165-1.319.393-1.539.393-1.539.591-.29.861 0 .861 0-1.111.099-1.263 5.102-1.282 6.725z"/></clipPath><clipPath clipPathUnits="userSpaceOnUse" id="W"><path d="M526.488 639.963s.014-5.829-.018-7.762c.062 1.956.297 8.286.764 8.47 0 0-.662-.108-.746-.708m-.034-8.334c.006.086.012.286.016.572l-.016-.572"/></clipPath><clipPath clipPathUnits="userSpaceOnUse" id="c"><path d="M-32768 32767h65535v-65535h-65535z"/></clipPath><clipPath clipPathUnits="userSpaceOnUse" id="ac"><path d="M522.055 627.907l-.003.504s-.002-.189.003-.504m.027-5.184c-.164-1.321.393-1.54.393-1.54.591-.291.861 0 .861 0-1.111.099-1.261 5.102-1.281 6.724z"/></clipPath><clipPath clipPathUnits="userSpaceOnUse" id="A"><path d="M-13903.2 15031.3H14932v-28835.2h-28835.2z"/></clipPath><clipPath clipPathUnits="userSpaceOnUse" id="w"><path d="M-13903.2 15031.3H14932v-28835.2h-28835.2z"/></clipPath><clipPath clipPathUnits="userSpaceOnUse" id="m"><path d="M-13903.2 15031.3H14932v-28835.2h-28835.2z"/></clipPath><clipPath clipPathUnits="userSpaceOnUse" id="D"><path d="M544.577 643.061c-.952.299-1.965.46-3.016.46-4.783 0-8.785-3.336-9.814-7.807a10.24 10.24 0 01-4.208.9c-5.68 0-10.286-4.606-10.286-10.287 0-.208.008-.413.02-.618a12.285 12.285 0 01-2.614-.692v-5.453c.001-.171.087-5.61 5.612-5.61h26.192s5.612 0 5.612 5.613v26.192s0 2.586-1.755 4.247a12.646 12.646 0 01-5.743-6.945"/></clipPath><clipPath clipPathUnits="userSpaceOnUse" id="G"><path d="M520.271 651.371s-5.612 0-5.612-5.612v-26.195c.001-.171.087-5.61 5.612-5.61h26.192s5.612 0 5.612 5.613v26.192s0 5.612-5.612 5.612z"/></clipPath><clipPath clipPathUnits="userSpaceOnUse" id="o"><path d="M-13903.2 15031.3H14932v-28835.2h-28835.2z"/></clipPath><clipPath clipPathUnits="userSpaceOnUse" id="O"><path d="M521.869 644.898c0-2.366 1.737-2.978 1.737-2.978-1.062 1.148-1.359 2.758-1.359 2.758-.109 2.419 2.556 2.994 2.556 2.994-2.872-.529-2.934-2.757-2.934-2.774"/></clipPath><clipPath clipPathUnits="userSpaceOnUse" id="aK"><path d="M546.044 624.807s.257-.511.221-.705c0 0 2.035 2.702 3.373 2.685 0 0-.041.009-.124.009-.363 0-1.516-.17-3.47-1.989"/></clipPath><clipPath clipPathUnits="userSpaceOnUse" id="e"><path d="M-32768 32767h65535v-65535h-65535z"/></clipPath><clipPath clipPathUnits="userSpaceOnUse" id="aH"><path d="M543.248 624.85c.12-1.73 1.66-2.903 1.66-2.903l-.513-.898c-.789-1.063-2.053-.716-2.053-.716.751-.274 1.814.257 1.814.257.459.275 1.082 1.522 1.082 1.522-2.878 1.264-1.705 5.777-1.705 5.777-.458-1.297-.294-2.91-.285-3.039"/></clipPath><clipPath clipPathUnits="userSpaceOnUse" id="i"><path d="M-13903.2 15031.3H14932v-28835.2h-28835.2z"/></clipPath><clipPath clipPathUnits="userSpaceOnUse" id="g"><path d="M-13903.2 15031.3H14932v-28835.2h-28835.2z"/></clipPath><clipPath clipPathUnits="userSpaceOnUse" id="aE"><path d="M535.448 630.033l.183-6.673s.071-2.351 1.691-3.667c0 0 1.554-1.393 3.946-1.65 0 0-3.07 1.019-3.73 2.068 0 0-1.061.646-1.135 3.836v5.903z"/></clipPath><clipPath clipPathUnits="userSpaceOnUse" id="R"><path d="M520.879 641.212s.014-5.815-.017-7.756c.062 1.965.296 8.273.763 8.464h-.001c-.036-.006-.663-.125-.745-.708m-.034-8.333c.007.086.012.288.017.577l-.017-.577"/></clipPath><clipPath clipPathUnits="userSpaceOnUse" id="k"><path d="M-13903.2 15031.3H14932v-28835.2h-28835.2z"/></clipPath><clipPath clipPathUnits="userSpaceOnUse" id="aB"><path d="M539.777 634.973s.013-5.843-.018-7.769c.061 1.946.296 8.285.764 8.478h-.001c-.037-.006-.664-.126-.745-.709m-.034-8.332c.006.085.012.281.016.563a58.289 58.289 0 01-.016-.563"/></clipPath><clipPath clipPathUnits="userSpaceOnUse" id="aj"><path d="M522.353 640.846l-.301-7.613s-.154-1.581 1.051-1.384c-.111-.014-1.025-.012-.673 3.851 0 0 .547 6.515 3.381.451v1.746s-.141 2.05.141 2.664c-.224-.342-.983-1.358-2.037-1.277 0 0-1.448.134-1.562 1.562l.022.585a2.63 2.63 0 01-.022-.585m3.599-.285c.045.069.067.11.067.11a.433.433 0 01-.067-.11m-2.849-8.712a.04.04 0 01.011.001l-.011-.001"/></clipPath><clipPath clipPathUnits="userSpaceOnUse" id="a"><path d="M-13903.2 15031.3H14932v-28835.2h-28835.2z"/></clipPath><mask maskUnits="userSpaceOnUse" x="0" y="0" width="1" height="1" id="P"><g clip-path="url(#o)"><path d="M521.868 647.673h2.935v-5.752h-2.935z" fill="url(#p)"/></g></mask><mask maskUnits="userSpaceOnUse" x="0" y="0" width="1" height="1" id="aC"><g clip-path="url(#a)"><path d="M538.967 626.708l.781 9.041 1.551-.134-.781-9.041z" fill="url(#b)"/></g></mask><mask maskUnits="userSpaceOnUse" x="0" y="0" width="1" height="1" id="aL"><g clip-path="url(#e)"><path d="M546.045 626.804h3.593v-2.702h-3.593z" fill="url(#f)"/></g></mask><mask maskUnits="userSpaceOnUse" x="0" y="0" width="1" height="1" id="aI"><g clip-path="url(#g)"><path d="M542.342 627.89h2.896v-7.905h-2.896z" fill="url(#h)"/></g></mask><mask maskUnits="userSpaceOnUse" x="0" y="0" width="1" height="1" id="S"><g clip-path="url(#i)"><path d="M520.069 632.946l.782 9.041 1.551-.134-.782-9.041z" fill="url(#j)"/></g></mask><mask maskUnits="userSpaceOnUse" x="0" y="0" width="1" height="1" id="aF"><g clip-path="url(#k)"><path d="M535.448 630.033h5.82v-11.99h-5.82z" fill="url(#l)"/></g></mask><mask maskUnits="userSpaceOnUse" x="0" y="0" width="1" height="1" id="E"><g clip-path="url(#m)"><path d="M514.658 650.241h37.417v-36.287h-37.417z" fill="url(#n)"/></g></mask><mask maskUnits="userSpaceOnUse" x="0" y="0" width="1" height="1" id="ag"><g clip-path="url(#c)"><path d="M525.035 627.431h1.419v-7.518h-1.419z" fill="url(#d)"/></g></mask><mask maskUnits="userSpaceOnUse" x="0" y="0" width="1" height="1" id="ax"><g clip-path="url(#q)"><path d="M539.309 637.102h-4.121v-8.895h4.121z" fill="url(#r)"/></g></mask><mask maskUnits="userSpaceOnUse" x="0" y="0" width="1" height="1" id="au"><g clip-path="url(#s)"><path d="M533.359 627.957l.781 9.041 1.551-.134-.781-9.041z" fill="url(#t)"/></g></mask><mask maskUnits="userSpaceOnUse" x="0" y="0" width="1" height="1" id="ar"><g clip-path="url(#u)"><path d="M535.157 642.683h2.934v-5.752h-2.934z" fill="url(#v)"/></g></mask><mask maskUnits="userSpaceOnUse" x="0" y="0" width="1" height="1" id="ak"><g clip-path="url(#w)"><path d="M526.02 642.214h-4.121v-10.562h4.121z" fill="url(#x)"/></g></mask><mask maskUnits="userSpaceOnUse" x="0" y="0" width="1" height="1" id="X"><g clip-path="url(#y)"><path d="M525.678 631.696l.781 9.042 1.551-.134-.781-9.042z" fill="url(#z)"/></g></mask><mask maskUnits="userSpaceOnUse" x="0" y="0" width="1" height="1" id="ad"><g clip-path="url(#A)"><path d="M521.918 628.41h1.419v-7.518h-1.419z" fill="url(#B)"/></g></mask></defs><path d="M520.271 651.371s-5.612 0-5.612-5.612v-26.195c.001-.171.087-5.61 5.612-5.61h26.192s5.612 0 5.612 5.613v26.192s0 5.612-5.612 5.612z" fill="url(#C)" transform="matrix(.6244 0 0 -.62815 -319.81 410.599)"/><g clip-path="url(#D)" transform="matrix(.6244 0 0 -.62815 -319.81 410.599)"><g mask="url(#E)"><path d="M544.577 643.061c-.952.299-1.965.46-3.016.46-4.783 0-8.785-3.336-9.814-7.807a10.24 10.24 0 01-4.208.9c-5.68 0-10.286-4.606-10.286-10.287 0-.208.008-.413.02-.618a12.285 12.285 0 01-2.614-.692v-5.453c.001-.171.087-5.61 5.612-5.61h26.192s5.612 0 5.612 5.613v26.192s0 2.586-1.755 4.247a12.646 12.646 0 01-5.743-6.945" fill="url(#F)"/></g></g><g clip-path="url(#G)" transform="matrix(.6244 0 0 -.62815 -319.81 410.599)" fill="none" stroke-linejoin="round"><path d="M521.868 635.202c.073-1.65 4.02-7.724 4.02-7.724l6.93-1.504c-1.724.623-3.447 11.33-3.447 11.33 0 5.28-2.09 4.474-2.09 4.474l-4.255.923s-1.416.343-1.63-1.418c-.215-1.761.472-6.081.472-6.081z" stroke="#fff" stroke-width="2.64"/><path d="M523.114 632.752c0-.649-.526-1.175-1.175-1.175h-.083c-.65 0-1.175.526-1.175 1.175v8.126c0 .65.526 1.175 1.175 1.175h.083c.649 0 1.175-.526 1.175-1.175z" stroke="#fff" stroke-width="2.64"/><path d="M520.68 632.975v-.206c0-.648.527-1.175 1.176-1.175h.083c.649 0 1.175.527 1.175 1.175v.206s-1.008-.939-2.433 0z" stroke="#fff" stroke-width="2.64"/><path d="M524.33 621.904c0-.649-.526-1.175-1.175-1.175h-.083c-.649 0-1.175.526-1.175 1.175v10.594c0 .65.526.735 1.175.735h.083c.65 0 1.175-.526 1.175-1.175zm2.907-.946c0-.649-.526-1.175-1.175-1.175h-.083c-.65 0-1.175.526-1.175 1.175v10.153c0 .65.526 1.176 1.175 1.176h.083c.649 0 1.175-.527 1.175-1.176z" stroke="#fff" stroke-width="2.64"/><path d="M527.237 640.507c0 .649-.526 1.175-1.175 1.175l-2.99.608a1.176 1.176 0 01-1.175-1.175v-8.396c0-.65.527-1.175 1.175-1.175l2.99-.61c.649 0 1.175.527 1.175 1.177z" stroke="#fff" stroke-width="2.64"/><path d="M527.98 644.607a3.177 3.177 0 10-6.354 0 3.177 3.177 0 006.354 0z" stroke="#fff" stroke-width="2.64"/><path d="M523.606 641.92s-1.738.612-1.738 2.977c0 0 .051 2.244 2.935 2.775 0 0-2.665-.575-2.555-2.995 0 0 .296-1.609 1.358-2.757zm-1.98 0s-.663-.108-.747-.708c0 0 .018-7.676-.034-8.334 0 0 .227 8.823.781 9.042zm5.611-8.894v-.916c0-.649-.526-1.175-1.175-1.175l-2.99.608c-.648 0-1.175.526-1.175 1.175v.917z" stroke="#fff" stroke-width="2.64"/><path d="M528.453 631.637c0-.65-.526-1.175-1.175-1.175h-.083c-.649 0-1.175.526-1.175 1.175v8.126c0 .649.526 1.175 1.175 1.175h.083c.65 0 1.175-.526 1.175-1.175z" stroke="#fff" stroke-width="2.64"/><path d="M527.235 640.671s-.663-.108-.747-.708c0 0 .018-7.676-.034-8.333 0 0 .227 8.822.78 9.041z" stroke="#fff" stroke-width="2.64"/><path d="M526.02 631.842v-.206c0-.648.526-1.175 1.175-1.175h.083c.649 0 1.175.527 1.175 1.175v.206s-1.008-.938-2.433 0zm1.216-7.33v-3.553c0-.65-.526-1.175-1.175-1.175h-.083c-.649 0-1.175.526-1.175 1.175v3.993s.738-1.207 2.433-.44zm-2.906.946v-3.553c0-.65-.526-1.175-1.175-1.175h-.083c-.649 0-1.175.526-1.175 1.175v3.993s.738-1.207 2.433-.44z" stroke="#fff" stroke-width="2.64"/><path d="M522.475 621.182s-.557.22-.392 1.54l-.031 5.688s-.043-7.109 1.284-7.228c0 0-.27-.29-.861 0zm3.118-.979s-.557.22-.392 1.54l-.031 5.688s-.043-7.11 1.284-7.228c0 0-.27-.29-.861 0zm-2.498 18.948c.114-.088.357-.205.554-.227.2-.023.292.037.304.146.013.11-.047.17-.286.281-.425.2-.567.46-.534.712.046.398.42.66.949.6a1.44 1.44 0 00.589-.192l-.17-.445a1.05 1.05 0 01-.45.175c-.161.02-.26-.036-.273-.145-.011-.1.066-.163.318-.285.39-.186.537-.41.505-.726-.045-.397-.393-.654-1.005-.584-.28.032-.522.122-.673.228z" stroke="#fff" stroke-width="2.64"/><path d="M525.812 637.897s-.163 2.359.208 2.775c0 0-.84-1.485-2.104-1.388 0 0-1.825.169-1.54 2.147l-.324-8.198s-.154-1.59 1.062-1.382c0 0-1.058-.261-.683 3.849 0 0 .547 6.515 3.38.45z" stroke="#fff" stroke-width="2.64"/><path d="M521.868 635.202c.073-1.65 4.02-7.724 4.02-7.724l6.93-1.504c-1.724.623-3.447 11.33-3.447 11.33 0 5.28-2.09 4.474-2.09 4.474l-4.255.923s-1.416.343-1.63-1.418c-.215-1.761.472-6.081.472-6.081z" stroke="#293d9b" stroke-width="1.32"/><path d="M523.114 632.752c0-.649-.526-1.175-1.175-1.175h-.083c-.65 0-1.175.526-1.175 1.175v8.126c0 .65.526 1.175 1.175 1.175h.083c.649 0 1.175-.526 1.175-1.175z" stroke="#293d9b" stroke-width="1.32"/><path d="M520.68 632.975v-.206c0-.648.527-1.175 1.176-1.175h.083c.649 0 1.175.527 1.175 1.175v.206s-1.008-.939-2.433 0z" stroke="#293d9b" stroke-width="1.32"/><path d="M524.33 621.904c0-.649-.526-1.175-1.175-1.175h-.083c-.649 0-1.175.526-1.175 1.175v10.594c0 .65.526.735 1.175.735h.083c.65 0 1.175-.526 1.175-1.175zm2.907-.946c0-.649-.526-1.175-1.175-1.175h-.083c-.65 0-1.175.526-1.175 1.175v10.153c0 .65.526 1.176 1.175 1.176h.083c.649 0 1.175-.527 1.175-1.176z" stroke="#293d9b" stroke-width="1.32"/><path d="M527.237 640.507c0 .649-.526 1.175-1.175 1.175l-2.99.608a1.176 1.176 0 01-1.175-1.175v-8.396c0-.65.527-1.175 1.175-1.175l2.99-.61c.649 0 1.175.527 1.175 1.177z" stroke="#293d9b" stroke-width="1.32"/><path d="M527.98 644.607a3.177 3.177 0 10-6.354 0 3.177 3.177 0 006.354 0z" stroke="#293d9b" stroke-width="1.32"/><path d="M523.606 641.92s-1.738.612-1.738 2.977c0 0 .051 2.244 2.935 2.775 0 0-2.665-.575-2.555-2.995 0 0 .296-1.609 1.358-2.757zm-1.98 0s-.663-.108-.747-.708c0 0 .018-7.676-.034-8.334 0 0 .227 8.823.781 9.042zm5.611-8.894v-.916c0-.649-.526-1.175-1.175-1.175l-2.99.608c-.648 0-1.175.526-1.175 1.175v.917z" stroke="#293d9b" stroke-width="1.32"/><path d="M528.453 631.637c0-.65-.526-1.175-1.175-1.175h-.083c-.649 0-1.175.526-1.175 1.175v8.126c0 .649.526 1.175 1.175 1.175h.083c.65 0 1.175-.526 1.175-1.175z" stroke="#293d9b" stroke-width="1.32"/><path d="M527.235 640.671s-.663-.108-.747-.708c0 0 .018-7.676-.034-8.333 0 0 .227 8.822.78 9.041z" stroke="#293d9b" stroke-width="1.32"/><path d="M526.02 631.842v-.206c0-.648.526-1.175 1.175-1.175h.083c.649 0 1.175.527 1.175 1.175v.206s-1.008-.938-2.433 0zm1.216-7.33v-3.553c0-.65-.526-1.175-1.175-1.175h-.083c-.649 0-1.175.526-1.175 1.175v3.993s.738-1.207 2.433-.44zm-2.906.946v-3.553c0-.65-.526-1.175-1.175-1.175h-.083c-.649 0-1.175.526-1.175 1.175v3.993s.738-1.207 2.433-.44z" stroke="#293d9b" stroke-width="1.32"/><path d="M522.475 621.182s-.557.22-.392 1.54l-.031 5.688s-.043-7.109 1.284-7.228c0 0-.27-.29-.861 0zm3.118-.979s-.557.22-.392 1.54l-.031 5.688s-.043-7.11 1.284-7.228c0 0-.27-.29-.861 0zm-2.498 18.948c.114-.088.357-.205.554-.227.2-.023.292.037.304.146.013.11-.047.17-.286.281-.425.2-.567.46-.534.712.046.398.42.66.949.6a1.44 1.44 0 00.589-.192l-.17-.445a1.05 1.05 0 01-.45.175c-.161.02-.26-.036-.273-.145-.011-.1.066-.163.318-.285.39-.186.537-.41.505-.726-.045-.397-.393-.654-1.005-.584-.28.032-.522.122-.673.228z" stroke="#293d9b" stroke-width="1.32"/><path d="M525.812 637.897s-.163 2.359.208 2.775c0 0-.84-1.485-2.104-1.388 0 0-1.825.169-1.54 2.147l-.324-8.198s-.154-1.59 1.062-1.382c0 0-1.058-.261-.683 3.849 0 0 .547 6.515 3.38.45z" stroke="#293d9b" stroke-width="1.32"/></g><path d="M521.396 641.283c-.214-1.761.472-6.081.472-6.081.073-1.651 4.019-7.724 4.019-7.724l6.93-1.504c-1.723.623-3.446 11.33-3.446 11.33 0 5.281-2.09 4.474-2.09 4.474l-4.254.924s-.112.026-.276.027c-.423 0-1.201-.179-1.355-1.446" fill="url(#H)" transform="matrix(.6244 0 0 -.62815 -319.81 410.599)"/><path d="M521.855 642.054a1.176 1.176 0 01-1.174-1.176v-8.126c0-.649.526-1.175 1.174-1.175h.084c.649 0 1.175.526 1.175 1.175v8.126c0 .649-.526 1.176-1.175 1.176z" fill="url(#I)" transform="matrix(.6244 0 0 -.62815 -319.81 410.599)"/><path d="M520.681 632.975v-.205c0-.65.525-1.176 1.174-1.176h.084c.649 0 1.174.526 1.174 1.176v.205s-1.008-.937-2.432 0" fill="url(#J)" transform="matrix(.6244 0 0 -.62815 -319.81 410.599)"/><path d="M523.072 633.233c-.649 0-1.175-.086-1.175-.735v-10.594c0-.649.526-1.175 1.175-1.175h.083c.649 0 1.175.526 1.175 1.175v10.154c0 .649-.526 1.175-1.175 1.175z" fill="url(#K)" transform="matrix(.6244 0 0 -.62815 -319.81 410.599)"/><path d="M525.979 632.287c-.65 0-1.176-.527-1.176-1.175v-10.154c0-.649.526-1.175 1.176-1.175h.082c.65 0 1.176.526 1.176 1.175v10.154c0 .648-.526 1.175-1.176 1.175z" fill="url(#L)" transform="matrix(.6244 0 0 -.62815 -319.81 410.599)"/><path d="M521.897 641.115v-8.397c0-.649.526-1.175 1.175-1.175l2.989-.608c.65 0 1.176.526 1.176 1.175v8.397c0 .648-.526 1.175-1.176 1.175l-2.989.608a1.175 1.175 0 01-1.175-1.175" fill="url(#M)" transform="matrix(.6244 0 0 -.62815 -319.81 410.599)"/><path d="M521.626 644.607a3.176 3.176 0 016.354 0 3.177 3.177 0 01-6.354 0" fill="url(#N)" transform="matrix(.6244 0 0 -.62815 -319.81 410.599)"/><g clip-path="url(#O)" transform="matrix(.6244 0 0 -.62815 -319.81 410.599)"><g mask="url(#P)"><path d="M521.869 644.898c0-2.366 1.737-2.978 1.737-2.978-1.062 1.148-1.359 2.758-1.359 2.758-.109 2.419 2.556 2.994 2.556 2.994-2.872-.529-2.934-2.757-2.934-2.774" fill="url(#Q)"/></g></g><g clip-path="url(#R)" transform="matrix(.6244 0 0 -.62815 -319.81 410.599)"><g mask="url(#S)"><path d="M520.879 641.212s.014-5.815-.017-7.756c.062 1.965.296 8.273.763 8.464h-.001c-.036-.006-.663-.125-.745-.708m-.034-8.333c.007.086.012.288.017.577l-.017-.577" fill="url(#T)"/></g></g><path d="M521.897 632.718c0-.649.526-1.175 1.175-1.175l2.989-.608c.65 0 1.176.526 1.176 1.175v.916l-5.34.608z" fill="url(#U)" transform="matrix(.6244 0 0 -.62815 -319.81 410.599)"/><path d="M527.195 640.938a1.176 1.176 0 01-1.176-1.175v-8.126c0-.649.527-1.176 1.176-1.176h.083c.648 0 1.175.527 1.175 1.176v8.126c0 .649-.527 1.175-1.175 1.175z" fill="url(#V)" transform="matrix(.6244 0 0 -.62815 -319.81 410.599)"/><g clip-path="url(#W)" transform="matrix(.6244 0 0 -.62815 -319.81 410.599)"><g mask="url(#X)"><path d="M526.488 639.963s.014-5.829-.018-7.762c.062 1.956.297 8.286.764 8.47 0 0-.662-.108-.746-.708m-.034-8.334c.006.086.012.286.016.572l-.016-.572" fill="url(#Y)"/></g></g><path d="M526.019 631.843v-.206c0-.649.527-1.176 1.175-1.176h.084c.648 0 1.175.527 1.175 1.176v.206s-1.008-.939-2.434 0" fill="url(#Z)" transform="matrix(.6244 0 0 -.62815 -319.81 410.599)"/><path d="M524.803 620.958c0-.649.526-1.175 1.175-1.175h.084c.649 0 1.174.526 1.174 1.175v3.554c-1.694-.768-2.433.44-2.433.44z" fill="url(#aa)" transform="matrix(.6244 0 0 -.62815 -319.81 410.599)"/><path d="M521.897 621.904c0-.649.526-1.175 1.175-1.175h.083c.649 0 1.175.526 1.175 1.175v3.554c-1.696-.767-2.433.44-2.433.44z" fill="url(#ab)" transform="matrix(.6244 0 0 -.62815 -319.81 410.599)"/><g clip-path="url(#ac)" transform="matrix(.6244 0 0 -.62815 -319.81 410.599)"><g mask="url(#ad)"><path d="M522.055 627.907l-.003.504s-.002-.189.003-.504m.027-5.184c-.164-1.321.393-1.54.393-1.54.591-.291.861 0 .861 0-1.111.099-1.261 5.102-1.281 6.724z" fill="url(#ae)"/></g></g><g clip-path="url(#af)" transform="matrix(.6244 0 0 -.62815 -319.81 410.599)"><g mask="url(#ag)"><path d="M525.172 626.928l-.002.503s-.002-.188.002-.503m.028-5.186c-.165-1.319.393-1.539.393-1.539.591-.29.861 0 .861 0-1.111.099-1.263 5.102-1.282 6.725z" fill="url(#ah)"/></g></g><path d="M523.132 640.063c-.033-.252.11-.513.534-.712.24-.111.3-.171.287-.281-.013-.109-.104-.169-.304-.146a1.32 1.32 0 00-.555.227l-.172-.462c.152-.107.394-.196.674-.228.611-.069.959.187 1.004.585.033.314-.115.539-.505.725-.252.123-.328.185-.317.285.013.109.112.163.273.145.184-.021.359-.111.449-.175l.171.445c-.124.081-.34.163-.589.191a1.102 1.102 0 01-.149.009c-.449 0-.759-.249-.801-.608" fill="url(#ai)" transform="matrix(.6244 0 0 -.62815 -319.81 410.599)"/><g clip-path="url(#aj)" transform="matrix(.6244 0 0 -.62815 -319.81 410.599)"><g mask="url(#ak)"><path d="M522.353 640.846l-.301-7.613s-.154-1.581 1.051-1.384c-.111-.014-1.025-.012-.673 3.851 0 0 .547 6.515 3.381.451v1.746s-.141 2.05.141 2.664c-.224-.342-.983-1.358-2.037-1.277 0 0-1.448.134-1.562 1.562l.022.585a2.63 2.63 0 01-.022-.585m3.599-.285c.045.069.067.11.067.11a.433.433 0 01-.067-.11m-2.849-8.712a.04.04 0 01.011.001l-.011-.001" fill="url(#al)"/></g></g><g clip-path="url(#am)" transform="matrix(.6244 0 0 -.62815 -319.81 410.599)" fill="none" stroke-linejoin="round"><path d="M536.403 627.763c0-.649-.526-1.175-1.176-1.175h-.082c-.65 0-1.176.526-1.176 1.175v8.126c0 .65.527 1.175 1.176 1.175h.082c.65 0 1.176-.526 1.176-1.175z" stroke="#fff" stroke-width="2.64"/><path d="M540.526 635.517c0 .65-.527 1.175-1.176 1.175l-2.99.608a1.175 1.175 0 01-1.174-1.175v-8.396c0-.649.526-1.175 1.175-1.175l2.989-.608c.649 0 1.176.526 1.176 1.175z" stroke="#fff" stroke-width="2.64"/><path d="M541.269 639.618a3.177 3.177 0 10-6.354 0 3.177 3.177 0 006.354 0z" stroke="#fff" stroke-width="2.64"/><path d="M536.895 636.931s-1.738.612-1.738 2.977c0 0 .051 2.244 2.935 2.775 0 0-2.666-.575-2.556-2.995 0 0 .297-1.609 1.36-2.757zm-1.98 0s-.664-.108-.747-.708c0 0 .017-7.676-.034-8.334 0 0 .227 8.823.781 9.042zm4.185-3.466s-.162 1.987.209 2.337c0 0-.84-1.25-2.105-1.169 0 0-1.28.037-1.54 1.808l-.323-6.904s-.155-1.339 1.062-1.165c0 0-1.06-.219-.683 3.242 0 0 .547 5.488 3.38.38z" stroke="#fff" stroke-width="2.64"/><path d="M549.776 626.912c-1.527.253-3.796-1.958-3.796-1.958-.584 2.405-2.593 3.192-2.593 3.192-1.21-4.076 1.197-6.136 1.197-6.136.054-.026.104-.044.158-.068-.757-2.043-2.218-1.407-2.218-1.407-2 .577-2.016 4.232-2.004 4.84h.006v4.438l-5.34.556v-4.993h.001c.005-1.833.147-2.808.147-2.808.444-3.902 5.19-4.658 5.19-4.658 4.297-.56 5.457 2.178 5.77 3.698 2.968.136 3.482 5.304 3.482 5.304z" stroke="#fff" stroke-width="2.64"/><path d="M541.742 626.648c0-.65-.526-1.175-1.175-1.175h-.083c-.65 0-1.175.526-1.175 1.175v8.126c0 .649.526 1.175 1.175 1.175h.083c.649 0 1.175-.526 1.175-1.175z" stroke="#fff" stroke-width="2.64"/><path d="M540.524 635.682s-.664-.108-.747-.708c0 0 .018-7.676-.034-8.334 0 0 .228 8.823.78 9.042zm-5.076-5.649l.183-6.673s.071-2.352 1.69-3.667c0 0 1.555-1.393 3.948-1.65 0 0-3.07 1.02-3.73 2.068 0 0-1.06.646-1.136 3.836v5.903zm6.894-9.7s1.265-.348 2.053.715l.513.898s-1.54 1.173-1.66 2.904c-.008.128-.173 1.741.285 3.04 0 0-1.173-4.514 1.705-5.779 0 0-.623-1.247-1.081-1.522 0 0-1.063-.53-1.815-.256zm3.703 4.473s.257-.51.22-.704c0 0 2.035 2.702 3.373 2.684 0 0-1.192.257-3.593-1.98z" stroke="#fff" stroke-width="2.64"/><path d="M536.403 627.763c0-.649-.526-1.175-1.176-1.175h-.082c-.65 0-1.176.526-1.176 1.175v8.126c0 .65.527 1.175 1.176 1.175h.082c.65 0 1.176-.526 1.176-1.175z" stroke="#2c3792" stroke-width="1.32"/><path d="M540.526 635.517c0 .65-.527 1.175-1.176 1.175l-2.99.608a1.175 1.175 0 01-1.174-1.175v-8.396c0-.649.526-1.175 1.175-1.175l2.989-.608c.649 0 1.176.526 1.176 1.175z" stroke="#2c3792" stroke-width="1.32"/><path d="M541.269 639.618a3.177 3.177 0 10-6.354 0 3.177 3.177 0 006.354 0z" stroke="#2c3792" stroke-width="1.32"/><path d="M536.895 636.931s-1.738.612-1.738 2.977c0 0 .051 2.244 2.935 2.775 0 0-2.666-.575-2.556-2.995 0 0 .297-1.609 1.36-2.757zm-1.98 0s-.664-.108-.747-.708c0 0 .017-7.676-.034-8.334 0 0 .227 8.823.781 9.042zm4.185-3.466s-.162 1.987.209 2.337c0 0-.84-1.25-2.105-1.169 0 0-1.28.037-1.54 1.808l-.323-6.904s-.155-1.339 1.062-1.165c0 0-1.06-.219-.683 3.242 0 0 .547 5.488 3.38.38z" stroke="#2c3792" stroke-width="1.32"/><path d="M549.776 626.912c-1.527.253-3.796-1.958-3.796-1.958-.584 2.405-2.593 3.192-2.593 3.192-1.21-4.076 1.197-6.136 1.197-6.136.054-.026.104-.044.158-.068-.757-2.043-2.218-1.407-2.218-1.407-2 .577-2.016 4.232-2.004 4.84h.006v4.438l-5.34.556v-4.993h.001c.005-1.833.147-2.808.147-2.808.444-3.902 5.19-4.658 5.19-4.658 4.297-.56 5.457 2.178 5.77 3.698 2.968.136 3.482 5.304 3.482 5.304z" stroke="#2c3792" stroke-width="1.32"/><path d="M541.742 626.648c0-.65-.526-1.175-1.175-1.175h-.083c-.65 0-1.175.526-1.175 1.175v8.126c0 .649.526 1.175 1.175 1.175h.083c.649 0 1.175-.526 1.175-1.175z" stroke="#2c3792" stroke-width="1.32"/><path d="M540.524 635.682s-.664-.108-.747-.708c0 0 .018-7.676-.034-8.334 0 0 .228 8.823.78 9.042zm-5.076-5.649l.183-6.673s.071-2.352 1.69-3.667c0 0 1.555-1.393 3.948-1.65 0 0-3.07 1.02-3.73 2.068 0 0-1.06.646-1.136 3.836v5.903zm6.894-9.7s1.265-.348 2.053.715l.513.898s-1.54 1.173-1.66 2.904c-.008.128-.173 1.741.285 3.04 0 0-1.173-4.514 1.705-5.779 0 0-.623-1.247-1.081-1.522 0 0-1.063-.53-1.815-.256zm3.703 4.473s.257-.51.22-.704c0 0 2.035 2.702 3.373 2.684 0 0-1.192.257-3.593-1.98z" stroke="#2c3792" stroke-width="1.32"/></g><path d="M535.144 637.064a1.176 1.176 0 01-1.175-1.175v-8.126c0-.649.527-1.175 1.175-1.175h.083c.65 0 1.176.526 1.176 1.175v8.126c0 .649-.526 1.175-1.176 1.175z" fill="url(#an)" transform="matrix(.6244 0 0 -.62815 -319.81 410.599)"/><path d="M535.186 636.125v-8.396c0-.649.525-1.174 1.175-1.174l2.989-.609c.649 0 1.176.526 1.176 1.175v8.397c0 .648-.527 1.174-1.176 1.174l-2.989.609c-.65 0-1.175-.527-1.175-1.176" fill="url(#ao)" transform="matrix(.6244 0 0 -.62815 -319.81 410.599)"/><path d="M534.916 639.618a3.176 3.176 0 116.353 0 3.176 3.176 0 01-3.177 3.176 3.175 3.175 0 01-3.176-3.176" fill="url(#ap)" transform="matrix(.6244 0 0 -.62815 -319.81 410.599)"/><g clip-path="url(#aq)" transform="matrix(.6244 0 0 -.62815 -319.81 410.599)"><g mask="url(#ar)"><path d="M535.157 639.908c0-2.364 1.739-2.977 1.739-2.977-1.063 1.148-1.359 2.757-1.359 2.757-.111 2.42 2.555 2.995 2.555 2.995-2.872-.529-2.934-2.757-2.935-2.775" fill="url(#as)"/></g></g><g clip-path="url(#at)" transform="matrix(.6244 0 0 -.62815 -319.81 410.599)"><g mask="url(#au)"><path d="M534.169 636.223s.012-5.844-.018-7.77c.061 1.948.296 8.293.765 8.478 0 0-.664-.108-.747-.708m-.034-8.333c.006.084.011.282.016.563a34.508 34.508 0 01-.016-.563" fill="url(#av)"/></g></g><g clip-path="url(#aw)" transform="matrix(.6244 0 0 -.62815 -319.81 410.599)"><g mask="url(#ax)"><path d="M535.341 629.536s-.154-1.33 1.051-1.165c-.112-.011-1.025-.01-.672 3.243 0 0 .546 5.488 3.381.38v1.471s-.142 1.726.139 2.244c-.224-.287-.982-1.144-2.035-1.075 0 0-1.28.036-1.54 1.807zm3.899 6.173c.045.058.069.093.069.093a.409.409 0 01-.069-.093m-2.848-7.338a.12.12 0 01.011.002l-.011-.002" fill="url(#ay)"/></g></g><path d="M535.186 625.375h.001c.005-1.833.147-2.807.147-2.807.444-3.903 5.19-4.659 5.19-4.659 4.297-.559 5.456 2.178 5.771 3.699 2.967.136 3.482 5.304 3.482 5.304-1.529.252-3.797-1.958-3.797-1.958-.584 2.405-2.592 3.192-2.592 3.192-1.211-4.076 1.197-6.136 1.197-6.136.053-.026.104-.044.157-.068-.757-2.044-2.218-1.407-2.218-1.407-2 .577-2.016 4.232-2.004 4.84h.006v4.438l-5.34.556z" fill="url(#az)" transform="matrix(.6244 0 0 -.62815 -319.81 410.599)"/><path d="M540.483 635.948a1.174 1.174 0 01-1.174-1.174v-8.127c0-.648.525-1.175 1.174-1.175h.084c.649 0 1.174.527 1.174 1.175v8.127c0 .648-.525 1.174-1.174 1.174z" fill="url(#aA)" transform="matrix(.6244 0 0 -.62815 -319.81 410.599)"/><g clip-path="url(#aB)" transform="matrix(.6244 0 0 -.62815 -319.81 410.599)"><g mask="url(#aC)"><path d="M539.777 634.973s.013-5.843-.018-7.769c.061 1.946.296 8.285.764 8.478h-.001c-.037-.006-.664-.126-.745-.709m-.034-8.332c.006.085.012.281.016.563a58.289 58.289 0 01-.016-.563" fill="url(#aD)"/></g></g><g clip-path="url(#aE)" transform="matrix(.6244 0 0 -.62815 -319.81 410.599)"><g mask="url(#aF)"><path d="M535.448 630.033l.183-6.673s.071-2.351 1.691-3.667c0 0 1.554-1.393 3.946-1.65 0 0-3.07 1.019-3.73 2.068 0 0-1.061.646-1.135 3.836v5.903z" fill="url(#aG)"/></g></g><g clip-path="url(#aH)" transform="matrix(.6244 0 0 -.62815 -319.81 410.599)"><g mask="url(#aI)"><path d="M543.248 624.85c.12-1.73 1.66-2.903 1.66-2.903l-.513-.898c-.789-1.063-2.053-.716-2.053-.716.751-.274 1.814.257 1.814.257.459.275 1.082 1.522 1.082 1.522-2.878 1.264-1.705 5.777-1.705 5.777-.458-1.297-.294-2.91-.285-3.039" fill="url(#aJ)"/></g></g><g clip-path="url(#aK)" transform="matrix(.6244 0 0 -.62815 -319.81 410.599)"><g mask="url(#aL)"><path d="M546.044 624.807s.257-.511.221-.705c0 0 2.035 2.702 3.373 2.685 0 0-.041.009-.124.009-.363 0-1.516-.17-3.47-1.989" fill="url(#aM)"/></g></g><path d="M0 0s-5.613 0-5.613-5.613v-26.192s0-5.612 5.613-5.612h26.192s5.613 0 5.613 5.612v26.192S31.805 0 26.192 0z" fill="none" stroke="#231f20" stroke-width=".66" transform="matrix(.6244 0 0 -.62815 5.052 1.438)"/></svg>