<svg xmlns="http://www.w3.org/2000/svg" width="100" height="100" viewBox="0 0 26.458 26.458"><defs><clipPath id="e" clipPathUnits="userSpaceOnUse"><path d="M481.018 206.054l21.234-21.234-21.234-21.235-21.235 21.235z"/></clipPath><clipPath id="v" clipPathUnits="userSpaceOnUse"><path d="M473.933 202.287c-1.555-.246-4.799-1.268-4.799-5.536v-26.196c.001-.17.087-5.608 5.612-5.608h26.192s5.533 0 5.613 5.492v26.359c-.015.504-.262 4.853-4.524 5.489z"/></clipPath><clipPath id="y" clipPathUnits="userSpaceOnUse"><path d="M479.794 169.105c-1.267 0-2.77-2.134-3.539-4.158h24.015c-.77 2.024-2.273 4.158-3.54 4.158z"/></clipPath><clipPath id="A" clipPathUnits="userSpaceOnUse"><path d="M473.933 202.287c-1.555-.246-4.799-1.268-4.799-5.536v-26.196c.001-.17.087-5.608 5.612-5.608h26.192s5.534-.001 5.613 5.492v26.359c-.015.504-.263 4.853-4.524 5.489z"/></clipPath><clipPath id="B" clipPathUnits="userSpaceOnUse"><path d="M483.134 169.087c0-1.92 1.055-3.391 2.617-4.14h5.023c1.561.749 2.617 2.22 2.617 4.14a5.128 5.128 0 01-10.257 0"/></clipPath><clipPath id="D" clipPathUnits="userSpaceOnUse"><path d="M473.933 202.287c-1.555-.246-4.799-1.268-4.799-5.536v-26.196c.001-.17.087-5.608 5.612-5.608h26.192s5.534-.001 5.613 5.492v26.359c-.015.504-.263 4.853-4.524 5.489z"/></clipPath><clipPath id="E" clipPathUnits="userSpaceOnUse"><path d="M498.809 164.947h2.129s3.905 0 5.201 3.256a4.576 4.576 0 01-7.33-3.256"/></clipPath><clipPath id="G" clipPathUnits="userSpaceOnUse"><path d="M473.933 202.287c-1.555-.246-4.799-1.268-4.799-5.536v-26.196c.001-.17.087-5.608 5.612-5.608h26.192s5.534-.001 5.613 5.492v26.359c-.015.504-.263 4.853-4.524 5.489z"/></clipPath><clipPath id="H" clipPathUnits="userSpaceOnUse"><path d="M469.685 168.079c.642-1.503 2.037-3.132 5.061-3.132h2.384a4.574 4.574 0 01-4.557 4.158 4.56 4.56 0 01-2.888-1.026"/></clipPath><clipPath id="J" clipPathUnits="userSpaceOnUse"><path d="M473.933 202.287c-1.555-.246-4.799-1.268-4.799-5.536v-26.196c.001-.17.087-5.608 5.612-5.608h26.192s5.534-.001 5.613 5.492v26.359c-.015.504-.263 4.853-4.524 5.489z"/></clipPath><clipPath id="K" clipPathUnits="userSpaceOnUse"><path d="M471.381 165.907c.802-.572 1.889-.96 3.365-.96h1.143a2.872 2.872 0 01-2.611 1.674 2.862 2.862 0 01-1.897-.714"/></clipPath><clipPath id="M" clipPathUnits="userSpaceOnUse"><path d="M473.933 202.287c-1.555-.246-4.799-1.268-4.799-5.536v-26.196c.001-.17.087-5.608 5.612-5.608h26.192s5.534-.001 5.613 5.492v26.359c-.015.504-.263 4.853-4.524 5.489z"/></clipPath><clipPath id="b" clipPathUnits="userSpaceOnUse"><path d="M471.39 170.133l3.2-3.2-3.2-3.2-3.2 3.2z"/></clipPath><clipPath id="a" clipPathUnits="userSpaceOnUse"><path d="M-13948.7 14582.2h28835.2v-28835.1h-28835.2z"/></clipPath><clipPath id="N" clipPathUnits="userSpaceOnUse"><path d="M470.094 167.289c.209-.333.462-.658.77-.953 1.049 1.167 2.414 1.874 2.414 1.874-.21.024-.41.036-.601.036-1.15 0-1.984-.417-2.583-.957"/></clipPath><clipPath id="t" clipPathUnits="userSpaceOnUse"><path d="M472.348 166.951l1.488-1.489-1.488-1.488-1.489 1.488z"/></clipPath><clipPath id="s" clipPathUnits="userSpaceOnUse"><path d="M-32768 32767h65535v-65535h-65535z"/></clipPath><clipPath id="Q" clipPathUnits="userSpaceOnUse"><path d="M471.89 165.591c.135-.072.276-.14.425-.202.461.369.963.621.963.621a2.27 2.27 0 01-.215.01c-.499 0-.882-.175-1.173-.429"/></clipPath><clipPath id="q" clipPathUnits="userSpaceOnUse"><path d="M501.399 166.755l1.303-1.303-1.303-1.303-1.303 1.303z"/></clipPath><clipPath id="p" clipPathUnits="userSpaceOnUse"><path d="M-13948.7 14582.2h28835.2v-28835.1h-28835.2z"/></clipPath><clipPath id="T" clipPathUnits="userSpaceOnUse"><path d="M502.123 166.02c-.71 0-1.173-.602-1.426-1.073h.241s.103 0 .28.013c.395.605.915 1.06.915 1.06z"/></clipPath><clipPath id="n" clipPathUnits="userSpaceOnUse"><path d="M501.806 170.429l3.404-3.404-3.404-3.404-3.404 3.404z"/></clipPath><clipPath id="m" clipPathUnits="userSpaceOnUse"><path d="M-13948.7 14582.2h28835.2v-28835.1h-28835.2z"/></clipPath><clipPath id="W" clipPathUnits="userSpaceOnUse"><path d="M499.791 165.636c1.984 2.778 4.03 2.609 4.03 2.609-.333.087-.64.127-.924.127-2.375-.001-3.106-2.736-3.106-2.736"/></clipPath><clipPath id="k" clipPathUnits="userSpaceOnUse"><path d="M480.664 170.81l4.219-4.219-4.219-4.218-4.218 4.218z"/></clipPath><clipPath id="j" clipPathUnits="userSpaceOnUse"><path d="M-13948.7 14582.2h28835.2v-28835.1h-28835.2z"/></clipPath><clipPath id="Z" clipPathUnits="userSpaceOnUse"><path d="M478.153 166.621c.638-.034 2.387-.792 4.225-1.674h.709c-4.093 2.925-.899 3.298-.899 3.298a7.054 7.054 0 01-.85.053c-2.638 0-3.185-1.677-3.185-1.677"/></clipPath><clipPath id="h" clipPathUnits="userSpaceOnUse"><path d="M484.79 171.253l3.597-3.597-3.597-3.597-3.597 3.597z"/></clipPath><clipPath id="g" clipPathUnits="userSpaceOnUse"><path d="M-13948.7 14582.2h28835.2v-28835.1h-28835.2z"/></clipPath><clipPath id="ac" clipPathUnits="userSpaceOnUse"><path d="M486.366 165.636s-1.894 2.594-1.166 3.5l-1.032.541s-.954-2.07 2.198-4.041"/></clipPath><clipPath id="af" clipPathUnits="userSpaceOnUse"><path d="M477.149 187.962c0-8.764 4.976-19.358 11.113-19.358 6.138 0 11.113 10.594 11.113 19.358 0 8.764-4.975 12.378-11.113 12.378-6.137 0-11.113-3.614-11.113-12.378"/></clipPath><clipPath id="x" clipPathUnits="userSpaceOnUse"><path d="M473.933 202.287c-1.555-.246-4.799-1.268-4.799-5.536v-26.196c.001-.17.087-5.608 5.612-5.608h26.192s5.534-.001 5.613 5.492v26.359c-.015.504-.263 4.853-4.524 5.489z"/></clipPath><clipPath id="d" clipPathUnits="userSpaceOnUse"><path d="M-13948.7 14582.2h28835.2v-28835.1h-28835.2z"/></clipPath><clipPath id="ai" clipPathUnits="userSpaceOnUse"><path d="M478.716 186.103c.052-8.96 7.137-15.693 7.137-15.693-11.66 18.406 1.989 28.819 1.989 28.819-6.298-.879-9.178-4.168-9.126-13.126"/></clipPath><clipPath id="ah" clipPathUnits="userSpaceOnUse"><path d="M473.933 202.287c-1.555-.246-4.799-1.268-4.799-5.536v-26.196c.001-.17.087-5.608 5.612-5.608h26.192s5.534-.001 5.613 5.492v26.359c-.015.504-.263 4.853-4.524 5.489z"/></clipPath><linearGradient id="ab" spreadMethod="pad" gradientTransform="scale(10.17535 -10.17535) rotate(45 43.508 48.614)" gradientUnits="userSpaceOnUse" y2="0" x2="1" y1="0" x1="0"><stop offset="0" stop-color="#fff"/><stop offset="1" stop-color="#fff"/></linearGradient><linearGradient id="w" spreadMethod="pad" gradientTransform="scale(52.91647 -52.91647) rotate(45 9.048 8.79)" gradientUnits="userSpaceOnUse" y2="0" x2="1" y1="0" x1="0"><stop offset="0" stop-color="#50ade5"/><stop offset="1" stop-color="#fff"/></linearGradient><linearGradient id="C" spreadMethod="pad" gradientTransform="matrix(10.25592 0 0 -10.25592 483.134 169.306)" gradientUnits="userSpaceOnUse" y2="0" x2="1" y1="0" x1="0"><stop offset="0" stop-color="#fbcec5"/><stop offset="1" stop-color="#bb8661"/></linearGradient><linearGradient id="F" spreadMethod="pad" gradientTransform="matrix(9.15142 0 0 -9.15142 498.793 164.756)" gradientUnits="userSpaceOnUse" y2="0" x2="1" y1="0" x1="0"><stop offset="0" stop-color="#fbcec5"/><stop offset="1" stop-color="#bb8661"/></linearGradient><linearGradient id="I" spreadMethod="pad" gradientTransform="rotate(180 238.575 82.362) scale(9.15185)" gradientUnits="userSpaceOnUse" y2="0" x2="1" y1="0" x1="0"><stop offset="0" stop-color="#bb8661"/><stop offset="1" stop-color="#fbcec5"/></linearGradient><linearGradient id="L" spreadMethod="pad" gradientTransform="matrix(5.74746 0 0 -5.74746 470.404 163.747)" gradientUnits="userSpaceOnUse" y2="0" x2="1" y1="0" x1="0"><stop offset="0" stop-color="#fbcec5"/><stop offset="1" stop-color="#bb8661"/></linearGradient><linearGradient id="f" spreadMethod="pad" gradientTransform="scale(21.4739 -21.4739) rotate(45 22.004 22.39)" gradientUnits="userSpaceOnUse" y2="0" x2="1" y1="0" x1="0"><stop offset="0" stop-color="#fff"/><stop offset="1" stop-opacity="0" stop-color="#fff"/></linearGradient><linearGradient id="ak" spreadMethod="pad" gradientTransform="scale(21.4739 -21.4739) rotate(45 22.004 22.39)" gradientUnits="userSpaceOnUse" y2="0" x2="1" y1="0" x1="0"><stop offset="0" stop-color="#fff"/><stop offset="1" stop-color="#fff"/></linearGradient><linearGradient id="ag" spreadMethod="pad" gradientTransform="matrix(22.22563 0 0 -22.22563 477.15 184.472)" gradientUnits="userSpaceOnUse" y2="0" x2="1" y1="0" x1="0"><stop offset="0" stop-color="#fbcec5"/><stop offset="1" stop-color="#bb8661"/></linearGradient><linearGradient id="P" spreadMethod="pad" gradientTransform="scale(2.6619 -2.6619) rotate(45 164.1 181.725)" gradientUnits="userSpaceOnUse" y2="0" x2="1" y1="0" x1="0"><stop offset="0" stop-color="#fff"/><stop offset="1" stop-color="#fff"/></linearGradient><linearGradient id="i" spreadMethod="pad" gradientTransform="scale(4.41329 -4.41329) rotate(45 101.106 113.14)" gradientUnits="userSpaceOnUse" y2="0" x2="1" y1="0" x1="0"><stop offset="0" stop-color="#fff"/><stop offset="1" stop-opacity="0" stop-color="#fff"/></linearGradient><linearGradient id="ae" spreadMethod="pad" gradientTransform="scale(4.41329 -4.41329) rotate(45 101.106 113.14)" gradientUnits="userSpaceOnUse" y2="0" x2="1" y1="0" x1="0"><stop offset="0" stop-color="#fff"/><stop offset="1" stop-color="#fff"/></linearGradient><linearGradient id="c" spreadMethod="pad" gradientTransform="scale(2.6619 -2.6619) rotate(45 164.1 181.725)" gradientUnits="userSpaceOnUse" y2="0" x2="1" y1="0" x1="0"><stop offset="0" stop-color="#fff"/><stop offset="1" stop-opacity="0" stop-color="#fff"/></linearGradient><linearGradient id="l" spreadMethod="pad" gradientTransform="scale(10.17535 -10.17535) rotate(45 43.508 48.614)" gradientUnits="userSpaceOnUse" y2="0" x2="1" y1="0" x1="0"><stop offset="0" stop-color="#fff"/><stop offset="1" stop-opacity="0" stop-color="#fff"/></linearGradient><linearGradient id="z" spreadMethod="pad" gradientTransform="matrix(25.0304 0 0 -25.0304 475.747 158.109)" gradientUnits="userSpaceOnUse" y2="0" x2="1" y1="0" x1="0"><stop offset="0" stop-color="#fbcec5"/><stop offset="1" stop-color="#bb8661"/></linearGradient><linearGradient id="o" spreadMethod="pad" gradientTransform="scale(1.56276 -1.56276) rotate(45 289.838 333.373)" gradientUnits="userSpaceOnUse" y2="0" x2="1" y1="0" x1="0"><stop offset="0" stop-color="#fff"/><stop offset="1" stop-opacity="0" stop-color="#fff"/></linearGradient><linearGradient id="Y" spreadMethod="pad" gradientTransform="scale(1.56276 -1.56276) rotate(45 289.838 333.373)" gradientUnits="userSpaceOnUse" y2="0" x2="1" y1="0" x1="0"><stop offset="0" stop-color="#fff"/><stop offset="1" stop-color="#fff"/></linearGradient><linearGradient id="r" spreadMethod="pad" gradientTransform="scale(1.03038 -1.03038) rotate(45 436.84 506.624)" gradientUnits="userSpaceOnUse" y2="0" x2="1" y1="0" x1="0"><stop offset="0" stop-color="#fff"/><stop offset="1" stop-opacity="0" stop-color="#fff"/></linearGradient><linearGradient id="V" spreadMethod="pad" gradientTransform="scale(1.03038 -1.03038) rotate(45 436.84 506.624)" gradientUnits="userSpaceOnUse" y2="0" x2="1" y1="0" x1="0"><stop offset="0" stop-color="#fff"/><stop offset="1" stop-color="#fff"/></linearGradient><linearGradient id="u" spreadMethod="pad" gradientTransform="scale(1.20398 -1.20398) rotate(45 361.661 404.206)" gradientUnits="userSpaceOnUse" y2="0" x2="1" y1="0" x1="0"><stop offset="0" stop-color="#fff"/><stop offset="1" stop-opacity="0" stop-color="#fff"/></linearGradient><linearGradient id="S" spreadMethod="pad" gradientTransform="scale(1.20398 -1.20398) rotate(45 361.661 404.206)" gradientUnits="userSpaceOnUse" y2="0" x2="1" y1="0" x1="0"><stop offset="0" stop-color="#fff"/><stop offset="1" stop-color="#fff"/></linearGradient><mask id="O" height="1" width="1" y="0" x="0" maskUnits="userSpaceOnUse"><g clip-path="url(#a)"><g clip-path="url(#b)"><path d="M471.39 170.133l3.2-3.2-3.2-3.2-3.2 3.2z" fill="url(#c)"/></g></g></mask><mask id="aj" height="1" width="1" y="0" x="0" maskUnits="userSpaceOnUse"><g clip-path="url(#d)"><g clip-path="url(#e)"><path d="M481.018 206.054l21.234-21.234-21.234-21.235-21.235 21.235z" fill="url(#f)"/></g></g></mask><mask id="ad" height="1" width="1" y="0" x="0" maskUnits="userSpaceOnUse"><g clip-path="url(#g)"><g clip-path="url(#h)"><path d="M484.79 171.253l3.597-3.597-3.597-3.597-3.597 3.597z" fill="url(#i)"/></g></g></mask><mask id="aa" height="1" width="1" y="0" x="0" maskUnits="userSpaceOnUse"><g clip-path="url(#j)"><g clip-path="url(#k)"><path d="M480.664 170.81l4.219-4.219-4.219-4.218-4.218 4.218z" fill="url(#l)"/></g></g></mask><mask id="X" height="1" width="1" y="0" x="0" maskUnits="userSpaceOnUse"><g clip-path="url(#m)"><g clip-path="url(#n)"><path d="M501.806 170.429l3.404-3.404-3.404-3.404-3.404 3.404z" fill="url(#o)"/></g></g></mask><mask id="U" height="1" width="1" y="0" x="0" maskUnits="userSpaceOnUse"><g clip-path="url(#p)"><g clip-path="url(#q)"><path d="M501.399 166.755l1.303-1.303-1.303-1.303-1.303 1.303z" fill="url(#r)"/></g></g></mask><mask id="R" height="1" width="1" y="0" x="0" maskUnits="userSpaceOnUse"><g clip-path="url(#s)"><g clip-path="url(#t)"><path d="M472.348 166.951l1.488-1.489-1.488-1.488-1.489 1.488z" fill="url(#u)"/></g></g></mask></defs><g clip-path="url(#v)" transform="matrix(.62536 0 0 -.62538 -291.849 128.083)"><path d="M473.933 202.287c-1.555-.246-4.799-1.268-4.799-5.536v-26.196c.001-.17.087-5.608 5.612-5.608h26.192s5.533 0 5.613 5.492v26.359c-.015.504-.262 4.853-4.524 5.489z" fill="url(#w)"/></g><g clip-path="url(#x)" transform="matrix(.62536 0 0 -.62538 -291.849 128.083)" fill="none" stroke="#fff" stroke-width="2.64"><path d="M500.777 151.958c0-2.19-2.33-4.845-4.117-4.845h-16.796c-1.788 0-4.118 2.655-4.118 4.845v10.705c0 2.19 2.26 6.443 4.048 6.443h16.935c1.79 0 4.048-4.253 4.048-6.443z"/><path d="M493.39 169.087c0-2.832-2.296-4.69-5.128-4.69-2.832 0-5.128 1.858-5.128 4.69a5.128 5.128 0 0010.256 0z"/><path d="M478.716 165.635l9.546-4.568 9.53 4.568m10.153-1.075c0-2.527-2.048-4.184-4.576-4.184-2.528 0-4.575 1.657-4.575 4.184a4.575 4.575 0 109.15 0z"/><path d="M505.538 163.778a2.874 2.874 0 10-5.748 0 2.874 2.874 0 005.748 0zm-37.54.752c0-2.528 2.049-4.185 4.576-4.185 2.528 0 4.576 1.657 4.576 4.184a4.576 4.576 0 11-9.152 0z"/><path d="M470.404 163.747a2.874 2.874 0 115.748.002 2.874 2.874 0 01-5.748-.002z"/><path d="M468.694 164.892s.808 3.758 4.584 3.318c0 0-4.071-2.11-3.557-5.052zm2.292-1.145s.304 2.452 2.292 2.263c0 0-2.457-1.237-1.504-2.232zm29.474.651s.5 1.633 1.674 1.623c0 0-1.357-1.19-1.357-2.274zm-.669 1.237s.917 3.43 4.03 2.61c0 0-2.046.17-4.03-2.61zm-21.637.986s.66 2.027 4.033 1.624c0 0-5.037-.589 5.656-6.085 0 0-8.136 4.379-9.69 4.461zm6.013 3.056s-.953-2.07 2.2-4.041c0 0-1.896 2.594-1.168 3.5z"/><path d="M499.375 187.962c0-8.763-4.976-19.358-11.113-19.358s-11.113 10.595-11.113 19.358c0 8.764 4.976 12.378 11.113 12.378s11.113-3.614 11.113-12.378zm-11.113 8.935V170.05m8.702 11.997h-16.997"/><path d="M485.853 170.41s-7.085 6.734-7.137 15.693c-.052 8.959 2.828 12.247 9.126 13.127 0 0-13.649-10.414-1.989-28.82zm2.401-10.034v-6.398s6.896 9.618 9.405 10.42z"/></g><g clip-path="url(#y)" transform="matrix(.62536 0 0 -.62538 -291.849 128.083)"><path d="M479.794 169.105c-1.267 0-2.77-2.134-3.539-4.158h24.015c-.77 2.024-2.273 4.158-3.54 4.158z" fill="url(#z)"/></g><g clip-path="url(#A)" transform="matrix(.62536 0 0 -.62538 -291.849 128.083)"><path d="M500.777 151.958c0-2.19-2.33-4.845-4.117-4.845h-16.796c-1.788 0-4.118 2.655-4.118 4.845v10.705c0 2.19 2.26 6.443 4.048 6.443h16.935c1.79 0 4.048-4.253 4.048-6.443z" fill="none" stroke="#6f4324" stroke-width=".88"/></g><g clip-path="url(#B)" transform="matrix(.62536 0 0 -.62538 -291.849 128.083)"><path d="M483.134 169.087c0-1.92 1.055-3.391 2.617-4.14h5.023c1.561.749 2.617 2.22 2.617 4.14a5.128 5.128 0 01-10.257 0" fill="url(#C)"/></g><g clip-path="url(#D)" transform="matrix(.62536 0 0 -.62538 -291.849 128.083)" fill="none" stroke="#6f4324"><path d="M493.39 169.087c0-2.832-2.296-4.69-5.128-4.69-2.832 0-5.128 1.858-5.128 4.69a5.128 5.128 0 0010.256 0z" stroke-width=".88"/><path d="M478.716 165.635l9.546-4.568 9.53 4.568" stroke-width=".44"/></g><g clip-path="url(#E)" transform="matrix(.62536 0 0 -.62538 -291.849 128.083)"><path d="M498.809 164.947h2.129s3.905 0 5.201 3.256a4.576 4.576 0 01-7.33-3.256" fill="url(#F)"/></g><g clip-path="url(#G)" transform="matrix(.62536 0 0 -.62538 -291.849 128.083)" fill="none" stroke="#6f4324"><path d="M507.945 164.56c0-2.527-2.048-4.184-4.576-4.184-2.528 0-4.575 1.657-4.575 4.184a4.575 4.575 0 109.15 0z" stroke-width=".88"/><path d="M505.538 163.778a2.874 2.874 0 10-5.748 0 2.874 2.874 0 005.748 0z" stroke-width=".44"/></g><g clip-path="url(#H)" transform="matrix(.62536 0 0 -.62538 -291.849 128.083)"><path d="M469.685 168.079c.642-1.503 2.037-3.132 5.061-3.132h2.384a4.574 4.574 0 01-4.557 4.158 4.56 4.56 0 01-2.888-1.026" fill="url(#I)"/></g><g clip-path="url(#J)" transform="matrix(.62536 0 0 -.62538 -291.849 128.083)"><path d="M467.998 164.53c0-2.528 2.049-4.185 4.576-4.185 2.528 0 4.576 1.657 4.576 4.184a4.576 4.576 0 11-9.152 0z" fill="none" stroke="#6f4324" stroke-width=".88"/></g><g clip-path="url(#K)" transform="matrix(.62536 0 0 -.62538 -291.849 128.083)"><path d="M471.381 165.907c.802-.572 1.889-.96 3.365-.96h1.143a2.872 2.872 0 01-2.611 1.674 2.862 2.862 0 01-1.897-.714" fill="url(#L)"/></g><g clip-path="url(#M)" transform="matrix(.62536 0 0 -.62538 -291.849 128.083)"><path d="M470.404 163.747a2.874 2.874 0 115.748.002 2.874 2.874 0 01-5.748-.002z" fill="none" stroke="#6f4324" stroke-width=".44"/></g><g clip-path="url(#N)" transform="matrix(.62536 0 0 -.62538 -291.849 128.083)"><g mask="url(#O)"><path d="M470.094 167.289c.209-.333.462-.658.77-.953 1.049 1.167 2.414 1.874 2.414 1.874-.21.024-.41.036-.601.036-1.15 0-1.984-.417-2.583-.957" fill="url(#P)"/></g></g><g clip-path="url(#Q)" transform="matrix(.62536 0 0 -.62538 -291.849 128.083)"><g mask="url(#R)"><path d="M471.89 165.591c.135-.072.276-.14.425-.202.461.369.963.621.963.621a2.27 2.27 0 01-.215.01c-.499 0-.882-.175-1.173-.429" fill="url(#S)"/></g></g><g clip-path="url(#T)" transform="matrix(.62536 0 0 -.62538 -291.849 128.083)"><g mask="url(#U)"><path d="M502.123 166.02c-.71 0-1.173-.602-1.426-1.073h.241s.103 0 .28.013c.395.605.915 1.06.915 1.06z" fill="url(#V)"/></g></g><g clip-path="url(#W)" transform="matrix(.62536 0 0 -.62538 -291.849 128.083)"><g mask="url(#X)"><path d="M499.791 165.636c1.984 2.778 4.03 2.609 4.03 2.609-.333.087-.64.127-.924.127-2.375-.001-3.106-2.736-3.106-2.736" fill="url(#Y)"/></g></g><g clip-path="url(#Z)" transform="matrix(.62536 0 0 -.62538 -291.849 128.083)"><g mask="url(#aa)"><path d="M478.153 166.621c.638-.034 2.387-.792 4.225-1.674h.709c-4.093 2.925-.899 3.298-.899 3.298a7.054 7.054 0 01-.85.053c-2.638 0-3.185-1.677-3.185-1.677" fill="url(#ab)"/></g></g><g clip-path="url(#ac)" transform="matrix(.62536 0 0 -.62538 -291.849 128.083)"><g mask="url(#ad)"><path d="M486.366 165.636s-1.894 2.594-1.166 3.5l-1.032.541s-.954-2.07 2.198-4.041" fill="url(#ae)"/></g></g><g clip-path="url(#af)" transform="matrix(.62536 0 0 -.62538 -291.849 128.083)"><path d="M477.149 187.962c0-8.764 4.976-19.358 11.113-19.358 6.138 0 11.113 10.594 11.113 19.358 0 8.764-4.975 12.378-11.113 12.378-6.137 0-11.113-3.614-11.113-12.378" fill="url(#ag)"/></g><g clip-path="url(#ah)" transform="matrix(.62536 0 0 -.62538 -291.849 128.083)" fill="none" stroke="#6f4324"><path d="M499.375 187.962c0-8.763-4.976-19.358-11.113-19.358s-11.113 10.595-11.113 19.358c0 8.764 4.976 12.378 11.113 12.378s11.113-3.614 11.113-12.378z" stroke-width=".88"/><path d="M488.262 196.897V170.05m8.702 11.997h-16.997" stroke-width=".44" stroke-linecap="round"/></g><g clip-path="url(#ai)" transform="matrix(.62536 0 0 -.62538 -291.849 128.083)"><g mask="url(#aj)"><path d="M478.716 186.103c.052-8.96 7.137-15.693 7.137-15.693-11.66 18.406 1.989 28.819 1.989 28.819-6.298-.879-9.178-4.168-9.126-13.126" fill="url(#ak)"/></g></g><path d="M0 0s-5.613 0-5.613-5.613v-26.192s0-5.612 5.613-5.612h26.192s5.613 0 5.613 5.612v26.192S31.805 0 26.192 0z" fill="none" stroke="#231f20" stroke-width=".66" transform="matrix(.62536 0 0 -.62538 5.04 1.53)"/></svg>