<svg xmlns="http://www.w3.org/2000/svg" width="100" height="100" viewBox="0 0 26.458 26.458"><defs><linearGradient id="p" spreadMethod="pad" gradientTransform="matrix(1.72647 0 0 -1.72647 206.314 45.302)" gradientUnits="userSpaceOnUse" y2="0" x2="1" y1="0" x1="0"><stop offset="0" stop-opacity="0" stop-color="#fff"/><stop offset="1" stop-color="#fff"/></linearGradient><linearGradient id="J" spreadMethod="pad" gradientTransform="matrix(4.50524 0 0 -4.50524 201.223 44.022)" gradientUnits="userSpaceOnUse" y2="0" x2="1" y1="0" x1="0"><stop offset="0" stop-color="#5a3114"/><stop offset="1" stop-color="#855333"/></linearGradient><linearGradient id="A" spreadMethod="pad" gradientTransform="matrix(0 37.41734 37.41734 0 192.87 30.244)" gradientUnits="userSpaceOnUse" y2="0" x2="1" y1="0" x1="0"><stop offset="0" stop-color="#2ba543"/><stop offset=".5" stop-color="#b0e6fa"/><stop offset="1" stop-color="#b0e6fa"/></linearGradient><linearGradient id="B" spreadMethod="pad" gradientTransform="scale(12.96228 -12.96228) rotate(45 11.35 17.393)" gradientUnits="userSpaceOnUse" y2="0" x2="1" y1="0" x1="0"><stop offset="0" stop-color="#d3d2d2"/><stop offset="1" stop-color="#7b7979"/></linearGradient><linearGradient id="C" spreadMethod="pad" gradientTransform="scale(23.1974 -23.1974) rotate(-43.386 2.208 -11.112)" gradientUnits="userSpaceOnUse" y2="0" x2="1" y1="0" x1="0"><stop offset="0" stop-color="#ede098"/><stop offset="1" stop-color="#fef4b5"/></linearGradient><linearGradient id="D" spreadMethod="pad" gradientTransform="scale(13.37264 -13.37264) rotate(-32.661 1.816 -24.15)" gradientUnits="userSpaceOnUse" y2="0" x2="1" y1="0" x1="0"><stop offset="0" stop-color="#b5a860"/><stop offset="1" stop-color="#d2c996"/></linearGradient><linearGradient id="I" spreadMethod="pad" gradientTransform="scale(1.71386 -1.71386) rotate(68.135 79.655 71.247)" gradientUnits="userSpaceOnUse" y2="0" x2="1" y1="0" x1="0"><stop offset="0" stop-color="#231f20"/><stop offset="1" stop-color="#fff"/></linearGradient><linearGradient id="G" spreadMethod="pad" gradientTransform="scale(-2.7555 2.7555) rotate(-68.199 -20.46 58.39)" gradientUnits="userSpaceOnUse" y2="0" x2="1" y1="0" x1="0"><stop offset="0" stop-color="#231f20"/><stop offset="1" stop-color="#fff"/></linearGradient><linearGradient id="N" spreadMethod="pad" gradientTransform="matrix(6.6283 0 0 -6.6283 180.766 40.935)" gradientUnits="userSpaceOnUse" y2="0" x2="1" y1="0" x1="0"><stop offset="0" stop-color="#8e7458"/><stop offset="1" stop-color="#8e7458"/></linearGradient><linearGradient id="n" spreadMethod="pad" gradientTransform="matrix(6.62831 0 0 -6.62831 180.766 40.935)" gradientUnits="userSpaceOnUse" y2="0" x2="1" y1="0" x1="0"><stop offset="0" stop-opacity=".3" stop-color="#fff"/><stop offset="1" stop-opacity="0" stop-color="#fff"/></linearGradient><linearGradient id="f" spreadMethod="pad" gradientTransform="matrix(3.56122 0 0 -3.56122 183.898 61.926)" gradientUnits="userSpaceOnUse" y2="0" x2="1" y1="0" x1="0"><stop offset="0" stop-opacity="0" stop-color="#fff"/><stop offset="1" stop-color="#fff"/></linearGradient><linearGradient id="aD" spreadMethod="pad" gradientTransform="matrix(3.56122 0 0 -3.56122 183.898 61.926)" gradientUnits="userSpaceOnUse" y2="0" x2="1" y1="0" x1="0"><stop offset="0" stop-color="#fff"/><stop offset="1" stop-color="#fff"/></linearGradient><linearGradient id="h" spreadMethod="pad" gradientTransform="matrix(5.51134 0 0 -5.51134 192.87 44.654)" gradientUnits="userSpaceOnUse" y2="0" x2="1" y1="0" x1="0"><stop offset="0" stop-opacity="0" stop-color="#fff"/><stop offset="1" stop-color="#fff"/></linearGradient><linearGradient id="aA" spreadMethod="pad" gradientTransform="matrix(5.51135 0 0 -5.51135 192.87 44.654)" gradientUnits="userSpaceOnUse" y2="0" x2="1" y1="0" x1="0"><stop offset="0" stop-color="#fff"/><stop offset="1" stop-color="#fff"/></linearGradient><linearGradient id="R" spreadMethod="pad" gradientTransform="matrix(1.72647 0 0 -1.72647 206.314 45.302)" gradientUnits="userSpaceOnUse" y2="0" x2="1" y1="0" x1="0"><stop offset="0" stop-color="#fff"/><stop offset="1" stop-color="#fff"/></linearGradient><linearGradient id="j" spreadMethod="pad" gradientTransform="matrix(7.10418 0 0 -7.10418 190.45 35.067)" gradientUnits="userSpaceOnUse" y2="0" x2="1" y1="0" x1="0"><stop offset="0" stop-opacity=".3" stop-color="#fff"/><stop offset="1" stop-opacity="0" stop-color="#fff"/></linearGradient><linearGradient id="aw" spreadMethod="pad" gradientTransform="matrix(7.10418 0 0 -7.10418 190.45 35.067)" gradientUnits="userSpaceOnUse" y2="0" x2="1" y1="0" x1="0"><stop offset="0" stop-color="#fff"/><stop offset="1" stop-color="#fff"/></linearGradient><linearGradient id="t" spreadMethod="pad" gradientTransform="matrix(18.53422 0 0 -18.53422 190.45 54.565)" gradientUnits="userSpaceOnUse" y2="0" x2="1" y1="0" x1="0"><stop offset="0" stop-color="#fff"/><stop offset="1" stop-opacity="0" stop-color="#fff"/></linearGradient><linearGradient id="l" spreadMethod="pad" gradientTransform="matrix(5.66388 0 0 -5.66388 181.457 45.154)" gradientUnits="userSpaceOnUse" y2="0" x2="1" y1="0" x1="0"><stop offset="0" stop-color="#fff"/><stop offset="1" stop-opacity="0" stop-color="#fff"/></linearGradient><linearGradient id="at" spreadMethod="pad" gradientTransform="matrix(5.66388 0 0 -5.66388 181.457 45.154)" gradientUnits="userSpaceOnUse" y2="0" x2="1" y1="0" x1="0"><stop offset="0" stop-color="#fff"/><stop offset="1" stop-color="#fff"/></linearGradient><linearGradient id="b" spreadMethod="pad" gradientTransform="matrix(1.54966 0 0 -1.54966 187.192 57.19)" gradientUnits="userSpaceOnUse" y2="0" x2="1" y1="0" x1="0"><stop offset="0" stop-opacity="0" stop-color="#fff"/><stop offset="1" stop-color="#fff"/></linearGradient><linearGradient id="aq" spreadMethod="pad" gradientTransform="matrix(1.54966 0 0 -1.54966 187.192 57.19)" gradientUnits="userSpaceOnUse" y2="0" x2="1" y1="0" x1="0"><stop offset="0" stop-color="#fff"/><stop offset="1" stop-color="#fff"/></linearGradient><linearGradient id="r" spreadMethod="pad" gradientTransform="matrix(15.28988 0 0 -15.28988 177.424 54.564)" gradientUnits="userSpaceOnUse" y2="0" x2="1" y1="0" x1="0"><stop offset="0" stop-opacity=".5" stop-color="#fff"/><stop offset="1" stop-opacity="0" stop-color="#fff"/></linearGradient><linearGradient id="am" spreadMethod="pad" gradientTransform="matrix(15.28988 0 0 -15.28988 177.424 54.564)" gradientUnits="userSpaceOnUse" y2="0" x2="1" y1="0" x1="0"><stop offset="0" stop-color="#730b0e"/><stop offset="1" stop-color="#730b0e"/></linearGradient><linearGradient id="ai" spreadMethod="pad" gradientTransform="matrix(16.39331 0 0 -16.39331 176.885 54.565)" gradientUnits="userSpaceOnUse" y2="0" x2="1" y1="0" x1="0"><stop offset="0" stop-color="#730b0e"/><stop offset="1" stop-color="#c0161c"/></linearGradient><linearGradient id="ae" spreadMethod="pad" gradientTransform="matrix(19.73282 0 0 -19.73282 190.1 54.565)" gradientUnits="userSpaceOnUse" y2="0" x2="1" y1="0" x1="0"><stop offset="0" stop-color="#c0161c"/><stop offset="1" stop-color="#ef2e32"/></linearGradient><linearGradient id="U" spreadMethod="pad" gradientTransform="matrix(5.66668 0 0 -5.66668 192.714 44.76)" gradientUnits="userSpaceOnUse" y2="0" x2="1" y1="0" x1="0"><stop offset="0" stop-color="#fff"/><stop offset="1" stop-color="#fff"/></linearGradient><linearGradient id="v" spreadMethod="pad" gradientTransform="matrix(10.99992 0 0 -10.99992 178.78 41.57)" gradientUnits="userSpaceOnUse" y2="0" x2="1" y1="0" x1="0"><stop offset="0" stop-opacity=".3" stop-color="#fff"/><stop offset="1" stop-opacity="0" stop-color="#fff"/></linearGradient><linearGradient id="ad" spreadMethod="pad" gradientTransform="matrix(10.99992 0 0 -10.99992 178.78 41.57)" gradientUnits="userSpaceOnUse" y2="0" x2="1" y1="0" x1="0"><stop offset="0" stop-color="#8e7458"/><stop offset="1" stop-color="#8e7458"/></linearGradient><linearGradient id="z" spreadMethod="pad" gradientTransform="matrix(5.66668 0 0 -5.66668 192.714 44.76)" gradientUnits="userSpaceOnUse" y2="0" x2="1" y1="0" x1="0"><stop offset="0" stop-opacity="0" stop-color="#fff"/><stop offset="1" stop-color="#fff"/></linearGradient><linearGradient id="x" spreadMethod="pad" gradientTransform="matrix(3.90067 0 0 -3.90067 203.768 37.068)" gradientUnits="userSpaceOnUse" y2="0" x2="1" y1="0" x1="0"><stop offset="0" stop-opacity="0" stop-color="#fff"/><stop offset=".584" stop-opacity=".584" stop-color="#fff"/><stop offset="1" stop-color="#fff"/></linearGradient><linearGradient id="aa" spreadMethod="pad" gradientTransform="matrix(3.90067 0 0 -3.90067 203.768 37.068)" gradientUnits="userSpaceOnUse" y2="0" x2="1" y1="0" x1="0"><stop offset="0" stop-color="#c97224"/><stop offset=".584" stop-color="#c97224"/><stop offset="1" stop-color="#c97224"/></linearGradient><linearGradient id="d" spreadMethod="pad" gradientTransform="matrix(3.95997 0 0 -3.95997 201.587 44.783)" gradientUnits="userSpaceOnUse" y2="0" x2="1" y1="0" x1="0"><stop offset="0" stop-opacity="0" stop-color="#fff"/><stop offset=".584" stop-opacity=".584" stop-color="#fff"/><stop offset="1" stop-color="#fff"/></linearGradient><linearGradient id="X" spreadMethod="pad" gradientTransform="matrix(3.95997 0 0 -3.95997 201.587 44.783)" gradientUnits="userSpaceOnUse" y2="0" x2="1" y1="0" x1="0"><stop offset="0" stop-color="#c97224"/><stop offset=".584" stop-color="#c97224"/><stop offset="1" stop-color="#c97224"/></linearGradient><linearGradient id="ah" spreadMethod="pad" gradientTransform="matrix(18.53422 0 0 -18.53422 190.45 54.565)" gradientUnits="userSpaceOnUse" y2="0" x2="1" y1="0" x1="0"><stop offset="0" stop-color="#fff"/><stop offset="1" stop-color="#fff"/></linearGradient><clipPath id="H" clipPathUnits="userSpaceOnUse"><path d="M190.3 53.782h18.045v-9.056H190.3z"/></clipPath><clipPath id="F" clipPathUnits="userSpaceOnUse"><path d="M178.32 51.442h11.98v-7.869h-11.98z"/></clipPath><clipPath id="E" clipPathUnits="userSpaceOnUse"><path d="M179.773 67.661s-5.612 0-5.612-5.612V35.853c.001-.17.087-5.609 5.612-5.609h26.192s5.613 0 5.613 5.613v26.192s0 5.612-5.613 5.612z"/></clipPath><clipPath id="K" clipPathUnits="userSpaceOnUse"><path d="M179.773 67.661s-5.612 0-5.612-5.612V35.853c.001-.17.087-5.609 5.612-5.609h26.192s5.613 0 5.613 5.613v26.192s0 5.612-5.613 5.612z"/></clipPath><clipPath id="m" clipPathUnits="userSpaceOnUse"><path d="M-14243.7 14447.6h28835.2v-28835.2h-28835.2z"/></clipPath><clipPath id="L" clipPathUnits="userSpaceOnUse"><path d="M180.766 42.09l6.628-2.658v.557l-6.093 2.45z"/></clipPath><clipPath id="af" clipPathUnits="userSpaceOnUse"><path d="M190.45 46.641l18.534 7.48-15.481 8.368s15.49-8.324-3.053-15.848"/></clipPath><clipPath id="O" clipPathUnits="userSpaceOnUse"><path d="M179.773 67.661s-5.612 0-5.612-5.612V35.853c.001-.17.087-5.609 5.612-5.609h26.192s5.613 0 5.613 5.613v26.192s0 5.612-5.613 5.612z"/></clipPath><clipPath id="o" clipPathUnits="userSpaceOnUse"><path d="M-32768 32767h65535v-65535h-65535z"/></clipPath><clipPath id="P" clipPathUnits="userSpaceOnUse"><path d="M208.04 51.091c-.007-2.01-.128-11.016-1.726-11.974l1.726.872v11.498z"/></clipPath><clipPath id="y" clipPathUnits="userSpaceOnUse"><path d="M-32768 32767h65535v-65535h-65535z"/></clipPath><clipPath id="S" clipPathUnits="userSpaceOnUse"><path d="M192.897 44.992c5.498 2.19 5.39-2.702 5.39-2.702l.094 4.94zm-.183-.074l.183.074c-.061-.023-.122-.049-.183-.074"/></clipPath><clipPath id="c" clipPathUnits="userSpaceOnUse"><path d="M-32768 32767h65535v-65535h-65535z"/></clipPath><clipPath id="V" clipPathUnits="userSpaceOnUse"><path d="M201.587 48.665c3.794 1.347 3.955-8.745 3.96-9.216l-.109 10.686zm3.96-9.231v.015zm0-.002v.002z"/></clipPath><clipPath id="w" clipPathUnits="userSpaceOnUse"><path d="M-14243.7 14447.6h28835.2v-28835.2h-28835.2z"/></clipPath><clipPath id="Y" clipPathUnits="userSpaceOnUse"><path d="M203.774 35.708l3.895 1.573-1.437 1.148c1.418-1.128-2.287-2.651-2.458-2.721m-.006-.001l.006.001z"/></clipPath><clipPath id="u" clipPathUnits="userSpaceOnUse"><path d="M-32768 32767h65535v-65535h-65535z"/></clipPath><clipPath id="ab" clipPathUnits="userSpaceOnUse"><path d="M178.781 37.417l10.998-4.222c-.098.039-10.998 4.412-10.998 16.749z"/></clipPath><clipPath id="aj" clipPathUnits="userSpaceOnUse"><path d="M179.773 67.661s-5.612 0-5.612-5.612V35.853c.001-.17.087-5.609 5.612-5.609h26.192s5.613 0 5.613 5.613v26.192s0 5.612-5.613 5.612z"/></clipPath><clipPath id="q" clipPathUnits="userSpaceOnUse"><path d="M-32768 32767h65535v-65535h-65535z"/></clipPath><clipPath id="ak" clipPathUnits="userSpaceOnUse"><path d="M192.703 62.338a.046.046 0 01.011.007zm-15.279-10.851l12.165-4.63c-11.965 4.639 2.67 15.164 3.114 15.481zm12.356-4.703l-.191.073.191-.073"/></clipPath><clipPath id="an" clipPathUnits="userSpaceOnUse"><path d="M179.773 67.661s-5.612 0-5.612-5.612V35.853c.001-.17.087-5.609 5.612-5.609h26.192s5.613 0 5.613 5.613v26.192s0 5.612-5.613 5.612z"/></clipPath><clipPath id="a" clipPathUnits="userSpaceOnUse"><path d="M-14243.7 14447.6h28835.2v-28835.2h-28835.2z"/></clipPath><clipPath id="ao" clipPathUnits="userSpaceOnUse"><path d="M187.193 57.8c1.52.6 1.549-1.837 1.549-1.837v2.454z"/></clipPath><clipPath id="k" clipPathUnits="userSpaceOnUse"><path d="M-14243.7 14447.6h28835.2v-28835.2h-28835.2z"/></clipPath><clipPath id="ar" clipPathUnits="userSpaceOnUse"><path d="M181.457 42.691c0 4.809 5.268 2.771 5.643 2.62l-5.643 2.304zm5.664 2.611l-.021.009a.178.178 0 01.021-.009"/></clipPath><clipPath id="i" clipPathUnits="userSpaceOnUse"><path d="M-32768 32767h65535v-65535h-65535z"/></clipPath><clipPath id="au" clipPathUnits="userSpaceOnUse"><path d="M190.45 32.718l7.103 2.796c-.067-.026-7.103-2.763-7.103 1.903zm7.103 2.796h.001z"/></clipPath><clipPath id="ax" clipPathUnits="userSpaceOnUse"><path d="M179.773 67.661s-5.612 0-5.612-5.612V35.853c.001-.17.087-5.609 5.612-5.609h26.192s5.613 0 5.613 5.613v26.192s0 5.612-5.613 5.612z"/></clipPath><clipPath id="g" clipPathUnits="userSpaceOnUse"><path d="M-14243.7 14447.6h28835.2v-28835.2h-28835.2z"/></clipPath><clipPath id="ay" clipPathUnits="userSpaceOnUse"><path d="M192.869 45.044c4.857 1.837 5.434-1.754 5.503-2.586l-.251 4.56zm5.512-2.754s-.001.061-.009.168z"/></clipPath><clipPath id="e" clipPathUnits="userSpaceOnUse"><path d="M-32768 32767h65535v-65535h-65535z"/></clipPath><clipPath id="aB" clipPathUnits="userSpaceOnUse"><path d="M184.043 63.656c.697.655 1.109.235 1.109.235.502-.297.309-.95.281-1.038.049.118.384.088.384.088.807-.42-.379-1.151-.379-1.151.497.083 1.295-.379 1.295-.379.403-.571-.745-.27-.745-.27.297-.142.047-1.033.047-1.033-.622-.749-.816.555-.816.555-1.42-1.203-1.31-.068-1.31-.068-.143-1.21 1.269-.235 1.269-.235.025-.975.573-.849.573-.849.918.236.536 1.405.536 1.405.825-.556 1.169.143 1.169.143.075.781-1.106 1.029-1.106 1.029s-.004.004.03.029c.033.025 1.033.16.546 1.034-.487.875-1.068.202-1.068.202.05.479-.016.958-.823.993h-.054c-.762 0-.938-.69-.938-.69m1.387-.813l.003.01-.003-.01"/></clipPath><clipPath id="s" clipPathUnits="userSpaceOnUse"><path d="M-32768 32767h65535v-65535h-65535z"/></clipPath><mask id="M" height="1" width="1" y="0" x="0" maskUnits="userSpaceOnUse"><g clip-path="url(#m)"><path d="M180.766 42.439h6.628v-3.007h-6.628z" fill="url(#n)"/></g></mask><mask id="ap" height="1" width="1" y="0" x="0" maskUnits="userSpaceOnUse"><g clip-path="url(#a)"><path d="M187.192 58.417h1.55v-2.454h-1.55z" fill="url(#b)"/></g></mask><mask id="aC" height="1" width="1" y="0" x="0" maskUnits="userSpaceOnUse"><g clip-path="url(#e)"><path d="M183.765 64.346h3.766V59.36h-3.766z" fill="url(#f)"/></g></mask><mask id="az" height="1" width="1" y="0" x="0" maskUnits="userSpaceOnUse"><g clip-path="url(#g)"><path d="M192.869 47.018h5.511v-4.727h-5.511z" fill="url(#h)"/></g></mask><mask id="av" height="1" width="1" y="0" x="0" maskUnits="userSpaceOnUse"><g clip-path="url(#i)"><path d="M190.45 37.417h7.104v-4.699h-7.104z" fill="url(#j)"/></g></mask><mask id="as" height="1" width="1" y="0" x="0" maskUnits="userSpaceOnUse"><g clip-path="url(#k)"><path d="M181.457 47.616h5.664v-4.924h-5.664z" fill="url(#l)"/></g></mask><mask id="W" height="1" width="1" y="0" x="0" maskUnits="userSpaceOnUse"><g clip-path="url(#c)"><path d="M201.587 50.135h3.96V39.433h-3.96z" fill="url(#d)"/></g></mask><mask id="Q" height="1" width="1" y="0" x="0" maskUnits="userSpaceOnUse"><g clip-path="url(#o)"><path d="M206.314 51.488h1.727V39.117h-1.727z" fill="url(#p)"/></g></mask><mask id="al" height="1" width="1" y="0" x="0" maskUnits="userSpaceOnUse"><g clip-path="url(#q)"><path d="M177.424 62.345h15.29V46.784h-15.29z" fill="url(#r)"/></g></mask><mask id="ag" height="1" width="1" y="0" x="0" maskUnits="userSpaceOnUse"><g clip-path="url(#s)"><path d="M190.45 62.489h18.544V46.64H190.45z" fill="url(#t)"/></g></mask><mask id="ac" height="1" width="1" y="0" x="0" maskUnits="userSpaceOnUse"><g clip-path="url(#u)"><path d="M178.781 49.944h11V33.195h-11z" fill="url(#v)"/></g></mask><mask id="Z" height="1" width="1" y="0" x="0" maskUnits="userSpaceOnUse"><g clip-path="url(#w)"><path d="M203.768 38.429h3.901v-2.722h-3.901z" fill="url(#x)"/></g></mask><mask id="T" height="1" width="1" y="0" x="0" maskUnits="userSpaceOnUse"><g clip-path="url(#y)"><path d="M192.714 47.23h5.681v-4.94h-5.681z" fill="url(#z)"/></g></mask></defs><path d="M179.773 67.661s-5.612 0-5.612-5.612V35.853c.001-.17.087-5.609 5.612-5.609h26.192s5.613 0 5.613 5.613v26.192s0 5.612-5.613 5.612z" fill="url(#A)" transform="matrix(.60783 0 0 -.6013 -104.322 42.084)"/><path d="M0 0c.889-.441 3.642-2.512 5.961-2.885.005-1.569 0-3.538 0-3.538l-.22-3.119s-3.675-.412-3.773-.403c-.098.01-4.217 0-4.217 0s.944 4.376-2.843 7.901z" fill="none" stroke="#fff" stroke-width="1.32" stroke-linecap="round" stroke-linejoin="round" transform="matrix(.60783 0 0 -.6013 21.082 18.778)"/><path d="M0 0l-18.045-7.237V7.008L0 14.245z" fill="none" stroke="#fff" stroke-width="1.32" stroke-linecap="round" stroke-linejoin="round" transform="matrix(.60783 0 0 -.6013 22.316 18.289)"/><path d="M0 0l11.981-4.847V9.398L0 14.245z" fill="none" stroke="#fff" stroke-width="1.32" stroke-linecap="round" stroke-linejoin="round" transform="matrix(.60783 0 0 -.6013 4.066 19.7)"/><path d="M0 0v-2.988l11.981-4.881v3.049z" fill="none" stroke="#fff" stroke-width="1.32" stroke-linecap="round" stroke-linejoin="round" transform="matrix(.60783 0 0 -.6013 4.066 11.152)"/><path d="M0 0l18.045 7.304v1.752L0 1.855" fill="none" stroke="#fff" stroke-width="1.32" stroke-linecap="round" stroke-linejoin="round" transform="matrix(.60783 0 0 -.6013 11.348 15.19)"/><path d="M0 0l4.505 1.811V-9.587L0-11.399z" fill="none" stroke="#fff" stroke-width="1.32" stroke-linecap="round" stroke-linejoin="round" transform="matrix(.60783 0 0 -.6013 17.987 12.73)"/><path d="M0 0l6.093 2.449v-5.493L0-5.493z" fill="none" stroke="#fff" stroke-width="1.32" stroke-linecap="round" stroke-linejoin="round" transform="matrix(.60783 0 0 -.6013 12.644 14.925)"/><path d="M0 0l-.535-.214v-5.488L0-6.05z" fill="none" stroke="#fff" stroke-width="1.32" stroke-linecap="round" stroke-linejoin="round" transform="matrix(.60783 0 0 -.6013 16.672 13.327)"/><path d="M0 0l6.628 2.658-.535.348L0 .557z" fill="none" stroke="#fff" stroke-width="1.32" stroke-linecap="round" stroke-linejoin="round" transform="matrix(.60783 0 0 -.6013 12.644 18.563)"/><path d="M0 0l5.092 2.044-.587.47L0 .701z" fill="none" stroke="#fff" stroke-width="1.32" stroke-linecap="round" stroke-linejoin="round" transform="matrix(.60783 0 0 -.6013 17.987 20.007)"/><path d="M0 0l4.048 1.624v.129L2.493 2.857l-4.045-1.499V1.23z" fill="none" stroke="#fff" stroke-width="1.32" stroke-linecap="round" stroke-linejoin="round" transform="matrix(.60783 0 0 -.6013 19.532 20.729)"/><path d="M0 0l4.048 1.624-1.555 1.233-4.045-1.627z" fill="none" stroke="#fff" stroke-width="1.32" stroke-linecap="round" stroke-linejoin="round" transform="matrix(.60783 0 0 -.6013 19.532 20.652)"/><path d="M0 0l-6.093 2.449v-5.492L0-5.493z" fill="none" stroke="#fff" stroke-width="1.32" stroke-linecap="round" stroke-linejoin="round" transform="matrix(.60783 0 0 -.6013 9.582 14.735)"/><path d="M0 0l-6.628 2.658.535.349L0 .557z" fill="none" stroke="#fff" stroke-width="1.32" stroke-linecap="round" stroke-linejoin="round" transform="matrix(.60783 0 0 -.6013 9.582 18.373)"/><path d="M0 0v-.323l13.214-5.322v.329z" fill="none" stroke="#fff" stroke-width="1.32" stroke-linecap="round" stroke-linejoin="round" transform="matrix(.60783 0 0 -.6013 3.194 11.124)"/><path d="M0 0v-.329l19.733 7.94v.264z" fill="none" stroke="#fff" stroke-width="1.32" stroke-linecap="round" stroke-linejoin="round" transform="matrix(.60783 0 0 -.6013 11.226 14.321)"/><path d="M0 0l1.726.872V12.37S1.799 1.079 0 0z" fill="none" stroke="#fff" stroke-width="1.32" stroke-linecap="round" stroke-linejoin="round" transform="matrix(.60783 0 0 -.6013 21.082 18.563)"/><path d="M0 0l5.667 2.312-.094-4.94S5.683 2.373 0 0z" fill="none" stroke="#fff" stroke-width="1.32" stroke-linecap="round" stroke-linejoin="round" transform="matrix(.60783 0 0 -.6013 12.815 15.075)"/><path d="M0 0l3.85 1.47.11-10.702S3.884 1.379 0 0z" fill="none" stroke="#fff" stroke-width="1.32" stroke-linecap="round" stroke-linejoin="round" transform="matrix(.60783 0 0 -.6013 18.208 12.822)"/><path d="M0 0l1.437-1.148-3.901-1.574S1.451-1.155 0 0z" fill="none" stroke="#fff" stroke-width="1.32" stroke-linecap="round" stroke-linejoin="round" transform="matrix(.60783 0 0 -.6013 21.032 18.976)"/><path d="M0 0v-12.527l11-4.222S0-12.393 0 0z" fill="none" stroke="#fff" stroke-width="1.32" stroke-linecap="round" stroke-linejoin="round" transform="matrix(.60783 0 0 -.6013 4.346 12.052)"/><path d="M0 0l16.554-8.798-19.733-7.875z" fill="none" stroke="#fff" stroke-width="1.32" stroke-linecap="round" stroke-linejoin="round" transform="matrix(.60783 0 0 -.6013 13.158 4.26)"/><path d="M0 0l18.534 7.48-15.481 8.369S18.544 7.524 0 0z" fill="none" stroke="#fff" stroke-width="1.32" stroke-linecap="round" stroke-linejoin="round" transform="matrix(.60783 0 0 -.6013 11.439 14.039)"/><path d="M0 0l-3.179-16.673-13.214 5.259z" fill="none" stroke="#fff" stroke-width="1.32" stroke-linecap="round" stroke-linejoin="round" transform="matrix(.60783 0 0 -.6013 13.158 4.26)"/><path d="M0 0s-1.421-.77-1.256.44c-1.238-.083-1.712 1.045-.471 1.512-1.537.715-.052 2.063.581 1.596 0 .935 2.117 1.182 2.035-.083.797.66 1.732-1.272.687-1.53C2.924 1.678 2.629-.082 1.319.577 1.714-.632.124-1.458 0 0z" fill="none" stroke="#fff" stroke-width="1.32" stroke-linecap="round" stroke-linejoin="round" transform="matrix(.60783 0 0 -.6013 8.176 5.907)"/><path d="M0 0l-12.356 4.703L2.933 15.561S-12.5 4.671 0 0z" fill="none" stroke="#fff" stroke-width="1.32" stroke-linecap="round" stroke-linejoin="round" transform="matrix(.60783 0 0 -.6013 11.032 13.953)"/><path d="M0 0l1.538-.622v4.457L0 4.457z" fill="none" stroke="#fff" stroke-width="1.32" stroke-linecap="round" stroke-linejoin="round" transform="matrix(.60783 0 0 -.6013 8.48 9.604)"/><path d="M0 0l-1.681-2.568v4.464L0 2.57z" fill="none" stroke="#fff" stroke-width="1.32" stroke-linecap="round" stroke-linejoin="round" transform="matrix(.60783 0 0 -.6013 10.437 8.434)"/><path d="M0 0l1.682.681L3.219.059 1.538-.623z" fill="none" stroke="#fff" stroke-width="1.32" stroke-linecap="round" stroke-linejoin="round" transform="matrix(.60783 0 0 -.6013 8.48 6.924)"/><path d="M0 0l1.258.51L2.41.044l-1.259-.51z" fill="none" stroke="#fff" stroke-width="1.32" stroke-linecap="round" stroke-linejoin="round" transform="matrix(.60783 0 0 -.6013 8.727 6.92)"/><path d="M0 0v-.932l-.107-.043-1.151.465z" fill="none" stroke="#fff" stroke-width="1.32" stroke-linecap="round" stroke-linejoin="round" transform="matrix(.60783 0 0 -.6013 9.492 6.613)"/><path d="M0 0l1.55.617v-2.454S1.521.6 0 0z" fill="none" stroke="#fff" stroke-width="1.32" stroke-linecap="round" stroke-linejoin="round" transform="matrix(.60783 0 0 -.6013 9.459 7.328)"/><path d="M0 0v4.924l5.664-2.313S0 4.986 0 0z" fill="none" stroke="#fff" stroke-width="1.32" stroke-linecap="round" stroke-linejoin="round" transform="matrix(.60783 0 0 -.6013 5.973 16.413)"/><path d="M0 0v-4.699l7.104 2.797S0-4.688 0 0z" fill="none" stroke="#fff" stroke-width="1.32" stroke-linecap="round" stroke-linejoin="round" transform="matrix(.60783 0 0 -.6013 11.439 19.585)"/><path d="M0 0l-.655.264v5.492L0 5.493z" fill="none" stroke="#fff" stroke-width="1.32" stroke-linecap="round" stroke-linejoin="round" transform="matrix(.60783 0 0 -.6013 7.876 17.36)"/><path d="M0 0l-.655-.264V5.23L0 5.493z" fill="none" stroke="#fff" stroke-width="1.32" stroke-linecap="round" stroke-linejoin="round" transform="matrix(.60783 0 0 -.6013 14.783 17.377)"/><path d="M0 0v-.698l-6.093-2.319v.634z" fill="none" stroke="#fff" stroke-width="1.32" stroke-linecap="round" stroke-linejoin="round" transform="matrix(.60783 0 0 -.6013 16.347 14.897)"/><path d="M0 0v-.698l6.093-2.319v.634z" fill="none" stroke="#fff" stroke-width="1.32" stroke-linecap="round" stroke-linejoin="round" transform="matrix(.60783 0 0 -.6013 5.878 14.711)"/><path d="M0 0c.889-.441 2.98-2.213 5.3-2.586-3.828-2.607-4.485-3.98-7.56-5.82 0 0 .6 2.766-2.832 6.362z" fill="none" stroke="#6a5e50" stroke-width=".44" stroke-linecap="round" stroke-linejoin="round" transform="matrix(.60783 0 0 -.6013 21.082 18.778)"/><path d="M0 0l-18.045-7.237V7.008L0 14.245z" fill="none" stroke="#6a5e50" stroke-width=".44" stroke-linecap="round" stroke-linejoin="round" transform="matrix(.60783 0 0 -.6013 22.316 18.289)"/><path d="M0 0l11.981-4.847V9.398L0 14.245z" fill="none" stroke="#6a5e50" stroke-width=".44" stroke-linecap="round" stroke-linejoin="round" transform="matrix(.60783 0 0 -.6013 4.066 19.7)"/><path d="M0 0v-2.988l11.981-4.881v3.049z" fill="none" stroke="#6a5e50" stroke-width=".44" stroke-linecap="round" stroke-linejoin="round" transform="matrix(.60783 0 0 -.6013 4.066 11.152)"/><path d="M0 0l18.045 7.304v1.752L0 1.855" fill="none" stroke="#6a5e50" stroke-width=".44" stroke-linecap="round" stroke-linejoin="round" transform="matrix(.60783 0 0 -.6013 11.348 15.19)"/><path d="M0 0l4.505 1.811V-9.587L0-11.399z" fill="none" stroke="#6a5e50" stroke-width=".44" stroke-linecap="round" stroke-linejoin="round" transform="matrix(.60783 0 0 -.6013 17.987 12.73)"/><path d="M0 0l6.093 2.449v-5.493L0-5.493z" fill="none" stroke="#6a5e50" stroke-width=".44" stroke-linecap="round" stroke-linejoin="round" transform="matrix(.60783 0 0 -.6013 12.644 14.925)"/><path d="M0 0l-.535-.214v-5.488L0-6.05z" fill="none" stroke="#6a5e50" stroke-width=".44" stroke-linecap="round" stroke-linejoin="round" transform="matrix(.60783 0 0 -.6013 16.672 13.327)"/><path d="M0 0l6.628 2.658-.535.348L0 .557z" fill="none" stroke="#6a5e50" stroke-width=".44" stroke-linecap="round" stroke-linejoin="round" transform="matrix(.60783 0 0 -.6013 12.644 18.563)"/><path d="M0 0l5.092 2.044-.587.47L0 .701z" fill="none" stroke="#6a5e50" stroke-width=".44" stroke-linecap="round" stroke-linejoin="round" transform="matrix(.60783 0 0 -.6013 17.987 20.007)"/><path d="M0 0l4.048 1.624v.129L2.493 2.857l-4.045-1.499V1.23z" fill="none" stroke="#6a5e50" stroke-width=".44" stroke-linecap="round" stroke-linejoin="round" transform="matrix(.60783 0 0 -.6013 19.532 20.729)"/><path d="M0 0l4.048 1.624-1.555 1.233-4.045-1.627z" fill="none" stroke="#6a5e50" stroke-width=".44" stroke-linecap="round" stroke-linejoin="round" transform="matrix(.60783 0 0 -.6013 19.532 20.652)"/><path d="M0 0l-6.093 2.449v-5.492L0-5.493z" fill="none" stroke="#6a5e50" stroke-width=".44" stroke-linecap="round" stroke-linejoin="round" transform="matrix(.60783 0 0 -.6013 9.582 14.735)"/><path d="M0 0l-6.628 2.658.535.349L0 .557z" fill="none" stroke="#6a5e50" stroke-width=".44" stroke-linecap="round" stroke-linejoin="round" transform="matrix(.60783 0 0 -.6013 9.582 18.373)"/><path d="M0 0v-.323l13.214-5.322v.329z" fill="none" stroke="#6a5e50" stroke-width=".44" stroke-linecap="round" stroke-linejoin="round" transform="matrix(.60783 0 0 -.6013 3.194 11.124)"/><path d="M0 0v-.329l19.733 7.94v.264z" fill="none" stroke="#6a5e50" stroke-width=".44" stroke-linecap="round" stroke-linejoin="round" transform="matrix(.60783 0 0 -.6013 11.226 14.321)"/><path d="M0 0l1.726.872V12.37S1.799 1.079 0 0z" fill="none" stroke="#6a5e50" stroke-width=".44" stroke-linecap="round" stroke-linejoin="round" transform="matrix(.60783 0 0 -.6013 21.082 18.563)"/><path d="M0 0l5.667 2.312-.094-4.94S5.683 2.373 0 0z" fill="none" stroke="#6a5e50" stroke-width=".44" stroke-linecap="round" stroke-linejoin="round" transform="matrix(.60783 0 0 -.6013 12.815 15.075)"/><path d="M0 0l3.85 1.47.11-10.702S3.884 1.379 0 0z" fill="none" stroke="#6a5e50" stroke-width=".44" stroke-linecap="round" stroke-linejoin="round" transform="matrix(.60783 0 0 -.6013 18.208 12.822)"/><path d="M0 0l1.437-1.148-3.901-1.574S1.451-1.155 0 0z" fill="none" stroke="#6a5e50" stroke-width=".44" stroke-linecap="round" stroke-linejoin="round" transform="matrix(.60783 0 0 -.6013 21.032 18.976)"/><path d="M0 0v-12.527l11-4.222S0-12.393 0 0z" fill="none" stroke="#6a5e50" stroke-width=".44" stroke-linecap="round" stroke-linejoin="round" transform="matrix(.60783 0 0 -.6013 4.346 12.052)"/><path d="M0 0l16.554-8.798-19.733-7.875z" fill="none" stroke="#6a5e50" stroke-width=".44" stroke-linecap="round" stroke-linejoin="round" transform="matrix(.60783 0 0 -.6013 13.158 4.26)"/><path d="M0 0l18.534 7.48-15.481 8.369S18.544 7.524 0 0z" fill="none" stroke="#6a5e50" stroke-width=".44" stroke-linecap="round" stroke-linejoin="round" transform="matrix(.60783 0 0 -.6013 11.439 14.039)"/><path d="M0 0l-3.179-16.673-13.214 5.259z" fill="none" stroke="#6a5e50" stroke-width=".44" stroke-linecap="round" stroke-linejoin="round" transform="matrix(.60783 0 0 -.6013 13.158 4.26)"/><path d="M0 0s-1.421-.77-1.256.44c-1.238-.083-1.712 1.045-.471 1.512-1.537.715-.052 2.063.581 1.596 0 .935 2.117 1.182 2.035-.083.797.66 1.732-1.272.687-1.53C2.924 1.678 2.629-.082 1.319.577 1.714-.632.124-1.458 0 0z" fill="none" stroke="#6a5e50" stroke-width=".44" stroke-linecap="round" stroke-linejoin="round" transform="matrix(.60783 0 0 -.6013 8.176 5.907)"/><path d="M0 0l-12.356 4.703L2.933 15.561S-12.5 4.671 0 0z" fill="none" stroke="#6a5e50" stroke-width=".44" stroke-linecap="round" stroke-linejoin="round" transform="matrix(.60783 0 0 -.6013 11.032 13.953)"/><path d="M0 0l1.538-.622v4.457L0 4.457z" fill="none" stroke="#6a5e50" stroke-width=".44" stroke-linecap="round" stroke-linejoin="round" transform="matrix(.60783 0 0 -.6013 8.48 9.604)"/><path d="M0 0l-1.681-2.568v4.464L0 2.57z" fill="none" stroke="#6a5e50" stroke-width=".44" stroke-linecap="round" stroke-linejoin="round" transform="matrix(.60783 0 0 -.6013 10.437 8.434)"/><path d="M0 0l1.682.681L3.219.059 1.538-.623z" fill="none" stroke="#6a5e50" stroke-width=".44" stroke-linecap="round" stroke-linejoin="round" transform="matrix(.60783 0 0 -.6013 8.48 6.924)"/><path d="M0 0l1.258.51L2.41.044l-1.259-.51z" fill="none" stroke="#6a5e50" stroke-width=".44" stroke-linecap="round" stroke-linejoin="round" transform="matrix(.60783 0 0 -.6013 8.727 6.92)"/><path d="M0 0v-.932l-.107-.043-1.151.465z" fill="none" stroke="#6a5e50" stroke-width=".44" stroke-linecap="round" stroke-linejoin="round" transform="matrix(.60783 0 0 -.6013 9.492 6.613)"/><path d="M0 0l1.55.617v-2.454S1.521.6 0 0z" fill="none" stroke="#6a5e50" stroke-width=".44" stroke-linecap="round" stroke-linejoin="round" transform="matrix(.60783 0 0 -.6013 9.459 7.328)"/><path d="M0 0v4.924l5.664-2.313S0 4.986 0 0z" fill="none" stroke="#6a5e50" stroke-width=".44" stroke-linecap="round" stroke-linejoin="round" transform="matrix(.60783 0 0 -.6013 5.973 16.413)"/><path d="M0 0v-4.699l7.104 2.797S0-4.688 0 0z" fill="none" stroke="#6a5e50" stroke-width=".44" stroke-linecap="round" stroke-linejoin="round" transform="matrix(.60783 0 0 -.6013 11.439 19.585)"/><path d="M0 0l-.655.264v5.492L0 5.493z" fill="none" stroke="#6a5e50" stroke-width=".44" stroke-linecap="round" stroke-linejoin="round" transform="matrix(.60783 0 0 -.6013 7.876 17.36)"/><path d="M0 0l-.655-.264V5.23L0 5.493z" fill="none" stroke="#6a5e50" stroke-width=".44" stroke-linecap="round" stroke-linejoin="round" transform="matrix(.60783 0 0 -.6013 14.783 17.377)"/><path d="M0 0v-.698l-6.093-2.319v.634z" fill="none" stroke="#6a5e50" stroke-width=".44" stroke-linecap="round" stroke-linejoin="round" transform="matrix(.60783 0 0 -.6013 16.347 14.897)"/><path d="M0 0v-.698l6.093-2.319v.634z" fill="none" stroke="#6a5e50" stroke-width=".44" stroke-linecap="round" stroke-linejoin="round" transform="matrix(.60783 0 0 -.6013 5.878 14.711)"/><path d="M201.223 36.715c2.438-2.269 2.915-4.891 2.945-6.471h1.797s5.613 0 5.613 5.613v.174c-2.147.609-4.462 2.331-5.264 2.728z" fill="url(#B)" transform="matrix(.60783 0 0 -.6013 -104.322 42.084)"/><path d="M190.3 46.581V32.336l18.046 7.237v14.244z" fill="url(#C)" transform="matrix(.60783 0 0 -.6013 -104.322 42.084)"/><path d="M178.32 37.226l11.98-4.847v14.245l-11.98 4.847z" fill="url(#D)" transform="matrix(.60783 0 0 -.6013 -104.322 42.084)"/><g clip-path="url(#E)" transform="matrix(.60783 0 0 -.6013 -104.322 42.084)"><g clip-path="url(#F)" opacity=".7"><path d="M178.32 48.454l11.98-4.88v3.049l-11.98 4.819z" fill="url(#G)"/></g><g clip-path="url(#H)" opacity=".7"><path d="M190.3 46.581v-1.855l18.045 7.305v1.751z" fill="url(#I)"/></g></g><path d="M201.223 48.816V37.417l4.504 1.812v11.399z" fill="url(#J)" transform="matrix(.60783 0 0 -.6013 -104.322 42.084)"/><g clip-path="url(#K)" transform="matrix(.60783 0 0 -.6013 -104.322 42.084)"><path d="M192.433 45.167l6.093 2.449v-5.493l-6.094-2.45z" fill="#e6f7fd"/><path d="M199.06 47.825l-.535-.214v-5.488l.535-.348z" fill="#bcb386"/><path d="M192.433 39.117l6.628 2.658-.536.348-6.093-2.45zm8.789-2.402l5.092 2.044-.586.47-4.505-1.813z" fill="#fffee6"/><path d="M203.764 35.514l4.048 1.624v.13l-1.555 1.103-4.045-1.499v-.128z" fill="#351f17"/><path d="M203.764 35.643l4.048 1.624-1.555 1.233-4.045-1.627z" fill="#5a3114"/><path d="M187.394 45.482l-6.093 2.449v-5.492l6.093-2.45z" fill="#e6f7fd"/></g><g clip-path="url(#L)" transform="matrix(.60783 0 0 -.6013 -104.322 42.084)"><g mask="url(#M)"><path d="M180.766 42.09l6.628-2.658v.557l-6.093 2.45z" fill="url(#N)"/></g></g><g clip-path="url(#O)" transform="matrix(.60783 0 0 -.6013 -104.322 42.084)"><path d="M176.885 51.487v-.323l13.214-5.322v.33z" fill="#5a3114"/><path d="M190.1 46.171v-.329l19.732 7.94v.264z" fill="#6f4324"/></g><g clip-path="url(#P)" transform="matrix(.60783 0 0 -.6013 -104.322 42.084)"><g mask="url(#Q)"><path d="M208.04 51.091c-.007-2.01-.128-11.016-1.726-11.974l1.726.872v11.498z" fill="url(#R)"/></g></g><g clip-path="url(#S)" transform="matrix(.60783 0 0 -.6013 -104.322 42.084)"><g mask="url(#T)"><path d="M192.897 44.992c5.498 2.19 5.39-2.702 5.39-2.702l.094 4.94zm-.183-.074l.183.074c-.061-.023-.122-.049-.183-.074" fill="url(#U)"/></g></g><g clip-path="url(#V)" transform="matrix(.60783 0 0 -.6013 -104.322 42.084)"><g mask="url(#W)"><path d="M201.587 48.665c3.794 1.347 3.955-8.745 3.96-9.216l-.109 10.686zm3.96-9.231v.015zm0-.002v.002z" fill="url(#X)"/></g></g><g clip-path="url(#Y)" transform="matrix(.60783 0 0 -.6013 -104.322 42.084)"><g mask="url(#Z)"><path d="M203.774 35.708l3.895 1.573-1.437 1.148c1.418-1.128-2.287-2.651-2.458-2.721m-.006-.001l.006.001z" fill="url(#aa)"/></g></g><g clip-path="url(#ab)" transform="matrix(.60783 0 0 -.6013 -104.322 42.084)"><g mask="url(#ac)"><path d="M178.781 37.417l10.998-4.222c-.098.039-10.998 4.412-10.998 16.749z" fill="url(#ad)"/></g></g><path d="M190.1 46.229l19.732 7.875-16.553 8.798z" fill="url(#ae)" transform="matrix(.60783 0 0 -.6013 -104.322 42.084)"/><g clip-path="url(#af)" transform="matrix(.60783 0 0 -.6013 -104.322 42.084)"><g mask="url(#ag)"><path d="M190.45 46.641l18.534 7.48-15.481 8.368s15.49-8.324-3.053-15.848" fill="url(#ah)"/></g></g><path d="M176.885 51.487l13.215-5.258 3.179 16.673z" fill="url(#ai)" transform="matrix(.60783 0 0 -.6013 -104.322 42.084)"/><g clip-path="url(#aj)" transform="matrix(.60783 0 0 -.6013 -104.322 42.084)"><path d="M185.082 60.164s-1.421-.77-1.256.44c-1.238-.083-1.712 1.045-.471 1.512-1.537.715-.052 2.063.58 1.596 0 .935 2.118 1.182 2.036-.083.797.66 1.732-1.272.687-1.53 1.348-.257 1.053-2.017-.257-1.358.395-1.209-1.195-2.035-1.32-.577" fill="#d3d2d2"/></g><g clip-path="url(#ak)" transform="matrix(.60783 0 0 -.6013 -104.322 42.084)"><g mask="url(#al)"><path d="M192.703 62.338a.046.046 0 01.011.007zm-15.279-10.851l12.165-4.63c-11.965 4.639 2.67 15.164 3.114 15.481zm12.356-4.703l-.191.073.191-.073" fill="url(#am)"/></g></g><g clip-path="url(#an)" transform="matrix(.60783 0 0 -.6013 -104.322 42.084)"><path d="M185.583 54.016l1.538-.622v4.457l-1.538.622z" fill="#abaaaa"/><path d="M188.802 55.962l-1.68-2.568v4.464l1.68.674z" fill="#d3d2d2"/><path d="M185.583 58.473l1.682.681 1.537-.622-1.681-.682z" fill="#e9e9e9"/><path d="M185.988 58.48l1.258.51 1.152-.465-1.26-.51z" fill="#abaaaa"/><path d="M187.246 58.99v-.932l-.107-.043-1.15.465z" fill="#d3d2d2"/></g><g clip-path="url(#ao)" transform="matrix(.60783 0 0 -.6013 -104.322 42.084)"><g mask="url(#ap)"><path d="M187.193 57.8c1.52.6 1.549-1.837 1.549-1.837v2.454z" fill="url(#aq)"/></g></g><g clip-path="url(#ar)" transform="matrix(.60783 0 0 -.6013 -104.322 42.084)"><g mask="url(#as)"><path d="M181.457 42.691c0 4.809 5.268 2.771 5.643 2.62l-5.643 2.304zm5.664 2.611l-.021.009a.178.178 0 01.021-.009" fill="url(#at)"/></g></g><g clip-path="url(#au)" transform="matrix(.60783 0 0 -.6013 -104.322 42.084)"><g mask="url(#av)"><path d="M190.45 32.718l7.103 2.796c-.067-.026-7.103-2.763-7.103 1.903zm7.103 2.796h.001z" fill="url(#aw)"/></g></g><g clip-path="url(#ax)" transform="matrix(.60783 0 0 -.6013 -104.322 42.084)" fill="#6a5e50"><path d="M184.589 41.117l-.655.264v5.492l.655-.263zm11.363-.029l-.655-.264v5.494l.655.263z"/><path d="M198.525 45.213v-.698l-6.093-2.319v.634zm-17.224.309v-.698l6.093-2.32v.635z"/></g><g clip-path="url(#ay)" transform="matrix(.60783 0 0 -.6013 -104.322 42.084)"><g mask="url(#az)"><path d="M192.869 45.044c4.857 1.837 5.434-1.754 5.503-2.586l-.251 4.56zm5.512-2.754s-.001.061-.009.168z" fill="url(#aA)"/></g></g><g clip-path="url(#aB)" transform="matrix(.60783 0 0 -.6013 -104.322 42.084)"><g mask="url(#aC)"><path d="M184.043 63.656c.697.655 1.109.235 1.109.235.502-.297.309-.95.281-1.038.049.118.384.088.384.088.807-.42-.379-1.151-.379-1.151.497.083 1.295-.379 1.295-.379.403-.571-.745-.27-.745-.27.297-.142.047-1.033.047-1.033-.622-.749-.816.555-.816.555-1.42-1.203-1.31-.068-1.31-.068-.143-1.21 1.269-.235 1.269-.235.025-.975.573-.849.573-.849.918.236.536 1.405.536 1.405.825-.556 1.169.143 1.169.143.075.781-1.106 1.029-1.106 1.029s-.004.004.03.029c.033.025 1.033.16.546 1.034-.487.875-1.068.202-1.068.202.05.479-.016.958-.823.993h-.054c-.762 0-.938-.69-.938-.69m1.387-.813l.003.01-.003-.01" fill="url(#aD)"/></g></g><path d="M0 0s-5.613 0-5.613-5.613v-26.192s0-5.612 5.613-5.612h26.192s5.613 0 5.613 5.612v26.192S31.805 0 26.192 0z" fill="none" stroke="#231f20" stroke-width=".66" transform="matrix(.60783 0 0 -.6013 4.95 1.399)"/></svg>