<svg xmlns="http://www.w3.org/2000/svg" width="100" height="100" viewBox="0 0 26.458 26.458"><defs><linearGradient x1="0" y1="0" x2="1" y2="0" gradientUnits="userSpaceOnUse" gradientTransform="matrix(0 27.1728 27.1728 0 487.843 394.573)" spreadMethod="pad" id="h"><stop offset="0" stop-color="#fff200"/><stop offset="1" stop-color="#f9a72b"/></linearGradient><linearGradient x1="0" y1="0" x2="1" y2="0" gradientUnits="userSpaceOnUse" gradientTransform="matrix(0 29.60825 29.60825 0 487.843 393.355)" spreadMethod="pad" id="f"><stop offset="0" stop-color="#f9a72b"/><stop offset="1" stop-color="#fff200"/></linearGradient><linearGradient x1="0" y1="0" x2="1" y2="0" gradientUnits="userSpaceOnUse" gradientTransform="matrix(13.1854 -7.6129 -7.34429 -13.24114 478.084 417.745)" spreadMethod="pad" id="k"><stop offset="0" stop-color="#fff"/><stop offset="1" stop-color="#fff"/></linearGradient><linearGradient x1="0" y1="0" x2="1" y2="0" gradientUnits="userSpaceOnUse" gradientTransform="matrix(13.1854 -7.6129 -7.34428 -13.24114 478.084 417.745)" spreadMethod="pad" id="b"><stop offset="0" stop-color="#fff"/><stop offset="1" stop-opacity="0" stop-color="#fff"/></linearGradient><linearGradient x1="0" y1="0" x2="1" y2="0" gradientUnits="userSpaceOnUse" gradientTransform="matrix(0 13.14619 13.14619 0 487.843 394.847)" spreadMethod="pad" id="n"><stop offset="0" stop-color="#f9a72b"/><stop offset="1" stop-color="#f9a72b"/></linearGradient><linearGradient x1="0" y1="0" x2="1" y2="0" gradientUnits="userSpaceOnUse" gradientTransform="matrix(0 13.14619 13.14619 0 487.843 394.847)" spreadMethod="pad" id="d"><stop offset="0" stop-opacity="0" stop-color="#fff"/><stop offset="1" stop-opacity=".6" stop-color="#fff"/></linearGradient><linearGradient x1="0" y1="0" x2="1" y2="0" gradientUnits="userSpaceOnUse" gradientTransform="matrix(0 6.43087 6.43087 0 483.654 408.803)" spreadMethod="pad" id="p"><stop offset="0" stop-color="#393536"/><stop offset="1" stop-color="#231f20"/></linearGradient><linearGradient x1="0" y1="0" x2="1" y2="0" gradientUnits="userSpaceOnUse" gradientTransform="matrix(0 6.43087 6.43087 0 492.399 408.803)" spreadMethod="pad" id="r"><stop offset="0" stop-color="#393536"/><stop offset="1" stop-color="#231f20"/></linearGradient><linearGradient x1="0" y1="0" x2="1" y2="0" gradientUnits="userSpaceOnUse" gradientTransform="scale(52.91605 -52.91605) rotate(45 14.17 6.668)" spreadMethod="pad" id="e"><stop offset="0" stop-color="#00adef"/><stop offset="1" stop-color="#fff"/></linearGradient><clipPath clipPathUnits="userSpaceOnUse" id="a"><path d="M-13948.7 14806.8h28835.2v-28835.2h-28835.2z"/></clipPath><clipPath clipPathUnits="userSpaceOnUse" id="i"><path d="M481.962 419.937c-4.621-2.09-7.149-6.471-5.651-9.784 1.501-3.313 6.461-4.303 11.08-2.213 4.62 2.089 7.149 6.47 5.65 9.783-.969 2.139-3.376 3.31-6.205 3.31-1.554 0-3.236-.354-4.874-1.096"/></clipPath><clipPath clipPathUnits="userSpaceOnUse" id="c"><path d="M-32768 32767h65535v-65535h-65535z"/></clipPath><clipPath clipPathUnits="userSpaceOnUse" id="l"><path d="M487.842 401.421c-11.326 0-13.146 6.572-13.146 6.572 0-7.26 5.886-13.146 13.146-13.146 7.261 0 13.148 5.886 13.148 13.146 0 0-1.695-6.572-13.148-6.572"/></clipPath><clipPath clipPathUnits="userSpaceOnUse" id="o"><path d="M474.746 426.867s-5.612 0-5.612-5.612V395.06c.001-.171.087-5.609 5.612-5.609h26.192s5.613 0 5.613 5.612v26.192s0 5.612-5.613 5.612z"/></clipPath><clipPath clipPathUnits="userSpaceOnUse" id="q"><path d="M474.746 426.867s-5.612 0-5.612-5.612V395.06c.001-.171.087-5.609 5.612-5.609h26.192s5.613 0 5.613 5.612v26.192s0 5.612-5.613 5.612z"/></clipPath><clipPath clipPathUnits="userSpaceOnUse" id="s"><path d="M474.746 426.867s-5.612 0-5.612-5.612V395.06c.001-.171.087-5.609 5.612-5.609h26.192s5.613 0 5.613 5.612v26.192s0 5.612-5.613 5.612z"/></clipPath><clipPath clipPathUnits="userSpaceOnUse" id="g"><path d="M474.746 426.867s-5.612 0-5.612-5.612V395.06c.001-.171.087-5.609 5.612-5.609h26.192s5.613 0 5.613 5.612v26.192s0 5.612-5.613 5.612z"/></clipPath><mask maskUnits="userSpaceOnUse" x="0" y="0" width="1" height="1" id="j"><g clip-path="url(#a)"><path d="M479.598 429.66l21.321-12.31-11.164-20.127-21.321 12.31z" fill="url(#b)"/></g></mask><mask maskUnits="userSpaceOnUse" x="0" y="0" width="1" height="1" id="m"><g clip-path="url(#c)"><path d="M474.696 407.994h26.293v-13.147h-26.293z" fill="url(#d)"/></g></mask></defs><path d="M474.746 426.867s-5.612 0-5.612-5.612V395.06c.001-.171.087-5.609 5.612-5.609h26.192s5.613 0 5.613 5.612v26.192s0 5.612-5.613 5.612z" fill="url(#e)" transform="matrix(.6244 0 0 -.62815 -291.384 269.576)"/><path d="M0 0c0-8.055-6.529-14.584-14.584-14.584S-29.168-8.055-29.168 0s6.529 14.584 14.584 14.584S0 8.055 0 0z" fill="none" stroke="#def4fd" stroke-width="2.2" stroke-linecap="round" stroke-linejoin="round" stroke-miterlimit="500" transform="matrix(.6244 0 0 -.62815 22.336 13.19)"/><path d="M473.038 408.159c0-8.163 6.641-14.804 14.804-14.804s14.804 6.641 14.804 14.804-6.641 14.804-14.804 14.804-14.804-6.641-14.804-14.804" fill="url(#f)" transform="matrix(.6244 0 0 -.62815 -291.384 269.576)"/><g clip-path="url(#g)" transform="matrix(.6244 0 0 -.62815 -291.384 269.576)"><path d="M487.842 423.183c-8.285 0-15.024-6.74-15.024-15.024 0-8.285 6.74-15.024 15.024-15.024 8.285 0 15.024 6.74 15.024 15.024 0 8.284-6.739 15.024-15.024 15.024m0-.44c8.055 0 14.584-6.53 14.584-14.584 0-8.056-6.529-14.584-14.584-14.584s-14.584 6.528-14.584 14.584c0 8.054 6.53 14.584 14.584 14.584" fill="#f14624"/></g><path d="M474.256 408.159c0-7.492 6.095-13.586 13.586-13.586 7.492 0 13.588 6.094 13.588 13.586s-6.096 13.586-13.588 13.586c-7.491 0-13.586-6.094-13.586-13.586" fill="url(#h)" transform="matrix(.6244 0 0 -.62815 -291.384 269.576)"/><g clip-path="url(#i)" transform="matrix(.6244 0 0 -.62815 -291.384 269.576)"><g mask="url(#j)"><path d="M481.962 419.937c-4.621-2.09-7.149-6.471-5.651-9.784 1.501-3.313 6.461-4.303 11.08-2.213 4.62 2.089 7.149 6.47 5.65 9.783-.969 2.139-3.376 3.31-6.205 3.31-1.554 0-3.236-.354-4.874-1.096" fill="url(#k)"/></g></g><g clip-path="url(#l)" transform="matrix(.6244 0 0 -.62815 -291.384 269.576)"><g mask="url(#m)"><path d="M487.842 401.421c-11.326 0-13.146 6.572-13.146 6.572 0-7.26 5.886-13.146 13.146-13.146 7.261 0 13.148 5.886 13.148 13.146 0 0-1.695-6.572-13.148-6.572" fill="url(#n)"/></g></g><g clip-path="url(#o)" transform="matrix(.6244 0 0 -.62815 -291.384 269.576)"><path d="M483.654 412.898c0 .543.364.926.75 1.181-.17.85-.442 1.404-.75 1.404-.517 0-.935-1.551-.935-3.465s.418-3.465.935-3.465c.517 0 .935 1.551.935 3.465 0 .577-.04 1.12-.106 1.599a3.015 3.015 0 01-.83-.719" fill="#231f20"/></g><path d="M482.968 412.018c0-2.089.487-3.216.686-3.216.199 0 .686 1.127.686 3.216 0 .402-.019.79-.056 1.161-.267-.216-.429-.428-.431-.43l-.449-.597v.746c0 .489.25.932.722 1.29-.194.859-.431 1.046-.472 1.046-.199 0-.686-1.127-.686-3.216" fill="url(#p)" transform="matrix(.6244 0 0 -.62815 -291.384 269.576)"/><g clip-path="url(#q)" transform="matrix(.6244 0 0 -.62815 -291.384 269.576)"><path d="M492.399 412.898c0 .543.364.926.75 1.181-.17.85-.442 1.404-.75 1.404-.517 0-.935-1.551-.935-3.465s.418-3.465.935-3.465c.517 0 .935 1.551.935 3.465 0 .577-.04 1.12-.106 1.599a3.015 3.015 0 01-.83-.719" fill="#231f20"/></g><path d="M491.712 412.018c0-2.089.488-3.216.687-3.216.199 0 .686 1.127.686 3.216 0 .402-.019.79-.056 1.161-.267-.216-.428-.428-.431-.43l-.448-.597v.746c0 .489.248.932.721 1.29-.194.859-.431 1.046-.472 1.046-.199 0-.687-1.127-.687-3.216" fill="url(#r)" transform="matrix(.6244 0 0 -.62815 -291.384 269.576)"/><g clip-path="url(#s)" transform="matrix(.6244 0 0 -.62815 -291.384 269.576)"><path d="M496.423 404.841c0-4.884-4.446-6.518-8.37-6.518-3.922 0-8.79 1.634-8.79 6.518" fill="none" stroke="#231f20" stroke-width=".88" stroke-linecap="round" stroke-miterlimit="10"/></g><path d="M0 0s-5.613 0-5.613-5.613v-26.192s0-5.612 5.613-5.612h26.192s5.613 0 5.613 5.612v26.192S31.805 0 26.192 0z" fill="none" stroke="#231f20" stroke-width=".66" transform="matrix(.6244 0 0 -.62815 5.052 1.438)"/></svg>