<svg xmlns="http://www.w3.org/2000/svg" width="100" height="100" viewBox="0 0 26.458 26.458"><defs><clipPath clipPathUnits="userSpaceOnUse" id="G"><path d="M532.325 157.463l-4.132-5.557c2.074 2.361 3.835 4.171 5.32 5.557h-.001z"/></clipPath><clipPath clipPathUnits="userSpaceOnUse" id="p"><path d="M520.271 157.463s-5.612 0-5.612-5.612v-26.197c.001-.17.087-5.608 5.612-5.608h26.192s5.612 0 5.612 5.612v26.193s0 5.612-5.612 5.612z"/></clipPath><clipPath clipPathUnits="userSpaceOnUse" id="t"><path d="M520.271 157.463s-5.612 0-5.612-5.612v-26.197c.001-.17.087-5.608 5.612-5.608h26.192s5.612 0 5.612 5.612v26.193s0 5.612-5.612 5.612z"/></clipPath><clipPath clipPathUnits="userSpaceOnUse" id="u"><path d="M525.067 150.115c-.731-1.33-.132-2.793 1.197-3.523 1.33-.732 2.886-.452 3.616.877a2.747 2.747 0 01-1.084 3.731 2.748 2.748 0 01-3.729-1.085"/></clipPath><clipPath clipPathUnits="userSpaceOnUse" id="w"><path d="M520.271 157.463s-5.612 0-5.612-5.612v-26.197c.001-.17.087-5.608 5.612-5.608h26.192s5.612 0 5.612 5.612v26.193s0 5.612-5.612 5.612z"/></clipPath><clipPath clipPathUnits="userSpaceOnUse" id="x"><path d="M538.924 131.925a2.195 2.195 0 01-1.504-2.716c.334-1.166 1.498-1.657 2.664-1.324 1.164.334 1.89 1.369 1.555 2.536a2.195 2.195 0 01-2.109 1.589c-.2 0-.404-.028-.606-.085"/></clipPath><clipPath clipPathUnits="userSpaceOnUse" id="z"><path d="M520.271 157.463s-5.612 0-5.612-5.612v-26.197c.001-.17.087-5.608 5.612-5.608h26.192s5.612 0 5.612 5.612v26.193s0 5.612-5.612 5.612z"/></clipPath><clipPath clipPathUnits="userSpaceOnUse" id="A"><path d="M531.221 157.463l-3.832-5.077c-.42-.513-.198-1.391.498-1.96l1.292-1.118c.695-.569 1.6-.615 2.019-.102l7.508 8.257z"/></clipPath><clipPath clipPathUnits="userSpaceOnUse" id="C"><path d="M520.271 157.463s-5.612 0-5.612-5.612v-26.197c.001-.17.087-5.608 5.612-5.608h26.192s5.612 0 5.612 5.612v26.193s0 5.612-5.612 5.612z"/></clipPath><clipPath clipPathUnits="userSpaceOnUse" id="D"><path d="M529.966 146.838l-1.596-1.012c-.843-.669-1.883-.206-1.528-.766l9.501-13.964c.355-.56 1.142-.697 1.759-.306l1.198.704c.615.391.83 1.162.474 1.722l-8.464 14.678c-.072.115-.132.163-.188.163-.218 0-.395-.736-1.156-1.219"/></clipPath><clipPath clipPathUnits="userSpaceOnUse" id="F"><path d="M520.271 157.463s-5.612 0-5.612-5.612v-26.197c.001-.17.087-5.608 5.612-5.608h26.192s5.612 0 5.612 5.612v26.193s0 5.612-5.612 5.612z"/></clipPath><clipPath clipPathUnits="userSpaceOnUse" id="S"><path d="M525.594 148.663c0-.464.38-.842.847-.842.469 0 .849.378.849.842 0 .465-.38.842-.849.842a.845.845 0 01-.847-.842"/></clipPath><clipPath clipPathUnits="userSpaceOnUse" id="d"><path d="M-13903.2 14537.4H14932v-28835.2h-28835.2z"/></clipPath><clipPath clipPathUnits="userSpaceOnUse" id="e"><path d="M526.442 150.353l1.69-1.69-1.69-1.69-1.69 1.69z"/></clipPath><clipPath clipPathUnits="userSpaceOnUse" id="P"><path d="M538.784 130.038a.64.64 0 01.642-.637.64.64 0 01.642.637.64.64 0 01-.642.637.64.64 0 01-.642-.637"/></clipPath><clipPath clipPathUnits="userSpaceOnUse" id="b"><path d="M530.853 160.123l5.438-5.438-5.438-5.439-5.439 5.439z"/></clipPath><clipPath clipPathUnits="userSpaceOnUse" id="g"><path d="M-32768 32767h65535v-65535h-65535z"/></clipPath><clipPath clipPathUnits="userSpaceOnUse" id="h"><path d="M539.426 131.318l1.279-1.279-1.279-1.28-1.28 1.28z"/></clipPath><clipPath clipPathUnits="userSpaceOnUse" id="M"><path d="M528.917 122.994c10.303 3.982 10.894 2.403 10.92 2.305l-.313 1.343c-11.13-2.334-10.607-3.648-10.607-3.648m10.921 2.3l-.001.005z"/></clipPath><clipPath clipPathUnits="userSpaceOnUse" id="a"><path d="M-13903.2 14537.4H14932v-28835.2h-28835.2z"/></clipPath><clipPath clipPathUnits="userSpaceOnUse" id="j"><path d="M-13903.2 14537.4H14932v-28835.2h-28835.2z"/></clipPath><clipPath clipPathUnits="userSpaceOnUse" id="k"><path d="M532.502 132.466l9.247-6.92-6.019-8.043-9.247 6.92z"/></clipPath><clipPath clipPathUnits="userSpaceOnUse" id="J"><path d="M528.193 144.765l8.744-13.073c-8.312 12.451-6.21 14.838-6.21 14.838-.86-.882-2.534-1.765-2.534-1.765m8.856-13.24l-.112.167.112-.167"/></clipPath><clipPath clipPathUnits="userSpaceOnUse" id="r"><path d="M528.161 124.167c-1.783-1.32.322-2.014.322-2.014h14.287c.923 0 1 1.505 1 1.505.159 2.796-2.009 5.541-2.009 5.541z"/></clipPath><clipPath clipPathUnits="userSpaceOnUse" id="m"><path d="M-32768 32767h65535v-65535h-65535z"/></clipPath><clipPath clipPathUnits="userSpaceOnUse" id="n"><path d="M532.621 150.958l11.93-11.931-11.93-11.93-11.931 11.93z"/></clipPath><linearGradient x1="0" y1="0" x2="1" y2="0" gradientUnits="userSpaceOnUse" gradientTransform="scale(1.27917 -1.27917) rotate(45 333.813 457.604)" spreadMethod="pad" id="i"><stop offset="0" stop-color="#fff"/><stop offset="1" stop-opacity="0" stop-color="#fff"/></linearGradient><linearGradient x1="0" y1="0" x2="1" y2="0" gradientUnits="userSpaceOnUse" gradientTransform="scale(52.91561 -52.91561) rotate(45 8.455 10.252)" spreadMethod="pad" id="q"><stop offset="0" stop-color="#50ade5"/><stop offset="1" stop-color="#fff"/></linearGradient><linearGradient x1="0" y1="0" x2="1" y2="0" gradientUnits="userSpaceOnUse" gradientTransform="scale(5.49351 -5.49351) rotate(28.788 101.068 172.557)" spreadMethod="pad" id="v"><stop offset="0" stop-color="#fbcec5"/><stop offset="1" stop-color="#bb8661"/></linearGradient><linearGradient x1="0" y1="0" x2="1" y2="0" gradientUnits="userSpaceOnUse" gradientTransform="scale(4.3888 -4.3888) rotate(-16.006 -43.552 -450.198)" spreadMethod="pad" id="y"><stop offset="0" stop-color="#fbcec5"/><stop offset="1" stop-color="#bb8661"/></linearGradient><linearGradient x1="0" y1="0" x2="1" y2="0" gradientUnits="userSpaceOnUse" gradientTransform="matrix(5.03514 -4.12482 -3.043 -3.71457 531.904 158.959)" spreadMethod="pad" id="B"><stop offset="0" stop-color="#fbcec5"/><stop offset="1" stop-color="#bb8661"/></linearGradient><linearGradient x1="0" y1="0" x2="1" y2="0" gradientUnits="userSpaceOnUse" gradientTransform="matrix(4.46766 2.83233 2.57058 -4.05478 531.626 137.514)" spreadMethod="pad" id="E"><stop offset="0" stop-color="#fbcec5"/><stop offset="1" stop-color="#bb8661"/></linearGradient><linearGradient x1="0" y1="0" x2="1" y2="0" gradientUnits="userSpaceOnUse" gradientTransform="scale(4.04161 -4.04161) rotate(45 113.377 139.261)" spreadMethod="pad" id="I"><stop offset="0" stop-color="#fff"/><stop offset="1" stop-color="#fff"/></linearGradient><linearGradient x1="0" y1="0" x2="1" y2="0" gradientUnits="userSpaceOnUse" gradientTransform="scale(4.04161 -4.04161) rotate(45 113.377 139.261)" spreadMethod="pad" id="c"><stop offset="0" stop-color="#fff"/><stop offset="1" stop-opacity="0" stop-color="#fff"/></linearGradient><linearGradient x1="0" y1="0" x2="1" y2="0" gradientUnits="userSpaceOnUse" gradientTransform="scale(1.68995 -1.68995) rotate(45 262.195 331.442)" spreadMethod="pad" id="f"><stop offset="0" stop-color="#fff"/><stop offset="1" stop-opacity="0" stop-color="#fff"/></linearGradient><linearGradient x1="0" y1="0" x2="1" y2="0" gradientUnits="userSpaceOnUse" gradientTransform="scale(1.68995 -1.68995) rotate(45 262.195 331.442)" spreadMethod="pad" id="U"><stop offset="0" stop-color="#fff"/><stop offset="1" stop-color="#fff"/></linearGradient><linearGradient x1="0" y1="0" x2="1" y2="0" gradientUnits="userSpaceOnUse" gradientTransform="scale(15.46144 -15.46144) rotate(-32.373 3.824 -62.873)" spreadMethod="pad" id="s"><stop offset="0" stop-color="#fbcec5"/><stop offset="1" stop-color="#bb8661"/></linearGradient><linearGradient x1="0" y1="0" x2="1" y2="0" gradientUnits="userSpaceOnUse" gradientTransform="scale(1.27917 -1.27917) rotate(45 333.813 457.604)" spreadMethod="pad" id="R"><stop offset="0" stop-color="#fff"/><stop offset="1" stop-color="#fff"/></linearGradient><linearGradient x1="0" y1="0" x2="1" y2="0" gradientUnits="userSpaceOnUse" gradientTransform="scale(7.43698 -7.43698) rotate(36.81 61.353 98.896)" spreadMethod="pad" id="l"><stop offset="0" stop-color="#fff"/><stop offset="1" stop-opacity="0" stop-color="#fff"/></linearGradient><linearGradient x1="0" y1="0" x2="1" y2="0" gradientUnits="userSpaceOnUse" gradientTransform="scale(7.43698 -7.43698) rotate(36.81 61.353 98.896)" spreadMethod="pad" id="O"><stop offset="0" stop-color="#fff"/><stop offset="1" stop-color="#fff"/></linearGradient><linearGradient x1="0" y1="0" x2="1" y2="0" gradientUnits="userSpaceOnUse" gradientTransform="scale(15.6246 -15.6246) rotate(45 28.084 36.173)" spreadMethod="pad" id="o"><stop offset="0" stop-color="#fff"/><stop offset="1" stop-opacity="0" stop-color="#fff"/></linearGradient><linearGradient x1="0" y1="0" x2="1" y2="0" gradientUnits="userSpaceOnUse" gradientTransform="scale(15.6246 -15.6246) rotate(45 28.084 36.173)" spreadMethod="pad" id="L"><stop offset="0" stop-color="#fff"/><stop offset="1" stop-color="#fff"/></linearGradient><mask maskUnits="userSpaceOnUse" x="0" y="0" width="1" height="1" id="H"><g clip-path="url(#a)"><g clip-path="url(#b)"><path d="M530.853 160.123l5.438-5.438-5.438-5.439-5.439 5.439z" fill="url(#c)"/></g></g></mask><mask maskUnits="userSpaceOnUse" x="0" y="0" width="1" height="1" id="T"><g clip-path="url(#d)"><g clip-path="url(#e)"><path d="M526.442 150.353l1.69-1.69-1.69-1.69-1.69 1.69z" fill="url(#f)"/></g></g></mask><mask maskUnits="userSpaceOnUse" x="0" y="0" width="1" height="1" id="Q"><g clip-path="url(#g)"><g clip-path="url(#h)"><path d="M539.426 131.318l1.279-1.279-1.279-1.28-1.28 1.28z" fill="url(#i)"/></g></g></mask><mask maskUnits="userSpaceOnUse" x="0" y="0" width="1" height="1" id="N"><g clip-path="url(#j)"><g clip-path="url(#k)"><path d="M532.502 132.466l9.247-6.92-6.019-8.043-9.247 6.92z" fill="url(#l)"/></g></g></mask><mask maskUnits="userSpaceOnUse" x="0" y="0" width="1" height="1" id="K"><g clip-path="url(#m)"><g clip-path="url(#n)"><path d="M532.621 150.958l11.93-11.931-11.93-11.93-11.931 11.93z" fill="url(#o)"/></g></g></mask></defs><g clip-path="url(#p)" transform="matrix(.62536 0 0 -.62538 -320.318 100.003)"><path d="M520.271 157.463s-5.612 0-5.612-5.612v-26.197c.001-.17.087-5.608 5.612-5.608h26.192s5.612 0 5.612 5.612v26.193s0 5.612-5.612 5.612z" fill="url(#q)"/><path d="M541.761 129.198s2.168-2.744 2.008-5.54c0 0-.077-1.505-1-1.505h-14.287s-2.105.694-.32 2.013zM529.88 147.47c-.73-1.33-2.285-1.61-3.615-.878-1.33.73-1.93 2.193-1.198 3.523a2.747 2.747 0 004.814-2.646z" fill="none" stroke="#fff" stroke-width="2.64"/><path d="M528.389 147.754a1.725 1.725 0 10-3.023 1.66 1.725 1.725 0 003.023-1.66zm13.25-17.334c.335-1.165-.39-2.2-1.555-2.534-1.166-.334-2.33.158-2.664 1.324a2.195 2.195 0 004.219 1.21z" fill="none" stroke="#fff" stroke-width="2.64"/><path d="M541.073 130.181a1.377 1.377 0 10-2.649-.76c-.21.732.212 1.495.944 1.704a1.377 1.377 0 001.705-.944zm-9.875 19.025c-.419-.513-1.324-.467-2.019.102l-1.292 1.118c-.695.57-.918 1.447-.498 1.96l10.178 13.485c.42.513.417-.712 1.51-1.458l1.796-1.473c1.081-.884 2.148-.68 1.73-1.193zm8.576-15.99c.356-.56.142-1.33-.474-1.722l-1.198-.705c-.616-.39-1.404-.253-1.76.306l-9.5 13.965c-.354.56.685.097 1.528.765l1.597 1.012c.956.608.989 1.616 1.343 1.056z" fill="none" stroke="#fff" stroke-width="2.64"/><path d="M528.192 151.906l9.428 12.678 3.067-2.648s-2.834.963-12.495-10.03zm8.857-20.381l-8.856 13.24s1.675.883 2.535 1.766c0 0-2.122-2.408 6.32-15.006zm-8.132-8.532s-.523 1.315 10.607 3.65l.315-1.349s-.301 1.805-10.922-2.3zm11.151 7.045a.64.64 0 00-.642-.637.64.64 0 00-.642.637.64.64 0 00.642.637.64.64 0 00.642-.637zm-12.778 18.625a.845.845 0 00-.848-.841.845.845 0 00-.849.841c0 .466.38.842.85.842a.845.845 0 00.847-.842z" fill="none" stroke="#fff" stroke-width="2.64"/></g><g clip-path="url(#r)" transform="matrix(.62536 0 0 -.62538 -320.318 100.003)"><path d="M528.161 124.167c-1.783-1.32.322-2.014.322-2.014h14.287c.923 0 1 1.505 1 1.505.159 2.796-2.009 5.541-2.009 5.541z" fill="url(#s)"/></g><g clip-path="url(#t)" transform="matrix(.62536 0 0 -.62538 -320.318 100.003)"><path d="M541.761 129.198s2.168-2.744 2.008-5.54c0 0-.077-1.505-1-1.505h-14.287s-2.105.694-.32 2.013z" fill="none" stroke="#6f4324" stroke-width=".88"/></g><g clip-path="url(#u)" transform="matrix(.62536 0 0 -.62538 -320.318 100.003)"><path d="M525.067 150.115c-.731-1.33-.132-2.793 1.197-3.523 1.33-.732 2.886-.452 3.616.877a2.747 2.747 0 01-1.084 3.731 2.748 2.748 0 01-3.729-1.085" fill="url(#v)"/></g><g clip-path="url(#w)" transform="matrix(.62536 0 0 -.62538 -320.318 100.003)" fill="none" stroke="#6f4324"><path d="M529.88 147.47c-.73-1.33-2.285-1.61-3.615-.878-1.33.73-1.93 2.193-1.198 3.523a2.747 2.747 0 004.814-2.646z" stroke-width=".88"/><path d="M528.389 147.754a1.725 1.725 0 10-3.023 1.66 1.725 1.725 0 003.023-1.66z" stroke-width=".44"/></g><g clip-path="url(#x)" transform="matrix(.62536 0 0 -.62538 -320.318 100.003)"><path d="M538.924 131.925a2.195 2.195 0 01-1.504-2.716c.334-1.166 1.498-1.657 2.664-1.324 1.164.334 1.89 1.369 1.555 2.536a2.195 2.195 0 01-2.109 1.589c-.2 0-.404-.028-.606-.085" fill="url(#y)"/></g><g clip-path="url(#z)" transform="matrix(.62536 0 0 -.62538 -320.318 100.003)" fill="none" stroke="#6f4324"><path d="M541.639 130.42c.335-1.165-.39-2.2-1.555-2.534-1.166-.334-2.33.158-2.664 1.324a2.195 2.195 0 004.219 1.21z" stroke-width=".88"/><path d="M541.073 130.181a1.377 1.377 0 10-2.649-.76c-.21.732.212 1.495.944 1.704a1.377 1.377 0 001.705-.944z" stroke-width=".44"/></g><g clip-path="url(#A)" transform="matrix(.62536 0 0 -.62538 -320.318 100.003)"><path d="M531.221 157.463l-3.832-5.077c-.42-.513-.198-1.391.498-1.96l1.292-1.118c.695-.569 1.6-.615 2.019-.102l7.508 8.257z" fill="url(#B)"/></g><g clip-path="url(#C)" transform="matrix(.62536 0 0 -.62538 -320.318 100.003)"><path d="M531.198 149.206c-.419-.513-1.324-.467-2.019.102l-1.292 1.118c-.695.57-.918 1.447-.498 1.96l10.178 13.485c.42.513.417-.712 1.51-1.458l1.796-1.473c1.081-.884 2.148-.68 1.73-1.193z" fill="none" stroke="#6f4324" stroke-width=".88"/></g><g clip-path="url(#D)" transform="matrix(.62536 0 0 -.62538 -320.318 100.003)"><path d="M529.966 146.838l-1.596-1.012c-.843-.669-1.883-.206-1.528-.766l9.501-13.964c.355-.56 1.142-.697 1.759-.306l1.198.704c.615.391.83 1.162.474 1.722l-8.464 14.678c-.072.115-.132.163-.188.163-.218 0-.395-.736-1.156-1.219" fill="url(#E)"/></g><g clip-path="url(#F)" transform="matrix(.62536 0 0 -.62538 -320.318 100.003)"><path d="M539.774 133.216c.356-.56.142-1.33-.474-1.722l-1.198-.705c-.616-.39-1.404-.253-1.76.306l-9.5 13.965c-.354.56.685.097 1.528.765l1.597 1.012c.956.608.989 1.616 1.343 1.056z" fill="none" stroke="#6f4324" stroke-width=".88"/></g><g clip-path="url(#G)" transform="matrix(.62536 0 0 -.62538 -320.318 100.003)"><g mask="url(#H)"><path d="M532.325 157.463l-4.132-5.557c2.074 2.361 3.835 4.171 5.32 5.557h-.001z" fill="url(#I)"/></g></g><g clip-path="url(#J)" transform="matrix(.62536 0 0 -.62538 -320.318 100.003)"><g mask="url(#K)"><path d="M528.193 144.765l8.744-13.073c-8.312 12.451-6.21 14.838-6.21 14.838-.86-.882-2.534-1.765-2.534-1.765m8.856-13.24l-.112.167.112-.167" fill="url(#L)"/></g></g><g clip-path="url(#M)" transform="matrix(.62536 0 0 -.62538 -320.318 100.003)"><g mask="url(#N)"><path d="M528.917 122.994c10.303 3.982 10.894 2.403 10.92 2.305l-.313 1.343c-11.13-2.334-10.607-3.648-10.607-3.648m10.921 2.3l-.001.005z" fill="url(#O)"/></g></g><g clip-path="url(#P)" transform="matrix(.62536 0 0 -.62538 -320.318 100.003)"><g mask="url(#Q)"><path d="M538.784 130.038a.64.64 0 01.642-.637.64.64 0 01.642.637.64.64 0 01-.642.637.64.64 0 01-.642-.637" fill="url(#R)"/></g></g><g clip-path="url(#S)" transform="matrix(.62536 0 0 -.62538 -320.318 100.003)"><g mask="url(#T)"><path d="M525.594 148.663c0-.464.38-.842.847-.842.469 0 .849.378.849.842 0 .465-.38.842-.849.842a.845.845 0 01-.847-.842" fill="url(#U)"/></g></g><path d="M0 0s-5.613 0-5.613-5.613v-26.192s0-5.612 5.613-5.612h26.192s5.613 0 5.613 5.612v26.192S31.805 0 26.192 0z" fill="none" stroke="#231f20" stroke-width=".66" transform="matrix(.62536 0 0 -.62538 5.04 1.53)"/></svg>