<svg xmlns="http://www.w3.org/2000/svg" width="100" height="100" viewBox="0 0 26.458 26.458"><defs><clipPath clipPathUnits="userSpaceOnUse" id="w"><path d="M480.627 448.439c.715-.693 3.025-2.664 3.025-2.664 2.2-1.925 4.328-5.225 4.328-5.225.595 1.24 4.087 4.757 4.087 4.757 1.237 1.266 2.86 2.613 2.86 2.613-7.397-3.712-14.3.519-14.3.519z"/></clipPath><clipPath clipPathUnits="userSpaceOnUse" id="b"><path d="M478.281 467.255l10.067-5.812-5.375-9.31-10.067 5.811z"/></clipPath><clipPath clipPathUnits="userSpaceOnUse" id="q"><path d="M479.55 462.811c-2.263-.846-3.614-2.822-3.018-4.417.595-1.592 2.911-2.198 5.173-1.353 2.263.846 3.614 2.822 3.018 4.415-.413 1.106-1.654 1.736-3.131 1.736-.653 0-1.35-.123-2.042-.381"/></clipPath><clipPath clipPathUnits="userSpaceOnUse" id="j"><path d="M474.746 471.768s-5.612 0-5.612-5.612v-26.195c.001-.171.087-5.61 5.612-5.61h26.192s5.613 0 5.613 5.613v26.192s0 5.612-5.613 5.612z"/></clipPath><clipPath clipPathUnits="userSpaceOnUse" id="l"><path d="M487.997 459.521c-.189 3.479-3.093 5.363-6.618 5.363-3.545 0-6.43-2.799-6.585-6.305h-.007l.001-.131c-.001-.055-.008-.109-.008-.164 0-.126.011-.249.019-.373.09-2.716.835-6.994 5.26-10.481 7.26-5.72 7.92-9.68 7.92-9.68s.661 3.96 7.921 9.68c4.425 3.487 5.17 7.765 5.26 10.481.008.124.019.247.019.373 0 .055-.007.109-.008.164l.001.131h-.008c-.155 3.506-3.039 6.305-6.584 6.305-3.525 0-6.396-1.884-6.583-5.363"/></clipPath><clipPath clipPathUnits="userSpaceOnUse" id="n"><path d="M474.746 471.768s-5.612 0-5.612-5.612v-26.195c.001-.171.087-5.61 5.612-5.61h26.192s5.613 0 5.613 5.613v26.192s0 5.612-5.613 5.612z"/></clipPath><clipPath clipPathUnits="userSpaceOnUse" id="o"><path d="M488.745 459.482c-.041-.421-.766-.983-.766-.983-.843.806-.729.982-.729.982-.169 3.103-2.747 4.654-5.871 4.654a5.835 5.835 0 01-5.837-5.589l-.014-.263c0-.071.005-.14.01-.209l.009-.138c.138-4.144 1.765-7.39 4.976-9.918 4.484-3.534 6.533-6.446 7.456-8.23.924 1.784 2.972 4.696 7.457 8.23 3.21 2.528 4.838 5.773 4.977 9.934l.008.122c.004.054.008.108.009.181l-.014.291a5.832 5.832 0 01-5.836 5.589c-3.106 0-5.669-1.55-5.835-4.653"/></clipPath><clipPath clipPathUnits="userSpaceOnUse" id="e"><path d="M491.509 467.447l10.067-5.811-5.375-9.311-10.067 5.812z"/></clipPath><clipPath clipPathUnits="userSpaceOnUse" id="d"><path d="M-13948.7 14851.7h28835.2v-28835.2h-28835.2z"/></clipPath><clipPath clipPathUnits="userSpaceOnUse" id="t"><path d="M492.777 463.004c-2.263-.846-3.614-2.823-3.018-4.416.595-1.594 2.912-2.201 5.174-1.355 2.262.845 3.613 2.823 3.017 4.416-.413 1.105-1.654 1.736-3.132 1.736a5.88 5.88 0 01-2.041-.381"/></clipPath><clipPath clipPathUnits="userSpaceOnUse" id="h"><path d="M480.627 440.55v7.889h14.3v-7.889z"/></clipPath><clipPath clipPathUnits="userSpaceOnUse" id="g"><path d="M-13948.7 14851.7h28835.2v-28835.2h-28835.2z"/></clipPath><clipPath clipPathUnits="userSpaceOnUse" id="a"><path d="M-13948.7 14851.7h28835.2v-28835.2h-28835.2z"/></clipPath><linearGradient x1="0" y1="0" x2="1" y2="0" gradientUnits="userSpaceOnUse" gradientTransform="matrix(0 7.88814 7.88814 0 487.777 440.55)" spreadMethod="pad" id="y"><stop offset="0" stop-color="#ec008c"/><stop offset=".26" stop-color="#ec008c"/><stop offset=".929" stop-color="#ec008c"/><stop offset="1" stop-color="#ec008c"/></linearGradient><linearGradient x1="0" y1="0" x2="1" y2="0" gradientUnits="userSpaceOnUse" gradientTransform="scale(7.31787 -7.31787) rotate(29.997 150.38 90.212)" spreadMethod="pad" id="c"><stop offset="0" stop-color="#fff"/><stop offset="1" stop-opacity="0" stop-color="#fff"/></linearGradient><linearGradient x1="0" y1="0" x2="1" y2="0" gradientUnits="userSpaceOnUse" gradientTransform="matrix(0 27.13306 27.13306 0 487.98 437.75)" spreadMethod="pad" id="m"><stop offset="0" stop-color="#ec008c"/><stop offset=".456" stop-color="#ec008c"/><stop offset="1" stop-color="#f8a3d6"/></linearGradient><linearGradient x1="0" y1="0" x2="1" y2="0" gradientUnits="userSpaceOnUse" gradientTransform="matrix(0 24.34763 24.34763 0 487.979 439.788)" spreadMethod="pad" id="p"><stop offset="0" stop-color="#f8a3d6"/><stop offset=".544" stop-color="#ec008c"/><stop offset="1" stop-color="#ec008c"/></linearGradient><linearGradient x1="0" y1="0" x2="1" y2="0" gradientUnits="userSpaceOnUse" gradientTransform="scale(7.31744 -7.31744) rotate(29.997 151.342 93.578)" spreadMethod="pad" id="v"><stop offset="0" stop-color="#fff"/><stop offset="1" stop-color="#fff"/></linearGradient><linearGradient x1="0" y1="0" x2="1" y2="0" gradientUnits="userSpaceOnUse" gradientTransform="scale(7.31744 -7.31744) rotate(29.997 151.342 93.578)" spreadMethod="pad" id="f"><stop offset="0" stop-color="#fff"/><stop offset="1" stop-opacity="0" stop-color="#fff"/></linearGradient><linearGradient x1="0" y1="0" x2="1" y2="0" gradientUnits="userSpaceOnUse" gradientTransform="matrix(37.41734 0 0 -37.41734 469.134 453.06)" spreadMethod="pad" id="k"><stop offset="0" stop-color="#f8a3d6"/><stop offset="1" stop-color="#fff"/></linearGradient><linearGradient x1="0" y1="0" x2="1" y2="0" gradientUnits="userSpaceOnUse" gradientTransform="matrix(0 7.88814 7.88814 0 487.777 440.55)" spreadMethod="pad" id="i"><stop offset="0" stop-opacity="0" stop-color="#fff"/><stop offset=".26" stop-opacity="0" stop-color="#fff"/><stop offset=".929" stop-color="#fff"/><stop offset="1" stop-color="#fff"/></linearGradient><linearGradient x1="0" y1="0" x2="1" y2="0" gradientUnits="userSpaceOnUse" gradientTransform="scale(7.31787 -7.31787) rotate(29.997 150.38 90.212)" spreadMethod="pad" id="s"><stop offset="0" stop-color="#fff"/><stop offset="1" stop-color="#fff"/></linearGradient><mask maskUnits="userSpaceOnUse" x="0" y="0" width="1" height="1" id="r"><g clip-path="url(#a)"><g clip-path="url(#b)"><path d="M478.281 467.255l10.067-5.812-5.375-9.31-10.067 5.811z" fill="url(#c)"/></g></g></mask><mask maskUnits="userSpaceOnUse" x="0" y="0" width="1" height="1" id="u"><g clip-path="url(#d)"><g clip-path="url(#e)"><path d="M491.509 467.447l10.067-5.811-5.375-9.311-10.067 5.812z" fill="url(#f)"/></g></g></mask><mask maskUnits="userSpaceOnUse" x="0" y="0" width="1" height="1" id="x"><g clip-path="url(#g)"><g clip-path="url(#h)"><path d="M480.627 440.55v7.889h14.3v-7.889z" fill="url(#i)"/></g></g></mask></defs><g clip-path="url(#j)" transform="matrix(.6244 0 0 -.62815 -291.384 297.78)"><path d="M474.746 471.768s-5.612 0-5.612-5.612v-26.195c.001-.171.087-5.61 5.612-5.61h26.192s5.613 0 5.613 5.613v26.192s0 5.612-5.613 5.612z" fill="url(#k)"/><path d="M501.171 458.448l.001.13h-.008a6.594 6.594 0 01-6.584 6.306c-3.525 0-6.396-1.885-6.582-5.363-.19 3.478-3.094 5.363-6.619 5.363a6.593 6.593 0 01-6.584-6.305h-.008l.001-.131c-.002-.055-.008-.11-.008-.164 0-.126.011-.248.018-.373.091-2.716.836-6.994 5.262-10.481 7.26-5.72 7.92-9.68 7.92-9.68s.66 3.96 7.92 9.68c4.425 3.487 5.17 7.765 5.261 10.48.006.126.02.248.02.374 0 .055-.008.109-.01.164z" fill="none" stroke="#fff" stroke-width="1.76" stroke-linecap="round" stroke-linejoin="round"/><path d="M488.745 459.481c.167 3.103 2.73 4.654 5.835 4.654a5.833 5.833 0 005.837-5.59l.013-.29c0-.073-.004-.127-.008-.182l-.008-.12c-.14-4.163-1.767-7.407-4.977-9.935-4.485-3.534-6.533-6.446-7.457-8.23-.924 1.784-2.972 4.696-7.457 8.23-3.21 2.528-4.838 5.773-4.976 9.918l-.01.137c-.003.07-.01.14-.01.21l.015.262a5.835 5.835 0 005.838 5.59c3.123 0 5.702-1.55 5.87-4.655 0 0-.114-.175.729-.982 0 0 .726.563.766.983z" fill="none" stroke="#fff" stroke-width="1.76" stroke-linecap="round" stroke-linejoin="round"/><path d="M484.723 461.456c.596-1.593-.755-3.57-3.017-4.415-2.263-.846-4.579-.239-5.174 1.354-.596 1.594.755 3.571 3.017 4.416 2.262.845 4.578.239 5.174-1.355zm13.227.193c.597-1.593-.754-3.57-3.017-4.415-2.262-.846-4.578-.24-5.173 1.354-.596 1.593.755 3.57 3.017 4.415 2.262.845 4.578.24 5.174-1.355zm-9.97-21.099s-2.128 3.3-4.328 5.225c0 0-2.31 1.971-3.024 2.663 0 0 6.902-4.23 14.299-.518 0 0-1.622-1.347-2.86-2.612 0 0-3.492-3.518-4.087-4.758z" fill="none" stroke="#fff" stroke-width="1.76" stroke-linecap="round" stroke-linejoin="round"/></g><g clip-path="url(#l)" transform="matrix(.6244 0 0 -.62815 -291.384 297.78)"><path d="M487.997 459.521c-.189 3.479-3.093 5.363-6.618 5.363-3.545 0-6.43-2.799-6.585-6.305h-.007l.001-.131c-.001-.055-.008-.109-.008-.164 0-.126.011-.249.019-.373.09-2.716.835-6.994 5.26-10.481 7.26-5.72 7.92-9.68 7.92-9.68s.661 3.96 7.921 9.68c4.425 3.487 5.17 7.765 5.26 10.481.008.124.019.247.019.373 0 .055-.007.109-.008.164l.001.131h-.008c-.155 3.506-3.039 6.305-6.584 6.305-3.525 0-6.396-1.884-6.583-5.363" fill="url(#m)"/></g><g clip-path="url(#n)" transform="matrix(.6244 0 0 -.62815 -291.384 297.78)"><path d="M501.171 458.448l.001.13h-.008a6.594 6.594 0 01-6.584 6.306c-3.525 0-6.396-1.885-6.582-5.363-.19 3.478-3.094 5.363-6.619 5.363a6.593 6.593 0 01-6.584-6.305h-.008l.001-.131c-.002-.055-.008-.11-.008-.164 0-.126.011-.248.018-.373.091-2.716.836-6.994 5.262-10.481 7.26-5.72 7.92-9.68 7.92-9.68s.66 3.96 7.92 9.68c4.425 3.487 5.17 7.765 5.261 10.48.006.126.02.248.02.374 0 .055-.008.109-.01.164z" fill="none" stroke="#9c1661" stroke-width=".44" stroke-linecap="round" stroke-linejoin="round" stroke-miterlimit="10"/></g><g clip-path="url(#o)" transform="matrix(.6244 0 0 -.62815 -291.384 297.78)"><path d="M488.745 459.482c-.041-.421-.766-.983-.766-.983-.843.806-.729.982-.729.982-.169 3.103-2.747 4.654-5.871 4.654a5.835 5.835 0 01-5.837-5.589l-.014-.263c0-.071.005-.14.01-.209l.009-.138c.138-4.144 1.765-7.39 4.976-9.918 4.484-3.534 6.533-6.446 7.456-8.23.924 1.784 2.972 4.696 7.457 8.23 3.21 2.528 4.838 5.773 4.977 9.934l.008.122c.004.054.008.108.009.181l-.014.291a5.832 5.832 0 01-5.836 5.589c-3.106 0-5.669-1.55-5.835-4.653" fill="url(#p)"/></g><g clip-path="url(#q)" transform="matrix(.6244 0 0 -.62815 -291.384 297.78)"><g mask="url(#r)"><path d="M479.55 462.811c-2.263-.846-3.614-2.822-3.018-4.417.595-1.592 2.911-2.198 5.173-1.353 2.263.846 3.614 2.822 3.018 4.415-.413 1.106-1.654 1.736-3.131 1.736-.653 0-1.35-.123-2.042-.381" fill="url(#s)"/></g></g><g clip-path="url(#t)" transform="matrix(.6244 0 0 -.62815 -291.384 297.78)"><g mask="url(#u)"><path d="M492.777 463.004c-2.263-.846-3.614-2.823-3.018-4.416.595-1.594 2.912-2.201 5.174-1.355 2.262.845 3.613 2.823 3.017 4.416-.413 1.105-1.654 1.736-3.132 1.736a5.88 5.88 0 01-2.041-.381" fill="url(#v)"/></g></g><g clip-path="url(#w)" transform="matrix(.6244 0 0 -.62815 -291.384 297.78)"><g mask="url(#x)"><path d="M480.627 448.439c.715-.693 3.025-2.664 3.025-2.664 2.2-1.925 4.328-5.225 4.328-5.225.595 1.24 4.087 4.757 4.087 4.757 1.237 1.266 2.86 2.613 2.86 2.613-7.397-3.712-14.3.519-14.3.519z" fill="url(#y)"/></g></g><path d="M0 0s-5.613 0-5.613-5.613v-26.192s0-5.612 5.613-5.612h26.192s5.613 0 5.613 5.612v26.192S31.805 0 26.192 0z" fill="none" stroke="#231f20" stroke-width=".66" transform="matrix(.6244 0 0 -.62815 5.052 1.438)"/></svg>