<svg xmlns="http://www.w3.org/2000/svg" width="100" height="100" viewBox="0 0 26.458 26.458"><defs><clipPath id="Z" clipPathUnits="userSpaceOnUse"><path d="M136.12 471.768c-.765 0-1.452 0-2.069-.008-.964-.061-5.141-.589-5.402-5.149-.012-.681-.012-1.453-.012-2.326v-22.45c0-.773 0-1.466.008-2.088.067-1 .618-5.125 5.149-5.383.681-.012 1.452-.012 2.326-.012h22.45c.772 0 1.464 0 2.085.008.997.066 5.149.617 5.388 5.185.007.453.01.945.011 1.48v24.07c-.001.445-.003.862-.008 1.25-.059.949-.577 5.164-5.174 5.412-.674.011-1.436.011-2.296.011z"/></clipPath><clipPath id="g" clipPathUnits="userSpaceOnUse"><path d="M-14289.2 14851.7H14546v-28835.2h-28835.2z"/></clipPath><clipPath id="n" clipPathUnits="userSpaceOnUse"><path d="M129.852 443.715h35.915v22.103h-35.915z"/></clipPath><clipPath id="o" clipPathUnits="userSpaceOnUse"><path d="M163.433 452.924a.45.45 0 01.435-.003l-19.536 11.354a.449.449 0 00-.436.003z"/></clipPath><clipPath id="p" clipPathUnits="userSpaceOnUse"><path d="M129.597 444.19h35.371v24.284h-35.371z"/></clipPath><clipPath id="q" clipPathUnits="userSpaceOnUse"><path d="M130.697 457.952c.002-.679.135-1.181.319-1.288l19.537-11.353c-.184.106-.318.608-.319 1.287-.002.855.206 1.675.465 1.823l-19.538 11.354c-.258-.15-.467-.968-.464-1.823"/></clipPath><clipPath id="r" clipPathUnits="userSpaceOnUse"><path d="M163.433 452.924a.45.45 0 01.435-.003l-19.536 11.354a.449.449 0 00-.436.003z"/></clipPath><clipPath id="s" clipPathUnits="userSpaceOnUse"><path d="M129.597 444.19h35.371v24.284h-35.371z"/></clipPath><clipPath id="t" clipPathUnits="userSpaceOnUse"><path d="M130.697 457.952c.002-.679.135-1.181.319-1.288l19.537-11.353c-.184.106-.318.608-.319 1.287-.002.855.206 1.675.465 1.823l-19.538 11.354c-.258-.15-.467-.968-.464-1.823"/></clipPath><clipPath id="u" clipPathUnits="userSpaceOnUse"><path d="M163.433 452.924a.45.45 0 01.435-.003l-19.536 11.354a.449.449 0 00-.436.003z"/></clipPath><clipPath id="v" clipPathUnits="userSpaceOnUse"><path d="M129.597 444.19h35.371v24.284h-35.371z"/></clipPath><clipPath id="w" clipPathUnits="userSpaceOnUse"><path d="M130.697 457.952c.002-.679.135-1.181.319-1.288l19.537-11.353c-.184.106-.318.608-.319 1.287-.002.855.206 1.675.465 1.823l-19.538 11.354c-.258-.15-.467-.968-.464-1.823"/></clipPath><clipPath id="x" clipPathUnits="userSpaceOnUse"><path d="M136.12 471.768c-.765 0-1.452 0-2.069-.008-.964-.061-5.141-.589-5.402-5.149-.012-.681-.012-1.453-.012-2.326v-22.45c0-.773 0-1.466.008-2.088.067-1 .618-5.125 5.149-5.383.681-.012 1.452-.012 2.326-.012h22.45c.772 0 1.464 0 2.085.008.997.066 5.149.617 5.388 5.185.007.453.01.945.011 1.48v24.07c-.001.445-.003.862-.008 1.25-.059.949-.577 5.164-5.174 5.412-.674.011-1.436.011-2.296.011z"/></clipPath><clipPath id="y" clipPathUnits="userSpaceOnUse"><path d="M130.7 456.272l20.157-11.714c-1.48 1.011-.085 3.949-.012 4.102l-20.156 11.714c-.074-.154-1.469-3.091.011-4.102"/></clipPath><clipPath id="z" clipPathUnits="userSpaceOnUse"><path d="M136.12 471.768c-.765 0-1.452 0-2.069-.008-.964-.061-5.141-.589-5.402-5.149-.012-.681-.012-1.453-.012-2.326v-22.45c0-.773 0-1.466.008-2.088.067-1 .618-5.125 5.149-5.383.681-.012 1.452-.012 2.326-.012h22.45c.772 0 1.464 0 2.085.008.997.066 5.149.617 5.388 5.185.007.453.01.945.011 1.48v24.07c-.001.445-.003.862-.008 1.25-.059.949-.577 5.164-5.174 5.412-.674.011-1.436.011-2.296.011z"/></clipPath><clipPath id="A" clipPathUnits="userSpaceOnUse"><path d="M130.7 456.272l20.157-11.714c-1.48 1.011-.085 3.949-.012 4.102l-20.156 11.714c-.074-.154-1.469-3.091.011-4.102"/></clipPath><clipPath id="B" clipPathUnits="userSpaceOnUse"><path d="M136.12 471.768c-.765 0-1.452 0-2.069-.008-.964-.061-5.141-.589-5.402-5.149-.012-.681-.012-1.453-.012-2.326v-22.45c0-.773 0-1.466.008-2.088.067-1 .618-5.125 5.149-5.383.681-.012 1.452-.012 2.326-.012h22.45c.772 0 1.464 0 2.085.008.997.066 5.149.617 5.388 5.185.007.453.01.945.011 1.48v24.07c-.001.445-.003.862-.008 1.25-.059.949-.577 5.164-5.174 5.412-.674.011-1.436.011-2.296.011z"/></clipPath><clipPath id="C" clipPathUnits="userSpaceOnUse"><path d="M130.7 456.272l20.157-11.714c-1.48 1.011-.085 3.949-.012 4.102l-20.156 11.714c-.074-.154-1.469-3.091.011-4.102"/></clipPath><clipPath id="D" clipPathUnits="userSpaceOnUse"><path d="M136.12 471.768c-.765 0-1.452 0-2.069-.008-.964-.061-5.141-.589-5.402-5.149-.012-.681-.012-1.453-.012-2.326v-22.45c0-.773 0-1.466.008-2.088.067-1 .618-5.125 5.149-5.383.681-.012 1.452-.012 2.326-.012h22.45c.772 0 1.464 0 2.085.008.997.066 5.149.617 5.388 5.185.007.453.01.945.011 1.48v24.07c-.001.445-.003.862-.008 1.25-.059.949-.577 5.164-5.174 5.412-.674.011-1.436.011-2.296.011z"/></clipPath><clipPath id="E" clipPathUnits="userSpaceOnUse"><path d="M130.512 444.375h34.595v20.783h-34.595z"/></clipPath><clipPath id="H" clipPathUnits="userSpaceOnUse"><path d="M130.952 444.815h33.715v19.903h-33.715z"/></clipPath><clipPath id="G" clipPathUnits="userSpaceOnUse"><path d="M130.952 464.718h33.715v-19.903h-33.715z"/></clipPath><clipPath id="F" clipPathUnits="userSpaceOnUse"><path d="M136.12 471.768c-.765 0-1.452 0-2.069-.008-.964-.061-5.141-.589-5.402-5.149-.012-.681-.012-1.453-.012-2.326v-22.45c0-.773 0-1.466.008-2.088.067-1 .618-5.125 5.149-5.383.681-.012 1.452-.012 2.326-.012h22.45c.772 0 1.464 0 2.085.008.997.066 5.149.617 5.388 5.185.007.453.01.945.011 1.48v24.07c-.001.445-.003.862-.008 1.25-.059.949-.577 5.164-5.174 5.412-.674.011-1.436.011-2.296.011z"/></clipPath><clipPath id="I" clipPathUnits="userSpaceOnUse"><path d="M163.433 452.924a.45.45 0 01.435-.003l-19.536 11.354a.449.449 0 00-.436.003z"/></clipPath><clipPath id="J" clipPathUnits="userSpaceOnUse"><path d="M130.477 445.07h33.612v22.523h-33.612z"/></clipPath><clipPath id="K" clipPathUnits="userSpaceOnUse"><path d="M130.697 457.952c.002-.679.135-1.181.319-1.288l19.537-11.353c-.184.106-.318.608-.319 1.287-.002.855.206 1.675.465 1.823l-19.538 11.354c-.258-.15-.467-.968-.464-1.823"/></clipPath><clipPath id="X" clipPathUnits="userSpaceOnUse"><path d="M130.697 445.311h33.163v14.464h-33.163z"/></clipPath><clipPath id="W" clipPathUnits="userSpaceOnUse"><path d="M130.697 459.775h33.163v-14.464h-33.163z"/></clipPath><clipPath id="V" clipPathUnits="userSpaceOnUse"><path d="M131.161 459.775c-.255-.148-.462-.948-.464-1.793v-.03c.002-.679.135-1.181.319-1.288l19.537-11.353c-.184.106-.318.608-.319 1.287-.002.855.206 1.675.465 1.823z"/></clipPath><clipPath id="U" clipPathUnits="userSpaceOnUse"><path d="M130.697 459.775h33.163v-14.464h-33.163z"/></clipPath><clipPath id="T" clipPathUnits="userSpaceOnUse"><path d="M130.697 445.29h33.172v22.084h-33.172z"/></clipPath><clipPath id="R" clipPathUnits="userSpaceOnUse"><path d="M143.896 452.867h19.973v11.411h-19.973z"/></clipPath><clipPath id="Q" clipPathUnits="userSpaceOnUse"><path d="M143.896 464.278h19.973v-11.411h-19.973z"/></clipPath><clipPath id="P" clipPathUnits="userSpaceOnUse"><path d="M143.896 464.278l19.537-11.354a.45.45 0 01.435-.003l-19.536 11.354a.449.449 0 00-.436.003z"/></clipPath><clipPath id="O" clipPathUnits="userSpaceOnUse"><path d="M143.896 464.278h19.973v-11.411h-19.973z"/></clipPath><clipPath id="N" clipPathUnits="userSpaceOnUse"><path d="M130.697 445.29h33.172v22.084h-33.172z"/></clipPath><clipPath id="M" clipPathUnits="userSpaceOnUse"><path d="M130.697 467.374h33.172V445.29h-33.172z"/></clipPath><clipPath id="L" clipPathUnits="userSpaceOnUse"><path d="M136.12 471.768c-.765 0-1.452 0-2.069-.008-.964-.061-5.141-.589-5.402-5.149-.012-.681-.012-1.453-.012-2.326v-22.45c0-.773 0-1.466.008-2.088.067-1 .618-5.125 5.149-5.383.681-.012 1.452-.012 2.326-.012h22.45c.772 0 1.464 0 2.085.008.997.066 5.149.617 5.388 5.185.007.453.01.945.011 1.48v24.07c-.001.445-.003.862-.008 1.25-.059.949-.577 5.164-5.174 5.412-.674.011-1.436.011-2.296.011z"/></clipPath><clipPath id="aa" clipPathUnits="userSpaceOnUse"><path d="M130.023 460.375h20.834v-15.817h-20.834z"/></clipPath><clipPath id="av" clipPathUnits="userSpaceOnUse"><path d="M136.887 454.318c2.51-3.365-.893-9.76-.893-9.76 2.506 4.643 6.309 3.963 6.309 3.963 4.273 6.202 10.444 11.853 10.444 11.853-16.405-10.074-9.811 2.227-9.811 2.227-4.18-2.96-6.049-8.283-6.049-8.283"/></clipPath><clipPath id="a" clipPathUnits="userSpaceOnUse"><path d="M-14289.2 14851.7H14546v-28835.2h-28835.2z"/></clipPath><clipPath id="ad" clipPathUnits="userSpaceOnUse"><path d="M131.386 460.662l19.722-11.48c-19.73 11.514-6.632 19.029-6.632 19.029z"/></clipPath><clipPath id="c" clipPathUnits="userSpaceOnUse"><path d="M-14289.2 14851.7H14546v-28835.2h-28835.2z"/></clipPath><clipPath id="ag" clipPathUnits="userSpaceOnUse"><path d="M130.952 456.405c-3.654 4.868 19.567-7.84 19.647-7.884l-19.647 11.44c-1.681-2.309 0-3.556 0-3.556"/></clipPath><clipPath id="e" clipPathUnits="userSpaceOnUse"><path d="M-14289.2 14851.7H14546v-28835.2h-28835.2z"/></clipPath><clipPath id="aj" clipPathUnits="userSpaceOnUse"><path d="M147.363 466.404l-.018.01.018-.01m.005-.002a.017.017 0 01-.005.002zm.018-.011l-.018.011.018-.011m.03-.018a.593.593 0 01-.03.018zm9.635-13.507l6.817 4.024-16.452 9.483c1.176-.681 16.281-9.587 9.635-13.507"/></clipPath><clipPath id="i" clipPathUnits="userSpaceOnUse"><path d="M-14289.2 14851.7H14546v-28835.2h-28835.2z"/></clipPath><clipPath id="am" clipPathUnits="userSpaceOnUse"><path d="M150.799 448.589c.031.045.046.071.046.071l-.046-.071m-6.427-.168l6.327-3.605s-1.523 1.175.1 3.773c-.294-.437-2.056-2.622-6.427-.168"/></clipPath><clipPath id="ap" clipPathUnits="userSpaceOnUse"><path d="M136.12 471.768c-.765 0-1.452 0-2.069-.008-.964-.061-5.141-.589-5.402-5.149-.012-.681-.012-1.453-.012-2.326v-22.45c0-.773 0-1.466.008-2.088.067-1 .618-5.125 5.149-5.383.681-.012 1.452-.012 2.326-.012h22.45c.772 0 1.464 0 2.085.008.997.066 5.149.617 5.388 5.185.007.453.01.945.011 1.48v24.07c-.001.445-.003.862-.008 1.25-.059.949-.577 5.164-5.174 5.412-.674.011-1.436.011-2.296.011z"/></clipPath><clipPath id="ar" clipPathUnits="userSpaceOnUse"><path d="M136.12 471.768c-.765 0-1.452 0-2.069-.008-.964-.061-5.141-.589-5.402-5.149-.012-.681-.012-1.453-.012-2.326v-22.45c0-.773 0-1.466.008-2.088.067-1 .618-5.125 5.149-5.383.681-.012 1.452-.012 2.326-.012h22.45c.772 0 1.464 0 2.085.008.997.066 5.149.617 5.388 5.185.007.453.01.945.011 1.48v24.07c-.001.445-.003.862-.008 1.25-.059.949-.577 5.164-5.174 5.412-.674.011-1.436.011-2.296.011z"/></clipPath><clipPath id="k" clipPathUnits="userSpaceOnUse"><path d="M-14289.2 14851.7H14546v-28835.2h-28835.2z"/></clipPath><clipPath id="as" clipPathUnits="userSpaceOnUse"><path d="M158.169 469.258c-.638-.177-12.465-3.538-16.595-8.47-1.464-1.749-3.303-4.049-4.687-6.47l.035-2.79-.977.273c.964-3.576.802-3.291.658-3.65l-.279-.647h-.677c-.327 0-.567.075-1 .538a10.779 10.779 0 01.412-4.513c1.472.409 3.829 1.267 5.319 2.552l-1.325.294-.737 1.487 3.869.485c.394.579.794 1.189 1.211 1.827 1.405 2.144 2.998 4.575 4.912 6.542 2.408 2.474 5.414 4.351 8.066 6.006.483.302.951.593 1.4.879-1.31 1.148-1.536 1.49-1.3 2.129.147.395.53.661.954.661l.167-.005.134-.038c.083-.024.219-.063.85-.351.087.194.234.36.425.472.174.101.372.153.593.153.223 0 .557-.035 1.638-.409.13.141.243.278.339.409.243.554.574 1.739.201 2.327-.286.452-1.056.548-1.651.548-.55 0-1.207-.08-1.955-.239"/></clipPath><clipPath id="az" clipPathUnits="userSpaceOnUse"><path d="M136.12 471.768c-.765 0-1.452 0-2.069-.008-.964-.061-5.141-.589-5.402-5.149-.012-.681-.012-1.453-.012-2.326v-22.45c0-.773 0-1.466.008-2.088.067-1 .618-5.125 5.149-5.383.681-.012 1.452-.012 2.326-.012h22.45c.772 0 1.464 0 2.085.008.997.066 5.149.617 5.388 5.185.007.453.01.945.011 1.48v24.07c-.001.445-.003.862-.008 1.25-.059.949-.577 5.164-5.174 5.412-.674.011-1.436.011-2.296.011z"/></clipPath><linearGradient id="b" spreadMethod="pad" gradientTransform="scale(14.59415 -14.59415) rotate(-45 -32.688 -27.028)" gradientUnits="userSpaceOnUse" y2="0" x2="1" y1="0" x1="0"><stop offset="0" stop-opacity="0" stop-color="#fff"/><stop offset="1" stop-color="#fff"/></linearGradient><linearGradient id="ay" spreadMethod="pad" gradientTransform="matrix(0 31.11494 31.11494 0 145.98 437.595)" gradientUnits="userSpaceOnUse" y2="0" x2="1" y1="0" x1="0"><stop offset="0" stop-color="#fff"/><stop offset=".523" stop-color="#d3d2d2"/><stop offset="1" stop-color="#d3d2d2"/></linearGradient><linearGradient id="l" spreadMethod="pad" gradientTransform="scale(10.1035 -10.1035) rotate(45 62.255 -5.813)" gradientUnits="userSpaceOnUse" y2="0" x2="1" y1="0" x1="0"><stop offset="0" stop-color="#fff"/><stop offset="1" stop-opacity="0" stop-color="#fff"/></linearGradient><linearGradient id="au" spreadMethod="pad" gradientTransform="scale(10.1035 -10.1035) rotate(45 62.255 -5.813)" gradientUnits="userSpaceOnUse" y2="0" x2="1" y1="0" x1="0"><stop offset="0" stop-color="#bddae6"/><stop offset="1" stop-color="#bddae6"/></linearGradient><linearGradient id="aq" spreadMethod="pad" gradientTransform="matrix(0 28.15074 28.15074 0 148.258 442.344)" gradientUnits="userSpaceOnUse" y2="0" x2="1" y1="0" x1="0"><stop offset="0" stop-color="#d3d2d2"/><stop offset="1" stop-color="#fff"/></linearGradient><linearGradient id="j" spreadMethod="pad" gradientTransform="scale(4.74614 -4.74614) rotate(-45 -97.946 -84.33)" gradientUnits="userSpaceOnUse" y2="0" x2="1" y1="0" x1="0"><stop offset="0" stop-color="#fff"/><stop offset="1" stop-opacity="0" stop-color="#fff"/></linearGradient><linearGradient id="ao" spreadMethod="pad" gradientTransform="scale(4.74614 -4.74614) rotate(-45 -97.946 -84.33)" gradientUnits="userSpaceOnUse" y2="0" x2="1" y1="0" x1="0"><stop offset="0" stop-color="#351f17"/><stop offset="1" stop-color="#351f17"/></linearGradient><linearGradient id="f" spreadMethod="pad" gradientTransform="scale(7.66599 -7.66599) rotate(-45 -62.205 -53.795)" gradientUnits="userSpaceOnUse" y2="0" x2="1" y1="0" x1="0"><stop offset="0" stop-color="#fff"/><stop offset="1" stop-opacity="0" stop-color="#fff"/></linearGradient><linearGradient id="al" spreadMethod="pad" gradientTransform="scale(7.66599 -7.66599) rotate(-45 -62.205 -53.795)" gradientUnits="userSpaceOnUse" y2="0" x2="1" y1="0" x1="0"><stop offset="0" stop-color="#351f17"/><stop offset="1" stop-color="#351f17"/></linearGradient><linearGradient id="m" spreadMethod="pad" gradientTransform="matrix(0 37.41692 37.41692 0 147.345 434.352)" gradientUnits="userSpaceOnUse" y2="0" x2="1" y1="0" x1="0"><stop offset="0" stop-color="#fff"/><stop offset=".523" stop-color="#bf935b"/><stop offset="1" stop-color="#bf935b"/></linearGradient><linearGradient id="d" spreadMethod="pad" gradientTransform="scale(21.98198 -21.98198) rotate(45 28.327 -3.234)" gradientUnits="userSpaceOnUse" y2="0" x2="1" y1="0" x1="0"><stop offset="0" stop-opacity=".3" stop-color="#fff"/><stop offset="1" stop-opacity="0" stop-color="#fff"/></linearGradient><linearGradient id="ai" spreadMethod="pad" gradientTransform="scale(21.98198 -21.98198) rotate(45 28.327 -3.234)" gradientUnits="userSpaceOnUse" y2="0" x2="1" y1="0" x1="0"><stop offset="0" stop-color="#bf935b"/><stop offset="1" stop-color="#bf935b"/></linearGradient><linearGradient id="h" spreadMethod="pad" gradientTransform="scale(22.07361 -22.07361) rotate(-60 -14.317 -15.43)" gradientUnits="userSpaceOnUse" y2="0" x2="1" y1="0" x1="0"><stop offset="0" stop-opacity="0" stop-color="#fff"/><stop offset=".466" stop-opacity="0" stop-color="#fff"/><stop offset="1" stop-color="#fff"/></linearGradient><linearGradient id="af" spreadMethod="pad" gradientTransform="scale(14.59414 -14.59414) rotate(-45 -32.688 -27.028)" gradientUnits="userSpaceOnUse" y2="0" x2="1" y1="0" x1="0"><stop offset="0" stop-color="#bf935b"/><stop offset="1" stop-color="#bf935b"/></linearGradient><linearGradient id="ab" spreadMethod="pad" gradientTransform="matrix(20.83459 0 0 -20.83459 130.023 452.466)" gradientUnits="userSpaceOnUse" y2="0" x2="1" y1="0" x1="0"><stop offset="0" stop-color="#5a3114"/><stop offset="1" stop-color="#855333"/></linearGradient><linearGradient id="ac" spreadMethod="pad" gradientTransform="matrix(0 15.8167 15.8167 0 140.44 444.558)" gradientUnits="userSpaceOnUse" y2="0" x2="1" y1="0" x1="0"><stop offset="0" stop-color="#5a3114"/><stop offset="1" stop-color="#855333"/></linearGradient><linearGradient id="Y" spreadMethod="pad" gradientTransform="scale(26.58748 -26.58748) rotate(45 23.856 -2.52)" gradientUnits="userSpaceOnUse" y2="0" x2="1" y1="0" x1="0"><stop offset="0" stop-color="#855333"/><stop offset=".373" stop-color="#855333"/><stop offset="1" stop-color="#6f4324"/></linearGradient><linearGradient id="S" spreadMethod="pad" gradientTransform="matrix(13.63477 0 0 -13.63477 150.234 450.655)" gradientUnits="userSpaceOnUse" y2="0" x2="1" y1="0" x1="0"><stop offset="0" stop-color="#bdbcbc"/><stop offset=".627" stop-color="#fff"/><stop offset="1" stop-color="#fff"/></linearGradient><linearGradient id="ax" spreadMethod="pad" gradientTransform="scale(22.07361 -22.07361) rotate(-60 -14.317 -15.43)" gradientUnits="userSpaceOnUse" y2="0" x2="1" y1="0" x1="0"><stop offset="0" stop-color="#fff"/><stop offset=".466" stop-color="#fff"/><stop offset="1" stop-color="#fff"/></linearGradient><mask id="ae" height="1" width="1" y="0" x="0" maskUnits="userSpaceOnUse"><g clip-path="url(#a)"><path d="M121.864 458.697l19.379 19.38 19.38-19.38-19.38-19.38z" fill="url(#b)"/></g></mask><mask id="ah" height="1" width="1" y="0" x="0" maskUnits="userSpaceOnUse"><g clip-path="url(#c)"><path d="M138.945 472.936l18.034-18.034-18.034-18.034-18.034 18.034z" fill="url(#d)"/></g></mask><mask id="ak" height="1" width="1" y="0" x="0" maskUnits="userSpaceOnUse"><g clip-path="url(#e)"><path d="M140.571 459.641l15.036 15.035 15.035-15.035-15.035-15.036z" fill="url(#f)"/></g></mask><mask id="aw" height="1" width="1" y="0" x="0" maskUnits="userSpaceOnUse"><g clip-path="url(#g)"><path d="M128.182 449.069l12.001 20.786 20.377-11.765-12.001-20.786z" fill="url(#h)"/></g></mask><mask id="an" height="1" width="1" y="0" x="0" maskUnits="userSpaceOnUse"><g clip-path="url(#i)"><path d="M142.449 446.738l5.16 5.159 5.159-5.159-5.159-5.159z" fill="url(#j)"/></g></mask><mask id="at" height="1" width="1" y="0" x="0" maskUnits="userSpaceOnUse"><g clip-path="url(#k)"><path d="M148.307 483.337l26.825-26.824-26.825-26.825-26.824 26.825z" fill="url(#l)"/></g></mask></defs><path d="M136.12 471.768c-.765 0-1.452 0-2.069-.008-.964-.061-5.142-.589-5.402-5.151a124.94 124.94 0 01-.012-2.117v-22.921c0-.667 0-1.273.008-1.822.067-.998.616-5.126 5.149-5.386.681-.011 1.453-.011 2.326-.011h22.45c.772 0 1.464 0 2.085.008.998.066 5.148.616 5.388 5.185.007.453.01.945.011 1.48v24.07c-.001.445-.003.861-.008 1.249-.058.949-.577 5.165-5.175 5.413-.675.011-1.436.011-2.298.011z" fill="url(#m)" transform="matrix(.62165 0 0 -.62815 -78.368 297.82)"/><g clip-path="url(#n)" transform="matrix(.62165 0 0 -.62815 -78.368 297.82)" fill="none" stroke="#e3c99c" stroke-width="2.2" stroke-linecap="round" stroke-linejoin="round"><path d="M164.666 453.004l.001-.36-13.557-7.829v.361zm-13.556-8.189l-20.157 11.714-.001.361 20.157-11.714zm-.001.362l-20.157 11.714 13.557 7.828 20.157-11.714z"/><path d="M164.666 453.004l.001-.36-13.557-7.829v.361zm-13.556-8.189l-20.157 11.714-.001.361 20.157-11.714zm-.001.362l-20.157 11.714 13.557 7.828 20.157-11.714z"/><path d="M164.666 453.004l.001-.36-13.557-7.829v.361zm-13.556-8.189l-20.157 11.714-.001.361 20.157-11.714zm-.001.362l-20.157 11.714 13.557 7.828 20.157-11.714z"/></g><g clip-path="url(#o)" transform="matrix(.62165 0 0 -.62815 -78.368 297.82)"><path d="M163.433 452.924l-19.537 11.354a.449.449 0 01.436-.003l19.537-11.354a.452.452 0 00-.436.003" fill="none" stroke="#e3c99c" stroke-width="2.2" stroke-linecap="round" stroke-linejoin="round"/></g><g clip-path="url(#p)" transform="matrix(.62165 0 0 -.62815 -78.368 297.82)"><path d="M150.699 448.422l-19.537 11.354 13.16 7.598 19.538-11.353zm13.161 7.598c-.464-.326-.83-1.206-.828-2.033.003-.826.373-1.285.837-1.066l-13.162-7.608c-.258-.149-.471.426-.473 1.285-.003.855.206 1.675.465 1.823z" fill="none" stroke="#e3c99c" stroke-width="2.2" stroke-linecap="round" stroke-linejoin="round"/></g><g clip-path="url(#q)" transform="matrix(.62165 0 0 -.62815 -78.368 297.82)"><path d="M150.553 445.31c-.183.107-.317.61-.32 1.288-.001.856-19.071 13.177-19.071 13.177-.258-.15-.467-.968-.465-1.823.002-.68.136-1.181.319-1.287l19.537-11.354s-1.402 2.533 12.632 9.637c0 0 .275.55.675 1.073l-14.764-8.05" fill="none" stroke="#e3c99c" stroke-width="2.2" stroke-linecap="round" stroke-linejoin="round"/></g><g clip-path="url(#r)" transform="matrix(.62165 0 0 -.62815 -78.368 297.82)"><path d="M163.433 452.924l-19.537 11.354a.449.449 0 01.436-.003l19.537-11.354a.452.452 0 00-.436.003" fill="none" stroke="#e3c99c" stroke-width="2.2" stroke-linecap="round" stroke-linejoin="round"/></g><g clip-path="url(#s)" transform="matrix(.62165 0 0 -.62815 -78.368 297.82)"><path d="M150.699 448.422l-19.537 11.354 13.16 7.598 19.538-11.353zm13.161 7.598c-.464-.326-.83-1.206-.828-2.033.003-.826.373-1.285.837-1.066l-13.162-7.608c-.258-.149-.471.426-.473 1.285-.003.855.206 1.675.465 1.823z" fill="none" stroke="#e3c99c" stroke-width="2.2" stroke-linecap="round" stroke-linejoin="round"/></g><g clip-path="url(#t)" transform="matrix(.62165 0 0 -.62815 -78.368 297.82)"><path d="M150.553 445.31c-.183.107-.317.61-.32 1.288-.001.856-19.071 13.177-19.071 13.177-.258-.15-.467-.968-.465-1.823.002-.68.136-1.181.319-1.287l19.537-11.354s-1.402 2.533 12.632 9.637c0 0 .275.55.675 1.073l-14.764-8.05" fill="none" stroke="#e3c99c" stroke-width="2.2" stroke-linecap="round" stroke-linejoin="round"/></g><g clip-path="url(#u)" transform="matrix(.62165 0 0 -.62815 -78.368 297.82)"><path d="M163.433 452.924l-19.537 11.354a.449.449 0 01.436-.003l19.537-11.354a.452.452 0 00-.436.003" fill="none" stroke="#e3c99c" stroke-width="2.2" stroke-linecap="round" stroke-linejoin="round"/></g><g clip-path="url(#v)" transform="matrix(.62165 0 0 -.62815 -78.368 297.82)"><path d="M150.699 448.422l-19.537 11.354 13.16 7.598 19.538-11.353zm13.161 7.598c-.464-.326-.83-1.206-.828-2.033.003-.826.373-1.285.837-1.066l-13.162-7.608c-.258-.149-.471.426-.473 1.285-.003.855.206 1.675.465 1.823z" fill="none" stroke="#e3c99c" stroke-width="2.2" stroke-linecap="round" stroke-linejoin="round"/></g><g clip-path="url(#w)" transform="matrix(.62165 0 0 -.62815 -78.368 297.82)"><path d="M150.553 445.31c-.183.107-.317.61-.32 1.288-.001.856-19.071 13.177-19.071 13.177-.258-.15-.467-.968-.465-1.823.002-.68.136-1.181.319-1.287l19.537-11.354s-1.402 2.533 12.632 9.637c0 0 .275.55.675 1.073l-14.764-8.05" fill="none" stroke="#e3c99c" stroke-width="2.2" stroke-linecap="round" stroke-linejoin="round"/></g><g clip-path="url(#x)" transform="matrix(.62165 0 0 -.62815 -78.368 297.82)" fill="none" stroke="#e3c99c" stroke-width="2.2" stroke-linecap="round" stroke-linejoin="round"><path d="M151.108 448.687l13.557 7.827v.359l-20.157 11.713-13.558-7.827a.667.667 0 00-.079-.177l-.009-.012c-.007-.01-.013-.016-.02-.024a.28.28 0 00-.06-.053.166.166 0 00-.063-.022h-.032a6.775 6.775 0 01-.217-.51l-.016-.044-.013-.033-.067-.188-.029-.084-.056-.175-.03-.097a9.616 9.616 0 01-.064-.233l-.014-.05-.006-.024c-.01-.038-.017-.078-.025-.117a4.457 4.457 0 01-.045-.207l-.024-.147c-.01-.07-.022-.138-.03-.208-.007-.051-.01-.101-.014-.152a3.59 3.59 0 01-.012-.358 2.704 2.704 0 01.066-.542c.011-.046.021-.091.035-.135a2 2 0 01.074-.186c.018-.04.033-.08.054-.118.035-.063.08-.122.123-.18.023-.03.041-.061.065-.088.074-.083.158-.16.256-.227l20.157-11.714.263.4c-.06.048-1.195.95-.01 3.633z"/><path d="M144.51 468.49l-13.558-7.828 20.158-11.714 13.557 7.828z"/></g><g clip-path="url(#y)" transform="matrix(.62165 0 0 -.62815 -78.368 297.82)"><path d="M150.334 447.223c.088.354.198.678.296.93.108.282.198.472.215.508l-20.156 11.714a8.247 8.247 0 01-.513-1.438c-.233-.944-.299-2.102.524-2.665l20.157-11.714c-.823.562-.757 1.72-.523 2.665z" fill="none" stroke="#e3c99c" stroke-width="2.2" stroke-linecap="round" stroke-linejoin="round"/></g><g clip-path="url(#z)" transform="matrix(.62165 0 0 -.62815 -78.368 297.82)" fill="none" stroke="#e3c99c" stroke-width="2.2" stroke-linecap="round" stroke-linejoin="round"><path d="M151.11 448.59l13.557 7.828v.359l-13.558-7.83-20.157 11.716a.667.667 0 00-.079-.177l-.009-.012c-.007-.01-.013-.016-.02-.024a.28.28 0 00-.061-.053.166.166 0 00-.062-.022h-.032l20.156-11.715c-.073-.153-1.468-3.09.012-4.102l.263.4c-.06.049-1.195.95-.01 3.633z"/><path d="M144.51 468.49l-13.558-7.828 20.158-11.714 13.557 7.828z"/></g><g clip-path="url(#A)" transform="matrix(.62165 0 0 -.62815 -78.368 297.82)"><path d="M150.334 447.223c.088.354.198.678.296.93.108.282.198.472.215.508l-20.156 11.714a8.247 8.247 0 01-.513-1.438c-.233-.944-.299-2.102.524-2.665l20.157-11.714c-.823.562-.757 1.72-.523 2.665z" fill="none" stroke="#e3c99c" stroke-width="2.2" stroke-linecap="round" stroke-linejoin="round"/></g><g clip-path="url(#B)" transform="matrix(.62165 0 0 -.62815 -78.368 297.82)" fill="none" stroke="#e3c99c" stroke-width="2.2" stroke-linecap="round" stroke-linejoin="round"><path d="M151.11 448.59l13.557 7.828v.359l-13.558-7.83-20.157 11.716a.667.667 0 00-.079-.177l-.009-.012c-.007-.01-.013-.016-.02-.024a.28.28 0 00-.061-.053.166.166 0 00-.062-.022h-.032l20.156-11.715c-.073-.153-1.468-3.09.012-4.102l.263.4c-.06.049-1.195.95-.01 3.633z"/><path d="M144.51 468.49l-13.558-7.828 20.158-11.714 13.557 7.828z"/></g><g clip-path="url(#C)" transform="matrix(.62165 0 0 -.62815 -78.368 297.82)"><path d="M150.334 447.223c.088.354.198.678.296.93.108.282.198.472.215.508l-20.156 11.714a8.247 8.247 0 01-.513-1.438c-.233-.944-.299-2.102.524-2.665l20.157-11.714c-.823.562-.757 1.72-.523 2.665z" fill="none" stroke="#e3c99c" stroke-width="2.2" stroke-linecap="round" stroke-linejoin="round"/></g><g clip-path="url(#D)" transform="matrix(.62165 0 0 -.62815 -78.368 297.82)" fill="none" stroke="#e3c99c" stroke-width="2.2" stroke-linecap="round" stroke-linejoin="round"><path d="M151.11 448.59l13.557 7.828v.359l-13.558-7.83-20.157 11.716a.667.667 0 00-.079-.177l-.009-.012c-.007-.01-.013-.016-.02-.024a.28.28 0 00-.061-.053.166.166 0 00-.062-.022h-.032l20.156-11.715c-.073-.153-1.468-3.09.012-4.102l.263.4c-.06.049-1.195.95-.01 3.633z"/><path d="M151.109 449.182l-19.722 11.48 13.089 7.55s-13.098-7.517 6.633-19.03zm-20.157 7.223s-1.681 1.247 0 3.557l19.647-11.44s-23.308 12.76-19.647 7.883zm26.099-3.538l6.817 4.024-16.523 9.524s16.618-9.471 9.706-13.548z"/><path d="M144.372 448.422l6.327-3.606s-1.55 1.197.146 3.845c0 0-1.645-2.95-6.473-.24z"/></g><g clip-path="url(#E)" transform="matrix(.62165 0 0 -.62815 -78.368 297.82)"><path d="M164.666 453.004l.001-.36-13.557-7.829v.361zm-13.556-8.189l-20.157 11.714-.001.361 20.157-11.714zm-.001.362l-20.157 11.714 13.557 7.828 20.157-11.714z" fill="none" stroke="#351f17" stroke-width=".88" stroke-linecap="round" stroke-linejoin="round"/></g><g clip-path="url(#F)" transform="matrix(.62165 0 0 -.62815 -78.368 297.82)"><g clip-path="url(#G)"><g clip-path="url(#H)"><path d="M164.666 453.004l.001-.36-13.557-7.829v.361z" fill="#6b4228"/><path d="M151.11 444.815l-20.157 11.714-.001.361 20.157-11.714z" fill="#51311c"/><path d="M151.109 445.177l-20.157 11.714 13.557 7.828 20.157-11.714z" fill="#75482c"/></g></g></g><g clip-path="url(#I)" transform="matrix(.62165 0 0 -.62815 -78.368 297.82)"><path d="M163.433 452.924l-19.537 11.354a.449.449 0 01.436-.003l19.537-11.354a.452.452 0 00-.436.003" fill="none" stroke="#918f90" stroke-width=".44" stroke-linecap="round" stroke-linejoin="round"/></g><g clip-path="url(#J)" transform="matrix(.62165 0 0 -.62815 -78.368 297.82)"><path d="M150.699 448.422l-19.537 11.354 13.16 7.598 19.538-11.353zm13.161 7.598c-.464-.326-.83-1.206-.828-2.033.003-.826.373-1.285.837-1.066l-13.162-7.608c-.258-.149-.471.426-.473 1.285-.003.855.206 1.675.465 1.823z" fill="none" stroke="#918f90" stroke-width=".44" stroke-linecap="round" stroke-linejoin="round"/></g><g clip-path="url(#K)" transform="matrix(.62165 0 0 -.62815 -78.368 297.82)"><path d="M150.553 445.31c-.183.107-.317.61-.32 1.288-.001.856-19.071 13.177-19.071 13.177-.258-.15-.467-.968-.465-1.823.002-.68.136-1.181.319-1.287l19.537-11.354s-1.402 2.533 12.632 9.637c0 0 .275.55.675 1.073l-14.764-8.05" fill="none" stroke="#918f90" stroke-width=".44" stroke-linecap="round" stroke-linejoin="round"/></g><g clip-path="url(#L)" transform="matrix(.62165 0 0 -.62815 -78.368 297.82)"><g clip-path="url(#M)"><g clip-path="url(#N)"><g clip-path="url(#O)"><g clip-path="url(#P)"><g clip-path="url(#Q)"><g clip-path="url(#R)"><path d="M163.433 452.924l-19.537 11.354a.449.449 0 01.436-.003l19.537-11.354a.452.452 0 00-.436.003" fill="#959394"/></g></g></g></g><path d="M150.699 448.422l-19.537 11.354 13.16 7.598 19.538-11.353z" fill="#999797"/></g><path d="M150.699 448.421c-.259-.148-.467-.968-.465-1.823.002-.761.17-1.301.388-1.309h.01c.024.001.05.008.076.024l13.16 7.608c-.463-.219-.833.24-.836 1.066-.001.827.365 1.707.828 2.033z" fill="url(#S)"/><g clip-path="url(#T)"><g clip-path="url(#U)"><g clip-path="url(#V)"><g clip-path="url(#W)"><g clip-path="url(#X)"><path d="M150.553 445.31c-.183.107-.317.61-.32 1.288-.001.856-19.071 13.177-19.071 13.177-.258-.15-.467-.968-.465-1.823.002-.68.136-1.181.319-1.287l19.537-11.354s-1.402 2.533 12.632 9.637c0 0 .275.55.675 1.073l-14.764-8.05" fill="#959394"/></g></g></g></g></g></g><path d="M151.108 448.687l13.557 7.827v.359l-20.157 11.713-13.558-7.827a.667.667 0 00-.079-.177l-.009-.012c-.007-.01-.013-.016-.02-.024a.28.28 0 00-.06-.053.166.166 0 00-.063-.022h-.032a6.775 6.775 0 01-.217-.51l-.016-.044-.013-.033-.067-.188-.029-.084-.056-.175-.03-.097a9.616 9.616 0 01-.064-.233l-.014-.05-.006-.024c-.01-.038-.017-.078-.025-.117a4.457 4.457 0 01-.045-.207l-.024-.147c-.01-.07-.022-.138-.03-.208-.007-.051-.01-.101-.014-.152a3.59 3.59 0 01-.012-.358 2.704 2.704 0 01.066-.542c.011-.046.021-.091.035-.135a2 2 0 01.074-.186c.018-.04.033-.08.054-.118.035-.063.08-.122.123-.18.023-.03.041-.061.065-.088.074-.083.158-.16.256-.227l20.157-11.714.263.4c-.06.048-1.195.95-.01 3.633" fill="#58351f"/><path d="M151.108 448.687l13.557 7.827v.359l-20.157 11.713-13.558-7.827a.667.667 0 00-.079-.177l-.009-.012c-.007-.01-.013-.016-.02-.024a.28.28 0 00-.06-.053.166.166 0 00-.063-.022h-.032a6.775 6.775 0 01-.217-.51l-.016-.044-.013-.033-.067-.188-.029-.084-.056-.175-.03-.097a9.616 9.616 0 01-.064-.233l-.014-.05-.006-.024c-.01-.038-.017-.078-.025-.117a4.457 4.457 0 01-.045-.207l-.024-.147c-.01-.07-.022-.138-.03-.208-.007-.051-.01-.101-.014-.152a3.59 3.59 0 01-.012-.358 2.704 2.704 0 01.066-.542c.011-.046.021-.091.035-.135a2 2 0 01.074-.186c.018-.04.033-.08.054-.118.035-.063.08-.122.123-.18.023-.03.041-.061.065-.088.074-.083.158-.16.256-.227l20.157-11.714.263.4c-.06.048-1.195.95-.01 3.633z" fill="none" stroke="#351f17" stroke-width=".88" stroke-linecap="round" stroke-linejoin="round"/></g><path d="M130.953 460.662l20.156-11.713 13.557 7.827-20.156 11.714z" fill="url(#Y)" transform="matrix(.62165 0 0 -.62815 -78.368 297.82)"/><g clip-path="url(#Z)" transform="matrix(.62165 0 0 -.62815 -78.368 297.82)"><g clip-path="url(#aa)"><path d="M130.023 457.859v-.108c.01-.591.184-1.142.677-1.479l20.157-11.714c-1.48 1.011-.085 3.949-.012 4.102l-20.156 11.714c-.048-.1-.647-1.362-.666-2.515" fill="url(#ab)"/><path d="M130.023 457.833v-.053c.001-.136.011-.27.031-.401v-.003l.002-.015.001-.005.003-.015.001-.007a.05.05 0 00.002-.012l.002-.009.002-.011.002-.011.002-.009.002-.013a.03.03 0 01.002-.008l.004-.016.001-.004.009-.042.001-.004.004-.017.001-.005.005-.015v-.006a.06.06 0 00.005-.016l.001-.003.005-.018v-.002a.076.076 0 00.006-.02v-.001c.051-.166.123-.323.221-.463l.002-.001a.055.055 0 01.011-.017l.001-.001.011-.016.001-.002c.022-.027.044-.056.068-.082v-.001l.014-.016.002-.001.012-.014.003-.003.012-.012.003-.004.011-.011.004-.004.012-.012.003-.003.014-.014.001-.001.034-.029.001-.002.014-.013.005-.003c.004-.004.008-.008.012-.01l.005-.005a.052.052 0 00.011-.01l.007-.004.01-.009.007-.005.01-.008.008-.005a.106.106 0 01.011-.009l.006-.005a.05.05 0 00.013-.009l.005-.003.019-.013 20.156-11.714-.018.012a.036.036 0 01-.01.007l-.007.006-.012.008-.005.004c-.005.004-.008.007-.013.009l-.003.004-.014.01-.003.003-.014.011-.001.001c-.194.158-.33.354-.422.574l-.001.002-.005.015-.002.004-.005.014a.016.016 0 00-.003.006l-.005.012-.002.008-.005.011-.003.009-.004.009-.004.013-.001.006-.015.041v.001l-.006.02v.001c-.248.825.04 1.906.29 2.598l.01.029v.001l.006.014.001.002c.002.003.002.009.004.013l.001.002.004.009c.125.339.236.572.255.613l-20.156 11.714c-.048-.1-.656-1.38-.666-2.541" fill="url(#ac)"/></g><path d="M151.11 448.59l13.557 7.828v.359l-13.558-7.83-20.157 11.716a.667.667 0 00-.079-.177l-.009-.012c-.007-.01-.013-.016-.02-.024a.28.28 0 00-.061-.053.166.166 0 00-.062-.022h-.032l20.156-11.715c-.073-.153-1.468-3.09.012-4.102l.263.4c-.06.049-1.195.95-.01 3.633" fill="#58351f"/></g><g clip-path="url(#ad)" transform="matrix(.62165 0 0 -.62815 -78.368 297.82)"><g mask="url(#ae)"><path d="M131.386 460.662l19.722-11.48c-19.73 11.514-6.632 19.029-6.632 19.029z" fill="url(#af)"/></g></g><g clip-path="url(#ag)" transform="matrix(.62165 0 0 -.62815 -78.368 297.82)"><g mask="url(#ah)"><path d="M130.952 456.405c-3.654 4.868 19.567-7.84 19.647-7.884l-19.647 11.44c-1.681-2.309 0-3.556 0-3.556" fill="url(#ai)"/></g></g><g clip-path="url(#aj)" transform="matrix(.62165 0 0 -.62815 -78.368 297.82)"><g mask="url(#ak)"><path d="M147.363 466.404l-.018.01.018-.01m.005-.002a.017.017 0 01-.005.002zm.018-.011l-.018.011.018-.011m.03-.018a.593.593 0 01-.03.018zm9.635-13.507l6.817 4.024-16.452 9.483c1.176-.681 16.281-9.587 9.635-13.507" fill="url(#al)"/></g></g><g clip-path="url(#am)" transform="matrix(.62165 0 0 -.62815 -78.368 297.82)"><g mask="url(#an)"><path d="M150.799 448.589c.031.045.046.071.046.071l-.046-.071m-6.427-.168l6.327-3.605s-1.523 1.175.1 3.773c-.294-.437-2.056-2.622-6.427-.168" fill="url(#ao)"/></g></g><g clip-path="url(#ap)" transform="matrix(.62165 0 0 -.62815 -78.368 297.82)"><path d="M132.604 437.182c1.656-1.098 5.907-1.58 7.158.376.17.267.195.882.134 1.172-.453 2.137 2.69 1.646 3.763 1.494 2.125-.303 4.148-1.066 6.23-1.55 1.02-.239 2.742-.587 3.62.148.422.352-.634 1.376-.73 1.523-1.433 2.226 4.98 1.608 5.422 1.551 1.835-.237 3.273-.017 4.82 1.006.295.194.02.671-.277.475-3.1-2.048-6.46.166-9.71-1.185-.437-.182-1.048-.686-.98-1.237.147-1.159 1.434-1.932-.565-1.946-3.427-.023-6.955 2.676-10.452 1.832-.588-.14-1.698-.507-1.748-1.286-.2-3.125-4.388-3.237-6.407-1.898-.297.196-.572-.28-.278-.475" fill="#231f20"/></g><path d="M157.931 470.228s-12.645-3.452-17.122-8.8c-1.787-2.135-3.591-4.451-4.952-6.908l.259-2.054-.645 1.332a20.805 20.805 0 01-.694-1.497c.535-1.974.956-3.637.899-3.78-.069-.169-.805.781-1.575 1.848-.727-2.571-.773-5.258.318-8.025 0 0 5.369 1.117 7.492 3.904.109.144.218.291.327.441l-2.968.66h3.439c1.864 2.676 3.79 6.078 6.314 8.671 3.13 3.216 7.411 5.45 10.405 7.471-1.056.905-2.274 1.984-1.972 1.897.281-.08 1.642-.733 2.814-1.307.261.19.508.38.738.568-.874.421-1.677.854-1.498.96.146.085 1.001-.187 1.98-.547.384.353.706.704.953 1.06 0 0 2.1 4.372-2.318 4.372-.603 0-1.326-.081-2.194-.266" fill="url(#aq)" transform="matrix(.62165 0 0 -.62815 -78.368 297.82)"/><g clip-path="url(#ar)" transform="matrix(.62165 0 0 -.62815 -78.368 297.82)"><path d="M157.456 465.388c.282-.08 1.642-.733 2.814-1.307.261.19.508.38.738.568-.873.42-1.676.855-1.499.96.146.084 1.002-.188 1.98-.547.385.352.708.704.954 1.06 0 0 2.713 5.646-4.512 4.106 0 0-12.645-3.452-17.121-8.8-1.788-2.136-3.593-4.452-4.953-6.908l.259-2.054-.645 1.332a21.457 21.457 0 01-.694-1.497c.535-1.975.956-3.637.899-3.779-.068-.17-.805.78-1.575 1.847-.727-2.57-.773-5.258.318-8.025 0 0 5.369 1.117 7.492 3.904.109.143.218.291.327.441l-2.968.66h3.439c1.864 2.676 3.791 6.078 6.314 8.671 3.129 3.215 7.411 5.45 10.405 7.471-1.055.904-2.274 1.983-1.972 1.897z" fill="none" stroke="#7d879e" stroke-width=".44" stroke-linecap="round" stroke-linejoin="round"/></g><g clip-path="url(#as)" transform="matrix(.62165 0 0 -.62815 -78.368 297.82)"><g mask="url(#at)"><path d="M158.169 469.258c-.638-.177-12.465-3.538-16.595-8.47-1.464-1.749-3.303-4.049-4.687-6.47l.035-2.79-.977.273c.964-3.576.802-3.291.658-3.65l-.279-.647h-.677c-.327 0-.567.075-1 .538a10.779 10.779 0 01.412-4.513c1.472.409 3.829 1.267 5.319 2.552l-1.325.294-.737 1.487 3.869.485c.394.579.794 1.189 1.211 1.827 1.405 2.144 2.998 4.575 4.912 6.542 2.408 2.474 5.414 4.351 8.066 6.006.483.302.951.593 1.4.879-1.31 1.148-1.536 1.49-1.3 2.129.147.395.53.661.954.661l.167-.005.134-.038c.083-.024.219-.063.85-.351.087.194.234.36.425.472.174.101.372.153.593.153.223 0 .557-.035 1.638-.409.13.141.243.278.339.409.243.554.574 1.739.201 2.327-.286.452-1.056.548-1.651.548-.55 0-1.207-.08-1.955-.239" fill="url(#au)"/></g></g><g clip-path="url(#av)" transform="matrix(.62165 0 0 -.62815 -78.368 297.82)"><g mask="url(#aw)"><path d="M136.887 454.318c2.51-3.365-.893-9.76-.893-9.76 2.506 4.643 6.309 3.963 6.309 3.963 4.273 6.202 10.444 11.853 10.444 11.853-16.405-10.074-9.811 2.227-9.811 2.227-4.18-2.96-6.049-8.283-6.049-8.283" fill="url(#ax)"/></g></g><path d="M159.081 468.702c-13.306-3.885-20.916-16.553-24.957-26.496-1.05-2.586-1.516-4.317-1.521-4.334a.222.222 0 01.124-.259.24.24 0 01.09-.018c.072 0 .144.036.185.102.497.782 1.002 1.361 1.006 1.367a.2.2 0 01.042.072c8.081 23.086 24.994 29.088 25.164 29.147a.22.22 0 01-.071.427.264.264 0 01-.062-.008" fill="url(#ay)" transform="matrix(.62165 0 0 -.62815 -78.368 297.82)"/><g clip-path="url(#az)" transform="matrix(.62165 0 0 -.62815 -78.368 297.82)"><path d="M159.143 468.93a.436.436 0 01-.123-.018c-7.391-2.157-17.745-8.528-25.098-26.623-1.057-2.6-1.511-4.29-1.53-4.36a.439.439 0 01.796-.35c.488.766.982 1.334.987 1.34a.462.462 0 01.084.144c4.209 12.027 10.804 19.28 15.595 23.248 5.176 4.285 9.389 5.748 9.43 5.762a.44.44 0 01-.141.857m0-.44s-17.086-5.815-25.3-29.28c0 0-.513-.588-1.026-1.395 0 0 .454 1.705 1.512 4.31 2.862 7.042 10.144 22.082 24.814 26.365" fill="#7d879e"/></g><path d="M0 0s-5.613 0-5.613-5.613v-26.192s0-5.612 5.613-5.612h26.192s5.613 0 5.613 5.612v26.192S31.805 0 26.192 0z" fill="none" stroke="#231f20" stroke-width=".66" transform="matrix(.62165 0 0 -.62815 5.088 1.478)"/></svg>