<svg xmlns="http://www.w3.org/2000/svg" width="100" height="100" viewBox="0 0 26.458 26.458"><defs><clipPath id="bE" clipPathUnits="userSpaceOnUse"><path d="M149.455 286.592s2.685-2.161 4.137-4.396c-.789 1.365-2.336 3.981-2.82 4.396 0 0-.334.084-.725.084-.194 0-.404-.022-.592-.084m4.611-5.221a7.94 7.94 0 01-.474.825c.284-.489.47-.818.474-.825"/></clipPath><clipPath id="a" clipPathUnits="userSpaceOnUse"><path d="M-14289.2 14672.1H14546v-28835.2h-28835.2z"/></clipPath><clipPath id="ah" clipPathUnits="userSpaceOnUse"><path d="M134.248 292.165s-5.531 0-5.611-5.492v-26.362c.016-.559.312-5.563 5.611-5.563h26.193s5.613 0 5.613 5.613v26.192s0 5.612-5.613 5.612z"/></clipPath><clipPath id="aj" clipPathUnits="userSpaceOnUse"><path d="M134.248 292.165s-5.531 0-5.611-5.492v-26.362c.016-.559.312-5.563 5.611-5.563h26.193s5.613 0 5.613 5.613v26.192s0 5.612-5.613 5.612z"/></clipPath><clipPath id="ak" clipPathUnits="userSpaceOnUse"><path d="M133.045 264.611c0-3.566.89-6.923 2.462-9.863h24.934s5.613 0 5.613 5.613v21.393a20.864 20.864 0 01-12.053 3.811c-11.574 0-20.956-9.381-20.956-20.954"/></clipPath><clipPath id="am" clipPathUnits="userSpaceOnUse"><path d="M134.248 292.165s-5.531 0-5.611-5.492v-26.362c.016-.559.312-5.563 5.611-5.563h26.193s5.613 0 5.613 5.613v26.192s0 5.612-5.613 5.612z"/></clipPath><clipPath id="q" clipPathUnits="userSpaceOnUse"><path d="M126.685 284.107h23.175v-29.359h-23.175z"/></clipPath><clipPath id="p" clipPathUnits="userSpaceOnUse"><path d="M-32768 32767h65535v-65535h-65535z"/></clipPath><clipPath id="an" clipPathUnits="userSpaceOnUse"><path d="M146.84 283.155a38.06 38.06 0 002.105.952s-.884-.26-2.105-.952m-10.208-28.407h13.228c-1.937 3.644-3.287 10.793-3.287 10.793-1.178-1.413-1.581-5.16-1.581-5.16-2.033 4.33.056 9.046.056 9.046-2.428-.802-2.77-4.552-2.77-4.552-1.415 3.965 3.392 11.512 3.392 11.512-2.824-1.299-5.875-5.479-5.875-5.479.231 7.253 4.417 10.756 7.045 12.247-20.155-9.863-10.208-28.407-10.208-28.407"/></clipPath><clipPath id="b" clipPathUnits="userSpaceOnUse"><path d="M158.149 292.809l12.418-12.417-12.418-12.418-12.417 12.418z"/></clipPath><clipPath id="aq" clipPathUnits="userSpaceOnUse"><path d="M150.245 284.431s14.719-.701 14.759-8.552l1.05.89v4.058c-2.217 1.806-6.076 4.078-11.463 4.078-1.353 0-2.802-.143-4.346-.474"/></clipPath><clipPath id="at" clipPathUnits="userSpaceOnUse"><path d="M143.871 283.86c-5.005-1.374-8.304-7.369-8.304-7.369-1.156-3.355.824-2.311 1.209-1.815.289.37.771 1.484 1.54.164.77-1.319 1.98-1.045 2.97-.935.99.111 3.355 1.596 1.595 2.586-1.76.99.88 2.254.88 2.254 2.035.276 3.3 3.85 3.3 3.85.161.684 1.058 1.782-.434 1.782-.546 0-1.414-.148-2.756-.517"/></clipPath><clipPath id="av" clipPathUnits="userSpaceOnUse"><path d="M134.248 292.165s-5.531 0-5.611-5.492v-26.362c.016-.559.312-5.563 5.611-5.563h26.193s5.613 0 5.613 5.613v26.192s0 5.612-5.613 5.612z"/></clipPath><clipPath id="C" clipPathUnits="userSpaceOnUse"><path d="M136.99 274.61l2.991 2.991 2.991-2.991-2.991-2.991z"/></clipPath><clipPath id="B" clipPathUnits="userSpaceOnUse"><path d="M-14289.2 14672.1H14546v-28835.2h-28835.2z"/></clipPath><clipPath id="aw" clipPathUnits="userSpaceOnUse"><path d="M141.704 274.579s-2.316-.112-3.445 1.3c0 0 .486-2.536 3.445-1.3"/></clipPath><clipPath id="e" clipPathUnits="userSpaceOnUse"><path d="M131.469 279.423l8.852 8.852 8.853-8.852-8.853-8.853z"/></clipPath><clipPath id="d" clipPathUnits="userSpaceOnUse"><path d="M-14289.2 14672.1H14546v-28835.2h-28835.2z"/></clipPath><clipPath id="az" clipPathUnits="userSpaceOnUse"><path d="M139.162 280.391c-3.323-2.956-3.33-5.332-3.33-5.332 1.133.197 1.488 1.497 1.488 1.497-1.104 1.156 7.446 7.198 7.491 7.23-4.181-1.525-5.649-3.395-5.649-3.395"/></clipPath><clipPath id="aD" clipPathUnits="userSpaceOnUse"><path d="M159.656 279.809c-1.696-.887-1.824-.84-2.11-.792-.169.028-.393.056-1.025-.107-.797-.205-1.354.106-1.957.417-.686.354-1.434.708-2.663.298-2.31-.77-.055-1.594 1.375-2.915.709-.655 1.323-.443 1.925-.232.61.214 1.205.43 1.87-.263 1.32-1.375-.825-1.099-2.475-2.915-1.65-1.814-1.045-.99-2.695-.88-1.65.111-.825 1.485-2.475 1.375-1.65-.11 1.045-2.199-.385-3.355-1.43-1.155-1.485-.329-2.31.606s-1.32-.771-1.21-1.98c.11-1.211 2.475-.221 2.53-1.485.055-1.266-1.32-2.641-3.74-3.246-2.42-.604-1.265.881-2.53 2.64-1.264 1.761-3.85.99-5.39.716-1.539-.276-1.319-3.301-1.155-5.61.111-1.562.977-1.289 1.764-1.016.378.13.737.262.986.191.77-.221 1.155-.771.825-2.64-.267-1.514 1.377-2.56 2.012-2.903a3.48 3.48 0 01.243-.122s-.193-.36-.336-.843h19.711s5.613 0 5.613 5.613v18.606c-.396.133-.837.289-1.338.604-1.084.681-1.697 1.118-2.507 1.118-.628 0-1.376-.263-2.553-.88"/></clipPath><clipPath id="aF" clipPathUnits="userSpaceOnUse"><path d="M134.248 292.165s-5.531 0-5.611-5.492v-26.362c.016-.559.312-5.563 5.611-5.563h26.193s5.613 0 5.613 5.613v26.192s0 5.612-5.613 5.612z"/></clipPath><clipPath id="h" clipPathUnits="userSpaceOnUse"><path d="M134.985 267.416h4.914v-5.932h-4.914z"/></clipPath><clipPath id="g" clipPathUnits="userSpaceOnUse"><path d="M-32768 32767h65535v-65535h-65535z"/></clipPath><clipPath id="aG" clipPathUnits="userSpaceOnUse"><path d="M136.058 266.635c-.84-1.153 0-5.151 0-5.151.452.96 2.373.339 2.373.339.153.676-1.978 1.863-1.978 1.863-1.468 3.221 3.447 3.728 3.447 3.728-.366-.036-.759-.023-1.153-.01-.201.006-.402.012-.6.012-.823 0-1.599-.109-2.089-.781"/></clipPath><clipPath id="k" clipPathUnits="userSpaceOnUse"><path d="M138.657 260.241h7.004v-4.692h-7.004z"/></clipPath><clipPath id="j" clipPathUnits="userSpaceOnUse"><path d="M-14289.2 14672.1H14546v-28835.2h-28835.2z"/></clipPath><clipPath id="aJ" clipPathUnits="userSpaceOnUse"><path d="M142.95 255.552h2.507c-.903.025-4.571.395-5.952 4.689 0 0-.848-4.01 3.445-4.689m2.507 0c.131-.002.204 0 .204 0z"/></clipPath><clipPath id="n" clipPathUnits="userSpaceOnUse"><path d="M149.331 276.727l8.073-8.073-8.073-8.073-8.073 8.073z"/></clipPath><clipPath id="m" clipPathUnits="userSpaceOnUse"><path d="M-14289.2 14672.1H14546v-28835.2h-28835.2z"/></clipPath><clipPath id="aM" clipPathUnits="userSpaceOnUse"><path d="M149.615 272.837c1.469-1.186-.44-3.067-.44-3.067-.609-.526-.464-1.056-1.816-.106-1.352.951-.964 1.026-1.302 0-.34-1.026 1.298-.893 1.298-.893 3.671-1.413-1.298-4.576-1.298-4.576 4.8 2.767 3.42 4.459 3.42 4.459.71.166.985 1.528.929 2.546-.056 1.017 2.539.564 2.539.564-.625.283-2.144.452-2.775 1.073-.21.208-.342.276-.424.276-.164 0-.131-.276-.131-.276"/></clipPath><clipPath id="t" clipPathUnits="userSpaceOnUse"><path d="M153.11 281.316l3.902-3.901-3.902-3.902-3.901 3.902z"/></clipPath><clipPath id="s" clipPathUnits="userSpaceOnUse"><path d="M-14289.2 14672.1H14546v-28835.2h-28835.2z"/></clipPath><clipPath id="aP" clipPathUnits="userSpaceOnUse"><path d="M151.8 278.686c.357-.37 2.516-3.02 3.463-1.426 0 0-4.306.661-1.813 1.904 0 0-2.007-.108-1.65-.478"/></clipPath><clipPath id="w" clipPathUnits="userSpaceOnUse"><path d="M156.154 276.709l3.083-3.083-3.083-3.082-3.082 3.082z"/></clipPath><clipPath id="v" clipPathUnits="userSpaceOnUse"><path d="M-14289.2 14672.1H14546v-28835.2h-28835.2z"/></clipPath><clipPath id="aS" clipPathUnits="userSpaceOnUse"><path d="M157.738 274.96a.374.374 0 01.042.123s-.013-.045-.042-.123m-1.845-1.219c-.952-.339-1.364-1.572-1.364-1.572a4.546 4.546 0 013.209 2.791c-.192-.371-.993-.916-1.845-1.219"/></clipPath><clipPath id="z" clipPathUnits="userSpaceOnUse"><path d="M161.421 284.703l6.7-6.7-6.7-6.7-6.7 6.7z"/></clipPath><clipPath id="y" clipPathUnits="userSpaceOnUse"><path d="M-14289.2 14672.1H14546v-28835.2h-28835.2z"/></clipPath><clipPath id="aV" clipPathUnits="userSpaceOnUse"><path d="M158.652 278.429c-.959-.226-1.864 0-1.864 0 1.753-.664 2.81.037 2.81.037 3.54 1.605 5.753-1.366 6.456-2.531v1.741c-1.491 1.658-2.795 2.176-3.889 2.176-1.723 0-2.925-1.285-3.513-1.423"/></clipPath><clipPath id="aY" clipPathUnits="userSpaceOnUse"><path d="M134.248 292.165s-5.531 0-5.611-5.492v-26.362c.016-.559.312-5.563 5.611-5.563h26.193s5.613 0 5.613 5.613v26.192s0 5.612-5.613 5.612z"/></clipPath><clipPath id="ad" clipPathUnits="userSpaceOnUse"><path d="M154.259 264.89h6.067v-5.904h-6.067z"/></clipPath><clipPath id="ac" clipPathUnits="userSpaceOnUse"><path d="M-14289.2 14672.1H14546v-28835.2h-28835.2z"/></clipPath><clipPath id="aZ" clipPathUnits="userSpaceOnUse"><path d="M160.326 258.987c-4.756 1.298-4.623 5.904-4.623 5.904-1.445-5.687 4.623-5.904 4.623-5.904"/></clipPath><clipPath id="F" clipPathUnits="userSpaceOnUse"><path d="M160.29 270.408h5.764v-2.511h-5.764z"/></clipPath><clipPath id="E" clipPathUnits="userSpaceOnUse"><path d="M-14289.2 14672.1H14546v-28835.2h-28835.2z"/></clipPath><clipPath id="bc" clipPathUnits="userSpaceOnUse"><path d="M160.29 270.408s4.003-1.134 5.764-2.511v1.196c-.985.513-2.943 1.294-5.764 1.315z"/></clipPath><clipPath id="I" clipPathUnits="userSpaceOnUse"><path d="M149.175 260.58h4.336v-5.832h-4.336z"/></clipPath><clipPath id="H" clipPathUnits="userSpaceOnUse"><path d="M-14289.2 14672.1H14546v-28835.2h-28835.2z"/></clipPath><clipPath id="bf" clipPathUnits="userSpaceOnUse"><path d="M153.458 260.064c.029.169.047.341.053.516 0 0-.015-.196-.053-.516m-4.283-4.964s.046-.169.181-.352h2.191c1.28.947 1.766 4.074 1.911 5.316-.502-2.989-4.283-4.964-4.283-4.964"/></clipPath><clipPath id="L" clipPathUnits="userSpaceOnUse"><path d="M154.19 259.563h7.173v-4.518h-7.173z"/></clipPath><clipPath id="K" clipPathUnits="userSpaceOnUse"><path d="M-14289.2 14672.1H14546v-28835.2h-28835.2z"/></clipPath><clipPath id="bi" clipPathUnits="userSpaceOnUse"><path d="M154.191 255.045l7.173.506c-3.842-.171-6.835 4.012-6.835 4.012.622-1.782-.338-4.518-.338-4.518"/></clipPath><clipPath id="O" clipPathUnits="userSpaceOnUse"><path d="M148.986 267.677l5.654 2.936 2.65-5.104-5.654-2.936z"/></clipPath><clipPath id="N" clipPathUnits="userSpaceOnUse"><path d="M-32768 32767h65535v-65535h-65535z"/></clipPath><clipPath id="bl" clipPathUnits="userSpaceOnUse"><path d="M153.745 267.448s-.102 1.029-1.938-.43c0 0 .274.027.902-.346 0 0-1.489-.435-2.181-1.133 0 0 .888.838 1.827.425 0 0-.682.014-.683-1.135.026.231.245.718 1.621.72l.919-.097s-.94.698.675 1.34l-.551.313s-.591.343 1.413.733c0 0-.394.236-.876.236-.369 0-.79-.138-1.128-.626m-2.072-2.74a2.46 2.46 0 00-.001.121c-.009-.073.001-.121.001-.121"/></clipPath><clipPath id="R" clipPathUnits="userSpaceOnUse"><path d="M147.488 264.173l14.215 7.381 7.338-14.133-14.215-7.381z"/></clipPath><clipPath id="Q" clipPathUnits="userSpaceOnUse"><path d="M-14289.2 14672.1H14546v-28835.2h-28835.2z"/></clipPath><clipPath id="bo" clipPathUnits="userSpaceOnUse"><path d="M152.645 265.964s5.967-2.71 10.258-10.674c.364.155.737.354 1.092.61-.443.919-2.825 5.204-10.947 10.752 0 0-.071.013-.161.013-.234 0-.6-.087-.242-.701"/></clipPath><clipPath id="br" clipPathUnits="userSpaceOnUse"><path d="M134.248 292.165s-5.531 0-5.611-5.492v-26.362c.016-.559.312-5.563 5.611-5.563h26.193s5.613 0 5.613 5.613v26.192s0 5.612-5.613 5.612z"/></clipPath><clipPath id="bs" clipPathUnits="userSpaceOnUse"><path d="M139.772 286.433a.438.438 0 01.062-.618c11.302-9.231 12.398-18.366 12.408-18.457a.44.44 0 01.438-.394l.046.003a.438.438 0 01.391.482c-.04.386-1.121 9.568-12.726 19.047a.439.439 0 01-.278.099.436.436 0 01-.341-.162"/></clipPath><clipPath id="bu" clipPathUnits="userSpaceOnUse"><path d="M134.248 292.165s-5.531 0-5.611-5.492v-26.362c.016-.559.312-5.563 5.611-5.563h26.193s5.613 0 5.613 5.613v26.192s0 5.612-5.613 5.612z"/></clipPath><clipPath id="bv" clipPathUnits="userSpaceOnUse"><path d="M154.737 288.247c-1.088-.942-2.462-1.014-4.131-.797-1.669.218-6.542.414-8.427-2.486 0 0 7.448-1.295 6.595-7.439 0 0 1.106 3.444 2.918 2.807 1.812-.639 4.06-1.9 6.017 0 1.957 1.899 2.32 2.479 3.48 1.536l-3.842 6.379s-.677.419-1.451.419c-.386 0-.796-.104-1.159-.419"/></clipPath><clipPath id="bx" clipPathUnits="userSpaceOnUse"><path d="M134.248 292.165s-5.531 0-5.611-5.492v-26.362c.016-.559.312-5.563 5.611-5.563h26.193s5.613 0 5.613 5.613v26.192s0 5.612-5.613 5.612z"/></clipPath><clipPath id="U" clipPathUnits="userSpaceOnUse"><path d="M141.216 285.204l7.521 4.343 4.11-7.118-7.521-4.343z"/></clipPath><clipPath id="T" clipPathUnits="userSpaceOnUse"><path d="M-14289.2 14672.1H14546v-28835.2h-28835.2z"/></clipPath><clipPath id="by" clipPathUnits="userSpaceOnUse"><path d="M143.62 284.946s4.612-.658 6.823-3.905c0 0-.94 4.047-2.118 5.505 0 0-.22.046-.598.046-.832 0-2.425-.222-4.107-1.646"/></clipPath><clipPath id="X" clipPathUnits="userSpaceOnUse"><path d="M150.431 285.899l7.177 4.144 4.662-8.074-7.177-4.143z"/></clipPath><clipPath id="W" clipPathUnits="userSpaceOnUse"><path d="M-14289.2 14672.1H14546v-28835.2h-28835.2z"/></clipPath><clipPath id="bB" clipPathUnits="userSpaceOnUse"><path d="M156.231 282.076c-.283 1.177-2.396 3.012-2.396 3.012.851-1.365 1.31-4.848 1.31-4.848.795-.236 1.274.048 2.074.801.8.753 1.647 1.458 1.647 1.458-.377 2.118-3.482 5.365-3.482 5.365 1.271-2.07.847-5.788.847-5.788"/></clipPath><clipPath id="aa" clipPathUnits="userSpaceOnUse"><path d="M147.158 285.35l5.755 3.323 3.451-5.976-5.756-3.323z"/></clipPath><clipPath id="Z" clipPathUnits="userSpaceOnUse"><path d="M-32768 32767h65535v-65535h-65535z"/></clipPath><clipPath id="af" clipPathUnits="userSpaceOnUse"><path d="M134.248 292.165s-5.531 0-5.611-5.492v-26.362c.016-.559.312-5.563 5.611-5.563h26.193s5.613 0 5.613 5.613v26.192s0 5.612-5.613 5.612z"/></clipPath><clipPath id="bH" clipPathUnits="userSpaceOnUse"><path d="M141.625 284.279l.554.685s-.259-.092-.554-.685"/></clipPath><clipPath id="bJ" clipPathUnits="userSpaceOnUse"><path d="M134.248 292.165s-5.531 0-5.611-5.492v-26.362c.016-.559.312-5.563 5.611-5.563h26.193s5.613 0 5.613 5.613v26.192s0 5.612-5.613 5.612z"/></clipPath><clipPath id="bK" clipPathUnits="userSpaceOnUse"><path d="M148.022 277.019c.895.153.752.506.752.506z"/></clipPath><clipPath id="bM" clipPathUnits="userSpaceOnUse"><path d="M134.248 292.165s-5.531 0-5.611-5.492v-26.362c.016-.559.312-5.563 5.611-5.563h26.193s5.613 0 5.613 5.613v26.192s0 5.612-5.613 5.612z"/></clipPath><clipPath id="aC" clipPathUnits="userSpaceOnUse"><path d="M134.248 292.165s-5.531 0-5.611-5.492v-26.362c.016-.559.312-5.563 5.611-5.563h26.193s5.613 0 5.613 5.613v26.192s0 5.612-5.613 5.612z"/></clipPath><linearGradient id="o" spreadMethod="pad" gradientTransform="scale(4.7145 -4.7145) rotate(45 84.892 8.838)" gradientUnits="userSpaceOnUse" y2="0" x2="1" y1="0" x1="0"><stop offset="0" stop-color="#fff"/><stop offset="1" stop-opacity="0" stop-color="#fff"/></linearGradient><linearGradient id="bL" spreadMethod="pad" gradientTransform="matrix(.76068 0 0 -.76068 148.023 277.272)" gradientUnits="userSpaceOnUse" y2="0" x2="1" y1="0" x1="0"><stop offset="0" stop-color="#fab80a"/><stop offset="1" stop-color="#f36518"/></linearGradient><linearGradient id="ag" spreadMethod="pad" gradientTransform="scale(52.91624 -52.91624) rotate(45 7.88 .174)" gradientUnits="userSpaceOnUse" y2="0" x2="1" y1="0" x1="0"><stop offset="0" stop-color="#00adef"/><stop offset="1" stop-color="#fff"/></linearGradient><linearGradient id="ab" spreadMethod="pad" gradientTransform="scale(1.39817 -1.39817) rotate(-30 -324.49 -303.175)" gradientUnits="userSpaceOnUse" y2="0" x2="1" y1="0" x1="0"><stop offset="0" stop-opacity="0" stop-color="#fff"/><stop offset="1" stop-color="#fff"/></linearGradient><linearGradient id="bG" spreadMethod="pad" gradientTransform="scale(1.39817 -1.39817) rotate(-30 -324.49 -303.175)" gradientUnits="userSpaceOnUse" y2="0" x2="1" y1="0" x1="0"><stop offset="0" stop-color="#f68712"/><stop offset="1" stop-color="#f89c0e"/></linearGradient><linearGradient id="Y" spreadMethod="pad" gradientTransform="scale(4.60982 -4.60982) rotate(-30 -97.822 -92.873)" gradientUnits="userSpaceOnUse" y2="0" x2="1" y1="0" x1="0"><stop offset="0" stop-opacity="0" stop-color="#fff"/><stop offset="1" stop-color="#fff"/></linearGradient><linearGradient id="bD" spreadMethod="pad" gradientTransform="scale(4.60982 -4.60982) rotate(-30 -97.822 -92.873)" gradientUnits="userSpaceOnUse" y2="0" x2="1" y1="0" x1="0"><stop offset="0" stop-color="#fab80a"/><stop offset="1" stop-color="#f68712"/></linearGradient><linearGradient id="ai" spreadMethod="pad" gradientTransform="scale(52.91624 -52.91624) rotate(45 7.88 .174)" gradientUnits="userSpaceOnUse" y2="0" x2="1" y1="0" x1="0"><stop offset="0" stop-color="#231f20"/><stop offset="1" stop-color="#00adef"/></linearGradient><linearGradient id="V" spreadMethod="pad" gradientTransform="scale(4.91997 -4.91997) rotate(-30 -92.213 -83.769)" gradientUnits="userSpaceOnUse" y2="0" x2="1" y1="0" x1="0"><stop offset="0" stop-opacity="0" stop-color="#fff"/><stop offset="1" stop-color="#fff"/></linearGradient><linearGradient id="bA" spreadMethod="pad" gradientTransform="scale(4.91997 -4.91997) rotate(-30 -92.213 -83.769)" gradientUnits="userSpaceOnUse" y2="0" x2="1" y1="0" x1="0"><stop offset="0" stop-color="#f9a70d"/><stop offset="1" stop-color="#f46f16"/></linearGradient><linearGradient id="bw" spreadMethod="pad" gradientTransform="scale(14.91505 -14.91505) rotate(-30 -30.154 -27.537)" gradientUnits="userSpaceOnUse" y2="0" x2="1" y1="0" x1="0"><stop offset="0" stop-color="#fab80a"/><stop offset="1" stop-color="#f36518"/></linearGradient><linearGradient id="bt" spreadMethod="pad" gradientTransform="matrix(-13.44725 0 0 13.44725 153.12 276.78)" gradientUnits="userSpaceOnUse" y2="0" x2="1" y1="0" x1="0"><stop offset="0" stop-color="#855333"/><stop offset="1" stop-color="#b08020"/></linearGradient><linearGradient id="S" spreadMethod="pad" gradientTransform="scale(5.6539 -5.6539) rotate(-27.439 -80.039 -79.498)" gradientUnits="userSpaceOnUse" y2="0" x2="1" y1="0" x1="0"><stop offset="0" stop-color="#fff"/><stop offset="1" stop-opacity="0" stop-color="#fff"/></linearGradient><linearGradient id="bq" spreadMethod="pad" gradientTransform="scale(5.6539 -5.6539) rotate(-27.439 -80.039 -79.498)" gradientUnits="userSpaceOnUse" y2="0" x2="1" y1="0" x1="0"><stop offset="0" stop-color="#1f792f"/><stop offset="1" stop-color="#1f792f"/></linearGradient><linearGradient id="P" spreadMethod="pad" gradientTransform="matrix(5.0524 2.62328 2.62328 -5.0524 150.743 265.126)" gradientUnits="userSpaceOnUse" y2="0" x2="1" y1="0" x1="0"><stop offset="0" stop-color="#fff"/><stop offset="1" stop-opacity="0" stop-color="#fff"/></linearGradient><linearGradient id="bn" spreadMethod="pad" gradientTransform="matrix(5.0524 2.62328 2.62328 -5.0524 150.743 265.126)" gradientUnits="userSpaceOnUse" y2="0" x2="1" y1="0" x1="0"><stop offset="0" stop-color="#1f792f"/><stop offset="1" stop-color="#1f792f"/></linearGradient><linearGradient id="al" spreadMethod="pad" gradientTransform="scale(41.90988 -41.90988) rotate(45 9.709 .675)" gradientUnits="userSpaceOnUse" y2="0" x2="1" y1="0" x1="0"><stop offset="0" stop-color="#00adef"/><stop offset="1" stop-color="#2e3192"/></linearGradient><linearGradient id="M" spreadMethod="pad" gradientTransform="matrix(7.17318 0 0 -7.17318 154.19 257.304)" gradientUnits="userSpaceOnUse" y2="0" x2="1" y1="0" x1="0"><stop offset="0" stop-opacity="0" stop-color="#fff"/><stop offset="1" stop-color="#fff"/></linearGradient><linearGradient id="bk" spreadMethod="pad" gradientTransform="matrix(7.17318 0 0 -7.17318 154.19 257.304)" gradientUnits="userSpaceOnUse" y2="0" x2="1" y1="0" x1="0"><stop offset="0" stop-color="#f2ef1d"/><stop offset="1" stop-color="#f2ef1d"/></linearGradient><linearGradient id="J" spreadMethod="pad" gradientTransform="matrix(4.3355 0 0 -4.3355 149.175 257.44)" gradientUnits="userSpaceOnUse" y2="0" x2="1" y1="0" x1="0"><stop offset="0" stop-color="#fff"/><stop offset="1" stop-opacity="0" stop-color="#fff"/></linearGradient><linearGradient id="bh" spreadMethod="pad" gradientTransform="matrix(4.3355 0 0 -4.3355 149.175 257.44)" gradientUnits="userSpaceOnUse" y2="0" x2="1" y1="0" x1="0"><stop offset="0" stop-color="#f2ef1d"/><stop offset="1" stop-color="#f2ef1d"/></linearGradient><linearGradient id="G" spreadMethod="pad" gradientTransform="matrix(6.49598 0 0 -6.49598 160.29 268.912)" gradientUnits="userSpaceOnUse" y2="0" x2="1" y1="0" x1="0"><stop offset="0" stop-color="#fff"/><stop offset="1" stop-opacity="0" stop-color="#fff"/></linearGradient><linearGradient id="be" spreadMethod="pad" gradientTransform="matrix(6.49598 0 0 -6.49598 160.29 268.912)" gradientUnits="userSpaceOnUse" y2="0" x2="1" y1="0" x1="0"><stop offset="0" stop-color="#f2ef1d"/><stop offset="1" stop-color="#f2ef1d"/></linearGradient><linearGradient id="ap" spreadMethod="pad" gradientTransform="matrix(17.19825 0 0 -17.19825 134.177 268.01)" gradientUnits="userSpaceOnUse" y2="0" x2="1" y1="0" x1="0"><stop offset="0" stop-color="#fff"/><stop offset="1" stop-color="#00adef"/></linearGradient><linearGradient id="ae" spreadMethod="pad" gradientTransform="matrix(4.84491 0 0 -4.84491 155.48 261.938)" gradientUnits="userSpaceOnUse" y2="0" x2="1" y1="0" x1="0"><stop offset="0" stop-opacity=".6" stop-color="#fff"/><stop offset="1" stop-opacity="0" stop-color="#fff"/></linearGradient><linearGradient id="bb" spreadMethod="pad" gradientTransform="matrix(4.84491 0 0 -4.84491 155.48 261.938)" gradientUnits="userSpaceOnUse" y2="0" x2="1" y1="0" x1="0"><stop offset="0" stop-color="#f2ef1d"/><stop offset="1" stop-color="#f2ef1d"/></linearGradient><linearGradient id="r" spreadMethod="pad" gradientTransform="matrix(17.19825 0 0 -17.19825 134.177 268.01)" gradientUnits="userSpaceOnUse" y2="0" x2="1" y1="0" x1="0"><stop offset="0" stop-color="#fff"/><stop offset="1" stop-opacity="0" stop-color="#fff"/></linearGradient><linearGradient id="A" spreadMethod="pad" gradientTransform="scale(8.79806 -8.79806) rotate(45 47.525 5.86)" gradientUnits="userSpaceOnUse" y2="0" x2="1" y1="0" x1="0"><stop offset="0" stop-color="#fff"/><stop offset="1" stop-opacity="0" stop-color="#fff"/></linearGradient><linearGradient id="aX" spreadMethod="pad" gradientTransform="scale(8.79806 -8.79806) rotate(45 47.525 5.86)" gradientUnits="userSpaceOnUse" y2="0" x2="1" y1="0" x1="0"><stop offset="0" stop-color="#f2ef1d"/><stop offset="1" stop-color="#f2ef1d"/></linearGradient><linearGradient id="x" spreadMethod="pad" gradientTransform="scale(.99429 -.99429) rotate(45 410.934 51.461)" gradientUnits="userSpaceOnUse" y2="0" x2="1" y1="0" x1="0"><stop offset="0" stop-color="#fff"/><stop offset="1" stop-opacity="0" stop-color="#fff"/></linearGradient><linearGradient id="aU" spreadMethod="pad" gradientTransform="scale(.99429 -.99429) rotate(45 410.934 51.461)" gradientUnits="userSpaceOnUse" y2="0" x2="1" y1="0" x1="0"><stop offset="0" stop-color="#f2ef1d"/><stop offset="1" stop-color="#f2ef1d"/></linearGradient><linearGradient id="u" spreadMethod="pad" gradientTransform="scale(3.61554 -3.61554) rotate(45 114.298 12.204)" gradientUnits="userSpaceOnUse" y2="0" x2="1" y1="0" x1="0"><stop offset="0" stop-color="#fff"/><stop offset="1" stop-opacity="0" stop-color="#fff"/></linearGradient><linearGradient id="aR" spreadMethod="pad" gradientTransform="scale(3.61554 -3.61554) rotate(45 114.298 12.204)" gradientUnits="userSpaceOnUse" y2="0" x2="1" y1="0" x1="0"><stop offset="0" stop-color="#f2ef1d"/><stop offset="1" stop-color="#f2ef1d"/></linearGradient><linearGradient id="bI" spreadMethod="pad" gradientTransform="matrix(.55432 0 0 -.55432 141.624 284.622)" gradientUnits="userSpaceOnUse" y2="0" x2="1" y1="0" x1="0"><stop offset="0" stop-color="#fab80a"/><stop offset="1" stop-color="#f36518"/></linearGradient><linearGradient id="aO" spreadMethod="pad" gradientTransform="scale(4.7145 -4.7145) rotate(45 84.892 8.838)" gradientUnits="userSpaceOnUse" y2="0" x2="1" y1="0" x1="0"><stop offset="0" stop-color="#f2ef1d"/><stop offset="1" stop-color="#f2ef1d"/></linearGradient><linearGradient id="as" spreadMethod="pad" gradientTransform="scale(16.83265 -16.83265) rotate(45 25.173 2.455)" gradientUnits="userSpaceOnUse" y2="0" x2="1" y1="0" x1="0"><stop offset="0" stop-color="#00adef"/><stop offset="1" stop-color="#00adef"/></linearGradient><linearGradient id="l" spreadMethod="pad" gradientTransform="matrix(6.22462 0 0 -6.22462 139.436 257.896)" gradientUnits="userSpaceOnUse" y2="0" x2="1" y1="0" x1="0"><stop offset="0" stop-color="#fff"/><stop offset="1" stop-opacity="0" stop-color="#fff"/></linearGradient><linearGradient id="aL" spreadMethod="pad" gradientTransform="matrix(6.22462 0 0 -6.22462 139.436 257.896)" gradientUnits="userSpaceOnUse" y2="0" x2="1" y1="0" x1="0"><stop offset="0" stop-color="#f2ef1d"/><stop offset="1" stop-color="#f2ef1d"/></linearGradient><linearGradient id="c" spreadMethod="pad" gradientTransform="scale(16.83265 -16.83265) rotate(45 25.173 2.455)" gradientUnits="userSpaceOnUse" y2="0" x2="1" y1="0" x1="0"><stop offset="0" stop-color="#fff"/><stop offset="1" stop-opacity="0" stop-color="#fff"/></linearGradient><linearGradient id="i" spreadMethod="pad" gradientTransform="matrix(4.21445 0 0 -4.21445 135.685 264.45)" gradientUnits="userSpaceOnUse" y2="0" x2="1" y1="0" x1="0"><stop offset="0" stop-color="#fff"/><stop offset="1" stop-opacity="0" stop-color="#fff"/></linearGradient><linearGradient id="aI" spreadMethod="pad" gradientTransform="matrix(4.21445 0 0 -4.21445 135.685 264.45)" gradientUnits="userSpaceOnUse" y2="0" x2="1" y1="0" x1="0"><stop offset="0" stop-color="#f2ef1d"/><stop offset="1" stop-color="#f2ef1d"/></linearGradient><linearGradient id="aE" spreadMethod="pad" gradientTransform="scale(30.54666 -30.54666) rotate(45 13.251 1.181)" gradientUnits="userSpaceOnUse" y2="0" x2="1" y1="0" x1="0"><stop offset="0" stop-color="#cce310"/><stop offset="1" stop-color="#40b93c"/></linearGradient><linearGradient id="f" spreadMethod="pad" gradientTransform="scale(12.51972 -12.51972) rotate(-45 -21.151 -24.059)" gradientUnits="userSpaceOnUse" y2="0" x2="1" y1="0" x1="0"><stop offset="0" stop-color="#fff"/><stop offset="1" stop-opacity="0" stop-color="#fff"/></linearGradient><linearGradient id="aB" spreadMethod="pad" gradientTransform="scale(12.51972 -12.51972) rotate(-45 -21.151 -24.059)" gradientUnits="userSpaceOnUse" y2="0" x2="1" y1="0" x1="0"><stop offset="0" stop-color="#f2ef1d"/><stop offset="1" stop-color="#f2ef1d"/></linearGradient><linearGradient id="D" spreadMethod="pad" gradientTransform="scale(1.87154 -1.87154) rotate(-45 -139.822 -163.097)" gradientUnits="userSpaceOnUse" y2="0" x2="1" y1="0" x1="0"><stop offset="0" stop-color="#fff"/><stop offset="1" stop-opacity="0" stop-color="#fff"/></linearGradient><linearGradient id="ay" spreadMethod="pad" gradientTransform="scale(1.87154 -1.87154) rotate(-45 -139.822 -163.097)" gradientUnits="userSpaceOnUse" y2="0" x2="1" y1="0" x1="0"><stop offset="0" stop-color="#f2ef1d"/><stop offset="1" stop-color="#f2ef1d"/></linearGradient><linearGradient id="au" spreadMethod="pad" gradientTransform="scale(7.16569 -7.16569) rotate(45 57.1 3.85)" gradientUnits="userSpaceOnUse" y2="0" x2="1" y1="0" x1="0"><stop offset="0" stop-color="#cce310"/><stop offset="1" stop-color="#40b93c"/></linearGradient><mask id="ax" height="1" width="1" y="0" x="0" maskUnits="userSpaceOnUse"><g clip-path="url(#B)"><g clip-path="url(#C)"><path d="M136.99 274.61l2.991 2.991 2.991-2.991-2.991-2.991z" fill="url(#D)"/></g></g></mask><mask id="ar" height="1" width="1" y="0" x="0" maskUnits="userSpaceOnUse"><g clip-path="url(#a)"><g clip-path="url(#b)"><path d="M158.149 292.809l12.418-12.417-12.418-12.418-12.417 12.418z" fill="url(#c)"/></g></g></mask><mask id="aH" height="1" width="1" y="0" x="0" maskUnits="userSpaceOnUse"><g clip-path="url(#g)"><g clip-path="url(#h)"><path d="M134.985 267.416h4.914v-5.932h-4.914z" fill="url(#i)"/></g></g></mask><mask id="aK" height="1" width="1" y="0" x="0" maskUnits="userSpaceOnUse"><g clip-path="url(#j)"><g clip-path="url(#k)"><path d="M138.657 260.241h7.004v-4.692h-7.004z" fill="url(#l)"/></g></g></mask><mask id="aN" height="1" width="1" y="0" x="0" maskUnits="userSpaceOnUse"><g clip-path="url(#m)"><g clip-path="url(#n)"><path d="M149.331 276.727l8.073-8.073-8.073-8.073-8.073 8.073z" fill="url(#o)"/></g></g></mask><mask id="ao" height="1" width="1" y="0" x="0" maskUnits="userSpaceOnUse"><g clip-path="url(#p)"><g clip-path="url(#q)"><path d="M126.685 284.107h23.175v-29.359h-23.175z" fill="url(#r)"/></g></g></mask><mask id="aQ" height="1" width="1" y="0" x="0" maskUnits="userSpaceOnUse"><g clip-path="url(#s)"><g clip-path="url(#t)"><path d="M153.11 281.316l3.902-3.901-3.902-3.902-3.901 3.902z" fill="url(#u)"/></g></g></mask><mask id="aT" height="1" width="1" y="0" x="0" maskUnits="userSpaceOnUse"><g clip-path="url(#v)"><g clip-path="url(#w)"><path d="M156.154 276.709l3.083-3.083-3.083-3.082-3.082 3.082z" fill="url(#x)"/></g></g></mask><mask id="aW" height="1" width="1" y="0" x="0" maskUnits="userSpaceOnUse"><g clip-path="url(#y)"><g clip-path="url(#z)"><path d="M161.421 284.703l6.7-6.7-6.7-6.7-6.7 6.7z" fill="url(#A)"/></g></g></mask><mask id="aA" height="1" width="1" y="0" x="0" maskUnits="userSpaceOnUse"><g clip-path="url(#d)"><g clip-path="url(#e)"><path d="M131.469 279.423l8.852 8.852 8.853-8.852-8.853-8.853z" fill="url(#f)"/></g></g></mask><mask id="bd" height="1" width="1" y="0" x="0" maskUnits="userSpaceOnUse"><g clip-path="url(#E)"><g clip-path="url(#F)"><path d="M160.29 270.408h5.764v-2.511h-5.764z" fill="url(#G)"/></g></g></mask><mask id="bg" height="1" width="1" y="0" x="0" maskUnits="userSpaceOnUse"><g clip-path="url(#H)"><g clip-path="url(#I)"><path d="M149.175 260.58h4.336v-5.832h-4.336z" fill="url(#J)"/></g></g></mask><mask id="bj" height="1" width="1" y="0" x="0" maskUnits="userSpaceOnUse"><g clip-path="url(#K)"><g clip-path="url(#L)"><path d="M154.19 259.563h7.173v-4.518h-7.173z" fill="url(#M)"/></g></g></mask><mask id="bm" height="1" width="1" y="0" x="0" maskUnits="userSpaceOnUse"><g clip-path="url(#N)"><g clip-path="url(#O)"><path d="M148.986 267.677l5.654 2.936 2.65-5.104-5.654-2.936z" fill="url(#P)"/></g></g></mask><mask id="bp" height="1" width="1" y="0" x="0" maskUnits="userSpaceOnUse"><g clip-path="url(#Q)"><g clip-path="url(#R)"><path d="M147.488 264.173l14.215 7.381 7.338-14.133-14.215-7.381z" fill="url(#S)"/></g></g></mask><mask id="bz" height="1" width="1" y="0" x="0" maskUnits="userSpaceOnUse"><g clip-path="url(#T)"><g clip-path="url(#U)"><path d="M141.216 285.204l7.521 4.343 4.11-7.118-7.521-4.343z" fill="url(#V)"/></g></g></mask><mask id="bC" height="1" width="1" y="0" x="0" maskUnits="userSpaceOnUse"><g clip-path="url(#W)"><g clip-path="url(#X)"><path d="M150.431 285.899l7.177 4.144 4.662-8.074-7.177-4.143z" fill="url(#Y)"/></g></g></mask><mask id="bF" height="1" width="1" y="0" x="0" maskUnits="userSpaceOnUse"><g clip-path="url(#Z)"><g clip-path="url(#aa)"><path d="M147.158 285.35l5.755 3.323 3.451-5.976-5.756-3.323z" fill="url(#ab)"/></g></g></mask><mask id="ba" height="1" width="1" y="0" x="0" maskUnits="userSpaceOnUse"><g clip-path="url(#ac)"><g clip-path="url(#ad)"><path d="M154.259 264.89h6.067v-5.904h-6.067z" fill="url(#ae)"/></g></g></mask></defs><g clip-path="url(#af)" transform="matrix(.62536 0 0 -.62538 -78.915 184.243)"><path d="M134.248 292.165s-5.531 0-5.611-5.492v-26.362c.016-.559.312-5.563 5.611-5.563h26.193s5.613 0 5.613 5.613v26.192s0 5.612-5.613 5.612z" fill="url(#ag)"/></g><g clip-path="url(#ah)" transform="matrix(.62536 0 0 -.62538 -78.915 184.243)"><path d="M134.248 292.165s-5.531 0-5.611-5.492v-26.362c.016-.559.312-5.563 5.611-5.563h26.193s5.613 0 5.613 5.613v26.192s0 5.612-5.613 5.612z" fill="url(#ai)"/></g><g clip-path="url(#aj)" transform="matrix(.62536 0 0 -.62538 -78.915 184.243)" fill="none" stroke="#fff" stroke-width="1.76" stroke-linecap="round" stroke-linejoin="round"><path d="M174.955 264.61c0 11.573-9.382 20.955-20.955 20.955-11.573 0-20.955-9.382-20.955-20.955 0-11.573 9.382-20.955 20.955-20.955 11.573 0 20.955 9.383 20.955 20.956z"/><path d="M136.632 254.748s-10.62 19.795 12.314 29.359c0 0-8.812-2.58-9.15-13.199 0 0 3.05 4.18 5.874 5.479 0 0-4.806-7.547-3.392-11.512 0 0 .342 3.75 2.77 4.552 0 0-2.09-4.716-.056-9.045 0 0 .403 3.747 1.582 5.16 0 0 2.09-11.075 4.8-12.683 0 0-9.037-3.087-14.742 1.889zm31.632 23.898s-6.27 8.295-18.019 5.786c0 0 14.72-.702 14.76-8.554z"/><path d="M135.566 276.49s3.3 5.995 8.305 7.37c5.004 1.375 3.41-.33 3.19-1.265 0 0-1.265-3.575-3.3-3.85 0 0-2.64-1.265-.88-2.255 1.76-.99-.605-2.475-1.595-2.585-.99-.11-2.2-.385-2.97.935s-1.25.206-1.54-.165c-.385-.495-2.365-1.54-1.21 1.815z"/><path d="M138.258 275.879s.487-2.536 3.446-1.3c0 0-2.317-.112-3.446 1.3zm-2.426-.82s.007 2.376 3.33 5.333c0 0 1.468 1.869 5.648 3.394 0 0-8.597-6.071-7.49-7.23 0 0-.355-1.3-1.488-1.497zm6.548 1.867s-2.996 3.614-5.647 1.342m4.333-22.678s-.094.043-.243.124c-.636.343-2.279 1.388-2.012 2.902.33 1.87-.055 2.42-.825 2.64-.77.22-2.585-1.485-2.75.825-.165 2.31-.385 5.335 1.155 5.61 1.54.275 4.125 1.045 5.39-.715 1.265-1.76.11-3.245 2.53-2.64s3.795 1.98 3.74 3.245c-.055 1.265-2.42.275-2.53 1.485-.11 1.21.385 2.915 1.21 1.98s.88-1.76 2.31-.605c1.43 1.155-1.265 3.245.384 3.355 1.65.11.825-1.265 2.475-1.375 1.65-.11 1.045-.935 2.695.88s3.795 1.54 2.475 2.915c-1.32 1.375-2.365-.825-3.795.495-1.43 1.32-3.685 2.145-1.375 2.915s2.915-1.155 4.62-.715c1.705.44.44-.512 3.135.899 2.695 1.41 3.135.97 5.06-.24 1.925-1.21 2.97-.072 3.96-4.353.99-4.281 2.915-14.401 1.705-16.051-1.21-1.65-4.565-5.94-9.02-6.105-4.455-.165-20.129-.99-20.624 0-.495.99.33 2.53.33 2.53z"/><path d="M153.388 272.17s1.978-1.07 2.693-1.73c.715-.66 2.97-.385 5.06-1.1 2.09-.715 5.28-2.53 5.665-4.18.385-1.65 4.4-3.465-.715-5.5s-2.09-1.265-5.225-1.815-5.613 3.948-7.455 3.58c-1.944-.39-10.373 2.834-10.373 2.834s-4.451-.089-3.896-3.92"/><path d="M159.885 269.664l-.449-1.809c-.11-.66-2.035-2.145-3.584-1.815-1.549.33-1.476-4.95-1.476-4.95s-.042-4.478-2.475-6.47m-15.843 6.864s-.84 3.999 0 5.15c.84 1.154 2.521.65 3.841.78 0 0-4.914-.507-3.446-3.727 0 0 2.131-1.187 1.977-1.864 0 0-1.92.622-2.372-.34zm3.446-1.243s-.847-4.01 3.446-4.688h2.711s-4.575-.226-6.157 4.688zm6.552 3.954s4.97 3.163 1.298 4.575c0 0-1.637-.131-1.298.895.34 1.026-.05.95 1.302 0 1.353-.951 1.207-.421 1.817.105 0 0 1.908 1.881.44 3.067 0 0-.075.622.555 0 .63-.621 2.15-.791 2.775-1.073 0 0-2.595.452-2.54-.565.058-1.017-.218-2.378-.928-2.545 0 0 1.38-1.691-3.42-4.459zm7.394 14.968s-2.006-.108-1.65-.477c.357-.37 2.516-3.02 3.463-1.425 0 0-4.305.66-1.813 1.903zm1.079-6.993s.412 1.232 1.364 1.571c.952.34 1.84.98 1.887 1.343 0 0-.652-2.284-3.251-2.915zm2.259 6.26s.904-.227 1.864 0c.961.225 3.562 3.516 7.402-.755l.243-2.18s-2.346 4.944-6.699 2.972c0 0-1.057-.702-2.81-.038z"/><path d="M157.477 275.565s3.499-1.33 3.994.43c.495 1.76.52 2.21-2.544 3.442m1.398-20.451s-6.067.218-4.623 5.904c0 0-.132-4.605 4.623-5.904zm-.035 11.422s4.972-1.408 6.27-2.992l.226 1.238s-2.287 1.722-6.496 1.754zM149.175 255.1s4.22 2.204 4.336 5.48c0 0-.384-5.03-2.169-5.961-1.784-.93-2.167.482-2.167.482zm5.015-.056s.961 2.736.34 4.52c0 0 2.993-4.184 6.833-4.014zm-2.517 9.664s-.186.838 1.62.841l.92-.097s-.94.697.674 1.34l-.552.312s-.59.344 1.413.734c0 0-1.224.735-2.003-.39 0 0-.102 1.03-1.939-.43 0 0 .274.027.903-.346 0 0-1.49-.435-2.182-1.133 0 0 .888.837 1.828.424 0 0-.729.016-.682-1.255z"/><path d="M152.644 265.963s6.19-2.809 10.492-11.116l1.928-.54-.986 1.408s-1.843 4.662-11.03 10.936c0 0-.9.167-.404-.688zm.036 1.001a.44.44 0 00-.438.393c-.01.092-1.106 9.227-12.408 18.457a.439.439 0 10.556.681c11.606-9.478 12.687-18.66 12.727-19.046a.44.44 0 00-.39-.483c-.017-.002-.033-.002-.048-.002z"/><path d="M142.179 284.965s7.448-1.296 6.596-7.44c0 0 1.105 3.444 2.917 2.806 1.813-.638 4.06-1.899 6.018 0 1.957 1.9 2.32 2.48 3.479 1.537l-3.842 6.38s-1.523.942-2.61 0c-1.088-.942-2.462-1.015-4.131-.798-1.67.218-6.542.415-8.427-2.485z"/><path d="M143.62 284.947s4.612-.66 6.823-3.906c0 0-.941 4.047-2.117 5.506 0 0-2.26.47-4.706-1.6zm11.525-4.707s-.46 3.483-1.31 4.847c0 0 2.114-1.835 2.396-3.01 0 0 .424 3.717-.847 5.787 0 0 3.106-3.247 3.482-5.365 0 0-.847-.705-1.646-1.458-.8-.753-1.28-1.037-2.075-.8zm-5.69 6.352s3.388-2.728 4.612-5.222c0 0-2.636 4.656-3.294 5.222 0 0-.753.187-1.318 0zm-7.276-1.627s-.26-.093-.554-.686m7.15-6.754s.141-.353-.752-.506"/><path d="M152.68 266.964a.44.44 0 00-.438.393c-.01.092-1.106 9.227-12.408 18.457a.439.439 0 10.556.681c11.606-9.478 12.687-18.66 12.727-19.046a.44.44 0 00-.39-.483c-.017-.002-.033-.002-.048-.002z"/><path d="M142.179 284.965s7.448-1.296 6.596-7.44c0 0 1.105 3.444 2.917 2.806 1.813-.638 4.06-1.899 6.018 0 1.957 1.9 2.32 2.48 3.479 1.537l-3.842 6.38s-1.523.942-2.61 0c-1.088-.942-2.462-1.015-4.131-.798-1.67.218-6.542.415-8.427-2.485z"/><path d="M143.62 284.947s4.612-.66 6.823-3.906c0 0-.941 4.047-2.117 5.506 0 0-2.26.47-4.706-1.6zm11.525-4.707s-.46 3.483-1.31 4.847c0 0 2.114-1.835 2.396-3.01 0 0 .424 3.717-.847 5.787 0 0 3.106-3.247 3.482-5.365 0 0-.847-.705-1.646-1.458-.8-.753-1.28-1.037-2.075-.8zm-5.69 6.352s3.388-2.728 4.612-5.222c0 0-2.636 4.656-3.294 5.222 0 0-.753.187-1.318 0zm-7.276-1.627s-.26-.093-.554-.686m7.15-6.754s.141-.353-.752-.506"/></g><g clip-path="url(#ak)" transform="matrix(.62536 0 0 -.62538 -78.915 184.243)"><path d="M133.045 264.611c0-3.566.89-6.923 2.462-9.863h24.934s5.613 0 5.613 5.613v21.393a20.864 20.864 0 01-12.053 3.811c-11.574 0-20.956-9.381-20.956-20.954" fill="url(#al)"/></g><g clip-path="url(#am)" transform="matrix(.62536 0 0 -.62538 -78.915 184.243)"><path d="M174.955 264.61c0 11.573-9.382 20.955-20.955 20.955-11.573 0-20.955-9.382-20.955-20.955 0-11.573 9.382-20.955 20.955-20.955 11.573 0 20.955 9.383 20.955 20.956z" fill="none" stroke="#2e3192" stroke-width=".44" stroke-miterlimit="10"/></g><g clip-path="url(#an)" transform="matrix(.62536 0 0 -.62538 -78.915 184.243)"><g mask="url(#ao)"><path d="M146.84 283.155a38.06 38.06 0 002.105.952s-.884-.26-2.105-.952m-10.208-28.407h13.228c-1.937 3.644-3.287 10.793-3.287 10.793-1.178-1.413-1.581-5.16-1.581-5.16-2.033 4.33.056 9.046.056 9.046-2.428-.802-2.77-4.552-2.77-4.552-1.415 3.965 3.392 11.512 3.392 11.512-2.824-1.299-5.875-5.479-5.875-5.479.231 7.253 4.417 10.756 7.045 12.247-20.155-9.863-10.208-28.407-10.208-28.407" fill="url(#ap)"/></g></g><g clip-path="url(#aq)" transform="matrix(.62536 0 0 -.62538 -78.915 184.243)"><g mask="url(#ar)"><path d="M150.245 284.431s14.719-.701 14.759-8.552l1.05.89v4.058c-2.217 1.806-6.076 4.078-11.463 4.078-1.353 0-2.802-.143-4.346-.474" fill="url(#as)"/></g></g><g clip-path="url(#at)" transform="matrix(.62536 0 0 -.62538 -78.915 184.243)"><path d="M143.871 283.86c-5.005-1.374-8.304-7.369-8.304-7.369-1.156-3.355.824-2.311 1.209-1.815.289.37.771 1.484 1.54.164.77-1.319 1.98-1.045 2.97-.935.99.111 3.355 1.596 1.595 2.586-1.76.99.88 2.254.88 2.254 2.035.276 3.3 3.85 3.3 3.85.161.684 1.058 1.782-.434 1.782-.546 0-1.414-.148-2.756-.517" fill="url(#au)"/></g><g clip-path="url(#av)" transform="matrix(.62536 0 0 -.62538 -78.915 184.243)"><path d="M135.566 276.49s3.3 5.995 8.305 7.37c5.004 1.375 3.41-.33 3.19-1.265 0 0-1.265-3.575-3.3-3.85 0 0-2.64-1.265-.88-2.255 1.76-.99-.605-2.475-1.595-2.585-.99-.11-2.2-.385-2.97.935s-1.25.206-1.54-.165c-.385-.495-2.365-1.54-1.21 1.815z" fill="none" stroke="#1f792f" stroke-width=".44" stroke-miterlimit="10"/></g><g clip-path="url(#aw)" transform="matrix(.62536 0 0 -.62538 -78.915 184.243)"><g mask="url(#ax)"><path d="M141.704 274.579s-2.316-.112-3.445 1.3c0 0 .486-2.536 3.445-1.3" fill="url(#ay)"/></g></g><g clip-path="url(#az)" transform="matrix(.62536 0 0 -.62538 -78.915 184.243)"><g mask="url(#aA)"><path d="M139.162 280.391c-3.323-2.956-3.33-5.332-3.33-5.332 1.133.197 1.488 1.497 1.488 1.497-1.104 1.156 7.446 7.198 7.491 7.23-4.181-1.525-5.649-3.395-5.649-3.395" fill="url(#aB)"/></g></g><g clip-path="url(#aC)" transform="matrix(.62536 0 0 -.62538 -78.915 184.243)"><path d="M142.38 276.926s-2.996 3.614-5.647 1.342" fill="none" stroke="#1f792f" stroke-width=".44" stroke-miterlimit="10" stroke-dasharray="1.76"/></g><g clip-path="url(#aD)" transform="matrix(.62536 0 0 -.62538 -78.915 184.243)"><path d="M159.656 279.809c-1.696-.887-1.824-.84-2.11-.792-.169.028-.393.056-1.025-.107-.797-.205-1.354.106-1.957.417-.686.354-1.434.708-2.663.298-2.31-.77-.055-1.594 1.375-2.915.709-.655 1.323-.443 1.925-.232.61.214 1.205.43 1.87-.263 1.32-1.375-.825-1.099-2.475-2.915-1.65-1.814-1.045-.99-2.695-.88-1.65.111-.825 1.485-2.475 1.375-1.65-.11 1.045-2.199-.385-3.355-1.43-1.155-1.485-.329-2.31.606s-1.32-.771-1.21-1.98c.11-1.211 2.475-.221 2.53-1.485.055-1.266-1.32-2.641-3.74-3.246-2.42-.604-1.265.881-2.53 2.64-1.264 1.761-3.85.99-5.39.716-1.539-.276-1.319-3.301-1.155-5.61.111-1.562.977-1.289 1.764-1.016.378.13.737.262.986.191.77-.221 1.155-.771.825-2.64-.267-1.514 1.377-2.56 2.012-2.903a3.48 3.48 0 01.243-.122s-.193-.36-.336-.843h19.711s5.613 0 5.613 5.613v18.606c-.396.133-.837.289-1.338.604-1.084.681-1.697 1.118-2.507 1.118-.628 0-1.376-.263-2.553-.88" fill="url(#aE)"/></g><g clip-path="url(#aF)" transform="matrix(.62536 0 0 -.62538 -78.915 184.243)" fill="none" stroke="#1f792f" stroke-width=".44" stroke-miterlimit="10"><path d="M141.066 255.59s-.094.043-.243.124c-.636.343-2.279 1.388-2.012 2.902.33 1.87-.055 2.42-.825 2.64-.77.22-2.585-1.485-2.75.825-.165 2.31-.385 5.335 1.155 5.61 1.54.275 4.125 1.045 5.39-.715 1.265-1.76.11-3.245 2.53-2.64s3.795 1.98 3.74 3.245c-.055 1.265-2.42.275-2.53 1.485-.11 1.21.385 2.915 1.21 1.98s.88-1.76 2.31-.605c1.43 1.155-1.265 3.245.384 3.355 1.65.11.825-1.265 2.475-1.375 1.65-.11 1.045-.935 2.695.88s3.795 1.54 2.475 2.915c-1.32 1.375-2.365-.825-3.795.495-1.43 1.32-3.685 2.145-1.375 2.915s2.915-1.155 4.62-.715c1.705.44.44-.512 3.135.899 2.695 1.41 3.135.97 5.06-.24 1.925-1.21 2.97-.072 3.96-4.353.99-4.281 2.915-14.401 1.705-16.051-1.21-1.65-4.565-5.94-9.02-6.105-4.455-.165-20.129-.99-20.624 0-.495.99.33 2.53.33 2.53z"/><path d="M153.388 272.17s1.978-1.07 2.693-1.73c.715-.66 2.97-.385 5.06-1.1 2.09-.715 5.28-2.53 5.665-4.18.385-1.65 4.4-3.465-.715-5.5s-2.09-1.265-5.225-1.815-5.613 3.948-7.455 3.58c-1.944-.39-10.373 2.834-10.373 2.834s-4.451-.089-3.896-3.92" stroke-dasharray="1.76"/><path d="M159.885 269.664l-.449-1.809c-.11-.66-2.035-2.145-3.584-1.815-1.549.33-1.476-4.95-1.476-4.95s-.042-4.478-2.475-6.47" stroke-dasharray="1.76"/></g><g clip-path="url(#aG)" transform="matrix(.62536 0 0 -.62538 -78.915 184.243)"><g mask="url(#aH)"><path d="M136.058 266.635c-.84-1.153 0-5.151 0-5.151.452.96 2.373.339 2.373.339.153.676-1.978 1.863-1.978 1.863-1.468 3.221 3.447 3.728 3.447 3.728-.366-.036-.759-.023-1.153-.01-.201.006-.402.012-.6.012-.823 0-1.599-.109-2.089-.781" fill="url(#aI)"/></g></g><g clip-path="url(#aJ)" transform="matrix(.62536 0 0 -.62538 -78.915 184.243)"><g mask="url(#aK)"><path d="M142.95 255.552h2.507c-.903.025-4.571.395-5.952 4.689 0 0-.848-4.01 3.445-4.689m2.507 0c.131-.002.204 0 .204 0z" fill="url(#aL)"/></g></g><g clip-path="url(#aM)" transform="matrix(.62536 0 0 -.62538 -78.915 184.243)"><g mask="url(#aN)"><path d="M149.615 272.837c1.469-1.186-.44-3.067-.44-3.067-.609-.526-.464-1.056-1.816-.106-1.352.951-.964 1.026-1.302 0-.34-1.026 1.298-.893 1.298-.893 3.671-1.413-1.298-4.576-1.298-4.576 4.8 2.767 3.42 4.459 3.42 4.459.71.166.985 1.528.929 2.546-.056 1.017 2.539.564 2.539.564-.625.283-2.144.452-2.775 1.073-.21.208-.342.276-.424.276-.164 0-.131-.276-.131-.276" fill="url(#aO)"/></g></g><g clip-path="url(#aP)" transform="matrix(.62536 0 0 -.62538 -78.915 184.243)"><g mask="url(#aQ)"><path d="M151.8 278.686c.357-.37 2.516-3.02 3.463-1.426 0 0-4.306.661-1.813 1.904 0 0-2.007-.108-1.65-.478" fill="url(#aR)"/></g></g><g clip-path="url(#aS)" transform="matrix(.62536 0 0 -.62538 -78.915 184.243)"><g mask="url(#aT)"><path d="M157.738 274.96a.374.374 0 01.042.123s-.013-.045-.042-.123m-1.845-1.219c-.952-.339-1.364-1.572-1.364-1.572a4.546 4.546 0 013.209 2.791c-.192-.371-.993-.916-1.845-1.219" fill="url(#aU)"/></g></g><g clip-path="url(#aV)" transform="matrix(.62536 0 0 -.62538 -78.915 184.243)"><g mask="url(#aW)"><path d="M158.652 278.429c-.959-.226-1.864 0-1.864 0 1.753-.664 2.81.037 2.81.037 3.54 1.605 5.753-1.366 6.456-2.531v1.741c-1.491 1.658-2.795 2.176-3.889 2.176-1.723 0-2.925-1.285-3.513-1.423" fill="url(#aX)"/></g></g><g clip-path="url(#aY)" transform="matrix(.62536 0 0 -.62538 -78.915 184.243)"><path d="M157.477 275.565s3.499-1.33 3.994.43c.495 1.76.52 2.21-2.544 3.442" fill="none" stroke="#1f792f" stroke-width=".44" stroke-miterlimit="10" stroke-dasharray="1.76"/></g><g clip-path="url(#aZ)" transform="matrix(.62536 0 0 -.62538 -78.915 184.243)"><g mask="url(#ba)"><path d="M160.326 258.987c-4.756 1.298-4.623 5.904-4.623 5.904-1.445-5.687 4.623-5.904 4.623-5.904" fill="url(#bb)"/></g></g><g clip-path="url(#bc)" transform="matrix(.62536 0 0 -.62538 -78.915 184.243)"><g mask="url(#bd)"><path d="M160.29 270.408s4.003-1.134 5.764-2.511v1.196c-.985.513-2.943 1.294-5.764 1.315z" fill="url(#be)"/></g></g><g clip-path="url(#bf)" transform="matrix(.62536 0 0 -.62538 -78.915 184.243)"><g mask="url(#bg)"><path d="M153.458 260.064c.029.169.047.341.053.516 0 0-.015-.196-.053-.516m-4.283-4.964s.046-.169.181-.352h2.191c1.28.947 1.766 4.074 1.911 5.316-.502-2.989-4.283-4.964-4.283-4.964" fill="url(#bh)"/></g></g><g clip-path="url(#bi)" transform="matrix(.62536 0 0 -.62538 -78.915 184.243)"><g mask="url(#bj)"><path d="M154.191 255.045l7.173.506c-3.842-.171-6.835 4.012-6.835 4.012.622-1.782-.338-4.518-.338-4.518" fill="url(#bk)"/></g></g><g clip-path="url(#bl)" transform="matrix(.62536 0 0 -.62538 -78.915 184.243)"><g mask="url(#bm)"><path d="M153.745 267.448s-.102 1.029-1.938-.43c0 0 .274.027.902-.346 0 0-1.489-.435-2.181-1.133 0 0 .888.838 1.827.425 0 0-.682.014-.683-1.135.026.231.245.718 1.621.72l.919-.097s-.94.698.675 1.34l-.551.313s-.591.343 1.413.733c0 0-.394.236-.876.236-.369 0-.79-.138-1.128-.626m-2.072-2.74a2.46 2.46 0 00-.001.121c-.009-.073.001-.121.001-.121" fill="url(#bn)"/></g></g><g clip-path="url(#bo)" transform="matrix(.62536 0 0 -.62538 -78.915 184.243)"><g mask="url(#bp)"><path d="M152.645 265.964s5.967-2.71 10.258-10.674c.364.155.737.354 1.092.61-.443.919-2.825 5.204-10.947 10.752 0 0-.071.013-.161.013-.234 0-.6-.087-.242-.701" fill="url(#bq)"/></g></g><g clip-path="url(#br)" transform="matrix(.62536 0 0 -.62538 -78.915 184.243)" fill="none" stroke="#fff" stroke-width="1.76" stroke-linecap="round" stroke-linejoin="round"><path d="M152.68 266.964a.44.44 0 00-.438.393c-.01.092-1.106 9.227-12.408 18.457a.439.439 0 10.556.681c11.606-9.478 12.687-18.66 12.727-19.046a.44.44 0 00-.39-.483c-.017-.002-.033-.002-.048-.002z"/><path d="M142.179 284.965s7.448-1.296 6.596-7.44c0 0 1.105 3.444 2.917 2.806 1.813-.638 4.06-1.899 6.018 0 1.957 1.9 2.32 2.48 3.479 1.537l-3.842 6.38s-1.523.942-2.61 0c-1.088-.942-2.462-1.015-4.131-.798-1.67.218-6.542.415-8.427-2.485z"/><path d="M143.62 284.947s4.612-.66 6.823-3.906c0 0-.941 4.047-2.117 5.506 0 0-2.26.47-4.706-1.6zm11.525-4.707s-.46 3.483-1.31 4.847c0 0 2.114-1.835 2.396-3.01 0 0 .424 3.717-.847 5.787 0 0 3.106-3.247 3.482-5.365 0 0-.847-.705-1.646-1.458-.8-.753-1.28-1.037-2.075-.8zm-5.69 6.352s3.388-2.728 4.612-5.222c0 0-2.636 4.656-3.294 5.222 0 0-.753.187-1.318 0zm-7.276-1.627s-.26-.093-.554-.686m7.15-6.754s.141-.353-.752-.506"/></g><g clip-path="url(#bs)" transform="matrix(.62536 0 0 -.62538 -78.915 184.243)"><path d="M139.772 286.433a.438.438 0 01.062-.618c11.302-9.231 12.398-18.366 12.408-18.457a.44.44 0 01.438-.394l.046.003a.438.438 0 01.391.482c-.04.386-1.121 9.568-12.726 19.047a.439.439 0 01-.278.099.436.436 0 01-.341-.162" fill="url(#bt)"/></g><g clip-path="url(#bu)" transform="matrix(.62536 0 0 -.62538 -78.915 184.243)"><path d="M152.68 266.964a.44.44 0 00-.438.393c-.01.092-1.106 9.227-12.408 18.457a.439.439 0 10.556.681c11.606-9.478 12.687-18.66 12.727-19.046a.44.44 0 00-.39-.483c-.017-.002-.033-.002-.048-.002z" fill="none" stroke="#5a3114" stroke-width=".44" stroke-miterlimit="10"/></g><g clip-path="url(#bv)" transform="matrix(.62536 0 0 -.62538 -78.915 184.243)"><path d="M154.737 288.247c-1.088-.942-2.462-1.014-4.131-.797-1.669.218-6.542.414-8.427-2.486 0 0 7.448-1.295 6.595-7.439 0 0 1.106 3.444 2.918 2.807 1.812-.639 4.06-1.9 6.017 0 1.957 1.899 2.32 2.479 3.48 1.536l-3.842 6.379s-.677.419-1.451.419c-.386 0-.796-.104-1.159-.419" fill="url(#bw)"/></g><g clip-path="url(#bx)" transform="matrix(.62536 0 0 -.62538 -78.915 184.243)"><path d="M142.179 284.965s7.448-1.296 6.596-7.44c0 0 1.105 3.444 2.917 2.806 1.813-.638 4.06-1.899 6.018 0 1.957 1.9 2.32 2.48 3.479 1.537l-3.842 6.38s-1.523.942-2.61 0c-1.088-.942-2.462-1.015-4.131-.798-1.67.218-6.542.415-8.427-2.485z" fill="none" stroke="#d53a1a" stroke-width=".44" stroke-linecap="round" stroke-linejoin="round" stroke-miterlimit="10"/></g><g clip-path="url(#by)" transform="matrix(.62536 0 0 -.62538 -78.915 184.243)"><g mask="url(#bz)"><path d="M143.62 284.946s4.612-.658 6.823-3.905c0 0-.94 4.047-2.118 5.505 0 0-.22.046-.598.046-.832 0-2.425-.222-4.107-1.646" fill="url(#bA)"/></g></g><g clip-path="url(#bB)" transform="matrix(.62536 0 0 -.62538 -78.915 184.243)"><g mask="url(#bC)"><path d="M156.231 282.076c-.283 1.177-2.396 3.012-2.396 3.012.851-1.365 1.31-4.848 1.31-4.848.795-.236 1.274.048 2.074.801.8.753 1.647 1.458 1.647 1.458-.377 2.118-3.482 5.365-3.482 5.365 1.271-2.07.847-5.788.847-5.788" fill="url(#bD)"/></g></g><g clip-path="url(#bE)" transform="matrix(.62536 0 0 -.62538 -78.915 184.243)"><g mask="url(#bF)"><path d="M149.455 286.592s2.685-2.161 4.137-4.396c-.789 1.365-2.336 3.981-2.82 4.396 0 0-.334.084-.725.084-.194 0-.404-.022-.592-.084m4.611-5.221a7.94 7.94 0 01-.474.825c.284-.489.47-.818.474-.825" fill="url(#bG)"/></g></g><g clip-path="url(#bH)" transform="matrix(.62536 0 0 -.62538 -78.915 184.243)"><path d="M141.625 284.279l.554.685s-.259-.092-.554-.685" fill="url(#bI)"/></g><g clip-path="url(#bJ)" transform="matrix(.62536 0 0 -.62538 -78.915 184.243)"><path d="M142.179 284.965s-.26-.093-.554-.686" fill="none" stroke="#d53a1a" stroke-width=".44" stroke-linecap="round" stroke-linejoin="round" stroke-miterlimit="10"/></g><g clip-path="url(#bK)" transform="matrix(.62536 0 0 -.62538 -78.915 184.243)"><path d="M148.022 277.019c.895.153.752.506.752.506z" fill="url(#bL)"/></g><g clip-path="url(#bM)" transform="matrix(.62536 0 0 -.62538 -78.915 184.243)"><path d="M148.775 277.525s.141-.353-.752-.506" fill="none" stroke="#d53a1a" stroke-width=".44" stroke-linecap="round" stroke-linejoin="round" stroke-miterlimit="10"/></g><path d="M0 0s-5.613 0-5.613-5.613v-26.192s0-5.612 5.613-5.612h26.192s5.613 0 5.613 5.612v26.192S31.805 0 26.192 0z" fill="none" stroke="#231f20" stroke-width=".66" transform="matrix(.62536 0 0 -.62538 5.04 1.53)"/></svg>