<svg xmlns="http://www.w3.org/2000/svg" width="100" height="100" viewBox="0 0 26.458 26.458"><defs><clipPath id="aW" clipPathUnits="userSpaceOnUse"><path d="M190.171 598.676c0-2.364 1.738-2.977 1.738-2.977-1.062 1.149-1.358 2.758-1.358 2.758-.11 2.42 2.555 2.995 2.555 2.995-2.873-.53-2.935-2.758-2.935-2.776"/></clipPath><clipPath id="bl" clipPathUnits="userSpaceOnUse"><path d="M190.655 594.625l-.301-7.614s-.153-1.579 1.051-1.383c-.112-.013-1.024-.011-.672 3.85 0 0 .547 6.515 3.381.451v1.747s-.141 2.049.14 2.664c-.224-.341-.983-1.358-2.036-1.277 0 0-1.449.134-1.563 1.562l.023.585a2.638 2.638 0 01-.023-.585m3.599-.285c.045.069.069.111.069.111a.45.45 0 01-.069-.111m-2.849-8.712l.011.002-.011-.002"/></clipPath><clipPath id="aH" clipPathUnits="userSpaceOnUse"><path d="M209.408 586.636h-2.279v-1.006h1.568l-1.604-1.605a2.86 2.86 0 01-4.496-2.344 2.86 2.86 0 015.721 0 2.84 2.84 0 01-.514 1.632l1.604 1.606v-1.569h1.007v3.286zm-5.782-4.955a1.83 1.83 0 003.662 0 1.832 1.832 0 00-3.662 0"/></clipPath><clipPath id="aF" clipPathUnits="userSpaceOnUse"><path d="M209.408 586.636h-2.279v-1.006h1.568l-1.604-1.605a2.86 2.86 0 01-4.496-2.344 2.86 2.86 0 015.721 0 2.84 2.84 0 01-.514 1.632l1.604 1.606v-1.569h1.007v3.286zm-5.782-4.955a1.83 1.83 0 003.662 0 1.832 1.832 0 00-3.662 0"/></clipPath><clipPath id="aE" clipPathUnits="userSpaceOnUse"><path d="M164.481 573.003h10.835v10.451h-10.835z"/></clipPath><clipPath id="aD" clipPathUnits="userSpaceOnUse"><path d="M164.481 583.454h10.835v-10.451h-10.835z"/></clipPath><clipPath id="aC" clipPathUnits="userSpaceOnUse"><path d="M174.31 577.932h-.149v-1.866l.149.149v-1.569h1.005v3.286z"/></clipPath><clipPath id="aA" clipPathUnits="userSpaceOnUse"><path d="M174.31 577.932h-.149v-1.866l.149.149v-1.569h1.005v3.286z"/></clipPath><clipPath id="az" clipPathUnits="userSpaceOnUse"><path d="M205.403 573.003h10.836v10.451h-10.836z"/></clipPath><clipPath id="ay" clipPathUnits="userSpaceOnUse"><path d="M205.403 583.454h10.836v-10.451h-10.836z"/></clipPath><clipPath id="ax" clipPathUnits="userSpaceOnUse"><path d="M208.421 572.978a2.86 2.86 0 012.86-2.86c.101 0 .199.005.297.015v1.038a1.83 1.83 0 00-2.127 1.807 1.83 1.83 0 002.127 1.806v1.038a2.86 2.86 0 01-3.157-2.844"/></clipPath><clipPath id="av" clipPathUnits="userSpaceOnUse"><path d="M208.421 572.978a2.86 2.86 0 012.86-2.86c.101 0 .199.005.297.015v1.038a1.83 1.83 0 00-2.127 1.807 1.83 1.83 0 002.127 1.806v1.038a2.86 2.86 0 01-3.157-2.844"/></clipPath><clipPath id="au" clipPathUnits="userSpaceOnUse"><path d="M191.762 573.003h10.836v10.451h-10.836z"/></clipPath><clipPath id="at" clipPathUnits="userSpaceOnUse"><path d="M191.762 583.454h10.836v-10.451h-10.836z"/></clipPath><clipPath id="as" clipPathUnits="userSpaceOnUse"><path d="M201.592 577.932h-2.281v-1.005h1.57l-1.606-1.606a2.86 2.86 0 01-4.495-2.343 2.86 2.86 0 115.72 0c0 .607-.191 1.169-.514 1.632l1.606 1.605v-1.569h1.005v3.286zm-5.783-4.954a1.83 1.83 0 003.662 0 1.831 1.831 0 10-3.662 0"/></clipPath><clipPath id="aq" clipPathUnits="userSpaceOnUse"><path d="M201.592 577.932h-2.281v-1.005h1.57l-1.606-1.606a2.86 2.86 0 01-4.495-2.343 2.86 2.86 0 115.72 0c0 .607-.191 1.169-.514 1.632l1.606 1.605v-1.569h1.005v3.286zm-5.783-4.954a1.83 1.83 0 003.662 0 1.831 1.831 0 10-3.662 0"/></clipPath><clipPath id="ap" clipPathUnits="userSpaceOnUse"><path d="M178.121 573.003h10.835v10.451h-10.835z"/></clipPath><clipPath id="ao" clipPathUnits="userSpaceOnUse"><path d="M178.121 583.454h10.835v-10.451h-10.835z"/></clipPath><clipPath id="an" clipPathUnits="userSpaceOnUse"><path d="M187.951 577.932h-2.28v-1.005h1.569l-1.605-1.606a2.86 2.86 0 01-4.496-2.343 2.86 2.86 0 012.861-2.86 2.859 2.859 0 012.859 2.86 2.85 2.85 0 01-.513 1.632l1.605 1.605v-1.569h1.005v3.286zm-5.783-4.954a1.83 1.83 0 003.662 0 1.832 1.832 0 10-3.662 0"/></clipPath><clipPath id="al" clipPathUnits="userSpaceOnUse"><path d="M187.951 577.932h-2.28v-1.005h1.569l-1.605-1.606a2.86 2.86 0 01-4.496-2.343 2.86 2.86 0 012.861-2.86 2.859 2.859 0 012.859 2.86 2.85 2.85 0 01-.513 1.632l1.605 1.605v-1.569h1.005v3.286zm-5.783-4.954a1.83 1.83 0 003.662 0 1.832 1.832 0 10-3.662 0"/></clipPath><clipPath id="ak" clipPathUnits="userSpaceOnUse"><path d="M172.297 581.707h10.835v10.45h-10.835z"/></clipPath><clipPath id="aj" clipPathUnits="userSpaceOnUse"><path d="M172.297 592.157h10.835v-10.45h-10.835z"/></clipPath><clipPath id="ai" clipPathUnits="userSpaceOnUse"><path d="M182.127 586.636h-2.28v-1.006h1.569l-1.605-1.605a2.86 2.86 0 01-4.496-2.344 2.86 2.86 0 015.721 0c0 .607-.192 1.17-.514 1.632l1.605 1.606v-1.569h1.005v3.286zm-5.782-4.955a1.83 1.83 0 103.661 0 1.832 1.832 0 10-3.661 0"/></clipPath><clipPath id="ag" clipPathUnits="userSpaceOnUse"><path d="M182.127 586.636h-2.28v-1.006h1.569l-1.605-1.605a2.86 2.86 0 01-4.496-2.344 2.86 2.86 0 015.721 0c0 .607-.192 1.17-.514 1.632l1.605 1.606v-1.569h1.005v3.286zm-5.782-4.955a1.83 1.83 0 103.661 0 1.832 1.832 0 10-3.661 0"/></clipPath><clipPath id="af" clipPathUnits="userSpaceOnUse"><path d="M199.579 600.188h10.835v10.45h-10.835z"/></clipPath><clipPath id="ae" clipPathUnits="userSpaceOnUse"><path d="M199.579 610.638h10.835v-10.45h-10.835z"/></clipPath><clipPath id="ad" clipPathUnits="userSpaceOnUse"><path d="M209.408 605.117h-2.279v-1.006h1.568l-1.604-1.605a2.86 2.86 0 01-4.496-2.345 2.86 2.86 0 015.721 0c0 .608-.191 1.17-.514 1.634l1.604 1.605v-1.569h1.007v3.286zm-5.782-4.956a1.832 1.832 0 103.662 0 1.831 1.831 0 00-3.662 0"/></clipPath><clipPath id="ab" clipPathUnits="userSpaceOnUse"><path d="M209.408 605.117h-2.279v-1.006h1.568l-1.604-1.605a2.86 2.86 0 01-4.496-2.345 2.86 2.86 0 015.721 0c0 .608-.191 1.17-.514 1.634l1.604 1.605v-1.569h1.007v3.286zm-5.782-4.956a1.832 1.832 0 103.662 0 1.831 1.831 0 00-3.662 0"/></clipPath><clipPath id="aa" clipPathUnits="userSpaceOnUse"><path d="M185.938 600.188h10.835v10.45h-10.835z"/></clipPath><clipPath id="Z" clipPathUnits="userSpaceOnUse"><path d="M185.938 610.638h10.835v-10.45h-10.835z"/></clipPath><clipPath id="Y" clipPathUnits="userSpaceOnUse"><path d="M195.767 605.117h-2.28v-1.006h1.569l-1.605-1.605a2.844 2.844 0 01-1.635.516 2.86 2.86 0 110-5.72 2.86 2.86 0 012.86 2.859c0 .608-.19 1.17-.514 1.634l1.605 1.605v-1.569h1.006v3.286zm-5.781-4.956a1.832 1.832 0 103.662 0 1.83 1.83 0 00-3.662 0"/></clipPath><clipPath id="a" clipPathUnits="userSpaceOnUse"><path d="M-14243.6 14986.4h28835.1v-28835.2h-28835.1z"/></clipPath><clipPath id="b" clipPathUnits="userSpaceOnUse"><path d="M194.323 595.994h-4.122v-10.562h4.122z"/></clipPath><clipPath id="W" clipPathUnits="userSpaceOnUse"><path d="M195.767 605.117h-2.28v-1.006h1.569l-1.605-1.605a2.86 2.86 0 01-4.494-2.272v-.145a2.86 2.86 0 015.719.072c0 .608-.19 1.17-.514 1.634l1.605 1.605v-1.569h1.006v3.286zm-5.781-4.956a1.832 1.832 0 103.662 0 1.83 1.83 0 00-3.662 0"/></clipPath><clipPath id="V" clipPathUnits="userSpaceOnUse"><path d="M164.481 591.485h10.835v10.45h-10.835z"/></clipPath><clipPath id="bi" clipPathUnits="userSpaceOnUse"><path d="M193.475 580.703l-.003.507s-.001-.19.003-.507m.028-5.181c-.166-1.32.392-1.54.392-1.54.591-.291.861 0 .861 0-1.11.099-1.261 5.093-1.281 6.721z"/></clipPath><clipPath id="U" clipPathUnits="userSpaceOnUse"><path d="M164.481 601.935h10.835v-10.45h-10.835z"/></clipPath><clipPath id="d" clipPathUnits="userSpaceOnUse"><path d="M-14243.7 14986.4h28835.2v-28835.2h-28835.2z"/></clipPath><clipPath id="e" clipPathUnits="userSpaceOnUse"><path d="M193.337 581.21h1.419v-7.518h-1.419z"/></clipPath><clipPath id="T" clipPathUnits="userSpaceOnUse"><path d="M174.31 596.414h-.149v-1.867l.149.15v-1.569h1.005v3.286z"/></clipPath><clipPath id="R" clipPathUnits="userSpaceOnUse"><path d="M174.31 596.414h-.149v-1.867l.149.15v-1.569h1.005v3.286z"/></clipPath><clipPath id="bf" clipPathUnits="userSpaceOnUse"><path d="M190.357 581.687l-.003.502s0-.187.003-.502m.028-5.186c-.165-1.32.392-1.54.392-1.54.592-.29.861 0 .861 0-1.111.099-1.261 5.102-1.281 6.726z"/></clipPath><clipPath id="Q" clipPathUnits="userSpaceOnUse"><path d="M205.403 591.485h10.836v10.45h-10.836z"/></clipPath><clipPath id="g" clipPathUnits="userSpaceOnUse"><path d="M-32768 32767h65535v-65535h-65535z"/></clipPath><clipPath id="h" clipPathUnits="userSpaceOnUse"><path d="M190.22 582.19h1.418v-7.519h-1.418z"/></clipPath><clipPath id="P" clipPathUnits="userSpaceOnUse"><path d="M205.403 601.935h10.836v-10.45h-10.836z"/></clipPath><clipPath id="O" clipPathUnits="userSpaceOnUse"><path d="M208.421 591.458a2.861 2.861 0 012.86-2.86c.101 0 .199.006.297.016v1.038a1.83 1.83 0 00-2.127 1.806 1.83 1.83 0 001.83 1.832c.101 0 .2-.008.297-.024v1.037a2.86 2.86 0 01-3.157-2.845"/></clipPath><clipPath id="bc" clipPathUnits="userSpaceOnUse"><path d="M189.182 594.991s.013-5.829-.018-7.763c.062 1.956.297 8.287.765 8.471 0 0-.663-.108-.747-.708m-.034-8.333c.007.084.011.285.016.57l-.016-.57"/></clipPath><clipPath id="M" clipPathUnits="userSpaceOnUse"><path d="M208.421 591.458a2.861 2.861 0 012.86-2.86c.101 0 .199.006.297.016v1.038a1.83 1.83 0 00-2.127 1.806 1.83 1.83 0 001.83 1.832c.101 0 .2-.008.297-.024v1.037a2.86 2.86 0 01-3.157-2.845"/></clipPath><clipPath id="j" clipPathUnits="userSpaceOnUse"><path d="M-32768 32767h65535v-65535h-65535z"/></clipPath><clipPath id="k" clipPathUnits="userSpaceOnUse"><path d="M188.372 586.725l.781 9.041 1.551-.134-.781-9.041z"/></clipPath><clipPath id="L" clipPathUnits="userSpaceOnUse"><path d="M191.762 591.485h10.836v10.45h-10.836z"/></clipPath><clipPath id="K" clipPathUnits="userSpaceOnUse"><path d="M191.762 601.935h10.836v-10.45h-10.836z"/></clipPath><clipPath id="aZ" clipPathUnits="userSpaceOnUse"><path d="M194.791 593.743s.013-5.832-.018-7.765c.062 1.954.296 8.28.764 8.473h-.001c-.037-.007-.664-.127-.745-.708m-.035-8.334c.007.085.013.285.017.569l-.017-.569"/></clipPath><clipPath id="J" clipPathUnits="userSpaceOnUse"><path d="M201.592 596.414h-2.281v-1.006h1.57l-1.606-1.605a2.839 2.839 0 01-1.634.516 2.862 2.862 0 010-5.721 2.861 2.861 0 012.859 2.86c0 .609-.191 1.17-.514 1.634l1.606 1.605v-1.569h1.005v3.286zm-5.783-4.956a1.83 1.83 0 103.662 0 1.83 1.83 0 00-3.662 0"/></clipPath><clipPath id="m" clipPathUnits="userSpaceOnUse"><path d="M-14243.7 14986.4h28835.2v-28835.2h-28835.2z"/></clipPath><clipPath id="n" clipPathUnits="userSpaceOnUse"><path d="M193.981 585.476l.781 9.042 1.551-.134-.781-9.042z"/></clipPath><clipPath id="H" clipPathUnits="userSpaceOnUse"><path d="M201.592 596.414h-2.281v-1.006h1.57l-1.606-1.605a2.839 2.839 0 01-1.634.516 2.862 2.862 0 010-5.721 2.861 2.861 0 012.859 2.86c0 .609-.191 1.17-.514 1.634l1.606 1.605v-1.569h1.005v3.286zm-5.783-4.956a1.83 1.83 0 103.662 0 1.83 1.83 0 00-3.662 0"/></clipPath><clipPath id="G" clipPathUnits="userSpaceOnUse"><path d="M178.121 591.485h10.835v10.45h-10.835z"/></clipPath><clipPath id="aI" clipPathUnits="userSpaceOnUse"><path d="M199.579 592.157h10.835v-10.45h-10.835z"/></clipPath><clipPath id="F" clipPathUnits="userSpaceOnUse"><path d="M178.121 601.935h10.835v-10.45h-10.835z"/></clipPath><clipPath id="p" clipPathUnits="userSpaceOnUse"><path d="M-14243.7 14986.4h28835.2v-28835.2h-28835.2z"/></clipPath><clipPath id="q" clipPathUnits="userSpaceOnUse"><path d="M190.171 601.452h2.935v-5.753h-2.935z"/></clipPath><clipPath id="E" clipPathUnits="userSpaceOnUse"><path d="M187.951 596.414h-2.28v-1.006h1.569l-1.605-1.605a2.861 2.861 0 01-4.496-2.345 2.86 2.86 0 015.72 0c0 .609-.191 1.17-.513 1.634l1.605 1.605v-1.569h1.005v3.286zm-5.783-4.956a1.83 1.83 0 103.662 0 1.831 1.831 0 00-3.662 0"/></clipPath><clipPath id="C" clipPathUnits="userSpaceOnUse"><path d="M187.951 596.414h-2.28v-1.006h1.569l-1.605-1.605a2.861 2.861 0 01-4.496-2.345 2.86 2.86 0 015.72 0c0 .609-.191 1.17-.513 1.634l1.605 1.605v-1.569h1.005v3.286zm-5.783-4.956a1.83 1.83 0 103.662 0 1.831 1.831 0 00-3.662 0"/></clipPath><clipPath id="aU" clipPathUnits="userSpaceOnUse"><path d="M189.929 598.387a3.178 3.178 0 016.354 0 3.177 3.177 0 01-6.354 0"/></clipPath><clipPath id="B" clipPathUnits="userSpaceOnUse"><path d="M172.297 600.188h10.835v10.45h-10.835z"/></clipPath><clipPath id="aS" clipPathUnits="userSpaceOnUse"><path d="M195.497 594.716a1.174 1.174 0 01-1.174-1.174v-8.126c0-.649.526-1.175 1.174-1.175h.084c.649 0 1.174.526 1.174 1.175v8.126c0 .649-.525 1.174-1.174 1.174z"/></clipPath><clipPath id="A" clipPathUnits="userSpaceOnUse"><path d="M172.297 610.638h10.835v-10.45h-10.835z"/></clipPath><clipPath id="aQ" clipPathUnits="userSpaceOnUse"><path d="M190.2 594.894v-8.396c0-.649.526-1.175 1.174-1.175l2.99-.609c.649 0 1.175.526 1.175 1.175v8.396c0 .649-.526 1.176-1.175 1.176l-2.99.608a1.175 1.175 0 01-1.174-1.175"/></clipPath><clipPath id="z" clipPathUnits="userSpaceOnUse"><path d="M182.127 605.117h-2.28v-1.006h1.569l-1.605-1.605a2.861 2.861 0 01-4.496-2.345 2.86 2.86 0 015.721 0c0 .608-.192 1.17-.514 1.634l1.605 1.605v-1.569h1.005v3.286zm-5.782-4.956a1.83 1.83 0 103.661 0 1.83 1.83 0 00-3.661 0"/></clipPath><clipPath id="aO" clipPathUnits="userSpaceOnUse"><path d="M194.28 586.066a1.174 1.174 0 01-1.174-1.175v-10.154c0-.649.525-1.175 1.174-1.175h.084c.649 0 1.175.526 1.175 1.175v10.154c0 .649-.526 1.175-1.175 1.175z"/></clipPath><clipPath id="x" clipPathUnits="userSpaceOnUse"><path d="M182.127 605.117h-2.28v-1.006h1.569l-1.605-1.605a2.861 2.861 0 01-4.496-2.345 2.86 2.86 0 015.721 0c0 .608-.192 1.17-.514 1.634l1.605 1.605v-1.569h1.005v3.286zm-5.782-4.956a1.83 1.83 0 103.661 0 1.83 1.83 0 00-3.661 0"/></clipPath><clipPath id="aM" clipPathUnits="userSpaceOnUse"><path d="M191.374 587.011c-.648 0-1.174-.085-1.174-.733v-10.595c0-.649.526-1.174 1.174-1.174h.083c.65 0 1.175.525 1.175 1.174v10.155c0 .648-.525 1.173-1.175 1.173z"/></clipPath><clipPath id="w" clipPathUnits="userSpaceOnUse"><path d="M164.481 610.638h51.758v-41.584h-51.758z"/></clipPath><clipPath id="aK" clipPathUnits="userSpaceOnUse"><path d="M190.158 595.832a1.175 1.175 0 01-1.175-1.175v-8.126c0-.649.526-1.175 1.175-1.175h.083c.649 0 1.175.526 1.175 1.175v8.126c0 .649-.526 1.175-1.175 1.175z"/></clipPath><clipPath id="u" clipPathUnits="userSpaceOnUse"><path d="M174.161 569.054h37.417v37.417h-37.417z"/></clipPath><clipPath id="s" clipPathUnits="userSpaceOnUse"><path d="M179.773 606.47s-5.612 0-5.612-5.612v-26.195c.001-.171.087-5.609 5.612-5.609h26.192s5.613 0 5.613 5.612v26.192s0 5.612-5.613 5.612z"/></clipPath><clipPath id="t" clipPathUnits="userSpaceOnUse"><path d="M174.161 606.471h37.417v-37.417h-37.417z"/></clipPath><clipPath id="aJ" clipPathUnits="userSpaceOnUse"><path d="M199.579 581.707h10.835v10.45h-10.835z"/></clipPath><linearGradient id="bk" spreadMethod="pad" gradientTransform="matrix(0 7.35685 7.35685 0 194.114 573.853)" gradientUnits="userSpaceOnUse" y2="0" x2="1" y1="0" x1="0"><stop offset="0" stop-color="#fff"/><stop offset="1" stop-color="#fff"/></linearGradient><linearGradient id="aL" spreadMethod="pad" gradientTransform="matrix(1.41943 0 0 -1.41943 189.389 590.594)" gradientUnits="userSpaceOnUse" y2="0" x2="1" y1="0" x1="0"><stop offset="0" stop-color="#00adef"/><stop offset="1" stop-color="#b3e6fa"/></linearGradient><linearGradient id="aP" spreadMethod="pad" gradientTransform="matrix(1.41943 0 0 -1.41943 193.511 579.814)" gradientUnits="userSpaceOnUse" y2="0" x2="1" y1="0" x1="0"><stop offset="0" stop-color="#00adef"/><stop offset="1" stop-color="#b3e6fa"/></linearGradient><linearGradient id="y" spreadMethod="pad" gradientTransform="matrix(0 7.81468 7.81468 0 179.224 597.302)" gradientUnits="userSpaceOnUse" y2="0" x2="1" y1="0" x1="0"><stop offset="0" stop-color="#2e3192"/><stop offset=".125" stop-color="#2e3192"/><stop offset=".818" stop-color="#00adef"/><stop offset="1" stop-color="#00adef"/></linearGradient><linearGradient id="aR" spreadMethod="pad" gradientTransform="matrix(5.33971 0 0 -5.33971 190.2 590.392)" gradientUnits="userSpaceOnUse" y2="0" x2="1" y1="0" x1="0"><stop offset="0" stop-color="#00adef"/><stop offset="1" stop-color="#b3e6fa"/></linearGradient><linearGradient id="aT" spreadMethod="pad" gradientTransform="matrix(1.4194 0 0 -1.4194 194.728 589.479)" gradientUnits="userSpaceOnUse" y2="0" x2="1" y1="0" x1="0"><stop offset="0" stop-color="#00adef"/><stop offset="1" stop-color="#b3e6fa"/></linearGradient><linearGradient id="aV" spreadMethod="pad" gradientTransform="matrix(6.35329 0 0 -6.35329 189.93 598.386)" gradientUnits="userSpaceOnUse" y2="0" x2="1" y1="0" x1="0"><stop offset="0" stop-color="#00adef"/><stop offset="1" stop-color="#b3e6fa"/></linearGradient><linearGradient id="aY" spreadMethod="pad" gradientTransform="matrix(0 5.75199 5.75199 0 191.638 595.7)" gradientUnits="userSpaceOnUse" y2="0" x2="1" y1="0" x1="0"><stop offset="0" stop-color="#fff"/><stop offset="1" stop-color="#fff"/></linearGradient><linearGradient id="D" spreadMethod="pad" gradientTransform="matrix(0 7.8147 7.8147 0 185.048 588.599)" gradientUnits="userSpaceOnUse" y2="0" x2="1" y1="0" x1="0"><stop offset="0" stop-color="#2e3192"/><stop offset=".125" stop-color="#2e3192"/><stop offset=".818" stop-color="#00adef"/><stop offset="1" stop-color="#00adef"/></linearGradient><linearGradient id="r" spreadMethod="pad" gradientTransform="matrix(0 5.75199 5.75199 0 191.638 595.7)" gradientUnits="userSpaceOnUse" y2="0" x2="1" y1="0" x1="0"><stop offset="0" stop-color="#fff"/><stop offset="1" stop-opacity="0" stop-color="#fff"/></linearGradient><linearGradient id="bb" spreadMethod="pad" gradientTransform="matrix(.78136 9.04143 9.04143 -.78136 194.416 585.438)" gradientUnits="userSpaceOnUse" y2="0" x2="1" y1="0" x1="0"><stop offset="0" stop-color="#fff"/><stop offset="1" stop-color="#fff"/></linearGradient><linearGradient id="o" spreadMethod="pad" gradientTransform="matrix(.78136 9.04143 9.04143 -.78136 194.416 585.438)" gradientUnits="userSpaceOnUse" y2="0" x2="1" y1="0" x1="0"><stop offset="0" stop-opacity="0" stop-color="#fff"/><stop offset="1" stop-color="#fff"/></linearGradient><linearGradient id="I" spreadMethod="pad" gradientTransform="matrix(0 7.8147 7.8147 0 198.689 588.599)" gradientUnits="userSpaceOnUse" y2="0" x2="1" y1="0" x1="0"><stop offset="0" stop-color="#2e3192"/><stop offset=".125" stop-color="#2e3192"/><stop offset=".818" stop-color="#00adef"/><stop offset="1" stop-color="#00adef"/></linearGradient><linearGradient id="be" spreadMethod="pad" gradientTransform="matrix(.78135 9.04139 9.04139 -.78135 188.807 586.688)" gradientUnits="userSpaceOnUse" y2="0" x2="1" y1="0" x1="0"><stop offset="0" stop-color="#fff"/><stop offset="1" stop-color="#fff"/></linearGradient><linearGradient id="l" spreadMethod="pad" gradientTransform="matrix(.78135 9.04139 9.04139 -.78135 188.807 586.688)" gradientUnits="userSpaceOnUse" y2="0" x2="1" y1="0" x1="0"><stop offset="0" stop-opacity="0" stop-color="#fff"/><stop offset="1" stop-color="#fff"/></linearGradient><linearGradient id="aG" spreadMethod="pad" gradientTransform="matrix(0 7.81509 7.81509 0 206.506 578.82)" gradientUnits="userSpaceOnUse" y2="0" x2="1" y1="0" x1="0"><stop offset="0" stop-color="#2e3192"/><stop offset=".125" stop-color="#2e3192"/><stop offset=".818" stop-color="#00adef"/><stop offset="1" stop-color="#00adef"/></linearGradient><linearGradient id="N" spreadMethod="pad" gradientTransform="matrix(0 7.8147 7.8147 0 212.33 588.599)" gradientUnits="userSpaceOnUse" y2="0" x2="1" y1="0" x1="0"><stop offset="0" stop-color="#2e3192"/><stop offset=".125" stop-color="#2e3192"/><stop offset=".818" stop-color="#00adef"/><stop offset="1" stop-color="#00adef"/></linearGradient><linearGradient id="bh" spreadMethod="pad" gradientTransform="matrix(0 7.35726 7.35726 0 190.996 574.832)" gradientUnits="userSpaceOnUse" y2="0" x2="1" y1="0" x1="0"><stop offset="0" stop-color="#fff"/><stop offset="1" stop-color="#fff"/></linearGradient><linearGradient id="i" spreadMethod="pad" gradientTransform="matrix(0 7.35726 7.35726 0 190.996 574.832)" gradientUnits="userSpaceOnUse" y2="0" x2="1" y1="0" x1="0"><stop offset="0" stop-color="#fff"/><stop offset="1" stop-opacity="0" stop-color="#fff"/></linearGradient><linearGradient id="aN" spreadMethod="pad" gradientTransform="matrix(1.41943 0 0 -1.41943 190.605 580.76)" gradientUnits="userSpaceOnUse" y2="0" x2="1" y1="0" x1="0"><stop offset="0" stop-color="#00adef"/><stop offset="1" stop-color="#b3e6fa"/></linearGradient><linearGradient id="S" spreadMethod="pad" gradientTransform="matrix(0 7.8147 7.8147 0 171.407 588.599)" gradientUnits="userSpaceOnUse" y2="0" x2="1" y1="0" x1="0"><stop offset="0" stop-color="#2e3192"/><stop offset=".125" stop-color="#2e3192"/><stop offset=".818" stop-color="#00adef"/><stop offset="1" stop-color="#00adef"/></linearGradient><linearGradient id="f" spreadMethod="pad" gradientTransform="matrix(0 7.35685 7.35685 0 194.114 573.853)" gradientUnits="userSpaceOnUse" y2="0" x2="1" y1="0" x1="0"><stop offset="0" stop-color="#fff"/><stop offset="1" stop-opacity="0" stop-color="#fff"/></linearGradient><linearGradient id="bn" spreadMethod="pad" gradientTransform="rotate(90 -196.638 388.973) scale(9.59847)" gradientUnits="userSpaceOnUse" y2="0" x2="1" y1="0" x1="0"><stop offset="0" stop-color="#fff"/><stop offset="1" stop-color="#fff"/></linearGradient><linearGradient id="c" spreadMethod="pad" gradientTransform="rotate(90 -196.638 388.973) scale(9.59847)" gradientUnits="userSpaceOnUse" y2="0" x2="1" y1="0" x1="0"><stop offset="0" stop-color="#fff"/><stop offset="1" stop-opacity="0" stop-color="#fff"/></linearGradient><linearGradient id="X" spreadMethod="pad" gradientTransform="matrix(0 7.81468 7.81468 0 192.865 597.302)" gradientUnits="userSpaceOnUse" y2="0" x2="1" y1="0" x1="0"><stop offset="0" stop-color="#2e3192"/><stop offset=".125" stop-color="#2e3192"/><stop offset=".818" stop-color="#00adef"/><stop offset="1" stop-color="#00adef"/></linearGradient><linearGradient id="v" spreadMethod="pad" gradientTransform="matrix(0 37.41732 37.41732 0 192.87 569.054)" gradientUnits="userSpaceOnUse" y2="0" x2="1" y1="0" x1="0"><stop offset="0" stop-color="#50ade5"/><stop offset="1" stop-color="#fff"/></linearGradient><linearGradient id="ah" spreadMethod="pad" gradientTransform="matrix(0 7.81509 7.81509 0 179.224 578.82)" gradientUnits="userSpaceOnUse" y2="0" x2="1" y1="0" x1="0"><stop offset="0" stop-color="#2e3192"/><stop offset=".125" stop-color="#2e3192"/><stop offset=".818" stop-color="#00adef"/><stop offset="1" stop-color="#00adef"/></linearGradient><linearGradient id="am" spreadMethod="pad" gradientTransform="matrix(0 7.81509 7.81509 0 185.048 570.117)" gradientUnits="userSpaceOnUse" y2="0" x2="1" y1="0" x1="0"><stop offset="0" stop-color="#2e3192"/><stop offset=".125" stop-color="#2e3192"/><stop offset=".818" stop-color="#00adef"/><stop offset="1" stop-color="#00adef"/></linearGradient><linearGradient id="ar" spreadMethod="pad" gradientTransform="matrix(0 7.81509 7.81509 0 198.689 570.117)" gradientUnits="userSpaceOnUse" y2="0" x2="1" y1="0" x1="0"><stop offset="0" stop-color="#2e3192"/><stop offset=".125" stop-color="#2e3192"/><stop offset=".818" stop-color="#00adef"/><stop offset="1" stop-color="#00adef"/></linearGradient><linearGradient id="aw" spreadMethod="pad" gradientTransform="matrix(0 7.81509 7.81509 0 212.33 570.117)" gradientUnits="userSpaceOnUse" y2="0" x2="1" y1="0" x1="0"><stop offset="0" stop-color="#2e3192"/><stop offset=".125" stop-color="#2e3192"/><stop offset=".818" stop-color="#00adef"/><stop offset="1" stop-color="#00adef"/></linearGradient><linearGradient id="aB" spreadMethod="pad" gradientTransform="matrix(0 7.81509 7.81509 0 171.407 570.117)" gradientUnits="userSpaceOnUse" y2="0" x2="1" y1="0" x1="0"><stop offset="0" stop-color="#2e3192"/><stop offset=".125" stop-color="#2e3192"/><stop offset=".818" stop-color="#00adef"/><stop offset="1" stop-color="#00adef"/></linearGradient><linearGradient id="ac" spreadMethod="pad" gradientTransform="matrix(0 7.81468 7.81468 0 206.506 597.302)" gradientUnits="userSpaceOnUse" y2="0" x2="1" y1="0" x1="0"><stop offset="0" stop-color="#2e3192"/><stop offset=".125" stop-color="#2e3192"/><stop offset=".818" stop-color="#00adef"/><stop offset="1" stop-color="#00adef"/></linearGradient><mask id="bm" height="1" width="1" y="0" x="0" maskUnits="userSpaceOnUse"><g clip-path="url(#a)"><g clip-path="url(#b)"><path d="M194.323 595.994h-4.122v-10.562h4.122z" fill="url(#c)"/></g></g></mask><mask id="bj" height="1" width="1" y="0" x="0" maskUnits="userSpaceOnUse"><g clip-path="url(#d)"><g clip-path="url(#e)"><path d="M193.337 581.21h1.419v-7.518h-1.419z" fill="url(#f)"/></g></g></mask><mask id="bg" height="1" width="1" y="0" x="0" maskUnits="userSpaceOnUse"><g clip-path="url(#g)"><g clip-path="url(#h)"><path d="M190.22 582.19h1.418v-7.519h-1.418z" fill="url(#i)"/></g></g></mask><mask id="bd" height="1" width="1" y="0" x="0" maskUnits="userSpaceOnUse"><g clip-path="url(#j)"><g clip-path="url(#k)"><path d="M188.372 586.725l.781 9.041 1.551-.134-.781-9.041z" fill="url(#l)"/></g></g></mask><mask id="ba" height="1" width="1" y="0" x="0" maskUnits="userSpaceOnUse"><g clip-path="url(#m)"><g clip-path="url(#n)"><path d="M193.981 585.476l.781 9.042 1.551-.134-.781-9.042z" fill="url(#o)"/></g></g></mask><mask id="aX" height="1" width="1" y="0" x="0" maskUnits="userSpaceOnUse"><g clip-path="url(#p)"><g clip-path="url(#q)"><path d="M190.171 601.452h2.935v-5.753h-2.935z" fill="url(#r)"/></g></g></mask></defs><g clip-path="url(#s)" transform="matrix(.62536 0 0 -.62538 -107.384 380.803)"><path d="M211.578 569.054h-37.417v37.417h37.417z" fill="#fff"/><g clip-path="url(#t)"><g clip-path="url(#u)" opacity=".4"><path d="M174.161 569.054h37.417v37.417h-37.417z" fill="url(#v)"/></g></g><g clip-path="url(#w)" opacity=".4"><g clip-path="url(#x)"><path d="M182.127 605.117h-2.28v-1.006h1.569l-1.605-1.605a2.861 2.861 0 01-4.496-2.345 2.86 2.86 0 015.721 0c0 .608-.192 1.17-.514 1.634l1.605 1.605v-1.569h1.005v3.286zm-5.782-4.956a1.83 1.83 0 103.661 0 1.83 1.83 0 00-3.661 0" fill="url(#y)"/></g><g clip-path="url(#z)"><g clip-path="url(#A)"><g clip-path="url(#B)" opacity=".2"><path d="M183.132 605.413c0-2.886-2.426-5.225-5.417-5.225-2.992 0-5.418 2.339-5.418 5.225 0 2.886 2.426 5.225 5.418 5.225 2.991 0 5.417-2.34 5.417-5.225" fill="#fff"/></g></g></g><g clip-path="url(#C)"><path d="M187.951 596.414h-2.28v-1.006h1.569l-1.605-1.605a2.861 2.861 0 01-4.496-2.345 2.86 2.86 0 015.72 0c0 .609-.191 1.17-.513 1.634l1.605 1.605v-1.569h1.005v3.286zm-5.783-4.956a1.83 1.83 0 103.662 0 1.831 1.831 0 00-3.662 0" fill="url(#D)"/></g><g clip-path="url(#E)"><g clip-path="url(#F)"><g clip-path="url(#G)" opacity=".2"><path d="M188.956 596.71c0-2.886-2.426-5.225-5.418-5.225-2.99 0-5.417 2.339-5.417 5.225 0 2.886 2.426 5.225 5.417 5.225 2.992 0 5.418-2.34 5.418-5.225" fill="#fff"/></g></g></g><g clip-path="url(#H)"><path d="M201.592 596.414h-2.281v-1.006h1.57l-1.606-1.605a2.839 2.839 0 01-1.634.516 2.862 2.862 0 010-5.721 2.861 2.861 0 012.859 2.86c0 .609-.191 1.17-.514 1.634l1.606 1.605v-1.569h1.005v3.286zm-5.783-4.956a1.83 1.83 0 103.662 0 1.83 1.83 0 00-3.662 0" fill="url(#I)"/></g><g clip-path="url(#J)"><g clip-path="url(#K)"><g clip-path="url(#L)" opacity=".2"><path d="M202.597 596.71c0-2.886-2.426-5.225-5.418-5.225s-5.417 2.339-5.417 5.225c0 2.886 2.425 5.225 5.417 5.225s5.418-2.34 5.418-5.225" fill="#fff"/></g></g></g><g clip-path="url(#M)"><path d="M208.421 591.458a2.861 2.861 0 012.86-2.86c.101 0 .199.006.297.016v1.038a1.83 1.83 0 00-2.127 1.806 1.83 1.83 0 001.83 1.832c.101 0 .2-.008.297-.024v1.037a2.86 2.86 0 01-3.157-2.845" fill="url(#N)"/></g><g clip-path="url(#O)"><g clip-path="url(#P)"><g clip-path="url(#Q)" opacity=".2"><path d="M216.239 596.71c0-2.886-2.426-5.225-5.418-5.225s-5.418 2.339-5.418 5.225c0 2.886 2.426 5.225 5.418 5.225s5.418-2.34 5.418-5.225" fill="#fff"/></g></g></g><g clip-path="url(#R)"><path d="M174.31 596.414h-.149v-1.867l.149.15v-1.569h1.005v3.286z" fill="url(#S)"/></g><g clip-path="url(#T)"><g clip-path="url(#U)"><g clip-path="url(#V)" opacity=".2"><path d="M175.316 596.71c0-2.886-2.426-5.225-5.418-5.225-2.991 0-5.417 2.339-5.417 5.225 0 2.886 2.426 5.225 5.417 5.225 2.992 0 5.418-2.34 5.418-5.225" fill="#fff"/></g></g></g><g clip-path="url(#W)"><path d="M195.767 605.117h-2.28v-1.006h1.569l-1.605-1.605a2.86 2.86 0 01-4.494-2.272v-.145a2.86 2.86 0 015.719.072c0 .608-.19 1.17-.514 1.634l1.605 1.605v-1.569h1.006v3.286zm-5.781-4.956a1.832 1.832 0 103.662 0 1.83 1.83 0 00-3.662 0" fill="url(#X)"/></g><g clip-path="url(#Y)"><g clip-path="url(#Z)"><g clip-path="url(#aa)" opacity=".2"><path d="M196.773 605.413c0-2.886-2.426-5.225-5.418-5.225s-5.417 2.339-5.417 5.225c0 2.886 2.425 5.225 5.417 5.225s5.418-2.34 5.418-5.225" fill="#fff"/></g></g></g><g clip-path="url(#ab)"><path d="M209.408 605.117h-2.279v-1.006h1.568l-1.604-1.605a2.86 2.86 0 01-4.496-2.345 2.86 2.86 0 015.721 0c0 .608-.191 1.17-.514 1.634l1.604 1.605v-1.569h1.007v3.286zm-5.782-4.956a1.832 1.832 0 103.662 0 1.831 1.831 0 00-3.662 0" fill="url(#ac)"/></g><g clip-path="url(#ad)"><g clip-path="url(#ae)"><g clip-path="url(#af)" opacity=".2"><path d="M210.414 605.413c0-2.886-2.426-5.225-5.418-5.225s-5.417 2.339-5.417 5.225c0 2.886 2.425 5.225 5.417 5.225s5.418-2.34 5.418-5.225" fill="#fff"/></g></g></g><g clip-path="url(#ag)"><path d="M182.127 586.636h-2.28v-1.006h1.569l-1.605-1.605a2.86 2.86 0 01-4.496-2.344 2.86 2.86 0 015.721 0c0 .607-.192 1.17-.514 1.632l1.605 1.606v-1.569h1.005v3.286zm-5.782-4.955a1.83 1.83 0 103.661 0 1.832 1.832 0 10-3.661 0" fill="url(#ah)"/></g><g clip-path="url(#ai)"><g clip-path="url(#aj)"><g clip-path="url(#ak)" opacity=".2"><path d="M183.132 586.932c0-2.886-2.426-5.225-5.417-5.225-2.992 0-5.418 2.339-5.418 5.225 0 2.886 2.426 5.225 5.418 5.225 2.991 0 5.417-2.34 5.417-5.225" fill="#fff"/></g></g></g><g clip-path="url(#al)"><path d="M187.951 577.932h-2.28v-1.005h1.569l-1.605-1.606a2.86 2.86 0 01-4.496-2.343 2.86 2.86 0 012.861-2.86 2.859 2.859 0 012.859 2.86 2.85 2.85 0 01-.513 1.632l1.605 1.605v-1.569h1.005v3.286zm-5.783-4.954a1.83 1.83 0 003.662 0 1.832 1.832 0 10-3.662 0" fill="url(#am)"/></g><g clip-path="url(#an)"><g clip-path="url(#ao)"><g clip-path="url(#ap)" opacity=".2"><path d="M188.956 578.229c0-2.886-2.426-5.225-5.418-5.225-2.99 0-5.417 2.339-5.417 5.225 0 2.886 2.426 5.225 5.417 5.225 2.992 0 5.418-2.34 5.418-5.225" fill="#fff"/></g></g></g><g clip-path="url(#aq)"><path d="M201.592 577.932h-2.281v-1.005h1.57l-1.606-1.606a2.86 2.86 0 01-4.495-2.343 2.86 2.86 0 115.72 0c0 .607-.191 1.169-.514 1.632l1.606 1.605v-1.569h1.005v3.286zm-5.783-4.954a1.83 1.83 0 003.662 0 1.831 1.831 0 10-3.662 0" fill="url(#ar)"/></g><g clip-path="url(#as)"><g clip-path="url(#at)"><g clip-path="url(#au)" opacity=".2"><path d="M202.597 578.229c0-2.886-2.426-5.225-5.418-5.225s-5.417 2.339-5.417 5.225c0 2.886 2.425 5.225 5.417 5.225s5.418-2.34 5.418-5.225" fill="#fff"/></g></g></g><g clip-path="url(#av)"><path d="M208.421 572.978a2.86 2.86 0 012.86-2.86c.101 0 .199.005.297.015v1.038a1.83 1.83 0 00-2.127 1.807 1.83 1.83 0 002.127 1.806v1.038a2.86 2.86 0 01-3.157-2.844" fill="url(#aw)"/></g><g clip-path="url(#ax)"><g clip-path="url(#ay)"><g clip-path="url(#az)" opacity=".2"><path d="M216.239 578.229c0-2.886-2.426-5.225-5.418-5.225s-5.418 2.339-5.418 5.225c0 2.886 2.426 5.225 5.418 5.225s5.418-2.34 5.418-5.225" fill="#fff"/></g></g></g><g clip-path="url(#aA)"><path d="M174.31 577.932h-.149v-1.866l.149.149v-1.569h1.005v3.286z" fill="url(#aB)"/></g><g clip-path="url(#aC)"><g clip-path="url(#aD)"><g clip-path="url(#aE)" opacity=".2"><path d="M175.316 578.229c0-2.886-2.426-5.225-5.418-5.225-2.991 0-5.417 2.339-5.417 5.225 0 2.886 2.426 5.225 5.417 5.225 2.992 0 5.418-2.34 5.418-5.225" fill="#fff"/></g></g></g><g clip-path="url(#aF)"><path d="M209.408 586.636h-2.279v-1.006h1.568l-1.604-1.605a2.86 2.86 0 01-4.496-2.344 2.86 2.86 0 015.721 0 2.84 2.84 0 01-.514 1.632l1.604 1.606v-1.569h1.007v3.286zm-5.782-4.955a1.83 1.83 0 003.662 0 1.832 1.832 0 00-3.662 0" fill="url(#aG)"/></g><g clip-path="url(#aH)"><g clip-path="url(#aI)"><g clip-path="url(#aJ)" opacity=".2"><path d="M210.414 586.932c0-2.886-2.426-5.225-5.418-5.225s-5.417 2.339-5.417 5.225c0 2.886 2.425 5.225 5.417 5.225s5.418-2.34 5.418-5.225" fill="#fff"/></g></g></g></g><path d="M191.416 586.531c0-.649-.526-1.175-1.175-1.175h-.083c-.649 0-1.175.526-1.175 1.175v8.126c0 .65.526 1.175 1.175 1.175h.083c.65 0 1.175-.526 1.175-1.175z" fill="none" stroke="#fff" stroke-width="3.08" stroke-linecap="round" stroke-linejoin="round"/><path d="M192.633 575.683c0-.649-.526-1.175-1.175-1.175h-.083c-.65 0-1.175.526-1.175 1.175v10.594c0 .65.526.735 1.175.735h.083c.649 0 1.175-.526 1.175-1.175zm2.907-.946c0-.65-.527-1.175-1.176-1.175h-.083c-.649 0-1.175.526-1.175 1.175v10.154c0 .649.526 1.175 1.175 1.175h.083c.65 0 1.175-.526 1.175-1.175z" fill="none" stroke="#fff" stroke-width="3.08" stroke-linecap="round" stroke-linejoin="round"/><path d="M195.54 594.286c0 .649-.527 1.175-1.176 1.175l-2.99.608a1.176 1.176 0 01-1.175-1.175v-8.396c0-.65.527-1.175 1.175-1.175l2.99-.61c.65 0 1.175.528 1.175 1.176z" fill="none" stroke="#fff" stroke-width="3.08" stroke-linecap="round" stroke-linejoin="round"/><path d="M196.756 585.416c0-.65-.526-1.175-1.175-1.175h-.083c-.65 0-1.175.526-1.175 1.175v8.126c0 .649.525 1.175 1.174 1.175h.083c.65 0 1.175-.526 1.175-1.175zm-.474 12.97a3.177 3.177 0 10-6.354 0 3.177 3.177 0 006.354 0z" fill="none" stroke="#fff" stroke-width="3.08" stroke-linecap="round" stroke-linejoin="round"/><path d="M191.909 595.7s-1.738.611-1.738 2.976c0 0 .05 2.244 2.935 2.775 0 0-2.665-.575-2.555-2.995 0 0 .296-1.609 1.358-2.757zm3.628-1.25s-.663-.108-.747-.708c0 0 .018-7.676-.034-8.334 0 0 .227 8.823.781 9.042zm-5.608 1.25s-.663-.109-.747-.709c0 0 .018-7.676-.034-8.334 0 0 .227 8.823.78 9.042zm.848-20.739s-.557.22-.392 1.54l-.03 5.688s-.044-7.109 1.283-7.228c0 0-.269-.29-.86 0zm3.118-.979s-.557.22-.392 1.54l-.03 5.688s-.044-7.11 1.283-7.228c0 0-.27-.29-.86 0zm.219 17.694s-.163 2.359.208 2.775c0 0-.839-1.485-2.104-1.388 0 0-1.825.169-1.54 2.147l-.324-8.198s-.155-1.59 1.062-1.382c0 0-1.058-.261-.683 3.849 0 0 .547 6.515 3.381.451z" fill="none" stroke="#fff" stroke-width="3.08" stroke-linecap="round" stroke-linejoin="round"/><path d="M191.416 586.531c0-.649-.526-1.175-1.175-1.175h-.083c-.649 0-1.175.526-1.175 1.175v8.126c0 .65.526 1.175 1.175 1.175h.083c.65 0 1.175-.526 1.175-1.175z" fill="none" stroke="#293d9b" stroke-width="1.32"/><path d="M192.633 575.683c0-.649-.526-1.175-1.175-1.175h-.083c-.65 0-1.175.526-1.175 1.175v10.594c0 .65.526.735 1.175.735h.083c.649 0 1.175-.526 1.175-1.175zm2.907-.946c0-.65-.527-1.175-1.176-1.175h-.083c-.649 0-1.175.526-1.175 1.175v10.154c0 .649.526 1.175 1.175 1.175h.083c.65 0 1.175-.526 1.175-1.175z" fill="none" stroke="#293d9b" stroke-width="1.32"/><path d="M195.54 594.286c0 .649-.527 1.175-1.176 1.175l-2.99.608a1.176 1.176 0 01-1.175-1.175v-8.396c0-.65.527-1.175 1.175-1.175l2.99-.61c.65 0 1.175.528 1.175 1.176z" fill="none" stroke="#293d9b" stroke-width="1.32"/><path d="M196.756 585.416c0-.65-.526-1.175-1.175-1.175h-.083c-.65 0-1.175.526-1.175 1.175v8.126c0 .649.525 1.175 1.174 1.175h.083c.65 0 1.175-.526 1.175-1.175zm-.474 12.97a3.177 3.177 0 10-6.354 0 3.177 3.177 0 006.354 0z" fill="none" stroke="#293d9b" stroke-width="1.32"/><path d="M191.909 595.7s-1.738.611-1.738 2.976c0 0 .05 2.244 2.935 2.775 0 0-2.665-.575-2.555-2.995 0 0 .296-1.609 1.358-2.757zm3.628-1.25s-.663-.108-.747-.708c0 0 .018-7.676-.034-8.334 0 0 .227 8.823.781 9.042zm-5.608 1.25s-.663-.109-.747-.709c0 0 .018-7.676-.034-8.334 0 0 .227 8.823.78 9.042zm.848-20.739s-.557.22-.392 1.54l-.03 5.688s-.044-7.109 1.283-7.228c0 0-.269-.29-.86 0zM193.895 573.982s-.557.22-.392 1.54l-.03 5.688s-.044-7.11 1.283-7.228c0 0-.27-.29-.86 0zM194.114 591.676s-.163 2.359.208 2.775c0 0-.839-1.485-2.104-1.388 0 0-1.825.169-1.54 2.147l-.324-8.198s-.155-1.59 1.062-1.382c0 0-1.058-.261-.683 3.849 0 0 .547 6.515 3.381.451z" fill="none" stroke="#293d9b" stroke-width="1.32"/></g><g clip-path="url(#aK)" transform="matrix(.62536 0 0 -.62538 -107.384 380.803)"><path d="M190.158 595.832a1.175 1.175 0 01-1.175-1.175v-8.126c0-.649.526-1.175 1.175-1.175h.083c.649 0 1.175.526 1.175 1.175v8.126c0 .649-.526 1.175-1.175 1.175z" fill="url(#aL)"/></g><g clip-path="url(#aM)" transform="matrix(.62536 0 0 -.62538 -107.384 380.803)"><path d="M191.374 587.011c-.648 0-1.174-.085-1.174-.733v-10.595c0-.649.526-1.174 1.174-1.174h.083c.65 0 1.175.525 1.175 1.174v10.155c0 .648-.525 1.173-1.175 1.173z" fill="url(#aN)"/></g><g clip-path="url(#aO)" transform="matrix(.62536 0 0 -.62538 -107.384 380.803)"><path d="M194.28 586.066a1.174 1.174 0 01-1.174-1.175v-10.154c0-.649.525-1.175 1.174-1.175h.084c.649 0 1.175.526 1.175 1.175v10.154c0 .649-.526 1.175-1.175 1.175z" fill="url(#aP)"/></g><g clip-path="url(#aQ)" transform="matrix(.62536 0 0 -.62538 -107.384 380.803)"><path d="M190.2 594.894v-8.396c0-.649.526-1.175 1.174-1.175l2.99-.609c.649 0 1.175.526 1.175 1.175v8.396c0 .649-.526 1.176-1.175 1.176l-2.99.608a1.175 1.175 0 01-1.174-1.175" fill="url(#aR)"/></g><g clip-path="url(#aS)" transform="matrix(.62536 0 0 -.62538 -107.384 380.803)"><path d="M195.497 594.716a1.174 1.174 0 01-1.174-1.174v-8.126c0-.649.526-1.175 1.174-1.175h.084c.649 0 1.174.526 1.174 1.175v8.126c0 .649-.525 1.174-1.174 1.174z" fill="url(#aT)"/></g><g clip-path="url(#aU)" transform="matrix(.62536 0 0 -.62538 -107.384 380.803)"><path d="M189.929 598.387a3.178 3.178 0 016.354 0 3.177 3.177 0 01-6.354 0" fill="url(#aV)"/></g><g clip-path="url(#aW)" transform="matrix(.62536 0 0 -.62538 -107.384 380.803)"><g mask="url(#aX)"><path d="M190.171 598.676c0-2.364 1.738-2.977 1.738-2.977-1.062 1.149-1.358 2.758-1.358 2.758-.11 2.42 2.555 2.995 2.555 2.995-2.873-.53-2.935-2.758-2.935-2.776" fill="url(#aY)"/></g></g><g clip-path="url(#aZ)" transform="matrix(.62536 0 0 -.62538 -107.384 380.803)"><g mask="url(#ba)"><path d="M194.791 593.743s.013-5.832-.018-7.765c.062 1.954.296 8.28.764 8.473h-.001c-.037-.007-.664-.127-.745-.708m-.035-8.334c.007.085.013.285.017.569l-.017-.569" fill="url(#bb)"/></g></g><g clip-path="url(#bc)" transform="matrix(.62536 0 0 -.62538 -107.384 380.803)"><g mask="url(#bd)"><path d="M189.182 594.991s.013-5.829-.018-7.763c.062 1.956.297 8.287.765 8.471 0 0-.663-.108-.747-.708m-.034-8.333c.007.084.011.285.016.57l-.016-.57" fill="url(#be)"/></g></g><g clip-path="url(#bf)" transform="matrix(.62536 0 0 -.62538 -107.384 380.803)"><g mask="url(#bg)"><path d="M190.357 581.687l-.003.502s0-.187.003-.502m.028-5.186c-.165-1.32.392-1.54.392-1.54.592-.29.861 0 .861 0-1.111.099-1.261 5.102-1.281 6.726z" fill="url(#bh)"/></g></g><g clip-path="url(#bi)" transform="matrix(.62536 0 0 -.62538 -107.384 380.803)"><g mask="url(#bj)"><path d="M193.475 580.703l-.003.507s-.001-.19.003-.507m.028-5.181c-.166-1.32.392-1.54.392-1.54.591-.291.861 0 .861 0-1.11.099-1.261 5.093-1.281 6.721z" fill="url(#bk)"/></g></g><g clip-path="url(#bl)" transform="matrix(.62536 0 0 -.62538 -107.384 380.803)"><g mask="url(#bm)"><path d="M190.655 594.625l-.301-7.614s-.153-1.579 1.051-1.383c-.112-.013-1.024-.011-.672 3.85 0 0 .547 6.515 3.381.451v1.747s-.141 2.049.14 2.664c-.224-.341-.983-1.358-2.036-1.277 0 0-1.449.134-1.563 1.562l.023.585a2.638 2.638 0 01-.023-.585m3.599-.285c.045.069.069.111.069.111a.45.45 0 01-.069-.111m-2.849-8.712l.011.002-.011-.002" fill="url(#bn)"/></g></g><path d="M0 0s-5.613 0-5.613-5.613v-26.192s0-5.612 5.613-5.612h26.192s5.613 0 5.613 5.612v26.192S31.805 0 26.192 0z" fill="none" stroke="#231f20" stroke-width=".66" transform="matrix(.62536 0 0 -.62538 5.04 1.53)"/></svg>