<svg xmlns="http://www.w3.org/2000/svg" xmlns:xlink="http://www.w3.org/1999/xlink" width="100" height="100" viewBox="0 0 26.458 26.458"><defs><linearGradient x1="0" y1="0" x2="1" y2="0" gradientUnits="userSpaceOnUse" gradientTransform="scale(4.80102 -4.80102) rotate(59.225 125.58 60.903)" spreadMethod="pad" id="E"><stop offset="0" stop-color="#fff"/><stop offset="1" stop-opacity="0" stop-color="#fff"/></linearGradient><linearGradient x1="0" y1="0" x2="1" y2="0" gradientUnits="userSpaceOnUse" gradientTransform="scale(3.66436 -3.66436) rotate(37.385 214.182 160.087)" spreadMethod="pad" id="I"><stop offset="0" stop-color="#fff"/><stop offset="1" stop-opacity="0" stop-color="#fff"/></linearGradient><linearGradient x1="0" y1="0" x2="1" y2="0" gradientUnits="userSpaceOnUse" gradientTransform="matrix(-.43911 .52542 .52542 .43911 542.986 364.214)" spreadMethod="pad" id="Y"><stop offset="0" stop-color="#fff"/><stop offset="1" stop-opacity="0" stop-color="#fff"/></linearGradient><linearGradient id="a"><stop offset="0" stop-color="#5f8dd3"/><stop offset="1" stop-color="#214478"/></linearGradient><linearGradient x1="0" y1="0" x2="1" y2="0" gradientUnits="userSpaceOnUse" gradientTransform="matrix(5.98206 0 0 -5.98206 517.385 367.052)" spreadMethod="pad" id="bA"><stop offset="0" stop-color="#4f4c4d"/><stop offset="1" stop-color="#bdbcbc"/></linearGradient><linearGradient x1="0" y1="0" x2="1" y2="0" gradientUnits="userSpaceOnUse" gradientTransform="matrix(28.01971 0 0 -28.01971 527.36 348.629)" spreadMethod="pad" id="aa"><stop offset="0" stop-color="#bdbcbc"/><stop offset="1" stop-color="#4f4c4d"/></linearGradient><linearGradient x1="0" y1="0" x2="1" y2="0" gradientUnits="userSpaceOnUse" gradientTransform="matrix(27.22394 0 0 -27.22394 527.758 348.629)" spreadMethod="pad" id="ac"><stop offset="0" stop-color="#4f4c4d"/><stop offset="1" stop-color="#bdbcbc"/></linearGradient><linearGradient x1="0" y1="0" x2="1" y2="0" gradientUnits="userSpaceOnUse" gradientTransform="scale(7.33424 -7.33424) rotate(37.385 112.222 80.767)" spreadMethod="pad" id="S"><stop offset="0" stop-color="#fff"/><stop offset="1" stop-opacity="0" stop-color="#fff"/></linearGradient><linearGradient x1="0" y1="0" x2="1" y2="0" gradientUnits="userSpaceOnUse" gradientTransform="scale(7.33424 -7.33424) rotate(37.385 112.222 80.767)" spreadMethod="pad" id="cc"><stop offset="0" stop-color="#fff"/><stop offset="1" stop-color="#fff"/></linearGradient><linearGradient x1="0" y1="0" x2="1" y2="0" gradientUnits="userSpaceOnUse" gradientTransform="matrix(0 -17.91935 -17.91935 0 549.137 378.796)" spreadMethod="pad" id="ad"><stop offset="0" stop-color="#bdbcbc"/><stop offset="1" stop-color="#4f4c4d"/></linearGradient><linearGradient x1="0" y1="0" x2="1" y2="0" gradientUnits="userSpaceOnUse" gradientTransform="scale(1.52698 -1.52698) rotate(45.832 458.285 291.633)" spreadMethod="pad" id="O"><stop offset="0" stop-color="#fff"/><stop offset=".005" stop-color="#fff"/><stop offset="1" stop-opacity="0" stop-color="#fff"/></linearGradient><linearGradient x1="0" y1="0" x2="1" y2="0" gradientUnits="userSpaceOnUse" gradientTransform="scale(1.52698 -1.52698) rotate(45.832 458.285 291.633)" spreadMethod="pad" id="bZ"><stop offset="0" stop-color="#231f20"/><stop offset=".005" stop-color="#231f20"/><stop offset="1" stop-color="#4f4c4d"/></linearGradient><linearGradient x1="0" y1="0" x2="1" y2="0" gradientUnits="userSpaceOnUse" gradientTransform="matrix(-1.1789 .29648 .29648 1.1789 547.135 361.561)" spreadMethod="pad" id="ar"><stop offset="0" stop-color="#fff"/><stop offset="1" stop-color="#fff"/></linearGradient><linearGradient x1="0" y1="0" x2="1" y2="0" gradientUnits="userSpaceOnUse" gradientTransform="scale(1.10526 -1.10526) rotate(45 641.053 399.546)" spreadMethod="pad" id="M"><stop offset="0" stop-color="#fff"/><stop offset=".005" stop-color="#fff"/><stop offset="1" stop-opacity="0" stop-color="#fff"/></linearGradient><linearGradient x1="0" y1="0" x2="1" y2="0" gradientUnits="userSpaceOnUse" gradientTransform="scale(1.10526 -1.10526) rotate(45 641.053 399.546)" spreadMethod="pad" id="bW"><stop offset="0" stop-color="#231f20"/><stop offset=".005" stop-color="#231f20"/><stop offset="1" stop-color="#4f4c4d"/></linearGradient><linearGradient x1="0" y1="0" x2="1" y2="0" gradientUnits="userSpaceOnUse" gradientTransform="matrix(-1.1789 .29648 .29648 1.1789 547.135 361.561)" spreadMethod="pad" id="G"><stop offset="0" stop-color="#fff"/><stop offset="1" stop-opacity="0" stop-color="#fff"/></linearGradient><linearGradient x1="0" y1="0" x2="1" y2="0" gradientUnits="userSpaceOnUse" gradientTransform="scale(3.48093 -3.48093) rotate(45 203.818 126.207)" spreadMethod="pad" id="K"><stop offset="0" stop-color="#fff"/><stop offset="1" stop-opacity="0" stop-color="#fff"/></linearGradient><linearGradient x1="0" y1="0" x2="1" y2="0" gradientUnits="userSpaceOnUse" gradientTransform="scale(3.48093 -3.48093) rotate(45 203.818 126.207)" spreadMethod="pad" id="bT"><stop offset="0" stop-color="#fff"/><stop offset="1" stop-color="#fff"/></linearGradient><linearGradient x1="0" y1="0" x2="1" y2="0" gradientUnits="userSpaceOnUse" gradientTransform="scale(3.66436 -3.66436) rotate(37.385 214.182 160.087)" spreadMethod="pad" id="bQ"><stop offset="0" stop-color="#fff"/><stop offset="1" stop-color="#fff"/></linearGradient><linearGradient x1="0" y1="0" x2="1" y2="0" gradientUnits="userSpaceOnUse" gradientTransform="matrix(2.50076 0 0 -2.50076 530.894 366.395)" spreadMethod="pad" id="bN"><stop offset="0" stop-color="#4f4c4d"/><stop offset="1" stop-color="#bdbcbc"/></linearGradient><linearGradient x1="0" y1="0" x2="1" y2="0" gradientUnits="userSpaceOnUse" gradientTransform="matrix(3.24927 0 0 -3.24927 530.52 366.395)" spreadMethod="pad" id="bL"><stop offset="0" stop-color="#bdbcbc"/><stop offset="1" stop-color="#4f4c4d"/></linearGradient><linearGradient x1="0" y1="0" x2="1" y2="0" gradientUnits="userSpaceOnUse" gradientTransform="matrix(2.79209 0 0 -2.79209 518.98 371.072)" spreadMethod="pad" id="bK"><stop offset="0" stop-color="#4f4c4d"/><stop offset="1" stop-color="#bdbcbc"/></linearGradient><linearGradient x1="0" y1="0" x2="1" y2="0" gradientUnits="userSpaceOnUse" gradientTransform="matrix(3.5406 0 0 -3.5406 518.605 371.072)" spreadMethod="pad" id="bI"><stop offset="0" stop-color="#bdbcbc"/><stop offset="1" stop-color="#4f4c4d"/></linearGradient><linearGradient x1="0" y1="0" x2="1" y2="0" gradientUnits="userSpaceOnUse" gradientTransform="matrix(5.74774 0 0 -5.74774 517.582 358.079)" spreadMethod="pad" id="bG"><stop offset="0" stop-color="#bdbcbc"/><stop offset="1" stop-color="#4f4c4d"/></linearGradient><linearGradient x1="0" y1="0" x2="1" y2="0" gradientUnits="userSpaceOnUse" gradientTransform="matrix(5.29672 0 0 -5.29672 517.727 359.23)" spreadMethod="pad" id="bE"><stop offset="0" stop-color="#4f4c4d"/><stop offset="1" stop-color="#bdbcbc"/></linearGradient><linearGradient x1="0" y1="0" x2="1" y2="0" gradientUnits="userSpaceOnUse" gradientTransform="matrix(4.7335 0 0 -4.7335 518.031 350.957)" spreadMethod="pad" id="bD"><stop offset="0" stop-color="#4f4c4d"/><stop offset="1" stop-color="#bdbcbc"/></linearGradient><linearGradient x1="0" y1="0" x2="1" y2="0" gradientUnits="userSpaceOnUse" gradientTransform="matrix(0 -16.46287 -16.46287 0 549.137 378.028)" spreadMethod="pad" id="af"><stop offset="0" stop-color="#4f4c4d"/><stop offset="1" stop-color="#bdbcbc"/></linearGradient><linearGradient x1="0" y1="0" x2="1" y2="0" gradientUnits="userSpaceOnUse" gradientTransform="matrix(5.0601 0 0 -5.0601 517.921 350.957)" spreadMethod="pad" id="bB"><stop offset="0" stop-color="#bdbcbc"/><stop offset="1" stop-color="#4f4c4d"/></linearGradient><linearGradient x1="0" y1="0" x2="1" y2="0" gradientUnits="userSpaceOnUse" gradientTransform="matrix(6.73057 0 0 -6.73057 517.01 367.052)" spreadMethod="pad" id="by"><stop offset="0" stop-color="#bdbcbc"/><stop offset="1" stop-color="#4f4c4d"/></linearGradient><linearGradient x1="0" y1="0" x2="1" y2="0" gradientUnits="userSpaceOnUse" gradientTransform="matrix(13.899 0 0 -13.899 520.628 368.125)" spreadMethod="pad" id="bx"><stop offset="0" stop-color="#4f4c4d"/><stop offset="1" stop-color="#bdbcbc"/></linearGradient><linearGradient x1="0" y1="0" x2="1" y2="0" gradientUnits="userSpaceOnUse" gradientTransform="matrix(14.76997 0 0 -14.76997 520.132 368.186)" spreadMethod="pad" id="bv"><stop offset="0" stop-color="#bdbcbc"/><stop offset="1" stop-color="#4f4c4d"/></linearGradient><linearGradient x1="0" y1="0" x2="1" y2="0" gradientUnits="userSpaceOnUse" gradientTransform="matrix(2.25326 0 0 -2.25326 531.035 375.905)" spreadMethod="pad" id="bt"><stop offset="0" stop-color="#bdbcbc"/><stop offset="1" stop-color="#4f4c4d"/></linearGradient><linearGradient x1="0" y1="0" x2="1" y2="0" gradientUnits="userSpaceOnUse" gradientTransform="matrix(3.06752 0 0 -3.06752 530.61 363)" spreadMethod="pad" id="br"><stop offset="0" stop-color="#bdbcbc"/><stop offset="1" stop-color="#4f4c4d"/></linearGradient><linearGradient x1="0" y1="0" x2="1" y2="0" gradientUnits="userSpaceOnUse" gradientTransform="matrix(3.23123 0 0 -3.23123 530.529 366.57)" spreadMethod="pad" id="bq"><stop offset="0" stop-color="#4f4c4d"/><stop offset="1" stop-color="#bdbcbc"/></linearGradient><linearGradient x1="0" y1="0" x2="1" y2="0" gradientUnits="userSpaceOnUse" gradientTransform="matrix(3.97974 0 0 -3.97974 530.154 366.57)" spreadMethod="pad" id="bo"><stop offset="0" stop-color="#bdbcbc"/><stop offset="1" stop-color="#4f4c4d"/></linearGradient><linearGradient x1="0" y1="0" x2="1" y2="0" gradientUnits="userSpaceOnUse" gradientTransform="matrix(.37427 .59629 .59629 -.37427 542.334 373.626)" spreadMethod="pad" id="ai"><stop offset="0" stop-color="#fff"/><stop offset="1" stop-color="#fff"/></linearGradient><linearGradient x1="0" y1="0" x2="1" y2="0" gradientUnits="userSpaceOnUse" gradientTransform="matrix(-.43912 .52542 .52542 .43912 542.986 364.214)" spreadMethod="pad" id="ao"><stop offset="0" stop-color="#fff"/><stop offset="1" stop-color="#fff"/></linearGradient><linearGradient x1="0" y1="0" x2="1" y2="0" gradientUnits="userSpaceOnUse" gradientTransform="scale(4.80102 -4.80102) rotate(59.225 125.58 60.903)" spreadMethod="pad" id="bn"><stop offset="0" stop-color="#fff"/><stop offset="1" stop-color="#fff"/></linearGradient><linearGradient x1="0" y1="0" x2="1" y2="0" gradientUnits="userSpaceOnUse" gradientTransform="matrix(-1.2948 -.52009 -.52009 1.2948 552.293 361.902)" spreadMethod="pad" id="au"><stop offset="0" stop-color="#fff"/><stop offset="1" stop-color="#fff"/></linearGradient><linearGradient x1="0" y1="0" x2="1" y2="0" gradientUnits="userSpaceOnUse" gradientTransform="scale(5.77617 -5.77617) rotate(13.772 297.92 349.569)" spreadMethod="pad" id="C"><stop offset="0" stop-color="#fff"/><stop offset="1" stop-opacity="0" stop-color="#fff"/></linearGradient><linearGradient x1="0" y1="0" x2="1" y2="0" gradientUnits="userSpaceOnUse" gradientTransform="scale(5.77617 -5.77617) rotate(13.772 297.92 349.569)" spreadMethod="pad" id="bk"><stop offset="0" stop-color="#fff"/><stop offset="1" stop-color="#fff"/></linearGradient><linearGradient x1="0" y1="0" x2="1" y2="0" gradientUnits="userSpaceOnUse" gradientTransform="matrix(-1.2948 -.52009 -.52009 1.2948 552.293 361.902)" spreadMethod="pad" id="w"><stop offset="0" stop-color="#fff"/><stop offset="1" stop-opacity="0" stop-color="#fff"/></linearGradient><linearGradient x1="0" y1="0" x2="1" y2="0" gradientUnits="userSpaceOnUse" gradientTransform="matrix(.37427 .59629 .59629 -.37427 542.334 373.626)" spreadMethod="pad" id="U"><stop offset="0" stop-color="#fff"/><stop offset="1" stop-opacity="0" stop-color="#fff"/></linearGradient><linearGradient x1="0" y1="0" x2="1" y2="0" gradientUnits="userSpaceOnUse" gradientTransform="scale(1.71591 -1.71591) rotate(49.587 393.533 237.654)" spreadMethod="pad" id="A"><stop offset="0" stop-color="#fff"/><stop offset="1" stop-opacity="0" stop-color="#fff"/></linearGradient><linearGradient x1="0" y1="0" x2="1" y2="0" gradientUnits="userSpaceOnUse" gradientTransform="scale(1.71591 -1.71591) rotate(49.587 393.533 237.654)" spreadMethod="pad" id="bh"><stop offset="0" stop-color="#fff"/><stop offset="1" stop-color="#fff"/></linearGradient><linearGradient x1="0" y1="0" x2="1" y2="0" gradientUnits="userSpaceOnUse" gradientTransform="scale(5.81307 -5.81307) rotate(45 119.457 81.223)" spreadMethod="pad" id="y"><stop offset="0" stop-color="#fff"/><stop offset="1" stop-opacity="0" stop-color="#fff"/></linearGradient><linearGradient x1="0" y1="0" x2="1" y2="0" gradientUnits="userSpaceOnUse" gradientTransform="scale(5.81307 -5.81307) rotate(45 119.457 81.223)" spreadMethod="pad" id="be"><stop offset="0" stop-color="#fff"/><stop offset="1" stop-color="#fff"/></linearGradient><linearGradient x1="0" y1="0" x2="1" y2="0" gradientUnits="userSpaceOnUse" gradientTransform="scale(1.67577 -1.67577) rotate(19.999 773.81 811.085)" spreadMethod="pad" id="u"><stop offset="0" stop-color="#fff"/><stop offset="1" stop-opacity="0" stop-color="#fff"/></linearGradient><linearGradient x1="0" y1="0" x2="1" y2="0" gradientUnits="userSpaceOnUse" gradientTransform="scale(1.67577 -1.67577) rotate(19.999 773.81 811.086)" spreadMethod="pad" id="bb"><stop offset="0" stop-color="#fff"/><stop offset="1" stop-color="#fff"/></linearGradient><linearGradient x1="0" y1="0" x2="1" y2="0" gradientUnits="userSpaceOnUse" gradientTransform="matrix(1.4796 -.3721 -.3721 -1.4796 551.016 377.341)" spreadMethod="pad" id="ax"><stop offset="0" stop-color="#fff"/><stop offset="1" stop-color="#fff"/></linearGradient><linearGradient x1="0" y1="0" x2="1" y2="0" gradientUnits="userSpaceOnUse" gradientTransform="scale(1.67572 -1.67572) rotate(40.002 458.557 341.213)" spreadMethod="pad" id="s"><stop offset="0" stop-color="#fff"/><stop offset="1" stop-opacity="0" stop-color="#fff"/></linearGradient><linearGradient x1="0" y1="0" x2="1" y2="0" gradientUnits="userSpaceOnUse" gradientTransform="scale(1.67572 -1.67572) rotate(40.002 458.557 341.213)" spreadMethod="pad" id="aY"><stop offset="0" stop-color="#fff"/><stop offset="1" stop-color="#fff"/></linearGradient><linearGradient x1="0" y1="0" x2="1" y2="0" gradientUnits="userSpaceOnUse" gradientTransform="matrix(1.4796 -.3721 -.3721 -1.4796 551.016 377.341)" spreadMethod="pad" id="m"><stop offset="0" stop-color="#fff"/><stop offset="1" stop-opacity="0" stop-color="#fff"/></linearGradient><linearGradient x1="0" y1="0" x2="1" y2="0" gradientUnits="userSpaceOnUse" gradientTransform="scale(1.6766 -1.6766) rotate(59.999 348.922 177.99)" spreadMethod="pad" id="q"><stop offset="0" stop-color="#fff"/><stop offset="1" stop-opacity="0" stop-color="#fff"/></linearGradient><linearGradient x1="0" y1="0" x2="1" y2="0" gradientUnits="userSpaceOnUse" gradientTransform="scale(1.6766 -1.6766) rotate(59.999 348.922 177.99)" spreadMethod="pad" id="aV"><stop offset="0" stop-color="#fff"/><stop offset="1" stop-color="#fff"/></linearGradient><linearGradient x1="0" y1="0" x2="1" y2="0" gradientUnits="userSpaceOnUse" gradientTransform="matrix(-.29114 1.65157 1.65157 .29114 529.33 343.649)" spreadMethod="pad" id="o"><stop offset="0" stop-color="#fff"/><stop offset="1" stop-opacity="0" stop-color="#fff"/></linearGradient><linearGradient x1="0" y1="0" x2="1" y2="0" gradientUnits="userSpaceOnUse" gradientTransform="matrix(-.29114 1.65157 1.65157 .29114 529.33 343.649)" spreadMethod="pad" id="aS"><stop offset="0" stop-color="#fff"/><stop offset="1" stop-color="#fff"/></linearGradient><linearGradient x1="0" y1="0" x2="1" y2="0" gradientUnits="userSpaceOnUse" gradientTransform="matrix(.29121 1.65199 1.65199 -.29121 528.35 348.058)" spreadMethod="pad" id="k"><stop offset="0" stop-color="#fff"/><stop offset="1" stop-opacity="0" stop-color="#fff"/></linearGradient><linearGradient x1="0" y1="0" x2="1" y2="0" gradientUnits="userSpaceOnUse" gradientTransform="matrix(.29121 1.65199 1.65199 -.29121 528.35 348.058)" spreadMethod="pad" id="aP"><stop offset="0" stop-color="#fff"/><stop offset="1" stop-color="#fff"/></linearGradient><linearGradient x1="0" y1="0" x2="1" y2="0" gradientUnits="userSpaceOnUse" gradientTransform="matrix(.4654 .18694 .18694 -.4654 546.11 376.872)" spreadMethod="pad" id="aA"><stop offset="0" stop-color="#fff"/><stop offset="1" stop-color="#fff"/></linearGradient><linearGradient x1="0" y1="0" x2="1" y2="0" gradientUnits="userSpaceOnUse" gradientTransform="matrix(-.0378 .5564 .5564 .0378 541.254 368.798)" spreadMethod="pad" id="al"><stop offset="0" stop-color="#fff"/><stop offset="1" stop-color="#fff"/></linearGradient><linearGradient x1="0" y1="0" x2="1" y2="0" gradientUnits="userSpaceOnUse" gradientTransform="matrix(.83874 1.4527 1.4527 -.83874 528.938 352.535)" spreadMethod="pad" id="i"><stop offset="0" stop-color="#fff"/><stop offset="1" stop-opacity="0" stop-color="#fff"/></linearGradient><linearGradient x1="0" y1="0" x2="1" y2="0" gradientUnits="userSpaceOnUse" gradientTransform="matrix(.83874 1.4527 1.4527 -.83874 528.938 352.535)" spreadMethod="pad" id="aM"><stop offset="0" stop-color="#fff"/><stop offset="1" stop-color="#fff"/></linearGradient><linearGradient x1="0" y1="0" x2="1" y2="0" gradientUnits="userSpaceOnUse" gradientTransform="matrix(.4654 .18694 .18694 -.4654 546.11 376.872)" spreadMethod="pad" id="Q"><stop offset="0" stop-color="#fff"/><stop offset="1" stop-opacity="0" stop-color="#fff"/></linearGradient><linearGradient x1="0" y1="0" x2="1" y2="0" gradientUnits="userSpaceOnUse" gradientTransform="matrix(1.28496 1.07828 1.07828 -1.28496 531.02 356.538)" spreadMethod="pad" id="g"><stop offset="0" stop-color="#fff"/><stop offset="1" stop-opacity="0" stop-color="#fff"/></linearGradient><linearGradient x1="0" y1="0" x2="1" y2="0" gradientUnits="userSpaceOnUse" gradientTransform="matrix(1.28496 1.07828 1.07828 -1.28496 531.02 356.538)" spreadMethod="pad" id="aJ"><stop offset="0" stop-color="#fff"/><stop offset="1" stop-color="#fff"/></linearGradient><linearGradient x1="0" y1="0" x2="1" y2="0" gradientUnits="userSpaceOnUse" gradientTransform="matrix(1.57634 .5737 .5737 -1.57634 534.351 359.594)" spreadMethod="pad" id="e"><stop offset="0" stop-color="#fff"/><stop offset="1" stop-opacity="0" stop-color="#fff"/></linearGradient><linearGradient x1="0" y1="0" x2="1" y2="0" gradientUnits="userSpaceOnUse" gradientTransform="matrix(1.57633 .5737 .5737 -1.57633 534.351 359.594)" spreadMethod="pad" id="aG"><stop offset="0" stop-color="#fff"/><stop offset="1" stop-color="#fff"/></linearGradient><linearGradient x1="0" y1="0" x2="1" y2="0" gradientUnits="userSpaceOnUse" gradientTransform="matrix(-.0378 .5564 .5564 .0378 541.254 368.798)" spreadMethod="pad" id="W"><stop offset="0" stop-color="#fff"/><stop offset="1" stop-opacity="0" stop-color="#fff"/></linearGradient><linearGradient x1="0" y1="0" x2="1" y2="0" gradientUnits="userSpaceOnUse" gradientTransform="matrix(1.67749 0 0 -1.67749 538.523 361.324)" spreadMethod="pad" id="c"><stop offset="0" stop-color="#fff"/><stop offset="1" stop-opacity="0" stop-color="#fff"/></linearGradient><linearGradient x1="0" y1="0" x2="1" y2="0" gradientUnits="userSpaceOnUse" gradientTransform="matrix(1.67749 0 0 -1.67749 538.523 361.324)" spreadMethod="pad" id="aD"><stop offset="0" stop-color="#fff"/><stop offset="1" stop-color="#fff"/></linearGradient><linearGradient xlink:href="#a" id="Z" x1="3.501" y1="-5.865" x2="13.852" y2="-19.842" gradientUnits="userSpaceOnUse"/><clipPath clipPathUnits="userSpaceOnUse" id="N"><path d="M-13903.2 14761.9H14932v-28835.2h-28835.2z"/></clipPath><clipPath clipPathUnits="userSpaceOnUse" id="bU"><path d="M519.383 371.072c0-.547.445-.993.992-.993a.993.993 0 010 1.985.993.993 0 01-.992-.992"/></clipPath><clipPath clipPathUnits="userSpaceOnUse" id="L"><path d="M-13903.2 14761.9H14932v-28835.2h-28835.2z"/></clipPath><clipPath clipPathUnits="userSpaceOnUse" id="bR"><path d="M517.605 371.072a2.772 2.772 0 015.542 0 2.77 2.77 0 01-2.772 2.77 2.77 2.77 0 01-2.77-2.77m.654 0a2.117 2.117 0 004.234 0 2.117 2.117 0 10-4.234 0"/></clipPath><clipPath clipPathUnits="userSpaceOnUse" id="J"><path d="M-13903.2 14761.9H14932v-28835.2h-28835.2z"/></clipPath><clipPath clipPathUnits="userSpaceOnUse" id="bO"><path d="M518.076 356.99v-6.105s1.141 5.948 4.111 6.105z"/></clipPath><clipPath clipPathUnits="userSpaceOnUse" id="F"><path d="M-13903.2 14761.9H14932v-28835.2h-28835.2z"/></clipPath><clipPath clipPathUnits="userSpaceOnUse" id="ae"><path d="M520.271 381.967s-5.612 0-5.612-5.613v-26.195c.001-.171.087-5.609 5.612-5.609h26.192s5.612 0 5.612 5.612v26.192s0 5.613-5.612 5.613z"/></clipPath><clipPath clipPathUnits="userSpaceOnUse" id="H"><path d="M-32768 32767h65535v-65535h-65535z"/></clipPath><clipPath clipPathUnits="userSpaceOnUse" id="bM"><path d="M520.271 381.967s-5.612 0-5.612-5.613v-26.195c.001-.171.087-5.609 5.612-5.609h26.192s5.612 0 5.612 5.612v26.192s0 5.613-5.612 5.613z"/></clipPath><clipPath clipPathUnits="userSpaceOnUse" id="bJ"><path d="M520.271 381.967s-5.612 0-5.612-5.613v-26.195c.001-.171.087-5.609 5.612-5.609h26.192s5.612 0 5.612 5.612v26.192s0 5.613-5.612 5.613z"/></clipPath><clipPath clipPathUnits="userSpaceOnUse" id="bH"><path d="M520.271 381.967s-5.612 0-5.612-5.613v-26.195c.001-.171.087-5.609 5.612-5.609h26.192s5.612 0 5.612 5.612v26.192s0 5.613-5.612 5.613z"/></clipPath><clipPath clipPathUnits="userSpaceOnUse" id="bF"><path d="M520.271 381.967s-5.612 0-5.612-5.613v-26.195c.001-.171.087-5.609 5.612-5.609h26.192s5.612 0 5.612 5.612v26.192s0 5.613-5.612 5.613z"/></clipPath><clipPath clipPathUnits="userSpaceOnUse" id="bC"><path d="M520.271 381.967s-5.612 0-5.612-5.613v-26.195c.001-.171.087-5.609 5.612-5.609h26.192s5.612 0 5.612 5.612v26.192s0 5.613-5.612 5.613z"/></clipPath><clipPath clipPathUnits="userSpaceOnUse" id="bz"><path d="M520.271 381.967s-5.612 0-5.612-5.613v-26.195c.001-.171.087-5.609 5.612-5.609h26.192s5.612 0 5.612 5.612v26.192s0 5.613-5.612 5.613z"/></clipPath><clipPath clipPathUnits="userSpaceOnUse" id="bw"><path d="M520.271 381.967s-5.612 0-5.612-5.613v-26.195c.001-.171.087-5.609 5.612-5.609h26.192s5.612 0 5.612 5.612v26.192s0 5.613-5.612 5.613z"/></clipPath><clipPath clipPathUnits="userSpaceOnUse" id="bu"><path d="M520.271 381.967s-5.612 0-5.612-5.613v-26.195c.001-.171.087-5.609 5.612-5.609h26.192s5.612 0 5.612 5.612v26.192s0 5.613-5.612 5.613z"/></clipPath><clipPath clipPathUnits="userSpaceOnUse" id="bs"><path d="M520.271 381.967s-5.612 0-5.612-5.613v-26.195c.001-.171.087-5.609 5.612-5.609h26.192s5.612 0 5.612 5.612v26.192s0 5.613-5.612 5.613z"/></clipPath><clipPath clipPathUnits="userSpaceOnUse" id="bp"><path d="M520.271 381.967s-5.612 0-5.612-5.613v-26.195c.001-.171.087-5.609 5.612-5.609h26.192s5.612 0 5.612 5.612v26.192s0 5.613-5.612 5.613z"/></clipPath><clipPath clipPathUnits="userSpaceOnUse" id="bl"><path d="M545.048 375.018a6.965 6.965 0 01-1.547-9.723l1.09.791a5.62 5.62 0 001.248 7.841c.074.055.152.099.23.15l1.784-3.049.554.324-1.785 3.046a5.63 5.63 0 005.453-.223v1.526a6.988 6.988 0 01-2.939.647 6.922 6.922 0 01-4.088-1.33"/></clipPath><clipPath clipPathUnits="userSpaceOnUse" id="ap"><path d="M545.73 361.272l1.309-.378.346 1.295c-.425-.61-1.655-.917-1.655-.917"/></clipPath><clipPath clipPathUnits="userSpaceOnUse" id="D"><path d="M-13903.2 14761.9H14932v-28835.2h-28835.2z"/></clipPath><clipPath clipPathUnits="userSpaceOnUse" id="bi"><path d="M531.266 354.35a11.566 11.566 0 01-.77-9.8h2.077a9.7 9.7 0 00-.789 5.554l3.124-.817.524 2.002-3.115.814a9.67 9.67 0 0013.8 4.934l.946 1.667a11.584 11.584 0 01-15.797-4.354"/></clipPath><clipPath clipPathUnits="userSpaceOnUse" id="B"><path d="M-13903.2 14761.9H14932v-28835.2h-28835.2z"/></clipPath><clipPath clipPathUnits="userSpaceOnUse" id="bf"><path d="M547.995 370.708a1.767 1.767 0 01-.201-2.493l.009-.008.22.187-.009.008a1.48 1.48 0 102.254 1.919.036.036 0 00.007-.01l.219.187c-.003.003-.004.008-.006.01a1.767 1.767 0 01-2.493.2"/></clipPath><clipPath clipPathUnits="userSpaceOnUse" id="z"><path d="M-13903.2 14761.9H14932v-28835.2h-28835.2z"/></clipPath><clipPath clipPathUnits="userSpaceOnUse" id="bc"><path d="M537.454 353.196a5.998 5.998 0 01-.68-8.455l1.759 1.497a3.688 3.688 0 005.617 4.781l1.759 1.497a5.984 5.984 0 01-4.571 2.11 5.964 5.964 0 01-3.884-1.43"/></clipPath><clipPath clipPathUnits="userSpaceOnUse" id="v"><path d="M-13903.2 14761.9H14932v-28835.2h-28835.2z"/></clipPath><clipPath clipPathUnits="userSpaceOnUse" id="x"><path d="M-32768 32767h65535v-65535h-65535z"/></clipPath><clipPath clipPathUnits="userSpaceOnUse" id="aZ"><path d="M542.904 360.521c.686 1.082 2.044 1.355 2.044 1.355l-1.646.378z"/></clipPath><clipPath clipPathUnits="userSpaceOnUse" id="as"><path d="M551.132 360.814l.943.315v1.059c-.222-.666-.943-1.374-.943-1.374"/></clipPath><clipPath clipPathUnits="userSpaceOnUse" id="t"><path d="M-13903.2 14761.9H14932v-28835.2h-28835.2z"/></clipPath><clipPath clipPathUnits="userSpaceOnUse" id="aW"><path d="M546.877 359.269c1.014.783 2.384.574 2.384.574l-1.417.918z"/></clipPath><clipPath clipPathUnits="userSpaceOnUse" id="r"><path d="M-13903.2 14761.9H14932v-28835.2h-28835.2z"/></clipPath><clipPath clipPathUnits="userSpaceOnUse" id="aT"><path d="M550.182 356.734c.713.228 1.425.095 1.893-.054v.498l-.474.628z"/></clipPath><clipPath clipPathUnits="userSpaceOnUse" id="p"><path d="M-13903.2 14761.9H14932v-28835.2h-28835.2z"/></clipPath><clipPath clipPathUnits="userSpaceOnUse" id="aQ"><path d="M528.244 344.55h.518c-.436.284-.695.579-.695.579z"/></clipPath><clipPath clipPathUnits="userSpaceOnUse" id="l"><path d="M-13903.2 14761.9H14932v-28835.2h-28835.2z"/></clipPath><clipPath clipPathUnits="userSpaceOnUse" id="n"><path d="M-13903.2 14761.9H14932v-28835.2h-28835.2z"/></clipPath><clipPath clipPathUnits="userSpaceOnUse" id="aN"><path d="M527.584 348.193l1.776-.09c-1.187.487-1.69 1.777-1.69 1.777z"/></clipPath><clipPath clipPathUnits="userSpaceOnUse" id="av"><path d="M550.727 376.661c.223.319.768.558 1.236.713a7.858 7.858 0 01-.106.476l-.711.211z"/></clipPath><clipPath clipPathUnits="userSpaceOnUse" id="j"><path d="M-13903.2 14761.9H14932v-28835.2h-28835.2z"/></clipPath><clipPath clipPathUnits="userSpaceOnUse" id="aK"><path d="M528.264 352.924l1.638-.692c-.948.864-.978 2.248-.978 2.248z"/></clipPath><clipPath clipPathUnits="userSpaceOnUse" id="h"><path d="M-32768 32767h65535v-65535h-65535z"/></clipPath><clipPath clipPathUnits="userSpaceOnUse" id="aH"><path d="M530.522 357.139l1.302-1.212c-.595 1.137-.15 2.448-.15 2.448z"/></clipPath><clipPath clipPathUnits="userSpaceOnUse" id="f"><path d="M-13903.2 14761.9H14932v-28835.2h-28835.2z"/></clipPath><clipPath clipPathUnits="userSpaceOnUse" id="aE"><path d="M534.084 360.326l.811-1.583c-.17 1.271.695 2.351.695 2.351z"/></clipPath><clipPath clipPathUnits="userSpaceOnUse" id="P"><path d="M-13903.2 14761.9H14932v-28835.2h-28835.2z"/></clipPath><clipPath clipPathUnits="userSpaceOnUse" id="d"><path d="M-13903.2 14761.9H14932v-28835.2h-28835.2z"/></clipPath><clipPath clipPathUnits="userSpaceOnUse" id="aB"><path d="M538.523 362.102l.22-1.765c.275 1.254 1.458 1.972 1.458 1.972z"/></clipPath><clipPath clipPathUnits="userSpaceOnUse" id="ay"><path d="M545.898 377.467l.414-1.194a9.977 9.977 0 00.066 1.362z"/></clipPath><clipPath clipPathUnits="userSpaceOnUse" id="b"><path d="M-13903.2 14761.9H14932v-28835.2h-28835.2z"/></clipPath><clipPath clipPathUnits="userSpaceOnUse" id="ab"><path d="M520.271 381.967s-5.612 0-5.612-5.613v-26.195c.001-.171.087-5.609 5.612-5.609h26.192s5.612 0 5.612 5.612v26.192s0 5.613-5.612 5.613z"/></clipPath><clipPath clipPathUnits="userSpaceOnUse" id="T"><path d="M-13903.2 14761.9H14932v-28835.2h-28835.2z"/></clipPath><clipPath clipPathUnits="userSpaceOnUse" id="ag"><path d="M541.748 374.014l1.153-.804c-.45.591-.735 1.404-.735 1.404z"/></clipPath><clipPath clipPathUnits="userSpaceOnUse" id="V"><path d="M-13903.2 14761.9H14932v-28835.2h-28835.2z"/></clipPath><clipPath clipPathUnits="userSpaceOnUse" id="aj"><path d="M540.41 369.334l.011-.553 1.666.032c-.704.213-1.657.515-1.676.521z"/></clipPath><clipPath clipPathUnits="userSpaceOnUse" id="ca"><path d="M531.359 381.641v-11.562h.5v11.562z"/></clipPath><clipPath clipPathUnits="userSpaceOnUse" id="X"><path d="M-13903.2 14761.9H14932v-28835.2h-28835.2z"/></clipPath><clipPath clipPathUnits="userSpaceOnUse" id="R"><path d="M-13903.2 14761.9H14932v-28835.2h-28835.2z"/></clipPath><clipPath clipPathUnits="userSpaceOnUse" id="bX"><path d="M531.359 366.395a.785.785 0 011.57 0 .786.786 0 01-.785.786.787.787 0 01-.785-.786"/></clipPath><clipPath clipPathUnits="userSpaceOnUse" id="am"><path d="M541.995 364.333l.428-.565 1.147.868c-.702-.245-1.575-.303-1.575-.303"/></clipPath><mask maskUnits="userSpaceOnUse" x="0" y="0" width="1" height="1" id="bg"><g clip-path="url(#z)"><path d="M549.093 372.776l2.844-3.341-3.375-2.874-2.844 3.341z" fill="url(#A)"/></g></mask><mask maskUnits="userSpaceOnUse" x="0" y="0" width="1" height="1" id="aC"><g clip-path="url(#b)"><path d="M538.523 362.31h1.678v-1.972h-1.678z" fill="url(#c)"/></g></mask><mask maskUnits="userSpaceOnUse" x="0" y="0" width="1" height="1" id="aI"><g clip-path="url(#f)"><path d="M529.316 357.364l1.97 1.653 1.744-2.078-1.97-1.653z" fill="url(#g)"/></g></mask><mask maskUnits="userSpaceOnUse" x="0" y="0" width="1" height="1" id="aL"><g clip-path="url(#h)"><path d="M527.29 352.794l1.384 2.396 2.202-1.272-1.383-2.396z" fill="url(#i)"/></g></mask><mask maskUnits="userSpaceOnUse" x="0" y="0" width="1" height="1" id="aO"><g clip-path="url(#j)"><path d="M527.279 348.156l.358 2.028 2.027-.357-.358-2.028z" fill="url(#k)"/></g></mask><mask maskUnits="userSpaceOnUse" x="0" y="0" width="1" height="1" id="aw"><g clip-path="url(#l)"><path d="M550.808 378.38l1.598-.402-.411-1.636-1.599.402z" fill="url(#m)"/></g></mask><mask maskUnits="userSpaceOnUse" x="0" y="0" width="1" height="1" id="aR"><g clip-path="url(#n)"><path d="M528.088 344.431l-.12.681.773.136.12-.681z" fill="url(#o)"/></g></mask><mask maskUnits="userSpaceOnUse" x="0" y="0" width="1" height="1" id="aU"><g clip-path="url(#p)"><path d="M551.602 358.626l.961-1.665-1.908-1.101-.961 1.664z" fill="url(#q)"/></g></mask><mask maskUnits="userSpaceOnUse" x="0" y="0" width="1" height="1" id="aX"><g clip-path="url(#r)"><path d="M547.862 361.935l2.134-1.79-1.72-2.05-2.134 1.791z" fill="url(#s)"/></g></mask><mask maskUnits="userSpaceOnUse" x="0" y="0" width="1" height="1" id="ba"><g clip-path="url(#t)"><path d="M543.143 362.91l2.362-.859-.796-2.188-2.362.86z" fill="url(#u)"/></g></mask><mask maskUnits="userSpaceOnUse" x="0" y="0" width="1" height="1" id="at"><g clip-path="url(#v)"><path d="M552.551 361.005l-1.288-.518-.607 1.511 1.288.517z" fill="url(#w)"/></g></mask><mask maskUnits="userSpaceOnUse" x="0" y="0" width="1" height="1" id="bd"><g clip-path="url(#x)"><path d="M540.268 360.268l10.584-10.584-10.584-10.584-10.583 10.584z" fill="url(#y)"/></g></mask><mask maskUnits="userSpaceOnUse" x="0" y="0" width="1" height="1" id="aF"><g clip-path="url(#d)"><path d="M533.329 360.82l2.085.759.932-2.561-2.085-.759z" fill="url(#e)"/></g></mask><mask maskUnits="userSpaceOnUse" x="0" y="0" width="1" height="1" id="bj"><g clip-path="url(#B)"><path d="M530.334 364.317l20.352-4.988-4.627-18.879-20.352 4.988z" fill="url(#C)"/></g></mask><mask maskUnits="userSpaceOnUse" x="0" y="0" width="1" height="1" id="bm"><g clip-path="url(#D)"><path d="M549.24 381.109l7.695-12.92-12.853-7.655-7.695 12.921z" fill="url(#E)"/></g></mask><mask maskUnits="userSpaceOnUse" x="0" y="0" width="1" height="1" id="aq"><g clip-path="url(#F)"><path d="M547.287 360.502l-1.864.469.405 1.61 1.864-.469z" fill="url(#G)"/></g></mask><mask maskUnits="userSpaceOnUse" x="0" y="0" width="1" height="1" id="bP"><g clip-path="url(#H)"><path d="M519.592 358.973l5.541-4.234-4.461-5.838-5.541 4.235z" fill="url(#I)"/></g></mask><mask maskUnits="userSpaceOnUse" x="0" y="0" width="1" height="1" id="bS"><g clip-path="url(#J)"><path d="M520.376 376.613l5.541-5.541-5.541-5.542-5.542 5.542z" fill="url(#K)"/></g></mask><mask maskUnits="userSpaceOnUse" x="0" y="0" width="1" height="1" id="bV"><g clip-path="url(#L)"><path d="M520.376 373.057l1.985-1.985-1.985-1.986-1.986 1.986z" fill="url(#M)"/></g></mask><mask maskUnits="userSpaceOnUse" x="0" y="0" width="1" height="1" id="bY"><g clip-path="url(#N)"><path d="M532.167 367.965l1.547-1.592-1.593-1.548-1.547 1.593z" fill="url(#O)"/></g></mask><mask maskUnits="userSpaceOnUse" x="0" y="0" width="1" height="1" id="az"><g clip-path="url(#P)"><path d="M545.427 377.445l.885.356.537-1.339-.884-.355z" fill="url(#Q)"/></g></mask><mask maskUnits="userSpaceOnUse" x="0" y="0" width="1" height="1" id="cb"><g clip-path="url(#R)"><path d="M531.544 381.883l5.894-4.504-5.763-7.541-5.894 4.504z" fill="url(#S)"/></g></mask><mask maskUnits="userSpaceOnUse" x="0" y="0" width="1" height="1" id="ah"><g clip-path="url(#T)"><path d="M541.115 373.606l.959 1.528 1.46-.917-.959-1.527z" fill="url(#U)"/></g></mask><mask maskUnits="userSpaceOnUse" x="0" y="0" width="1" height="1" id="ak"><g clip-path="url(#V)"><path d="M540.418 368.668l-.045.664 1.707.116.045-.664z" fill="url(#W)"/></g></mask><mask maskUnits="userSpaceOnUse" x="0" y="0" width="1" height="1" id="an"><g clip-path="url(#X)"><path d="M542.643 362.993l-1.075 1.286 1.355 1.132 1.074-1.286z" fill="url(#Y)"/></g></mask></defs><path d="M0 0s-5.613 0-5.613-5.613v-26.192s0-5.612 5.613-5.612h26.192s5.613 0 5.613 5.612v26.192S31.805 0 26.192 0z" fill="url(#Z)" stroke="#231f20" stroke-width=".66" transform="matrix(.62536 0 0 -.62538 5.04 1.53)"/><path d="M542.673 360.521a11.92 11.92 0 01-1.302.071c-.269 0-.537-.01-.802-.027l-.215 1.972-2.052-.223.225-2.062a11.935 11.935 0 01-1.993-.679l-.877 1.778-1.851-.912.918-1.862a12.05 12.05 0 01-1.64-1.319l-1.432 1.372-1.429-1.49 1.5-1.438a11.899 11.899 0 01-1.093-1.799l-1.813.8-.832-1.889 1.897-.837a12.025 12.025 0 01-.407-2.064l-1.979.129-.136-2.059 2.073-.137c.046-.712.154-1.407.32-2.08l-1.903-.554.192-.662h4.98a9.244 9.244 0 00-.941 4.078c0 .331.018.659.052.981l2.862-.731a6.351 6.351 0 011.469-4.328h9.813c.281.338.529.706.737 1.1l2.009-.514c1.481.657 3.052 2.056 3.052 5.026v3.812c-.228.457-.484.896-.767 1.317l.767.563v1.746l-.388.529-1.675-1.228c-.486.508-1.015.971-1.583 1.387l1.103 1.649-1.716 1.148-1.153-1.725c-.625.309-1.281.564-1.962.761l.471 1.926-2.005.491zm-9.82-8.18a9.293 9.293 0 008.518 5.577c.331 0 .658-.018.98-.051l-.731-2.864a6.38 6.38 0 01-5.892-3.395zm14.893-3.963a6.38 6.38 0 01-3.396 5.893l.733 2.875a9.294 9.294 0 005.577-8.518 9.33 9.33 0 00-.052-.98zm-9.659.25a3.285 3.285 0 006.568 0 3.283 3.283 0 10-6.568 0" fill="url(#aa)" transform="matrix(.62536 0 0 -.62538 -320.318 240.402)"/><g transform="matrix(.62536 0 0 -.62538 -320.318 240.402)" clip-path="url(#ab)"><path d="M540.39 339.39l.73 2.863c.084-.003.167-.006.25-.006a6.38 6.38 0 015.644 3.402l2.873-.734a9.289 9.289 0 00-9.497-5.525zm1.96 18.476l-.73-2.863a6.38 6.38 0 01-5.893-3.395l-2.873.733a9.29 9.29 0 009.497 5.525zm-.98-12.522a3.284 3.284 0 100 6.568 3.284 3.284 0 000-6.568zm-9.237 4.265l2.862-.732a6.379 6.379 0 013.396-5.892l-.733-2.874a9.292 9.292 0 00-5.525 9.498zm12.217 4.662l.733 2.875a9.294 9.294 0 005.526-9.498l-2.863.73a6.378 6.378 0 01-3.396 5.893zm10.895-7.057l.135 2.06-2.072.136a11.874 11.874 0 01-.32 2.081l1.903.554-.577 1.982-1.991-.58a11.951 11.951 0 01-1.015 1.844l1.599 1.172-1.22 1.666-1.675-1.228c-.485.507-1.015.971-1.583 1.386l1.103 1.65-1.716 1.147-1.153-1.724a11.69 11.69 0 01-1.962.761l.47 1.925-2.004.491-.494-2.016a12.174 12.174 0 01-2.104.044l-.215 1.972-2.052-.223.225-2.063a11.842 11.842 0 01-1.993-.678l-.876 1.778-1.852-.912.918-1.863a11.974 11.974 0 01-1.64-1.319l-1.432 1.373-1.43-1.49 1.5-1.438a11.949 11.949 0 01-1.092-1.799l-1.813.8-.832-1.89 1.898-.836a11.924 11.924 0 01-.408-2.065l-1.98.13-.134-2.059 2.072-.137c.046-.712.154-1.407.32-2.08l-1.903-.555.576-1.98 1.992.58a11.87 11.87 0 011.015-1.845l-1.6-1.173 1.22-1.665 1.675 1.228a12.087 12.087 0 011.584-1.387l-1.103-1.649 1.716-1.147 1.153 1.724a11.867 11.867 0 011.962-.762l-.471-1.924 2.005-.492.494 2.017a11.924 11.924 0 012.104-.044l.215-1.973 2.052.225-.225 2.061c.69.17 1.356.396 1.993.678l.876-1.777 1.852.912-.918 1.862c.586.392 1.134.834 1.64 1.32l1.432-1.373 1.429 1.491-1.5 1.436c.415.564.78 1.166 1.093 1.8l1.813-.8.832 1.89-1.898.835c.194.666.332 1.357.408 2.065z" fill="none" stroke="#4f4c4d" stroke-width=".44" stroke-miterlimit="10"/></g><path d="M538.714 361.983l.22-2.017-.318-.078a11.592 11.592 0 01-1.931-.657l-.328-.145-.87 1.764-1.18-.582.897-1.82-.273-.182a11.791 11.791 0 01-1.587-1.278l-.259-.249-1.423 1.362-.91-.95 1.467-1.404-.195-.265a11.713 11.713 0 01-1.057-1.743l-.16-.322-1.799.792-.53-1.204 1.855-.817-.091-.314a11.613 11.613 0 01-.395-2.001l-.038-.358-1.964.13-.086-1.313 2.026-.133.022-.328c.044-.68.147-1.358.309-2.015l.086-.349-1.889-.55.118-.407h4.178a9.657 9.657 0 00-.849 5.099l.046.43 3.574-.913-.011-.303c-.002-.076-.005-.155-.005-.235 0-1.539.584-2.986 1.595-4.078h8.823c.349.379.652.805.9 1.274l.139.261 2.712-.693c1.31.743 2.542 2.14 2.542 4.77v2.919l-.095.216a11.656 11.656 0 01-.983 1.786l-.2.297 1.278.938v.648l-.468.64-1.638-1.201-.227.238c-.468.489-.984.94-1.534 1.343l-.289.211 1.094 1.636-1.094.732-1.128-1.686-.294.145c-.61.302-1.25.55-1.901.738l-.344.1.468 1.91-1.278.313-.484-1.971-.325.035a11.775 11.775 0 01-2.04.043l-.357-.024-.214 1.957zm-6.379-9.896l.176.403a9.666 9.666 0 008.86 5.803c.336 0 .68-.019 1.018-.054l.432-.045-.913-3.577-.303.013a6 6 0 01-5.547-3.196l-.138-.261zm15.024-3.996l.013.303a5.996 5.996 0 01-3.197 5.546l-.261.139.915 3.586.404-.176a9.67 9.67 0 005.801-8.861c0-.338-.018-.681-.054-1.018l-.045-.431zm-9.647.537a3.663 3.663 0 003.659 3.659 3.663 3.663 0 003.658-3.659 3.663 3.663 0 00-3.658-3.658 3.663 3.663 0 00-3.659 3.658" fill="url(#ac)" transform="matrix(.62536 0 0 -.62538 -320.318 240.402)"/><path d="M545.142 377.834l.596-1.725a7.588 7.588 0 01-1.818-1.282l-1.566 1.093-1.432-2.053 1.495-1.045a7.469 7.469 0 01-.717-2.107l-1.909-.035.047-2.504 1.825.035c.113-.74.333-1.454.657-2.127l-1.523-1.15 1.51-1.998 1.459 1.102a7.471 7.471 0 011.778-1.335l-.555-1.827 2.395-.728.532 1.747a7.679 7.679 0 012.224-.033l.625-1.804 1.31.452v5.522l-1.085 1.847a2.363 2.363 0 01.502 1.733l.583.343v2.113l-1.463-.859a2.365 2.365 0 01-1.475.515c-.085 0-.172-.004-.258-.014l-1.421 2.42c.539.19 1.103.286 1.679.286a5.023 5.023 0 002.938-.937v2.875s0 .886-.353 1.956l-.833.253-.532-1.747a7.673 7.673 0 01-1.22.099 7.7 7.7 0 01-1.005-.067l-.623 1.804zm-1.067-8.479c0 1.509.654 2.906 1.802 3.87l1.406-2.394a2.364 2.364 0 01-.515-1.476c0-.085.004-.171.014-.257l-2.42-1.421a5.028 5.028 0 00-.287 1.678m4.153 0a.91.91 0 001.818 0 .909.909 0 00-1.818 0m-2.961-3.259l2.394 1.406a2.363 2.363 0 011.476-.516c.084 0 .171.004.257.014l1.421-2.419a5.027 5.027 0 00-1.678-.286 5.02 5.02 0 00-3.87 1.801" fill="url(#ad)" transform="matrix(.62536 0 0 -.62538 -320.318 240.402)"/><g transform="matrix(.62536 0 0 -.62538 -320.318 240.402)" clip-path="url(#ae)"><path d="M545.609 366.041l2.038 1.197a2.583 2.583 0 011.628-.468l1.212-2.064a4.798 4.798 0 00-1.35-.192 4.8 4.8 0 00-3.528 1.527m3.528 2.625a.69.69 0 10.001 1.38.69.69 0 00-.001-1.38m2.586.826l2.063 1.213a4.83 4.83 0 00.192-1.35 4.8 4.8 0 00-1.527-3.528l-1.197 2.038a2.58 2.58 0 01.469 1.627m-7.236-1.487a4.824 4.824 0 00-.191 1.35 4.8 4.8 0 001.527 3.528l1.197-2.038a2.58 2.58 0 01-.468-1.627zm3.3 6c.437.127.89.191 1.35.191a4.8 4.8 0 003.528-1.527l-2.038-1.197a2.573 2.573 0 01-1.628.468zm-.142 4.927l-.416-.143-1.951-.675-.416-.144.144-.416.463-1.338a7.734 7.734 0 01-1.568-1.108l-1.24.866-.361.252-.252-.36-1.181-1.693-.252-.36.36-.252 1.16-.81a7.68 7.68 0 01-.617-1.819l-1.511-.028-.44-.009.008-.439.039-2.064.008-.44.44.008 1.415.027a7.746 7.746 0 01.568-1.835l-1.205-.91-.351-.265.266-.35 1.244-1.648.265-.352.35.265 1.132.855a7.74 7.74 0 011.537-1.15l-.44-1.447-.13-.42.423-.129 1.974-.6.42-.128.129.421.413 1.355a7.737 7.737 0 011.919-.026l.494-1.43.144-.415.416.143 1.95.675.416.144-.143.416-.463 1.337a7.778 7.778 0 011.568 1.11l1.24-.867.36-.252.253.361 1.18 1.692.253.361-.361.252-1.16.81c.28.58.489 1.188.618 1.818l1.51.028.44.01-.008.438-.038 2.064-.008.44-.44-.008-1.416-.027a7.655 7.655 0 01-.568 1.835l1.205.91.352.265-.266.352-1.245 1.646-.265.351-.351-.265-1.13-.854a7.74 7.74 0 01-1.537 1.151l.44 1.445.128.421-.421.128-1.974.601-.422.128-.128-.42-.412-1.356a7.736 7.736 0 01-1.92.027l-.493 1.43zm1.492-14.858c.708 0 1.383.141 2 .393l-1.628 2.772a2.14 2.14 0 00-1.824.532l-2.75-1.615a5.272 5.272 0 014.202-2.082m0 4.152a1.129 1.129 0 110 2.258 1.129 1.129 0 010-2.258m3.199-3.072a5.272 5.272 0 011.689 6.201l-2.771-1.628a2.14 2.14 0 00-.533-1.824l1.615-2.749m-8.087 2.201l2.77 1.628a2.145 2.145 0 00.532 1.824l-1.613 2.75a5.272 5.272 0 01-1.69-6.202m4.517 4.116a2.136 2.136 0 001.823-.532l2.75 1.615a5.272 5.272 0 01-6.2 1.69l1.627-2.773m-1.392 6.902l.61-1.769a7.433 7.433 0 002.528-.039l.524 1.723 1.975-.6-.544-1.79a7.368 7.368 0 002.02-1.518l1.437 1.086 1.245-1.647-1.492-1.127a7.314 7.314 0 00.743-2.416l1.8.034.039-2.064-1.87-.035a7.317 7.317 0 00-.818-2.39l1.476-1.032-1.181-1.692-1.536 1.071a7.374 7.374 0 00-2.066-1.455l.589-1.7-1.951-.676-.612 1.77a7.316 7.316 0 00-2.526.039l-.525-1.724-1.974.6.544 1.791a7.348 7.348 0 00-2.02 1.518l-1.438-1.088-1.244 1.648 1.492 1.128a7.293 7.293 0 00-.743 2.415l-1.801-.034-.04 2.064 1.873.035a7.27 7.27 0 00.817 2.391l-1.477 1.031 1.182 1.693 1.535-1.072a7.37 7.37 0 002.067 1.454l-.59 1.702 1.952.675" fill="#4f4c4d"/></g><path d="M545.898 377.467l.577-1.666-.306-.143a7.01 7.01 0 01-1.961-1.38l-.22-.223-1.486 1.038-.754-1.079 1.446-1.009-.163-.295a6.902 6.902 0 01-.775-2.268l-.048-.311-1.812-.034.025-1.316 1.763.034.042-.334a6.93 6.93 0 01.704-2.292l.144-.28-1.444-1.091.793-1.05 1.407 1.064.231-.245a6.943 6.943 0 011.917-1.441l.279-.142-.527-1.732 1.259-.383.513 1.687.331-.063a6.948 6.948 0 011.304-.123c.363 0 .731.029 1.094.086l.31.049.591-1.711.943.325v.973l-.275.797.275.129v1.821l-1.817 3.093.187.205a1.767 1.767 0 01.44 1.507l-.044.255 1.234.725v.736l-1.535-.903-.204.187a1.772 1.772 0 01-1.199.466c-.101 0-.205-.009-.308-.027l-.256-.045-1.977 3.368.4.163c.681.28 1.402.421 2.141.421a5.616 5.616 0 002.938-.819v1.486l-.058.03.058.192v.455s0 .536-.165 1.277l-.626.191-.513-1.687-.329.063a7.06 7.06 0 01-1.305.123c-.365 0-.733-.03-1.095-.086l-.308-.049-.593 1.711zm-1.996-10.253a5.63 5.63 0 00-.421 2.141c0 1.779.813 3.419 2.23 4.499l.336.255 1.968-3.35-.187-.205a1.771 1.771 0 01-.466-1.199c0-.101.009-.204.027-.307l.044-.257-3.367-1.977zm3.731 2.141a1.505 1.505 0 003.008 0c0-.828-.675-1.503-1.504-1.503s-1.504.675-1.504 1.503m-2.994-3.426l-.256.336 3.351 1.968.203-.187a1.772 1.772 0 011.2-.465c.101 0 .203.008.308.027l.255.044 1.978-3.367-.4-.164a5.623 5.623 0 00-2.141-.421 5.616 5.616 0 00-4.498 2.229" fill="url(#af)" transform="matrix(.62536 0 0 -.62538 -320.318 240.402)"/><g transform="matrix(.62536 0 0 -.62538 -320.318 240.402)" clip-path="url(#ag)"><g mask="url(#ah)"><path d="M541.748 374.014l1.153-.804c-.45.591-.735 1.404-.735 1.404z" fill="url(#ai)"/></g></g><g transform="matrix(.62536 0 0 -.62538 -320.318 240.402)" clip-path="url(#aj)"><g mask="url(#ak)"><path d="M540.41 369.334l.011-.553 1.666.032c-.704.213-1.657.515-1.676.521z" fill="url(#al)"/></g></g><g transform="matrix(.62536 0 0 -.62538 -320.318 240.402)" clip-path="url(#am)"><g mask="url(#an)"><path d="M541.995 364.333l.428-.565 1.147.868c-.702-.245-1.575-.303-1.575-.303" fill="url(#ao)"/></g></g><g transform="matrix(.62536 0 0 -.62538 -320.318 240.402)" clip-path="url(#ap)"><g mask="url(#aq)"><path d="M545.73 361.272l1.309-.378.346 1.295c-.425-.61-1.655-.917-1.655-.917" fill="url(#ar)"/></g></g><g transform="matrix(.62536 0 0 -.62538 -320.318 240.402)" clip-path="url(#as)"><g mask="url(#at)"><path d="M551.132 360.814l.943.315v1.059c-.222-.666-.943-1.374-.943-1.374" fill="url(#au)"/></g></g><g transform="matrix(.62536 0 0 -.62538 -320.318 240.402)" clip-path="url(#av)"><g mask="url(#aw)"><path d="M550.727 376.661c.223.319.768.558 1.236.713a7.858 7.858 0 01-.106.476l-.711.211z" fill="url(#ax)"/></g></g><g transform="matrix(.62536 0 0 -.62538 -320.318 240.402)" clip-path="url(#ay)"><g mask="url(#az)"><path d="M545.898 377.467l.414-1.194a9.977 9.977 0 00.066 1.362z" fill="url(#aA)"/></g></g><g transform="matrix(.62536 0 0 -.62538 -320.318 240.402)" clip-path="url(#aB)"><g mask="url(#aC)"><path d="M538.523 362.102l.22-1.765c.275 1.254 1.458 1.972 1.458 1.972z" fill="url(#aD)"/></g></g><g transform="matrix(.62536 0 0 -.62538 -320.318 240.402)" clip-path="url(#aE)"><g mask="url(#aF)"><path d="M534.084 360.326l.811-1.583c-.17 1.271.695 2.351.695 2.351z" fill="url(#aG)"/></g></g><g transform="matrix(.62536 0 0 -.62538 -320.318 240.402)" clip-path="url(#aH)"><g mask="url(#aI)"><path d="M530.522 357.139l1.302-1.212c-.595 1.137-.15 2.448-.15 2.448z" fill="url(#aJ)"/></g></g><g transform="matrix(.62536 0 0 -.62538 -320.318 240.402)" clip-path="url(#aK)"><g mask="url(#aL)"><path d="M528.264 352.924l1.638-.692c-.948.864-.978 2.248-.978 2.248z" fill="url(#aM)"/></g></g><g transform="matrix(.62536 0 0 -.62538 -320.318 240.402)" clip-path="url(#aN)"><g mask="url(#aO)"><path d="M527.584 348.193l1.776-.09c-1.187.487-1.69 1.777-1.69 1.777z" fill="url(#aP)"/></g></g><g transform="matrix(.62536 0 0 -.62538 -320.318 240.402)" clip-path="url(#aQ)"><g mask="url(#aR)"><path d="M528.244 344.55h.518c-.436.284-.695.579-.695.579z" fill="url(#aS)"/></g></g><g transform="matrix(.62536 0 0 -.62538 -320.318 240.402)" clip-path="url(#aT)"><g mask="url(#aU)"><path d="M550.182 356.734c.713.228 1.425.095 1.893-.054v.498l-.474.628z" fill="url(#aV)"/></g></g><g transform="matrix(.62536 0 0 -.62538 -320.318 240.402)" clip-path="url(#aW)"><g mask="url(#aX)"><path d="M546.877 359.269c1.014.783 2.384.574 2.384.574l-1.417.918z" fill="url(#aY)"/></g></g><g transform="matrix(.62536 0 0 -.62538 -320.318 240.402)" clip-path="url(#aZ)"><g mask="url(#ba)"><path d="M542.904 360.521c.686 1.082 2.044 1.355 2.044 1.355l-1.646.378z" fill="url(#bb)"/></g></g><g transform="matrix(.62536 0 0 -.62538 -320.318 240.402)" clip-path="url(#bc)"><g mask="url(#bd)"><path d="M537.454 353.196a5.998 5.998 0 01-.68-8.455l1.759 1.497a3.688 3.688 0 005.617 4.781l1.759 1.497a5.984 5.984 0 01-4.571 2.11 5.964 5.964 0 01-3.884-1.43" fill="url(#be)"/></g></g><g transform="matrix(.62536 0 0 -.62538 -320.318 240.402)" clip-path="url(#bf)"><g mask="url(#bg)"><path d="M547.995 370.708a1.767 1.767 0 01-.201-2.493l.009-.008.22.187-.009.008a1.48 1.48 0 102.254 1.919.036.036 0 00.007-.01l.219.187c-.003.003-.004.008-.006.01a1.767 1.767 0 01-2.493.2" fill="url(#bh)"/></g></g><g transform="matrix(.62536 0 0 -.62538 -320.318 240.402)" clip-path="url(#bi)"><g mask="url(#bj)"><path d="M531.266 354.35a11.566 11.566 0 01-.77-9.8h2.077a9.7 9.7 0 00-.789 5.554l3.124-.817.524 2.002-3.115.814a9.67 9.67 0 0013.8 4.934l.946 1.667a11.584 11.584 0 01-15.797-4.354" fill="url(#bk)"/></g></g><g transform="matrix(.62536 0 0 -.62538 -320.318 240.402)" clip-path="url(#bl)"><g mask="url(#bm)"><path d="M545.048 375.018a6.965 6.965 0 01-1.547-9.723l1.09.791a5.62 5.62 0 001.248 7.841c.074.055.152.099.23.15l1.784-3.049.554.324-1.785 3.046a5.63 5.63 0 005.453-.223v1.526a6.988 6.988 0 01-2.939.647 6.922 6.922 0 01-4.088-1.33" fill="url(#bn)"/></g></g><path d="M530.155 363.296h3.98v6.547h-3.98z" fill="url(#bo)" transform="matrix(.62536 0 0 -.62538 -320.318 240.402)"/><g transform="matrix(.62536 0 0 -.62538 -320.318 240.402)" clip-path="url(#bp)"><path d="M534.134 363.296h-3.98v6.546h3.98z" fill="none" stroke="#4f4c4d" stroke-width=".44" stroke-miterlimit="10"/></g><path d="M530.528 363.67h3.231v5.798h-3.231z" fill="url(#bq)" transform="matrix(.62536 0 0 -.62538 -320.318 240.402)"/><path d="M530.611 362.704h3.067v.592h-3.067z" fill="url(#br)" transform="matrix(.62536 0 0 -.62538 -320.318 240.402)"/><g transform="matrix(.62536 0 0 -.62538 -320.318 240.402)" clip-path="url(#bs)"><path d="M533.678 363.296h-3.068v-.592h3.068z" fill="none" stroke="#4f4c4d" stroke-width=".44" stroke-miterlimit="10"/></g><path d="M531.035 369.842h2.253v12.125h-2.253z" fill="url(#bt)" transform="matrix(.62536 0 0 -.62538 -320.318 240.402)"/><g transform="matrix(.62536 0 0 -.62538 -320.318 240.402)" clip-path="url(#bu)"><path d="M533.289 369.842h-2.253v12.125h2.253z" fill="none" stroke="#4f4c4d" stroke-width=".44" stroke-miterlimit="10"/></g><path d="M520.132 370.948l9.268-4.285a2.756 2.756 0 012.744-3.024 2.757 2.757 0 110 5.513c-.72 0-1.374-.275-1.866-.727l-9.321 4.31z" fill="url(#bv)" transform="matrix(.62536 0 0 -.62538 -320.318 240.402)"/><g transform="matrix(.62536 0 0 -.62538 -320.318 240.402)" clip-path="url(#bw)"><path d="M532.144 369.152c-.72 0-1.375-.276-1.866-.728l-9.32 4.31-.827-1.785 9.27-4.287a2.757 2.757 0 112.744 2.49z" fill="none" stroke="#4f4c4d" stroke-width=".44" stroke-miterlimit="10"/></g><path d="M520.628 371.131l9.169-4.24-.025-.263a2.385 2.385 0 012.372-2.616 2.386 2.386 0 012.384 2.383 2.387 2.387 0 01-2.384 2.384 2.372 2.372 0 01-1.612-.63l-.185-.17-9.207 4.259z" fill="url(#bx)" transform="matrix(.62536 0 0 -.62538 -320.318 240.402)"/><path d="M517.01 371.072c0-1.114.541-2.102 1.376-2.714v-8.692h3.979v8.692a3.365 3.365 0 01-1.99 6.079 3.366 3.366 0 01-3.365-3.365" fill="url(#by)" transform="matrix(.62536 0 0 -.62538 -320.318 240.402)"/><g transform="matrix(.62536 0 0 -.62538 -320.318 240.402)" clip-path="url(#bz)"><path d="M523.741 371.072a3.365 3.365 0 11-5.356-2.713v-8.693h3.981v8.693a3.357 3.357 0 011.375 2.713z" fill="none" stroke="#4f4c4d" stroke-width=".44" stroke-miterlimit="10"/></g><path d="M517.385 371.072c0-.948.456-1.85 1.222-2.412l.152-.112v-8.508h3.232v8.508l.153.112a3.003 3.003 0 011.223 2.412 2.995 2.995 0 01-2.992 2.99 2.994 2.994 0 01-2.99-2.99" fill="url(#bA)" transform="matrix(.62536 0 0 -.62538 -320.318 240.402)"/><path d="M517.727 357.364v-12.323c.684-.305 1.521-.491 2.544-.491h2.752v12.814z" fill="url(#bB)" transform="matrix(.62536 0 0 -.62538 -320.318 240.402)"/><g transform="matrix(.62536 0 0 -.62538 -320.318 240.402)" clip-path="url(#bC)"><path d="M523.024 344.55h-5.297v12.814h5.297z" fill="none" stroke="#4f4c4d" stroke-width=".44" stroke-miterlimit="10"/></g><path d="M518.102 344.923h4.548v12.066h-4.548z" fill="url(#bD)" transform="matrix(.62536 0 0 -.62538 -320.318 240.402)"/><path d="M517.727 358.793h5.297v.873h-5.297z" fill="url(#bE)" transform="matrix(.62536 0 0 -.62538 -320.318 240.402)"/><g transform="matrix(.62536 0 0 -.62538 -320.318 240.402)" clip-path="url(#bF)"><path d="M523.024 358.793h-5.297v.873h5.297z" fill="none" stroke="#4f4c4d" stroke-width=".22" stroke-miterlimit="10"/></g><path d="M517.516 357.364h5.719v1.429h-5.719z" fill="url(#bG)" transform="matrix(.62536 0 0 -.62538 -320.318 240.402)"/><g transform="matrix(.62536 0 0 -.62538 -320.318 240.402)" clip-path="url(#bH)"><path d="M523.235 358.793h-5.718v-1.429h5.718z" fill="none" stroke="#4f4c4d" stroke-width=".44" stroke-miterlimit="10"/></g><path d="M518.605 371.072a1.77 1.77 0 113.541 0 1.77 1.77 0 11-3.541 0" fill="url(#bI)" transform="matrix(.62536 0 0 -.62538 -320.318 240.402)"/><g transform="matrix(.62536 0 0 -.62538 -320.318 240.402)" clip-path="url(#bJ)"><path d="M518.605 371.072a1.77 1.77 0 103.541 0 1.771 1.771 0 00-3.54 0z" fill="none" stroke="#4f4c4d" stroke-width=".44" stroke-miterlimit="10"/></g><path d="M518.98 371.072a1.396 1.396 0 112.791 0c0 .769-.625 1.396-1.396 1.396a1.398 1.398 0 01-1.395-1.396" fill="url(#bK)" transform="matrix(.62536 0 0 -.62538 -320.318 240.402)"/><path d="M530.519 366.395a1.624 1.624 0 013.25 0 1.625 1.625 0 11-3.25 0" fill="url(#bL)" transform="matrix(.62536 0 0 -.62538 -320.318 240.402)"/><g transform="matrix(.62536 0 0 -.62538 -320.318 240.402)" clip-path="url(#bM)"><path d="M530.52 366.395a1.624 1.624 0 103.248.001 1.624 1.624 0 00-3.248 0z" fill="none" stroke="#4f4c4d" stroke-width=".44" stroke-miterlimit="10"/></g><path d="M530.894 366.395c0-.689.56-1.251 1.25-1.251.689 0 1.251.562 1.251 1.251a1.251 1.251 0 01-2.501 0" fill="url(#bN)" transform="matrix(.62536 0 0 -.62538 -320.318 240.402)"/><g transform="matrix(.62536 0 0 -.62538 -320.318 240.402)" clip-path="url(#bO)"><g mask="url(#bP)"><path d="M518.076 356.99v-6.105s1.141 5.948 4.111 6.105z" fill="url(#bQ)"/></g></g><g transform="matrix(.62536 0 0 -.62538 -320.318 240.402)" clip-path="url(#bR)"><g mask="url(#bS)"><path d="M517.605 371.072a2.772 2.772 0 015.542 0 2.77 2.77 0 01-2.772 2.77 2.77 2.77 0 01-2.77-2.77m.654 0a2.117 2.117 0 004.234 0 2.117 2.117 0 10-4.234 0" fill="url(#bT)"/></g></g><g transform="matrix(.62536 0 0 -.62538 -320.318 240.402)" clip-path="url(#bU)"><g mask="url(#bV)"><path d="M519.383 371.072c0-.547.445-.993.992-.993a.993.993 0 010 1.985.993.993 0 01-.992-.992" fill="url(#bW)"/></g></g><g transform="matrix(.62536 0 0 -.62538 -320.318 240.402)" clip-path="url(#bX)"><g mask="url(#bY)"><path d="M531.359 366.395a.785.785 0 011.57 0 .786.786 0 01-.785.786.787.787 0 01-.785-.786" fill="url(#bZ)"/></g></g><g transform="matrix(.62536 0 0 -.62538 -320.318 240.402)" clip-path="url(#ca)"><g mask="url(#cb)"><path d="M531.359 381.641v-11.562h.5v11.562z" fill="url(#cc)"/></g></g><path d="M5.087 1.53s-3.51 0-3.51 3.51v16.38s0 3.509 3.51 3.509h16.38s3.51 0 3.51-3.51V5.04s0-3.51-3.51-3.51z" fill="none" stroke="#231f20" stroke-width=".413"/></svg>