<svg xmlns="http://www.w3.org/2000/svg" width="100" height="100" viewBox="0 0 26.458 26.458"><defs><clipPath clipPathUnits="userSpaceOnUse" id="bi"><path d="M519.571 215.564l1.976-.401 1.202 5.895-1.977.402z"/></clipPath><clipPath clipPathUnits="userSpaceOnUse" id="Y"><path d="M526.375 209.84h23.627v21.127h-23.627z"/></clipPath><clipPath clipPathUnits="userSpaceOnUse" id="W"><path d="M520.102 247.258c-.936-.054-5.443-.576-5.443-5.606v-26.196c.001-.17.087-5.608 5.612-5.608h26.192s5.612 0 5.612 5.612v26.192s0 5.396-5.291 5.606z"/></clipPath><clipPath clipPathUnits="userSpaceOnUse" id="N"><path d="M520.102 247.258c-.936-.054-5.443-.576-5.443-5.606v-26.196c.001-.17.087-5.608 5.612-5.608h26.192s5.612 0 5.612 5.612v26.192s0 5.396-5.291 5.606z"/></clipPath><clipPath clipPathUnits="userSpaceOnUse" id="P"><path d="M525.715 231.628v-21.78h20.748s2.537 0 4.199 1.705v20.075z"/></clipPath><clipPath clipPathUnits="userSpaceOnUse" id="Q"><path d="M520.102 247.258c-.936-.054-5.443-.576-5.443-5.606v-26.196c.001-.17.087-5.608 5.612-5.608h26.192s5.612 0 5.612 5.612v26.192s0 5.396-5.291 5.606z"/></clipPath><clipPath clipPathUnits="userSpaceOnUse" id="R"><path d="M526.927 223.384h25.148v13.112h-25.148z"/></clipPath><clipPath clipPathUnits="userSpaceOnUse" id="S"><path d="M520.102 247.258c-.936-.054-5.443-.576-5.443-5.606v-26.196c.001-.17.087-5.608 5.612-5.608h26.192s5.612 0 5.612 5.612v26.192s0 5.396-5.291 5.606z"/></clipPath><clipPath clipPathUnits="userSpaceOnUse" id="T"><path d="M526.155 231.187v-21.339h20.308s2.125 0 3.759 1.306v20.033z"/></clipPath><clipPath clipPathUnits="userSpaceOnUse" id="U"><path d="M520.102 247.258c-.936-.054-5.443-.576-5.443-5.606v-26.196c.001-.17.087-5.608 5.612-5.608h26.192s5.612 0 5.612 5.612v26.192s0 5.396-5.291 5.606z"/></clipPath><clipPath clipPathUnits="userSpaceOnUse" id="V"><path d="M527.368 223.824h24.488v12.232h-24.488z"/></clipPath><clipPath clipPathUnits="userSpaceOnUse" id="Z"><path d="M527.891 224.043l10.308-5.802 10.597 5.802-11.801 5.272z"/></clipPath><clipPath clipPathUnits="userSpaceOnUse" id="ad"><path d="M527.588 224.044h24.048v11.792h-24.048z"/></clipPath><clipPath clipPathUnits="userSpaceOnUse" id="ac"><path d="M527.588 235.836h24.048v-11.792h-24.048z"/></clipPath><clipPath clipPathUnits="userSpaceOnUse" id="ab"><path d="M520.102 247.258c-.936-.054-5.443-.576-5.443-5.606v-26.196c.001-.17.087-5.608 5.612-5.608h26.192s5.612 0 5.612 5.612v26.192s0 5.396-5.291 5.606z"/></clipPath><clipPath clipPathUnits="userSpaceOnUse" id="n"><path d="M532.494 220.401l14.421 8.325 8.706-15.079-14.42-8.326z"/></clipPath><clipPath clipPathUnits="userSpaceOnUse" id="m"><path d="M-13903.2 14627.2H14932V-14208h-28835.2z"/></clipPath><clipPath clipPathUnits="userSpaceOnUse" id="ae"><path d="M538.343 217.029v-6.758c.001 6.699 11.357 13.464 11.429 13.507z"/></clipPath><clipPath clipPathUnits="userSpaceOnUse" id="F"><path d="M544.829 233.616l7.105-7.104-7.105-7.105-7.104 7.105z"/></clipPath><clipPath clipPathUnits="userSpaceOnUse" id="E"><path d="M-32768 32767h65535v-65535h-65535z"/></clipPath><clipPath clipPathUnits="userSpaceOnUse" id="ah"><path d="M539.887 224.415l9.885-.065s-9.846.143-8.362 4.324z"/></clipPath><clipPath clipPathUnits="userSpaceOnUse" id="L"><path d="M533.696 241.2l11.237-11.237-11.237-11.236-11.236 11.236z"/></clipPath><clipPath clipPathUnits="userSpaceOnUse" id="K"><path d="M-13903.2 14627.2H14932V-14208h-28835.2z"/></clipPath><clipPath clipPathUnits="userSpaceOnUse" id="ak"><path d="M529.433 235.339l.021.055-.021-.055m-1.542-4.125l11.534-6.638c-1 .58-11.438 6.743-9.992 10.763zm11.61-6.682l-.076.044a5.1 5.1 0 00.076-.044"/></clipPath><clipPath clipPathUnits="userSpaceOnUse" id="an"><path d="M531.1 218.343l-2.115 1.221-.005-1.513 2.116-1.221-.007-2.434 1.318-.76.007 2.432 2.12-1.225.005 1.513-2.122 1.226.008 2.437-1.318.762z"/></clipPath><clipPath clipPathUnits="userSpaceOnUse" id="ap"><path d="M520.102 247.258c-.936-.054-5.443-.576-5.443-5.606v-26.196c.001-.17.087-5.608 5.612-5.608h26.192s5.612 0 5.612 5.612v26.192s0 5.396-5.291 5.606z"/></clipPath><clipPath clipPathUnits="userSpaceOnUse" id="aq"><path d="M536.663 234.469l2.469-1.605-3.108-.223 1.794-1.04 2.549.182 2.238-1.442 1.925.114-2.561 1.573 3.259.257-1.849 1.023-2.595-.214-2.239 1.44z"/></clipPath><clipPath clipPathUnits="userSpaceOnUse" id="as"><path d="M520.102 247.258c-.936-.054-5.443-.576-5.443-5.606v-26.196c.001-.17.087-5.608 5.612-5.608h26.192s5.612 0 5.612 5.612v26.192s0 5.396-5.291 5.606z"/></clipPath><clipPath clipPathUnits="userSpaceOnUse" id="at"><path d="M534.388 224.811l-.774.436-.479-.282.774-.438-.771-.458.482-.271.771.456.775-.438.479.284-.776.437.768.457-.482.272z"/></clipPath><clipPath clipPathUnits="userSpaceOnUse" id="av"><path d="M520.102 247.258c-.936-.054-5.443-.576-5.443-5.606v-26.196c.001-.17.087-5.608 5.612-5.608h26.192s5.612 0 5.612 5.612v26.192s0 5.396-5.291 5.606z"/></clipPath><clipPath clipPathUnits="userSpaceOnUse" id="e"><path d="M532.189 228.029l8.572-8.572-8.572-8.572-8.572 8.572z"/></clipPath><clipPath clipPathUnits="userSpaceOnUse" id="d"><path d="M-13903.2 14627.2H14932V-14208h-28835.2z"/></clipPath><clipPath clipPathUnits="userSpaceOnUse" id="aw"><path d="M526.757 216.317c0 6.28 10.863 0 10.863 0l-10.863 6.261z"/></clipPath><clipPath clipPathUnits="userSpaceOnUse" id="I"><path d="M537.953 225.778l5.184-5.185-5.184-5.184-5.185 5.184z"/></clipPath><clipPath clipPathUnits="userSpaceOnUse" id="H"><path d="M-32768 32767h65535v-65535h-65535z"/></clipPath><clipPath clipPathUnits="userSpaceOnUse" id="az"><path d="M537.112 222.578c-1.133-.117-1.719-.469-1.914-.859-.195-.391-.43-.755-.351-1.195l3.352-1.931 2.704 1.445s.234.782 0 1.447c-.214.603-2.231 1.109-3.449 1.109-.123 0-.238-.005-.342-.016"/></clipPath><clipPath clipPathUnits="userSpaceOnUse" id="C"><path d="M541.352 227.189l4.905-4.905-4.905-4.905-4.905 4.905z"/></clipPath><clipPath clipPathUnits="userSpaceOnUse" id="B"><path d="M-32768 32767h65535v-65535h-65535z"/></clipPath><clipPath clipPathUnits="userSpaceOnUse" id="aC"><path d="M538.597 222.773s2.872.074 2.588-2.249l3.312 1.585s-.937 1.54-1.875 1.669h-3.121l-.514.265s-.781-.41-.39-1.27"/></clipPath><clipPath clipPathUnits="userSpaceOnUse" id="z"><path d="M545.494 225.868l2.837-2.837-2.837-2.837-2.837 2.837z"/></clipPath><clipPath clipPathUnits="userSpaceOnUse" id="y"><path d="M-13903.2 14627.2H14932V-14208h-28835.2z"/></clipPath><clipPath clipPathUnits="userSpaceOnUse" id="aF"><path d="M543.404 223.778l-.001-.001c.03-.021 1.454-1.05 1.407-1.493l2.774 1.493-.001.001z"/></clipPath><clipPath clipPathUnits="userSpaceOnUse" id="w"><path d="M538.421 225.082l3.821-3.821-3.821-3.821-3.821 3.821z"/></clipPath><clipPath clipPathUnits="userSpaceOnUse" id="v"><path d="M-32768 32767h65535v-65535h-65535z"/></clipPath><clipPath clipPathUnits="userSpaceOnUse" id="aI"><path d="M536.878 222.284c0-.37-.117-.704.742-.987.86-.282.86-.595 1.329-.36 0 0-2.754 1.125-1.642 1.133 0 0 2.341-.449 2.814-.773 0 0 .252-.759-1.406-.773 0 0-1.876-.172-2.619 1.195 0 0 .137.495.412.558-.182-.025-.737-.135-.802-.558 0 0 .766-1.407 2.493-1.485 1.727-.079 2.938.819 2.254 1.133-.543.248-2.483.915-3.254.992a1.29 1.29 0 01-.131.008c-.121 0-.19-.026-.19-.083m-.37-.007l.058.007a.27.27 0 01-.058-.007"/></clipPath><clipPath clipPathUnits="userSpaceOnUse" id="b"><path d="M541.723 226.356l3.63-3.63-3.63-3.63-3.63 3.63z"/></clipPath><clipPath clipPathUnits="userSpaceOnUse" id="a"><path d="M-32768 32767h65535v-65535h-65535z"/></clipPath><clipPath clipPathUnits="userSpaceOnUse" id="aL"><path d="M542.035 223.711s2.266-.792 1.368-1.117c0 0-1.722-.92-3.902 1.184h-.356l-.001-.001c.023-.023 1.304-1.359 2.97-1.493 1.679-.135 1.859.563 1.674.747-.184.184-1.323.747-1.323.747z"/></clipPath><clipPath clipPathUnits="userSpaceOnUse" id="q"><path d="M541.742 225.438l2.495-2.495-2.495-2.494-2.494 2.494z"/></clipPath><clipPath clipPathUnits="userSpaceOnUse" id="p"><path d="M-13903.2 14627.2H14932V-14208h-28835.2z"/></clipPath><clipPath clipPathUnits="userSpaceOnUse" id="aO"><path d="M540.082 223.778s1.68-1.669 3.321-1.005c0 0-1.212.782-1.661.782 0 0 1.214-.593.801-.742 0 0-1.683.331-1.896.965z"/></clipPath><clipPath clipPathUnits="userSpaceOnUse" id="k"><path d="M534.182 231.213l7.483-7.482-7.483-7.483-7.483 7.483z"/></clipPath><clipPath clipPathUnits="userSpaceOnUse" id="j"><path d="M-32768 32767h65535v-65535h-65535z"/></clipPath><clipPath clipPathUnits="userSpaceOnUse" id="aR"><path d="M530.509 224.532c-.86-.47-.736-1.146-.736-1.146l4.614-2.605c.838 2.561 3.812 2.071 3.812 2.071-.238.339.516 1.279.516 1.279l-4.328 2.549z"/></clipPath><clipPath clipPathUnits="userSpaceOnUse" id="aU"><path d="M520.102 247.258c-.936-.054-5.443-.576-5.443-5.606v-26.196c.001-.17.087-5.608 5.612-5.608h26.192s5.612 0 5.612 5.612v26.192s0 5.396-5.291 5.606z"/></clipPath><clipPath clipPathUnits="userSpaceOnUse" id="aV"><path d="M521.34 228.902l3.772-.768.205 1.005-3.772.768z"/></clipPath><clipPath clipPathUnits="userSpaceOnUse" id="aX"><path d="M520.102 247.258c-.936-.054-5.443-.576-5.443-5.606v-26.196c.001-.17.087-5.608 5.612-5.608h26.192s5.612 0 5.612 5.612v26.192s0 5.396-5.291 5.606z"/></clipPath><clipPath clipPathUnits="userSpaceOnUse" id="aY"><path d="M521.198 223.43l1.976-.403 1.077 5.281-1.977.404z"/></clipPath><clipPath clipPathUnits="userSpaceOnUse" id="ba"><path d="M520.102 247.258c-.936-.054-5.443-.576-5.443-5.606v-26.196c.001-.17.087-5.608 5.612-5.608h26.192s5.612 0 5.612 5.612v26.192s0 5.396-5.291 5.606z"/></clipPath><clipPath clipPathUnits="userSpaceOnUse" id="h"><path d="M520.195 238.421l9.649-1.966-3.186-15.642-9.649 1.965z"/></clipPath><clipPath clipPathUnits="userSpaceOnUse" id="g"><path d="M-13903.2 14627.2H14932V-14208h-28835.2z"/></clipPath><clipPath clipPathUnits="userSpaceOnUse" id="bb"><path d="M519.916 223.034l4.167-.848 2.854 14.012-4.167.849z"/></clipPath><clipPath clipPathUnits="userSpaceOnUse" id="be"><path d="M520.102 247.258c-.936-.054-5.443-.576-5.443-5.606v-26.196c.001-.17.087-5.608 5.612-5.608h26.192s5.612 0 5.612 5.612v26.192s0 5.396-5.291 5.606z"/></clipPath><clipPath clipPathUnits="userSpaceOnUse" id="bf"><path d="M516.866 223.539c-.091-.151-.023-.344.108-.59l.011-.023.017-.019c.032-.036.797-.89 1.989-.89.033 0 .066 0 .099.002l-.028-.138 5.39-1.098.024.119c.314-.132.652-.2 1.01-.2.657 0 1.145.23 1.166.24l.023.011.02.016c.194.157.393.341.316.554-.024.072-.102.194-.336.194-.13 0-.276-.036-.28-.037a2.177 2.177 0 00-.411-.041c-.624 0-1.051.295-1.26.484l.034.169-5.254 1.07-.072-.04a1.817 1.817 0 00-.808-.184c-.383 0-.752.117-1.086.341-.096.071-.278.192-.431.192a.274.274 0 01-.241-.132"/></clipPath><clipPath clipPathUnits="userSpaceOnUse" id="bh"><path d="M520.102 247.258c-.936-.054-5.443-.576-5.443-5.606v-26.196c.001-.17.087-5.608 5.612-5.608h26.192s5.612 0 5.612 5.612v26.192s0 5.396-5.291 5.606z"/></clipPath><clipPath clipPathUnits="userSpaceOnUse" id="X"><path d="M526.375 230.967h23.627V209.84h-23.627z"/></clipPath><clipPath clipPathUnits="userSpaceOnUse" id="bk"><path d="M520.102 247.258c-.936-.054-5.443-.576-5.443-5.606v-26.196c.001-.17.087-5.608 5.612-5.608h26.192s5.612 0 5.612 5.612v26.192s0 5.396-5.291 5.606z"/></clipPath><clipPath clipPathUnits="userSpaceOnUse" id="bl"><path d="M517.763 214.4s.932.353 2.585.016c1.653-.337 2.373-1.026 2.373-1.026l.3 1.472-4.959 1.01z"/></clipPath><clipPath clipPathUnits="userSpaceOnUse" id="bn"><path d="M520.102 247.258c-.936-.054-5.443-.576-5.443-5.606v-26.196c.001-.17.087-5.608 5.612-5.608h26.192s5.612 0 5.612 5.612v26.192s0 5.396-5.291 5.606z"/></clipPath><clipPath clipPathUnits="userSpaceOnUse" id="bo"><path d="M522.754 237.069l4.168-.849.22 1.079-4.168.849z"/></clipPath><clipPath clipPathUnits="userSpaceOnUse" id="bq"><path d="M520.102 247.258c-.936-.054-5.443-.576-5.443-5.606v-26.196c.001-.17.087-5.608 5.612-5.608h26.192s5.612 0 5.612 5.612v26.192s0 5.396-5.291 5.606z"/></clipPath><clipPath clipPathUnits="userSpaceOnUse" id="br"><path d="M524.291 237.88l1.51-.308.329 1.617-1.509.307z"/></clipPath><clipPath clipPathUnits="userSpaceOnUse" id="bt"><path d="M520.102 247.258c-.936-.054-5.443-.576-5.443-5.606v-26.196c.001-.17.087-5.608 5.612-5.608h26.192s5.612 0 5.612 5.612v26.192s0 5.396-5.291 5.606z"/></clipPath><clipPath clipPathUnits="userSpaceOnUse" id="bu"><path d="M525.016 239.416l.826-.168.9 4.419-.518 1.677z"/></clipPath><clipPath clipPathUnits="userSpaceOnUse" id="bw"><path d="M520.102 247.258c-.936-.054-5.443-.576-5.443-5.606v-26.196c.001-.17.087-5.608 5.612-5.608h26.192s5.612 0 5.612 5.612v26.192s0 5.396-5.291 5.606z"/></clipPath><clipPath clipPathUnits="userSpaceOnUse" id="t"><path d="M521.195 237.174l7.254-1.478-2.571-12.621-7.254 1.478z"/></clipPath><clipPath clipPathUnits="userSpaceOnUse" id="s"><path d="M-13903.2 14627.2H14932V-14208h-28835.2z"/></clipPath><clipPath clipPathUnits="userSpaceOnUse" id="bx"><path d="M520.992 224.07c2.459 12.075 5.089 11.574 5.089 11.574l-2.622.535z"/></clipPath><linearGradient x1="0" y1="0" x2="1" y2="0" gradientUnits="userSpaceOnUse" gradientTransform="scale(2.95623 -2.95623) rotate(45 183.874 184.282)" spreadMethod="pad" id="A"><stop offset="0" stop-opacity=".5" stop-color="#fff"/><stop offset="1" stop-opacity="0" stop-color="#fff"/></linearGradient><linearGradient x1="0" y1="0" x2="1" y2="0" gradientUnits="userSpaceOnUse" gradientTransform="rotate(-45 555.777 -497.623) scale(52.91605)" spreadMethod="pad" id="O"><stop offset="0" stop-color="#231f20"/><stop offset=".394" stop-color="#231f20"/><stop offset="1" stop-color="#14341c"/></linearGradient><linearGradient x1="0" y1="0" x2="1" y2="0" gradientUnits="userSpaceOnUse" gradientTransform="scale(16.65155 -16.65155) rotate(-30 -7.734 -66.552)" spreadMethod="pad" id="ag"><stop offset="0" stop-color="#fff"/><stop offset="1" stop-color="#fff"/></linearGradient><linearGradient x1="0" y1="0" x2="1" y2="0" gradientUnits="userSpaceOnUse" gradientTransform="scale(16.65155 -16.65155) rotate(-30 -7.734 -66.552)" spreadMethod="pad" id="o"><stop offset="0" stop-opacity=".5" stop-color="#fff"/><stop offset="1" stop-opacity="0" stop-color="#fff"/></linearGradient><linearGradient x1="0" y1="0" x2="1" y2="0" gradientUnits="userSpaceOnUse" gradientTransform="scale(2.677 -2.677) rotate(11.513 523.896 924.557)" spreadMethod="pad" id="u"><stop offset="0" stop-color="#fff"/><stop offset="1" stop-opacity="0" stop-color="#fff"/></linearGradient><linearGradient x1="0" y1="0" x2="1" y2="0" gradientUnits="userSpaceOnUse" gradientTransform="scale(2.677 -2.677) rotate(11.513 523.896 924.557)" spreadMethod="pad" id="bz"><stop offset="0" stop-color="#fff"/><stop offset="1" stop-color="#fff"/></linearGradient><linearGradient x1="0" y1="0" x2="1" y2="0" gradientUnits="userSpaceOnUse" gradientTransform="scale(.8435 -.8435) rotate(11.513 1736.742 2946.913)" spreadMethod="pad" id="bv"><stop offset="0" stop-color="#fff"/><stop offset="1" stop-color="#bdbcbc"/></linearGradient><linearGradient x1="0" y1="0" x2="1" y2="0" gradientUnits="userSpaceOnUse" gradientTransform="scale(1.54002 -1.54002) rotate(11.513 938.983 1611.545)" spreadMethod="pad" id="bs"><stop offset="0" stop-color="#fff"/><stop offset="1" stop-color="#bdbcbc"/></linearGradient><linearGradient x1="0" y1="0" x2="1" y2="0" gradientUnits="userSpaceOnUse" gradientTransform="scale(4.25354 -4.25354) rotate(11.513 338.519 581.741)" spreadMethod="pad" id="bp"><stop offset="0" stop-color="#fff"/><stop offset="1" stop-color="#bdbcbc"/></linearGradient><linearGradient x1="0" y1="0" x2="1" y2="0" gradientUnits="userSpaceOnUse" gradientTransform="scale(5.06007 -5.06007) rotate(11.513 262.046 486.384)" spreadMethod="pad" id="bm"><stop offset="0" stop-color="#fff"/><stop offset="1" stop-color="#bdbcbc"/></linearGradient><linearGradient x1="0" y1="0" x2="1" y2="0" gradientUnits="userSpaceOnUse" gradientTransform="scale(2.01656 -2.01656) rotate(11.513 666.4 1225.17)" spreadMethod="pad" id="bj"><stop offset="0" stop-color="#fff"/><stop offset="1" stop-color="#bdbcbc"/></linearGradient><linearGradient x1="0" y1="0" x2="1" y2="0" gradientUnits="userSpaceOnUse" gradientTransform="matrix(10.20393 0 0 -10.20393 516.825 222.186)" spreadMethod="pad" id="bg"><stop offset="0" stop-color="#fff"/><stop offset="1" stop-color="#bdbcbc"/></linearGradient><linearGradient x1="0" y1="0" x2="1" y2="0" gradientUnits="userSpaceOnUse" gradientTransform="scale(4.2531 -4.2531) rotate(11.513 329.55 580.916)" spreadMethod="pad" id="i"><stop offset="0" stop-opacity=".5" stop-color="#fff"/><stop offset=".322" stop-opacity=".1" stop-color="#fff"/><stop offset="1" stop-opacity=".6" stop-color="#fff"/></linearGradient><linearGradient x1="0" y1="0" x2="1" y2="0" gradientUnits="userSpaceOnUse" gradientTransform="scale(4.2531 -4.2531) rotate(11.513 329.55 580.916)" spreadMethod="pad" id="bd"><stop offset="0" stop-color="#fff"/><stop offset=".322" stop-color="#fff"/><stop offset="1" stop-color="#fff"/></linearGradient><linearGradient x1="0" y1="0" x2="1" y2="0" gradientUnits="userSpaceOnUse" gradientTransform="matrix(1.97598 -.4025 -.4025 -1.97598 521.736 226.07)" spreadMethod="pad" id="aZ"><stop offset="0" stop-color="#fff"/><stop offset="1" stop-color="#bdbcbc"/></linearGradient><linearGradient x1="0" y1="0" x2="1" y2="0" gradientUnits="userSpaceOnUse" gradientTransform="matrix(3.7726 -.76843 -.76843 -3.7726 521.428 229.4)" spreadMethod="pad" id="aW"><stop offset="0" stop-color="#fff"/><stop offset="1" stop-color="#bdbcbc"/></linearGradient><linearGradient x1="0" y1="0" x2="1" y2="0" gradientUnits="userSpaceOnUse" gradientTransform="scale(6.70179 -6.70179) rotate(45 80.405 78.945)" spreadMethod="pad" id="l"><stop offset="0" stop-opacity=".7" stop-color="#fff"/><stop offset="1" stop-opacity="0" stop-color="#fff"/></linearGradient><linearGradient x1="0" y1="0" x2="1" y2="0" gradientUnits="userSpaceOnUse" gradientTransform="scale(6.70179 -6.70179) rotate(45 80.405 78.945)" spreadMethod="pad" id="aT"><stop offset="0" stop-color="#f4f4f4"/><stop offset="1" stop-color="#fff"/></linearGradient><linearGradient x1="0" y1="0" x2="1" y2="0" gradientUnits="userSpaceOnUse" gradientTransform="scale(3.0585 -3.0585) rotate(45 176.935 176.707)" spreadMethod="pad" id="r"><stop offset="0" stop-opacity=".7" stop-color="#fff"/><stop offset="1" stop-opacity="0" stop-color="#fff"/></linearGradient><linearGradient x1="0" y1="0" x2="1" y2="0" gradientUnits="userSpaceOnUse" gradientTransform="scale(3.0585 -3.0585) rotate(45 176.935 176.707)" spreadMethod="pad" id="aQ"><stop offset="0" stop-color="#f4f4f4"/><stop offset="1" stop-color="#fff"/></linearGradient><linearGradient x1="0" y1="0" x2="1" y2="0" gradientUnits="userSpaceOnUse" gradientTransform="scale(8.97009 -8.97009) rotate(45 60.868 60.077)" spreadMethod="pad" id="aj"><stop offset="0" stop-color="#fff"/><stop offset="1" stop-color="#fff"/></linearGradient><linearGradient x1="0" y1="0" x2="1" y2="0" gradientUnits="userSpaceOnUse" gradientTransform="scale(4.06825 -4.06825) rotate(45 133.07 132.638)" spreadMethod="pad" id="c"><stop offset="0" stop-opacity=".7" stop-color="#fff"/><stop offset="1" stop-opacity="0" stop-color="#fff"/></linearGradient><linearGradient x1="0" y1="0" x2="1" y2="0" gradientUnits="userSpaceOnUse" gradientTransform="scale(4.06825 -4.06825) rotate(45 133.07 132.638)" spreadMethod="pad" id="aN"><stop offset="0" stop-color="#f4f4f4"/><stop offset="1" stop-color="#fff"/></linearGradient><linearGradient x1="0" y1="0" x2="1" y2="0" gradientUnits="userSpaceOnUse" gradientTransform="scale(8.97009 -8.97009) rotate(45 60.868 60.077)" spreadMethod="pad" id="G"><stop offset="0" stop-opacity=".2" stop-color="#fff"/><stop offset="1" stop-opacity="0" stop-color="#fff"/></linearGradient><linearGradient x1="0" y1="0" x2="1" y2="0" gradientUnits="userSpaceOnUse" gradientTransform="scale(4.09704 -4.09704) rotate(45 131.163 130.934)" spreadMethod="pad" id="x"><stop offset="0" stop-opacity=".7" stop-color="#fff"/><stop offset="1" stop-opacity="0" stop-color="#fff"/></linearGradient><linearGradient x1="0" y1="0" x2="1" y2="0" gradientUnits="userSpaceOnUse" gradientTransform="scale(4.09704 -4.09704) rotate(45 131.163 130.934)" spreadMethod="pad" id="aK"><stop offset="0" stop-color="#f4f4f4"/><stop offset="1" stop-color="#fff"/></linearGradient><linearGradient x1="0" y1="0" x2="1" y2="0" gradientUnits="userSpaceOnUse" gradientTransform="scale(14.78157 -14.78157) rotate(-45 .164 -50.938)" spreadMethod="pad" id="aa"><stop offset="0" stop-color="#7b7979"/><stop offset="1" stop-color="#231f20"/></linearGradient><linearGradient x1="0" y1="0" x2="1" y2="0" gradientUnits="userSpaceOnUse" gradientTransform="scale(2.95623 -2.95623) rotate(45 183.874 184.282)" spreadMethod="pad" id="aH"><stop offset="0" stop-color="#f4f4f4"/><stop offset="1" stop-color="#fff"/></linearGradient><linearGradient x1="0" y1="0" x2="1" y2="0" gradientUnits="userSpaceOnUse" gradientTransform="scale(5.29973 -5.29973) rotate(45 102.055 101.69)" spreadMethod="pad" id="D"><stop offset="0" stop-opacity=".7" stop-color="#fff"/><stop offset="1" stop-opacity="0" stop-color="#fff"/></linearGradient><linearGradient x1="0" y1="0" x2="1" y2="0" gradientUnits="userSpaceOnUse" gradientTransform="scale(5.29973 -5.29973) rotate(45 102.055 101.69)" spreadMethod="pad" id="aE"><stop offset="0" stop-color="#f4f4f4"/><stop offset="1" stop-color="#fff"/></linearGradient><linearGradient x1="0" y1="0" x2="1" y2="0" gradientUnits="userSpaceOnUse" gradientTransform="scale(5.26664 -5.26664) rotate(45 101.955 101.74)" spreadMethod="pad" id="J"><stop offset="0" stop-color="#fff"/><stop offset="1" stop-opacity="0" stop-color="#fff"/></linearGradient><linearGradient x1="0" y1="0" x2="1" y2="0" gradientUnits="userSpaceOnUse" gradientTransform="scale(5.26664 -5.26664) rotate(45 101.955 101.74)" spreadMethod="pad" id="aB"><stop offset="0" stop-color="#f4f4f4"/><stop offset="1" stop-color="#fff"/></linearGradient><linearGradient x1="0" y1="0" x2="1" y2="0" gradientUnits="userSpaceOnUse" gradientTransform="scale(14.78587 -14.78587) rotate(45 36.956 35.195)" spreadMethod="pad" id="am"><stop offset="0" stop-color="#fff"/><stop offset="1" stop-color="#fff"/></linearGradient><linearGradient x1="0" y1="0" x2="1" y2="0" gradientUnits="userSpaceOnUse" gradientTransform="scale(12.1085 -12.1085) rotate(45 43.882 43.298)" spreadMethod="pad" id="f"><stop offset="0" stop-color="#fff"/><stop offset="1" stop-opacity="0" stop-color="#fff"/></linearGradient><linearGradient x1="0" y1="0" x2="1" y2="0" gradientUnits="userSpaceOnUse" gradientTransform="scale(12.1085 -12.1085) rotate(45 43.882 43.298)" spreadMethod="pad" id="ay"><stop offset="0" stop-color="#fff"/><stop offset="1" stop-color="#fff"/></linearGradient><linearGradient x1="0" y1="0" x2="1" y2="0" gradientUnits="userSpaceOnUse" gradientTransform="matrix(-.9955 -1.77242 -1.77242 .9955 534.884 225.414)" spreadMethod="pad" id="au"><stop offset="0" stop-color="#ed1c24"/><stop offset="1" stop-color="#730b0e"/></linearGradient><linearGradient x1="0" y1="0" x2="1" y2="0" gradientUnits="userSpaceOnUse" gradientTransform="matrix(-3.97923 -3.41442 -5.5596 4.01315 542.6 234.181)" spreadMethod="pad" id="ar"><stop offset="0" stop-color="#ed1c24"/><stop offset="1" stop-color="#730b0e"/></linearGradient><linearGradient x1="0" y1="0" x2="1" y2="0" gradientUnits="userSpaceOnUse" gradientTransform="matrix(5.5584 0 0 -5.5584 528.98 217.208)" spreadMethod="pad" id="ao"><stop offset="0" stop-color="#ed1c24"/><stop offset="1" stop-color="#ca171e"/></linearGradient><linearGradient x1="0" y1="0" x2="1" y2="0" gradientUnits="userSpaceOnUse" gradientTransform="scale(14.78586 -14.78586) rotate(45 36.956 35.195)" spreadMethod="pad" id="M"><stop offset="0" stop-color="#fff"/><stop offset="1" stop-opacity="0" stop-color="#fff"/></linearGradient><mask maskUnits="userSpaceOnUse" x="0" y="0" width="1" height="1" id="by"><g clip-path="url(#s)"><g clip-path="url(#t)"><path d="M521.195 237.174l7.254-1.478-2.571-12.621-7.254 1.478z" fill="url(#u)"/></g></g></mask><mask maskUnits="userSpaceOnUse" x="0" y="0" width="1" height="1" id="aM"><g clip-path="url(#a)"><g clip-path="url(#b)"><path d="M541.723 226.356l3.63-3.63-3.63-3.63-3.63 3.63z" fill="url(#c)"/></g></g></mask><mask maskUnits="userSpaceOnUse" x="0" y="0" width="1" height="1" id="bc"><g clip-path="url(#g)"><g clip-path="url(#h)"><path d="M520.195 238.421l9.649-1.966-3.186-15.642-9.649 1.965z" fill="url(#i)"/></g></g></mask><mask maskUnits="userSpaceOnUse" x="0" y="0" width="1" height="1" id="aS"><g clip-path="url(#j)"><g clip-path="url(#k)"><path d="M534.182 231.213l7.483-7.482-7.483-7.483-7.483 7.483z" fill="url(#l)"/></g></g></mask><mask maskUnits="userSpaceOnUse" x="0" y="0" width="1" height="1" id="af"><g clip-path="url(#m)"><g clip-path="url(#n)"><path d="M532.494 220.401l14.421 8.325 8.706-15.079-14.42-8.326z" fill="url(#o)"/></g></g></mask><mask maskUnits="userSpaceOnUse" x="0" y="0" width="1" height="1" id="aP"><g clip-path="url(#p)"><g clip-path="url(#q)"><path d="M541.742 225.438l2.495-2.495-2.495-2.494-2.494 2.494z" fill="url(#r)"/></g></g></mask><mask maskUnits="userSpaceOnUse" x="0" y="0" width="1" height="1" id="ax"><g clip-path="url(#d)"><g clip-path="url(#e)"><path d="M532.189 228.029l8.572-8.572-8.572-8.572-8.572 8.572z" fill="url(#f)"/></g></g></mask><mask maskUnits="userSpaceOnUse" x="0" y="0" width="1" height="1" id="aJ"><g clip-path="url(#v)"><g clip-path="url(#w)"><path d="M538.421 225.082l3.821-3.821-3.821-3.821-3.821 3.821z" fill="url(#x)"/></g></g></mask><mask maskUnits="userSpaceOnUse" x="0" y="0" width="1" height="1" id="aG"><g clip-path="url(#y)"><g clip-path="url(#z)"><path d="M545.494 225.868l2.837-2.837-2.837-2.837-2.837 2.837z" fill="url(#A)"/></g></g></mask><mask maskUnits="userSpaceOnUse" x="0" y="0" width="1" height="1" id="aD"><g clip-path="url(#B)"><g clip-path="url(#C)"><path d="M541.352 227.189l4.905-4.905-4.905-4.905-4.905 4.905z" fill="url(#D)"/></g></g></mask><mask maskUnits="userSpaceOnUse" x="0" y="0" width="1" height="1" id="ai"><g clip-path="url(#E)"><g clip-path="url(#F)"><path d="M544.829 233.616l7.105-7.104-7.105-7.105-7.104 7.105z" fill="url(#G)"/></g></g></mask><mask maskUnits="userSpaceOnUse" x="0" y="0" width="1" height="1" id="aA"><g clip-path="url(#H)"><g clip-path="url(#I)"><path d="M537.953 225.778l5.184-5.185-5.184-5.184-5.185 5.184z" fill="url(#J)"/></g></g></mask><mask maskUnits="userSpaceOnUse" x="0" y="0" width="1" height="1" id="al"><g clip-path="url(#K)"><g clip-path="url(#L)"><path d="M533.696 241.2l11.237-11.237-11.237-11.236-11.236 11.236z" fill="url(#M)"/></g></g></mask></defs><g clip-path="url(#N)" transform="matrix(.62536 0 0 -.62538 -320.318 156.162)"><path d="M520.102 247.258c-.936-.054-5.443-.576-5.443-5.606v-26.196c.001-.17.087-5.608 5.612-5.608h26.192s5.612 0 5.612 5.612v26.192s0 5.396-5.291 5.606z" fill="url(#O)"/><path d="M522.575 244.733l-1.694-7.676-1.535 1.826h-9.017v.433h9.218l1.1-1.307 1.795 8.132 4.216-9.814 1.594 3.025h1.043l.11.006h9.109l1.099-1.308 1.795 8.133 4.218-9.815 1.594 3.025h7.361v-.433h-7.1l-1.896-3.598-4.043 9.412-1.695-7.676-1.534 1.826h-2.699l-.11-.006h-6.99l-1.895-3.597z" fill="#a8d068"/><path d="M541.375 246.54l-.147-.667-1.674-7.58-.922 1.097-.067.078h-9.38v-.006h-.999l-.062-.118-1.455-2.762-3.991 9.29-.27.627-.147-.667-1.673-7.582-.923 1.098-.066.08h-9.38v-.655h9.076l1.358-1.616.287-.342.097.436 1.572 7.125 3.818-8.887.182-.423.215.408 1.757 3.334h7.143v.006h2.538l1.358-1.616.287-.34.096.434 1.573 7.125 3.818-8.886.182-.423.214.407 1.758 3.335h7.143v.653h-7.538l-.062-.117-1.455-2.763-3.992 9.29zm.067-.715l4.174-9.712 1.67 3.17h7.185v-.213h-7.056l-1.82-3.452-4.086 9.514-1.721-7.792-1.424 1.694h-2.86v-.006h-7.056l-1.82-3.452-4.087 9.514-1.72-7.792-1.424 1.695h-8.958v.214h9.057l1.21-1.44 1.77 8.017 4.172-9.712 1.67 3.17h1.087v.006h9.058l1.21-1.439z" fill="#4dbf69"/></g><g clip-path="url(#P)" transform="matrix(.62536 0 0 -.62538 -320.318 156.162)" fill="none" stroke="#a8d068" stroke-width="1.32" stroke-linecap="round" stroke-linejoin="round"><path d="M538.088 217.293l-.022-7.453-11.69 6.75.02 7.453z"/><path d="M538.088 217.293l11.914 6.924-.02-7.453-11.916-6.924zm-11.692 6.751l11.914 6.923 11.692-6.75-11.914-6.923z"/></g><g clip-path="url(#Q)" transform="matrix(.62536 0 0 -.62538 -320.318 156.162)"><path d="M527.891 224.044l10.308-5.803 10.596 5.803-11.8 5.27z" fill="none" stroke="#a8d068" stroke-width="1.32" stroke-linecap="round" stroke-linejoin="round"/></g><g clip-path="url(#R)" transform="matrix(.62536 0 0 -.62538 -320.318 156.162)" fill="none" stroke="#a8d068" stroke-width="1.32" stroke-linecap="round" stroke-linejoin="round"><path d="M541.186 228.912l10.45-.041-1.684-4.827-10.45.04z"/><path d="M541.186 228.912l-11.914 6.924 10.45-.041 11.914-6.924zm-1.684-4.827l-11.914 6.924 1.684 4.827 11.914-6.924z"/></g><g clip-path="url(#S)" transform="matrix(.62536 0 0 -.62538 -320.318 156.162)" fill="none" stroke="#a8d068" stroke-width="1.32" stroke-linecap="round" stroke-linejoin="round"><path d="M538.343 210.27v6.758l11.43 6.75s-11.43-6.787-11.43-13.508zm3.067 18.404l-1.524-4.26 9.886-.064s-9.847.143-8.362 4.324zm-11.956 6.72l-1.563-4.18 11.611-6.682s-11.689 6.642-10.048 10.862zm2.971-15.374l-.007-2.438 2.12-1.225-.003-1.514-2.121 1.225-.007-2.432-1.318.76.007 2.434-2.115 1.22.004 1.514 2.115-1.221.007 2.438zm10.179 10.321l-2.237 1.442-2.549-.183-1.794 1.041 3.108.223-2.469 1.605 1.881.065 2.24-1.44 2.594.214 1.85-1.024-3.258-.256 2.56-1.573zm-7.437-6.525l-.776.438-.771-.456-.481.272.77.457-.774.438.479.283.774-.437.768.456.48-.273-.766-.456.776-.438z"/><path d="M526.758 216.317v6.26l10.862-6.26s-10.862 6.28-10.862 0zm8.088 4.207l3.353-1.932 2.704 1.446s.234.782 0 1.446c-.235.664-2.658 1.211-3.79 1.094-1.134-.118-1.72-.469-1.915-.86-.196-.39-.429-.754-.352-1.194z"/><path d="M538.597 222.774s2.871.073 2.59-2.25l3.31 1.586s-.938 1.539-1.876 1.668h-3.119l-.514.266s-.782-.411-.39-1.27zm4.806 1.004s1.454-1.046 1.406-1.494l2.775 1.494z"/><path d="M535.706 221.718s.766-1.406 2.493-1.485c1.727-.078 2.938.821 2.254 1.133-.543.25-2.482.916-3.254.993-.2.02-.321 0-.321-.076 0-.37-.117-.703.742-.986.86-.282.86-.595 1.329-.36 0 0-2.754 1.125-1.641 1.133 0 0 2.34-.449 2.813-.773 0 0 .252-.76-1.406-.773 0 0-1.876-.173-2.618 1.194 0 0 .156.565.468.565 0 0-.781-.057-.86-.565zm3.438 2.06s1.29-1.36 2.97-1.494c1.68-.135 1.858.563 1.674.747-.185.185-1.323.747-1.323.747l-.43-.066s2.266-.792 1.368-1.118c0 0-1.722-.92-3.902 1.184z"/><path d="M540.082 223.778s1.68-1.668 3.322-1.004c0 0-1.212.78-1.661.78 0 0 1.214-.591.8-.741 0 0-1.682.332-1.896.965zm-5.695-2.998l-4.613 2.607s-.124.676.735 1.145l3.878 2.149 4.328-2.55s-.754-.94-.516-1.28c0 0-2.974.492-3.812-2.07z"/></g><g clip-path="url(#T)" transform="matrix(.62536 0 0 -.62538 -320.318 156.162)" fill="none" stroke="#393536" stroke-width=".44" stroke-linecap="round" stroke-linejoin="round"><path d="M538.088 217.293l-.022-7.453-11.69 6.75.02 7.453z"/><path d="M538.088 217.293l11.914 6.924-.02-7.453-11.916-6.924zm-11.692 6.751l11.914 6.923 11.692-6.75-11.914-6.923z"/></g><g clip-path="url(#U)" transform="matrix(.62536 0 0 -.62538 -320.318 156.162)"><path d="M527.891 224.044l10.308-5.803 10.596 5.803-11.8 5.27z" fill="none" stroke="#393536" stroke-width=".44" stroke-linecap="round" stroke-linejoin="round"/></g><g clip-path="url(#V)" transform="matrix(.62536 0 0 -.62538 -320.318 156.162)" fill="none" stroke="#393536" stroke-width=".44" stroke-linecap="round" stroke-linejoin="round"><path d="M541.186 228.912l10.45-.041-1.684-4.827-10.45.04z"/><path d="M541.186 228.912l-11.914 6.924 10.45-.041 11.914-6.924zm-1.684-4.827l-11.914 6.924 1.684 4.827 11.914-6.924z"/></g><g clip-path="url(#W)" transform="matrix(.62536 0 0 -.62538 -320.318 156.162)"><path d="M538.343 210.27v6.758l11.43 6.75s-11.43-6.787-11.43-13.508zm3.067 18.404l-1.524-4.26 9.886-.064s-9.847.143-8.362 4.324zm-11.956 6.72l-1.563-4.18 11.611-6.682s-11.689 6.642-10.048 10.862zm2.971-15.374l-.007-2.438 2.12-1.225-.003-1.514-2.121 1.225-.007-2.432-1.318.76.007 2.434-2.115 1.22.004 1.514 2.115-1.221.007 2.438zm10.179 10.321l-2.237 1.442-2.549-.183-1.794 1.041 3.108.223-2.469 1.605 1.881.065 2.24-1.44 2.594.214 1.85-1.024-3.258-.256 2.56-1.573zm-7.437-6.525l-.776.438-.771-.456-.481.272.77.457-.774.438.479.283.774-.437.768.456.48-.273-.766-.456.776-.438z" fill="none" stroke="#393536" stroke-width=".44" stroke-linecap="round" stroke-linejoin="round"/><path d="M526.758 216.317v6.26l10.862-6.26s-10.862 6.28-10.862 0zm8.088 4.207l3.353-1.932 2.704 1.446s.234.782 0 1.446c-.235.664-2.658 1.211-3.79 1.094-1.134-.118-1.72-.469-1.915-.86-.196-.39-.429-.754-.352-1.194z" fill="none" stroke="#393536" stroke-width=".44" stroke-linecap="round" stroke-linejoin="round"/><path d="M538.597 222.774s2.871.073 2.59-2.25l3.31 1.586s-.938 1.539-1.876 1.668h-3.119l-.514.266s-.782-.411-.39-1.27zm4.806 1.004s1.454-1.046 1.406-1.494l2.775 1.494z" fill="none" stroke="#393536" stroke-width=".44" stroke-linecap="round" stroke-linejoin="round"/><path d="M535.706 221.718s.766-1.406 2.493-1.485c1.727-.078 2.938.821 2.254 1.133-.543.25-2.482.916-3.254.993-.2.02-.321 0-.321-.076 0-.37-.117-.703.742-.986.86-.282.86-.595 1.329-.36 0 0-2.754 1.125-1.641 1.133 0 0 2.34-.449 2.813-.773 0 0 .252-.76-1.406-.773 0 0-1.876-.173-2.618 1.194 0 0 .156.565.468.565 0 0-.781-.057-.86-.565zm3.438 2.06s1.29-1.36 2.97-1.494c1.68-.135 1.858.563 1.674.747-.185.185-1.323.747-1.323.747l-.43-.066s2.266-.792 1.368-1.118c0 0-1.722-.92-3.902 1.184z" fill="none" stroke="#393536" stroke-width=".44" stroke-linecap="round" stroke-linejoin="round"/><path d="M540.082 223.778s1.68-1.668 3.322-1.004c0 0-1.212.78-1.661.78 0 0 1.214-.591.8-.741 0 0-1.682.332-1.896.965zm-5.695-2.998l-4.613 2.607s-.124.676.735 1.145l3.878 2.149 4.328-2.55s-.754-.94-.516-1.28c0 0-2.974.492-3.812-2.07z" fill="none" stroke="#393536" stroke-width=".44" stroke-linecap="round" stroke-linejoin="round"/><g clip-path="url(#X)"><g clip-path="url(#Y)"><path d="M538.088 217.293l-.022-7.453-11.69 6.75.02 7.453z" fill="#f2f2f2"/><path d="M538.088 217.293l11.914 6.924-.02-7.453-11.916-6.924z" fill="#a19f9f"/><path d="M526.396 224.044l11.914 6.923 11.692-6.75-11.914-6.923z" fill="#b8b6b7"/></g></g></g><g clip-path="url(#Z)" transform="matrix(.62536 0 0 -.62538 -320.318 156.162)"><path d="M527.891 224.043l10.308-5.802 10.597 5.802-11.801 5.272z" fill="url(#aa)"/></g><g clip-path="url(#ab)" transform="matrix(.62536 0 0 -.62538 -320.318 156.162)"><g clip-path="url(#ac)"><g clip-path="url(#ad)"><path d="M541.186 228.912l10.45-.041-1.684-4.827-10.45.04z" fill="#949293"/><path d="M541.186 228.912l-11.914 6.924 10.45-.041 11.914-6.924z" fill="#a6a4a4"/><path d="M539.502 224.085l-11.914 6.924 1.684 4.827 11.914-6.924z" fill="#f3f2f3"/></g></g></g><g clip-path="url(#ae)" transform="matrix(.62536 0 0 -.62538 -320.318 156.162)"><g mask="url(#af)"><path d="M538.343 217.029v-6.758c.001 6.699 11.357 13.464 11.429 13.507z" fill="url(#ag)"/></g></g><g clip-path="url(#ah)" transform="matrix(.62536 0 0 -.62538 -320.318 156.162)"><g mask="url(#ai)"><path d="M539.887 224.415l9.885-.065s-9.846.143-8.362 4.324z" fill="url(#aj)"/></g></g><g clip-path="url(#ak)" transform="matrix(.62536 0 0 -.62538 -320.318 156.162)"><g mask="url(#al)"><path d="M529.433 235.339l.021.055-.021-.055m-1.542-4.125l11.534-6.638c-1 .58-11.438 6.743-9.992 10.763zm11.61-6.682l-.076.044a5.1 5.1 0 00.076-.044" fill="url(#am)"/></g></g><g clip-path="url(#an)" transform="matrix(.62536 0 0 -.62538 -320.318 156.162)"><path d="M531.1 218.343l-2.115 1.221-.005-1.513 2.116-1.221-.007-2.434 1.318-.76.007 2.432 2.12-1.225.005 1.513-2.122 1.226.008 2.437-1.318.762z" fill="url(#ao)"/></g><g clip-path="url(#ap)" transform="matrix(.62536 0 0 -.62538 -320.318 156.162)"><path d="M532.425 220.02l-.007-2.438 2.12-1.225-.003-1.514-2.121 1.225-.007-2.432-1.318.76.007 2.434-2.115 1.22.004 1.514 2.115-1.221.007 2.438z" fill="none" stroke="#730b0e" stroke-width=".22" stroke-miterlimit="10"/></g><g clip-path="url(#aq)" transform="matrix(.62536 0 0 -.62538 -320.318 156.162)"><path d="M536.663 234.469l2.469-1.605-3.108-.223 1.794-1.04 2.549.182 2.238-1.442 1.925.114-2.561 1.573 3.259.257-1.849 1.023-2.595-.214-2.239 1.44z" fill="url(#ar)"/></g><g clip-path="url(#as)" transform="matrix(.62536 0 0 -.62538 -320.318 156.162)"><path d="M542.604 230.341l-2.237 1.442-2.549-.183-1.794 1.041 3.108.223-2.469 1.605 1.881.065 2.24-1.44 2.594.214 1.85-1.024-3.258-.256 2.56-1.573z" fill="none" stroke="#730b0e" stroke-width=".22" stroke-miterlimit="10"/></g><g clip-path="url(#at)" transform="matrix(.62536 0 0 -.62538 -320.318 156.162)"><path d="M534.388 224.811l-.774.436-.479-.282.774-.438-.771-.458.482-.271.771.456.775-.438.479.284-.776.437.768.457-.482.272z" fill="url(#au)"/></g><g clip-path="url(#av)" transform="matrix(.62536 0 0 -.62538 -320.318 156.162)"><path d="M535.167 223.816l-.776.438-.771-.456-.481.272.77.457-.774.438.479.283.774-.437.768.456.48-.273-.766-.456.776-.438z" fill="none" stroke="#730b0e" stroke-width=".22" stroke-miterlimit="10"/></g><g clip-path="url(#aw)" transform="matrix(.62536 0 0 -.62538 -320.318 156.162)"><g mask="url(#ax)"><path d="M526.757 216.317c0 6.28 10.863 0 10.863 0l-10.863 6.261z" fill="url(#ay)"/></g></g><g clip-path="url(#az)" transform="matrix(.62536 0 0 -.62538 -320.318 156.162)"><g mask="url(#aA)"><path d="M537.112 222.578c-1.133-.117-1.719-.469-1.914-.859-.195-.391-.43-.755-.351-1.195l3.352-1.931 2.704 1.445s.234.782 0 1.447c-.214.603-2.231 1.109-3.449 1.109-.123 0-.238-.005-.342-.016" fill="url(#aB)"/></g></g><g clip-path="url(#aC)" transform="matrix(.62536 0 0 -.62538 -320.318 156.162)"><g mask="url(#aD)"><path d="M538.597 222.773s2.872.074 2.588-2.249l3.312 1.585s-.937 1.54-1.875 1.669h-3.121l-.514.265s-.781-.41-.39-1.27" fill="url(#aE)"/></g></g><g clip-path="url(#aF)" transform="matrix(.62536 0 0 -.62538 -320.318 156.162)"><g mask="url(#aG)"><path d="M543.404 223.778l-.001-.001c.03-.021 1.454-1.05 1.407-1.493l2.774 1.493-.001.001z" fill="url(#aH)"/></g></g><g clip-path="url(#aI)" transform="matrix(.62536 0 0 -.62538 -320.318 156.162)"><g mask="url(#aJ)"><path d="M536.878 222.284c0-.37-.117-.704.742-.987.86-.282.86-.595 1.329-.36 0 0-2.754 1.125-1.642 1.133 0 0 2.341-.449 2.814-.773 0 0 .252-.759-1.406-.773 0 0-1.876-.172-2.619 1.195 0 0 .137.495.412.558-.182-.025-.737-.135-.802-.558 0 0 .766-1.407 2.493-1.485 1.727-.079 2.938.819 2.254 1.133-.543.248-2.483.915-3.254.992a1.29 1.29 0 01-.131.008c-.121 0-.19-.026-.19-.083m-.37-.007l.058.007a.27.27 0 01-.058-.007" fill="url(#aK)"/></g></g><g clip-path="url(#aL)" transform="matrix(.62536 0 0 -.62538 -320.318 156.162)"><g mask="url(#aM)"><path d="M542.035 223.711s2.266-.792 1.368-1.117c0 0-1.722-.92-3.902 1.184h-.356l-.001-.001c.023-.023 1.304-1.359 2.97-1.493 1.679-.135 1.859.563 1.674.747-.184.184-1.323.747-1.323.747z" fill="url(#aN)"/></g></g><g clip-path="url(#aO)" transform="matrix(.62536 0 0 -.62538 -320.318 156.162)"><g mask="url(#aP)"><path d="M540.082 223.778s1.68-1.669 3.321-1.005c0 0-1.212.782-1.661.782 0 0 1.214-.593.801-.742 0 0-1.683.331-1.896.965z" fill="url(#aQ)"/></g></g><g clip-path="url(#aR)" transform="matrix(.62536 0 0 -.62538 -320.318 156.162)"><g mask="url(#aS)"><path d="M530.509 224.532c-.86-.47-.736-1.146-.736-1.146l4.614-2.605c.838 2.561 3.812 2.071 3.812 2.071-.238.339.516 1.279.516 1.279l-4.328 2.549z" fill="url(#aT)"/></g></g><g clip-path="url(#aU)" transform="matrix(.62536 0 0 -.62538 -320.318 156.162)"><path d="M525.253 229.1l-3.773.768 1.415 6.943 3.772-.768z" fill="#59caf5"/></g><g clip-path="url(#aV)" transform="matrix(.62536 0 0 -.62538 -320.318 156.162)"><path d="M521.34 228.902l3.772-.768.205 1.005-3.772.768z" fill="url(#aW)"/></g><g clip-path="url(#aX)" transform="matrix(.62536 0 0 -.62538 -320.318 156.162)"><path d="M525.317 229.139l-3.773.769-.205-1.007 3.773-.768z" fill="none" stroke="#7b7979" stroke-width=".44" stroke-miterlimit="10"/></g><g clip-path="url(#aY)" transform="matrix(.62536 0 0 -.62538 -320.318 156.162)"><path d="M521.198 223.43l1.976-.403 1.077 5.281-1.977.404z" fill="url(#aZ)"/></g><g clip-path="url(#ba)" transform="matrix(.62536 0 0 -.62538 -320.318 156.162)" fill="none"><path d="M523.174 223.027l-1.976.403 1.076 5.281 1.976-.402z" stroke="#7b7979" stroke-width=".44" stroke-miterlimit="10"/><path d="M522.921 228.58l-1.076-5.283.611-.124 1.076 5.281z" stroke="#7b7979" stroke-width=".22" stroke-miterlimit="10"/><path d="M524.083 222.186l-4.168.85 2.855 14.011 4.167-.849z" stroke="#a8d068" stroke-width=".88" stroke-linecap="round" stroke-linejoin="round"/><path d="M525.486 220.702c-.358 0-.697.067-1.01.201l-.025-.12-5.39 1.097.029.14c-.033-.003-.066-.003-.1-.003-1.191 0-1.955.853-1.988.89l-.016.02-.013.022c-.13.245-.198.44-.107.59a.273.273 0 00.24.132c.154 0 .336-.12.432-.192a1.927 1.927 0 011.086-.342c.472 0 .805.183.808.184l.072.041 5.255-1.07-.035-.169a1.873 1.873 0 011.26-.484c.134 0 .272.014.41.041.005.001.152.037.282.037.232 0 .31-.122.336-.194.076-.213-.123-.398-.316-.554l-.02-.017-.024-.01a2.938 2.938 0 00-1.166-.24z" stroke="#a8d068" stroke-width=".88" stroke-linecap="round" stroke-linejoin="round"/><path d="M517.106 223.89a.495.495 0 01-.429-.237c-.152-.253-.04-.538.102-.807l.024-.046.034-.038c.033-.038.791-.884 1.985-.96l-.02-.093.431-.088 4.96-1.01.43-.087.017.084c.268-.083.551-.126.846-.126.694 0 1.204.234 1.26.26l.047.023.041.034c.168.136.52.42.385.797-.028.08-.15.34-.544.34-.137 0-.282-.03-.332-.042a1.945 1.945 0 00-.359-.034c-.47 0-.813.189-1.018.347l.052.257-.43.087-4.96 1.01-.16.033-.145-.081s-.29-.155-.699-.155c-.336 0-.66.102-.964.305-.143.106-.353.228-.554.228zm0-.44c.103 0 .3-.147.3-.147.44-.296.865-.385 1.218-.385.543 0 .917.212.917.212l4.958-1.01-.015-.071a2.091 2.091 0 011.5-.63c.141 0 .292.014.452.045 0 0 .132.033.24.033.146 0 .244-.062-.119-.357 0 0-.457-.218-1.07-.218-.357 0-.766.073-1.17.305l-.038-.185-4.958 1.01.044.216a2.329 2.329 0 00-.374-.031c-1.107 0-1.823.815-1.823.815-.165.31-.142.399-.062.399" stroke="#a8d068" stroke-width=".88" stroke-linecap="round" stroke-linejoin="round"/><path d="M521.547 215.163l-1.976.402 1.201 5.896 1.976-.403z" stroke="#a8d068" stroke-width=".88" stroke-linecap="round" stroke-linejoin="round"/><path d="M521.42 221.329l-1.202-5.895.611-.125 1.201 5.895z" stroke="#a8d068" stroke-width=".88" stroke-linecap="round" stroke-linejoin="round"/><path d="M520.348 214.416c-1.653.337-2.585-.016-2.585-.016l.3 1.473 4.958-1.01-.3-1.473s-.72.689-2.373 1.026zm6.794 22.884l-4.168.848-.22-1.079 4.168-.849z" stroke="#a8d068" stroke-width=".88" stroke-linecap="round" stroke-linejoin="round"/><path d="M526.13 239.19l-1.51.307-.328-1.617 1.508-.308z" stroke="#a8d068" stroke-width=".88" stroke-linecap="round" stroke-linejoin="round"/><path d="M526.742 243.667l-.519 1.678-1.208-5.93.827-.167z" stroke="#a8d068" stroke-width=".88" stroke-linecap="round" stroke-linejoin="round"/></g><g clip-path="url(#bb)" transform="matrix(.62536 0 0 -.62538 -320.318 156.162)"><g mask="url(#bc)"><path d="M519.916 223.034l4.167-.848 2.854 14.012-4.167.849z" fill="url(#bd)"/></g></g><g clip-path="url(#be)" transform="matrix(.62536 0 0 -.62538 -320.318 156.162)"><path d="M524.083 222.186l-4.168.85 2.855 14.011 4.167-.849z" fill="none" stroke="#3871c1" stroke-width=".44" stroke-miterlimit="10"/></g><g clip-path="url(#bf)" transform="matrix(.62536 0 0 -.62538 -320.318 156.162)"><path d="M516.866 223.539c-.091-.151-.023-.344.108-.59l.011-.023.017-.019c.032-.036.797-.89 1.989-.89.033 0 .066 0 .099.002l-.028-.138 5.39-1.098.024.119c.314-.132.652-.2 1.01-.2.657 0 1.145.23 1.166.24l.023.011.02.016c.194.157.393.341.316.554-.024.072-.102.194-.336.194-.13 0-.276-.036-.28-.037a2.177 2.177 0 00-.411-.041c-.624 0-1.051.295-1.26.484l.034.169-5.254 1.07-.072-.04a1.817 1.817 0 00-.808-.184c-.383 0-.752.117-1.086.341-.096.071-.278.192-.431.192a.274.274 0 01-.241-.132" fill="url(#bg)"/></g><g clip-path="url(#bh)" transform="matrix(.62536 0 0 -.62538 -320.318 156.162)"><path d="M517.106 223.89a.495.495 0 01-.429-.237c-.152-.253-.04-.538.102-.807l.024-.046.034-.038c.033-.038.791-.884 1.985-.96l-.02-.093.431-.088 4.96-1.01.43-.087.017.084c.268-.083.551-.126.846-.126.694 0 1.204.234 1.26.26l.047.023.041.034c.168.136.52.42.385.797-.028.08-.15.34-.544.34-.137 0-.282-.03-.332-.042a1.945 1.945 0 00-.359-.034c-.47 0-.813.189-1.018.347l.052.257-.43.087-4.96 1.01-.16.033-.145-.081s-.29-.155-.699-.155c-.336 0-.66.102-.964.305-.143.106-.353.228-.554.228m0-.44c.103 0 .3-.148.3-.148.44-.296.865-.385 1.218-.385.543 0 .917.212.917.212l4.958-1.01-.015-.071a2.091 2.091 0 011.5-.63c.141 0 .292.014.452.045 0 0 .132.033.24.033.146 0 .244-.062-.119-.357 0 0-.457-.218-1.07-.218-.357 0-.766.073-1.17.305l-.038-.185-4.958 1.01.044.216a2.329 2.329 0 00-.374-.031c-1.107 0-1.823.815-1.823.815-.165.31-.142.399-.062.399" fill="#7b7979"/></g><g clip-path="url(#bi)" transform="matrix(.62536 0 0 -.62538 -320.318 156.162)"><path d="M519.571 215.564l1.976-.401 1.202 5.895-1.977.402z" fill="url(#bj)"/></g><g clip-path="url(#bk)" transform="matrix(.62536 0 0 -.62538 -320.318 156.162)" fill="none" stroke="#7b7979" stroke-miterlimit="10"><path d="M521.547 215.163l-1.976.402 1.201 5.896 1.976-.403z" stroke-width=".44"/><path d="M521.42 221.329l-1.202-5.895.611-.125 1.201 5.895z" stroke-width=".22"/></g><g clip-path="url(#bl)" transform="matrix(.62536 0 0 -.62538 -320.318 156.162)"><path d="M517.763 214.4s.932.353 2.585.016c1.653-.337 2.373-1.026 2.373-1.026l.3 1.472-4.959 1.01z" fill="url(#bm)"/></g><g clip-path="url(#bn)" transform="matrix(.62536 0 0 -.62538 -320.318 156.162)"><path d="M520.348 214.416c-1.653.337-2.585-.016-2.585-.016l.3 1.473 4.958-1.01-.3-1.473s-.72.689-2.373 1.026z" fill="none" stroke="#7b7979" stroke-width=".44" stroke-miterlimit="10"/></g><g clip-path="url(#bo)" transform="matrix(.62536 0 0 -.62538 -320.318 156.162)"><path d="M522.754 237.069l4.168-.849.22 1.079-4.168.849z" fill="url(#bp)"/></g><g clip-path="url(#bq)" transform="matrix(.62536 0 0 -.62538 -320.318 156.162)"><path d="M527.142 237.3l-4.168.848-.22-1.079 4.168-.849z" fill="none" stroke="#7b7979" stroke-width=".44" stroke-miterlimit="10"/></g><g clip-path="url(#br)" transform="matrix(.62536 0 0 -.62538 -320.318 156.162)"><path d="M524.291 237.88l1.51-.308.329 1.617-1.509.307z" fill="url(#bs)"/></g><g clip-path="url(#bt)" transform="matrix(.62536 0 0 -.62538 -320.318 156.162)"><path d="M526.13 239.19l-1.51.307-.328-1.617 1.508-.308z" fill="none" stroke="#7b7979" stroke-width=".44" stroke-miterlimit="10"/></g><g clip-path="url(#bu)" transform="matrix(.62536 0 0 -.62538 -320.318 156.162)"><path d="M525.016 239.416l.826-.168.9 4.419-.518 1.677z" fill="url(#bv)"/></g><g clip-path="url(#bw)" transform="matrix(.62536 0 0 -.62538 -320.318 156.162)"><path d="M526.742 243.667l-.519 1.678-1.208-5.93.827-.167z" fill="none" stroke="#7b7979" stroke-width=".44" stroke-linecap="round" stroke-linejoin="round" stroke-miterlimit="10"/></g><g clip-path="url(#bx)" transform="matrix(.62536 0 0 -.62538 -320.318 156.162)"><g mask="url(#by)"><path d="M520.992 224.07c2.459 12.075 5.089 11.574 5.089 11.574l-2.622.535z" fill="url(#bz)"/></g></g><path d="M0 0s-5.613 0-5.613-5.613v-26.192s0-5.612 5.613-5.612h26.192s5.613 0 5.613 5.612v26.192S31.805 0 26.192 0z" fill="none" stroke="#231f20" stroke-width=".66" transform="matrix(.62536 0 0 -.62538 5.04 1.53)"/></svg>