<svg xmlns="http://www.w3.org/2000/svg" xmlns:xlink="http://www.w3.org/1999/xlink" width="100" height="100" viewBox="0 0 26.458 26.458"><defs><linearGradient x1="0" y1="0" x2="1" y2="0" gradientUnits="userSpaceOnUse" gradientTransform="matrix(0 -3.89755 -3.89755 0 533.616 60.193)" spreadMethod="pad" id="g"><stop offset="0" stop-color="#fff"/><stop offset="1" stop-opacity="0" stop-color="#fff"/></linearGradient><linearGradient x1="0" y1="0" x2="1" y2="0" gradientUnits="userSpaceOnUse" gradientTransform="matrix(0 -3.89752 -3.89752 0 533.616 55.195)" spreadMethod="pad" id="c"><stop offset="0" stop-color="#fff"/><stop offset="1" stop-opacity="0" stop-color="#fff"/></linearGradient><linearGradient x1="0" y1="0" x2="1" y2="0" gradientUnits="userSpaceOnUse" gradientTransform="matrix(0 -3.89752 -3.89752 0 533.616 55.195)" spreadMethod="pad" id="q"><stop offset="0" stop-color="#fff"/><stop offset="1" stop-color="#fff"/></linearGradient><linearGradient x1="0" y1="0" x2="1" y2="0" gradientUnits="userSpaceOnUse" gradientTransform="scale(52.91552 -52.91552) rotate(45 6.407 11.101)" spreadMethod="pad" id="j"><stop offset="0" stop-color="#ebdac2"/><stop offset=".004" stop-color="#ebdac2"/><stop offset="1" stop-color="#e29e8a"/></linearGradient><linearGradient x1="0" y1="0" x2="1" y2="0" gradientUnits="userSpaceOnUse" gradientTransform="matrix(0 -5.41781 -5.41781 0 533.785 55.177)" spreadMethod="pad" id="l"><stop offset="0" stop-color="#df5687"/><stop offset="1" stop-color="#be244d"/></linearGradient><linearGradient x1="0" y1="0" x2="1" y2="0" gradientUnits="userSpaceOnUse" gradientTransform="matrix(0 -4.83912 -4.83912 0 533.786 54.818)" spreadMethod="pad" id="n"><stop offset="0" stop-color="#be244d"/><stop offset="1" stop-color="#df5687"/></linearGradient><linearGradient x1="0" y1="0" x2="1" y2="0" gradientUnits="userSpaceOnUse" gradientTransform="matrix(0 -3.89755 -3.89755 0 533.616 60.193)" spreadMethod="pad" id="v"><stop offset="0" stop-color="#fff"/><stop offset="1" stop-color="#fff"/></linearGradient><linearGradient xlink:href="#a" id="y" gradientUnits="userSpaceOnUse" gradientTransform="matrix(0 -7.29246 -7.29246 0 534.154 47.93)" x1="0" y1="0" x2="1" y2="0" spreadMethod="pad"/><linearGradient x1="0" y1="0" x2="1" y2="0" gradientUnits="userSpaceOnUse" gradientTransform="matrix(0 -8.19478 -8.19478 0 534.259 48.357)" spreadMethod="pad" id="w"><stop offset="0" stop-color="#f9b3dd"/><stop offset="1" stop-color="#dc2677"/></linearGradient><linearGradient x1="0" y1="0" x2="1" y2="0" gradientUnits="userSpaceOnUse" gradientTransform="matrix(0 -5.5962 -5.5962 0 534.315 39.655)" spreadMethod="pad" id="e"><stop offset="0" stop-opacity="0" stop-color="#fff"/><stop offset="1" stop-color="#fff"/></linearGradient><linearGradient x1="0" y1="0" x2="1" y2="0" gradientUnits="userSpaceOnUse" gradientTransform="matrix(0 -5.5962 -5.5962 0 534.315 39.655)" spreadMethod="pad" id="H"><stop offset="0" stop-color="#fff"/><stop offset="1" stop-color="#fff"/></linearGradient><linearGradient x1="0" y1="0" x2="1" y2="0" gradientUnits="userSpaceOnUse" gradientTransform="matrix(0 -7.29246 -7.29246 0 534.154 47.93)" spreadMethod="pad" id="a"><stop offset="0" stop-color="#dc2677"/><stop offset="1" stop-color="#f9b3dd"/></linearGradient><linearGradient x1="0" y1="0" x2="1" y2="0" gradientUnits="userSpaceOnUse" gradientTransform="matrix(0 5.28049 5.28049 0 534.065 41.078)" spreadMethod="pad" id="i"><stop offset="0" stop-color="#fff"/><stop offset="1" stop-opacity="0" stop-color="#fff"/></linearGradient><linearGradient x1="0" y1="0" x2="1" y2="0" gradientUnits="userSpaceOnUse" gradientTransform="matrix(0 5.28049 5.28049 0 534.065 41.078)" spreadMethod="pad" id="C"><stop offset="0" stop-color="#fff"/><stop offset="1" stop-color="#fff"/></linearGradient><linearGradient xlink:href="#a" id="z" gradientUnits="userSpaceOnUse" gradientTransform="matrix(0 -7.29246 -7.29246 0 534.154 47.93)" x1="0" y1="0" x2="1" y2="0" spreadMethod="pad"/><clipPath clipPathUnits="userSpaceOnUse" id="b"><path d="M-32768 32767h65535v-65535h-65535z"/></clipPath><clipPath clipPathUnits="userSpaceOnUse" id="k"><path d="M520.271 67.661s-5.612 0-5.612-5.612V35.853c.001-.17.087-5.609 5.612-5.609h26.192s5.612 0 5.612 5.613v26.192s0 5.612-5.612 5.612z"/></clipPath><clipPath clipPathUnits="userSpaceOnUse" id="o"><path d="M536.385 54.842c-1.044-.483-2.026-.729-2.916-.729-.719 0-1.375.157-1.952.465-.99.432-1.863.641-2.666.641-1.382 0-2.382-.625-3.539-1.348l-.177-.11c-1.684-1.051-3.639-2.849-5.363-4.934a4.411 4.411 0 01-.249-.328c1.227.288 4.094.972 7.215 1.73 2.272.551 5.517.633 7.248.633 3.266 0 6.147-.261 7.52-.681 1.767-.541 4.489-1.268 6.202-1.594-.43.521-4.628 4.634-6.448 5.745-.971.594-2.017.908-3.022.908a4.383 4.383 0 01-1.853-.398"/></clipPath><clipPath clipPathUnits="userSpaceOnUse" id="m"><path d="M520.271 67.661s-5.612 0-5.612-5.612V35.853c.001-.17.087-5.609 5.612-5.609h26.192s5.612 0 5.612 5.613v26.192s0 5.612-5.612 5.612z"/></clipPath><clipPath clipPathUnits="userSpaceOnUse" id="f"><path d="M-32768 32767h65535v-65535h-65535z"/></clipPath><clipPath clipPathUnits="userSpaceOnUse" id="t"><path d="M536.385 59.841c-1.044-.483-2.026-.728-2.916-.728-.719 0-1.375.156-1.952.463-.99.432-1.863.642-2.666.642-1.382 0-2.382-.624-3.54-1.349l-.175-.11c-1.685-1.049-3.64-2.847-5.364-4.934a4.638 4.638 0 01-.249-.327l1.247.295c1.454 1.591 2.998 2.941 4.366 3.793l.175.11c1.158.724 2.158 1.349 3.54 1.349.803 0 1.676-.21 2.666-.641.577-.309 1.233-.465 1.952-.465.89 0 1.872.245 2.916.728a4.37 4.37 0 001.854.398c1.004 0 2.05-.314 3.021-.907 1.209-.739 3.464-2.798 4.97-4.253.536-.126 1.04-.236 1.478-.32-.429.522-4.628 4.634-6.448 5.746-.971.594-2.017.908-3.021.908a4.385 4.385 0 01-1.854-.398"/></clipPath><clipPath clipPathUnits="userSpaceOnUse" id="s"><path d="M519.523 60.239h28.185v-6.74h-28.185z"/></clipPath><clipPath clipPathUnits="userSpaceOnUse" id="r"><path d="M520.271 67.661s-5.612 0-5.612-5.612V35.853c.001-.17.087-5.609 5.612-5.609h26.192s5.612 0 5.612 5.613v26.192s0 5.612-5.612 5.612z"/></clipPath><clipPath clipPathUnits="userSpaceOnUse" id="x"><path d="M520.271 67.661s-5.612 0-5.612-5.612V35.853c.001-.17.087-5.609 5.612-5.609h26.192s5.612 0 5.612 5.613v26.192s0 5.612-5.612 5.612z"/></clipPath><clipPath clipPathUnits="userSpaceOnUse" id="h"><path d="M-13903.2 14447.6H14932v-28835.2h-28835.2z"/></clipPath><clipPath clipPathUnits="userSpaceOnUse" id="A"><path d="M527.327 47.474a1616.19 1616.19 0 00-5.889-1.415c1.28-1.617 4.842-4.896 12.815-5.173.223-.008.443-.012.66-.012 6.105 0 9.915 3.025 11.778 5.044-1.777.371-3.877.955-4.7 1.19-1.059-.369-2.69-.529-5.349-.529-.853 0-1.77.016-2.732.036-2.704.055-5.081.575-6.353.911a6.543 6.543 0 01-.23-.052"/></clipPath><clipPath clipPathUnits="userSpaceOnUse" id="d"><path d="M-32768 32767h65535v-65535h-65535z"/></clipPath><clipPath clipPathUnits="userSpaceOnUse" id="F"><path d="M543.904 38.607c-.232-.206-.546-.412-.892-.669-.339-.266-.765-.501-1.207-.79-.465-.252-.96-.545-1.517-.782l-.418-.19-.442-.167a9.088 9.088 0 00-.918-.315l-.477-.144a60.076 60.076 0 00-.494-.115 9.826 9.826 0 00-1.009-.195c-.684-.114-1.388-.153-2.092-.17-.703.012-1.409.04-2.095.144-.688.087-1.356.234-1.997.399a18.562 18.562 0 00-3.382 1.271c-.955.463-1.707.93-2.22 1.272-.516.345-.781.563-.781.564l-.276-.343.172-.212c.116-.132.279-.336.513-.563.233-.23.519-.508.874-.793.353-.289.76-.609 1.237-.909.469-.313 1-.625 1.587-.905a13.324 13.324 0 011.906-.779c.685-.207 1.403-.432 2.16-.53.751-.126 1.53-.174 2.31-.197.779.031 1.561.088 2.317.228l.564.103c.185.045.367.101.548.151l.536.156.52.186c.344.117.676.247.986.407l.466.224.437.247c.585.303 1.081.683 1.54 1.014.44.36.845.682 1.158 1.018.323.322.6.603.801.863.212.249.358.462.465.598l.159.212-.29.331-.749-.62"/></clipPath><clipPath clipPathUnits="userSpaceOnUse" id="E"><path d="M523.687 39.227h21.256v-5.738h-21.256z"/></clipPath><clipPath clipPathUnits="userSpaceOnUse" id="D"><path d="M520.271 67.661s-5.612 0-5.612-5.612V35.853c.001-.17.087-5.609 5.612-5.609h26.192s5.612 0 5.612 5.613v26.192s0 5.612-5.612 5.612z"/></clipPath><mask maskUnits="userSpaceOnUse" x="0" y="0" width="1" height="1" id="p"><g clip-path="url(#b)"><path d="M547.708 48.499h-28.184v6.741h28.184z" fill="url(#c)"/></g></mask><mask maskUnits="userSpaceOnUse" x="0" y="0" width="1" height="1" id="G"><g clip-path="url(#d)"><path d="M544.943 33.489h-21.256v5.738h21.256z" fill="url(#e)"/></g></mask><mask maskUnits="userSpaceOnUse" x="0" y="0" width="1" height="1" id="u"><g clip-path="url(#f)"><path d="M547.708 53.498h-28.184v6.741h28.184z" fill="url(#g)"/></g></mask><mask maskUnits="userSpaceOnUse" x="0" y="0" width="1" height="1" id="B"><g clip-path="url(#h)"><path d="M521.439 47.527h25.253v-6.653h-25.253z" fill="url(#i)"/></g></mask></defs><path d="M520.271 67.661s-5.612 0-5.612-5.612V35.853c.001-.169.085-5.53 5.492-5.608h26.36c.547.015 5.564.305 5.564 5.612v26.192s0 5.612-5.612 5.612z" fill="url(#j)" transform="matrix(.6244 0 0 -.62815 -319.81 43.94)"/><g clip-path="url(#k)" transform="matrix(.6244 0 0 -.62815 -319.81 43.94)"><path d="M533.936 47.861c3.676-.075 6.693-.08 7.983.566l.503-.146c-.457.13-.891.258-1.281.377-2.337.716-10.367.936-14.108.028.179.043.369.083.565.121 1.218-.338 3.596-.889 6.338-.946m-6.903.826l-.132-.032c.044.01.088.02.132.032" fill="#fff"/></g><path d="M535.861 55.975c-1.843-.854-3.053-.689-3.795-.276-3.74 1.65-5.693.303-7.59-.88-1.898-1.183-3.96-3.135-5.666-5.197-1.704-2.062-.192-2.613.523-2.448.715.165 3.96.935 7.7 1.843 3.74.907 11.77.687 14.108-.028 2.337-.715 6.215-1.733 7.672-1.815 1.458-.082.358 1.595-.137 2.2-.495.605-4.785 4.812-6.765 6.023-1.181.721-2.45 1.091-3.672 1.091-.828 0-1.635-.17-2.378-.513" fill="url(#l)" transform="matrix(.6244 0 0 -.62815 -319.81 43.94)"/><g clip-path="url(#m)" transform="matrix(.6244 0 0 -.62815 -319.81 43.94)"><path d="M519.333 47.174c-.715-.165-2.227.385-.522 2.447 1.705 2.063 3.767 4.016 5.665 5.198 1.897 1.182 3.85 2.53 7.59.88.742-.413 1.952-.578 3.795.275 1.842.852 4.07.632 6.05-.578 1.98-1.209 6.27-5.417 6.764-6.022.495-.605 1.595-2.282.138-2.2-1.458.082-5.335 1.1-7.672 1.815-2.338.715-10.368.935-14.108.027a1068.45 1068.45 0 00-7.7-1.842z" fill="none" stroke="#231f20" stroke-width=".44" stroke-miterlimit="10"/></g><path d="M536.071 55.521c-.946-.437-1.821-.659-2.602-.659-.604 0-1.151.131-1.625.389-1.098.482-2.078.717-2.993.717-1.597 0-2.733-.711-3.936-1.463l-.175-.11c-1.75-1.091-3.771-2.946-5.545-5.091-.615-.745-.733-1.225-.638-1.427.075-.159.322-.232.52-.232a.69.69 0 01.144.015c.759.176 4.071.962 7.695 1.842 2.195.533 5.372.612 7.07.612 3.149 0 6.014-.255 7.301-.648 2.209-.676 6.14-1.714 7.555-1.794l.072-.002a.62.62 0 01.13.011c-.007.228-.313.838-.755 1.377-.442.541-4.712 4.736-6.638 5.913-1.09.666-2.27 1.018-3.413 1.018a5.121 5.121 0 01-2.167-.468" fill="url(#n)" transform="matrix(.6244 0 0 -.62815 -319.81 43.94)"/><g clip-path="url(#o)" transform="matrix(.6244 0 0 -.62815 -319.81 43.94)"><g mask="url(#p)"><path d="M536.385 54.842c-1.044-.483-2.026-.729-2.916-.729-.719 0-1.375.157-1.952.465-.99.432-1.863.641-2.666.641-1.382 0-2.382-.625-3.539-1.348l-.177-.11c-1.684-1.051-3.639-2.849-5.363-4.934a4.411 4.411 0 01-.249-.328c1.227.288 4.094.972 7.215 1.73 2.272.551 5.517.633 7.248.633 3.266 0 6.147-.261 7.52-.681 1.767-.541 4.489-1.268 6.202-1.594-.43.521-4.628 4.634-6.448 5.745-.971.594-2.017.908-3.022.908a4.383 4.383 0 01-1.853-.398" fill="url(#q)"/></g></g><g clip-path="url(#r)" transform="matrix(.6244 0 0 -.62815 -319.81 43.94)"><g clip-path="url(#s)"><g mask="url(#u)" clip-path="url(#t)" opacity=".5"><path d="M536.385 59.841c-1.044-.483-2.026-.728-2.916-.728-.719 0-1.375.156-1.952.463-.99.432-1.863.642-2.666.642-1.382 0-2.382-.624-3.54-1.349l-.175-.11c-1.685-1.049-3.64-2.847-5.364-4.934a4.638 4.638 0 01-.249-.327l1.247.295c1.454 1.591 2.998 2.941 4.366 3.793l.175.11c1.158.724 2.158 1.349 3.54 1.349.803 0 1.676-.21 2.666-.641.577-.309 1.233-.465 1.952-.465.89 0 1.872.245 2.916.728a4.37 4.37 0 001.854.398c1.004 0 2.05-.314 3.021-.907 1.209-.739 3.464-2.798 4.97-4.253.536-.126 1.04-.236 1.478-.32-.429.522-4.628 4.634-6.448 5.746-.971.594-2.017.908-3.021.908a4.385 4.385 0 01-1.854-.398" fill="url(#v)"/></g></g></g><path d="M527.033 49.017a1077.42 1077.42 0 00-7.522-1.801c.63-1.957 4.883-6.906 14.7-7.247 10.284-.357 14.794 7.206 14.794 7.206l-.004.002c-.059-.003-.118-.007-.188-.003-1.306.073-4.552.899-6.895 1.583-1.29-.646-4.307-.641-7.982-.566-2.743.057-5.12.608-6.338.947a12.849 12.849 0 01-.565-.121" fill="url(#w)" transform="matrix(.6244 0 0 -.62815 -319.81 43.94)"/><g clip-path="url(#x)" transform="matrix(.6244 0 0 -.62815 -319.81 43.94)"><path d="M548.83 47.394l.156.004.113-.023-.004.002.1-.314c-.398-.632-.85-1.192-1.331-1.741a19.011 19.011 0 00-1.534-1.55 19.077 19.077 0 00-1.716-1.357l-.924-.593c-.314-.188-.643-.351-.964-.527-.32-.184-.66-.321-.992-.48-.336-.15-.663-.328-1.014-.44-.348-.123-.695-.25-1.042-.385-.35-.127-.711-.21-1.068-.315-.708-.23-1.47-.314-2.224-.45-.75-.095-1.441-.08-2.164-.105l-1.143.084c-.367.039-.734.06-1.098.135-.727.139-1.453.264-2.162.48-.716.174-1.407.447-2.107.66-.683.277-1.368.534-2.032.848a10.84 10.84 0 00-.983.49l-.483.262-.466.292c-.312.19-.62.39-.91.615l-.443.325-.42.356c-.563.467-1.065 1.007-1.537 1.568-.466.568-.881 1.186-1.135 1.913l.159.283h-.001l4.042.967 2.02.484c.679.158 1.336.33 2.033.472l.047.01.054-.014.869-.22c.289-.08.585-.125.877-.188l.88-.173.884-.121c.296-.04.588-.088.886-.117l.903-.057.903-.057c.283-.013.597-.013.894-.02 1.204-.02 2.408-.035 3.606.01.3.008.598.023.895.049.298.02.596.04.887.086l.44.058.428.092c.294.047.545.169.81.262l.095.033.067-.018 1.7-.475c.568-.154 1.14-.292 1.71-.438.57-.155 1.138-.254 1.708-.385l.426-.093.438-.063zm-.033-.44l-.887.125-.438.063-.44.094c-.58.132-1.176.239-1.745.392-.573.147-1.15.287-1.721.44l-1.71.478.16.014c-.3-.111-.6-.247-.905-.295l-.456-.1-.456-.06a10.922 10.922 0 00-.913-.088 13.93 13.93 0 00-.911-.048c-1.214-.047-2.422-.032-3.63-.012-.305.008-.594.007-.914.02l-.902.058-.903.056c-.302.03-.605.08-.908.119l-.908.125-.895.176c-.297.064-.598.11-.891.192l-.885.223.1-.004c-.66-.134-1.343-.312-2.014-.468l-2.02-.484-4.042-.968h-.001l.16.282c.225-.625.623-1.22 1.072-1.75.458-.528.956-1.028 1.51-1.463l.412-.331.435-.301c.285-.21.586-.392.892-.57l.456-.267.474-.238c.314-.163.63-.32.96-.448.646-.293 1.322-.506 1.992-.735.687-.176 1.364-.387 2.066-.502.349-.062.694-.151 1.046-.191l1.057-.137c.699-.092 1.427-.105 2.114-.161l1.074.012c.356.014.722-.015 1.067.04.699.085 1.402.118 2.092.29.345.076.696.128 1.036.224l1.015.306c.343.089.662.245.993.37.327.132.659.254.97.425.314.162.635.31.942.484l.907.55c.585.395 1.159.809 1.696 1.269.54.457 1.046.95 1.526 1.469.469.524.92 1.08 1.29 1.659l.1-.313-.013.006.113-.023z" fill="#231f20"/></g><path d="M527.151 48.532c-2.865-.695-5.56-1.339-6.939-1.664.999-1.832 4.906-6.084 14.015-6.4.233-.008.461-.012.686-.012 7.602 0 11.832 4.541 13.183 6.295-1.663.246-4.462.989-6.139 1.475-.945-.397-2.563-.568-5.315-.568-.849 0-1.76.015-2.716.035-2.727.056-5.105.594-6.347.932a9.901 9.901 0 01-.428-.093" fill="url(#y)" transform="matrix(.6244 0 0 -.62815 -319.81 43.94)"/><path d="M527.151 48.532c-2.865-.695-5.56-1.339-6.939-1.664.999-1.832 4.906-6.084 14.015-6.4.233-.008.461-.012.686-.012 7.602 0 11.832 4.541 13.183 6.295-1.663.246-4.462.989-6.139 1.475-.945-.397-2.563-.568-5.315-.568-.849 0-1.76.015-2.716.035-2.727.056-5.105.594-6.347.932a9.901 9.901 0 01-.428-.093" fill="url(#z)" transform="matrix(.6244 0 0 -.62815 -319.81 43.94)"/><g clip-path="url(#A)" transform="matrix(.6244 0 0 -.62815 -319.81 43.94)"><g mask="url(#B)"><path d="M527.327 47.474a1616.19 1616.19 0 00-5.889-1.415c1.28-1.617 4.842-4.896 12.815-5.173.223-.008.443-.012.66-.012 6.105 0 9.915 3.025 11.778 5.044-1.777.371-3.877.955-4.7 1.19-1.059-.369-2.69-.529-5.349-.529-.853 0-1.77.016-2.732.036-2.704.055-5.081.575-6.353.911a6.543 6.543 0 01-.23-.052" fill="url(#C)"/></g></g><g clip-path="url(#D)" transform="matrix(.6244 0 0 -.62815 -319.81 43.94)"><g clip-path="url(#E)"><g mask="url(#G)" clip-path="url(#F)" opacity=".5"><path d="M543.904 38.607c-.232-.206-.546-.412-.892-.669-.339-.266-.765-.501-1.207-.79-.465-.252-.96-.545-1.517-.782l-.418-.19-.442-.167a9.088 9.088 0 00-.918-.315l-.477-.144a60.076 60.076 0 00-.494-.115 9.826 9.826 0 00-1.009-.195c-.684-.114-1.388-.153-2.092-.17-.703.012-1.409.04-2.095.144-.688.087-1.356.234-1.997.399a18.562 18.562 0 00-3.382 1.271c-.955.463-1.707.93-2.22 1.272-.516.345-.781.563-.781.564l-.276-.343.172-.212c.116-.132.279-.336.513-.563.233-.23.519-.508.874-.793.353-.289.76-.609 1.237-.909.469-.313 1-.625 1.587-.905a13.324 13.324 0 011.906-.779c.685-.207 1.403-.432 2.16-.53.751-.126 1.53-.174 2.31-.197.779.031 1.561.088 2.317.228l.564.103c.185.045.367.101.548.151l.536.156.52.186c.344.117.676.247.986.407l.466.224.437.247c.585.303 1.081.683 1.54 1.014.44.36.845.682 1.158 1.018.323.322.6.603.801.863.212.249.358.462.465.598l.159.212-.29.331-.749-.62" fill="url(#H)"/></g></g></g><path d="M0 0s-5.613 0-5.613-5.613v-26.192s0-5.612 5.613-5.612h26.192s5.613 0 5.613 5.612v26.192S31.805 0 26.192 0z" fill="none" stroke="#231f20" stroke-width=".66" transform="matrix(.6244 0 0 -.62815 5.052 1.438)"/></svg>