<svg xmlns="http://www.w3.org/2000/svg" width="100" height="100" viewBox="0 0 26.458 26.458"><defs><linearGradient x1="0" y1="0" x2="1" y2="0" gradientUnits="userSpaceOnUse" gradientTransform="scale(18.61804 -18.61804) rotate(-66.313 10.631 -24.27)" spreadMethod="pad" id="m"><stop offset="0" stop-color="#fff"/><stop offset="1" stop-color="#fff"/></linearGradient><linearGradient x1="0" y1="0" x2="1" y2="0" gradientUnits="userSpaceOnUse" gradientTransform="scale(18.61804 -18.61804) rotate(-66.313 10.631 -24.27)" spreadMethod="pad" id="b"><stop offset="0" stop-color="#fff"/><stop offset="1" stop-opacity="0" stop-color="#fff"/></linearGradient><linearGradient x1="0" y1="0" x2="1" y2="0" gradientUnits="userSpaceOnUse" gradientTransform="scale(52.91519 -52.91519) rotate(45 7.43 10.677)" spreadMethod="pad" id="c"><stop offset="0" stop-color="#ebdac2"/><stop offset=".004" stop-color="#ebdac2"/><stop offset="1" stop-color="#e29e8a"/></linearGradient><linearGradient x1="0" y1="0" x2="1" y2="0" gradientUnits="userSpaceOnUse" gradientTransform="matrix(0 33.1356 33.1356 0 543.23 73.748)" spreadMethod="pad" id="d"><stop offset="0" stop-color="#e29e8a"/><stop offset="1" stop-color="#bd6c6d"/></linearGradient><linearGradient x1="0" y1="0" x2="1" y2="0" gradientUnits="userSpaceOnUse" gradientTransform="matrix(0 23.9855 23.9855 0 534.82 83.733)" spreadMethod="pad" id="f"><stop offset="0" stop-color="#e29e8a"/><stop offset="1" stop-color="#bd6c6d"/></linearGradient><linearGradient x1="0" y1="0" x2="1" y2="0" gradientUnits="userSpaceOnUse" gradientTransform="matrix(0 22.79687 22.79687 0 535.89 84.436)" spreadMethod="pad" id="h"><stop offset="0" stop-color="#bd6c6d"/><stop offset=".012" stop-color="#bd6c6d"/><stop offset="1" stop-color="#e29e8a"/></linearGradient><clipPath clipPathUnits="userSpaceOnUse" id="k"><path d="M533.794 103.782s-2.032-4.231-6.401-5.867c-1.949-.729-3.097-2.303-3.131-3.872v-.142c.04-1.903 1.735-3.762 5.647-4.066 2.4-.184 4.233-.128 5.721-.073 2.94.108 4.537.216 6.504-1.515h.002c1.058 1.28 1.41 4.237-2.297 6.179 1.015 5.208 1.767 7.459 1.767 7.459l.176-5.092s2.471 10.52 4.016 13.567c-.313.686-1.376 1.816-3.056 1.816-2.102 0-5.171-1.769-8.948-8.394"/></clipPath><clipPath clipPathUnits="userSpaceOnUse" id="a"><path d="M-13903.2 14492.5H14932v-28835.2h-28835.2z"/></clipPath><clipPath clipPathUnits="userSpaceOnUse" id="j"><path d="M524.261 112.176h21.537v-23.93h-21.537z"/></clipPath><clipPath clipPathUnits="userSpaceOnUse" id="i"><path d="M520.271 112.562s-5.612 0-5.612-5.612V80.753c.001-.168.085-5.529 5.491-5.607h26.361c.546.015 5.564.304 5.564 5.611v26.193s0 5.612-5.612 5.612z"/></clipPath><clipPath clipPathUnits="userSpaceOnUse" id="e"><path d="M520.271 112.562s-5.612 0-5.612-5.612V80.753c.001-.168.085-5.529 5.491-5.607h26.361c.546.015 5.564.304 5.564 5.611v26.193s0 5.612-5.612 5.612z"/></clipPath><clipPath clipPathUnits="userSpaceOnUse" id="g"><path d="M520.271 112.562s-5.612 0-5.612-5.612V80.753c.001-.168.085-5.529 5.491-5.607h26.361c.546.015 5.564.304 5.564 5.611v26.193s0 5.612-5.612 5.612z"/></clipPath><mask maskUnits="userSpaceOnUse" x="0" y="0" width="1" height="1" id="l"><g clip-path="url(#a)"><path d="M512.575 92.677l13.832 31.53 29.491-12.938-13.832-31.53z" fill="url(#b)"/></g></mask></defs><path d="M520.271 112.562s-5.612 0-5.612-5.612V80.753c.001-.169.085-5.529 5.492-5.607h26.36c.547.015 5.564.305 5.564 5.611v26.193s0 5.612-5.612 5.612z" fill="url(#c)" transform="matrix(.62536 0 0 -.62538 -320.318 71.923)"/><path d="M538.322 112.562c-2.17-5.68-8.83-24.246-4.38-27.344 2.058-1.431-2.419-8.204-3.712-10.072h16.281c.547.015 5.564.305 5.564 5.611v26.193s0 5.612-5.612 5.612z" fill="url(#d)" transform="matrix(.62536 0 0 -.62538 -320.318 71.923)"/><g clip-path="url(#e)" transform="matrix(.62536 0 0 -.62538 -320.318 71.923)"><path d="M529.893 74.667s6.441 8.887 4.05 10.551c-5.268 3.666 5.025 28.994 5.025 28.994l19.415-.825-2.75-39.985-27.555-.935z" fill="none" stroke="#6f4324" stroke-width=".44" stroke-miterlimit="10"/></g><path d="M538.303 112.562c-.924-1.677-4.107-7.407-5.084-8.646-1.147-1.457-1.854-3.708-6.488-5.783-4.635-2.074-4.061-6.973-.221-8.827s4.413-2.692 6.974-4.679c2.56-1.986 6.665-3.266 11.828 1.192.884.662 1.943 4.369-1.412 7.679l-5.216 19.064z" fill="url(#f)" transform="matrix(.62536 0 0 -.62538 -320.318 71.923)"/><g clip-path="url(#g)" transform="matrix(.62536 0 0 -.62538 -320.318 71.923)"><path d="M538.75 112.918l-1.257-2.3c-.4-.73-.902-1.608-1.484-2.614a96.527 96.527 0 00-2.009-3.352l-.629-.91c-.218-.3-.44-.607-.646-.926-.205-.314-.446-.641-.676-.968l-.393-.47a4.028 4.028 0 00-.42-.457c-1.175-1.193-2.692-2.115-4.33-2.84-.804-.378-1.587-.817-2.21-1.478-.625-.648-1.062-1.504-1.163-2.424-.043-.458-.036-.93.076-1.382.06-.226.113-.453.22-.663l.138-.322c.054-.104.12-.201.18-.302.485-.802 1.202-1.452 2.02-1.907.83-.451 1.69-.872 2.53-1.308.424-.214.813-.5 1.22-.745l.603-.381c.194-.138.377-.286.566-.427 1.522-1.1 2.867-2.418 4.467-3.094a7.28 7.28 0 014.886-.344l.29.072.278.1.552.198c.35.173.707.312 1.033.504.663.364 1.271.775 1.83 1.205.27.221.552.438.795.648.143.127.186.217.271.348.077.131.143.27.195.415.221.572.297 1.174.29 1.73a6.206 6.206 0 01-.713 2.783 7.783 7.783 0 01-1.06 1.544l-.455.491-.017.018a.22.22 0 10.323.298l.004-.003.462-.526a9.356 9.356 0 001.092-1.643c.195-.378.382-.816.516-1.313.16-.49.242-1.049.266-1.647a5.52 5.52 0 00-.278-1.9 2.892 2.892 0 00-.209-.492 1.954 1.954 0 00-.343-.47c-.267-.253-.53-.47-.806-.715-1.127-.905-2.425-1.904-4.108-2.423a7.997 7.997 0 00-2.686-.406 7.57 7.57 0 00-2.8.625c-.223.098-.449.194-.66.316-.215.114-.433.227-.643.374l-.316.212-.273.207c-.098.077-.165.124-.289.225l-.265.223c-.359.294-.706.607-1.056.92-.35.315-.694.596-1.032.92-.17.153-.338.317-.512.466l-.539.417c-.368.272-.707.581-1.11.834-.805.511-1.616 1-2.42 1.531-.102.07-.206.133-.304.205-.092.081-.186.157-.28.233l-.282.23-.252.26-.248.261c-.075.094-.143.193-.214.29-.07.097-.14.193-.214.287l-.179.31c-.058.103-.123.204-.175.31l-.133.331c-.1.216-.15.448-.204.678a4.384 4.384 0 00-.114 1.403c.012.235.087.461.114.697.058.227.142.45.213.676l.322.633.404.59c.15.183.318.35.48.528.156.18.36.316.541.48.094.074.188.161.283.228l.285.186c.198.128.355.24.587.377l1.098.691c.186.107.353.235.515.367l.49.382c.34.232.624.512.915.775.3.254.546.547.808.816.507.566.912 1.144 1.355 1.803.222.343.444.647.661.946l.31.446.292.408c.382.588.754 1.146 1.091 1.701l.994 1.548c.631.97 1.177 1.822 1.65 2.51.463.694.844 1.23 1.103 1.596l.406.557.016.022a.22.22 0 00.37-.233" fill="#6f4324"/></g><path d="M539 112.275c-.881-1.598-4.16-7.511-5.193-8.822a12.59 12.59 0 01-.608-.873c-.938-1.42-2.222-3.366-6.163-5.131-1.787-.799-2.824-2.132-2.846-3.656-.023-1.555.991-3.015 2.645-3.813 3.062-1.479 4.146-2.364 5.645-3.59.429-.349.896-.732 1.462-1.172 1.422-1.103 2.944-1.663 4.521-1.663 2.045 0 4.185.952 6.36 2.83l.04.032c.129.097.505.689.575 1.736.066.973-.115 2.889-2.063 4.813l-.233.23.011.326c.136 4.453 1.249 13.627 4.438 18.753z" fill="url(#h)" transform="matrix(.62536 0 0 -.62538 -320.318 71.923)"/><g clip-path="url(#i)" transform="matrix(.62536 0 0 -.62538 -320.318 71.923)"><path d="M531.85 88.89s1.634-.22 3.355 0c1.721.222 5.385-.528 6.135-2.69.221-.354-1.236-1.502-3.575 0-2.34 1.5-2.604 2.028-4.017 2.028-1.412 0-1.898.22-1.898.663" fill="#412b23"/><g clip-path="url(#j)"><g mask="url(#l)" clip-path="url(#k)" opacity=".5"><path d="M533.794 103.782s-2.032-4.231-6.401-5.867c-1.949-.729-3.097-2.303-3.131-3.872v-.142c.04-1.903 1.735-3.762 5.647-4.066 2.4-.184 4.233-.128 5.721-.073 2.94.108 4.537.216 6.504-1.515h.002c1.058 1.28 1.41 4.237-2.297 6.179 1.015 5.208 1.767 7.459 1.767 7.459l.176-5.092s2.471 10.52 4.016 13.567c-.313.686-1.376 1.816-3.056 1.816-2.102 0-5.171-1.769-8.948-8.394" fill="url(#m)"/></g></g><path d="M533.261 87.18s.006-.094-.02-.27a2.712 2.712 0 00-.233-.736 3.686 3.686 0 00-.697-.992c-.326-.344-.756-.668-1.26-.96-1.013-.578-2.325-.986-3.748-1.23a20.862 20.862 0 01-2.082-.45 19.725 19.725 0 01-5.835-2.682 16.863 16.863 0 01-2.789-2.353 12.688 12.688 0 01-1.539-1.98 8.927 8.927 0 01-.343-.595l-.113-.213-1.252.717.144.236c.092.154.237.374.43.647.388.547.993 1.292 1.826 2.075a18.075 18.075 0 003.116 2.324 20.567 20.567 0 004.043 1.84 20.23 20.23 0 004.336.92c1.396.15 2.687.466 3.697.962.502.25.936.535 1.27.847.34.307.58.63.737.919.16.287.235.537.274.708.038.172.038.267.038.267m3.123-1.375s.055-.334.126-.924c.025-.293.086-.663-.046-1.083-.122-.443-.598-.734-1.071-.914-.978-.36-2.162-.54-3.407-.775a29.776 29.776 0 01-1.898-.41c-.318-.084-.639-.165-.952-.272a10.196 10.196 0 01-.938-.327 12.288 12.288 0 01-1.77-.841 11.2 11.2 0 01-1.55-1.07c-.118-.097-.241-.185-.351-.285a652.26 652.26 0 00-.322-.307c-.21-.206-.427-.391-.602-.611l-.535-.611c-.163-.207-.307-.417-.452-.612-.301-.384-.52-.777-.727-1.115-.101-.171-.203-.325-.284-.477l-.212-.424-.402-.802-.721.357.451.82.238.432c.09.155.203.314.315.488.23.345.474.745.805 1.136.16.199.319.412.497.62l.586.622c.192.22.428.409.656.614l.349.308c.12.1.251.19.378.286.506.39 1.068.74 1.659 1.052.592.31 1.218.584 1.861.8.321.114.645.215.972.299.326.096.655.167.981.24.652.142 1.301.246 1.93.34 1.254.19 2.438.327 3.403.644.468.16.917.414 1.043.822.141.389.097.76.082 1.054-.05.59-.092.926-.092.926m2.211-.865s.22-.04.571-.216c.174-.088.384-.215.576-.428.195-.202.375-.515.387-.889.027-.369-.076-.768-.26-1.128a3.243 3.243 0 00-.31-.537 4.283 4.283 0 00-.383-.512c-.277-.34-.572-.652-.865-.968l-.895-.965-.889-.964c-.292-.316-.57-.63-.825-.938a11.819 11.819 0 01-.704-.892c-.227-.28-.379-.568-.54-.82-.173-.249-.254-.502-.362-.71-.047-.108-.1-.204-.133-.299a201.006 201.006 0 00-.237-.757l-1.234.417.246.572c.04.09.082.191.13.301.051.107.123.214.191.333.148.232.282.516.498.774.207.265.414.567.681.84.255.286.527.583.83.866.587.587 1.251 1.167 1.904 1.754.65.59 1.33 1.161 1.904 1.74a3.9 3.9 0 01.401.446c.132.147.234.308.33.468.197.315.313.657.318.978.018.324-.114.612-.277.815-.159.213-.35.355-.512.455-.325.203-.54.264-.54.264M540.467 84.215s.129-.1.319-.314.442-.544.648-1.004a4.07 4.07 0 00.357-1.689 5.608 5.608 0 00-.1-.98l-.167-.953a19.4 19.4 0 01-.15-.94c-.053-.31-.06-.606-.088-.892-.001-.285-.01-.557.01-.813.036-.256.039-.494.09-.715l.124-.598.139-.459.12-.397-.97-.252s-.03.162-.086.445l-.098.511-.07.674c-.03.246-.01.518-.017.801.007.284.045.583.079.89.059.302.102.62.186.928.073.313.156.628.246.94.162.627.382 1.24.437 1.833a3.787 3.787 0 01-.189 1.613 3.817 3.817 0 01-.535 1.031c-.166.228-.285.34-.285.34" fill="#fff"/></g><path d="M0 0s-5.613 0-5.613-5.613v-26.192s0-5.612 5.613-5.612h26.192s5.613 0 5.613 5.612v26.192S31.805 0 26.192 0z" fill="none" stroke="#231f20" stroke-width=".66" transform="matrix(.62536 0 0 -.62538 5.04 1.53)"/></svg>