<svg xmlns="http://www.w3.org/2000/svg" width="100" height="100" viewBox="0 0 26.458 26.458"><defs><clipPath id="s" clipPathUnits="userSpaceOnUse"><path d="M134.248 651.371s-5.612 0-5.612-5.612v-26.195c.001-.171.087-5.61 5.612-5.61h26.193s5.613 0 5.613 5.613v26.192s0 5.612-5.613 5.612z"/></clipPath><clipPath id="N" clipPathUnits="userSpaceOnUse"><path d="M134.248 651.371s-5.612 0-5.612-5.612v-26.195c.001-.171.087-5.61 5.612-5.61h26.193s5.613 0 5.613 5.613v26.192s0 5.612-5.613 5.612z"/></clipPath><clipPath id="n" clipPathUnits="userSpaceOnUse"><path d="M139.82 632.342l13.733 13.734 13.733-13.734-13.733-13.733z"/></clipPath><clipPath id="H" clipPathUnits="userSpaceOnUse"><path d="M136.563 638.008l4.141-1.333 16.261 4.559-4.582 1.319z"/></clipPath><clipPath id="a" clipPathUnits="userSpaceOnUse"><path d="M-14289.2 15031.3H14546v-28835.2h-28835.2z"/></clipPath><clipPath id="b" clipPathUnits="userSpaceOnUse"><path d="M136.563 642.554h20.402v-5.878h-20.402z"/></clipPath><clipPath id="G" clipPathUnits="userSpaceOnUse"><path d="M134.248 651.371s-5.612 0-5.612-5.612v-26.195c.001-.171.087-5.61 5.612-5.61h26.193s5.613 0 5.613 5.613v26.192s0 5.612-5.613 5.612z"/></clipPath><clipPath id="D" clipPathUnits="userSpaceOnUse"><path d="M136.563 632.177l4.141-1.086v5.43l-4.141 1.333z"/></clipPath><clipPath id="d" clipPathUnits="userSpaceOnUse"><path d="M-14289.2 15031.3H14546v-28835.2h-28835.2z"/></clipPath><clipPath id="e" clipPathUnits="userSpaceOnUse"><path d="M136.563 637.854h4.141v-6.764h-4.141z"/></clipPath><clipPath id="A" clipPathUnits="userSpaceOnUse"><path d="M149.378 643.032l-.014.004.014-.004m-3.799-7.353l14.223 4.039-10.424 3.314c.439-.14 10.113-3.338-3.799-7.353"/></clipPath><clipPath id="g" clipPathUnits="userSpaceOnUse"><path d="M-14289.2 15031.3H14546v-28835.2h-28835.2z"/></clipPath><clipPath id="h" clipPathUnits="userSpaceOnUse"><path d="M142.393 641.197l13.854 7.999 6.742-11.678-13.854-7.998z"/></clipPath><clipPath id="x" clipPathUnits="userSpaceOnUse"><path d="M134.244 638.117l1.612-.501c-.509.188-1.046.356-1.612.501zm10.901-14.548v11.157l-9.289 2.89c7.712-2.854 9.088-10.392 9.289-14.047m0-2.043s.068.795 0 2.043z"/></clipPath><clipPath id="j" clipPathUnits="userSpaceOnUse"><path d="M-14289.2 15031.3H14546v-28835.2h-28835.2z"/></clipPath><clipPath id="k" clipPathUnits="userSpaceOnUse"><path d="M134.244 638.117h10.969v-16.591h-10.969z"/></clipPath><clipPath id="u" clipPathUnits="userSpaceOnUse"><path d="M134.248 651.371s-5.612 0-5.612-5.612v-26.195c.001-.171.087-5.61 5.612-5.61h26.193s5.613 0 5.613 5.613v26.192s0 5.612-5.613 5.612z"/></clipPath><clipPath id="v" clipPathUnits="userSpaceOnUse"><path d="M133.315 643.567h28.376V620.76h-28.376z"/></clipPath><clipPath id="w" clipPathUnits="userSpaceOnUse"><path d="M133.315 620.76h28.376v22.807h-28.376z"/></clipPath><clipPath id="t" clipPathUnits="userSpaceOnUse"><path d="M133.209 620.47h28.541v23.422h-28.541z"/></clipPath><clipPath id="m" clipPathUnits="userSpaceOnUse"><path d="M-32768 32767h65535v-65535h-65535z"/></clipPath><clipPath id="r" clipPathUnits="userSpaceOnUse"><path d="M132.549 619.81h29.86v24.742h-29.86z"/></clipPath><clipPath id="p" clipPathUnits="userSpaceOnUse"><path d="M134.248 651.371s-5.612 0-5.612-5.612v-26.195c.001-.171.087-5.61 5.612-5.61h26.193s5.613 0 5.613 5.613v26.192s0 5.612-5.613 5.612z"/></clipPath><clipPath id="K" clipPathUnits="userSpaceOnUse"><path d="M146.384 634.674c11.817 3.424 13.975-3.038 14.298-6.638v10.796zm-.075-.022l.075.022zm14.373-8.799s.115.914 0 2.183z"/></clipPath><linearGradient id="M" spreadMethod="pad" gradientTransform="scale(13.1189 -13.1189) rotate(-45 -52.066 -37.963)" gradientUnits="userSpaceOnUse" y2="0" x2="1" y1="0" x1="0"><stop offset="0" stop-color="#f9a72b"/><stop offset="1" stop-color="#f9a72b"/></linearGradient><linearGradient id="i" spreadMethod="pad" gradientTransform="scale(14.33803 -14.33803) rotate(-30 -77.71 -41.099)" gradientUnits="userSpaceOnUse" y2="0" x2="1" y1="0" x1="0"><stop offset="0" stop-opacity="0" stop-color="#fff"/><stop offset="1" stop-opacity=".7" stop-color="#fff"/></linearGradient><linearGradient id="z" spreadMethod="pad" gradientTransform="matrix(10.93095 0 0 -10.93095 134.244 629.821)" gradientUnits="userSpaceOnUse" y2="0" x2="1" y1="0" x1="0"><stop offset="0" stop-color="#f9a72b"/><stop offset="1" stop-color="#bf935b"/></linearGradient><linearGradient id="l" spreadMethod="pad" gradientTransform="matrix(10.93095 0 0 -10.93095 134.244 629.821)" gradientUnits="userSpaceOnUse" y2="0" x2="1" y1="0" x1="0"><stop offset="0" stop-opacity="0" stop-color="#fff"/><stop offset="1" stop-opacity=".7" stop-color="#fff"/></linearGradient><linearGradient id="o" spreadMethod="pad" gradientTransform="scale(13.1189 -13.1189) rotate(-45 -52.066 -37.963)" gradientUnits="userSpaceOnUse" y2="0" x2="1" y1="0" x1="0"><stop offset="0" stop-opacity="0" stop-color="#fff"/><stop offset="1" stop-opacity=".8" stop-color="#fff"/></linearGradient><linearGradient id="C" spreadMethod="pad" gradientTransform="scale(14.33803 -14.33803) rotate(-30 -77.71 -41.099)" gradientUnits="userSpaceOnUse" y2="0" x2="1" y1="0" x1="0"><stop offset="0" stop-color="#bf935b"/><stop offset="1" stop-color="#bf935b"/></linearGradient><linearGradient id="F" spreadMethod="pad" gradientTransform="matrix(4.14022 0 0 -4.14022 136.563 634.473)" gradientUnits="userSpaceOnUse" y2="0" x2="1" y1="0" x1="0"><stop offset="0" stop-color="#fff"/><stop offset="1" stop-color="#fff"/></linearGradient><linearGradient id="f" spreadMethod="pad" gradientTransform="matrix(4.14022 0 0 -4.14022 136.563 634.473)" gradientUnits="userSpaceOnUse" y2="0" x2="1" y1="0" x1="0"><stop offset="0" stop-opacity="0" stop-color="#fff"/><stop offset="1" stop-opacity=".5" stop-color="#fff"/></linearGradient><linearGradient id="q" spreadMethod="pad" gradientTransform="matrix(0 37.41712 37.41712 0 147.345 613.954)" gradientUnits="userSpaceOnUse" y2="0" x2="1" y1="0" x1="0"><stop offset="0" stop-color="#00adef"/><stop offset="1" stop-color="#def4fd"/></linearGradient><linearGradient id="J" spreadMethod="pad" gradientTransform="matrix(20.40184 0 0 -20.40184 136.563 639.615)" gradientUnits="userSpaceOnUse" y2="0" x2="1" y1="0" x1="0"><stop offset="0" stop-color="#fff"/><stop offset="1" stop-color="#fff"/></linearGradient><linearGradient id="c" spreadMethod="pad" gradientTransform="matrix(20.40184 0 0 -20.40184 136.563 639.615)" gradientUnits="userSpaceOnUse" y2="0" x2="1" y1="0" x1="0"><stop offset="0" stop-opacity="0" stop-color="#fff"/><stop offset="1" stop-opacity=".7" stop-color="#fff"/></linearGradient><mask id="I" height="1" width="1" y="0" x="0" maskUnits="userSpaceOnUse"><g clip-path="url(#a)"><g clip-path="url(#b)"><path d="M136.563 642.554h20.402v-5.878h-20.402z" fill="url(#c)"/></g></g></mask><mask id="E" height="1" width="1" y="0" x="0" maskUnits="userSpaceOnUse"><g clip-path="url(#d)"><g clip-path="url(#e)"><path d="M136.563 637.854h4.141v-6.764h-4.141z" fill="url(#f)"/></g></g></mask><mask id="B" height="1" width="1" y="0" x="0" maskUnits="userSpaceOnUse"><g clip-path="url(#g)"><g clip-path="url(#h)"><path d="M142.393 641.197l13.854 7.999 6.742-11.678-13.854-7.998z" fill="url(#i)"/></g></g></mask><mask id="y" height="1" width="1" y="0" x="0" maskUnits="userSpaceOnUse"><g clip-path="url(#j)"><g clip-path="url(#k)"><path d="M134.244 638.117h10.969v-16.591h-10.969z" fill="url(#l)"/></g></g></mask><mask id="L" height="1" width="1" y="0" x="0" maskUnits="userSpaceOnUse"><g clip-path="url(#m)"><g clip-path="url(#n)"><path d="M139.82 632.342l13.733 13.734 13.733-13.734-13.733-13.733z" fill="url(#o)"/></g></g></mask></defs><g clip-path="url(#p)" transform="matrix(.62536 0 0 -.62538 -78.914 408.88)"><path d="M134.248 651.371s-5.612 0-5.612-5.612v-26.195c.001-.171.087-5.61 5.612-5.61h26.193s5.613 0 5.613 5.613v26.192s0 5.612-5.613 5.612z" fill="url(#q)"/></g><g clip-path="url(#r)" transform="matrix(.62536 0 0 -.62538 -78.915 408.881)" fill="none" stroke="#fff" stroke-width="2.2" stroke-linecap="round" stroke-linejoin="round"><path d="M161.31 639.718l-.047-14.262-15.684-4.546.047 14.261zm-15.731-18.808l-11.93 3.734.047 14.262 11.93-3.734zm.047 14.262l-11.93 3.734 15.684 4.546 11.93-3.734z"/><path d="M161.31 639.718l-.047-14.262-15.684-4.546.047 14.261zm-15.731-18.808l-11.93 3.734.047 14.262 11.93-3.734zm.047 14.262l-11.93 3.734 15.684 4.546 11.93-3.734z"/><path d="M161.31 639.718l-.047-14.262-15.684-4.546.047 14.261zm-15.731-18.808l-11.93 3.734.047 14.262 11.93-3.734zm.047 14.262l-11.93 3.734 15.684 4.546 11.93-3.734z"/></g><g clip-path="url(#s)" transform="matrix(.62536 0 0 -.62538 -78.915 408.881)" fill="none" stroke="#fff" stroke-width="2.2" stroke-linecap="round" stroke-linejoin="round"><path d="M134.244 638.117l10.9-3.391v-13.2s1.165 13.498-10.9 16.59zm11.335-2.438l14.224 4.039-10.44 3.319s10.445-3.252-3.784-7.358z"/><path d="M140.704 636.521v-5.43l-4.14 1.086v5.677zm-2.24.875l16.19 4.524m2.311-.686l-16.26-4.558-4.142 1.333 15.82 4.545zm-10.655-6.582l14.373 4.18v-12.979s1.687 13.492-14.373 8.8z"/><path d="M152.707 628.118c-.138 1.006.224 2.161 1.078 3.417.67.971 1.082 1.698 1.072 2.322-.009.529-.276.602-.563.602-.147 0-.319-.027-.512-.079-.536-.155-1.14-.509-1.5-.881l-.446-.46-.823 1.77.218.218c.61.609 1.63 1.182 2.6 1.462.43.124.834.187 1.201.187 1.331 0 2.204-.858 2.226-2.186.02-1.218-.633-2.268-1.488-3.514-.653-.952-.907-1.668-.849-2.393l.045-.78-2.164-.624zm.856-3.97c-.667 0-1.142.494-1.153 1.201a1.805 1.805 0 001.748 1.816c.673 0 1.134-.491 1.147-1.22.013-.795-.53-1.508-1.318-1.735a1.554 1.554 0 00-.424-.062z"/><path d="M155.032 637.116h0c-.408 0-.853-.07-1.324-.204-1.036-.298-2.13-.916-2.789-1.574l-.435-.435.26-.558.423-.911.541-1.161.89.92c.305.316.845.63 1.313.766.18.049.31.06.383.06a.508.508 0 00.103-.01.628.628 0 00.02-.16c.008-.504-.39-1.19-.993-2.062-.915-1.347-1.302-2.6-1.153-3.727l.04-.4.097-.966a2.207 2.207 0 01-.438-1.351c.015-.948.686-1.635 1.593-1.635.178 0 .362.027.546.08.98.28 1.651 1.17 1.636 2.163-.01.626-.284 1.13-.722 1.41l.402.116-.04.702-.024.419c-.038.477.03 1.049.772 2.13.9 1.31 1.587 2.422 1.565 3.769-.026 1.567-1.097 2.619-2.666 2.619zm-.874-10.391c.423 0 .698-.296.707-.788.01-.571-.374-1.123-.999-1.304a1.135 1.135 0 00-.303-.045c-.427 0-.705.3-.713.769-.01.604.406 1.15 1 1.32a1.1 1.1 0 00.308.048m.874 9.51c1.202 0 1.77-.771 1.786-1.752.018-1.11-.613-2.095-1.41-3.258-.73-1.064-.99-1.86-.926-2.677l.024-.42-1.319-.38-.042.415c-.117.85.173 1.902 1.004 3.124.747 1.085 1.16 1.842 1.148 2.577-.01.649-.348 1.035-1.003 1.035-.184 0-.393-.03-.627-.094-.61-.177-1.284-.567-1.702-1l-.424.91c.554.553 1.515 1.093 2.411 1.35.405.118.764.17 1.08.17"/></g><g clip-path="url(#t)" transform="matrix(.62536 0 0 -.62538 -78.915 408.881)"><path d="M161.31 639.718l-.047-14.262-15.684-4.546.047 14.261zm-15.731-18.808l-11.93 3.734.047 14.262 11.93-3.734zm.047 14.262l-11.93 3.734 15.684 4.546 11.93-3.734z" fill="none" stroke="#351f17" stroke-width=".88" stroke-linecap="round" stroke-linejoin="round"/></g><g clip-path="url(#u)" transform="matrix(.62536 0 0 -.62538 -78.915 408.881)"><g clip-path="url(#v)"><g clip-path="url(#w)"><path d="M161.31 639.718l-.047-14.262-15.684-4.546.047 14.261z" fill="#dc9140"/><path d="M161.31 639.718l-.047-14.262-15.684-4.546.047 14.261z" fill="none" stroke="#bf935b" stroke-width=".22"/><path d="M145.579 620.91l-11.93 3.734.047 14.262 11.93-3.734z" fill="#ae7232"/><path d="M145.579 620.91l-11.93 3.734.047 14.262 11.93-3.734z" fill="none" stroke="#351f17" stroke-width=".22"/><path d="M145.626 635.172l-11.93 3.734 15.684 4.546 11.93-3.734z" fill="#9e5e2d"/><path d="M145.626 635.172l-11.93 3.734 15.684 4.546 11.93-3.734z" fill="none" stroke="#351f17" stroke-width=".22"/></g></g></g><g clip-path="url(#x)" transform="matrix(.62536 0 0 -.62538 -78.915 408.881)"><g mask="url(#y)"><path d="M134.244 638.117l1.612-.501c-.509.188-1.046.356-1.612.501zm10.901-14.548v11.157l-9.289 2.89c7.712-2.854 9.088-10.392 9.289-14.047m0-2.043s.068.795 0 2.043z" fill="url(#z)"/></g></g><g clip-path="url(#A)" transform="matrix(.62536 0 0 -.62538 -78.915 408.881)"><g mask="url(#B)"><path d="M149.378 643.032l-.014.004.014-.004m-3.799-7.353l14.223 4.039-10.424 3.314c.439-.14 10.113-3.338-3.799-7.353" fill="url(#C)"/></g></g><g clip-path="url(#D)" transform="matrix(.62536 0 0 -.62538 -78.915 408.881)"><g mask="url(#E)"><path d="M136.563 632.177l4.141-1.086v5.43l-4.141 1.333z" fill="url(#F)"/></g></g><g clip-path="url(#G)" transform="matrix(.62536 0 0 -.62538 -78.915 408.881)"><path d="M138.464 637.396l16.19 4.524" fill="none" stroke="#351f17" stroke-width=".22"/></g><g clip-path="url(#H)" transform="matrix(.62536 0 0 -.62538 -78.915 408.881)"><g mask="url(#I)"><path d="M136.563 638.008l4.141-1.333 16.261 4.559-4.582 1.319z" fill="url(#J)"/></g></g><g clip-path="url(#K)" transform="matrix(.62536 0 0 -.62538 -78.915 408.881)"><g mask="url(#L)"><path d="M146.384 634.674c11.817 3.424 13.975-3.038 14.298-6.638v10.796zm-.075-.022l.075.022zm14.373-8.799s.115.914 0 2.183z" fill="url(#M)"/></g></g><g clip-path="url(#N)" transform="matrix(.62536 0 0 -.62538 -78.915 408.881)"><path d="M152.707 628.118c-.138 1.006.224 2.161 1.078 3.417.67.971 1.082 1.698 1.072 2.322-.009.529-.276.602-.563.602-.147 0-.319-.027-.512-.079-.536-.155-1.14-.509-1.5-.881l-.446-.46-.823 1.77.218.218c.61.609 1.63 1.182 2.6 1.462.43.124.834.187 1.201.187 1.331 0 2.204-.858 2.226-2.186.02-1.218-.633-2.268-1.488-3.514-.653-.952-.907-1.668-.849-2.393l.045-.78-2.164-.624zm.856-3.97c-.667 0-1.142.494-1.153 1.201a1.805 1.805 0 001.748 1.816c.673 0 1.134-.491 1.147-1.22.013-.795-.53-1.508-1.318-1.735a1.554 1.554 0 00-.424-.062" fill="#231f20"/><path d="M155.032 637.116c-.408 0-.853-.07-1.324-.204-1.036-.298-2.13-.916-2.789-1.574l-.435-.435.26-.558.423-.911.541-1.161.89.92c.305.316.845.63 1.313.766.18.049.31.06.383.06a.508.508 0 00.103-.01.628.628 0 00.02-.16c.008-.504-.39-1.19-.993-2.062-.915-1.347-1.302-2.6-1.153-3.727l.04-.4.097-.966a2.207 2.207 0 01-.438-1.351c.015-.948.686-1.635 1.593-1.635.178 0 .362.027.546.08.98.28 1.651 1.17 1.636 2.163-.01.626-.284 1.13-.722 1.41l.402.116-.04.702-.024.419c-.038.477.03 1.049.772 2.13.9 1.31 1.587 2.422 1.565 3.769-.026 1.567-1.097 2.619-2.666 2.619m-.874-10.391c.423 0 .698-.296.707-.788.01-.571-.374-1.123-.999-1.304a1.135 1.135 0 00-.303-.045c-.427 0-.705.3-.713.769-.01.604.406 1.15 1 1.32a1.1 1.1 0 00.308.048m.874 9.51c1.202 0 1.77-.771 1.786-1.752.018-1.11-.613-2.095-1.41-3.258-.73-1.064-.99-1.86-.926-2.677l.024-.42-1.319-.38-.042.415c-.117.85.173 1.902 1.004 3.124.747 1.085 1.16 1.842 1.148 2.577-.01.649-.348 1.035-1.003 1.035-.184 0-.393-.03-.627-.094-.61-.177-1.284-.567-1.702-1l-.424.91c.554.553 1.515 1.093 2.411 1.35.405.118.764.17 1.08.17" fill="#f3ab5c"/></g><path d="M-81.444-144.569s-2.527 0-2.527-2.526v-11.79s0-2.527 2.527-2.527h11.79s2.527 0 2.527 2.526v11.79s0 2.527-2.527 2.527z" fill="none" stroke="#231f20" stroke-width=".297" transform="matrix(1.38921 0 0 -1.38924 118.183 -199.31)"/></svg>