<svg xmlns="http://www.w3.org/2000/svg" width="100" height="100" viewBox="0 0 26.458 26.458"><defs><clipPath id="Z" clipPathUnits="userSpaceOnUse"><path d="M-14243.7 15031.3h28835.2v-28835.2h-28835.2z"/></clipPath><clipPath id="U" clipPathUnits="userSpaceOnUse"><path d="M193.814 634.063h-3.376v-8.65h3.376z"/></clipPath><clipPath id="bR" clipPathUnits="userSpaceOnUse"><path d="M190.811 632.94l-.247-6.233s-.125-1.294.861-1.134c-.091-.011-.839-.01-.55 3.154 0 0 .448 5.336 2.768.369v1.43s-.115 1.679.115 2.183c-.183-.281-.804-1.113-1.667-1.047 0 0-1.187.11-1.28 1.278l.019.481a2.107 2.107 0 01-.019-.481m2.947-.231c.037.056.056.09.056.09a.365.365 0 01-.056-.09m-2.333-7.136a.066.066 0 01.009.002l-.009-.002"/></clipPath><clipPath id="I" clipPathUnits="userSpaceOnUse"><path d="M193.008 625.035h1.161v-6.157h-1.161z"/></clipPath><clipPath id="H" clipPathUnits="userSpaceOnUse"><path d="M-14243.7 15031.3h28835.2v-28835.2h-28835.2z"/></clipPath><clipPath id="bO" clipPathUnits="userSpaceOnUse"><path d="M193.12 624.62l-.003.415s0-.155.003-.415m.023-4.245c-.135-1.081.321-1.26.321-1.26.485-.237.705 0 .705 0-.908.08-1.033 4.173-1.049 5.505z"/></clipPath><clipPath id="w" clipPathUnits="userSpaceOnUse"><path d="M190.454 625.836h1.162v-6.158h-1.162z"/></clipPath><clipPath id="v" clipPathUnits="userSpaceOnUse"><path d="M-32768 32767h65535v-65535h-65535z"/></clipPath><clipPath id="bL" clipPathUnits="userSpaceOnUse"><path d="M190.567 625.419l-.003.418s-.001-.157.003-.418m.022-4.241c-.135-1.081.322-1.262.322-1.262.485-.237.705 0 .705 0-.909.082-1.033 4.167-1.049 5.503z"/></clipPath><clipPath id="k" clipPathUnits="userSpaceOnUse"><path d="M189.129 628.655l.452 5.222 1.082-.094-.452-5.221z"/></clipPath><clipPath id="j" clipPathUnits="userSpaceOnUse"><path d="M-14243.7 15031.3h28835.2v-28835.2h-28835.2z"/></clipPath><clipPath id="bI" clipPathUnits="userSpaceOnUse"><path d="M189.604 633.242s.012-3.281-.016-4.351c.046 1.052.239 4.776.628 4.931-.013-.002-.544-.094-.612-.58m-.028-4.625c.005.056.008.15.012.274a38.355 38.355 0 01-.012-.274"/></clipPath><clipPath id="e" clipPathUnits="userSpaceOnUse"><path d="M193.722 627.632l.451 5.222 1.083-.094-.451-5.221z"/></clipPath><clipPath id="d" clipPathUnits="userSpaceOnUse"><path d="M-14243.7 15031.3h28835.2v-28835.2h-28835.2z"/></clipPath><clipPath id="bF" clipPathUnits="userSpaceOnUse"><path d="M194.198 632.219s.011-3.258-.017-4.339c.047 1.068.241 4.765.628 4.919-.017-.003-.544-.097-.611-.58m-.029-4.625"/></clipPath><clipPath id="C" clipPathUnits="userSpaceOnUse"><path d="M190.415 638.533h2.404v-4.711h-2.404z"/></clipPath><clipPath id="B" clipPathUnits="userSpaceOnUse"><path d="M-14243.7 15031.3h28835.2v-28835.2h-28835.2z"/></clipPath><clipPath id="bC" clipPathUnits="userSpaceOnUse"><path d="M190.415 636.259c0-1.936 1.423-2.437 1.423-2.437-.871.94-1.114 2.258-1.114 2.258-.089 1.981 2.094 2.453 2.094 2.453-2.362-.436-2.403-2.274-2.403-2.274"/></clipPath><clipPath id="bA" clipPathUnits="userSpaceOnUse"><path d="M190.216 636.022a2.602 2.602 0 015.204 0 2.601 2.601 0 11-5.204 0"/></clipPath><clipPath id="by" clipPathUnits="userSpaceOnUse"><path d="M194.776 633.017a.962.962 0 01-.962-.962v-5.776c0-.531.43-.962.962-.962h.069c.531 0 .962.431.962.962v5.776a.962.962 0 01-.962.962z"/></clipPath><clipPath id="bw" clipPathUnits="userSpaceOnUse"><path d="M190.438 633.162v-6.877c0-.531.43-.962.962-.962l2.447-.498c.532 0 .963.43.963.962v6.876a.963.963 0 01-.963.963l-2.447.499a.962.962 0 01-.962-.963"/></clipPath><clipPath id="bu" clipPathUnits="userSpaceOnUse"><path d="M193.78 629.012a.963.963 0 01-.962-.963v-8.316c0-.531.431-.961.962-.961h.067c.532 0 .963.43.963.961v8.316a.963.963 0 01-.963.963z"/></clipPath><clipPath id="bs" clipPathUnits="userSpaceOnUse"><path d="M191.4 629.787c-.532 0-.962-.071-.962-.602v-8.676c0-.532.43-.963.962-.963h.068c.532 0 .962.431.962.963v8.316c0 .531-.43.962-.962.962z"/></clipPath><clipPath id="bq" clipPathUnits="userSpaceOnUse"><path d="M190.403 633.93a.962.962 0 01-.962-.962v-5.775c0-.532.431-.963.962-.963h.068c.532 0 .963.431.963.963v5.775a.962.962 0 01-.963.962z"/></clipPath><clipPath id="bp" clipPathUnits="userSpaceOnUse"><path d="M179.773 651.371s-5.612 0-5.612-5.612v-26.195c.001-.171.087-5.61 5.612-5.61h26.192s5.613 0 5.613 5.613v26.192s0 5.612-5.613 5.612z"/></clipPath><clipPath id="h" clipPathUnits="userSpaceOnUse"><path d="M184.035 643.048h-4.121v-10.561h4.121z"/></clipPath><clipPath id="g" clipPathUnits="userSpaceOnUse"><path d="M-14243.7 15031.3h28835.2v-28835.2h-28835.2z"/></clipPath><clipPath id="bm" clipPathUnits="userSpaceOnUse"><path d="M180.367 641.679l-.3-7.613s-.153-1.579 1.051-1.384c-.112-.014-1.025-.01-.673 3.851 0 0 .548 6.514 3.382.451v1.746s-.141 2.05.139 2.665c-.224-.343-.982-1.359-2.036-1.277 0 0-1.449.134-1.563 1.561l.024.585a2.64 2.64 0 01-.024-.585m3.599-.284c.045.068.069.11.069.11a.442.442 0 01-.069-.11m-2.848-8.713a.12.12 0 01.011.002.036.036 0 01-.011-.002"/></clipPath><clipPath id="n" clipPathUnits="userSpaceOnUse"><path d="M183.05 628.264h1.418v-7.517h-1.418z"/></clipPath><clipPath id="m" clipPathUnits="userSpaceOnUse"><path d="M-14243.7 15031.3h28835.2v-28835.2h-28835.2z"/></clipPath><clipPath id="bj" clipPathUnits="userSpaceOnUse"><path d="M183.187 627.756l-.003.508s-.001-.19.003-.508m.029-5.18c-.166-1.32.391-1.54.391-1.54.592-.29.861 0 .861 0-1.109.099-1.26 5.091-1.281 6.72z"/></clipPath><clipPath id="t" clipPathUnits="userSpaceOnUse"><path d="M179.932 629.244h1.419v-7.519h-1.419z"/></clipPath><clipPath id="s" clipPathUnits="userSpaceOnUse"><path d="M-32768 32767h65535v-65535h-65535z"/></clipPath><clipPath id="bg" clipPathUnits="userSpaceOnUse"><path d="M180.069 628.741l-.002.503s-.001-.188.002-.503m.028-5.186c-.165-1.319.393-1.54.393-1.54.591-.29.861 0 .861 0-1.111.1-1.262 5.102-1.282 6.726z"/></clipPath><clipPath id="z" clipPathUnits="userSpaceOnUse"><path d="M178.084 633.78l.782 9.041 1.551-.134-.782-9.041z"/></clipPath><clipPath id="y" clipPathUnits="userSpaceOnUse"><path d="M-14243.7 15031.3h28835.2v-28835.2h-28835.2z"/></clipPath><clipPath id="bd" clipPathUnits="userSpaceOnUse"><path d="M178.895 642.046s.012-5.814-.018-7.756c.062 1.964.297 8.272.763 8.463l-.001.001c-.037-.007-.663-.126-.744-.708m-.035-8.333c.007.086.012.289.017.577a46.998 46.998 0 01-.017-.577"/></clipPath><clipPath id="b" clipPathUnits="userSpaceOnUse"><path d="M183.693 632.53l.781 9.042 1.552-.134-.782-9.042z"/></clipPath><clipPath id="a" clipPathUnits="userSpaceOnUse"><path d="M-14243.7 15031.3h28835.2v-28835.2h-28835.2z"/></clipPath><clipPath id="ba" clipPathUnits="userSpaceOnUse"><path d="M184.503 640.796s.013-5.812-.017-7.754c.062 1.964.296 8.269.764 8.462h-.001c-.041-.007-.665-.127-.746-.708m-.035-8.333c.007.086.013.289.018.579l-.018-.579"/></clipPath><clipPath id="F" clipPathUnits="userSpaceOnUse"><path d="M179.884 648.506h2.935v-5.752h-2.935z"/></clipPath><clipPath id="E" clipPathUnits="userSpaceOnUse"><path d="M-32768 32767h65535v-65535h-65535z"/></clipPath><clipPath id="aX" clipPathUnits="userSpaceOnUse"><path d="M179.884 645.731c0-2.365 1.737-2.977 1.737-2.977-1.062 1.147-1.358 2.757-1.358 2.757-.11 2.42 2.556 2.995 2.556 2.995-2.873-.53-2.935-2.757-2.935-2.775"/></clipPath><clipPath id="aV" clipPathUnits="userSpaceOnUse"><path d="M179.642 645.44a3.176 3.176 0 016.353 0 3.176 3.176 0 11-6.353 0"/></clipPath><clipPath id="aT" clipPathUnits="userSpaceOnUse"><path d="M185.21 641.771a1.175 1.175 0 01-1.175-1.175v-8.126c0-.648.526-1.175 1.175-1.175h.083c.65 0 1.175.527 1.175 1.175v8.126c0 .649-.525 1.175-1.175 1.175z"/></clipPath><clipPath id="aR" clipPathUnits="userSpaceOnUse"><path d="M179.912 641.948v-8.397c0-.649.526-1.174 1.175-1.174l2.989-.609c.649 0 1.175.527 1.175 1.175v8.397c0 .649-.526 1.174-1.175 1.174l-2.989.609a1.175 1.175 0 01-1.175-1.175"/></clipPath><clipPath id="aP" clipPathUnits="userSpaceOnUse"><path d="M183.993 633.12a1.174 1.174 0 01-1.174-1.175v-10.154c0-.649.525-1.174 1.174-1.174h.083c.649 0 1.175.525 1.175 1.174v10.154c0 .649-.526 1.175-1.175 1.175z"/></clipPath><clipPath id="aN" clipPathUnits="userSpaceOnUse"><path d="M181.087 634.066c-.649 0-1.175-.085-1.175-.734v-10.594c0-.65.526-1.176 1.175-1.176h.083c.649 0 1.175.526 1.175 1.176v10.154c0 .649-.526 1.174-1.175 1.174z"/></clipPath><clipPath id="aL" clipPathUnits="userSpaceOnUse"><path d="M179.87 642.887a1.174 1.174 0 01-1.174-1.175v-8.126c0-.65.525-1.176 1.174-1.176h.083c.65 0 1.176.526 1.176 1.176v8.126c0 .649-.526 1.175-1.176 1.175z"/></clipPath><clipPath id="aK" clipPathUnits="userSpaceOnUse"><path d="M179.773 651.371s-5.612 0-5.612-5.612v-26.195c.001-.171.087-5.61 5.612-5.61h26.192s5.613 0 5.613 5.613v26.192s0 5.612-5.613 5.612z"/></clipPath><clipPath id="L" clipPathUnits="userSpaceOnUse"><path d="M203.936 624.576h1.419v-7.519h-1.419z"/></clipPath><clipPath id="K" clipPathUnits="userSpaceOnUse"><path d="M-32768 32767h65535v-65535h-65535z"/></clipPath><clipPath id="aH" clipPathUnits="userSpaceOnUse"><path d="M204.074 624.069l-.003.508s-.001-.19.003-.508m.027-5.181c-.165-1.321.392-1.54.392-1.54.593-.291.862 0 .862 0-1.11.099-1.261 5.094-1.281 6.721z"/></clipPath><clipPath id="O" clipPathUnits="userSpaceOnUse"><path d="M200.911 625.611h1.419v-7.519h-1.419z"/></clipPath><clipPath id="N" clipPathUnits="userSpaceOnUse"><path d="M-14243.7 15031.3h28835.2v-28835.2h-28835.2z"/></clipPath><clipPath id="aE" clipPathUnits="userSpaceOnUse"><path d="M201.048 625.103l-.002.508s-.001-.19.002-.508m.028-5.181c-.165-1.32.392-1.539.392-1.539.592-.291.862 0 .862 0-1.111.099-1.262 5.093-1.282 6.72z"/></clipPath><clipPath id="R" clipPathUnits="userSpaceOnUse"><path d="M200.065 638.015h4.429v-13.077h-4.429z"/></clipPath><clipPath id="Q" clipPathUnits="userSpaceOnUse"><path d="M-32768 32767h65535v-65535h-65535z"/></clipPath><clipPath id="aB" clipPathUnits="userSpaceOnUse"><path d="M200.169 626.093s.22-1.156 1.939-.88c0 0-2.008.495-1.217 6.05 0 0 .075 2.707 2 2.569 0 0 1.269-.66 1.549-1.558-.117.682-.367 2.346-.136 2.919-.585-.574-2.353-2.102-2.843-.135 0 0-.107 1.195-.055 2.957 0 0-1.341-11.291-1.237-11.922m4.135 9.1c.119.117.189.194.189.194-.083-.015-.144-.084-.189-.194m.189-3.215c-.004.101-.023.2-.053.296l.053-.296"/></clipPath><clipPath id="q" clipPathUnits="userSpaceOnUse"><path d="M198.041 629.579l1.443 8.96 2.813-.453-1.443-8.96z"/></clipPath><clipPath id="ac" clipPathUnits="userSpaceOnUse"><path d="M179.773 651.371s-5.612 0-5.612-5.612v-26.195c.001-.171.087-5.61 5.612-5.61h26.192s5.613 0 5.613 5.613v26.192s0 5.612-5.613 5.612z"/></clipPath><clipPath id="ad" clipPathUnits="userSpaceOnUse"><path d="M174.161 651.372h37.417v-37.418h-37.417z"/></clipPath><clipPath id="ae" clipPathUnits="userSpaceOnUse"><path d="M174.161 613.954h37.417v37.418h-37.417z"/></clipPath><clipPath id="ag" clipPathUnits="userSpaceOnUse"><path d="M200.177 637.558l-1.042-8.058a1.176 1.176 0 011.015-1.317l.083-.011a1.175 1.175 0 011.315 1.015l1.042 8.06a1.177 1.177 0 01-1.015 1.316l-.083.01a1.173 1.173 0 01-1.315-1.015"/></clipPath><clipPath id="ai" clipPathUnits="userSpaceOnUse"><path d="M202.065 630.229c-.649 0-1.174-.086-1.174-.735v-10.595c0-.648.525-1.173 1.174-1.173h.084c.649 0 1.175.525 1.175 1.173v10.155c0 .649-.526 1.175-1.175 1.175z"/></clipPath><clipPath id="ak" clipPathUnits="userSpaceOnUse"><path d="M204.971 629.283a1.175 1.175 0 01-1.174-1.176v-10.154c0-.648.525-1.174 1.174-1.174h.083c.649 0 1.176.526 1.176 1.174v10.154c0 .649-.527 1.176-1.176 1.176z"/></clipPath><clipPath id="am" clipPathUnits="userSpaceOnUse"><path d="M200.891 637.671l-.88-11.477c0-.648.525-1.175 1.175-1.175l4.749-.608c.648 0 1.175.526 1.175 1.175l-.88 11.476c0 .649-.527 1.176-1.176 1.176l-2.989.607a1.173 1.173 0 01-1.174-1.174"/></clipPath><clipPath id="ao" clipPathUnits="userSpaceOnUse"><path d="M205.753 638.014a1.04 1.04 0 01-.124-.006l-.083-.008a1.175 1.175 0 01-1.046-1.291l.848-8.082a1.175 1.175 0 011.292-1.046l.083.008a1.178 1.178 0 011.046 1.292l-.848 8.082a1.175 1.175 0 01-1.166 1.051h-.002"/></clipPath><clipPath id="aq" clipPathUnits="userSpaceOnUse"><path d="M200.62 641.603a3.176 3.176 0 016.353 0 3.176 3.176 0 11-6.353 0"/></clipPath><clipPath id="as" clipPathUnits="userSpaceOnUse"><path d="M200.862 641.823v-.001c0-2.364 1.737-2.977 1.737-2.977-1.061 1.149-1.357 2.758-1.357 2.758-.111 2.42 2.555 2.995 2.555 2.995-2.872-.53-2.935-2.758-2.935-2.775"/></clipPath><clipPath id="p" clipPathUnits="userSpaceOnUse"><path d="M-14243.7 15031.3h28835.2v-28835.2h-28835.2z"/></clipPath><clipPath id="W" clipPathUnits="userSpaceOnUse"><path d="M-14243.7 15031.3h28835.2v-28835.2h-28835.2z"/></clipPath><clipPath id="X" clipPathUnits="userSpaceOnUse"><path d="M200.862 644.598h2.934v-5.753h-2.934z"/></clipPath><clipPath id="av" clipPathUnits="userSpaceOnUse"><path d="M205.013 636.872s.515-5.797.65-7.731c-.107 1.96-.417 8.278.034 8.502 0 0-.652-.165-.684-.771m.684-8.304c-.001.085-.013.287-.034.573.02-.361.034-.573.034-.573"/></clipPath><clipPath id="ay" clipPathUnits="userSpaceOnUse"><path d="M200.291 637.628s-.559-5.754-.773-7.692c.239 1.961 1.023 8.198 1.372 8.376-.027-.005-.484-.107-.599-.684m-.844-8.275c.015.085.039.291.071.583l-.071-.583"/></clipPath><clipPath id="T" clipPathUnits="userSpaceOnUse"><path d="M-14243.7 15031.3h28835.2v-28835.2h-28835.2z"/></clipPath><clipPath id="aa" clipPathUnits="userSpaceOnUse"><path d="M205.013 637.643h.683v-9.075h-.683z"/></clipPath><linearGradient id="bi" spreadMethod="pad" gradientTransform="matrix(0 7.35726 7.35726 0 180.709 621.886)" gradientUnits="userSpaceOnUse" y2="0" x2="1" y1="0" x1="0"><stop offset="0" stop-color="#fff"/><stop offset="1" stop-color="#fff"/></linearGradient><linearGradient id="A" spreadMethod="pad" gradientTransform="matrix(.78136 9.04143 9.04143 -.78136 178.52 633.742)" gradientUnits="userSpaceOnUse" y2="0" x2="1" y1="0" x1="0"><stop offset="0" stop-opacity="0" stop-color="#fff"/><stop offset="1" stop-color="#fff"/></linearGradient><linearGradient id="af" spreadMethod="pad" gradientTransform="matrix(0 37.41732 37.41732 0 192.87 613.954)" gradientUnits="userSpaceOnUse" y2="0" x2="1" y1="0" x1="0"><stop offset="0" stop-color="#ef2e32"/><stop offset="1" stop-color="#fff200"/></linearGradient><linearGradient id="ah" spreadMethod="pad" gradientTransform="scale(1.41944 -1.41944) rotate(7.365 3537.45 871.763)" gradientUnits="userSpaceOnUse" y2="0" x2="1" y1="0" x1="0"><stop offset="0" stop-color="#ef2e32"/><stop offset="1" stop-color="#f9a72b"/></linearGradient><linearGradient id="aj" spreadMethod="pad" gradientTransform="matrix(1.41918 0 0 -1.41918 201.296 623.977)" gradientUnits="userSpaceOnUse" y2="0" x2="1" y1="0" x1="0"><stop offset="0" stop-color="#ef2e32"/><stop offset="1" stop-color="#f9a72b"/></linearGradient><linearGradient id="al" spreadMethod="pad" gradientTransform="matrix(1.4194 0 0 -1.4194 204.202 623.03)" gradientUnits="userSpaceOnUse" y2="0" x2="1" y1="0" x1="0"><stop offset="0" stop-color="#ef2e32"/><stop offset="1" stop-color="#f9a72b"/></linearGradient><linearGradient id="an" spreadMethod="pad" gradientTransform="matrix(7.09921 0 0 -7.09921 200.01 631.628)" gradientUnits="userSpaceOnUse" y2="0" x2="1" y1="0" x1="0"><stop offset="0" stop-color="#ef2e32"/><stop offset="1" stop-color="#f9a72b"/></linearGradient><linearGradient id="ar" spreadMethod="pad" gradientTransform="matrix(6.35333 0 0 -6.35333 200.62 641.603)" gradientUnits="userSpaceOnUse" y2="0" x2="1" y1="0" x1="0"><stop offset="0" stop-color="#ef2e32"/><stop offset="1" stop-color="#f9a72b"/></linearGradient><linearGradient id="au" spreadMethod="pad" gradientTransform="matrix(0 5.75199 5.75199 0 202.33 638.846)" gradientUnits="userSpaceOnUse" y2="0" x2="1" y1="0" x1="0"><stop offset="0" stop-color="#fff"/><stop offset="1" stop-color="#fff"/></linearGradient><linearGradient id="Y" spreadMethod="pad" gradientTransform="matrix(0 5.75199 5.75199 0 202.33 638.846)" gradientUnits="userSpaceOnUse" y2="0" x2="1" y1="0" x1="0"><stop offset="0" stop-color="#fff"/><stop offset="1" stop-opacity="0" stop-color="#fff"/></linearGradient><linearGradient id="ax" spreadMethod="pad" gradientTransform="matrix(0 9.07493 9.07493 0 205.355 628.568)" gradientUnits="userSpaceOnUse" y2="0" x2="1" y1="0" x1="0"><stop offset="0" stop-color="#fff"/><stop offset="1" stop-color="#fff"/></linearGradient><linearGradient id="ab" spreadMethod="pad" gradientTransform="matrix(0 9.07493 9.07493 0 205.355 628.568)" gradientUnits="userSpaceOnUse" y2="0" x2="1" y1="0" x1="0"><stop offset="0" stop-opacity="0" stop-color="#fff"/><stop offset="1" stop-color="#fff"/></linearGradient><linearGradient id="aA" spreadMethod="pad" gradientTransform="matrix(1.44289 8.95952 6.33419 -1.02 199.21 629.39)" gradientUnits="userSpaceOnUse" y2="0" x2="1" y1="0" x1="0"><stop offset="0" stop-color="#fff"/><stop offset="1" stop-color="#fff"/></linearGradient><linearGradient id="r" spreadMethod="pad" gradientTransform="matrix(1.44289 8.95952 6.33419 -1.02 199.21 629.39)" gradientUnits="userSpaceOnUse" y2="0" x2="1" y1="0" x1="0"><stop offset="0" stop-opacity="0" stop-color="#fff"/><stop offset="1" stop-color="#fff"/></linearGradient><linearGradient id="aD" spreadMethod="pad" gradientTransform="matrix(0 12.84434 12.84434 0 202.329 625.17)" gradientUnits="userSpaceOnUse" y2="0" x2="1" y1="0" x1="0"><stop offset="0" stop-color="#fff"/><stop offset="1" stop-color="#fff"/></linearGradient><linearGradient id="S" spreadMethod="pad" gradientTransform="matrix(0 12.84434 12.84434 0 202.329 625.17)" gradientUnits="userSpaceOnUse" y2="0" x2="1" y1="0" x1="0"><stop offset="0" stop-opacity="0" stop-color="#fff"/><stop offset="1" stop-color="#fff"/></linearGradient><linearGradient id="aG" spreadMethod="pad" gradientTransform="matrix(0 7.35707 7.35707 0 201.687 618.253)" gradientUnits="userSpaceOnUse" y2="0" x2="1" y1="0" x1="0"><stop offset="0" stop-color="#fff"/><stop offset="1" stop-color="#fff"/></linearGradient><linearGradient id="P" spreadMethod="pad" gradientTransform="matrix(0 7.35707 7.35707 0 201.687 618.253)" gradientUnits="userSpaceOnUse" y2="0" x2="1" y1="0" x1="0"><stop offset="0" stop-color="#fff"/><stop offset="1" stop-opacity="0" stop-color="#fff"/></linearGradient><linearGradient id="aJ" spreadMethod="pad" gradientTransform="matrix(0 7.35704 7.35704 0 204.713 617.219)" gradientUnits="userSpaceOnUse" y2="0" x2="1" y1="0" x1="0"><stop offset="0" stop-color="#fff"/><stop offset="1" stop-color="#fff"/></linearGradient><linearGradient id="M" spreadMethod="pad" gradientTransform="matrix(0 7.35704 7.35704 0 204.713 617.219)" gradientUnits="userSpaceOnUse" y2="0" x2="1" y1="0" x1="0"><stop offset="0" stop-color="#fff"/><stop offset="1" stop-opacity="0" stop-color="#fff"/></linearGradient><linearGradient id="aM" spreadMethod="pad" gradientTransform="matrix(1.41943 0 0 -1.41943 179.101 637.649)" gradientUnits="userSpaceOnUse" y2="0" x2="1" y1="0" x1="0"><stop offset="0" stop-color="#ef2e32"/><stop offset="1" stop-color="#f9a72b"/></linearGradient><linearGradient id="aO" spreadMethod="pad" gradientTransform="matrix(1.41943 0 0 -1.41943 180.317 627.815)" gradientUnits="userSpaceOnUse" y2="0" x2="1" y1="0" x1="0"><stop offset="0" stop-color="#ef2e32"/><stop offset="1" stop-color="#f9a72b"/></linearGradient><linearGradient id="aQ" spreadMethod="pad" gradientTransform="matrix(1.4194 0 0 -1.4194 183.224 626.868)" gradientUnits="userSpaceOnUse" y2="0" x2="1" y1="0" x1="0"><stop offset="0" stop-color="#ef2e32"/><stop offset="1" stop-color="#f9a72b"/></linearGradient><linearGradient id="V" spreadMethod="pad" gradientTransform="rotate(90 -216.686 408.873) scale(7.86135)" gradientUnits="userSpaceOnUse" y2="0" x2="1" y1="0" x1="0"><stop offset="0" stop-color="#fff"/><stop offset="1" stop-opacity="0" stop-color="#fff"/></linearGradient><linearGradient id="aS" spreadMethod="pad" gradientTransform="matrix(5.33967 0 0 -5.33967 179.912 637.446)" gradientUnits="userSpaceOnUse" y2="0" x2="1" y1="0" x1="0"><stop offset="0" stop-color="#ef2e32"/><stop offset="1" stop-color="#f9a72b"/></linearGradient><linearGradient id="aU" spreadMethod="pad" gradientTransform="matrix(1.41943 0 0 -1.41943 184.44 636.533)" gradientUnits="userSpaceOnUse" y2="0" x2="1" y1="0" x1="0"><stop offset="0" stop-color="#ef2e32"/><stop offset="1" stop-color="#f9a72b"/></linearGradient><linearGradient id="aW" spreadMethod="pad" gradientTransform="matrix(6.35333 0 0 -6.35333 179.642 645.44)" gradientUnits="userSpaceOnUse" y2="0" x2="1" y1="0" x1="0"><stop offset="0" stop-color="#ef2e32"/><stop offset="1" stop-color="#f9a72b"/></linearGradient><linearGradient id="bT" spreadMethod="pad" gradientTransform="rotate(90 -216.686 408.873) scale(7.86135)" gradientUnits="userSpaceOnUse" y2="0" x2="1" y1="0" x1="0"><stop offset="0" stop-color="#fff"/><stop offset="1" stop-color="#fff"/></linearGradient><linearGradient id="aZ" spreadMethod="pad" gradientTransform="matrix(0 5.75195 5.75195 0 181.35 642.754)" gradientUnits="userSpaceOnUse" y2="0" x2="1" y1="0" x1="0"><stop offset="0" stop-color="#fff"/><stop offset="1" stop-color="#fff"/></linearGradient><linearGradient id="G" spreadMethod="pad" gradientTransform="matrix(0 5.75195 5.75195 0 181.35 642.754)" gradientUnits="userSpaceOnUse" y2="0" x2="1" y1="0" x1="0"><stop offset="0" stop-color="#fff"/><stop offset="1" stop-opacity="0" stop-color="#fff"/></linearGradient><linearGradient id="bc" spreadMethod="pad" gradientTransform="matrix(.78136 9.04146 9.04146 -.78136 184.128 632.493)" gradientUnits="userSpaceOnUse" y2="0" x2="1" y1="0" x1="0"><stop offset="0" stop-color="#fff"/><stop offset="1" stop-color="#fff"/></linearGradient><linearGradient id="J" spreadMethod="pad" gradientTransform="matrix(0 6.02562 6.02562 0 193.643 619.009)" gradientUnits="userSpaceOnUse" y2="0" x2="1" y1="0" x1="0"><stop offset="0" stop-color="#fff"/><stop offset="1" stop-opacity="0" stop-color="#fff"/></linearGradient><linearGradient id="c" spreadMethod="pad" gradientTransform="matrix(.78136 9.04146 9.04146 -.78136 184.128 632.493)" gradientUnits="userSpaceOnUse" y2="0" x2="1" y1="0" x1="0"><stop offset="0" stop-opacity="0" stop-color="#fff"/><stop offset="1" stop-color="#fff"/></linearGradient><linearGradient id="bf" spreadMethod="pad" gradientTransform="matrix(.78136 9.04143 9.04143 -.78136 178.52 633.742)" gradientUnits="userSpaceOnUse" y2="0" x2="1" y1="0" x1="0"><stop offset="0" stop-color="#fff"/><stop offset="1" stop-color="#fff"/></linearGradient><linearGradient id="bQ" spreadMethod="pad" gradientTransform="matrix(0 6.02562 6.02562 0 193.643 619.009)" gradientUnits="userSpaceOnUse" y2="0" x2="1" y1="0" x1="0"><stop offset="0" stop-color="#fff"/><stop offset="1" stop-color="#fff"/></linearGradient><linearGradient id="x" spreadMethod="pad" gradientTransform="matrix(0 6.02555 6.02555 0 191.09 619.811)" gradientUnits="userSpaceOnUse" y2="0" x2="1" y1="0" x1="0"><stop offset="0" stop-color="#fff"/><stop offset="1" stop-opacity="0" stop-color="#fff"/></linearGradient><linearGradient id="ap" spreadMethod="pad" gradientTransform="matrix(1.4123 .14826 .14826 -1.4123 205.328 632.71)" gradientUnits="userSpaceOnUse" y2="0" x2="1" y1="0" x1="0"><stop offset="0" stop-color="#ef2e32"/><stop offset="1" stop-color="#f9a72b"/></linearGradient><linearGradient id="u" spreadMethod="pad" gradientTransform="matrix(0 7.35726 7.35726 0 180.709 621.886)" gradientUnits="userSpaceOnUse" y2="0" x2="1" y1="0" x1="0"><stop offset="0" stop-color="#fff"/><stop offset="1" stop-opacity="0" stop-color="#fff"/></linearGradient><linearGradient id="bl" spreadMethod="pad" gradientTransform="matrix(0 7.35685 7.35685 0 183.826 620.907)" gradientUnits="userSpaceOnUse" y2="0" x2="1" y1="0" x1="0"><stop offset="0" stop-color="#fff"/><stop offset="1" stop-color="#fff"/></linearGradient><linearGradient id="bN" spreadMethod="pad" gradientTransform="matrix(0 6.02555 6.02555 0 191.09 619.811)" gradientUnits="userSpaceOnUse" y2="0" x2="1" y1="0" x1="0"><stop offset="0" stop-color="#fff"/><stop offset="1" stop-color="#fff"/></linearGradient><linearGradient id="o" spreadMethod="pad" gradientTransform="matrix(0 7.35685 7.35685 0 183.826 620.907)" gradientUnits="userSpaceOnUse" y2="0" x2="1" y1="0" x1="0"><stop offset="0" stop-color="#fff"/><stop offset="1" stop-opacity="0" stop-color="#fff"/></linearGradient><linearGradient id="bo" spreadMethod="pad" gradientTransform="rotate(90 -225.309 407.357) scale(9.59851)" gradientUnits="userSpaceOnUse" y2="0" x2="1" y1="0" x1="0"><stop offset="0" stop-color="#fff"/><stop offset="1" stop-color="#fff"/></linearGradient><linearGradient id="i" spreadMethod="pad" gradientTransform="rotate(90 -225.309 407.357) scale(9.59852)" gradientUnits="userSpaceOnUse" y2="0" x2="1" y1="0" x1="0"><stop offset="0" stop-color="#fff"/><stop offset="1" stop-opacity="0" stop-color="#fff"/></linearGradient><linearGradient id="br" spreadMethod="pad" gradientTransform="matrix(1.16251 0 0 -1.16251 189.773 630.08)" gradientUnits="userSpaceOnUse" y2="0" x2="1" y1="0" x1="0"><stop offset="0" stop-color="#ef2e32"/><stop offset="1" stop-color="#f9a72b"/></linearGradient><linearGradient id="bt" spreadMethod="pad" gradientTransform="matrix(1.16251 0 0 -1.16251 190.77 624.666)" gradientUnits="userSpaceOnUse" y2="0" x2="1" y1="0" x1="0"><stop offset="0" stop-color="#ef2e32"/><stop offset="1" stop-color="#f9a72b"/></linearGradient><linearGradient id="bv" spreadMethod="pad" gradientTransform="matrix(1.16251 0 0 -1.16251 193.15 623.891)" gradientUnits="userSpaceOnUse" y2="0" x2="1" y1="0" x1="0"><stop offset="0" stop-color="#ef2e32"/><stop offset="1" stop-color="#f9a72b"/></linearGradient><linearGradient id="bx" spreadMethod="pad" gradientTransform="matrix(4.3733 0 0 -4.3733 190.437 629.475)" gradientUnits="userSpaceOnUse" y2="0" x2="1" y1="0" x1="0"><stop offset="0" stop-color="#ef2e32"/><stop offset="1" stop-color="#f9a72b"/></linearGradient><linearGradient id="bz" spreadMethod="pad" gradientTransform="matrix(1.16225 0 0 -1.16225 194.146 629.167)" gradientUnits="userSpaceOnUse" y2="0" x2="1" y1="0" x1="0"><stop offset="0" stop-color="#ef2e32"/><stop offset="1" stop-color="#f9a72b"/></linearGradient><linearGradient id="bB" spreadMethod="pad" gradientTransform="matrix(5.20349 0 0 -5.20349 190.216 636.022)" gradientUnits="userSpaceOnUse" y2="0" x2="1" y1="0" x1="0"><stop offset="0" stop-color="#ef2e32"/><stop offset="1" stop-color="#f9a72b"/></linearGradient><linearGradient id="bE" spreadMethod="pad" gradientTransform="matrix(0 4.71104 4.71104 0 191.616 633.822)" gradientUnits="userSpaceOnUse" y2="0" x2="1" y1="0" x1="0"><stop offset="0" stop-color="#fff"/><stop offset="1" stop-color="#fff"/></linearGradient><linearGradient id="l" spreadMethod="pad" gradientTransform="matrix(.45122 5.22128 5.22128 -.45122 189.486 628.625)" gradientUnits="userSpaceOnUse" y2="0" x2="1" y1="0" x1="0"><stop offset="0" stop-opacity="0" stop-color="#fff"/><stop offset="1" stop-color="#fff"/></linearGradient><linearGradient id="D" spreadMethod="pad" gradientTransform="matrix(0 4.71104 4.71104 0 191.616 633.822)" gradientUnits="userSpaceOnUse" y2="0" x2="1" y1="0" x1="0"><stop offset="0" stop-color="#fff"/><stop offset="1" stop-opacity="0" stop-color="#fff"/></linearGradient><linearGradient id="bH" spreadMethod="pad" gradientTransform="matrix(.45125 5.22158 5.22158 -.45125 194.08 627.601)" gradientUnits="userSpaceOnUse" y2="0" x2="1" y1="0" x1="0"><stop offset="0" stop-color="#fff"/><stop offset="1" stop-color="#fff"/></linearGradient><linearGradient id="f" spreadMethod="pad" gradientTransform="matrix(.45125 5.22158 5.22158 -.45125 194.08 627.601)" gradientUnits="userSpaceOnUse" y2="0" x2="1" y1="0" x1="0"><stop offset="0" stop-opacity="0" stop-color="#fff"/><stop offset="1" stop-color="#fff"/></linearGradient><linearGradient id="bK" spreadMethod="pad" gradientTransform="matrix(.45122 5.22128 5.22128 -.45122 189.486 628.625)" gradientUnits="userSpaceOnUse" y2="0" x2="1" y1="0" x1="0"><stop offset="0" stop-color="#fff"/><stop offset="1" stop-color="#fff"/></linearGradient><mask id="bD" height="1" width="1" y="0" x="0" maskUnits="userSpaceOnUse"><g clip-path="url(#B)"><g clip-path="url(#C)"><path d="M190.415 638.533h2.404v-4.711h-2.404z" fill="url(#D)"/></g></g></mask><mask id="bb" height="1" width="1" y="0" x="0" maskUnits="userSpaceOnUse"><g clip-path="url(#a)"><g clip-path="url(#b)"><path d="M183.693 632.53l.781 9.042 1.552-.134-.782-9.042z" fill="url(#c)"/></g></g></mask><mask id="bn" height="1" width="1" y="0" x="0" maskUnits="userSpaceOnUse"><g clip-path="url(#g)"><g clip-path="url(#h)"><path d="M184.035 643.048h-4.121v-10.561h4.121z" fill="url(#i)"/></g></g></mask><mask id="bJ" height="1" width="1" y="0" x="0" maskUnits="userSpaceOnUse"><g clip-path="url(#j)"><g clip-path="url(#k)"><path d="M189.129 628.655l.452 5.222 1.082-.094-.452-5.221z" fill="url(#l)"/></g></g></mask><mask id="bk" height="1" width="1" y="0" x="0" maskUnits="userSpaceOnUse"><g clip-path="url(#m)"><g clip-path="url(#n)"><path d="M183.05 628.264h1.418v-7.517h-1.418z" fill="url(#o)"/></g></g></mask><mask id="az" height="1" width="1" y="0" x="0" maskUnits="userSpaceOnUse"><g clip-path="url(#p)"><g clip-path="url(#q)"><path d="M198.041 629.579l1.443 8.96 2.813-.453-1.443-8.96z" fill="url(#r)"/></g></g></mask><mask id="bh" height="1" width="1" y="0" x="0" maskUnits="userSpaceOnUse"><g clip-path="url(#s)"><g clip-path="url(#t)"><path d="M179.932 629.244h1.419v-7.519h-1.419z" fill="url(#u)"/></g></g></mask><mask id="bM" height="1" width="1" y="0" x="0" maskUnits="userSpaceOnUse"><g clip-path="url(#v)"><g clip-path="url(#w)"><path d="M190.454 625.836h1.162v-6.158h-1.162z" fill="url(#x)"/></g></g></mask><mask id="be" height="1" width="1" y="0" x="0" maskUnits="userSpaceOnUse"><g clip-path="url(#y)"><g clip-path="url(#z)"><path d="M178.084 633.78l.782 9.041 1.551-.134-.782-9.041z" fill="url(#A)"/></g></g></mask><mask id="bG" height="1" width="1" y="0" x="0" maskUnits="userSpaceOnUse"><g clip-path="url(#d)"><g clip-path="url(#e)"><path d="M193.722 627.632l.451 5.222 1.083-.094-.451-5.221z" fill="url(#f)"/></g></g></mask><mask id="aY" height="1" width="1" y="0" x="0" maskUnits="userSpaceOnUse"><g clip-path="url(#E)"><g clip-path="url(#F)"><path d="M179.884 648.506h2.935v-5.752h-2.935z" fill="url(#G)"/></g></g></mask><mask id="bP" height="1" width="1" y="0" x="0" maskUnits="userSpaceOnUse"><g clip-path="url(#H)"><g clip-path="url(#I)"><path d="M193.008 625.035h1.161v-6.157h-1.161z" fill="url(#J)"/></g></g></mask><mask id="aI" height="1" width="1" y="0" x="0" maskUnits="userSpaceOnUse"><g clip-path="url(#K)"><g clip-path="url(#L)"><path d="M203.936 624.576h1.419v-7.519h-1.419z" fill="url(#M)"/></g></g></mask><mask id="aF" height="1" width="1" y="0" x="0" maskUnits="userSpaceOnUse"><g clip-path="url(#N)"><g clip-path="url(#O)"><path d="M200.911 625.611h1.419v-7.519h-1.419z" fill="url(#P)"/></g></g></mask><mask id="aC" height="1" width="1" y="0" x="0" maskUnits="userSpaceOnUse"><g clip-path="url(#Q)"><g clip-path="url(#R)"><path d="M200.065 638.015h4.429v-13.077h-4.429z" fill="url(#S)"/></g></g></mask><mask id="bS" height="1" width="1" y="0" x="0" maskUnits="userSpaceOnUse"><g clip-path="url(#T)"><g clip-path="url(#U)"><path d="M193.814 634.063h-3.376v-8.65h3.376z" fill="url(#V)"/></g></g></mask><mask id="at" height="1" width="1" y="0" x="0" maskUnits="userSpaceOnUse"><g clip-path="url(#W)"><g clip-path="url(#X)"><path d="M200.862 644.598h2.934v-5.753h-2.934z" fill="url(#Y)"/></g></g></mask><mask id="aw" height="1" width="1" y="0" x="0" maskUnits="userSpaceOnUse"><g clip-path="url(#Z)"><g clip-path="url(#aa)"><path d="M205.013 637.643h.683v-9.075h-.683z" fill="url(#ab)"/></g></g></mask></defs><g clip-path="url(#ac)" transform="matrix(.62536 0 0 -.62538 -107.384 408.883)"><path d="M211.578 613.954h-37.417v37.417h37.417z" fill="#fff"/><g clip-path="url(#ad)"><g clip-path="url(#ae)" opacity=".4"><path d="M174.161 613.954h37.417v37.418h-37.417z" fill="url(#af)"/></g></g><path d="M201.548 629.187a1.175 1.175 0 00-1.316-1.015l-.082.011a1.174 1.174 0 00-1.015 1.316l1.042 8.06a1.174 1.174 0 001.315 1.014l.083-.01a1.174 1.174 0 001.014-1.317z" fill="none" stroke="#f2f6a2" stroke-width="2.64" stroke-linecap="round" stroke-linejoin="round"/><path d="M203.324 618.9c0-.649-.526-1.175-1.175-1.175h-.083c-.65 0-1.175.526-1.175 1.175v10.594c0 .649.526.735 1.175.735h.083c.649 0 1.175-.526 1.175-1.175zm2.906-.946c0-.65-.526-1.175-1.175-1.175h-.083c-.649 0-1.175.526-1.175 1.175v10.154c0 .649.526 1.175 1.175 1.175h.083c.649 0 1.175-.526 1.175-1.175z" fill="none" stroke="#f2f6a2" stroke-width="2.64" stroke-linecap="round" stroke-linejoin="round"/><path d="M206.23 637.063c0 .649-.526 1.175-1.175 1.175l-2.99.607a1.175 1.175 0 01-1.174-1.175l-.88-11.476c0-.649.526-1.175 1.174-1.175l4.75-.608c.649 0 1.175.527 1.175 1.176z" fill="none" stroke="#f2f6a2" stroke-width="2.64" stroke-linecap="round" stroke-linejoin="round"/><path d="M207.768 628.881a1.175 1.175 0 00-1.046-1.292l-.082-.008a1.175 1.175 0 00-1.292 1.046l-.848 8.081a1.176 1.176 0 001.046 1.292l.083.008a1.176 1.176 0 001.292-1.045zm-.795 12.722a3.177 3.177 0 10-6.354 0 3.177 3.177 0 006.354 0z" fill="none" stroke="#f2f6a2" stroke-width="2.64" stroke-linecap="round" stroke-linejoin="round"/><path d="M202.6 638.846s-1.738.612-1.738 2.977c0 0 .051 2.244 2.935 2.775 0 0-2.666-.575-2.556-2.995 0 0 .296-1.61 1.358-2.757zm3.096-1.203s-.65-.165-.683-.77c0 0 .678-7.645.683-8.305 0 0-.533 8.809 0 9.075zm-4.806.669s-.48-.09-.598-.683c0 0-.742-7.624-.844-8.277 0 0 1.029 8.758 1.443 8.96zm.516-.297s-1.342-11.29-1.237-11.922c0 0 .22-1.155 1.938-.88 0 0-2.008.495-1.217 6.05 0 0 .076 2.707 2.001 2.569 0 0 1.555-.81 1.602-1.854 0 0-.64 3.29 0 3.41 0 0-2.442-2.698-3.032-.33 0 0-.107 1.195-.055 2.957z" fill="none" stroke="#f2f6a2" stroke-width="2.64" stroke-linecap="round" stroke-linejoin="round"/><path d="M201.468 618.382s-.557.22-.392 1.54l-.03 5.688s-.044-7.109 1.283-7.228c0 0-.269-.29-.86 0zm3.026-1.034s-.557.22-.392 1.54l-.031 5.688s-.043-7.109 1.284-7.228c0 0-.27-.29-.861 0zm-2.946 11.839a1.175 1.175 0 00-1.316-1.015l-.082.011a1.174 1.174 0 00-1.015 1.316l1.042 8.06a1.174 1.174 0 001.315 1.014l.083-.01a1.174 1.174 0 001.014-1.317z" fill="none" stroke="#f2f6a2" stroke-width="2.64" stroke-linecap="round" stroke-linejoin="round"/><path d="M203.324 618.9c0-.649-.526-1.175-1.175-1.175h-.083c-.65 0-1.175.526-1.175 1.175v10.594c0 .649.526.735 1.175.735h.083c.649 0 1.175-.526 1.175-1.175zm2.906-.946c0-.65-.526-1.175-1.175-1.175h-.083c-.649 0-1.175.526-1.175 1.175v10.154c0 .649.526 1.175 1.175 1.175h.083c.649 0 1.175-.526 1.175-1.175z" fill="none" stroke="#f2f6a2" stroke-width="2.64" stroke-linecap="round" stroke-linejoin="round"/><path d="M206.23 637.063c0 .649-.526 1.175-1.175 1.175l-2.99.607a1.175 1.175 0 01-1.174-1.175l-.88-11.476c0-.649.526-1.175 1.174-1.175l4.75-.608c.649 0 1.175.527 1.175 1.176z" fill="none" stroke="#f2f6a2" stroke-width="2.64" stroke-linecap="round" stroke-linejoin="round"/><path d="M207.768 628.881a1.175 1.175 0 00-1.046-1.292l-.082-.008a1.175 1.175 0 00-1.292 1.046l-.848 8.081a1.176 1.176 0 001.046 1.292l.083.008a1.176 1.176 0 001.292-1.045zm-.795 12.722a3.177 3.177 0 10-6.354 0 3.177 3.177 0 006.354 0z" fill="none" stroke="#f2f6a2" stroke-width="2.64" stroke-linecap="round" stroke-linejoin="round"/><path d="M202.6 638.846s-1.738.612-1.738 2.977c0 0 .051 2.244 2.935 2.775 0 0-2.666-.575-2.556-2.995 0 0 .296-1.61 1.358-2.757zm3.096-1.203s-.65-.165-.683-.77c0 0 .678-7.645.683-8.305 0 0-.533 8.809 0 9.075zm-4.806.669s-.48-.09-.598-.683c0 0-.742-7.624-.844-8.277 0 0 1.029 8.758 1.443 8.96zm.516-.297s-1.342-11.29-1.237-11.922c0 0 .22-1.155 1.938-.88 0 0-2.008.495-1.217 6.05 0 0 .076 2.707 2.001 2.569 0 0 1.555-.81 1.602-1.854 0 0-.64 3.29 0 3.41 0 0-2.442-2.698-3.032-.33 0 0-.107 1.195-.055 2.957z" fill="none" stroke="#f2f6a2" stroke-width="2.64" stroke-linecap="round" stroke-linejoin="round"/><path d="M201.468 618.382s-.557.22-.392 1.54l-.03 5.688s-.044-7.109 1.283-7.228c0 0-.269-.29-.86 0zm3.026-1.034s-.557.22-.392 1.54l-.031 5.688s-.043-7.109 1.284-7.228c0 0-.27-.29-.861 0zm-2.946 11.839a1.175 1.175 0 00-1.316-1.015l-.082.011a1.174 1.174 0 00-1.015 1.316l1.042 8.06a1.174 1.174 0 001.315 1.014l.083-.01a1.174 1.174 0 001.014-1.317z" fill="none" stroke="#f2f6a2" stroke-width="2.64" stroke-linecap="round" stroke-linejoin="round"/><path d="M203.324 618.9c0-.649-.526-1.175-1.175-1.175h-.083c-.65 0-1.175.526-1.175 1.175v10.594c0 .649.526.735 1.175.735h.083c.649 0 1.175-.526 1.175-1.175zm2.906-.946c0-.65-.526-1.175-1.175-1.175h-.083c-.649 0-1.175.526-1.175 1.175v10.154c0 .649.526 1.175 1.175 1.175h.083c.649 0 1.175-.526 1.175-1.175z" fill="none" stroke="#f2f6a2" stroke-width="2.64" stroke-linecap="round" stroke-linejoin="round"/><path d="M206.23 637.063c0 .649-.526 1.175-1.175 1.175l-2.99.607a1.175 1.175 0 01-1.174-1.175l-.88-11.476c0-.649.526-1.175 1.174-1.175l4.75-.608c.649 0 1.175.527 1.175 1.176z" fill="none" stroke="#f2f6a2" stroke-width="2.64" stroke-linecap="round" stroke-linejoin="round"/><path d="M207.768 628.881a1.175 1.175 0 00-1.046-1.292l-.082-.008a1.175 1.175 0 00-1.292 1.046l-.848 8.081a1.176 1.176 0 001.046 1.292l.083.008a1.176 1.176 0 001.292-1.045zm-.795 12.722a3.177 3.177 0 10-6.354 0 3.177 3.177 0 006.354 0z" fill="none" stroke="#f2f6a2" stroke-width="2.64" stroke-linecap="round" stroke-linejoin="round"/><path d="M202.6 638.846s-1.738.612-1.738 2.977c0 0 .051 2.244 2.935 2.775 0 0-2.666-.575-2.556-2.995 0 0 .296-1.61 1.358-2.757zm3.096-1.203s-.65-.165-.683-.77c0 0 .678-7.645.683-8.305 0 0-.533 8.809 0 9.075zm-4.806.669s-.48-.09-.598-.683c0 0-.742-7.624-.844-8.277 0 0 1.029 8.758 1.443 8.96zm.516-.297s-1.342-11.29-1.237-11.922c0 0 .22-1.155 1.938-.88 0 0-2.008.495-1.217 6.05 0 0 .076 2.707 2.001 2.569 0 0 1.555-.81 1.602-1.854 0 0-.64 3.29 0 3.41 0 0-2.442-2.698-3.032-.33 0 0-.107 1.195-.055 2.957z" fill="none" stroke="#f2f6a2" stroke-width="2.64" stroke-linecap="round" stroke-linejoin="round"/><path d="M201.468 618.382s-.557.22-.392 1.54l-.03 5.688s-.044-7.109 1.283-7.228c0 0-.269-.29-.86 0zm3.026-1.034s-.557.22-.392 1.54l-.031 5.688s-.043-7.109 1.284-7.228c0 0-.27-.29-.861 0zm-23.365 16.238c0-.65-.526-1.175-1.175-1.175h-.083c-.65 0-1.175.526-1.175 1.175v8.126c0 .649.526 1.175 1.175 1.175h.083c.649 0 1.175-.526 1.175-1.175z" fill="none" stroke="#f2f6a2" stroke-width="2.64" stroke-linecap="round" stroke-linejoin="round"/><path d="M182.345 622.737c0-.649-.526-1.175-1.175-1.175h-.083c-.649 0-1.175.526-1.175 1.175v10.594c0 .65.526.735 1.175.735h.083c.65 0 1.175-.526 1.175-1.175zm2.907-.946c0-.649-.526-1.175-1.175-1.175h-.083c-.65 0-1.175.526-1.175 1.175v10.154c0 .65.526 1.175 1.175 1.175h.083c.649 0 1.175-.526 1.175-1.175z" fill="none" stroke="#f2f6a2" stroke-width="2.64" stroke-linecap="round" stroke-linejoin="round"/><path d="M185.252 641.34c0 .649-.526 1.175-1.175 1.175l-2.99.608a1.176 1.176 0 01-1.175-1.175v-8.396c0-.649.527-1.175 1.175-1.175l2.99-.608c.649 0 1.175.526 1.175 1.174z" fill="none" stroke="#f2f6a2" stroke-width="2.64" stroke-linecap="round" stroke-linejoin="round"/><path d="M186.468 632.47c0-.649-.526-1.175-1.175-1.175h-.083c-.649 0-1.175.526-1.175 1.175v8.126c0 .65.526 1.175 1.175 1.175h.083c.649 0 1.175-.526 1.175-1.175zm-.473 12.97a3.177 3.177 0 10-6.354.001 3.177 3.177 0 006.354 0z" fill="none" stroke="#f2f6a2" stroke-width="2.64" stroke-linecap="round" stroke-linejoin="round"/><path d="M181.621 642.754s-1.738.612-1.738 2.977c0 0 .051 2.244 2.935 2.775 0 0-2.665-.575-2.555-2.994 0 0 .296-1.61 1.358-2.758zm3.629-1.249s-.664-.108-.747-.708c0 0 .017-7.676-.035-8.334 0 0 .228 8.823.782 9.042zm-5.609 1.249s-.663-.108-.747-.708c0 0 .018-7.676-.034-8.333 0 0 .227 8.822.781 9.04zm.849-20.738s-.557.22-.392 1.54l-.031 5.688s-.043-7.11 1.284-7.228c0 0-.27-.29-.861 0zm3.117-.98s-.557.22-.392 1.54l-.03 5.688s-.043-7.11 1.283-7.228c0 0-.269-.29-.86 0zm.219 17.694s-.162 2.36.21 2.775c0 0-.84-1.485-2.106-1.388 0 0-1.825.17-1.54 2.147l-.323-8.198s-.155-1.59 1.061-1.382c0 0-1.058-.26-.683 3.85 0 0 .547 6.514 3.381.45z" fill="none" stroke="#f2f6a2" stroke-width="2.64" stroke-linecap="round" stroke-linejoin="round"/><path d="M181.129 633.586c0-.65-.526-1.175-1.175-1.175h-.083c-.65 0-1.175.526-1.175 1.175v8.126c0 .649.526 1.175 1.175 1.175h.083c.649 0 1.175-.526 1.175-1.175z" fill="none" stroke="#f2f6a2" stroke-width="2.64" stroke-linecap="round" stroke-linejoin="round"/><path d="M182.345 622.737c0-.649-.526-1.175-1.175-1.175h-.083c-.649 0-1.175.526-1.175 1.175v10.594c0 .65.526.735 1.175.735h.083c.65 0 1.175-.526 1.175-1.175zm2.907-.946c0-.649-.526-1.175-1.175-1.175h-.083c-.65 0-1.175.526-1.175 1.175v10.154c0 .65.526 1.175 1.175 1.175h.083c.649 0 1.175-.526 1.175-1.175z" fill="none" stroke="#f2f6a2" stroke-width="2.64" stroke-linecap="round" stroke-linejoin="round"/><path d="M185.252 641.34c0 .649-.526 1.175-1.175 1.175l-2.99.608a1.176 1.176 0 01-1.175-1.175v-8.396c0-.649.527-1.175 1.175-1.175l2.99-.608c.649 0 1.175.526 1.175 1.174z" fill="none" stroke="#f2f6a2" stroke-width="2.64" stroke-linecap="round" stroke-linejoin="round"/><path d="M186.468 632.47c0-.649-.526-1.175-1.175-1.175h-.083c-.649 0-1.175.526-1.175 1.175v8.126c0 .65.526 1.175 1.175 1.175h.083c.649 0 1.175-.526 1.175-1.175zm-.473 12.97a3.177 3.177 0 10-6.354.001 3.177 3.177 0 006.354 0z" fill="none" stroke="#f2f6a2" stroke-width="2.64" stroke-linecap="round" stroke-linejoin="round"/><path d="M181.621 642.754s-1.738.612-1.738 2.977c0 0 .051 2.244 2.935 2.775 0 0-2.665-.575-2.555-2.994 0 0 .296-1.61 1.358-2.758zm3.629-1.249s-.664-.108-.747-.708c0 0 .017-7.676-.035-8.334 0 0 .228 8.823.782 9.042zm-5.609 1.249s-.663-.108-.747-.708c0 0 .018-7.676-.034-8.333 0 0 .227 8.822.781 9.04zm.849-20.738s-.557.22-.392 1.54l-.031 5.688s-.043-7.11 1.284-7.228c0 0-.27-.29-.861 0zm3.117-.98s-.557.22-.392 1.54l-.03 5.688s-.043-7.11 1.283-7.228c0 0-.269-.29-.86 0zm.219 17.694s-.162 2.36.21 2.775c0 0-.84-1.485-2.106-1.388 0 0-1.825.17-1.54 2.147l-.323-8.198s-.155-1.59 1.061-1.382c0 0-1.058-.26-.683 3.85 0 0 .547 6.514 3.381.45z" fill="none" stroke="#f2f6a2" stroke-width="2.64" stroke-linecap="round" stroke-linejoin="round"/><path d="M181.129 633.586c0-.65-.526-1.175-1.175-1.175h-.083c-.65 0-1.175.526-1.175 1.175v8.126c0 .649.526 1.175 1.175 1.175h.083c.649 0 1.175-.526 1.175-1.175z" fill="none" stroke="#f2f6a2" stroke-width="2.64" stroke-linecap="round" stroke-linejoin="round"/><path d="M182.345 622.737c0-.649-.526-1.175-1.175-1.175h-.083c-.649 0-1.175.526-1.175 1.175v10.594c0 .65.526.735 1.175.735h.083c.65 0 1.175-.526 1.175-1.175zm2.907-.946c0-.649-.526-1.175-1.175-1.175h-.083c-.65 0-1.175.526-1.175 1.175v10.154c0 .65.526 1.175 1.175 1.175h.083c.649 0 1.175-.526 1.175-1.175z" fill="none" stroke="#f2f6a2" stroke-width="2.64" stroke-linecap="round" stroke-linejoin="round"/><path d="M185.252 641.34c0 .649-.526 1.175-1.175 1.175l-2.99.608a1.176 1.176 0 01-1.175-1.175v-8.396c0-.649.527-1.175 1.175-1.175l2.99-.608c.649 0 1.175.526 1.175 1.174z" fill="none" stroke="#f2f6a2" stroke-width="2.64" stroke-linecap="round" stroke-linejoin="round"/><path d="M186.468 632.47c0-.649-.526-1.175-1.175-1.175h-.083c-.649 0-1.175.526-1.175 1.175v8.126c0 .65.526 1.175 1.175 1.175h.083c.649 0 1.175-.526 1.175-1.175zm-.473 12.97a3.177 3.177 0 10-6.354.001 3.177 3.177 0 006.354 0z" fill="none" stroke="#f2f6a2" stroke-width="2.64" stroke-linecap="round" stroke-linejoin="round"/><path d="M181.621 642.754s-1.738.612-1.738 2.977c0 0 .051 2.244 2.935 2.775 0 0-2.665-.575-2.555-2.994 0 0 .296-1.61 1.358-2.758zm3.629-1.249s-.664-.108-.747-.708c0 0 .017-7.676-.035-8.334 0 0 .228 8.823.782 9.042zm-5.609 1.249s-.663-.108-.747-.708c0 0 .018-7.676-.034-8.333 0 0 .227 8.822.781 9.04zm.849-20.738s-.557.22-.392 1.54l-.031 5.688s-.043-7.11 1.284-7.228c0 0-.27-.29-.861 0zm3.117-.98s-.557.22-.392 1.54l-.03 5.688s-.043-7.11 1.283-7.228c0 0-.269-.29-.86 0zm.219 17.694s-.162 2.36.21 2.775c0 0-.84-1.485-2.106-1.388 0 0-1.825.17-1.54 2.147l-.323-8.198s-.155-1.59 1.061-1.382c0 0-1.058-.26-.683 3.85 0 0 .547 6.514 3.381.45zm7.608-11.537a.963.963 0 00-.963-.963h-.067a.963.963 0 00-.963.963v5.775c0 .532.431.963.963.963h.067a.963.963 0 00.963-.963z" fill="none" stroke="#f2f6a2" stroke-width="2.64" stroke-linecap="round" stroke-linejoin="round"/><path d="M192.43 620.508a.963.963 0 00-.963-.963h-.067a.963.963 0 00-.963.963v8.677c0 .531.431.602.963.602h.067a.963.963 0 00.963-.963zm2.38-.775a.962.962 0 00-.962-.962h-.067a.962.962 0 00-.963.962v8.316c0 .531.43.963.963.963h.067a.963.963 0 00.963-.963z" fill="none" stroke="#f2f6a2" stroke-width="2.64" stroke-linecap="round" stroke-linejoin="round"/><path d="M194.81 632.664a.963.963 0 01-.962.963l-2.448.498a.963.963 0 01-.962-.963v-6.876c0-.532.43-.963.962-.963l2.448-.498c.532 0 .963.43.963.962z" fill="none" stroke="#f2f6a2" stroke-width="2.64" stroke-linecap="round" stroke-linejoin="round"/><path d="M195.807 626.28a.963.963 0 00-.962-.964h-.068a.962.962 0 00-.962.963v5.775c0 .531.43.963.962.963h.068a.963.963 0 00.962-.963zm-.387 9.742a2.602 2.602 0 10-5.205 0 2.602 2.602 0 005.205 0z" fill="none" stroke="#f2f6a2" stroke-width="2.64" stroke-linecap="round" stroke-linejoin="round"/><path d="M191.837 633.822s-1.423.502-1.423 2.438c0 0 .042 1.838 2.404 2.273 0 0-2.183-.471-2.093-2.452 0 0 .242-1.32 1.112-2.26zm2.973-1.023s-.543-.089-.612-.58c0 0 .014-4.086-.03-4.625 0 0 .188 5.026.642 5.205zm-4.594 1.023s-.543-.088-.612-.58c0 0 .015-4.086-.028-4.625 0 0 .187 5.026.64 5.205zm.694-13.905s-.455.18-.32 1.261l-.025 4.659s-.035-5.823 1.05-5.92c0 0-.22-.238-.704 0zm2.554-.803s-.456.18-.321 1.261l-.025 4.66s-.034-5.824 1.05-5.92c0 0-.22-.238-.704 0zm.179 11.412s-.133 1.932.171 2.273c0 0-.688-1.217-1.724-1.137 0 0-1.494.138-1.26 1.758l-.266-6.714s-.126-1.302.87-1.132c0 0-.867-.213-.56 3.152 0 0 .448 5.336 2.77.37z" fill="none" stroke="#f2f6a2" stroke-width="2.64" stroke-linecap="round" stroke-linejoin="round"/><path d="M191.434 627.193a.963.963 0 00-.963-.963h-.067a.963.963 0 00-.963.963v5.775c0 .532.431.963.963.963h.067a.963.963 0 00.963-.963z" fill="none" stroke="#f2f6a2" stroke-width="2.64" stroke-linecap="round" stroke-linejoin="round"/><path d="M192.43 620.508a.963.963 0 00-.963-.963h-.067a.963.963 0 00-.963.963v8.677c0 .531.431.602.963.602h.067a.963.963 0 00.963-.963zm2.38-.775a.962.962 0 00-.962-.962h-.067a.962.962 0 00-.963.962v8.316c0 .531.43.963.963.963h.067a.963.963 0 00.963-.963z" fill="none" stroke="#f2f6a2" stroke-width="2.64" stroke-linecap="round" stroke-linejoin="round"/><path d="M194.81 632.664a.963.963 0 01-.962.963l-2.448.498a.963.963 0 01-.962-.963v-6.876c0-.532.43-.963.962-.963l2.448-.498c.532 0 .963.43.963.962z" fill="none" stroke="#f2f6a2" stroke-width="2.64" stroke-linecap="round" stroke-linejoin="round"/><path d="M195.807 626.28a.963.963 0 00-.962-.964h-.068a.962.962 0 00-.962.963v5.775c0 .531.43.963.962.963h.068a.963.963 0 00.962-.963zm-.387 9.742a2.602 2.602 0 10-5.205 0 2.602 2.602 0 005.205 0z" fill="none" stroke="#f2f6a2" stroke-width="2.64" stroke-linecap="round" stroke-linejoin="round"/><path d="M191.837 633.822s-1.423.502-1.423 2.438c0 0 .042 1.838 2.404 2.273 0 0-2.183-.471-2.093-2.452 0 0 .242-1.32 1.112-2.26zm2.973-1.023s-.543-.089-.612-.58c0 0 .014-4.086-.03-4.625 0 0 .188 5.026.642 5.205zm-4.594 1.023s-.543-.088-.612-.58c0 0 .015-4.086-.028-4.625 0 0 .187 5.026.64 5.205zm.694-13.905s-.455.18-.32 1.261l-.025 4.659s-.035-5.823 1.05-5.92c0 0-.22-.238-.704 0zm2.554-.803s-.456.18-.321 1.261l-.025 4.66s-.034-5.824 1.05-5.92c0 0-.22-.238-.704 0zm.179 11.412s-.133 1.932.171 2.273c0 0-.688-1.217-1.724-1.137 0 0-1.494.138-1.26 1.758l-.266-6.714s-.126-1.302.87-1.132c0 0-.867-.213-.56 3.152 0 0 .448 5.336 2.77.37z" fill="none" stroke="#f2f6a2" stroke-width="2.64" stroke-linecap="round" stroke-linejoin="round"/><path d="M191.434 627.193a.963.963 0 00-.963-.963h-.067a.963.963 0 00-.963.963v5.775c0 .532.431.963.963.963h.067a.963.963 0 00.963-.963z" fill="none" stroke="#f2f6a2" stroke-width="2.64" stroke-linecap="round" stroke-linejoin="round"/><path d="M192.43 620.508a.963.963 0 00-.963-.963h-.067a.963.963 0 00-.963.963v8.677c0 .531.431.602.963.602h.067a.963.963 0 00.963-.963zm2.38-.775a.962.962 0 00-.962-.962h-.067a.962.962 0 00-.963.962v8.316c0 .531.43.963.963.963h.067a.963.963 0 00.963-.963z" fill="none" stroke="#f2f6a2" stroke-width="2.64" stroke-linecap="round" stroke-linejoin="round"/><path d="M194.81 632.664a.963.963 0 01-.962.963l-2.448.498a.963.963 0 01-.962-.963v-6.876c0-.532.43-.963.962-.963l2.448-.498c.532 0 .963.43.963.962z" fill="none" stroke="#f2f6a2" stroke-width="2.64" stroke-linecap="round" stroke-linejoin="round"/><path d="M195.807 626.28a.963.963 0 00-.962-.964h-.068a.962.962 0 00-.962.963v5.775c0 .531.43.963.962.963h.068a.963.963 0 00.962-.963zm-.387 9.742a2.602 2.602 0 10-5.205 0 2.602 2.602 0 005.205 0z" fill="none" stroke="#f2f6a2" stroke-width="2.64" stroke-linecap="round" stroke-linejoin="round"/><path d="M191.837 633.822s-1.423.502-1.423 2.438c0 0 .042 1.838 2.404 2.273 0 0-2.183-.471-2.093-2.452 0 0 .242-1.32 1.112-2.26zm2.973-1.023s-.543-.089-.612-.58c0 0 .014-4.086-.03-4.625 0 0 .188 5.026.642 5.205zm-4.594 1.023s-.543-.088-.612-.58c0 0 .015-4.086-.028-4.625 0 0 .187 5.026.64 5.205zm.694-13.905s-.455.18-.32 1.261l-.025 4.659s-.035-5.823 1.05-5.92c0 0-.22-.238-.704 0zm2.554-.803s-.456.18-.321 1.261l-.025 4.66s-.034-5.824 1.05-5.92c0 0-.22-.238-.704 0zm.179 11.412s-.133 1.932.171 2.273c0 0-.688-1.217-1.724-1.137 0 0-1.494.138-1.26 1.758l-.266-6.714s-.126-1.302.87-1.132c0 0-.867-.213-.56 3.152 0 0 .448 5.336 2.77.37z" fill="none" stroke="#f2f6a2" stroke-width="2.64" stroke-linecap="round" stroke-linejoin="round"/><path d="M191.434 627.193a.963.963 0 00-.963-.963h-.067a.963.963 0 00-.963.963v5.775c0 .532.431.963.963.963h.067a.963.963 0 00.963-.963z" fill="none" stroke="#f2f6a2" stroke-width="2.64" stroke-linecap="round" stroke-linejoin="round"/><path d="M192.43 620.508a.963.963 0 00-.963-.963h-.067a.963.963 0 00-.963.963v8.677c0 .531.431.602.963.602h.067a.963.963 0 00.963-.963zm2.38-.775a.962.962 0 00-.962-.962h-.067a.962.962 0 00-.963.962v8.316c0 .531.43.963.963.963h.067a.963.963 0 00.963-.963z" fill="none" stroke="#f2f6a2" stroke-width="2.64" stroke-linecap="round" stroke-linejoin="round"/><path d="M194.81 632.664a.963.963 0 01-.962.963l-2.448.498a.963.963 0 01-.962-.963v-6.876c0-.532.43-.963.962-.963l2.448-.498c.532 0 .963.43.963.962z" fill="none" stroke="#f2f6a2" stroke-width="2.64" stroke-linecap="round" stroke-linejoin="round"/><path d="M195.807 626.28a.963.963 0 00-.962-.964h-.068a.962.962 0 00-.962.963v5.775c0 .531.43.963.962.963h.068a.963.963 0 00.962-.963zm-.387 9.742a2.602 2.602 0 10-5.205 0 2.602 2.602 0 005.205 0z" fill="none" stroke="#f2f6a2" stroke-width="2.64" stroke-linecap="round" stroke-linejoin="round"/><path d="M191.837 633.822s-1.423.502-1.423 2.438c0 0 .042 1.838 2.404 2.273 0 0-2.183-.471-2.093-2.452 0 0 .242-1.32 1.112-2.26zm2.973-1.023s-.543-.089-.612-.58c0 0 .014-4.086-.03-4.625 0 0 .188 5.026.642 5.205zm-4.594 1.023s-.543-.088-.612-.58c0 0 .015-4.086-.028-4.625 0 0 .187 5.026.64 5.205zm.694-13.905s-.455.18-.32 1.261l-.025 4.659s-.035-5.823 1.05-5.92c0 0-.22-.238-.704 0zm2.554-.803s-.456.18-.321 1.261l-.025 4.66s-.034-5.824 1.05-5.92c0 0-.22-.238-.704 0zm.179 11.412s-.133 1.932.171 2.273c0 0-.688-1.217-1.724-1.137 0 0-1.494.138-1.26 1.758l-.266-6.714s-.126-1.302.87-1.132c0 0-.867-.213-.56 3.152 0 0 .448 5.336 2.77.37z" fill="none" stroke="#f2f6a2" stroke-width="2.64" stroke-linecap="round" stroke-linejoin="round"/><path d="M201.548 629.187a1.175 1.175 0 00-1.316-1.015l-.082.011a1.174 1.174 0 00-1.015 1.316l1.042 8.06a1.174 1.174 0 001.315 1.014l.083-.01a1.174 1.174 0 001.014-1.317z" fill="none" stroke="#bf1b2c" stroke-width="1.32"/><path d="M203.324 618.9c0-.649-.526-1.175-1.175-1.175h-.083c-.65 0-1.175.526-1.175 1.175v10.594c0 .649.526.735 1.175.735h.083c.649 0 1.175-.526 1.175-1.175zm2.906-.946c0-.65-.526-1.175-1.175-1.175h-.083c-.649 0-1.175.526-1.175 1.175v10.154c0 .649.526 1.175 1.175 1.175h.083c.649 0 1.175-.526 1.175-1.175z" fill="none" stroke="#bf1b2c" stroke-width="1.32"/><path d="M206.23 637.063c0 .649-.526 1.175-1.175 1.175l-2.99.607a1.175 1.175 0 01-1.174-1.175l-.88-11.476c0-.649.526-1.175 1.174-1.175l4.75-.608c.649 0 1.175.527 1.175 1.176z" fill="none" stroke="#bf1b2c" stroke-width="1.32"/><path d="M207.768 628.881a1.175 1.175 0 00-1.046-1.292l-.082-.008a1.175 1.175 0 00-1.292 1.046l-.848 8.081a1.176 1.176 0 001.046 1.292l.083.008a1.176 1.176 0 001.292-1.045zm-.795 12.722a3.177 3.177 0 10-6.354 0 3.177 3.177 0 006.354 0z" fill="none" stroke="#bf1b2c" stroke-width="1.32"/><path d="M202.6 638.846s-1.738.612-1.738 2.977c0 0 .051 2.244 2.935 2.775 0 0-2.666-.575-2.556-2.995 0 0 .296-1.61 1.358-2.757zm3.096-1.203s-.65-.165-.683-.77c0 0 .678-7.645.683-8.305 0 0-.533 8.809 0 9.075zm-4.806.669s-.48-.09-.598-.683c0 0-.742-7.624-.844-8.277 0 0 1.029 8.758 1.443 8.96zm.516-.297s-1.342-11.29-1.237-11.922c0 0 .22-1.155 1.938-.88 0 0-2.008.495-1.217 6.05 0 0 .076 2.707 2.001 2.569 0 0 1.555-.81 1.602-1.854 0 0-.64 3.29 0 3.41 0 0-2.442-2.698-3.032-.33 0 0-.107 1.195-.055 2.957z" fill="none" stroke="#bf1b2c" stroke-width="1.32"/><path d="M201.468 618.382s-.557.22-.392 1.54l-.03 5.688s-.044-7.109 1.283-7.228c0 0-.269-.29-.86 0zM204.494 617.348s-.557.22-.392 1.54l-.031 5.688s-.043-7.109 1.284-7.228c0 0-.27-.29-.861 0z" fill="none" stroke="#bf1b2c" stroke-width="1.32"/></g><g clip-path="url(#ag)" transform="matrix(.62536 0 0 -.62538 -107.384 408.883)"><path d="M200.177 637.558l-1.042-8.058a1.176 1.176 0 011.015-1.317l.083-.011a1.175 1.175 0 011.315 1.015l1.042 8.06a1.177 1.177 0 01-1.015 1.316l-.083.01a1.173 1.173 0 01-1.315-1.015" fill="url(#ah)"/></g><g clip-path="url(#ai)" transform="matrix(.62536 0 0 -.62538 -107.384 408.883)"><path d="M202.065 630.229c-.649 0-1.174-.086-1.174-.735v-10.595c0-.648.525-1.173 1.174-1.173h.084c.649 0 1.175.525 1.175 1.173v10.155c0 .649-.526 1.175-1.175 1.175z" fill="url(#aj)"/></g><g clip-path="url(#ak)" transform="matrix(.62536 0 0 -.62538 -107.384 408.883)"><path d="M204.971 629.283a1.175 1.175 0 01-1.174-1.176v-10.154c0-.648.525-1.174 1.174-1.174h.083c.649 0 1.176.526 1.176 1.174v10.154c0 .649-.527 1.176-1.176 1.176z" fill="url(#al)"/></g><g clip-path="url(#am)" transform="matrix(.62536 0 0 -.62538 -107.384 408.883)"><path d="M200.891 637.671l-.88-11.477c0-.648.525-1.175 1.175-1.175l4.749-.608c.648 0 1.175.526 1.175 1.175l-.88 11.476c0 .649-.527 1.176-1.176 1.176l-2.989.607a1.173 1.173 0 01-1.174-1.174" fill="url(#an)"/></g><g clip-path="url(#ao)" transform="matrix(.62536 0 0 -.62538 -107.384 408.883)"><path d="M205.753 638.014a1.04 1.04 0 01-.124-.006l-.083-.008a1.175 1.175 0 01-1.046-1.291l.848-8.082a1.175 1.175 0 011.292-1.046l.083.008a1.178 1.178 0 011.046 1.292l-.848 8.082a1.175 1.175 0 01-1.166 1.051h-.002" fill="url(#ap)"/></g><g clip-path="url(#aq)" transform="matrix(.62536 0 0 -.62538 -107.384 408.883)"><path d="M200.62 641.603a3.176 3.176 0 016.353 0 3.176 3.176 0 11-6.353 0" fill="url(#ar)"/></g><g clip-path="url(#as)" transform="matrix(.62536 0 0 -.62538 -107.384 408.883)"><g mask="url(#at)"><path d="M200.862 641.823v-.001c0-2.364 1.737-2.977 1.737-2.977-1.061 1.149-1.357 2.758-1.357 2.758-.111 2.42 2.555 2.995 2.555 2.995-2.872-.53-2.935-2.758-2.935-2.775" fill="url(#au)"/></g></g><g clip-path="url(#av)" transform="matrix(.62536 0 0 -.62538 -107.384 408.883)"><g mask="url(#aw)"><path d="M205.013 636.872s.515-5.797.65-7.731c-.107 1.96-.417 8.278.034 8.502 0 0-.652-.165-.684-.771m.684-8.304c-.001.085-.013.287-.034.573.02-.361.034-.573.034-.573" fill="url(#ax)"/></g></g><g clip-path="url(#ay)" transform="matrix(.62536 0 0 -.62538 -107.384 408.883)"><g mask="url(#az)"><path d="M200.291 637.628s-.559-5.754-.773-7.692c.239 1.961 1.023 8.198 1.372 8.376-.027-.005-.484-.107-.599-.684m-.844-8.275c.015.085.039.291.071.583l-.071-.583" fill="url(#aA)"/></g></g><g clip-path="url(#aB)" transform="matrix(.62536 0 0 -.62538 -107.384 408.883)"><g mask="url(#aC)"><path d="M200.169 626.093s.22-1.156 1.939-.88c0 0-2.008.495-1.217 6.05 0 0 .075 2.707 2 2.569 0 0 1.269-.66 1.549-1.558-.117.682-.367 2.346-.136 2.919-.585-.574-2.353-2.102-2.843-.135 0 0-.107 1.195-.055 2.957 0 0-1.341-11.291-1.237-11.922m4.135 9.1c.119.117.189.194.189.194-.083-.015-.144-.084-.189-.194m.189-3.215c-.004.101-.023.2-.053.296l.053-.296" fill="url(#aD)"/></g></g><g clip-path="url(#aE)" transform="matrix(.62536 0 0 -.62538 -107.384 408.883)"><g mask="url(#aF)"><path d="M201.048 625.103l-.002.508s-.001-.19.002-.508m.028-5.181c-.165-1.32.392-1.539.392-1.539.592-.291.862 0 .862 0-1.111.099-1.262 5.093-1.282 6.72z" fill="url(#aG)"/></g></g><g clip-path="url(#aH)" transform="matrix(.62536 0 0 -.62538 -107.384 408.883)"><g mask="url(#aI)"><path d="M204.074 624.069l-.003.508s-.001-.19.003-.508m.027-5.181c-.165-1.321.392-1.54.392-1.54.593-.291.862 0 .862 0-1.11.099-1.261 5.094-1.281 6.721z" fill="url(#aJ)"/></g></g><g clip-path="url(#aK)" transform="matrix(.62536 0 0 -.62538 -107.384 408.883)" fill="none" stroke="#bf1b2c" stroke-width="1.32"><path d="M181.129 633.586c0-.65-.526-1.175-1.175-1.175h-.083c-.65 0-1.175.526-1.175 1.175v8.126c0 .649.526 1.175 1.175 1.175h.083c.649 0 1.175-.526 1.175-1.175z"/><path d="M182.345 622.737c0-.649-.526-1.175-1.175-1.175h-.083c-.649 0-1.175.526-1.175 1.175v10.594c0 .65.526.735 1.175.735h.083c.65 0 1.175-.526 1.175-1.175zm2.907-.946c0-.649-.526-1.175-1.175-1.175h-.083c-.65 0-1.175.526-1.175 1.175v10.154c0 .65.526 1.175 1.175 1.175h.083c.649 0 1.175-.526 1.175-1.175z"/><path d="M185.252 641.34c0 .649-.526 1.175-1.175 1.175l-2.99.608a1.176 1.176 0 01-1.175-1.175v-8.396c0-.649.527-1.175 1.175-1.175l2.99-.608c.649 0 1.175.526 1.175 1.174z"/><path d="M186.468 632.47c0-.649-.526-1.175-1.175-1.175h-.083c-.649 0-1.175.526-1.175 1.175v8.126c0 .65.526 1.175 1.175 1.175h.083c.649 0 1.175-.526 1.175-1.175zm-.473 12.97a3.177 3.177 0 10-6.354.001 3.177 3.177 0 006.354 0z"/><path d="M181.621 642.754s-1.738.612-1.738 2.977c0 0 .051 2.244 2.935 2.775 0 0-2.665-.575-2.555-2.994 0 0 .296-1.61 1.358-2.758zm3.629-1.249s-.664-.108-.747-.708c0 0 .017-7.676-.035-8.334 0 0 .228 8.823.782 9.042zm-5.609 1.249s-.663-.108-.747-.708c0 0 .018-7.676-.034-8.333 0 0 .227 8.822.781 9.04zm.849-20.738s-.557.22-.392 1.54l-.031 5.688s-.043-7.11 1.284-7.228c0 0-.27-.29-.861 0zm3.117-.98s-.557.22-.392 1.54l-.03 5.688s-.043-7.11 1.283-7.228c0 0-.269-.29-.86 0zm.219 17.694s-.162 2.36.21 2.775c0 0-.84-1.485-2.106-1.388 0 0-1.825.17-1.54 2.147l-.323-8.198s-.155-1.59 1.061-1.382c0 0-1.058-.26-.683 3.85 0 0 .547 6.514 3.381.45z"/></g><g clip-path="url(#aL)" transform="matrix(.62536 0 0 -.62538 -107.384 408.883)"><path d="M179.87 642.887a1.174 1.174 0 01-1.174-1.175v-8.126c0-.65.525-1.176 1.174-1.176h.083c.65 0 1.176.526 1.176 1.176v8.126c0 .649-.526 1.175-1.176 1.175z" fill="url(#aM)"/></g><g clip-path="url(#aN)" transform="matrix(.62536 0 0 -.62538 -107.384 408.883)"><path d="M181.087 634.066c-.649 0-1.175-.085-1.175-.734v-10.594c0-.65.526-1.176 1.175-1.176h.083c.649 0 1.175.526 1.175 1.176v10.154c0 .649-.526 1.174-1.175 1.174z" fill="url(#aO)"/></g><g clip-path="url(#aP)" transform="matrix(.62536 0 0 -.62538 -107.384 408.883)"><path d="M183.993 633.12a1.174 1.174 0 01-1.174-1.175v-10.154c0-.649.525-1.174 1.174-1.174h.083c.649 0 1.175.525 1.175 1.174v10.154c0 .649-.526 1.175-1.175 1.175z" fill="url(#aQ)"/></g><g clip-path="url(#aR)" transform="matrix(.62536 0 0 -.62538 -107.384 408.883)"><path d="M179.912 641.948v-8.397c0-.649.526-1.174 1.175-1.174l2.989-.609c.649 0 1.175.527 1.175 1.175v8.397c0 .649-.526 1.174-1.175 1.174l-2.989.609a1.175 1.175 0 01-1.175-1.175" fill="url(#aS)"/></g><g clip-path="url(#aT)" transform="matrix(.62536 0 0 -.62538 -107.384 408.883)"><path d="M185.21 641.771a1.175 1.175 0 01-1.175-1.175v-8.126c0-.648.526-1.175 1.175-1.175h.083c.65 0 1.175.527 1.175 1.175v8.126c0 .649-.525 1.175-1.175 1.175z" fill="url(#aU)"/></g><g clip-path="url(#aV)" transform="matrix(.62536 0 0 -.62538 -107.384 408.883)"><path d="M179.642 645.44a3.176 3.176 0 016.353 0 3.176 3.176 0 11-6.353 0" fill="url(#aW)"/></g><g clip-path="url(#aX)" transform="matrix(.62536 0 0 -.62538 -107.384 408.883)"><g mask="url(#aY)"><path d="M179.884 645.731c0-2.365 1.737-2.977 1.737-2.977-1.062 1.147-1.358 2.757-1.358 2.757-.11 2.42 2.556 2.995 2.556 2.995-2.873-.53-2.935-2.757-2.935-2.775" fill="url(#aZ)"/></g></g><g clip-path="url(#ba)" transform="matrix(.62536 0 0 -.62538 -107.384 408.883)"><g mask="url(#bb)"><path d="M184.503 640.796s.013-5.812-.017-7.754c.062 1.964.296 8.269.764 8.462h-.001c-.041-.007-.665-.127-.746-.708m-.035-8.333c.007.086.013.289.018.579l-.018-.579" fill="url(#bc)"/></g></g><g clip-path="url(#bd)" transform="matrix(.62536 0 0 -.62538 -107.384 408.883)"><g mask="url(#be)"><path d="M178.895 642.046s.012-5.814-.018-7.756c.062 1.964.297 8.272.763 8.463l-.001.001c-.037-.007-.663-.126-.744-.708m-.035-8.333c.007.086.012.289.017.577a46.998 46.998 0 01-.017-.577" fill="url(#bf)"/></g></g><g clip-path="url(#bg)" transform="matrix(.62536 0 0 -.62538 -107.384 408.883)"><g mask="url(#bh)"><path d="M180.069 628.741l-.002.503s-.001-.188.002-.503m.028-5.186c-.165-1.319.393-1.54.393-1.54.591-.29.861 0 .861 0-1.111.1-1.262 5.102-1.282 6.726z" fill="url(#bi)"/></g></g><g clip-path="url(#bj)" transform="matrix(.62536 0 0 -.62538 -107.384 408.883)"><g mask="url(#bk)"><path d="M183.187 627.756l-.003.508s-.001-.19.003-.508m.029-5.18c-.166-1.32.391-1.54.391-1.54.592-.29.861 0 .861 0-1.109.099-1.26 5.091-1.281 6.72z" fill="url(#bl)"/></g></g><g clip-path="url(#bm)" transform="matrix(.62536 0 0 -.62538 -107.384 408.883)"><g mask="url(#bn)"><path d="M180.367 641.679l-.3-7.613s-.153-1.579 1.051-1.384c-.112-.014-1.025-.01-.673 3.851 0 0 .548 6.514 3.382.451v1.746s-.141 2.05.139 2.665c-.224-.343-.982-1.359-2.036-1.277 0 0-1.449.134-1.563 1.561l.024.585a2.64 2.64 0 01-.024-.585m3.599-.284c.045.068.069.11.069.11a.442.442 0 01-.069-.11m-2.848-8.713a.12.12 0 01.011.002.036.036 0 01-.011-.002" fill="url(#bo)"/></g></g><g clip-path="url(#bp)" transform="matrix(.62536 0 0 -.62538 -107.384 408.883)" fill="none" stroke-linecap="round" stroke-linejoin="round"><path d="M191.434 627.193a.963.963 0 00-.963-.963h-.067a.963.963 0 00-.963.963v5.775c0 .532.431.963.963.963h.067a.963.963 0 00.963-.963z" stroke="#f2f6a2" stroke-width="2.64"/><path d="M192.43 620.508a.963.963 0 00-.963-.963h-.067a.963.963 0 00-.963.963v8.677c0 .531.431.602.963.602h.067a.963.963 0 00.963-.963zm2.38-.775a.962.962 0 00-.962-.962h-.067a.962.962 0 00-.963.962v8.316c0 .531.43.963.963.963h.067a.963.963 0 00.963-.963z" stroke="#f2f6a2" stroke-width="2.64"/><path d="M194.81 632.664a.963.963 0 01-.962.963l-2.448.498a.963.963 0 01-.962-.963v-6.876c0-.532.43-.963.962-.963l2.448-.498c.532 0 .963.43.963.962z" stroke="#f2f6a2" stroke-width="2.64"/><path d="M195.807 626.28a.963.963 0 00-.962-.964h-.068a.962.962 0 00-.962.963v5.775c0 .531.43.963.962.963h.068a.963.963 0 00.962-.963zm-.387 9.742a2.602 2.602 0 10-5.205 0 2.602 2.602 0 005.205 0z" stroke="#f2f6a2" stroke-width="2.64"/><path d="M191.837 633.822s-1.423.502-1.423 2.438c0 0 .042 1.838 2.404 2.273 0 0-2.183-.471-2.093-2.452 0 0 .242-1.32 1.112-2.26zm2.973-1.023s-.543-.089-.612-.58c0 0 .014-4.086-.03-4.625 0 0 .188 5.026.642 5.205zm-4.594 1.023s-.543-.088-.612-.58c0 0 .015-4.086-.028-4.625 0 0 .187 5.026.64 5.205zm.694-13.905s-.455.18-.32 1.261l-.025 4.659s-.035-5.823 1.05-5.92c0 0-.22-.238-.704 0zm2.554-.803s-.456.18-.321 1.261l-.025 4.66s-.034-5.824 1.05-5.92c0 0-.22-.238-.704 0zm.179 11.412s-.133 1.932.171 2.273c0 0-.688-1.217-1.724-1.137 0 0-1.494.138-1.26 1.758l-.266-6.714s-.126-1.302.87-1.132c0 0-.867-.213-.56 3.152 0 0 .448 5.336 2.77.37z" stroke="#f2f6a2" stroke-width="2.64"/><path d="M191.434 627.193a.963.963 0 00-.963-.963h-.067a.963.963 0 00-.963.963v5.775c0 .532.431.963.963.963h.067a.963.963 0 00.963-.963z" stroke="#bf1b2c" stroke-width="1.32"/><path d="M192.43 620.508a.963.963 0 00-.963-.963h-.067a.963.963 0 00-.963.963v8.677c0 .531.431.602.963.602h.067a.963.963 0 00.963-.963zm2.38-.775a.962.962 0 00-.962-.962h-.067a.962.962 0 00-.963.962v8.316c0 .531.43.963.963.963h.067a.963.963 0 00.963-.963z" stroke="#bf1b2c" stroke-width="1.32"/><path d="M194.81 632.664a.963.963 0 01-.962.963l-2.448.498a.963.963 0 01-.962-.963v-6.876c0-.532.43-.963.962-.963l2.448-.498c.532 0 .963.43.963.962z" stroke="#bf1b2c" stroke-width="1.32"/><path d="M195.807 626.28a.963.963 0 00-.962-.964h-.068a.962.962 0 00-.962.963v5.775c0 .531.43.963.962.963h.068a.963.963 0 00.962-.963zm-.387 9.742a2.602 2.602 0 10-5.205 0 2.602 2.602 0 005.205 0z" stroke="#bf1b2c" stroke-width="1.32"/><path d="M191.837 633.822s-1.423.502-1.423 2.438c0 0 .042 1.838 2.404 2.273 0 0-2.183-.471-2.093-2.452 0 0 .242-1.32 1.112-2.26zm2.973-1.023s-.543-.089-.612-.58c0 0 .014-4.086-.03-4.625 0 0 .188 5.026.642 5.205zm-4.594 1.023s-.543-.088-.612-.58c0 0 .015-4.086-.028-4.625 0 0 .187 5.026.64 5.205zm.694-13.905s-.455.18-.32 1.261l-.025 4.659s-.035-5.823 1.05-5.92c0 0-.22-.238-.704 0zm2.554-.803s-.456.18-.321 1.261l-.025 4.66s-.034-5.824 1.05-5.92c0 0-.22-.238-.704 0zm.179 11.412s-.133 1.932.171 2.273c0 0-.688-1.217-1.724-1.137 0 0-1.494.138-1.26 1.758l-.266-6.714s-.126-1.302.87-1.132c0 0-.867-.213-.56 3.152 0 0 .448 5.336 2.77.37z" stroke="#bf1b2c" stroke-width="1.32"/></g><g clip-path="url(#bq)" transform="matrix(.62536 0 0 -.62538 -107.384 408.883)"><path d="M190.403 633.93a.962.962 0 01-.962-.962v-5.775c0-.532.431-.963.962-.963h.068c.532 0 .963.431.963.963v5.775a.962.962 0 01-.963.962z" fill="url(#br)"/></g><g clip-path="url(#bs)" transform="matrix(.62536 0 0 -.62538 -107.384 408.883)"><path d="M191.4 629.787c-.532 0-.962-.071-.962-.602v-8.676c0-.532.43-.963.962-.963h.068c.532 0 .962.431.962.963v8.316c0 .531-.43.962-.962.962z" fill="url(#bt)"/></g><g clip-path="url(#bu)" transform="matrix(.62536 0 0 -.62538 -107.384 408.883)"><path d="M193.78 629.012a.963.963 0 01-.962-.963v-8.316c0-.531.431-.961.962-.961h.067c.532 0 .963.43.963.961v8.316a.963.963 0 01-.963.963z" fill="url(#bv)"/></g><g clip-path="url(#bw)" transform="matrix(.62536 0 0 -.62538 -107.384 408.883)"><path d="M190.438 633.162v-6.877c0-.531.43-.962.962-.962l2.447-.498c.532 0 .963.43.963.962v6.876a.963.963 0 01-.963.963l-2.447.499a.962.962 0 01-.962-.963" fill="url(#bx)"/></g><g clip-path="url(#by)" transform="matrix(.62536 0 0 -.62538 -107.384 408.883)"><path d="M194.776 633.017a.962.962 0 01-.962-.962v-5.776c0-.531.43-.962.962-.962h.069c.531 0 .962.431.962.962v5.776a.962.962 0 01-.962.962z" fill="url(#bz)"/></g><g clip-path="url(#bA)" transform="matrix(.62536 0 0 -.62538 -107.384 408.883)"><path d="M190.216 636.022a2.602 2.602 0 015.204 0 2.601 2.601 0 11-5.204 0" fill="url(#bB)"/></g><g clip-path="url(#bC)" transform="matrix(.62536 0 0 -.62538 -107.384 408.883)"><g mask="url(#bD)"><path d="M190.415 636.259c0-1.936 1.423-2.437 1.423-2.437-.871.94-1.114 2.258-1.114 2.258-.089 1.981 2.094 2.453 2.094 2.453-2.362-.436-2.403-2.274-2.403-2.274" fill="url(#bE)"/></g></g><g clip-path="url(#bF)" transform="matrix(.62536 0 0 -.62538 -107.384 408.883)"><g mask="url(#bG)"><path d="M194.198 632.219s.011-3.258-.017-4.339c.047 1.068.241 4.765.628 4.919-.017-.003-.544-.097-.611-.58m-.029-4.625" fill="url(#bH)"/></g></g><g clip-path="url(#bI)" transform="matrix(.62536 0 0 -.62538 -107.384 408.883)"><g mask="url(#bJ)"><path d="M189.604 633.242s.012-3.281-.016-4.351c.046 1.052.239 4.776.628 4.931-.013-.002-.544-.094-.612-.58m-.028-4.625c.005.056.008.15.012.274a38.355 38.355 0 01-.012-.274" fill="url(#bK)"/></g></g><g clip-path="url(#bL)" transform="matrix(.62536 0 0 -.62538 -107.384 408.883)"><g mask="url(#bM)"><path d="M190.567 625.419l-.003.418s-.001-.157.003-.418m.022-4.241c-.135-1.081.322-1.262.322-1.262.485-.237.705 0 .705 0-.909.082-1.033 4.167-1.049 5.503z" fill="url(#bN)"/></g></g><g clip-path="url(#bO)" transform="matrix(.62536 0 0 -.62538 -107.384 408.883)"><g mask="url(#bP)"><path d="M193.12 624.62l-.003.415s0-.155.003-.415m.023-4.245c-.135-1.081.321-1.26.321-1.26.485-.237.705 0 .705 0-.908.08-1.033 4.173-1.049 5.505z" fill="url(#bQ)"/></g></g><g clip-path="url(#bR)" transform="matrix(.62536 0 0 -.62538 -107.384 408.883)"><g mask="url(#bS)"><path d="M190.811 632.94l-.247-6.233s-.125-1.294.861-1.134c-.091-.011-.839-.01-.55 3.154 0 0 .448 5.336 2.768.369v1.43s-.115 1.679.115 2.183c-.183-.281-.804-1.113-1.667-1.047 0 0-1.187.11-1.28 1.278l.019.481a2.107 2.107 0 01-.019-.481m2.947-.231c.037.056.056.09.056.09a.365.365 0 01-.056-.09m-2.333-7.136a.066.066 0 01.009.002l-.009-.002" fill="url(#bT)"/></g></g><path d="M0 0s-5.613 0-5.613-5.613v-26.192s0-5.612 5.613-5.612h26.192s5.613 0 5.613 5.612v26.192S31.805 0 26.192 0z" fill="none" stroke="#231f20" stroke-width=".66" transform="matrix(.62536 0 0 -.62538 5.04 1.53)"/></svg>