<svg xmlns="http://www.w3.org/2000/svg" width="100" height="100" viewBox="0 0 26.458 26.458"><defs><clipPath clipPathUnits="userSpaceOnUse" id="cP"><path d="M523.438 274.241s4.806-7.313 5.191-7.875v1.052s-1.832 3.647-4.375 6.823c0 0-.203.07-.53.218 0 0-.083.052-.16.052-.078 0-.151-.054-.126-.27"/></clipPath><clipPath clipPathUnits="userSpaceOnUse" id="cX"><path d="M520.271 292.165s-5.612 0-5.612-5.612v-26.196c.001-.17.087-5.609 5.612-5.609h26.192s5.612 0 5.612 5.613v26.192s0 5.612-5.612 5.612z"/></clipPath><clipPath clipPathUnits="userSpaceOnUse" id="aa"><path d="M514.658 277.044h24.143v-22.296h-24.143z"/></clipPath><clipPath clipPathUnits="userSpaceOnUse" id="Z"><path d="M-13903.2 14672.1H14932v-28835.2h-28835.2z"/></clipPath><clipPath clipPathUnits="userSpaceOnUse" id="ak"><path d="M514.659 260.357c.001-.17.087-5.609 5.612-5.609h18.53l-24.142 22.296z"/></clipPath><clipPath clipPathUnits="userSpaceOnUse" id="ag"><path d="M514.658 292.165h37.417v-23.136h-37.417z"/></clipPath><clipPath clipPathUnits="userSpaceOnUse" id="af"><path d="M-13903.2 14672.1H14932v-28835.2h-28835.2z"/></clipPath><clipPath clipPathUnits="userSpaceOnUse" id="an"><path d="M520.271 292.165s-5.612 0-5.612-5.612v-1.443l37.416-16.08v17.523s0 5.612-5.612 5.612z"/></clipPath><clipPath clipPathUnits="userSpaceOnUse" id="aq"><path d="M520.271 292.165s-5.612 0-5.612-5.612v-26.196c.001-.17.087-5.609 5.612-5.609h26.192s5.612 0 5.612 5.613v26.192s0 5.612-5.612 5.612z"/></clipPath><clipPath clipPathUnits="userSpaceOnUse" id="ar"><path d="M537.532 277.775a.96.96 0 010-1.919h14.543v1.919z"/></clipPath><clipPath clipPathUnits="userSpaceOnUse" id="at"><path d="M520.271 292.165s-5.612 0-5.612-5.612v-26.196c.001-.17.087-5.609 5.612-5.609h26.192s5.612 0 5.612 5.613v26.192s0 5.612-5.612 5.612z"/></clipPath><clipPath clipPathUnits="userSpaceOnUse" id="au"><path d="M537.532 277.369a.555.555 0 010-1.107h14.543v1.107z"/></clipPath><clipPath clipPathUnits="userSpaceOnUse" id="aw"><path d="M548.707 287.656c-2.59-13.478-5.036 0-5.036 0h-.624c-1.822-12.855-6.235 0-6.235 0l-.815-.432c3.644-6.715 1.535-9.449 1.535-9.449h14.543v3.512c-1.826.708-2.553 6.369-2.553 6.369z"/></clipPath><clipPath clipPathUnits="userSpaceOnUse" id="ay"><path d="M520.271 292.165s-5.612 0-5.612-5.612v-26.196c.001-.17.087-5.609 5.612-5.609h26.192s5.612 0 5.612 5.613v26.192s0 5.612-5.612 5.612z"/></clipPath><clipPath clipPathUnits="userSpaceOnUse" id="az"><path d="M549.04 287.249c-1.051-5.299-2.041-5.989-2.79-5.989-1.534 0-2.508 3.953-2.88 5.808-.586-3.77-1.465-5.531-2.749-5.531-1.123 0-2.179 1.519-2.957 3.049 1.275-3.392.896-5.445.527-6.405h13.884v2.677c-.913.243-1.658 1.381-2.265 3.464a24.268 24.268 0 00-.639 2.927zm-12.494-.193c.064-.122.126-.243.186-.363-.054.14-.103.269-.145.385z"/></clipPath><clipPath clipPathUnits="userSpaceOnUse" id="aB"><path d="M535.204 287.896a1.007 1.007 0 112.013 0 1.007 1.007 0 11-2.013 0"/></clipPath><clipPath clipPathUnits="userSpaceOnUse" id="aD"><path d="M520.271 292.165s-5.612 0-5.612-5.612v-26.196c.001-.17.087-5.609 5.612-5.609h26.192s5.612 0 5.612 5.613v26.192s0 5.612-5.612 5.612z"/></clipPath><clipPath clipPathUnits="userSpaceOnUse" id="aE"><path d="M535.609 287.896c0-.333.269-.603.601-.603a.603.603 0 010 1.205.602.602 0 01-.601-.602"/></clipPath><clipPath clipPathUnits="userSpaceOnUse" id="aG"><path d="M542.384 280.201c0-.805.452-1.458 1.008-1.458s1.007.653 1.007 1.458c0 .805-.451 1.458-1.007 1.458-.556 0-1.008-.653-1.008-1.458"/></clipPath><clipPath clipPathUnits="userSpaceOnUse" id="aI"><path d="M520.271 292.165s-5.612 0-5.612-5.612v-26.196c.001-.17.087-5.609 5.612-5.609h26.192s5.612 0 5.612 5.613v26.192s0 5.612-5.612 5.612z"/></clipPath><clipPath clipPathUnits="userSpaceOnUse" id="aJ"><path d="M548.102 280.201c0-.805.5-1.458 1.119-1.458s1.119.653 1.119 1.458c0 .805-.5 1.458-1.119 1.458s-1.119-.653-1.119-1.458"/></clipPath><clipPath clipPathUnits="userSpaceOnUse" id="aL"><path d="M520.271 292.165s-5.612 0-5.612-5.612v-26.196c.001-.17.087-5.609 5.612-5.609h26.192s5.612 0 5.612 5.613v26.192s0 5.612-5.612 5.612z"/></clipPath><clipPath clipPathUnits="userSpaceOnUse" id="aM"><path d="M542.35 288.231a1.007 1.007 0 112.014 0 1.008 1.008 0 11-2.014 0"/></clipPath><clipPath clipPathUnits="userSpaceOnUse" id="aO"><path d="M520.271 292.165s-5.612 0-5.612-5.612v-26.196c.001-.17.087-5.609 5.612-5.609h26.192s5.612 0 5.612 5.613v26.192s0 5.612-5.612 5.612z"/></clipPath><clipPath clipPathUnits="userSpaceOnUse" id="aP"><path d="M542.756 288.231a.6.6 0 111.202 0 .602.602 0 11-1.202 0"/></clipPath><clipPath clipPathUnits="userSpaceOnUse" id="aR"><path d="M548.106 288.231a1.006 1.006 0 112.014 0 1.008 1.008 0 11-2.014 0"/></clipPath><clipPath clipPathUnits="userSpaceOnUse" id="aT"><path d="M520.271 292.165s-5.612 0-5.612-5.612v-26.196c.001-.17.087-5.609 5.612-5.609h26.192s5.612 0 5.612 5.613v26.192s0 5.612-5.612 5.612z"/></clipPath><clipPath clipPathUnits="userSpaceOnUse" id="aU"><path d="M548.511 288.231a.602.602 0 011.204 0 .603.603 0 01-1.204 0"/></clipPath><clipPath clipPathUnits="userSpaceOnUse" id="b"><path d="M534.461 281.384l9.638 9.638 9.638-9.638-9.638-9.639z"/></clipPath><clipPath clipPathUnits="userSpaceOnUse" id="a"><path d="M-13903.2 14672.1H14932v-28835.2h-28835.2z"/></clipPath><clipPath clipPathUnits="userSpaceOnUse" id="aW"><path d="M537.938 283.639c-.08.304-.171.619-.274.947 0 0 .039-.376.274-.947m.253-5.458h12.343c-9.233 0-11.863 3.676-12.596 5.458.959-3.644.253-5.458.253-5.458"/></clipPath><clipPath clipPathUnits="userSpaceOnUse" id="ad"><path d="M537.934 283.77l4.715 4.714 4.714-4.714-4.714-4.715z"/></clipPath><clipPath clipPathUnits="userSpaceOnUse" id="ac"><path d="M-13903.2 14672.1H14932v-28835.2h-28835.2z"/></clipPath><clipPath clipPathUnits="userSpaceOnUse" id="aZ"><path d="M541.053 281.61c3.192-.959 2.305 5.278 2.305 5.278-.738-5.048-2.305-5.278-2.305-5.278"/></clipPath><clipPath clipPathUnits="userSpaceOnUse" id="e"><path d="M544.024 284.123l4.229 4.229 4.23-4.229-4.23-4.23z"/></clipPath><clipPath clipPathUnits="userSpaceOnUse" id="d"><path d="M-32768 32767h65535v-65535h-65535z"/></clipPath><clipPath clipPathUnits="userSpaceOnUse" id="bc"><path d="M546.935 281.51c2.637-.298 2.063 5.523 2.063 5.523-.888-4.857-2.063-5.523-2.063-5.523"/></clipPath><clipPath clipPathUnits="userSpaceOnUse" id="h"><path d="M543.548 279.651l5.018 5.018 5.018-5.018-5.018-5.018z"/></clipPath><clipPath clipPathUnits="userSpaceOnUse" id="g"><path d="M-13903.2 14672.1H14932v-28835.2h-28835.2z"/></clipPath><clipPath clipPathUnits="userSpaceOnUse" id="bf"><path d="M549.113 278.181l2.962-.039v2.195c-.138.219-.35.287-.669.062-1.163-.824-4.293-.225-4.293-.225.651-1.107 3.466-1.185 3.466-1.185-2.683-.648-5.523 2.17-5.523 2.17.358-1.924 4.057-2.978 4.057-2.978"/></clipPath><clipPath clipPathUnits="userSpaceOnUse" id="k"><path d="M534.913 288.064l.866.865.865-.865-.865-.866z"/></clipPath><clipPath clipPathUnits="userSpaceOnUse" id="j"><path d="M-32768 32767h65535v-65535h-65535z"/></clipPath><clipPath clipPathUnits="userSpaceOnUse" id="bi"><path d="M535.674 287.63c.209.59.536.868.536.868-.863-.219-.536-.868-.536-.868"/></clipPath><clipPath clipPathUnits="userSpaceOnUse" id="n"><path d="M542.056 288.399l.866.866.865-.866-.865-.865z"/></clipPath><clipPath clipPathUnits="userSpaceOnUse" id="m"><path d="M-13903.2 14672.1H14932v-28835.2h-28835.2z"/></clipPath><clipPath clipPathUnits="userSpaceOnUse" id="bl"><path d="M542.816 287.966c.209.59.537.867.537.867-.864-.218-.537-.867-.537-.867"/></clipPath><clipPath clipPathUnits="userSpaceOnUse" id="q"><path d="M547.812 288.399l.866.866.865-.866-.865-.865z"/></clipPath><clipPath clipPathUnits="userSpaceOnUse" id="p"><path d="M-13903.2 14672.1H14932v-28835.2h-28835.2z"/></clipPath><clipPath clipPathUnits="userSpaceOnUse" id="bo"><path d="M548.572 287.966c.209.59.538.867.538.867-.864-.218-.538-.867-.538-.867"/></clipPath><clipPath clipPathUnits="userSpaceOnUse" id="t"><path d="M535.502 276.824l7.926 7.927 7.926-7.927-7.926-7.926z"/></clipPath><clipPath clipPathUnits="userSpaceOnUse" id="s"><path d="M-13903.2 14672.1H14932v-28835.2h-28835.2z"/></clipPath><clipPath clipPathUnits="userSpaceOnUse" id="br"><path d="M547.326 277.369h3.476s-.661.007-1.691.007c-.515 0-1.122-.001-1.785-.007m-9.794 0c-.505 0-.554-.553-.554-.553.016-.52.45-.544.45-.544-1.375.869 5.492 1.062 9.898 1.097z"/></clipPath><clipPath clipPathUnits="userSpaceOnUse" id="bu"><path d="M537.565 281.622s.4-1.777-.06-2.36c0 0-.281-.231-.12-.374 0 0 .486-.237.742.265 0 0 .262 1.98 0 2.672 0 0-.145.046-.289.046-.147 0-.293-.049-.273-.249"/></clipPath><clipPath clipPathUnits="userSpaceOnUse" id="bw"><path d="M520.271 292.165s-5.612 0-5.612-5.612v-26.196c.001-.17.087-5.609 5.612-5.609h26.192s5.612 0 5.612 5.613v26.192s0 5.612-5.612 5.612z"/></clipPath><clipPath clipPathUnits="userSpaceOnUse" id="bx"><path d="M542.79 280.201c0-.48.27-.871.602-.871.331 0 .601.391.601.871s-.27.871-.601.871c-.332 0-.602-.391-.602-.871"/></clipPath><clipPath clipPathUnits="userSpaceOnUse" id="bz"><path d="M520.271 292.165s-5.612 0-5.612-5.612v-26.196c.001-.17.087-5.609 5.612-5.609h26.192s5.612 0 5.612 5.613v26.192s0 5.612-5.612 5.612z"/></clipPath><clipPath clipPathUnits="userSpaceOnUse" id="bA"><path d="M548.554 280.201c0-.48.298-.871.667-.871.368 0 .668.391.668.871s-.3.871-.668.871c-.369 0-.667-.391-.667-.871"/></clipPath><clipPath clipPathUnits="userSpaceOnUse" id="bC"><path d="M520.271 292.165s-5.612 0-5.612-5.612v-26.196c.001-.17.087-5.609 5.612-5.609h26.192s5.612 0 5.612 5.613v26.192s0 5.612-5.612 5.612z"/></clipPath><clipPath clipPathUnits="userSpaceOnUse" id="w"><path d="M542.504 280.443l.656.656.657-.656-.657-.656z"/></clipPath><clipPath clipPathUnits="userSpaceOnUse" id="v"><path d="M-13903.2 14672.1H14932v-28835.2h-28835.2z"/></clipPath><clipPath clipPathUnits="userSpaceOnUse" id="bD"><path d="M543.004 280.018c.178.567.388.849.388.849-.463-.223-.388-.849-.388-.849"/></clipPath><clipPath clipPathUnits="userSpaceOnUse" id="z"><path d="M548.293 280.504l.682.682.682-.682-.682-.681z"/></clipPath><clipPath clipPathUnits="userSpaceOnUse" id="y"><path d="M-13903.2 14672.1H14932v-28835.2h-28835.2z"/></clipPath><clipPath clipPathUnits="userSpaceOnUse" id="bG"><path d="M548.802 280.079c.198.567.43.85.43.85-.514-.223-.43-.85-.43-.85"/></clipPath><clipPath clipPathUnits="userSpaceOnUse" id="bJ"><path d="M537.505 279.262s.406 1.073.077 2.279c0 0-.6-1.303-.077-2.279"/></clipPath><clipPath clipPathUnits="userSpaceOnUse" id="bL"><path d="M520.271 292.165s-5.612 0-5.612-5.612v-26.196c.001-.17.087-5.609 5.612-5.609h26.192s5.612 0 5.612 5.613v26.192s0 5.612-5.612 5.612z"/></clipPath><clipPath clipPathUnits="userSpaceOnUse" id="C"><path d="M537.042 280.74l.451.451.451-.451-.451-.45z"/></clipPath><clipPath clipPathUnits="userSpaceOnUse" id="B"><path d="M-13903.2 14672.1H14932v-28835.2h-28835.2z"/></clipPath><clipPath clipPathUnits="userSpaceOnUse" id="bM"><path d="M537.414 280.379c.068.452.169.524.169.524l-.04.199c-.139-.255-.129-.723-.129-.723"/></clipPath><clipPath clipPathUnits="userSpaceOnUse" id="bP"><path d="M520.271 292.165s-5.612 0-5.612-5.612v-26.196c.001-.17.087-5.609 5.612-5.609h26.192s5.612 0 5.612 5.613v26.192s0 5.612-5.612 5.612z"/></clipPath><clipPath clipPathUnits="userSpaceOnUse" id="bQ"><path d="M528.737 274.563a1.175 1.175 0 01-1.175-1.175v-8.126c0-.649.526-1.175 1.175-1.175h.082c.649 0 1.176.526 1.176 1.175v8.126c0 .649-.527 1.175-1.176 1.175z"/></clipPath><clipPath clipPathUnits="userSpaceOnUse" id="bS"><path d="M527.562 265.486v-.207c0-.648.526-1.175 1.175-1.175h.083c.648 0 1.175.527 1.175 1.175v.207c-1.425-.939-2.433 0-2.433 0"/></clipPath><clipPath clipPathUnits="userSpaceOnUse" id="bU"><path d="M527.52 265.743a1.176 1.176 0 01-1.175-1.175v-9.82h2.433v10.26c0 .649-.527.735-1.175.735z"/></clipPath><clipPath clipPathUnits="userSpaceOnUse" id="bW"><path d="M524.614 264.796a1.175 1.175 0 01-1.176-1.174v-8.874h2.434v8.874c0 .649-.526 1.174-1.176 1.174z"/></clipPath><clipPath clipPathUnits="userSpaceOnUse" id="bY"><path d="M524.614 274.191a1.175 1.175 0 01-1.176-1.174v-8.398c0-.648.527-1.174 1.176-1.174l2.989.609c.648 0 1.175.524 1.175 1.174v8.396c0 .65-.527 1.176-1.175 1.176z"/></clipPath><clipPath clipPathUnits="userSpaceOnUse" id="F"><path d="M530.606 265.456l-.782 9.042-1.551-.134.782-9.042z"/></clipPath><clipPath clipPathUnits="userSpaceOnUse" id="E"><path d="M-13903.2 14672.1H14932v-28835.2h-28835.2z"/></clipPath><clipPath clipPathUnits="userSpaceOnUse" id="ca"><path d="M529.813 265.966c-.031 1.942-.017 7.756-.017 7.756-.084.6-.747.709-.747.709.467-.185.702-6.5.764-8.465m.017-.577l-.017.577c.005-.288.01-.491.017-.577"/></clipPath><clipPath clipPathUnits="userSpaceOnUse" id="cd"><path d="M522.579 273.423l-2.468-4.541c-.196-.362.105-.907.676-1.218l.073-.039c.569-.31 1.192-.267 1.389.095l2.468 4.541c.196.363-.105.908-.676 1.217l-.073.04c-.255.14-.522.207-.756.207-.287 0-.524-.103-.633-.302"/></clipPath><clipPath clipPathUnits="userSpaceOnUse" id="I"><path d="M523.98 266.934l2.235 5.615-4.214 1.678-2.235-5.616z"/></clipPath><clipPath clipPathUnits="userSpaceOnUse" id="H"><path d="M-13903.2 14672.1H14932v-28835.2h-28835.2z"/></clipPath><clipPath clipPathUnits="userSpaceOnUse" id="cf"><path d="M521.792 268.195c.584 1.1 2.445 4.383 2.445 4.383.116.373-.451.712-.451.712.366-.3-1.431-3.97-1.994-5.095m-.164-.325c.001.001.062.12.164.325a6.148 6.148 0 01-.164-.325"/></clipPath><clipPath clipPathUnits="userSpaceOnUse" id="L"><path d="M528.624 260.92h-.559v-6.172h.559z"/></clipPath><clipPath clipPathUnits="userSpaceOnUse" id="K"><path d="M-32768 32767h65535v-65535h-65535z"/></clipPath><clipPath clipPathUnits="userSpaceOnUse" id="ci"><path d="M528.62 260.419c.004.314.003.501.003.501zm-.555-5.671h.558c.001.142-.008.303-.031.485l.028 5.186c-.014-1.168-.096-4.089-.555-5.671"/></clipPath><clipPath clipPathUnits="userSpaceOnUse" id="O"><path d="M525.506 259.941h-.343v-5.193h.343z"/></clipPath><clipPath clipPathUnits="userSpaceOnUse" id="N"><path d="M-32768 32767h65535v-65535h-65535z"/></clipPath><clipPath clipPathUnits="userSpaceOnUse" id="cl"><path d="M525.503 259.442l.002.498zm-.34-4.694h.315l.025 4.694c-.012-.954-.069-3.084-.34-4.694"/></clipPath><clipPath clipPathUnits="userSpaceOnUse" id="co"><path d="M524.592 274.176l.026-.027c.227-.229 1.814-1.655 2.304-3.933 0 0 1.278 2.443.64 4.212z"/></clipPath><clipPath clipPathUnits="userSpaceOnUse" id="cq"><path d="M522.695 277.117a3.177 3.177 0 116.353 0 3.177 3.177 0 01-3.176 3.177 3.178 3.178 0 01-3.177-3.177"/></clipPath><clipPath clipPathUnits="userSpaceOnUse" id="R"><path d="M528.806 280.182h-2.935v-5.752h2.935z"/></clipPath><clipPath clipPathUnits="userSpaceOnUse" id="Q"><path d="M-13903.2 14672.1H14932v-28835.2h-28835.2z"/></clipPath><clipPath clipPathUnits="userSpaceOnUse" id="cs"><path d="M525.872 280.183s2.665-.576 2.555-2.996c0 0-.296-1.608-1.358-2.756 0 0 1.738.612 1.738 2.977 0 0-.052 2.243-2.935 2.775z"/></clipPath><clipPath clipPathUnits="userSpaceOnUse" id="cv"><path d="M524.821 276.197c0-.691.47-1.251 1.051-1.251.58 0 1.05.56 1.05 1.251 0 .691-.47 1.25-1.05 1.25-.581 0-1.051-.559-1.051-1.25"/></clipPath><clipPath clipPathUnits="userSpaceOnUse" id="cx"><path d="M520.271 292.165s-5.612 0-5.612-5.612v-26.196c.001-.17.087-5.609 5.612-5.609h26.192s5.612 0 5.612 5.613v26.192s0 5.612-5.612 5.612z"/></clipPath><clipPath clipPathUnits="userSpaceOnUse" id="cy"><path d="M527.311 276.673c0-.691.471-1.251 1.05-1.251.581 0 1.05.56 1.05 1.251 0 .692-.469 1.251-1.05 1.251-.579 0-1.05-.559-1.05-1.251"/></clipPath><clipPath clipPathUnits="userSpaceOnUse" id="cA"><path d="M520.271 292.165s-5.612 0-5.612-5.612v-26.196c.001-.17.087-5.609 5.612-5.609h26.192s5.612 0 5.612 5.613v26.192s0 5.612-5.612 5.612z"/></clipPath><clipPath clipPathUnits="userSpaceOnUse" id="cB"><path d="M526.345 273.977l-.18-.796.489-.396-.166-1.469.434-1.34.536 1.476-.511 1.164.284.565-.589.856z"/></clipPath><clipPath clipPathUnits="userSpaceOnUse" id="U"><path d="M524.655 274.724h4.121v-10.561h-4.121z"/></clipPath><clipPath clipPathUnits="userSpaceOnUse" id="T"><path d="M-13903.2 14672.1H14932v-28835.2h-28835.2z"/></clipPath><clipPath clipPathUnits="userSpaceOnUse" id="cD"><path d="M528.323 273.356c-.115-1.428-1.564-1.562-1.564-1.562-1.054-.081-1.811.936-2.036 1.277.282-.615.14-2.664.14-2.664v-1.746c2.835 6.063 3.381-.451 3.381-.451.353-3.863-.561-3.865-.671-3.851 1.203-.196 1.05 1.384 1.05 1.384l-.3 7.613a2.63 2.63 0 01-.024.584zm-3.668-.175s.023-.041.068-.11a.423.423 0 01-.068.11zm2.918-8.822l-.011.002.011-.002"/></clipPath><clipPath clipPathUnits="userSpaceOnUse" id="cG"><path d="M519.649 275.215l-.081-.016a1.173 1.173 0 01-.914-1.387l1.22-5.923a1.176 1.176 0 011.388-.914l.081.017c.635.131 1.045.753.914 1.388l-1.22 5.921a1.175 1.175 0 01-1.149.939c-.079 0-.159-.008-.239-.025"/></clipPath><clipPath clipPathUnits="userSpaceOnUse" id="cI"><path d="M519.649 275.215l-.082-.016a1.173 1.173 0 01-.913-1.387l.041-.201c1.207 1.205 2.382.488 2.382.488l-.041.202a1.173 1.173 0 01-1.148.939c-.079 0-.159-.008-.239-.025"/></clipPath><clipPath clipPathUnits="userSpaceOnUse" id="X"><path d="M523.327 268.693l-1.577 5.624-2.921-.819 1.576-5.624z"/></clipPath><clipPath clipPathUnits="userSpaceOnUse" id="W"><path d="M-32768 32767h65535v-65535h-65535z"/></clipPath><clipPath clipPathUnits="userSpaceOnUse" id="cK"><path d="M520.291 273.901c.472-.017 1.272-4.029 1.507-5.262-.203 1.226-.716 4.97-.716 4.97-.097.262-.457.299-.657.299-.08 0-.134-.007-.134-.007m1.574-5.618c-.002.01-.025.141-.067.356.03-.178.052-.302.067-.356"/></clipPath><clipPath clipPathUnits="userSpaceOnUse" id="cN"><path d="M522.94 273.726s4.696-6.505 5.689-9.063v1.703s-4.679 7.554-5.191 7.875c0 0-.051.014-.12.014-.154 0-.4-.071-.378-.529"/></clipPath><clipPath clipPathUnits="userSpaceOnUse" id="ai"><path d="M520.271 292.165s-5.612 0-5.612-5.612v-26.196c.001-.17.087-5.609 5.612-5.609h26.192s5.612 0 5.612 5.613v26.192s0 5.612-5.612 5.612z"/></clipPath><clipPath clipPathUnits="userSpaceOnUse" id="cR"><path d="M520.271 292.165s-5.612 0-5.612-5.612v-26.196c.001-.17.087-5.609 5.612-5.609h26.192s5.612 0 5.612 5.613v26.192s0 5.612-5.612 5.612z"/></clipPath><clipPath clipPathUnits="userSpaceOnUse" id="cS"><path d="M531.696 264.132v-9.384h4.876v13.1z"/></clipPath><clipPath clipPathUnits="userSpaceOnUse" id="cU"><path d="M520.271 292.165s-5.612 0-5.612-5.612v-26.196c.001-.17.087-5.609 5.612-5.609h26.192s5.612 0 5.612 5.613v26.192s0 5.612-5.612 5.612z"/></clipPath><clipPath clipPathUnits="userSpaceOnUse" id="cV"><path d="M536.572 267.848v-13.1h5.256v13.908z"/></clipPath><clipPath clipPathUnits="userSpaceOnUse" id="cY"><path d="M537.66 264.971c.001-.869.74-1.376 1.65-1.134l-.007 3.145c-.91-.242-1.645-1.142-1.643-2.011"/></clipPath><clipPath clipPathUnits="userSpaceOnUse" id="da"><path d="M520.271 292.165s-5.612 0-5.612-5.612v-26.196c.001-.17.087-5.609 5.612-5.609h26.192s5.612 0 5.612 5.613v26.192s0 5.612-5.612 5.612z"/></clipPath><clipPath clipPathUnits="userSpaceOnUse" id="db"><path d="M539.746 267.043c-.14 0-.289-.019-.443-.061l.007-3.145c.91.243 1.645 1.143 1.644 2.011-.002.721-.511 1.195-1.206 1.195h-.002"/></clipPath><clipPath clipPathUnits="userSpaceOnUse" id="dd"><path d="M520.271 292.165s-5.612 0-5.612-5.612v-26.196c.001-.17.087-5.609 5.612-5.609h26.192s5.612 0 5.612 5.613v26.192s0 5.612-5.612 5.612z"/></clipPath><clipPath clipPathUnits="userSpaceOnUse" id="de"><path d="M532.067 272.128a.666.666 0 01.151-.931l1.517-1.094a.667.667 0 01.932.151.665.665 0 01-.152.931l-1.516 1.095a.668.668 0 01-.932-.152"/></clipPath><clipPath clipPathUnits="userSpaceOnUse" id="dg"><path d="M520.271 292.165s-5.612 0-5.612-5.612v-26.196c.001-.17.087-5.609 5.612-5.609h26.192s5.612 0 5.612 5.613v26.192s0 5.612-5.612 5.612z"/></clipPath><linearGradient x1="0" y1="0" x2="1" y2="0" gradientUnits="userSpaceOnUse" gradientTransform="scale(-1.20282 1.20282) rotate(-45 66.274 658.4)" spreadMethod="pad" id="aF"><stop offset="0" stop-color="#f9a72b"/><stop offset=".599" stop-color="#f2ef1d"/><stop offset="1" stop-color="#f2ef1d"/></linearGradient><linearGradient x1="0" y1="0" x2="1" y2="0" gradientUnits="userSpaceOnUse" gradientTransform="rotate(45 -50.164 748.597) scale(52.91561)" spreadMethod="pad" id="aj"><stop offset="0" stop-color="#ed1834"/><stop offset="1" stop-color="#730b0e"/></linearGradient><linearGradient x1="0" y1="0" x2="1" y2="0" gradientUnits="userSpaceOnUse" gradientTransform="matrix(14.08347 0 0 -14.08347 518.682 265.896)" spreadMethod="pad" id="ab"><stop offset="0" stop-color="#fff"/><stop offset=".005" stop-color="#fff"/><stop offset="1" stop-opacity="0" stop-color="#fff"/></linearGradient><linearGradient x1="0" y1="0" x2="1" y2="0" gradientUnits="userSpaceOnUse" gradientTransform="matrix(21.82677 0 0 -21.82677 520.894 280.597)" spreadMethod="pad" id="ap"><stop offset="0" stop-color="#730b0e"/><stop offset=".005" stop-color="#730b0e"/><stop offset="1" stop-color="#730b0e"/></linearGradient><linearGradient x1="0" y1="0" x2="1" y2="0" gradientUnits="userSpaceOnUse" gradientTransform="matrix(21.82677 0 0 -21.82677 520.894 280.597)" spreadMethod="pad" id="ah"><stop offset="0" stop-color="#fff"/><stop offset=".005" stop-color="#fff"/><stop offset="1" stop-opacity="0" stop-color="#fff"/></linearGradient><linearGradient x1="0" y1="0" x2="1" y2="0" gradientUnits="userSpaceOnUse" gradientTransform="scale(-18.02896 18.02896) rotate(-45 3.56 45.033)" spreadMethod="pad" id="as"><stop offset="0" stop-color="#f2ef1d"/><stop offset=".401" stop-color="#f2ef1d"/><stop offset="1" stop-color="#f9a72b"/></linearGradient><linearGradient x1="0" y1="0" x2="1" y2="0" gradientUnits="userSpaceOnUse" gradientTransform="scale(-17.2172 17.2172) rotate(-45 3.717 47.128)" spreadMethod="pad" id="av"><stop offset="0" stop-color="#f9a72b"/><stop offset=".599" stop-color="#f2ef1d"/><stop offset="1" stop-color="#f2ef1d"/></linearGradient><linearGradient x1="0" y1="0" x2="1" y2="0" gradientUnits="userSpaceOnUse" gradientTransform="scale(-3.14271 3.14271) rotate(20.895 -318.604 -418.422)" spreadMethod="pad" id="df"><stop offset="0" stop-color="#231f20"/><stop offset=".005" stop-color="#231f20"/><stop offset="1" stop-color="#4f4c4d"/></linearGradient><linearGradient x1="0" y1="0" x2="1" y2="0" gradientUnits="userSpaceOnUse" gradientTransform="matrix(1.64754 .43888 .00313 -1.57337 539.306 265.41)" spreadMethod="pad" id="dc"><stop offset="0" stop-color="#2e3192"/><stop offset=".005" stop-color="#2e3192"/><stop offset="1" stop-color="#50ade5"/></linearGradient><linearGradient x1="0" y1="0" x2="1" y2="0" gradientUnits="userSpaceOnUse" gradientTransform="matrix(1.6471 .43876 .00313 -1.57295 537.66 264.971)" spreadMethod="pad" id="cZ"><stop offset="0" stop-color="#730b0e"/><stop offset=".005" stop-color="#730b0e"/><stop offset="1" stop-color="#ed1c24"/></linearGradient><linearGradient x1="0" y1="0" x2="1" y2="0" gradientUnits="userSpaceOnUse" gradientTransform="matrix(5.2559 0 0 -5.2559 536.572 259.814)" spreadMethod="pad" id="cW"><stop offset="0" stop-color="#bf935b"/><stop offset="1" stop-color="#a47343"/></linearGradient><linearGradient x1="0" y1="0" x2="1" y2="0" gradientUnits="userSpaceOnUse" gradientTransform="matrix(4.8767 0 0 -4.8767 531.695 259.41)" spreadMethod="pad" id="cT"><stop offset="0" stop-color="#a47343"/><stop offset="1" stop-color="#855333"/></linearGradient><linearGradient x1="0" y1="0" x2="1" y2="0" gradientUnits="userSpaceOnUse" gradientTransform="matrix(3.03097 0 0 -3.03097 524.3 270.438)" spreadMethod="pad" id="cQ"><stop offset="0" stop-color="#2e3192"/><stop offset=".005" stop-color="#2e3192"/><stop offset="1" stop-color="#50ade5"/></linearGradient><linearGradient x1="0" y1="0" x2="1" y2="0" gradientUnits="userSpaceOnUse" gradientTransform="matrix(3.31922 0 0 -3.31922 523.887 269.46)" spreadMethod="pad" id="cO"><stop offset="0" stop-color="#730b0e"/><stop offset=".005" stop-color="#730b0e"/><stop offset="1" stop-color="#ed1c24"/></linearGradient><linearGradient x1="0" y1="0" x2="1" y2="0" gradientUnits="userSpaceOnUse" gradientTransform="matrix(-1.57502 5.61865 -8.73903 -2.44981 522.194 268.375)" spreadMethod="pad" id="cM"><stop offset="0" stop-color="#fff"/><stop offset="1" stop-color="#fff"/></linearGradient><linearGradient x1="0" y1="0" x2="1" y2="0" gradientUnits="userSpaceOnUse" gradientTransform="rotate(11.602 -1090.865 2691.26) scale(1.41942)" spreadMethod="pad" id="cJ"><stop offset="0" stop-color="#f89d78"/><stop offset="1" stop-color="#a47343"/></linearGradient><linearGradient x1="0" y1="0" x2="1" y2="0" gradientUnits="userSpaceOnUse" gradientTransform="rotate(11.602 -1073.591 2692.993) scale(1.42193)" spreadMethod="pad" id="cH"><stop offset="0" stop-color="#4f4c4d"/><stop offset="1" stop-color="#393536"/></linearGradient><linearGradient x1="0" y1="0" x2="1" y2="0" gradientUnits="userSpaceOnUse" gradientTransform="scale(-15.46541 15.46541) rotate(-45 4.616 52.22)" spreadMethod="pad" id="ax"><stop offset="0" stop-color="#f2ef1d"/><stop offset=".401" stop-color="#f2ef1d"/><stop offset="1" stop-color="#f9a72b"/></linearGradient><linearGradient x1="0" y1="0" x2="1" y2="0" gradientUnits="userSpaceOnUse" gradientTransform="matrix(0 9.59807 9.59807 0 526.643 264.342)" spreadMethod="pad" id="V"><stop offset="0" stop-color="#fff"/><stop offset="1" stop-opacity="0" stop-color="#fff"/></linearGradient><linearGradient x1="0" y1="0" x2="1" y2="0" gradientUnits="userSpaceOnUse" gradientTransform="matrix(0 9.59807 9.59807 0 526.643 264.342)" spreadMethod="pad" id="cF"><stop offset="0" stop-color="#fff"/><stop offset="1" stop-color="#fff"/></linearGradient><linearGradient x1="0" y1="0" x2="1" y2="0" gradientUnits="userSpaceOnUse" gradientTransform="matrix(1.29163 0 0 -1.29163 526.166 272.006)" spreadMethod="pad" id="cC"><stop offset="0" stop-color="#393536"/><stop offset="1" stop-color="#231f20"/></linearGradient><linearGradient x1="0" y1="0" x2="1" y2="0" gradientUnits="userSpaceOnUse" gradientTransform="matrix(2.10073 0 0 -2.10073 527.311 276.673)" spreadMethod="pad" id="cz"><stop offset="0" stop-color="#bfeafb"/><stop offset="1" stop-color="#fff"/></linearGradient><linearGradient x1="0" y1="0" x2="1" y2="0" gradientUnits="userSpaceOnUse" gradientTransform="matrix(2.10073 0 0 -2.10073 524.822 276.197)" spreadMethod="pad" id="cw"><stop offset="0" stop-color="#bfeafb"/><stop offset="1" stop-color="#fff"/></linearGradient><linearGradient x1="0" y1="0" x2="1" y2="0" gradientUnits="userSpaceOnUse" gradientTransform="rotate(90 126.454 400.885) scale(5.75197)" spreadMethod="pad" id="S"><stop offset="0" stop-opacity="0" stop-color="#fff"/><stop offset="1" stop-color="#fff"/></linearGradient><linearGradient x1="0" y1="0" x2="1" y2="0" gradientUnits="userSpaceOnUse" gradientTransform="rotate(90 126.454 400.885) scale(5.75197)" spreadMethod="pad" id="cu"><stop offset="0" stop-color="#fff"/><stop offset="1" stop-color="#fff"/></linearGradient><linearGradient x1="0" y1="0" x2="1" y2="0" gradientUnits="userSpaceOnUse" gradientTransform="rotate(180 264.524 138.559) scale(6.35331)" spreadMethod="pad" id="cr"><stop offset="0" stop-color="#f89d78"/><stop offset="1" stop-color="#a47343"/></linearGradient><linearGradient x1="0" y1="0" x2="1" y2="0" gradientUnits="userSpaceOnUse" gradientTransform="matrix(3.14894 0 0 -3.14894 524.591 272.322)" spreadMethod="pad" id="cp"><stop offset="0" stop-color="#bfeafb"/><stop offset="1" stop-color="#fff"/></linearGradient><linearGradient x1="0" y1="0" x2="1" y2="0" gradientUnits="userSpaceOnUse" gradientTransform="rotate(90 136.14 388.723) scale(7.35705)" spreadMethod="pad" id="P"><stop offset="0" stop-color="#fff"/><stop offset="1" stop-opacity="0" stop-color="#fff"/></linearGradient><linearGradient x1="0" y1="0" x2="1" y2="0" gradientUnits="userSpaceOnUse" gradientTransform="rotate(90 136.14 388.723) scale(7.35705)" spreadMethod="pad" id="cn"><stop offset="0" stop-color="#fff"/><stop offset="1" stop-color="#fff"/></linearGradient><linearGradient x1="0" y1="0" x2="1" y2="0" gradientUnits="userSpaceOnUse" gradientTransform="scale(-14.17743 14.17743) rotate(-45 5.028 56.914)" spreadMethod="pad" id="aA"><stop offset="0" stop-color="#f9a72b"/><stop offset=".599" stop-color="#f2ef1d"/><stop offset="1" stop-color="#f2ef1d"/></linearGradient><linearGradient x1="0" y1="0" x2="1" y2="0" gradientUnits="userSpaceOnUse" gradientTransform="rotate(90 137.209 390.772) scale(7.35705)" spreadMethod="pad" id="M"><stop offset="0" stop-color="#fff"/><stop offset="1" stop-opacity="0" stop-color="#fff"/></linearGradient><linearGradient x1="0" y1="0" x2="1" y2="0" gradientUnits="userSpaceOnUse" gradientTransform="rotate(90 137.209 390.772) scale(7.35705)" spreadMethod="pad" id="ck"><stop offset="0" stop-color="#fff"/><stop offset="1" stop-color="#fff"/></linearGradient><linearGradient x1="0" y1="0" x2="1" y2="0" gradientUnits="userSpaceOnUse" gradientTransform="matrix(2.15793 5.42141 -8.4323 3.35628 521.945 267.743)" spreadMethod="pad" id="J"><stop offset="0" stop-opacity="0" stop-color="#fff"/><stop offset="1" stop-color="#fff"/></linearGradient><linearGradient x1="0" y1="0" x2="1" y2="0" gradientUnits="userSpaceOnUse" gradientTransform="matrix(2.15793 5.42141 -8.4323 3.35628 521.945 267.743)" spreadMethod="pad" id="ch"><stop offset="0" stop-color="#fff"/><stop offset="1" stop-color="#fff"/></linearGradient><linearGradient x1="0" y1="0" x2="1" y2="0" gradientUnits="userSpaceOnUse" gradientTransform="matrix(-1.24713 .67782 -.43106 -.7931 523.126 270.185)" spreadMethod="pad" id="ce"><stop offset="0" stop-color="#393536"/><stop offset="1" stop-color="#4f4c4d"/></linearGradient><linearGradient x1="0" y1="0" x2="1" y2="0" gradientUnits="userSpaceOnUse" gradientTransform="scale(-2.01439 2.01439) rotate(-45 39.674 393.383)" spreadMethod="pad" id="aC"><stop offset="0" stop-color="#f2ef1d"/><stop offset=".401" stop-color="#f2ef1d"/><stop offset="1" stop-color="#f9a72b"/></linearGradient><linearGradient x1="0" y1="0" x2="1" y2="0" gradientUnits="userSpaceOnUse" gradientTransform="rotate(94.939 143.357 375.875) scale(9.07548)" spreadMethod="pad" id="G"><stop offset="0" stop-opacity="0" stop-color="#fff"/><stop offset="1" stop-color="#fff"/></linearGradient><linearGradient x1="0" y1="0" x2="1" y2="0" gradientUnits="userSpaceOnUse" gradientTransform="rotate(94.939 143.357 375.875) scale(9.07548)" spreadMethod="pad" id="cc"><stop offset="0" stop-color="#fff"/><stop offset="1" stop-color="#fff"/></linearGradient><linearGradient x1="0" y1="0" x2="1" y2="0" gradientUnits="userSpaceOnUse" gradientTransform="rotate(180 264.389 134.561) scale(5.33969)" spreadMethod="pad" id="bZ"><stop offset="0" stop-color="#393536"/><stop offset="1" stop-color="#4f4c4d"/></linearGradient><linearGradient x1="0" y1="0" x2="1" y2="0" gradientUnits="userSpaceOnUse" gradientTransform="rotate(180 262.733 129.273) scale(1.41943)" spreadMethod="pad" id="bX"><stop offset="0" stop-color="#393536"/><stop offset="1" stop-color="#4f4c4d"/></linearGradient><linearGradient x1="0" y1="0" x2="1" y2="0" gradientUnits="userSpaceOnUse" gradientTransform="rotate(180 264.186 129.745) scale(1.41943)" spreadMethod="pad" id="bV"><stop offset="0" stop-color="#393536"/><stop offset="1" stop-color="#4f4c4d"/></linearGradient><linearGradient x1="0" y1="0" x2="1" y2="0" gradientUnits="userSpaceOnUse" gradientTransform="rotate(180 264.795 132.397) scale(1.41917)" spreadMethod="pad" id="bT"><stop offset="0" stop-color="#f89d78"/><stop offset="1" stop-color="#a47343"/></linearGradient><linearGradient x1="0" y1="0" x2="1" y2="0" gradientUnits="userSpaceOnUse" gradientTransform="rotate(180 264.795 134.662) scale(1.41943)" spreadMethod="pad" id="bR"><stop offset="0" stop-color="#393536"/><stop offset="1" stop-color="#4f4c4d"/></linearGradient><linearGradient x1="0" y1="0" x2="1" y2="0" gradientUnits="userSpaceOnUse" gradientTransform="scale(.60156 -.60156) rotate(-45 -116.353 -1311.265)" spreadMethod="pad" id="D"><stop offset="0" stop-color="#fff"/><stop offset="1" stop-opacity="0" stop-color="#fff"/></linearGradient><linearGradient x1="0" y1="0" x2="1" y2="0" gradientUnits="userSpaceOnUse" gradientTransform="scale(.60156 -.60156) rotate(-45 -116.353 -1311.265)" spreadMethod="pad" id="bO"><stop offset="0" stop-color="#fff"/><stop offset="1" stop-color="#fff"/></linearGradient><linearGradient x1="0" y1="0" x2="1" y2="0" gradientUnits="userSpaceOnUse" gradientTransform="scale(-1.558 1.558) rotate(45 -389.5 -327.086)" spreadMethod="pad" id="bK"><stop offset="0" stop-color="#ed1c24"/><stop offset="1" stop-color="#730b0e"/></linearGradient><linearGradient x1="0" y1="0" x2="1" y2="0" gradientUnits="userSpaceOnUse" gradientTransform="scale(.9047 -.9047) rotate(-45 -70.624 -886.941)" spreadMethod="pad" id="A"><stop offset="0" stop-color="#fff"/><stop offset="1" stop-opacity="0" stop-color="#fff"/></linearGradient><linearGradient x1="0" y1="0" x2="1" y2="0" gradientUnits="userSpaceOnUse" gradientTransform="scale(.9047 -.9047) rotate(-45 -70.624 -886.941)" spreadMethod="pad" id="bI"><stop offset="0" stop-color="#fff"/><stop offset="1" stop-color="#fff"/></linearGradient><linearGradient x1="0" y1="0" x2="1" y2="0" gradientUnits="userSpaceOnUse" gradientTransform="matrix(14.08347 0 0 -14.08347 518.682 265.896)" spreadMethod="pad" id="am"><stop offset="0" stop-color="#730b0e"/><stop offset=".005" stop-color="#730b0e"/><stop offset="1" stop-color="#730b0e"/></linearGradient><linearGradient x1="0" y1="0" x2="1" y2="0" gradientUnits="userSpaceOnUse" gradientTransform="scale(.87505 -.87505) rotate(-45 -76.256 -908.954)" spreadMethod="pad" id="x"><stop offset="0" stop-color="#fff"/><stop offset="1" stop-opacity="0" stop-color="#fff"/></linearGradient><linearGradient x1="0" y1="0" x2="1" y2="0" gradientUnits="userSpaceOnUse" gradientTransform="scale(.87505 -.87505) rotate(-45 -76.256 -908.954)" spreadMethod="pad" id="bF"><stop offset="0" stop-color="#fff"/><stop offset="1" stop-color="#fff"/></linearGradient><linearGradient x1="0" y1="0" x2="1" y2="0" gradientUnits="userSpaceOnUse" gradientTransform="scale(-1.55159 1.55159) rotate(45 -394.728 -337.592)" spreadMethod="pad" id="bB"><stop offset="0" stop-color="#ed1c24"/><stop offset="1" stop-color="#730b0e"/></linearGradient><linearGradient x1="0" y1="0" x2="1" y2="0" gradientUnits="userSpaceOnUse" gradientTransform="scale(-1.49573 1.49573) rotate(45 -407.53 -345.473)" spreadMethod="pad" id="by"><stop offset="0" stop-color="#ed1c24"/><stop offset="1" stop-color="#730b0e"/></linearGradient><linearGradient x1="0" y1="0" x2="1" y2="0" gradientUnits="userSpaceOnUse" gradientTransform="scale(-2.60227 2.60227) rotate(-45 26.967 303.921)" spreadMethod="pad" id="bv"><stop offset="0" stop-color="#f2ef1d"/><stop offset=".401" stop-color="#f2ef1d"/><stop offset="1" stop-color="#f9a72b"/></linearGradient><linearGradient x1="0" y1="0" x2="1" y2="0" gradientUnits="userSpaceOnUse" gradientTransform="scale(10.34419 -10.34419) rotate(-45 -5.8 -76.245)" spreadMethod="pad" id="u"><stop offset="0" stop-color="#fff"/><stop offset=".491" stop-opacity="0" stop-color="#fff"/><stop offset="1" stop-opacity="0" stop-color="#fff"/></linearGradient><linearGradient x1="0" y1="0" x2="1" y2="0" gradientUnits="userSpaceOnUse" gradientTransform="scale(10.34419 -10.34419) rotate(-45 -5.8 -76.245)" spreadMethod="pad" id="bt"><stop offset="0" stop-color="#fff"/><stop offset=".491" stop-color="#fff"/><stop offset="1" stop-color="#fff"/></linearGradient><linearGradient x1="0" y1="0" x2="1" y2="0" gradientUnits="userSpaceOnUse" gradientTransform="scale(-2.50603 2.50603) rotate(-45 26.8 318.25)" spreadMethod="pad" id="aH"><stop offset="0" stop-color="#f2ef1d"/><stop offset=".401" stop-color="#f2ef1d"/><stop offset="1" stop-color="#f9a72b"/></linearGradient><linearGradient x1="0" y1="0" x2="1" y2="0" gradientUnits="userSpaceOnUse" gradientTransform="scale(.99364 -.99364) rotate(-45 -74.024 -811.226)" spreadMethod="pad" id="r"><stop offset="0" stop-color="#fff"/><stop offset=".491" stop-opacity="0" stop-color="#fff"/><stop offset="1" stop-opacity="0" stop-color="#fff"/></linearGradient><linearGradient x1="0" y1="0" x2="1" y2="0" gradientUnits="userSpaceOnUse" gradientTransform="scale(.99364 -.99364) rotate(-45 -74.024 -811.226)" spreadMethod="pad" id="bq"><stop offset="0" stop-color="#fff"/><stop offset=".491" stop-color="#fff"/><stop offset="1" stop-color="#fff"/></linearGradient><linearGradient x1="0" y1="0" x2="1" y2="0" gradientUnits="userSpaceOnUse" gradientTransform="scale(.99364 -.99364) rotate(-45 -76.92 -804.233)" spreadMethod="pad" id="o"><stop offset="0" stop-color="#fff"/><stop offset=".491" stop-opacity="0" stop-color="#fff"/><stop offset="1" stop-opacity="0" stop-color="#fff"/></linearGradient><linearGradient x1="0" y1="0" x2="1" y2="0" gradientUnits="userSpaceOnUse" gradientTransform="scale(.99364 -.99364) rotate(-45 -76.92 -804.233)" spreadMethod="pad" id="bn"><stop offset="0" stop-color="#fff"/><stop offset=".491" stop-color="#fff"/><stop offset="1" stop-color="#fff"/></linearGradient><linearGradient x1="0" y1="0" x2="1" y2="0" gradientUnits="userSpaceOnUse" gradientTransform="scale(.9932 -.9932) rotate(-45 -80.144 -795.741)" spreadMethod="pad" id="l"><stop offset="0" stop-color="#fff"/><stop offset=".491" stop-opacity="0" stop-color="#fff"/><stop offset="1" stop-opacity="0" stop-color="#fff"/></linearGradient><linearGradient x1="0" y1="0" x2="1" y2="0" gradientUnits="userSpaceOnUse" gradientTransform="scale(.9932 -.9932) rotate(-45 -80.144 -795.741)" spreadMethod="pad" id="bk"><stop offset="0" stop-color="#fff"/><stop offset=".491" stop-color="#fff"/><stop offset="1" stop-color="#fff"/></linearGradient><linearGradient x1="0" y1="0" x2="1" y2="0" gradientUnits="userSpaceOnUse" gradientTransform="scale(-2.5994 2.5994) rotate(-45 24.726 309.548)" spreadMethod="pad" id="aK"><stop offset="0" stop-color="#f2ef1d"/><stop offset=".401" stop-color="#f2ef1d"/><stop offset="1" stop-color="#f9a72b"/></linearGradient><linearGradient x1="0" y1="0" x2="1" y2="0" gradientUnits="userSpaceOnUse" gradientTransform="scale(4.74795 -4.74795) rotate(-45 -13.122 -168.475)" spreadMethod="pad" id="i"><stop offset="0" stop-opacity="0" stop-color="#fff"/><stop offset="1" stop-color="#fff"/></linearGradient><linearGradient x1="0" y1="0" x2="1" y2="0" gradientUnits="userSpaceOnUse" gradientTransform="scale(4.74795 -4.74795) rotate(-45 -13.122 -168.475)" spreadMethod="pad" id="bh"><stop offset="0" stop-color="#fff"/><stop offset="1" stop-color="#fff"/></linearGradient><linearGradient x1="0" y1="0" x2="1" y2="0" gradientUnits="userSpaceOnUse" gradientTransform="scale(5.36504 -5.36504) rotate(-45 -12.58 -149.204)" spreadMethod="pad" id="f"><stop offset="0" stop-color="#fff"/><stop offset="1" stop-opacity="0" stop-color="#fff"/></linearGradient><linearGradient x1="0" y1="0" x2="1" y2="0" gradientUnits="userSpaceOnUse" gradientTransform="scale(5.36504 -5.36504) rotate(-45 -12.58 -149.204)" spreadMethod="pad" id="be"><stop offset="0" stop-color="#fff"/><stop offset="1" stop-color="#fff"/></linearGradient><linearGradient x1="0" y1="0" x2="1" y2="0" gradientUnits="userSpaceOnUse" gradientTransform="scale(5.36224 -5.36224) rotate(-45 -13.077 -148.001)" spreadMethod="pad" id="ae"><stop offset="0" stop-color="#fff"/><stop offset="1" stop-opacity="0" stop-color="#fff"/></linearGradient><linearGradient x1="0" y1="0" x2="1" y2="0" gradientUnits="userSpaceOnUse" gradientTransform="scale(5.36224 -5.36224) rotate(-45 -13.077 -148.001)" spreadMethod="pad" id="bb"><stop offset="0" stop-color="#fff"/><stop offset="1" stop-color="#fff"/></linearGradient><linearGradient x1="0" y1="0" x2="1" y2="0" gradientUnits="userSpaceOnUse" gradientTransform="scale(-2.01436 2.01436) rotate(-45 38.102 397.755)" spreadMethod="pad" id="aN"><stop offset="0" stop-color="#f2ef1d"/><stop offset=".401" stop-color="#f2ef1d"/><stop offset="1" stop-color="#f9a72b"/></linearGradient><linearGradient x1="0" y1="0" x2="1" y2="0" gradientUnits="userSpaceOnUse" gradientTransform="scale(11.1295 -11.1295) rotate(-45 -5.655 -71.01)" spreadMethod="pad" id="c"><stop offset="0" stop-color="#fff"/><stop offset=".491" stop-opacity="0" stop-color="#fff"/><stop offset="1" stop-opacity="0" stop-color="#fff"/></linearGradient><linearGradient x1="0" y1="0" x2="1" y2="0" gradientUnits="userSpaceOnUse" gradientTransform="scale(11.1295 -11.1295) rotate(-45 -5.655 -71.01)" spreadMethod="pad" id="aY"><stop offset="0" stop-color="#fff"/><stop offset=".491" stop-color="#fff"/><stop offset="1" stop-color="#fff"/></linearGradient><linearGradient x1="0" y1="0" x2="1" y2="0" gradientUnits="userSpaceOnUse" gradientTransform="scale(-1.20287 1.20287) rotate(-45 61.244 671.459)" spreadMethod="pad" id="aV"><stop offset="0" stop-color="#f9a72b"/><stop offset=".599" stop-color="#f2ef1d"/><stop offset="1" stop-color="#f2ef1d"/></linearGradient><linearGradient x1="0" y1="0" x2="1" y2="0" gradientUnits="userSpaceOnUse" gradientTransform="scale(-2.01466 2.01466) rotate(-45 36.668 401.145)" spreadMethod="pad" id="aS"><stop offset="0" stop-color="#f2ef1d"/><stop offset=".401" stop-color="#f2ef1d"/><stop offset="1" stop-color="#f9a72b"/></linearGradient><linearGradient x1="0" y1="0" x2="1" y2="0" gradientUnits="userSpaceOnUse" gradientTransform="scale(-1.20266 1.20266) rotate(-45 63.648 665.801)" spreadMethod="pad" id="aQ"><stop offset="0" stop-color="#f9a72b"/><stop offset=".599" stop-color="#f2ef1d"/><stop offset="1" stop-color="#f2ef1d"/></linearGradient><linearGradient x1="0" y1="0" x2="1" y2="0" gradientUnits="userSpaceOnUse" gradientTransform="matrix(-1.57502 5.61865 -8.73903 -2.44981 522.194 268.375)" spreadMethod="pad" id="Y"><stop offset="0" stop-opacity="0" stop-color="#fff"/><stop offset="1" stop-color="#fff"/></linearGradient><mask maskUnits="userSpaceOnUse" x="0" y="0" width="1" height="1" id="cb"><g clip-path="url(#E)"><g clip-path="url(#F)"><path d="M530.606 265.456l-.782 9.042-1.551-.134.782-9.042z" fill="url(#G)"/></g></g></mask><mask maskUnits="userSpaceOnUse" x="0" y="0" width="1" height="1" id="aX"><g clip-path="url(#a)"><g clip-path="url(#b)"><path d="M534.461 281.384l9.638 9.638 9.638-9.638-9.638-9.639z" fill="url(#c)"/></g></g></mask><mask maskUnits="userSpaceOnUse" x="0" y="0" width="1" height="1" id="bg"><g clip-path="url(#g)"><g clip-path="url(#h)"><path d="M543.548 279.651l5.018 5.018 5.018-5.018-5.018-5.018z" fill="url(#i)"/></g></g></mask><mask maskUnits="userSpaceOnUse" x="0" y="0" width="1" height="1" id="bj"><g clip-path="url(#j)"><g clip-path="url(#k)"><path d="M534.913 288.064l.866.865.865-.865-.865-.866z" fill="url(#l)"/></g></g></mask><mask maskUnits="userSpaceOnUse" x="0" y="0" width="1" height="1" id="bm"><g clip-path="url(#m)"><g clip-path="url(#n)"><path d="M542.056 288.399l.866.866.865-.866-.865-.865z" fill="url(#o)"/></g></g></mask><mask maskUnits="userSpaceOnUse" x="0" y="0" width="1" height="1" id="bp"><g clip-path="url(#p)"><g clip-path="url(#q)"><path d="M547.812 288.399l.866.866.865-.866-.865-.865z" fill="url(#r)"/></g></g></mask><mask maskUnits="userSpaceOnUse" x="0" y="0" width="1" height="1" id="bs"><g clip-path="url(#s)"><g clip-path="url(#t)"><path d="M535.502 276.824l7.926 7.927 7.926-7.927-7.926-7.926z" fill="url(#u)"/></g></g></mask><mask maskUnits="userSpaceOnUse" x="0" y="0" width="1" height="1" id="bE"><g clip-path="url(#v)"><g clip-path="url(#w)"><path d="M542.504 280.443l.656.656.657-.656-.657-.656z" fill="url(#x)"/></g></g></mask><mask maskUnits="userSpaceOnUse" x="0" y="0" width="1" height="1" id="bH"><g clip-path="url(#y)"><g clip-path="url(#z)"><path d="M548.293 280.504l.682.682.682-.682-.682-.681z" fill="url(#A)"/></g></g></mask><mask maskUnits="userSpaceOnUse" x="0" y="0" width="1" height="1" id="bN"><g clip-path="url(#B)"><g clip-path="url(#C)"><path d="M537.042 280.74l.451.451.451-.451-.451-.45z" fill="url(#D)"/></g></g></mask><mask maskUnits="userSpaceOnUse" x="0" y="0" width="1" height="1" id="bd"><g clip-path="url(#d)"><g clip-path="url(#e)"><path d="M544.024 284.123l4.229 4.229 4.23-4.229-4.23-4.23z" fill="url(#f)"/></g></g></mask><mask maskUnits="userSpaceOnUse" x="0" y="0" width="1" height="1" id="cg"><g clip-path="url(#H)"><g clip-path="url(#I)"><path d="M523.98 266.934l2.235 5.615-4.214 1.678-2.235-5.616z" fill="url(#J)"/></g></g></mask><mask maskUnits="userSpaceOnUse" x="0" y="0" width="1" height="1" id="cj"><g clip-path="url(#K)"><g clip-path="url(#L)"><path d="M528.624 260.92h-.559v-6.172h.559z" fill="url(#M)"/></g></g></mask><mask maskUnits="userSpaceOnUse" x="0" y="0" width="1" height="1" id="cm"><g clip-path="url(#N)"><g clip-path="url(#O)"><path d="M525.506 259.941h-.343v-5.193h.343z" fill="url(#P)"/></g></g></mask><mask maskUnits="userSpaceOnUse" x="0" y="0" width="1" height="1" id="ct"><g clip-path="url(#Q)"><g clip-path="url(#R)"><path d="M528.806 280.182h-2.935v-5.752h2.935z" fill="url(#S)"/></g></g></mask><mask maskUnits="userSpaceOnUse" x="0" y="0" width="1" height="1" id="cE"><g clip-path="url(#T)"><g clip-path="url(#U)"><path d="M524.655 274.724h4.121v-10.561h-4.121z" fill="url(#V)"/></g></g></mask><mask maskUnits="userSpaceOnUse" x="0" y="0" width="1" height="1" id="cL"><g clip-path="url(#W)"><g clip-path="url(#X)"><path d="M523.327 268.693l-1.577 5.624-2.921-.819 1.576-5.624z" fill="url(#Y)"/></g></g></mask><mask maskUnits="userSpaceOnUse" x="0" y="0" width="1" height="1" id="al"><g clip-path="url(#Z)"><g clip-path="url(#aa)"><path d="M514.658 277.044h24.143v-22.296h-24.143z" fill="url(#ab)"/></g></g></mask><mask maskUnits="userSpaceOnUse" x="0" y="0" width="1" height="1" id="ba"><g clip-path="url(#ac)"><g clip-path="url(#ad)"><path d="M537.934 283.77l4.715 4.714 4.714-4.714-4.714-4.715z" fill="url(#ae)"/></g></g></mask><mask maskUnits="userSpaceOnUse" x="0" y="0" width="1" height="1" id="ao"><g clip-path="url(#af)"><g clip-path="url(#ag)"><path d="M514.658 292.165h37.417v-23.136h-37.417z" fill="url(#ah)"/></g></g></mask></defs><g clip-path="url(#ai)" transform="matrix(.62536 0 0 -.62538 -320.318 184.242)"><path d="M520.271 292.165s-5.612 0-5.612-5.612v-26.196c.001-.17.087-5.609 5.612-5.609h26.192s5.612 0 5.612 5.613v26.192s0 5.612-5.612 5.612z" fill="url(#aj)"/></g><g clip-path="url(#ak)" transform="matrix(.62536 0 0 -.62538 -320.318 184.242)"><g mask="url(#al)"><path d="M514.659 260.357c.001-.17.087-5.609 5.612-5.609h18.53l-24.142 22.296z" fill="url(#am)"/></g></g><g clip-path="url(#an)" transform="matrix(.62536 0 0 -.62538 -320.318 184.242)"><g mask="url(#ao)"><path d="M520.271 292.165s-5.612 0-5.612-5.612v-1.443l37.416-16.08v17.523s0 5.612-5.612 5.612z" fill="url(#ap)"/></g></g><g clip-path="url(#aq)" transform="matrix(.62536 0 0 -.62538 -320.318 184.242)"><path d="M539.21 280.558l-1.154.17.372-1.107-.88.767-.284-1.133-.327 1.122-.851-.8.33 1.12-1.146-.212.884.763-1.08.443 1.156.163-.67.956 1.06-.488-.045 1.167.629-.984.59 1.007-.002-1.168 1.042.527-.634-.98 1.162-.12-1.063-.484zm4.165 8.158l-.732.107.236-.701-.558.486-.18-.717-.207.71-.54-.506.212.709-.728-.134.56.483-.684.28.733.104-.425.605.672-.308-.03.738.399-.623.375.638-.002-.74.66.334-.401-.622.736-.076-.674-.305z" fill="#fff"/><path d="M561.274 276.816a.96.96 0 00-.96-.96h-22.783a.96.96 0 000 1.92h22.783c.53 0 .96-.43.96-.96z" fill="none" stroke="#fff" stroke-width="1.32" stroke-linecap="round" stroke-linejoin="round"/><path d="M537.532 276.262a.555.555 0 000 1.107h22.783a.554.554 0 100-1.107zm0 1.513s2.11 2.734-1.535 9.45l.815.431s4.413-12.855 6.236 0h.624s2.446-13.478 5.035 0h.816s1.012-7.886 3.65-6.207l2.106-3.674z" fill="none" stroke="#fff" stroke-width="1.32" stroke-linecap="round" stroke-linejoin="round"/><path d="M536.732 286.693c-.06.12-.122.241-.187.363l.042.022c.043-.116.091-.246.145-.385zm1.459-8.513c.369.961.748 3.013-.528 6.406.779-1.53 1.835-3.049 2.958-3.049 1.285 0 2.163 1.761 2.749 5.531.372-1.856 1.346-5.809 2.881-5.809.748 0 1.738.691 2.79 5.991h.13c.089-.569.292-1.74.639-2.929.69-2.363 1.555-3.512 2.646-3.512.184 0 .369.036.555.105l1.568-2.734z" fill="none" stroke="#fff" stroke-width="1.32" stroke-linecap="round" stroke-linejoin="round"/><path d="M537.217 287.896a1.007 1.007 0 10-2.014 0 1.007 1.007 0 002.014 0z" fill="none" stroke="#fff" stroke-width="1.32" stroke-linecap="round" stroke-linejoin="round"/><path d="M536.21 287.294a.602.602 0 10.001 1.205.602.602 0 000-1.205zm8.189-7.093c0-.805-.451-1.458-1.007-1.458-.556 0-1.008.653-1.008 1.458 0 .805.452 1.458 1.008 1.458s1.007-.653 1.007-1.458zm5.941 0c0-.805-.5-1.458-1.119-1.458-.618 0-1.12.653-1.12 1.458 0 .805.502 1.458 1.12 1.458.618 0 1.12-.653 1.12-1.458zm-5.976 8.03a1.007 1.007 0 10-2.013 0 1.007 1.007 0 002.013 0z" fill="none" stroke="#fff" stroke-width="1.32" stroke-linecap="round" stroke-linejoin="round"/><path d="M543.357 287.63a.602.602 0 10.002 1.203.602.602 0 00-.002-1.203zm6.763.601a1.006 1.006 0 10-2.013-.001 1.006 1.006 0 002.013.001z" fill="none" stroke="#fff" stroke-width="1.32" stroke-linecap="round" stroke-linejoin="round"/><path d="M549.114 287.63a.603.603 0 000 1.203.602.602 0 000-1.203zm-10.924-9.45s.829 2.129-.527 6.407c0 0 .686-6.406 12.872-6.406z" fill="none" stroke="#fff" stroke-width="1.32" stroke-linecap="round" stroke-linejoin="round"/><path d="M541.053 281.61s1.567.23 2.305 5.279c0 0 .888-6.237-2.305-5.28zm5.881-.1s1.176.666 2.064 5.524c0 0 .575-5.821-2.064-5.524zm2.179-3.33s-3.699 1.055-4.058 2.979c0 0 2.841-2.818 5.523-2.17 0 0-2.814.078-3.465 1.186 0 0 3.13-.6 4.293.224 1.163.823.894-2.26.894-2.26zm-13.44 9.45s-.326.649.537.868c0 0-.328-.278-.537-.868zm7.143.335s-.326.65.538.868c0 0-.328-.278-.538-.868zm5.756 0s-.326.65.538.868c0 0-.328-.278-.538-.868zm-11.144-11.693s-.434.024-.45.543c0 0 .05.554.554.554h13.27s-15.368.165-13.374-1.097zm-.043 2.617s.486-.238.743.264c0 0 .26 1.98 0 2.673 0 0-.603.19-.563-.204 0 0 .4-1.776-.06-2.36 0 0-.28-.231-.12-.373zm6.007.441c-.332 0-.601.391-.601.871s.269.871.6.871c.333 0 .603-.39.603-.87s-.27-.872-.602-.872z" fill="none" stroke="#fff" stroke-width="1.32" stroke-linecap="round" stroke-linejoin="round"/><path d="M549.221 279.33c-.369 0-.668.391-.668.871s.3.871.668.871c.368 0 .668-.39.668-.87s-.3-.872-.668-.872zm-6.217.688s-.075.626.388.85c0 0-.209-.283-.388-.85z" fill="none" stroke="#fff" stroke-width="1.32" stroke-linecap="round" stroke-linejoin="round"/><path d="M548.802 280.08s-.084.625.43.85c0 0-.232-.285-.43-.85zm-11.297-.818s.406 1.073.077 2.28c0 0-.6-1.304-.077-2.28z" fill="none" stroke="#fff" stroke-width="1.32" stroke-linecap="round" stroke-linejoin="round"/><path d="M537.415 280.38s-.011.467.128.721l.04-.198s-.101-.072-.168-.524z" fill="none" stroke="#fff" stroke-width="1.32" stroke-linecap="round" stroke-linejoin="round"/></g><g clip-path="url(#ar)" transform="matrix(.62536 0 0 -.62538 -320.318 184.242)"><path d="M537.532 277.775a.96.96 0 010-1.919h14.543v1.919z" fill="url(#as)"/></g><g clip-path="url(#at)" transform="matrix(.62536 0 0 -.62538 -320.318 184.242)"><path d="M561.274 276.816a.96.96 0 00-.96-.96h-22.783a.96.96 0 000 1.92h22.783c.53 0 .96-.43.96-.96z" fill="none" stroke="#f14624" stroke-width=".44" stroke-miterlimit="10"/></g><g clip-path="url(#au)" transform="matrix(.62536 0 0 -.62538 -320.318 184.242)"><path d="M537.532 277.369a.555.555 0 010-1.107h14.543v1.107z" fill="url(#av)"/></g><g clip-path="url(#aw)" transform="matrix(.62536 0 0 -.62538 -320.318 184.242)"><path d="M548.707 287.656c-2.59-13.478-5.036 0-5.036 0h-.624c-1.822-12.855-6.235 0-6.235 0l-.815-.432c3.644-6.715 1.535-9.449 1.535-9.449h14.543v3.512c-1.826.708-2.553 6.369-2.553 6.369z" fill="url(#ax)"/></g><g clip-path="url(#ay)" transform="matrix(.62536 0 0 -.62538 -320.318 184.242)"><path d="M537.532 277.775s2.11 2.734-1.535 9.45l.815.431s4.413-12.855 6.236 0h.624s2.446-13.478 5.035 0h.816s1.012-7.886 3.65-6.207l2.106-3.674z" fill="none" stroke="#f14624" stroke-width=".44" stroke-miterlimit="10"/></g><g clip-path="url(#az)" transform="matrix(.62536 0 0 -.62538 -320.318 184.242)"><path d="M549.04 287.249c-1.051-5.299-2.041-5.989-2.79-5.989-1.534 0-2.508 3.953-2.88 5.808-.586-3.77-1.465-5.531-2.749-5.531-1.123 0-2.179 1.519-2.957 3.049 1.275-3.392.896-5.445.527-6.405h13.884v2.677c-.913.243-1.658 1.381-2.265 3.464a24.268 24.268 0 00-.639 2.927zm-12.494-.193c.064-.122.126-.243.186-.363-.054.14-.103.269-.145.385z" fill="url(#aA)"/></g><g clip-path="url(#aB)" transform="matrix(.62536 0 0 -.62538 -320.318 184.242)"><path d="M535.204 287.896a1.007 1.007 0 112.013 0 1.007 1.007 0 11-2.013 0" fill="url(#aC)"/></g><g clip-path="url(#aD)" transform="matrix(.62536 0 0 -.62538 -320.318 184.242)"><path d="M537.217 287.896a1.007 1.007 0 10-2.014 0 1.007 1.007 0 002.014 0z" fill="none" stroke="#f14624" stroke-width=".44" stroke-miterlimit="10"/></g><g clip-path="url(#aE)" transform="matrix(.62536 0 0 -.62538 -320.318 184.242)"><path d="M535.609 287.896c0-.333.269-.603.601-.603a.603.603 0 010 1.205.602.602 0 01-.601-.602" fill="url(#aF)"/></g><g clip-path="url(#aG)" transform="matrix(.62536 0 0 -.62538 -320.318 184.242)"><path d="M542.384 280.201c0-.805.452-1.458 1.008-1.458s1.007.653 1.007 1.458c0 .805-.451 1.458-1.007 1.458-.556 0-1.008-.653-1.008-1.458" fill="url(#aH)"/></g><g clip-path="url(#aI)" transform="matrix(.62536 0 0 -.62538 -320.318 184.242)"><path d="M544.399 280.201c0-.805-.451-1.458-1.007-1.458-.556 0-1.008.653-1.008 1.458 0 .805.452 1.458 1.008 1.458s1.007-.653 1.007-1.458z" fill="none" stroke="#f14624" stroke-width=".44" stroke-miterlimit="10"/></g><g clip-path="url(#aJ)" transform="matrix(.62536 0 0 -.62538 -320.318 184.242)"><path d="M548.102 280.201c0-.805.5-1.458 1.119-1.458s1.119.653 1.119 1.458c0 .805-.5 1.458-1.119 1.458s-1.119-.653-1.119-1.458" fill="url(#aK)"/></g><g clip-path="url(#aL)" transform="matrix(.62536 0 0 -.62538 -320.318 184.242)"><path d="M550.34 280.201c0-.805-.5-1.458-1.119-1.458-.618 0-1.12.653-1.12 1.458 0 .805.502 1.458 1.12 1.458.618 0 1.12-.653 1.12-1.458z" fill="none" stroke="#f14624" stroke-width=".44" stroke-miterlimit="10"/></g><g clip-path="url(#aM)" transform="matrix(.62536 0 0 -.62538 -320.318 184.242)"><path d="M542.35 288.231a1.007 1.007 0 112.014 0 1.008 1.008 0 11-2.014 0" fill="url(#aN)"/></g><g clip-path="url(#aO)" transform="matrix(.62536 0 0 -.62538 -320.318 184.242)"><path d="M544.364 288.231a1.007 1.007 0 10-2.013 0 1.007 1.007 0 002.013 0z" fill="none" stroke="#f14624" stroke-width=".44" stroke-miterlimit="10"/></g><g clip-path="url(#aP)" transform="matrix(.62536 0 0 -.62538 -320.318 184.242)"><path d="M542.756 288.231a.6.6 0 111.202 0 .602.602 0 11-1.202 0" fill="url(#aQ)"/></g><g clip-path="url(#aR)" transform="matrix(.62536 0 0 -.62538 -320.318 184.242)"><path d="M548.106 288.231a1.006 1.006 0 112.014 0 1.008 1.008 0 11-2.014 0" fill="url(#aS)"/></g><g clip-path="url(#aT)" transform="matrix(.62536 0 0 -.62538 -320.318 184.242)"><path d="M550.12 288.231a1.006 1.006 0 10-2.013-.001 1.006 1.006 0 002.013.001z" fill="none" stroke="#f14624" stroke-width=".44" stroke-miterlimit="10"/></g><g clip-path="url(#aU)" transform="matrix(.62536 0 0 -.62538 -320.318 184.242)"><path d="M548.511 288.231a.602.602 0 011.204 0 .603.603 0 01-1.204 0" fill="url(#aV)"/></g><g clip-path="url(#aW)" transform="matrix(.62536 0 0 -.62538 -320.318 184.242)"><g mask="url(#aX)"><path d="M537.938 283.639c-.08.304-.171.619-.274.947 0 0 .039-.376.274-.947m.253-5.458h12.343c-9.233 0-11.863 3.676-12.596 5.458.959-3.644.253-5.458.253-5.458" fill="url(#aY)"/></g></g><g clip-path="url(#aZ)" transform="matrix(.62536 0 0 -.62538 -320.318 184.242)"><g mask="url(#ba)"><path d="M541.053 281.61c3.192-.959 2.305 5.278 2.305 5.278-.738-5.048-2.305-5.278-2.305-5.278" fill="url(#bb)"/></g></g><g clip-path="url(#bc)" transform="matrix(.62536 0 0 -.62538 -320.318 184.242)"><g mask="url(#bd)"><path d="M546.935 281.51c2.637-.298 2.063 5.523 2.063 5.523-.888-4.857-2.063-5.523-2.063-5.523" fill="url(#be)"/></g></g><g clip-path="url(#bf)" transform="matrix(.62536 0 0 -.62538 -320.318 184.242)"><g mask="url(#bg)"><path d="M549.113 278.181l2.962-.039v2.195c-.138.219-.35.287-.669.062-1.163-.824-4.293-.225-4.293-.225.651-1.107 3.466-1.185 3.466-1.185-2.683-.648-5.523 2.17-5.523 2.17.358-1.924 4.057-2.978 4.057-2.978" fill="url(#bh)"/></g></g><g clip-path="url(#bi)" transform="matrix(.62536 0 0 -.62538 -320.318 184.242)"><g mask="url(#bj)"><path d="M535.674 287.63c.209.59.536.868.536.868-.863-.219-.536-.868-.536-.868" fill="url(#bk)"/></g></g><g clip-path="url(#bl)" transform="matrix(.62536 0 0 -.62538 -320.318 184.242)"><g mask="url(#bm)"><path d="M542.816 287.966c.209.59.537.867.537.867-.864-.218-.537-.867-.537-.867" fill="url(#bn)"/></g></g><g clip-path="url(#bo)" transform="matrix(.62536 0 0 -.62538 -320.318 184.242)"><g mask="url(#bp)"><path d="M548.572 287.966c.209.59.538.867.538.867-.864-.218-.538-.867-.538-.867" fill="url(#bq)"/></g></g><g clip-path="url(#br)" transform="matrix(.62536 0 0 -.62538 -320.318 184.242)"><g mask="url(#bs)"><path d="M547.326 277.369h3.476s-.661.007-1.691.007c-.515 0-1.122-.001-1.785-.007m-9.794 0c-.505 0-.554-.553-.554-.553.016-.52.45-.544.45-.544-1.375.869 5.492 1.062 9.898 1.097z" fill="url(#bt)"/></g></g><g clip-path="url(#bu)" transform="matrix(.62536 0 0 -.62538 -320.318 184.242)"><path d="M537.565 281.622s.4-1.777-.06-2.36c0 0-.281-.231-.12-.374 0 0 .486-.237.742.265 0 0 .262 1.98 0 2.672 0 0-.145.046-.289.046-.147 0-.293-.049-.273-.249" fill="url(#bv)"/></g><g clip-path="url(#bw)" transform="matrix(.62536 0 0 -.62538 -320.318 184.242)"><path d="M537.385 278.889s.486-.238.743.264c0 0 .26 1.98 0 2.673 0 0-.603.19-.563-.204 0 0 .4-1.776-.06-2.36 0 0-.28-.231-.12-.373z" fill="none" stroke="#f14624" stroke-width=".44" stroke-miterlimit="10"/></g><g clip-path="url(#bx)" transform="matrix(.62536 0 0 -.62538 -320.318 184.242)"><path d="M542.79 280.201c0-.48.27-.871.602-.871.331 0 .601.391.601.871s-.27.871-.601.871c-.332 0-.602-.391-.602-.871" fill="url(#by)"/></g><g clip-path="url(#bz)" transform="matrix(.62536 0 0 -.62538 -320.318 184.242)"><path d="M543.392 279.33c-.332 0-.601.391-.601.871s.269.871.6.871c.333 0 .603-.39.603-.87s-.27-.872-.602-.872z" fill="none" stroke="#730b0e" stroke-width=".22" stroke-miterlimit="10"/></g><g clip-path="url(#bA)" transform="matrix(.62536 0 0 -.62538 -320.318 184.242)"><path d="M548.554 280.201c0-.48.298-.871.667-.871.368 0 .668.391.668.871s-.3.871-.668.871c-.369 0-.667-.391-.667-.871" fill="url(#bB)"/></g><g clip-path="url(#bC)" transform="matrix(.62536 0 0 -.62538 -320.318 184.242)"><path d="M549.221 279.33c-.369 0-.668.391-.668.871s.3.871.668.871c.368 0 .668-.39.668-.87s-.3-.872-.668-.872z" fill="none" stroke="#730b0e" stroke-width=".22" stroke-miterlimit="10"/></g><g clip-path="url(#bD)" transform="matrix(.62536 0 0 -.62538 -320.318 184.242)"><g mask="url(#bE)"><path d="M543.004 280.018c.178.567.388.849.388.849-.463-.223-.388-.849-.388-.849" fill="url(#bF)"/></g></g><g clip-path="url(#bG)" transform="matrix(.62536 0 0 -.62538 -320.318 184.242)"><g mask="url(#bH)"><path d="M548.802 280.079c.198.567.43.85.43.85-.514-.223-.43-.85-.43-.85" fill="url(#bI)"/></g></g><g clip-path="url(#bJ)" transform="matrix(.62536 0 0 -.62538 -320.318 184.242)"><path d="M537.505 279.262s.406 1.073.077 2.279c0 0-.6-1.303-.077-2.279" fill="url(#bK)"/></g><g clip-path="url(#bL)" transform="matrix(.62536 0 0 -.62538 -320.318 184.242)"><path d="M537.505 279.262s.406 1.073.077 2.28c0 0-.6-1.304-.077-2.28z" fill="none" stroke="#730b0e" stroke-width=".22" stroke-miterlimit="10"/></g><g clip-path="url(#bM)" transform="matrix(.62536 0 0 -.62538 -320.318 184.242)"><g mask="url(#bN)"><path d="M537.414 280.379c.068.452.169.524.169.524l-.04.199c-.139-.255-.129-.723-.129-.723" fill="url(#bO)"/></g></g><g clip-path="url(#bP)" transform="matrix(.62536 0 0 -.62538 -320.318 184.242)" fill="none" stroke-linejoin="round"><path d="M527.561 265.262c0-.65.526-1.175 1.175-1.175h.083c.65 0 1.175.525 1.175 1.175v8.126c0 .648-.526 1.175-1.175 1.175h-.083a1.176 1.176 0 01-1.175-1.175z" stroke="#fff" stroke-width="1.76"/><path d="M529.995 265.485v-.205c0-.65-.526-1.176-1.175-1.176h-.083c-.65 0-1.175.527-1.175 1.176v.205s1.008-.94 2.433 0z" stroke="#fff" stroke-width="1.76"/><path d="M526.345 254.414c0-.649.526-1.175 1.175-1.175h.083c.649 0 1.175.526 1.175 1.175v10.594c0 .65-.526.735-1.175.735h-.083a1.175 1.175 0 01-1.175-1.175zm-2.907-.946c0-.65.526-1.175 1.175-1.175h.083c.65 0 1.175.526 1.175 1.175v10.153c0 .65-.526 1.176-1.175 1.176h-.083a1.175 1.175 0 01-1.175-1.176z" stroke="#fff" stroke-width="1.76"/><path d="M523.438 273.017c0 .649.526 1.175 1.175 1.175l2.99.608c.648 0 1.175-.526 1.175-1.175v-8.397c0-.65-.527-1.174-1.175-1.174l-2.99-.61c-.649 0-1.175.527-1.175 1.176zm5.611 1.413s.663-.108.747-.708c0 0-.018-7.676.034-8.334 0 0-.227 8.823-.781 9.042z" stroke="#fff" stroke-width="1.76"/><path d="M520.111 268.882c-.197-.363.106-.908.676-1.218l.073-.039c.57-.31 1.192-.268 1.39.095l2.467 4.541c.197.362-.106.907-.676 1.217l-.073.04c-.57.31-1.192.267-1.389-.096z" stroke="#fff" stroke-width="1.76"/><path d="M523.787 273.29s.566-.338.45-.712c0 0-2.447-4.316-2.608-4.708 0 0 2.59 5.065 2.158 5.42zm4.413-19.598s.557.22.392 1.54l.031 5.688s.043-7.109-1.284-7.228c0 0 .27-.29.861 0zm-3.118-.979s.558.22.393 1.54l.03 5.688s.043-7.11-1.284-7.228c0 0 .27-.29.861 0zm-.491 21.463l.027-.027c.226-.23 1.814-1.655 2.304-3.933 0 0 1.278 2.443.64 4.212" stroke="#fff" stroke-width="1.76"/><path d="M522.695 277.117a3.177 3.177 0 116.354 0 3.177 3.177 0 01-6.354 0z" stroke="#fff" stroke-width="1.76"/><path d="M527.069 274.43s1.738.612 1.738 2.977c0 0-.051 2.244-2.935 2.775 0 0 2.665-.575 2.555-2.995 0 0-.296-1.609-1.358-2.757z" stroke="#fff" stroke-width="1.76"/><path d="M526.922 276.197c0-.691-.47-1.251-1.05-1.251-.58 0-1.05.56-1.05 1.251 0 .691.47 1.25 1.05 1.25.58 0 1.05-.559 1.05-1.25zm2.49.476c0-.69-.47-1.25-1.051-1.25-.58 0-1.05.56-1.05 1.25 0 .691.47 1.25 1.05 1.25.58 0 1.05-.559 1.05-1.25zm-2.465-4.057l.284.565-.588.856-.298-.06-.18-.796.489-.396-.165-1.469.433-1.34.535 1.476z" stroke="#fff" stroke-width="1.76"/><path d="M524.863 270.407s.163 2.359-.208 2.775c0 0 .84-1.485 2.104-1.388 0 0 1.825.169 1.54 2.147l.324-8.198s.154-1.59-1.062-1.382c0 0 1.058-.261.683 3.849 0 0-.547 6.515-3.38.451zm-3.826 3.895a1.175 1.175 0 01-1.388.914l-.081-.016a1.175 1.175 0 01-.914-1.388l1.22-5.922a1.175 1.175 0 011.387-.914l.082.016c.636.13 1.045.753.914 1.388z" stroke="#fff" stroke-width="1.76"/><path d="M518.694 273.61l-.04.203a1.173 1.173 0 00.913 1.386l.082.017a1.174 1.174 0 001.387-.915l.041-.201s-1.176.716-2.383-.49zm1.596.292s.657.074.793-.293c0 0 .673-4.916.783-5.326 0 0-1.016 5.598-1.575 5.619zm2.65-.176s4.696-6.504 5.69-9.062v1.703s-4.68 7.554-5.191 7.874c0 0-.531.149-.498-.515z" stroke="#fff" stroke-width="1.76"/><path d="M523.438 274.24s4.806-7.312 5.191-7.874v1.052s-1.833 3.646-4.376 6.822c0 0-.203.07-.53.22 0 0-.335.21-.285-.22z" stroke="#fff" stroke-width="1.76"/><path d="M527.561 265.262c0-.65.526-1.175 1.175-1.175h.083c.65 0 1.175.525 1.175 1.175v8.126c0 .648-.526 1.175-1.175 1.175h-.083a1.176 1.176 0 01-1.175-1.175z" stroke="#231f20" stroke-width=".88"/><path d="M529.995 265.485v-.205c0-.65-.526-1.176-1.175-1.176h-.083c-.65 0-1.175.527-1.175 1.176v.205s1.008-.94 2.433 0z" stroke="#231f20" stroke-width=".88"/><path d="M526.345 254.414c0-.649.526-1.175 1.175-1.175h.083c.649 0 1.175.526 1.175 1.175v10.594c0 .65-.526.735-1.175.735h-.083a1.175 1.175 0 01-1.175-1.175zm-2.907-.946c0-.65.526-1.175 1.175-1.175h.083c.65 0 1.175.526 1.175 1.175v10.153c0 .65-.526 1.176-1.175 1.176h-.083a1.175 1.175 0 01-1.175-1.176z" stroke="#231f20" stroke-width=".88"/><path d="M523.438 273.017c0 .649.526 1.175 1.175 1.175l2.99.608c.648 0 1.175-.526 1.175-1.175v-8.397c0-.65-.527-1.174-1.175-1.174l-2.99-.61c-.649 0-1.175.527-1.175 1.176zm5.611 1.413s.663-.108.747-.708c0 0-.018-7.676.034-8.334 0 0-.227 8.823-.781 9.042z" stroke="#231f20" stroke-width=".88"/><path d="M520.111 268.882c-.197-.363.106-.908.676-1.218l.073-.039c.57-.31 1.192-.268 1.39.095l2.467 4.541c.197.362-.106.907-.676 1.217l-.073.04c-.57.31-1.192.267-1.389-.096z" stroke="#231f20" stroke-width=".88"/><path d="M523.787 273.29s.566-.338.45-.712c0 0-2.447-4.316-2.608-4.708 0 0 2.59 5.065 2.158 5.42zm4.413-19.598s.557.22.392 1.54l.031 5.688s.043-7.109-1.284-7.228c0 0 .27-.29.861 0zm-3.118-.979s.558.22.393 1.54l.03 5.688s.043-7.11-1.284-7.228c0 0 .27-.29.861 0zm-.491 21.463l.027-.027c.226-.23 1.814-1.655 2.304-3.933 0 0 1.278 2.443.64 4.212" stroke="#231f20" stroke-width=".88"/><path d="M522.695 277.117a3.177 3.177 0 116.354 0 3.177 3.177 0 01-6.354 0z" stroke="#231f20" stroke-width=".88"/><path d="M527.069 274.43s1.738.612 1.738 2.977c0 0-.051 2.244-2.935 2.775 0 0 2.665-.575 2.555-2.995 0 0-.296-1.609-1.358-2.757z" stroke="#231f20" stroke-width=".88"/><path d="M526.922 276.197c0-.691-.47-1.251-1.05-1.251-.58 0-1.05.56-1.05 1.251 0 .691.47 1.25 1.05 1.25.58 0 1.05-.559 1.05-1.25zm2.49.476c0-.69-.47-1.25-1.051-1.25-.58 0-1.05.56-1.05 1.25 0 .691.47 1.25 1.05 1.25.58 0 1.05-.559 1.05-1.25zm-2.465-4.057l.284.565-.588.856-.298-.06-.18-.796.489-.396-.165-1.469.433-1.34.535 1.476z" stroke="#231f20" stroke-width=".88"/><path d="M524.863 270.407s.163 2.359-.208 2.775c0 0 .84-1.485 2.104-1.388 0 0 1.825.169 1.54 2.147l.324-8.198s.154-1.59-1.062-1.382c0 0 1.058-.261.683 3.849 0 0-.547 6.515-3.38.451zm-3.826 3.895a1.175 1.175 0 01-1.388.914l-.081-.016a1.175 1.175 0 01-.914-1.388l1.22-5.922a1.175 1.175 0 011.387-.914l.082.016c.636.13 1.045.753.914 1.388z" stroke="#231f20" stroke-width=".88"/><path d="M518.694 273.61l-.04.203a1.173 1.173 0 00.913 1.386l.082.017a1.174 1.174 0 001.387-.915l.041-.201s-1.176.716-2.383-.49zm1.596.292s.657.074.793-.293c0 0 .673-4.916.783-5.326 0 0-1.016 5.598-1.575 5.619zm2.65-.176s4.696-6.504 5.69-9.062v1.703s-4.68 7.554-5.191 7.874c0 0-.531.149-.498-.515z" stroke="#231f20" stroke-width=".88"/><path d="M523.438 274.24s4.806-7.312 5.191-7.874v1.052s-1.833 3.646-4.376 6.822c0 0-.203.07-.53.22 0 0-.335.21-.285-.22z" stroke="#231f20" stroke-width=".88"/></g><g clip-path="url(#bQ)" transform="matrix(.62536 0 0 -.62538 -320.318 184.242)"><path d="M528.737 274.563a1.175 1.175 0 01-1.175-1.175v-8.126c0-.649.526-1.175 1.175-1.175h.082c.649 0 1.176.526 1.176 1.175v8.126c0 .649-.527 1.175-1.176 1.175z" fill="url(#bR)"/></g><g clip-path="url(#bS)" transform="matrix(.62536 0 0 -.62538 -320.318 184.242)"><path d="M527.562 265.486v-.207c0-.648.526-1.175 1.175-1.175h.083c.648 0 1.175.527 1.175 1.175v.207c-1.425-.939-2.433 0-2.433 0" fill="url(#bT)"/></g><g clip-path="url(#bU)" transform="matrix(.62536 0 0 -.62538 -320.318 184.242)"><path d="M527.52 265.743a1.176 1.176 0 01-1.175-1.175v-9.82h2.433v10.26c0 .649-.527.735-1.175.735z" fill="url(#bV)"/></g><g clip-path="url(#bW)" transform="matrix(.62536 0 0 -.62538 -320.318 184.242)"><path d="M524.614 264.796a1.175 1.175 0 01-1.176-1.174v-8.874h2.434v8.874c0 .649-.526 1.174-1.176 1.174z" fill="url(#bX)"/></g><g clip-path="url(#bY)" transform="matrix(.62536 0 0 -.62538 -320.318 184.242)"><path d="M524.614 274.191a1.175 1.175 0 01-1.176-1.174v-8.398c0-.648.527-1.174 1.176-1.174l2.989.609c.648 0 1.175.524 1.175 1.174v8.396c0 .65-.527 1.176-1.175 1.176z" fill="url(#bZ)"/></g><g clip-path="url(#ca)" transform="matrix(.62536 0 0 -.62538 -320.318 184.242)"><g mask="url(#cb)"><path d="M529.813 265.966c-.031 1.942-.017 7.756-.017 7.756-.084.6-.747.709-.747.709.467-.185.702-6.5.764-8.465m.017-.577l-.017.577c.005-.288.01-.491.017-.577" fill="url(#cc)"/></g></g><g clip-path="url(#cd)" transform="matrix(.62536 0 0 -.62538 -320.318 184.242)"><path d="M522.579 273.423l-2.468-4.541c-.196-.362.105-.907.676-1.218l.073-.039c.569-.31 1.192-.267 1.389.095l2.468 4.541c.196.363-.105.908-.676 1.217l-.073.04c-.255.14-.522.207-.756.207-.287 0-.524-.103-.633-.302" fill="url(#ce)"/></g><g clip-path="url(#cf)" transform="matrix(.62536 0 0 -.62538 -320.318 184.242)"><g mask="url(#cg)"><path d="M521.792 268.195c.584 1.1 2.445 4.383 2.445 4.383.116.373-.451.712-.451.712.366-.3-1.431-3.97-1.994-5.095m-.164-.325c.001.001.062.12.164.325a6.148 6.148 0 01-.164-.325" fill="url(#ch)"/></g></g><g clip-path="url(#ci)" transform="matrix(.62536 0 0 -.62538 -320.318 184.242)"><g mask="url(#cj)"><path d="M528.62 260.419c.004.314.003.501.003.501zm-.555-5.671h.558c.001.142-.008.303-.031.485l.028 5.186c-.014-1.168-.096-4.089-.555-5.671" fill="url(#ck)"/></g></g><g clip-path="url(#cl)" transform="matrix(.62536 0 0 -.62538 -320.318 184.242)"><g mask="url(#cm)"><path d="M525.503 259.442l.002.498zm-.34-4.694h.315l.025 4.694c-.012-.954-.069-3.084-.34-4.694" fill="url(#cn)"/></g></g><g clip-path="url(#co)" transform="matrix(.62536 0 0 -.62538 -320.318 184.242)"><path d="M524.592 274.176l.026-.027c.227-.229 1.814-1.655 2.304-3.933 0 0 1.278 2.443.64 4.212z" fill="url(#cp)"/></g><g clip-path="url(#cq)" transform="matrix(.62536 0 0 -.62538 -320.318 184.242)"><path d="M522.695 277.117a3.177 3.177 0 116.353 0 3.177 3.177 0 01-3.176 3.177 3.178 3.178 0 01-3.177-3.177" fill="url(#cr)"/></g><g clip-path="url(#cs)" transform="matrix(.62536 0 0 -.62538 -320.318 184.242)"><g mask="url(#ct)"><path d="M525.872 280.183s2.665-.576 2.555-2.996c0 0-.296-1.608-1.358-2.756 0 0 1.738.612 1.738 2.977 0 0-.052 2.243-2.935 2.775z" fill="url(#cu)"/></g></g><g clip-path="url(#cv)" transform="matrix(.62536 0 0 -.62538 -320.318 184.242)"><path d="M524.821 276.197c0-.691.47-1.251 1.051-1.251.58 0 1.05.56 1.05 1.251 0 .691-.47 1.25-1.05 1.25-.581 0-1.051-.559-1.051-1.25" fill="url(#cw)"/></g><g clip-path="url(#cx)" transform="matrix(.62536 0 0 -.62538 -320.318 184.242)"><path d="M526.922 276.197c0-.691-.47-1.251-1.05-1.251-.58 0-1.05.56-1.05 1.251 0 .691.47 1.25 1.05 1.25.58 0 1.05-.559 1.05-1.25z" fill="none" stroke="#fff" stroke-width=".22" stroke-miterlimit="10"/></g><g clip-path="url(#cy)" transform="matrix(.62536 0 0 -.62538 -320.318 184.242)"><path d="M527.311 276.673c0-.691.471-1.251 1.05-1.251.581 0 1.05.56 1.05 1.251 0 .692-.469 1.251-1.05 1.251-.579 0-1.05-.559-1.05-1.251" fill="url(#cz)"/></g><g clip-path="url(#cA)" transform="matrix(.62536 0 0 -.62538 -320.318 184.242)"><path d="M529.412 276.673c0-.69-.47-1.25-1.051-1.25-.58 0-1.05.56-1.05 1.25 0 .691.47 1.25 1.05 1.25.58 0 1.05-.559 1.05-1.25z" fill="none" stroke="#fff" stroke-width=".22" stroke-miterlimit="10"/></g><g clip-path="url(#cB)" transform="matrix(.62536 0 0 -.62538 -320.318 184.242)"><path d="M526.345 273.977l-.18-.796.489-.396-.166-1.469.434-1.34.536 1.476-.511 1.164.284.565-.589.856z" fill="url(#cC)"/></g><g clip-path="url(#cD)" transform="matrix(.62536 0 0 -.62538 -320.318 184.242)"><g mask="url(#cE)"><path d="M528.323 273.356c-.115-1.428-1.564-1.562-1.564-1.562-1.054-.081-1.811.936-2.036 1.277.282-.615.14-2.664.14-2.664v-1.746c2.835 6.063 3.381-.451 3.381-.451.353-3.863-.561-3.865-.671-3.851 1.203-.196 1.05 1.384 1.05 1.384l-.3 7.613a2.63 2.63 0 01-.024.584zm-3.668-.175s.023-.041.068-.11a.423.423 0 01-.068.11zm2.918-8.822l-.011.002.011-.002" fill="url(#cF)"/></g></g><g clip-path="url(#cG)" transform="matrix(.62536 0 0 -.62538 -320.318 184.242)"><path d="M519.649 275.215l-.081-.016a1.173 1.173 0 01-.914-1.387l1.22-5.923a1.176 1.176 0 011.388-.914l.081.017c.635.131 1.045.753.914 1.388l-1.22 5.921a1.175 1.175 0 01-1.149.939c-.079 0-.159-.008-.239-.025" fill="url(#cH)"/></g><g clip-path="url(#cI)" transform="matrix(.62536 0 0 -.62538 -320.318 184.242)"><path d="M519.649 275.215l-.082-.016a1.173 1.173 0 01-.913-1.387l.041-.201c1.207 1.205 2.382.488 2.382.488l-.041.202a1.173 1.173 0 01-1.148.939c-.079 0-.159-.008-.239-.025" fill="url(#cJ)"/></g><g clip-path="url(#cK)" transform="matrix(.62536 0 0 -.62538 -320.318 184.242)"><g mask="url(#cL)"><path d="M520.291 273.901c.472-.017 1.272-4.029 1.507-5.262-.203 1.226-.716 4.97-.716 4.97-.097.262-.457.299-.657.299-.08 0-.134-.007-.134-.007m1.574-5.618c-.002.01-.025.141-.067.356.03-.178.052-.302.067-.356" fill="url(#cM)"/></g></g><g clip-path="url(#cN)" transform="matrix(.62536 0 0 -.62538 -320.318 184.242)"><path d="M522.94 273.726s4.696-6.505 5.689-9.063v1.703s-4.679 7.554-5.191 7.875c0 0-.051.014-.12.014-.154 0-.4-.071-.378-.529" fill="url(#cO)"/></g><g clip-path="url(#cP)" transform="matrix(.62536 0 0 -.62538 -320.318 184.242)"><path d="M523.438 274.241s4.806-7.313 5.191-7.875v1.052s-1.832 3.647-4.375 6.823c0 0-.203.07-.53.218 0 0-.083.052-.16.052-.078 0-.151-.054-.126-.27" fill="url(#cQ)"/></g><g clip-path="url(#cR)" transform="matrix(.62536 0 0 -.62538 -320.318 184.242)" fill="none" stroke="#fff" stroke-width="1.32" stroke-linecap="round" stroke-linejoin="round"><path d="M536.572 267.848l-4.876-3.716v-13.159h4.876zm5.256-16.875h-5.256v16.875l5.256.808z"/><path d="M539.31 263.837c-.91-.242-1.648.266-1.65 1.134-.002.869.734 1.77 1.643 2.012m0 0c.91.242 1.648-.266 1.65-1.134.002-.87-.734-1.77-1.643-2.012m-3.199 3.66s.118 1.496-1.977 2.999"/><path d="M532.067 272.129a.667.667 0 00.932.15l1.517-1.093a.668.668 0 00-.78-1.083l-1.518 1.094a.667.667 0 00-.15.932z"/></g><g clip-path="url(#cS)" transform="matrix(.62536 0 0 -.62538 -320.318 184.242)"><path d="M531.696 264.132v-9.384h4.876v13.1z" fill="url(#cT)"/></g><g clip-path="url(#cU)" transform="matrix(.62536 0 0 -.62538 -320.318 184.242)"><path d="M536.572 267.848l-4.876-3.716v-13.159h4.876z" fill="none" stroke="#351f17" stroke-width=".44" stroke-linecap="round" stroke-linejoin="round" stroke-miterlimit="10"/></g><g clip-path="url(#cV)" transform="matrix(.62536 0 0 -.62538 -320.318 184.242)"><path d="M536.572 267.848v-13.1h5.256v13.908z" fill="url(#cW)"/></g><g clip-path="url(#cX)" transform="matrix(.62536 0 0 -.62538 -320.318 184.242)"><path d="M541.828 250.973h-5.256v16.875l5.256.808z" fill="none" stroke="#351f17" stroke-width=".44" stroke-linecap="round" stroke-linejoin="round" stroke-miterlimit="10"/></g><g clip-path="url(#cY)" transform="matrix(.62536 0 0 -.62538 -320.318 184.242)"><path d="M537.66 264.971c.001-.869.74-1.376 1.65-1.134l-.007 3.145c-.91-.242-1.645-1.142-1.643-2.011" fill="url(#cZ)"/></g><g clip-path="url(#da)" transform="matrix(.62536 0 0 -.62538 -320.318 184.242)"><path d="M539.31 263.837c-.91-.242-1.648.266-1.65 1.134-.002.869.734 1.77 1.643 2.012" fill="none" stroke="#351f17" stroke-width=".44" stroke-miterlimit="10"/></g><g clip-path="url(#db)" transform="matrix(.62536 0 0 -.62538 -320.318 184.242)"><path d="M539.746 267.043c-.14 0-.289-.019-.443-.061l.007-3.145c.91.243 1.645 1.143 1.644 2.011-.002.721-.511 1.195-1.206 1.195h-.002" fill="url(#dc)"/></g><g clip-path="url(#dd)" transform="matrix(.62536 0 0 -.62538 -320.318 184.242)"><path d="M539.303 266.983c.91.242 1.648-.266 1.65-1.134.002-.87-.734-1.77-1.643-2.012m-3.199 3.66s.118 1.496-1.977 2.999" fill="none" stroke="#351f17" stroke-width=".44" stroke-miterlimit="10"/></g><g clip-path="url(#de)" transform="matrix(.62536 0 0 -.62538 -320.318 184.242)"><path d="M532.067 272.128a.666.666 0 01.151-.931l1.517-1.094a.667.667 0 01.932.151.665.665 0 01-.152.931l-1.516 1.095a.668.668 0 01-.932-.152" fill="url(#df)"/></g><g clip-path="url(#dg)" transform="matrix(.62536 0 0 -.62538 -320.318 184.242)"><path d="M532.067 272.129a.667.667 0 00.932.15l1.517-1.093a.668.668 0 00-.78-1.083l-1.518 1.094a.667.667 0 00-.15.932z" fill="none" stroke="#351f17" stroke-width=".44" stroke-miterlimit="10"/></g><path d="M0 0s-5.613 0-5.613-5.613v-26.192s0-5.612 5.613-5.612h26.192s5.613 0 5.613 5.612v26.192S31.805 0 26.192 0z" fill="none" stroke="#231f20" stroke-width=".66" transform="matrix(.62536 0 0 -.62538 5.04 1.53)"/></svg>