<svg xmlns="http://www.w3.org/2000/svg" width="100" height="100" viewBox="0 0 26.458 26.458"><defs><clipPath clipPathUnits="userSpaceOnUse" id="S"><path d="M489.58 269.229c1.12-4.482 2.624-3.478 3.018-3.114-.533-.45-1.349.235-1.349.235-1.042.893-1.669 2.879-1.669 2.879zm3.018-3.114a.717.717 0 01.098.1s-.035-.043-.098-.1"/></clipPath><clipPath clipPathUnits="userSpaceOnUse" id="o"><path d="M-13948.7 14672.1h28835.2v-28835.2h-28835.2z"/></clipPath><clipPath clipPathUnits="userSpaceOnUse" id="C"><path d="M474.746 292.165s-5.612 0-5.612-5.612v-26.196c.001-.17.087-5.609 5.612-5.609h26.192s5.613 0 5.613 5.613v26.192s0 5.612-5.613 5.612z"/></clipPath><clipPath clipPathUnits="userSpaceOnUse" id="c"><path d="M-13948.7 14672.1h28835.2v-28835.2h-28835.2z"/></clipPath><clipPath clipPathUnits="userSpaceOnUse" id="F"><path d="M506.175 261.642h-.017.045zm-36.656 0v-3.334a5.86 5.86 0 01.815-1.568c5.282 4.834 34.511 4.901 35.824 4.902z"/></clipPath><clipPath clipPathUnits="userSpaceOnUse" id="I"><path d="M474.746 292.165s-5.612 0-5.612-5.612v-26.196c.001-.17.087-5.609 5.612-5.609h26.192s5.613 0 5.613 5.613v26.192s0 5.612-5.613 5.612z"/></clipPath><clipPath clipPathUnits="userSpaceOnUse" id="e"><path d="M-13948.7 14672.1h28835.2v-28835.2h-28835.2z"/></clipPath><clipPath clipPathUnits="userSpaceOnUse" id="J"><path d="M494.977 266.581l1.444.671s-.614-.257-1.444-.671m-2.63-1.222c-3.486-1.751-1.202-3.4-1.369-3.247-1.539 1.399 1.911 3.428 3.999 4.469z"/></clipPath><clipPath clipPathUnits="userSpaceOnUse" id="k"><path d="M-32768 32767h65535v-65535h-65535z"/></clipPath><clipPath clipPathUnits="userSpaceOnUse" id="M"><path d="M486.641 276.071c-.468-1.393.97-2.5.97-2.5-2.595 3.658 2.302 4.191 2.302 4.191a3.27 3.27 0 01-.697.078c-1.854 0-2.575-1.769-2.575-1.769"/></clipPath><clipPath clipPathUnits="userSpaceOnUse" id="m"><path d="M-13948.7 14672.1h28835.2v-28835.2h-28835.2z"/></clipPath><clipPath clipPathUnits="userSpaceOnUse" id="P"><path d="M492.646 271.651l-.584-2.309c.621 2.368 1.038 2.359 1.175 2.268-1.177 1.176.334 2.913.334 2.913-1.843-1.066-.925-2.872-.925-2.872m.639-.088s-.016.026-.048.047l.048-.047"/></clipPath><clipPath clipPathUnits="userSpaceOnUse" id="w"><path d="M-13948.7 14672.1h28835.2v-28835.2h-28835.2z"/></clipPath><clipPath clipPathUnits="userSpaceOnUse" id="D"><path d="M469.134 290.596h8.824v-7.642h-8.824z"/></clipPath><clipPath clipPathUnits="userSpaceOnUse" id="u"><path d="M-32768 32767h65535v-65535h-65535z"/></clipPath><clipPath clipPathUnits="userSpaceOnUse" id="V"><path d="M492.646 263.248s1.948 1.19 3.852.881c1.479-.24 3.628.391 3.628.391s-2.496-.675-4.532.005c0 0-.041.006-.116.006-.356 0-1.487-.104-2.832-1.283"/></clipPath><clipPath clipPathUnits="userSpaceOnUse" id="s"><path d="M-32768 32767h65535v-65535h-65535z"/></clipPath><clipPath clipPathUnits="userSpaceOnUse" id="Y"><path d="M494.984 269.814c1.531-.979 1.646-2.321 1.646-2.321 1.344.804-1.646 2.321-1.646 2.321z"/></clipPath><clipPath clipPathUnits="userSpaceOnUse" id="q"><path d="M-13948.7 14672.1h28835.2v-28835.2h-28835.2z"/></clipPath><clipPath clipPathUnits="userSpaceOnUse" id="ab"><path d="M488.02 271.338s.37-.11.604-.426c.234-.316.502-.208.371.044 0 0-.012-.361-.322.049 0 0-.372.359-.576.359a.112.112 0 01-.077-.026"/></clipPath><clipPath clipPathUnits="userSpaceOnUse" id="a"><path d="M-13948.7 14672.1h28835.2v-28835.2h-28835.2z"/></clipPath><clipPath clipPathUnits="userSpaceOnUse" id="ae"><path d="M488.49 271.83s.343-.182.51-.538c.166-.356.451-.304.372-.03 0 0-.083-.351-.307.111 0 0-.323.469-.522.469a.124.124 0 01-.053-.012"/></clipPath><clipPath clipPathUnits="userSpaceOnUse" id="i"><path d="M-13948.7 14672.1h28835.2v-28835.2h-28835.2z"/></clipPath><clipPath clipPathUnits="userSpaceOnUse" id="ah"><path d="M488.841 272.229s.343-.181.511-.536c.165-.357.45-.304.371-.031 0 0-.083-.352-.307.112 0 0-.323.468-.523.469a.11.11 0 01-.052-.014"/></clipPath><clipPath clipPathUnits="userSpaceOnUse" id="g"><path d="M-13948.7 14672.1h28835.2v-28835.2h-28835.2z"/></clipPath><clipPath clipPathUnits="userSpaceOnUse" id="ak"><path d="M489.357 272.431s.264-.17.373-.469c.109-.298.342-.277.298-.051 0 0-.092-.277-.239.111 0 0-.236.416-.397.416a.104.104 0 01-.035-.007"/></clipPath><clipPath clipPathUnits="userSpaceOnUse" id="z"><path d="M474.746 292.165s-5.612 0-5.612-5.612v-7.727a8.35 8.35 0 012.145-1.078v-21.964c.811-.614 1.927-1.036 3.467-1.036h6.256l-6.649 22.59c.453.023.896.074 1.327.166l11.775-22.756h2.155l-13.278 22.924c.373.113.732.255 1.08.415 2.958-4.308 11.074-15.838 16.363-23.339h7.163s2.277 0 3.931 1.45l-25.326 23.304a8.36 8.36 0 012.205 3.265l24.803-10.932v7.361l-24.309 5.748c.021.241.037.484.037.731 0 .134-.014.266-.02.398l24.292-3.145v1.762l-24.311 1.757c-.013.137-.034.271-.053.406 5.409-.285 16.736-.942 24.364-1.388v1.088s0 3.476-2.736 4.957l-23.01-1.099a8.39 8.39 0 01-1.621 1.754z"/></clipPath><linearGradient x1="0" y1="0" x2="1" y2="0" gradientUnits="userSpaceOnUse" gradientTransform="scale(55.96208 -55.96208) rotate(45 10.514 7.508)" spreadMethod="pad" id="B"><stop offset="0" stop-color="#fff"/><stop offset=".264" stop-color="#fff"/><stop offset="1" stop-color="#fff"/></linearGradient><linearGradient x1="0" y1="0" x2="1" y2="0" gradientUnits="userSpaceOnUse" gradientTransform="scale(55.96208 -55.96208) rotate(45 10.514 7.508)" spreadMethod="pad" id="p"><stop offset="0" stop-color="#fff"/><stop offset=".264" stop-color="#fff"/><stop offset="1" stop-opacity=".5" stop-color="#fff"/></linearGradient><linearGradient x1="0" y1="0" x2="1" y2="0" gradientUnits="userSpaceOnUse" gradientTransform="scale(8.52365 -8.52365) rotate(45 68.329 49.766)" spreadMethod="pad" id="E"><stop offset="0" stop-color="#fcd528"/><stop offset="1" stop-color="#fff200"/></linearGradient><linearGradient x1="0" y1="0" x2="1" y2="0" gradientUnits="userSpaceOnUse" gradientTransform="matrix(36.68472 0 0 -36.68472 469.519 258.396)" spreadMethod="pad" id="H"><stop offset="0" stop-color="#fff"/><stop offset=".005" stop-color="#fff"/><stop offset="1" stop-color="#fff"/></linearGradient><linearGradient x1="0" y1="0" x2="1" y2="0" gradientUnits="userSpaceOnUse" gradientTransform="matrix(36.68472 0 0 -36.68472 469.519 258.396)" spreadMethod="pad" id="d"><stop offset="0" stop-opacity=".7" stop-color="#fff"/><stop offset=".005" stop-opacity=".7" stop-color="#fff"/><stop offset="1" stop-opacity="0" stop-color="#fff"/></linearGradient><linearGradient x1="0" y1="0" x2="1" y2="0" gradientUnits="userSpaceOnUse" gradientTransform="matrix(6.02503 0 0 -6.02503 490.396 264.678)" spreadMethod="pad" id="L"><stop offset="0" stop-color="#fff"/><stop offset=".005" stop-color="#fff"/><stop offset="1" stop-color="#fff"/></linearGradient><linearGradient x1="0" y1="0" x2="1" y2="0" gradientUnits="userSpaceOnUse" gradientTransform="matrix(6.02503 0 0 -6.02503 490.396 264.678)" spreadMethod="pad" id="f"><stop offset="0" stop-opacity=".7" stop-color="#fff"/><stop offset=".005" stop-opacity=".7" stop-color="#fff"/><stop offset="1" stop-opacity="0" stop-color="#fff"/></linearGradient><linearGradient x1="0" y1="0" x2="1" y2="0" gradientUnits="userSpaceOnUse" gradientTransform="matrix(3.36572 0 0 -3.36572 486.547 275.706)" spreadMethod="pad" id="O"><stop offset="0" stop-color="#fff"/><stop offset=".005" stop-color="#fff"/><stop offset="1" stop-color="#fff"/></linearGradient><linearGradient x1="0" y1="0" x2="1" y2="0" gradientUnits="userSpaceOnUse" gradientTransform="matrix(3.36572 0 0 -3.36572 486.547 275.706)" spreadMethod="pad" id="l"><stop offset="0" stop-opacity=".7" stop-color="#fff"/><stop offset=".005" stop-opacity=".7" stop-color="#fff"/><stop offset="1" stop-opacity="0" stop-color="#fff"/></linearGradient><linearGradient x1="0" y1="0" x2="1" y2="0" gradientUnits="userSpaceOnUse" gradientTransform="matrix(.78576 -.2322 -.2315 -.78342 489.289 272.2)" spreadMethod="pad" id="h"><stop offset="0" stop-opacity=".7" stop-color="#fff"/><stop offset=".005" stop-opacity=".7" stop-color="#fff"/><stop offset="1" stop-opacity="0" stop-color="#fff"/></linearGradient><linearGradient x1="0" y1="0" x2="1" y2="0" gradientUnits="userSpaceOnUse" gradientTransform="matrix(.78576 -.2322 -.2315 -.78342 489.289 272.2)" spreadMethod="pad" id="am"><stop offset="0" stop-color="#fff"/><stop offset=".005" stop-color="#fff"/><stop offset="1" stop-color="#fff"/></linearGradient><linearGradient x1="0" y1="0" x2="1" y2="0" gradientUnits="userSpaceOnUse" gradientTransform="scale(1.0102 -1.0102) rotate(11.38 1592.775 2293.427)" spreadMethod="pad" id="j"><stop offset="0" stop-opacity=".7" stop-color="#fff"/><stop offset=".005" stop-opacity=".7" stop-color="#fff"/><stop offset="1" stop-opacity="0" stop-color="#fff"/></linearGradient><linearGradient x1="0" y1="0" x2="1" y2="0" gradientUnits="userSpaceOnUse" gradientTransform="scale(1.0102 -1.0102) rotate(11.38 1592.775 2293.427)" spreadMethod="pad" id="aj"><stop offset="0" stop-color="#fff"/><stop offset=".005" stop-color="#fff"/><stop offset="1" stop-color="#fff"/></linearGradient><linearGradient x1="0" y1="0" x2="1" y2="0" gradientUnits="userSpaceOnUse" gradientTransform="scale(1.0104 -1.0104) rotate(11.38 1590.307 2291.452)" spreadMethod="pad" id="b"><stop offset="0" stop-opacity=".7" stop-color="#fff"/><stop offset=".005" stop-opacity=".7" stop-color="#fff"/><stop offset="1" stop-opacity="0" stop-color="#fff"/></linearGradient><linearGradient x1="0" y1="0" x2="1" y2="0" gradientUnits="userSpaceOnUse" gradientTransform="scale(1.0104 -1.0104) rotate(11.38 1590.307 2291.452)" spreadMethod="pad" id="ag"><stop offset="0" stop-color="#fff"/><stop offset=".005" stop-color="#fff"/><stop offset="1" stop-color="#fff"/></linearGradient><linearGradient x1="0" y1="0" x2="1" y2="0" gradientUnits="userSpaceOnUse" gradientTransform="matrix(1.5082 0 0 -1.5082 492.062 271.933)" spreadMethod="pad" id="R"><stop offset="0" stop-color="#fff"/><stop offset=".005" stop-color="#fff"/><stop offset="1" stop-color="#fff"/></linearGradient><linearGradient x1="0" y1="0" x2="1" y2="0" gradientUnits="userSpaceOnUse" gradientTransform="matrix(1.01062 0 0 -1.01062 488.02 271.04)" spreadMethod="pad" id="r"><stop offset="0" stop-opacity=".7" stop-color="#fff"/><stop offset=".005" stop-opacity=".7" stop-color="#fff"/><stop offset="1" stop-opacity="0" stop-color="#fff"/></linearGradient><linearGradient x1="0" y1="0" x2="1" y2="0" gradientUnits="userSpaceOnUse" gradientTransform="matrix(1.01062 0 0 -1.01062 488.02 271.04)" spreadMethod="pad" id="ad"><stop offset="0" stop-color="#fff"/><stop offset=".005" stop-color="#fff"/><stop offset="1" stop-color="#fff"/></linearGradient><linearGradient x1="0" y1="0" x2="1" y2="0" gradientUnits="userSpaceOnUse" gradientTransform="matrix(1.5082 0 0 -1.5082 492.062 271.933)" spreadMethod="pad" id="n"><stop offset="0" stop-opacity=".7" stop-color="#fff"/><stop offset=".005" stop-opacity=".7" stop-color="#fff"/><stop offset="1" stop-opacity="0" stop-color="#fff"/></linearGradient><linearGradient x1="0" y1="0" x2="1" y2="0" gradientUnits="userSpaceOnUse" gradientTransform="matrix(1.99374 0 0 -1.99374 494.984 268.654)" spreadMethod="pad" id="t"><stop offset="0" stop-opacity=".7" stop-color="#fff"/><stop offset=".005" stop-opacity=".7" stop-color="#fff"/><stop offset="1" stop-opacity="0" stop-color="#fff"/></linearGradient><linearGradient x1="0" y1="0" x2="1" y2="0" gradientUnits="userSpaceOnUse" gradientTransform="matrix(1.99374 0 0 -1.99374 494.984 268.654)" spreadMethod="pad" id="aa"><stop offset="0" stop-color="#fff"/><stop offset=".005" stop-color="#fff"/><stop offset="1" stop-color="#fff"/></linearGradient><linearGradient x1="0" y1="0" x2="1" y2="0" gradientUnits="userSpaceOnUse" gradientTransform="matrix(7.4808 0 0 -7.4808 492.645 263.89)" spreadMethod="pad" id="v"><stop offset="0" stop-opacity=".7" stop-color="#fff"/><stop offset=".005" stop-opacity=".7" stop-color="#fff"/><stop offset="1" stop-opacity="0" stop-color="#fff"/></linearGradient><linearGradient x1="0" y1="0" x2="1" y2="0" gradientUnits="userSpaceOnUse" gradientTransform="matrix(7.4808 0 0 -7.4808 492.645 263.89)" spreadMethod="pad" id="X"><stop offset="0" stop-color="#fff"/><stop offset=".005" stop-color="#fff"/><stop offset="1" stop-color="#fff"/></linearGradient><linearGradient x1="0" y1="0" x2="1" y2="0" gradientUnits="userSpaceOnUse" gradientTransform="matrix(3.11564 0 0 -3.11564 489.58 267.494)" spreadMethod="pad" id="x"><stop offset="0" stop-opacity=".7" stop-color="#fff"/><stop offset=".005" stop-opacity=".7" stop-color="#fff"/><stop offset="1" stop-opacity="0" stop-color="#fff"/></linearGradient><linearGradient x1="0" y1="0" x2="1" y2="0" gradientUnits="userSpaceOnUse" gradientTransform="matrix(3.11564 0 0 -3.11564 489.58 267.494)" spreadMethod="pad" id="U"><stop offset="0" stop-color="#fff"/><stop offset=".005" stop-color="#fff"/><stop offset="1" stop-color="#fff"/></linearGradient><linearGradient x1="0" y1="0" x2="1" y2="0" gradientUnits="userSpaceOnUse" gradientTransform="scale(52.91605 -52.91605) rotate(45 11.098 7.941)" spreadMethod="pad" id="y"><stop offset="0" stop-color="#fff200"/><stop offset=".832" stop-color="#f9a72b"/><stop offset="1" stop-color="#f9a72b"/></linearGradient><mask maskUnits="userSpaceOnUse" x="0" y="0" width="1" height="1" id="Q"><g clip-path="url(#m)"><path d="M491.729 274.524h1.842v-5.181h-1.842z" fill="url(#n)"/></g></mask><mask maskUnits="userSpaceOnUse" x="0" y="0" width="1" height="1" id="af"><g clip-path="url(#a)"><path d="M488.528 272.027l1.102-.221-.217-1.081-1.102.222z" fill="url(#b)"/></g></mask><mask maskUnits="userSpaceOnUse" x="0" y="0" width="1" height="1" id="K"><g clip-path="url(#e)"><path d="M488.861 267.253h7.56v-5.293h-7.56z" fill="url(#f)"/></g></mask><mask maskUnits="userSpaceOnUse" x="0" y="0" width="1" height="1" id="al"><g clip-path="url(#g)"><path d="M489.415 272.632l.875-.258-.275-.934-.876.259z" fill="url(#h)"/></g></mask><mask maskUnits="userSpaceOnUse" x="0" y="0" width="1" height="1" id="ai"><g clip-path="url(#i)"><path d="M488.879 272.428l1.103-.222-.218-1.081-1.103.222z" fill="url(#j)"/></g></mask><mask maskUnits="userSpaceOnUse" x="0" y="0" width="1" height="1" id="N"><g clip-path="url(#k)"><path d="M485.016 277.84h4.897v-4.269h-4.897z" fill="url(#l)"/></g></mask><mask maskUnits="userSpaceOnUse" x="0" y="0" width="1" height="1" id="G"><g clip-path="url(#c)"><path d="M469.519 261.641h36.685v-5.256h-36.685z" fill="url(#d)"/></g></mask><mask maskUnits="userSpaceOnUse" x="0" y="0" width="1" height="1" id="A"><g clip-path="url(#o)"><path d="M487.842 310.874l37.418-37.417-37.418-37.418-37.417 37.418z" fill="url(#p)"/></g></mask><mask maskUnits="userSpaceOnUse" x="0" y="0" width="1" height="1" id="ac"><g clip-path="url(#q)"><path d="M488.019 271.364h1.107v-.769h-1.107z" fill="url(#r)"/></g></mask><mask maskUnits="userSpaceOnUse" x="0" y="0" width="1" height="1" id="Z"><g clip-path="url(#s)"><path d="M494.984 269.814h2.991v-2.321h-2.991z" fill="url(#t)"/></g></mask><mask maskUnits="userSpaceOnUse" x="0" y="0" width="1" height="1" id="W"><g clip-path="url(#u)"><path d="M492.646 264.53h7.481v-1.282h-7.481z" fill="url(#v)"/></g></mask><mask maskUnits="userSpaceOnUse" x="0" y="0" width="1" height="1" id="T"><g clip-path="url(#w)"><path d="M489.581 269.228h3.116v-4.481h-3.116z" fill="url(#x)"/></g></mask></defs><path d="M474.746 292.165s-5.612 0-5.612-5.612v-26.196c.001-.17.087-5.609 5.612-5.609h26.192s5.613 0 5.613 5.613v26.192s0 5.612-5.613 5.612z" fill="url(#y)" transform="matrix(.62441 0 0 -.62796 -291.386 184.91)"/><g clip-path="url(#z)" transform="matrix(.62441 0 0 -.62796 -291.386 184.91)"><g mask="url(#A)"><path d="M474.746 292.165s-5.612 0-5.612-5.612v-7.727a8.35 8.35 0 012.145-1.078v-21.964c.811-.614 1.927-1.036 3.467-1.036h6.256l-6.649 22.59c.453.023.896.074 1.327.166l11.775-22.756h2.155l-13.278 22.924c.373.113.732.255 1.08.415 2.958-4.308 11.074-15.838 16.363-23.339h7.163s2.277 0 3.931 1.45l-25.326 23.304a8.36 8.36 0 012.205 3.265l24.803-10.932v7.361l-24.309 5.748c.021.241.037.484.037.731 0 .134-.014.266-.02.398l24.292-3.145v1.762l-24.311 1.757c-.013.137-.034.271-.053.406 5.409-.285 16.736-.942 24.364-1.388v1.088s0 3.476-2.736 4.957l-23.01-1.099a8.39 8.39 0 01-1.621 1.754z" fill="url(#B)"/></g></g><g clip-path="url(#C)" transform="matrix(.62441 0 0 -.62796 -291.386 184.91)"><g clip-path="url(#D)" opacity=".4"><path d="M471.34 286.775l-2.205-3.82h8.822l-2.204 3.82-2.207 3.821z" fill="url(#E)"/></g><path d="M506.551 262.026h-37.417v-7.324h37.417z" fill="#231f20"/></g><g clip-path="url(#F)" transform="matrix(.62441 0 0 -.62796 -291.386 184.91)"><g mask="url(#G)"><path d="M506.175 261.642h-.017.045zm-36.656 0v-3.334a5.86 5.86 0 01.815-1.568c5.282 4.834 34.511 4.901 35.824 4.902z" fill="url(#H)"/></g></g><g clip-path="url(#I)" transform="matrix(.62441 0 0 -.62796 -291.386 184.91)" fill="#231f20"><path d="M500.062 264.735l-3.564-.605-5 .524a1.468 1.468 0 01.409-2.907l2.234.183c5.182.096 8.004 2.195 7.74 2.962-.415 1.196-1.82.282-1.82-.157"/><path d="M490.101 262.837c.572-.785 1.216-1.396 1.867-1.12l8.603 3.663c.65.278.87 1.227.486 2.123-.38.894-1.216 1.397-1.867 1.119 0 0-10.574-3.747-9.089-5.785m3.118 3.913l1.926 5.423c.154.395-.161 1.845-.767 2.082-.605.237-1.426-.078-1.581-.47l-1.36-6.23c-.154-.397-.318-.652.288-.89.606-.237 1.338-.31 1.493.084"/><path d="M500.594 265.358s1.895.926.394 3.732c0 0-3.212 5.77-9.097 7.417 0 0-1.028.337-1.516.17-.954-.327-1.66-2.019 2.153-2.826 0 0-.029-3.055 1.783-3.936 2.075-1.009 1.72-1.868 2.774-3.559"/><path d="M491.945 275.006c-.275-3.1-.747-2.589-2.295-2.452-1.548.138-3.45 1.4-3.313 2.948a2.815 2.815 0 005.608-.496m10.459-13.313l-.942.04s-.857.911-1.173 1.544c-.316.631-.487 1.592.779 2.081 0 0 .784-.28.656-.866-.157-.72-.12-1.078.174-1.574.293-.497 2.218-.893.506-1.225m-7.957 10.847c-.214-.936-.908-1.577-1.55-1.43-.641.147-.987 1.026-.772 1.962.215.937.909 1.577 1.55 1.43.64-.147.987-1.025.772-1.962"/><path d="M494.35 269.672c-.348-1.09-1.173-1.801-1.842-1.586-.67.214-.93 1.27-.58 2.36.35 1.092 1.175 1.802 1.844 1.588.669-.214.929-1.271.579-2.362"/><path d="M489.958 271.328s.426-1.38.897-1.75c.47-.37 1.55-1.972 1.492-2.522-.057-.55.871-.307.871-.307s-.598-1.002-1.027-1.265c0 0-2.04-.02-2.652 2.778-.61 2.797-.914 2.424-1.048 2.779z"/><path d="M490.42 269.613s-.964-.502-1.4.213c-.435.715-.953.234-1.088 1.399 0 0-.155.779.435.483 0 0-.093.647.342.424 0 0 .033.586.437.337 0 0 .123.34.496.062 0 0 .684-.128.778-1.044.093-.915-.467-1.433 0-1.874"/></g><g clip-path="url(#J)" transform="matrix(.62441 0 0 -.62796 -291.386 184.91)"><g mask="url(#K)"><path d="M494.977 266.581l1.444.671s-.614-.257-1.444-.671m-2.63-1.222c-3.486-1.751-1.202-3.4-1.369-3.247-1.539 1.399 1.911 3.428 3.999 4.469z" fill="url(#L)"/></g></g><g clip-path="url(#M)" transform="matrix(.62441 0 0 -.62796 -291.386 184.91)"><g mask="url(#N)"><path d="M486.641 276.071c-.468-1.393.97-2.5.97-2.5-2.595 3.658 2.302 4.191 2.302 4.191a3.27 3.27 0 01-.697.078c-1.854 0-2.575-1.769-2.575-1.769" fill="url(#O)"/></g></g><g clip-path="url(#P)" transform="matrix(.62441 0 0 -.62796 -291.386 184.91)"><g mask="url(#Q)"><path d="M492.646 271.651l-.584-2.309c.621 2.368 1.038 2.359 1.175 2.268-1.177 1.176.334 2.913.334 2.913-1.843-1.066-.925-2.872-.925-2.872m.639-.088s-.016.026-.048.047l.048-.047" fill="url(#R)"/></g></g><g clip-path="url(#S)" transform="matrix(.62441 0 0 -.62796 -291.386 184.91)"><g mask="url(#T)"><path d="M489.58 269.229c1.12-4.482 2.624-3.478 3.018-3.114-.533-.45-1.349.235-1.349.235-1.042.893-1.669 2.879-1.669 2.879zm3.018-3.114a.717.717 0 01.098.1s-.035-.043-.098-.1" fill="url(#U)"/></g></g><g clip-path="url(#V)" transform="matrix(.62441 0 0 -.62796 -291.386 184.91)"><g mask="url(#W)"><path d="M492.646 263.248s1.948 1.19 3.852.881c1.479-.24 3.628.391 3.628.391s-2.496-.675-4.532.005c0 0-.041.006-.116.006-.356 0-1.487-.104-2.832-1.283" fill="url(#X)"/></g></g><g clip-path="url(#Y)" transform="matrix(.62441 0 0 -.62796 -291.386 184.91)"><g mask="url(#Z)"><path d="M494.984 269.814c1.531-.979 1.646-2.321 1.646-2.321 1.344.804-1.646 2.321-1.646 2.321z" fill="url(#aa)"/></g></g><g clip-path="url(#ab)" transform="matrix(.62441 0 0 -.62796 -291.386 184.91)"><g mask="url(#ac)"><path d="M488.02 271.338s.37-.11.604-.426c.234-.316.502-.208.371.044 0 0-.012-.361-.322.049 0 0-.372.359-.576.359a.112.112 0 01-.077-.026" fill="url(#ad)"/></g></g><g clip-path="url(#ae)" transform="matrix(.62441 0 0 -.62796 -291.386 184.91)"><g mask="url(#af)"><path d="M488.49 271.83s.343-.182.51-.538c.166-.356.451-.304.372-.03 0 0-.083-.351-.307.111 0 0-.323.469-.522.469a.124.124 0 01-.053-.012" fill="url(#ag)"/></g></g><g clip-path="url(#ah)" transform="matrix(.62441 0 0 -.62796 -291.386 184.91)"><g mask="url(#ai)"><path d="M488.841 272.229s.343-.181.511-.536c.165-.357.45-.304.371-.031 0 0-.083-.352-.307.112 0 0-.323.468-.523.469a.11.11 0 01-.052-.014" fill="url(#aj)"/></g></g><g clip-path="url(#ak)" transform="matrix(.62441 0 0 -.62796 -291.386 184.91)"><g mask="url(#al)"><path d="M489.357 272.431s.264-.17.373-.469c.109-.298.342-.277.298-.051 0 0-.092-.277-.239.111 0 0-.236.416-.397.416a.104.104 0 01-.035-.007" fill="url(#am)"/></g></g><path d="M0 0s-5.613 0-5.613-5.613v-26.192s0-5.612 5.613-5.612h26.192s5.613 0 5.613 5.612v26.192S31.805 0 26.192 0z" fill="none" stroke="#231f20" stroke-width=".66" transform="matrix(.62441 0 0 -.62796 5.052 1.444)"/></svg>