<svg xmlns="http://www.w3.org/2000/svg" width="100" height="100" viewBox="0 0 26.458 26.458"><defs><clipPath clipPathUnits="userSpaceOnUse" id="a"><path d="M-13847.3 14751.2h28723.6v-28723.6h-28723.6z"/></clipPath><clipPath clipPathUnits="userSpaceOnUse" id="s"><path d="M522.398 419.493h11.895V409.9h-11.895z"/></clipPath><clipPath clipPathUnits="userSpaceOnUse" id="r"><path d="M520.271 426.867s-4.887 0-5.54-4.559v-28.023c.206-1.349 1.002-4.037 4.076-4.689l.087-.001h28.745c1.49.311 3.917 1.297 4.364 4.416v28.022c-.236 1.542-1.242 4.834-5.54 4.834z"/></clipPath><clipPath clipPathUnits="userSpaceOnUse" id="h"><path d="M520.271 426.867s-4.887 0-5.54-4.559v-28.023c.206-1.349 1.002-4.037 4.076-4.689l.087-.001h28.745c1.49.311 3.917 1.297 4.364 4.416v28.022c-.236 1.542-1.242 4.834-5.54 4.834z"/></clipPath><clipPath clipPathUnits="userSpaceOnUse" id="j"><path d="M520.271 426.867s-4.887 0-5.54-4.559v-28.023c.206-1.349 1.002-4.037 4.076-4.689l.087-.001h28.745c1.49.311 3.917 1.297 4.364 4.416v28.022c-.236 1.542-1.242 4.834-5.54 4.834z"/></clipPath><clipPath clipPathUnits="userSpaceOnUse" id="c"><path d="M-13847.3 14751.2h28723.6v-28723.6h-28723.6z"/></clipPath><clipPath clipPathUnits="userSpaceOnUse" id="l"><path d="M529.891 420.102c-5.79-1.552-9.66-5.878-8.646-9.665 1.014-3.788 6.53-5.601 12.32-4.05 5.79 1.551 9.661 5.878 8.646 9.666-.768 2.868-4.118 4.604-8.213 4.604a15.91 15.91 0 01-4.107-.555"/></clipPath><clipPath clipPathUnits="userSpaceOnUse" id="e"><path d="M-32768 32767h65535v-65535h-65535z"/></clipPath><clipPath clipPathUnits="userSpaceOnUse" id="o"><path d="M533.367 395.821c-11.283 0-13.096 12.245-13.096 12.245 0-7.232 5.864-13.096 13.096-13.096s13.096 5.864 13.096 13.096c0 0-1.688-12.245-13.096-12.245"/></clipPath><clipPath clipPathUnits="userSpaceOnUse" id="t"><path d="M526.51 418.753c-3.123-1.414-4.834-4.375-3.82-6.615.645-1.425 2.235-2.214 4.111-2.238h.168a8.093 8.093 0 013.212.74c2.485 1.125 4.076 3.23 4.111 5.173v.131a3.297 3.297 0 01-.291 1.312c-.655 1.446-2.283 2.238-4.195 2.238-1.052 0-2.188-.24-3.296-.741"/></clipPath><linearGradient x1="0" y1="0" x2="1" y2="0" gradientUnits="userSpaceOnUse" gradientTransform="matrix(8.91498 -5.14728 -4.96565 -8.95266 523.888 417.27)" spreadMethod="pad" id="b"><stop offset="0" stop-color="#fff"/><stop offset="1" stop-opacity="0" stop-color="#fff"/></linearGradient><linearGradient x1="0" y1="0" x2="1" y2="0" gradientUnits="userSpaceOnUse" gradientTransform="scale(52.71133 -52.71133) rotate(45 14.658 7.738)" spreadMethod="pad" id="g"><stop offset="0" stop-color="#50ade5"/><stop offset="1" stop-color="#1c3850"/></linearGradient><linearGradient x1="0" y1="0" x2="1" y2="0" gradientUnits="userSpaceOnUse" gradientTransform="matrix(0 29.4937 29.4937 0 533.367 393.485)" spreadMethod="pad" id="i"><stop offset="0" stop-color="#2155ad"/><stop offset="1" stop-color="#00adef"/></linearGradient><linearGradient x1="0" y1="0" x2="1" y2="0" gradientUnits="userSpaceOnUse" gradientTransform="matrix(0 27.06768 27.06768 0 533.367 394.698)" spreadMethod="pad" id="k"><stop offset="0" stop-color="#00adef"/><stop offset="1" stop-color="#2646a2"/></linearGradient><linearGradient x1="0" y1="0" x2="1" y2="0" gradientUnits="userSpaceOnUse" gradientTransform="matrix(13.5841 -10.17106 -11.35347 -13.1271 524.936 418.33)" spreadMethod="pad" id="n"><stop offset="0" stop-color="#00adef"/><stop offset="1" stop-color="#00adef"/></linearGradient><linearGradient x1="0" y1="0" x2="1" y2="0" gradientUnits="userSpaceOnUse" gradientTransform="matrix(13.5841 -10.17106 -11.35347 -13.1271 524.936 418.33)" spreadMethod="pad" id="d"><stop offset="0" stop-color="#fff"/><stop offset="1" stop-opacity="0" stop-color="#fff"/></linearGradient><linearGradient x1="0" y1="0" x2="1" y2="0" gradientUnits="userSpaceOnUse" gradientTransform="matrix(0 13.09533 13.09533 0 533.367 394.971)" spreadMethod="pad" id="q"><stop offset="0" stop-color="#2e3192"/><stop offset="1" stop-color="#2e3192"/></linearGradient><linearGradient x1="0" y1="0" x2="1" y2="0" gradientUnits="userSpaceOnUse" gradientTransform="matrix(0 13.09533 13.09533 0 533.367 394.971)" spreadMethod="pad" id="f"><stop offset="0" stop-opacity="0" stop-color="#fff"/><stop offset="1" stop-opacity=".6" stop-color="#fff"/></linearGradient><linearGradient x1="0" y1="0" x2="1" y2="0" gradientUnits="userSpaceOnUse" gradientTransform="matrix(8.91498 -5.14728 -4.96565 -8.95266 523.888 417.27)" spreadMethod="pad" id="v"><stop offset="0" stop-color="#fff"/><stop offset="1" stop-color="#fff"/></linearGradient><mask maskUnits="userSpaceOnUse" x="0" y="0" width="1" height="1" id="u"><g clip-path="url(#a)"><path d="M524.912 425.999l14.698-8.486-7.831-14.118-14.698 8.486z" fill="url(#b)"/></g></mask><mask maskUnits="userSpaceOnUse" x="0" y="0" width="1" height="1" id="m"><g clip-path="url(#c)"><path d="M529.269 431.108l22.262-16.669-17.344-20.053-22.262 16.669z" fill="url(#d)"/></g></mask><mask maskUnits="userSpaceOnUse" x="0" y="0" width="1" height="1" id="p"><g clip-path="url(#e)"><path d="M520.271 408.067h26.192v-13.096h-26.192z" fill="url(#f)"/></g></mask></defs><path d="M520.271 426.867s-4.887 0-5.54-4.559v-28.023c.206-1.349 1.001-4.037 4.076-4.689l.087-.001h28.745c1.49.311 3.917 1.297 4.364 4.416v28.022c-.236 1.542-1.242 4.834-5.54 4.834z" fill="url(#g)" transform="matrix(.6244 0 0 -.62815 -319.81 269.576)"/><g clip-path="url(#h)" transform="matrix(.6244 0 0 -.62815 -319.81 269.576)"><path d="M547.895 408.231c0-8.024-6.504-14.528-14.528-14.528-8.023 0-14.527 6.504-14.527 14.528 0 8.023 6.504 14.528 14.527 14.528 8.024 0 14.528-6.505 14.528-14.528z" fill="none" stroke="#c4ecfb" stroke-width="2.191" stroke-linecap="round" stroke-linejoin="round" stroke-miterlimit="500"/></g><path d="M518.62 408.231c0-8.131 6.615-14.747 14.747-14.747 8.131 0 14.746 6.616 14.746 14.747 0 8.132-6.615 14.747-14.746 14.747-8.132 0-14.747-6.615-14.747-14.747" fill="url(#i)" transform="matrix(.6244 0 0 -.62815 -319.81 269.576)"/><g clip-path="url(#j)" transform="matrix(.6244 0 0 -.62815 -319.81 269.576)"><path d="M533.367 423.198c-8.253 0-14.966-6.714-14.966-14.966 0-8.253 6.713-14.966 14.966-14.966s14.966 6.713 14.966 14.966c0 8.252-6.713 14.966-14.966 14.966m0-.438c8.024 0 14.528-6.505 14.528-14.528 0-8.024-6.504-14.528-14.528-14.528-8.023 0-14.528 6.504-14.528 14.528 0 8.023 6.505 14.528 14.528 14.528" fill="#24265d"/></g><path d="M519.833 408.231c0-7.462 6.071-13.533 13.534-13.533 7.462 0 13.534 6.071 13.534 13.533 0 7.463-6.072 13.534-13.534 13.534-7.463 0-13.534-6.071-13.534-13.534" fill="url(#k)" transform="matrix(.6244 0 0 -.62815 -319.81 269.576)"/><g clip-path="url(#l)" transform="matrix(.6244 0 0 -.62815 -319.81 269.576)"><g mask="url(#m)"><path d="M529.891 420.102c-5.79-1.552-9.66-5.878-8.646-9.665 1.014-3.788 6.53-5.601 12.32-4.05 5.79 1.551 9.661 5.878 8.646 9.666-.768 2.868-4.118 4.604-8.213 4.604a15.91 15.91 0 01-4.107-.555" fill="url(#n)"/></g></g><g clip-path="url(#o)" transform="matrix(.6244 0 0 -.62815 -319.81 269.576)"><g mask="url(#p)"><path d="M533.367 395.821c-11.283 0-13.096 12.245-13.096 12.245 0-7.232 5.864-13.096 13.096-13.096s13.096 5.864 13.096 13.096c0 0-1.688-12.245-13.096-12.245" fill="url(#q)"/></g></g><g clip-path="url(#r)" transform="matrix(.6244 0 0 -.62815 -319.81 269.576)"><path d="M537.793 412.945c-.07.536.242.96.59 1.263-.277.818-.617 1.33-.921 1.29-.51-.065-.725-1.651-.48-3.542.245-1.89.857-3.37 1.367-3.303.51.066.725 1.652.48 3.543a11.53 11.53 0 01-.31 1.565 2.992 2.992 0 01-.726-.816" fill="#231f20"/><path d="M538.317 408.9c-.196-.026-.821 1.024-1.09 3.088-.266 2.063.07 3.24.267 3.264.04.005.299-.149.6-.973-.421-.413-.61-.883-.547-1.366l.095-.736.367.645c.002.003.134.234.37.481.084-.362.153-.743.204-1.14.267-2.063-.07-3.239-.266-3.264m3.597-9.149a.438.438 0 00-.438.437c0 4.47-4.481 6.054-8.32 6.054-3.818 0-7.898-1.59-7.898-6.054a.438.438 0 10-.876 0c0 3.351 2.305 6.931 8.775 6.931 4.242 0 9.195-1.815 9.195-6.93a.438.438 0 00-.438-.439" fill="#231f20"/><g clip-path="url(#s)"><g mask="url(#u)" clip-path="url(#t)" opacity=".8"><path d="M526.51 418.753c-3.123-1.414-4.834-4.375-3.82-6.615.645-1.425 2.235-2.214 4.111-2.238h.168a8.093 8.093 0 013.212.74c2.485 1.125 4.076 3.23 4.111 5.173v.131a3.297 3.297 0 01-.291 1.312c-.655 1.446-2.283 2.238-4.195 2.238-1.052 0-2.188-.24-3.296-.741" fill="url(#v)"/></g></g><path d="M529.348 412.939c.095.532.519.844.94 1.027-.017.864-.188 1.455-.49 1.508-.506.09-1.187-1.358-1.52-3.235-.334-1.877-.194-3.472.313-3.562.507-.09 1.187 1.359 1.52 3.236.1.566.158 1.105.175 1.587-.55-.196-.938-.561-.938-.561" fill="#231f20"/><path d="M528.634 408.922c-.195.035-.476 1.224-.112 3.273.364 2.048 1.037 3.069 1.233 3.034.04-.007.24-.231.281-1.108-.527-.268-.848-.66-.933-1.139l-.13-.731.544.506c.003.002.198.182.498.347-.029-.37-.078-.755-.148-1.148-.364-2.048-1.038-3.069-1.233-3.034" fill="#231f20"/></g><path d="M0 0s-5.613 0-5.613-5.613v-26.192s0-5.612 5.613-5.612h26.192s5.613 0 5.613 5.612v26.192S31.805 0 26.192 0z" fill="none" stroke="#231f20" stroke-width=".66" transform="matrix(.6244 0 0 -.62815 5.052 1.438)"/></svg>