<svg width="100" height="100" viewBox="0 0 26.458 26.458" xmlns="http://www.w3.org/2000/svg"><defs><clipPath id="U"><path d="M475.41 531.43h1.228v-.462h-1.228z"/></clipPath><clipPath id="bF"><path d="M474.75 561.57s-5.612 0-5.612-5.613v-26.195c.001-.171.087-5.609 5.612-5.609h26.192s5.613 0 5.613 5.612v26.192s0 5.613-5.613 5.613z"/></clipPath><clipPath id="N"><path d="M-32768 32767h65535v-65535h-65535z"/></clipPath><clipPath id="O"><path d="M469.13 561.57h37.417v-37.417H469.13z"/></clipPath><clipPath id="Z"><path d="M474.75 561.57s-5.612 0-5.612-5.613v-26.195c.001-.171.087-5.609 5.612-5.609h26.192s5.613 0 5.613 5.612v26.192s0 5.613-5.613 5.613z"/></clipPath><clipPath id="ab"><path d="M493.89 546.93v-9.364h4.922v10.261a170.976 170.976 0 00-4.922-.897"/></clipPath><clipPath id="ad"><path d="M502.77 548.66v-11.092h3.78v11.991c-1.219-.307-2.48-.607-3.78-.899"/></clipPath><clipPath id="E"><path d="M-32768 32767h65535v-65535h-65535z"/></clipPath><clipPath id="F"><path d="M466.23 561.34l40.093 3.128 3.128-40.093-40.092-3.128z"/></clipPath><clipPath id="af"><path d="M485.02 545.66v-8.095h4.922v8.748a207.195 207.195 0 00-4.922-.653"/></clipPath><clipPath id="ah"><path d="M476.14 544.77v-7.209h4.922v7.658c-1.599-.163-3.24-.312-4.922-.449"/></clipPath><clipPath id="bC"><path d="M483.76 540.84v-.33c.063.633 2.868.715 2.868.715-.124.003-.244.005-.359.005-1.837 0-2.509-.39-2.509-.39"/></clipPath><clipPath id="aj"><path d="M469.13 544.3v-6.737h3.048v6.92a321.596 321.596 0 00-3.048-.183"/></clipPath><clipPath id="m"><path d="M-13949 14942h28835v-28835h-28835z"/></clipPath><clipPath id="n"><path d="M485.09 542.66l1.899-1.763-1.687-1.817-1.899 1.763z"/></clipPath><clipPath id="al"><path d="M474.75 561.57s-5.612 0-5.612-5.613v-26.195c.001-.171.087-5.609 5.612-5.609h26.192s5.613 0 5.613 5.612v26.192s0 5.613-5.613 5.613z"/></clipPath><clipPath id="am"><path d="M486.05 541.44s-5.342.306-8.614-5.912c0 0-1.677.293-1.142-.687 0 0 4.296-1.344 5.61-3.129 0 0 3.916-2.357 10.73.387 0 0 1.963 3.32 4.304 3.071 0 0 .552.853-.546 1.313 0 0-2.288 4.974-9.603 4.974-.241 0-.487-.006-.739-.017"/></clipPath><clipPath id="bz"><path d="M492.59 538.46v-.682c0 .55.523 1.044.523 1.044z"/></clipPath><clipPath id="an"><path d="M474.75 561.57s-5.612 0-5.612-5.613v-26.195c.001-.171.087-5.609 5.612-5.609h26.192s5.613 0 5.613 5.612v26.192s0 5.613-5.613 5.613z"/></clipPath><clipPath id="d"><path d="M-13949 14942h28835v-28835h-28835z"/></clipPath><clipPath id="e"><path d="M492.83 539.09l.802-.744-.763-.822-.802.744z"/></clipPath><clipPath id="ao"><path d="M486.05 541.44s-5.342.306-8.614-5.912c0 0-1.677.293-1.142-.687 0 0 4.296-1.344 5.61-3.129 0 0 3.916-2.357 10.73.387 0 0 1.963 3.32 4.304 3.071 0 0 .552.853-.546 1.313 0 0-2.288 4.974-9.603 4.974-.241 0-.487-.006-.739-.017"/></clipPath><clipPath id="ap"><path d="M474.75 561.57s-5.612 0-5.612-5.613v-26.195c.001-.171.087-5.609 5.612-5.609h26.192s5.613 0 5.613 5.612v26.192s0 5.613-5.613 5.613z"/></clipPath><clipPath id="bw"><path d="M480.28 538.83c.934.739 3.028 1.887 3.049 1.898-1.721-.601-3.032-1.881-3.049-1.898"/></clipPath><clipPath id="aq"><path d="M498.42 535.14c-.541-.32-1.708-.288-1.708-.288-1.211.736-2.903.133-2.903.133-1.827-3.911 2.918-2.275 2.918-2.275.485-.997 5.226-1.271 5.226-1.271 1.085.059.852 1.004.852 1.004a2.221 2.221 0 011.044.858c-.024.689-1.151 1.42-1.151 1.42-1.141.722-2.045.941-2.724.941-1.047 0-1.554-.522-1.554-.522"/></clipPath><clipPath id="a"><path d="M-13949 14942h28835v-28835h-28835z"/></clipPath><clipPath id="b"><path d="M481.69 542.25l2.584-2.399-2.357-2.54-2.584 2.399z"/></clipPath><clipPath id="as"><path d="M474.75 561.57s-5.612 0-5.612-5.613v-26.195c.001-.171.087-5.609 5.612-5.609h26.192s5.613 0 5.613 5.612v26.192s0 5.613-5.613 5.613z"/></clipPath><clipPath id="h"><path d="M498.8 539.5l5.087-5.087-5.087-5.087-5.087 5.087z"/></clipPath><clipPath id="bt"><path d="M477.58 535.2c-1.513.33-1.037-.216-1.037-.216-.13.444 1.223 0 1.223 0-.197.472 1.94 3.24 1.94 3.24-.733-.576-2.126-3.024-2.126-3.024"/></clipPath><clipPath id="g"><path d="M-32768 32767h65535v-65535h-65535z"/></clipPath><clipPath id="y"><path d="M-13949 14942h28835v-28835h-28835z"/></clipPath><clipPath id="z"><path d="M477.75 540.04l3.57-3.314-3.3-3.555-3.571 3.314z"/></clipPath><clipPath id="at"><path d="M498.52 534.84c-.276-.254-1.907-.319-1.907-.319-.183.18-.696.319-.696.319a2.874 2.874 0 00-1.23.549l1.051-1.377c.784-.583 2.782.509 2.782.509.404.511 1.485.573 1.485.573.751.037.036-.476.036-.476 1.376.421 2.236-.276 2.236-.276-.292.569-1.686.637-1.686.637.586.216 2.311-.711 2.311-.711-1.274.864-2.236 1.121-2.929 1.121-1.014 0-1.453-.549-1.453-.549"/></clipPath><clipPath id="aw"><path d="M480.34 531.39s1.571-1.019 2.861-.754c0 0 1.116-.743 2.593-.292 0 0 1.06-.898 2.582-.016 0 0 .856-.605 2.241.195 0 0 .993-.247 1.868.468 0 0 1.03.057 1.746.916 0 0-.423 2.437-2.246 2.183-1.824-.253-10.011.43-10.011.43s-3.713-.957-1.634-3.13"/></clipPath><clipPath id="bp"><path d="M480.68 534.29l.164.094s-.065-.033-.164-.094m-.979-.564v-.612a.369.369 0 010-.047v.047c.019.525.666.985.979 1.176z"/></clipPath><clipPath id="ay"><path d="M474.75 561.57s-5.612 0-5.612-5.613v-26.195c.001-.171.087-5.609 5.612-5.609h26.192s5.613 0 5.613 5.612v26.192s0 5.613-5.613 5.613z"/></clipPath><clipPath id="j"><path d="M-13949 14942h28835v-28835h-28835z"/></clipPath><clipPath id="k"><path d="M479.7 534.38h1.144v-1.318H479.7z"/></clipPath><clipPath id="az"><path d="M476.75 534.38c-2.135-1.847-4.513-.812-3.393-1.578 1.118-.764 3.888-.546 3.888-.546.914-.019 1.354.643 1.409 1.305.054.652-.267 1.305-.877 1.305-.283 0-.628-.141-1.027-.486"/></clipPath><clipPath id="aB"><path d="M474.75 561.57s-5.612 0-5.612-5.613v-26.195c.001-.171.087-5.609 5.612-5.609h26.192s5.613 0 5.613 5.612v26.192s0 5.613-5.613 5.613z"/></clipPath><clipPath id="bm"><path d="M492.05 534.61l.368.233s-.147-.088-.368-.233m-2.125-1.351v-.637c.019.546 1.437 1.538 2.125 1.988z"/></clipPath><clipPath id="aC"><path d="M478.66 533.94c-.28-1.427-1.189-1.627-1.189-1.627-.607.643-1.634-.853-1.634-.853-2.53-1.504-.773-1.902-.773-1.902 1.835-.348 3.588.133 3.588.133 2.716.851 2.395 2.755 2.395 2.755-.217 1.579-.769 1.993-1.288 1.993-.57 0-1.099-.499-1.099-.499"/></clipPath><clipPath id="p"><path d="M-13949 14942h28835v-28835h-28835z"/></clipPath><clipPath id="q"><path d="M489.92 534.84h2.493v-2.244h-2.493z"/></clipPath><clipPath id="aE"><path d="M474.75 561.57s-5.612 0-5.612-5.613v-26.195c.001-.171.087-5.609 5.612-5.609h26.192s5.613 0 5.613 5.612v26.192s0 5.613-5.613 5.613z"/></clipPath><clipPath id="aF"><path d="M495.23 534.94c-1.047-.42-4.037-1.684-2.495-3.118 1.457-1.354 1.933-1.657 3.139-1.798 0 0 1.771.365 2.333-.393 0 0 .484-.562.967.393 0 0 .08 2.388-2.093 2.303 0 0-.703 2.653-1.65 2.653a.541.541 0 01-.201-.04"/></clipPath><clipPath id="bj"><path d="M489.09 539.58l.367.234s-.146-.089-.367-.234m-2.126-1.35v-.639c.019.547 1.438 1.539 2.126 1.989z"/></clipPath><clipPath id="aH"><path d="M474.75 561.57s-5.612 0-5.612-5.613v-26.195c.001-.171.087-5.609 5.612-5.609h26.192s5.613 0 5.613 5.612v26.192s0 5.613-5.613 5.613z"/></clipPath><clipPath id="s"><path d="M-13949 14942h28835v-28835h-28835z"/></clipPath><clipPath id="t"><path d="M486.96 539.82h2.493v-2.244h-2.493z"/></clipPath><clipPath id="aI"><path d="M475.84 531.46l.777.018s-.123.127-.346.127a.796.796 0 01-.431-.145"/></clipPath><clipPath id="aK"><path d="M474.75 561.57s-5.612 0-5.612-5.613v-26.195c.001-.171.087-5.609 5.612-5.609h26.192s5.613 0 5.613 5.612v26.192s0 5.613-5.613 5.613z"/></clipPath><clipPath id="bg"><path d="M483.18 539.36l.367.233s-.146-.089-.367-.233m-2.126-1.351v-.638c.018.546 1.437 1.539 2.126 1.989z"/></clipPath><clipPath id="X"><path d="M475.97 536.4l2.717-2.716-2.717-2.716-2.716 2.716z"/></clipPath><clipPath id="v"><path d="M-13949 14942h28835v-28835h-28835z"/></clipPath><clipPath id="w"><path d="M481.06 539.59h2.493v-2.244h-2.493z"/></clipPath><clipPath id="W"><path d="M-13949 14942h28835v-28835h-28835z"/></clipPath><clipPath id="aL"><path d="M474.01 532.93c3.3.037 3.924 1.172 3.924 1.172l-.696.337c-1.175-1.315-3.228-1.509-3.228-1.509"/></clipPath><clipPath id="bd"><path d="M486.27 534.48l.366.232s-.146-.088-.366-.232m-2.127-1.352v-.638a.074.074 0 010-.021v.021c.018.548 1.437 1.539 2.127 1.99z"/></clipPath><clipPath id="aO"><path d="M486.04 541.44s-5.341.301-8.608-5.922c0 0-1.677.292-1.142-.687 0 0 4.299-1.34 5.614-3.124 0 0 3.918-2.353 10.73.4 0 0 1.959 3.321 4.3 3.074 0 0 .552.853-.548 1.312 0 0-2.29 4.963-9.59 4.964-.246 0-.498-.006-.756-.017"/></clipPath><clipPath id="B"><path d="M-13949 14942h28835v-28835h-28835z"/></clipPath><clipPath id="C"><path d="M484.14 534.71h2.493v-2.244h-2.493z"/></clipPath><clipPath id="aQ"><path d="M474.75 561.57s-5.612 0-5.612-5.613v-26.195c.001-.171.087-5.609 5.612-5.609h26.192s5.613 0 5.613 5.612v26.192s0 5.613-5.613 5.613z"/></clipPath><clipPath id="L"><path d="M478.16 535.16l2.55-2.549-2.55-2.55-2.549 2.55z"/></clipPath><clipPath id="ba"><path d="M492.84 532.22s1.822-1.859 3.038-1.859c.183 0 1.74.295 2.566-.604-.009.019-.381.807-1.558.861 0 0-1.193-.085-2.072.58 0 0-1.525 1.223-1.465 1.733z"/></clipPath><clipPath id="K"><path d="M-13949 14942h28835v-28835h-28835z"/></clipPath><clipPath id="H"><path d="M-13949 14942h28835v-28835h-28835z"/></clipPath><clipPath id="I"><path d="M495.65 535.74l4.389-4.389-4.389-4.389-4.389 4.389z"/></clipPath><clipPath id="aR"><path d="M477.16 531.94c-.22.507-.551 0-.551 0 .508.351.374-.331.374-.331 2.06.473 2.716 1.671 2.716 1.671l-.671.338c-.209-1.408-1.868-1.678-1.868-1.678"/></clipPath><clipPath id="bs"><path d="M486.05 541.44s-5.342.306-8.614-5.912c0 0-1.677.293-1.142-.687 0 0 4.296-1.344 5.61-3.129 0 0 3.916-2.357 10.73.387 0 0 1.963 3.32 4.304 3.071 0 0 .552.853-.546 1.313 0 0-2.288 4.974-9.603 4.974-.241 0-.487-.006-.739-.017"/></clipPath><clipPath id="aX"><path d="M474.77 530.38a.824.824 0 01-.137-.2c.322.32.529.15.529.15.329-.236.292.085.292.085-.112.122-.22.168-.319.168-.148 0-.275-.101-.365-.203"/></clipPath><clipPath id="T"><path d="M-13949 14942h28835v-28835h-28835z"/></clipPath><clipPath id="Q"><path d="M-32768 32767h65535v-65535h-65535z"/></clipPath><clipPath id="R"><path d="M475.06 531.01l.676-.676-.676-.677-.677.677z"/></clipPath><clipPath id="aU"><path d="M475.72 531.2a2.128 2.128 0 01-.296-.226c.621.443.848.226.848.226.367-.103.254.104.254.104a.27.27 0 01-.241.123c-.176 0-.393-.114-.565-.227"/></clipPath><linearGradient id="S" x2="1" gradientTransform="scale(.53925 -.53925) rotate(45 1627.747 571.13)" gradientUnits="userSpaceOnUse"><stop stop-color="#fff" stop-opacity="0" offset="0"/><stop stop-color="#fff" offset="1"/></linearGradient><linearGradient id="l" x2="1" gradientTransform="matrix(1.1434 0 0 -1.1434 479.7 533.72)" gradientUnits="userSpaceOnUse"><stop stop-color="#fff" stop-opacity="0" offset="0"/><stop stop-color="#fff" offset="1"/></linearGradient><linearGradient id="aa" x2="1" gradientTransform="matrix(0 37.417 37.417 0 487.84 524.15)" gradientUnits="userSpaceOnUse"><stop stop-color="#002844" offset="0"/><stop stop-color="#231f20" offset="1"/></linearGradient><linearGradient id="P" x2="1" gradientTransform="matrix(8.0931 0 0 -8.0931 475.4 540.46)" gradientUnits="userSpaceOnUse"><stop stop-color="#fff" offset="0"/><stop stop-color="#fff" stop-opacity="0" offset="1"/></linearGradient><linearGradient id="ac" x2="1" gradientTransform="matrix(72.952 0 0 -72.952 467.44 542.69)" gradientUnits="userSpaceOnUse"><stop stop-color="#00adef" offset="0"/><stop stop-color="#ed1c24" offset="1"/></linearGradient><linearGradient id="V" x2="1" gradientTransform="matrix(1.1202 0 0 -1.1202 475.42 531.2)" gradientUnits="userSpaceOnUse"><stop stop-color="#fff" stop-opacity="0" offset="0"/><stop stop-color="#fff" offset="1"/></linearGradient><linearGradient id="aW" x2="1" gradientTransform="matrix(1.1202 0 0 -1.1202 475.42 531.2)" gradientUnits="userSpaceOnUse"><stop stop-color="#80cc28" offset="0"/><stop stop-color="#80cc28" offset="1"/></linearGradient><linearGradient id="J" x2="1" gradientTransform="scale(5.8468 -5.8468) rotate(45 152.275 56.305)" gradientUnits="userSpaceOnUse"><stop stop-color="#fff" offset="0"/><stop stop-color="#fff" stop-opacity="0" offset="1"/></linearGradient><linearGradient id="bH" x2="1" gradientTransform="translate(475.4 139.85) scale(8.0931)" gradientUnits="userSpaceOnUse"><stop stop-color="#fff" offset="0"/><stop stop-color="#fff" offset="1"/></linearGradient><linearGradient id="ae" x2="1" gradientTransform="matrix(72.936 0 0 -72.936 467.44 543.65)" gradientUnits="userSpaceOnUse"><stop stop-color="#00adef" offset="0"/><stop stop-color="#ed1c24" offset="1"/></linearGradient><linearGradient id="bf" x2="1" gradientTransform="matrix(2.4932 0 0 -2.4932 484.14 533.59)" gradientUnits="userSpaceOnUse"><stop stop-color="#cce310" offset="0"/><stop stop-color="#cce310" offset="1"/></linearGradient><linearGradient id="M" x2="1" gradientTransform="scale(1.31397 -1.31397) rotate(45 671.486 236.015)" gradientUnits="userSpaceOnUse"><stop stop-color="#fff" offset="0"/><stop stop-color="#fff" stop-opacity="0" offset="1"/></linearGradient><linearGradient id="aT" x2="1" gradientTransform="scale(1.31397 -1.31397) rotate(45 671.486 236.015)" gradientUnits="userSpaceOnUse"><stop stop-color="#80cc28" offset="0"/><stop stop-color="#80cc28" offset="1"/></linearGradient><linearGradient id="D" x2="1" gradientTransform="matrix(2.4932 0 0 -2.4932 484.14 533.59)" gradientUnits="userSpaceOnUse"><stop stop-color="#fff" stop-opacity="0" offset="0"/><stop stop-color="#fff" offset="1"/></linearGradient><linearGradient id="ag" x2="1" gradientTransform="matrix(72.955 0 0 -72.955 467.44 541.94)" gradientUnits="userSpaceOnUse"><stop stop-color="#00adef" offset="0"/><stop stop-color="#ed1c24" offset="1"/></linearGradient><linearGradient id="aP" x2="1" gradientTransform="scale(15.281 -15.281) rotate(42.873 60.805 22.41)" gradientUnits="userSpaceOnUse"><stop stop-color="#80cc28" offset="0"/><stop stop-color="#2ba543" offset="1"/></linearGradient><linearGradient id="bi" x2="1" gradientTransform="matrix(2.4932 0 0 -2.4932 481.06 538.47)" gradientUnits="userSpaceOnUse"><stop stop-color="#cce310" offset="0"/><stop stop-color="#cce310" offset="1"/></linearGradient><linearGradient id="G" x2="1" gradientTransform="matrix(5.4076 .42198 .42198 -5.4076 473.77 541.95)" gradientUnits="userSpaceOnUse"><stop stop-color="#fff" offset="0"/><stop stop-color="#fff" stop-opacity="0" offset="1"/></linearGradient><linearGradient id="x" x2="1" gradientTransform="matrix(2.4932 0 0 -2.4932 481.06 538.47)" gradientUnits="userSpaceOnUse"><stop stop-color="#fff" stop-opacity="0" offset="0"/><stop stop-color="#fff" offset="1"/></linearGradient><linearGradient id="ai" x2="1" gradientTransform="matrix(72.952 0 0 -72.952 467.44 541.39)" gradientUnits="userSpaceOnUse"><stop stop-color="#00adef" offset="0"/><stop stop-color="#ed1c24" offset="1"/></linearGradient><linearGradient id="Y" x2="1" gradientTransform="scale(1.9662 -1.9662) rotate(45 448.834 155.941)" gradientUnits="userSpaceOnUse"><stop stop-color="#fff" offset="0"/><stop stop-color="#fff" stop-opacity="0" offset="1"/></linearGradient><linearGradient id="aN" x2="1" gradientTransform="scale(1.9662 -1.9662) rotate(45 448.834 155.941)" gradientUnits="userSpaceOnUse"><stop stop-color="#80cc28" offset="0"/><stop stop-color="#80cc28" offset="1"/></linearGradient><linearGradient id="bl" x2="1" gradientTransform="matrix(0 2.2438 2.2438 0 488.21 537.57)" gradientUnits="userSpaceOnUse"><stop stop-color="#cce310" offset="0"/><stop stop-color="#cce310" offset="1"/></linearGradient><linearGradient id="u" x2="1" gradientTransform="matrix(0 2.2438 2.2438 0 488.21 537.57)" gradientUnits="userSpaceOnUse"><stop stop-color="#fff" stop-opacity="0" offset="0"/><stop stop-color="#fff" offset="1"/></linearGradient><linearGradient id="aJ" x2="1" gradientTransform="matrix(.77718 .02885 .02885 -.77718 475.83 531.52)" gradientUnits="userSpaceOnUse"><stop stop-color="#80cc28" offset="0"/><stop stop-color="#2ba543" offset="1"/></linearGradient><linearGradient id="bJ" x2="1" gradientTransform="rotate(-4.462 2012.651 -6011.455) scale(5.42404)" gradientUnits="userSpaceOnUse"><stop stop-color="#fff" offset="0"/><stop stop-color="#fff" offset="1"/></linearGradient><linearGradient id="bo" x2="1" gradientTransform="matrix(2.493 0 0 -2.493 489.92 533.72)" gradientUnits="userSpaceOnUse"><stop stop-color="#cce310" offset="0"/><stop stop-color="#cce310" offset="1"/></linearGradient><linearGradient id="aG" x2="1" gradientTransform="matrix(0 5.5133 5.5133 0 495.74 529.47)" gradientUnits="userSpaceOnUse"><stop stop-color="#2ba543" offset="0"/><stop stop-color="#80cc28" offset="1"/></linearGradient><linearGradient id="r" x2="1" gradientTransform="matrix(2.493 0 0 -2.493 489.92 533.72)" gradientUnits="userSpaceOnUse"><stop stop-color="#fff" stop-opacity="0" offset="0"/><stop stop-color="#fff" offset="1"/></linearGradient><linearGradient id="ak" x2="1" gradientTransform="matrix(72.948 0 0 -72.948 467.44 541.02)" gradientUnits="userSpaceOnUse"><stop stop-color="#00adef" offset="0"/><stop stop-color="#ed1c24" offset="1"/></linearGradient><linearGradient id="aD" x2="1" gradientTransform="matrix(6.6606 .24728 .24728 -6.6606 474.41 531.8)" gradientUnits="userSpaceOnUse"><stop stop-color="#80cc28" offset="0"/><stop stop-color="#2ba543" offset="1"/></linearGradient><linearGradient id="br" x2="1" gradientTransform="matrix(1.1434 0 0 -1.1434 479.7 533.72)" gradientUnits="userSpaceOnUse"><stop stop-color="#cce310" offset="0"/><stop stop-color="#cce310" offset="1"/></linearGradient><linearGradient id="aZ" x2="1" gradientTransform="scale(.53925 -.53925) rotate(45 1627.747 571.13)" gradientUnits="userSpaceOnUse"><stop stop-color="#80cc28" offset="0"/><stop stop-color="#80cc28" offset="1"/></linearGradient><linearGradient id="aA" x2="1" gradientTransform="matrix(-.56689 2.4321 2.4321 .56689 476.22 531.96)" gradientUnits="userSpaceOnUse"><stop stop-color="#2ba543" offset="0"/><stop stop-color="#80cc28" offset="1"/></linearGradient><linearGradient id="o" x2="1" gradientTransform="scale(1.8395 -1.8395) rotate(42.872 506.612 188.181)" gradientUnits="userSpaceOnUse"><stop stop-color="#fff" stop-opacity="0" offset="0"/><stop stop-color="#fff" offset="1"/></linearGradient><linearGradient id="bv" x2="1" gradientTransform="matrix(.79954 -.74226 -.74226 -.79954 477.94 536.77)" gradientUnits="userSpaceOnUse"><stop stop-color="#cce310" offset="0"/><stop stop-color="#cce310" offset="1"/></linearGradient><linearGradient id="ax" x2="1" gradientTransform="matrix(14.477 .53746 .53746 -14.477 479.72 532.06)" gradientUnits="userSpaceOnUse"><stop stop-color="#2ba543" offset="0"/><stop stop-color="#80cc28" offset="1"/></linearGradient><linearGradient id="A" x2="1" gradientTransform="matrix(.79954 -.74226 -.74226 -.79954 477.94 536.77)" gradientUnits="userSpaceOnUse"><stop stop-color="#fff" offset="0"/><stop stop-color="#fff" stop-opacity="0" offset="1"/></linearGradient><linearGradient id="bE" x2="1" gradientTransform="scale(1.8395 -1.8395) rotate(42.872 506.612 188.181)" gradientUnits="userSpaceOnUse"><stop stop-color="#cce310" offset="0"/><stop stop-color="#cce310" offset="1"/></linearGradient><linearGradient id="f" x2="1" gradientTransform="matrix(.34041 -.31602 -.31602 -.34041 492.63 538.51)" gradientUnits="userSpaceOnUse"><stop stop-color="#fff" stop-opacity="0" offset="0"/><stop stop-color="#fff" offset="1"/></linearGradient><linearGradient id="by" x2="1" gradientTransform="scale(.9436 -.9436) rotate(42.872 984.04 363.575)" gradientUnits="userSpaceOnUse"><stop stop-color="#cce310" offset="0"/><stop stop-color="#cce310" offset="1"/></linearGradient><linearGradient id="i" x2="1" gradientTransform="scale(6.6 -6.6) rotate(45 135.834 50.098)" gradientUnits="userSpaceOnUse"><stop stop-color="#fff" stop-opacity="0" offset="0"/><stop stop-color="#fff" offset="1"/></linearGradient><linearGradient id="av" x2="1" gradientTransform="scale(6.6 -6.6) rotate(45 135.834 50.098)" gradientUnits="userSpaceOnUse"><stop stop-color="#80cc28" offset="0"/><stop stop-color="#80cc28" offset="1"/></linearGradient><linearGradient id="c" x2="1" gradientTransform="scale(.9436 -.9436) rotate(42.872 984.04 363.575)" gradientUnits="userSpaceOnUse"><stop stop-color="#fff" stop-opacity="0" offset="0"/><stop stop-color="#fff" offset="1"/></linearGradient><linearGradient id="bB" x2="1" gradientTransform="matrix(.34041 -.31602 -.31602 -.34041 492.63 538.51)" gradientUnits="userSpaceOnUse"><stop stop-color="#cce310" offset="0"/><stop stop-color="#cce310" offset="1"/></linearGradient><linearGradient id="ar" x2="1" gradientTransform="matrix(-.754 4.7805 4.7805 .754 499 530.96)" gradientUnits="userSpaceOnUse"><stop stop-color="#2ba543" offset="0"/><stop stop-color="#80cc28" offset="1"/></linearGradient><linearGradient id="bc" x2="1" gradientTransform="scale(5.8468 -5.8468) rotate(45 152.275 56.305)" gradientUnits="userSpaceOnUse"><stop stop-color="#80cc28" offset="0"/><stop stop-color="#80cc28" offset="1"/></linearGradient><mask id="bu" x="0" y="0" width="1" height="1" maskUnits="userSpaceOnUse"><g clip-path="url(#y)"><g clip-path="url(#z)"><path d="M477.75 540.04l3.57-3.314-3.3-3.555-3.571 3.314z" fill="url(#A)"/></g></g></mask><mask id="bx" x="0" y="0" width="1" height="1" maskUnits="userSpaceOnUse"><g clip-path="url(#a)"><g clip-path="url(#b)"><path d="M481.69 542.25l2.584-2.399-2.357-2.54-2.584 2.399z" fill="url(#c)"/></g></g></mask><mask id="au" x="0" y="0" width="1" height="1" maskUnits="userSpaceOnUse"><g clip-path="url(#g)"><g clip-path="url(#h)"><path d="M498.8 539.5l5.087-5.087-5.087-5.087-5.087 5.087z" fill="url(#i)"/></g></g></mask><mask id="bq" x="0" y="0" width="1" height="1" maskUnits="userSpaceOnUse"><g clip-path="url(#j)"><g clip-path="url(#k)"><path d="M479.7 534.38h1.144v-1.318H479.7z" fill="url(#l)"/></g></g></mask><mask id="bD" x="0" y="0" width="1" height="1" maskUnits="userSpaceOnUse"><g clip-path="url(#m)"><g clip-path="url(#n)"><path d="M485.09 542.66l1.899-1.763-1.687-1.817-1.899 1.763z" fill="url(#o)"/></g></g></mask><mask id="bn" x="0" y="0" width="1" height="1" maskUnits="userSpaceOnUse"><g clip-path="url(#p)"><g clip-path="url(#q)"><path d="M489.92 534.84h2.493v-2.244h-2.493z" fill="url(#r)"/></g></g></mask><mask id="bk" x="0" y="0" width="1" height="1" maskUnits="userSpaceOnUse"><g clip-path="url(#s)"><g clip-path="url(#t)"><path d="M486.96 539.82h2.493v-2.244h-2.493z" fill="url(#u)"/></g></g></mask><mask id="bh" x="0" y="0" width="1" height="1" maskUnits="userSpaceOnUse"><g clip-path="url(#v)"><g clip-path="url(#w)"><path d="M481.06 539.59h2.493v-2.244h-2.493z" fill="url(#x)"/></g></g></mask><mask id="bA" x="0" y="0" width="1" height="1" maskUnits="userSpaceOnUse"><g clip-path="url(#d)"><g clip-path="url(#e)"><path d="M492.83 539.09l.802-.744-.763-.822-.802.744z" fill="url(#f)"/></g></g></mask><mask id="be" x="0" y="0" width="1" height="1" maskUnits="userSpaceOnUse"><g clip-path="url(#B)"><g clip-path="url(#C)"><path d="M484.14 534.71h2.493v-2.244h-2.493z" fill="url(#D)"/></g></g></mask><mask id="bI" x="0" y="0" width="1" height="1" maskUnits="userSpaceOnUse"><g clip-path="url(#E)"><g clip-path="url(#F)"><path d="M466.23 561.34l40.093 3.128 3.128-40.093-40.092-3.128z" fill="url(#G)"/></g></g></mask><mask id="bb" x="0" y="0" width="1" height="1" maskUnits="userSpaceOnUse"><g clip-path="url(#H)"><g clip-path="url(#I)"><path d="M495.65 535.74l4.389-4.389-4.389-4.389-4.389 4.389z" fill="url(#J)"/></g></g></mask><mask id="aS" x="0" y="0" width="1" height="1" maskUnits="userSpaceOnUse"><g clip-path="url(#K)"><g clip-path="url(#L)"><path d="M478.16 535.16l2.55-2.549-2.55-2.55-2.549 2.55z" fill="url(#M)"/></g></g></mask><mask id="bG" x="0" y="0" width="1" height="1" maskUnits="userSpaceOnUse"><g clip-path="url(#N)"><g clip-path="url(#O)"><path d="M469.13 561.57h37.417v-37.417H469.13z" fill="url(#P)"/></g></g></mask><mask id="aY" x="0" y="0" width="1" height="1" maskUnits="userSpaceOnUse"><g clip-path="url(#Q)"><g clip-path="url(#R)"><path d="M475.06 531.01l.676-.676-.676-.677-.677.677z" fill="url(#S)"/></g></g></mask><mask id="aV" x="0" y="0" width="1" height="1" maskUnits="userSpaceOnUse"><g clip-path="url(#T)"><g clip-path="url(#U)"><path d="M475.41 531.43h1.228v-.462h-1.228z" fill="url(#V)"/></g></g></mask><mask id="aM" x="0" y="0" width="1" height="1" maskUnits="userSpaceOnUse"><g clip-path="url(#W)"><g clip-path="url(#X)"><path d="M475.97 536.4l2.717-2.716-2.717-2.716-2.716 2.716z" fill="url(#Y)"/></g></g></mask></defs><g transform="matrix(.62442 0 0 -.62816 -291.4 354.194)" clip-path="url(#Z)"><path d="M474.75 561.57s-5.612 0-5.612-5.613v-26.195c.001-.171.087-5.609 5.612-5.609h26.192s5.613 0 5.613 5.612v26.192s0 5.613-5.613 5.613z" fill="url(#aa)"/></g><g transform="matrix(.62442 0 0 -.62816 -291.4 354.194)" clip-path="url(#ab)"><path d="M493.89 546.93v-9.364h4.922v10.261a170.976 170.976 0 00-4.922-.897" fill="url(#ac)"/></g><g transform="matrix(.62442 0 0 -.62816 -291.4 354.194)" clip-path="url(#ad)"><path d="M502.77 548.66v-11.092h3.78v11.991c-1.219-.307-2.48-.607-3.78-.899" fill="url(#ae)"/></g><g transform="matrix(.62442 0 0 -.62816 -291.4 354.194)" clip-path="url(#af)"><path d="M485.02 545.66v-8.095h4.922v8.748a207.195 207.195 0 00-4.922-.653" fill="url(#ag)"/></g><g transform="matrix(.62442 0 0 -.62816 -291.4 354.194)" clip-path="url(#ah)"><path d="M476.14 544.77v-7.209h4.922v7.658c-1.599-.163-3.24-.312-4.922-.449" fill="url(#ai)"/></g><g transform="matrix(.62442 0 0 -.62816 -291.4 354.194)" clip-path="url(#aj)"><path d="M469.13 544.3v-6.737h3.048v6.92a321.596 321.596 0 00-3.048-.183" fill="url(#ak)"/></g><g transform="matrix(.62442 0 0 -.62816 -291.4 354.194)" clip-path="url(#al)" fill="none" stroke="#fff" stroke-width="2.2"><path d="M493.81 534.98s1.691.602 2.903-.134c0 0 1.167-.031 1.708.289 0 0 1.377 1.418 4.278-.419 0 0 1.127-.731 1.151-1.42 0 0-.33-.577-1.044-.857 0 0 .233-.946-.853-1.005 0 0-4.74.274-5.224 1.271 0 0-4.745-1.636-2.919 2.275z"/><path d="M501.09 534.49s1.268-.011 1.056-.56c0 0-.24-.338-.515-.153 0 0-.228.167.092.329 0 0-.184.252-.633.384z"/><path d="M495.92 534.84s.513-.139.696-.319c0 0 1.632.066 1.907.319 0 0 1.247 1.555 4.382-.572 0 0-1.724.926-2.31.711 0 0 1.393-.069 1.686-.637 0 0-.861.696-2.236.275 0 0 .715.513-.037.476 0 0-1.081-.062-1.485-.572 0 0-1.997-1.092-2.782-.509l-1.05 1.376s.495-.416 1.229-.548zm-15.58-3.45s1.569-1.019 2.86-.755c0 0 1.116-.743 2.593-.292 0 0 1.06-.897 2.583-.015 0 0 .855-.606 2.241.195 0 0 .993-.248 1.866.468 0 0 1.03.056 1.748.915 0 0-.424 2.437-2.247 2.184s-10.011.43-10.011.43-3.713-.958-1.633-3.13zm-3.1.86s-2.77-.218-3.888.547c-1.119.765 1.259-.27 3.393 1.577 2.133 1.848 2.728-2.17.495-2.124z"/><path d="M481.05 532.45s.321-1.903-2.396-2.754c0 0-1.752-.482-3.587-.134 0 0-1.757.398.773 1.903 0 0 1.026 1.495 1.633.852 0 0 .91.201 1.19 1.627 0 0 1.931 1.82 2.387-1.494zm11.69-.63c1.458-1.355 1.932-1.658 3.139-1.798 0 0 1.77.364 2.334-.394 0 0 .482-.561.966.394 0 0 .08 2.388-2.093 2.303 0 0-.804 3.034-1.851 2.612-1.047-.42-4.038-1.684-2.495-3.117zm6.05-2.28s-.178.887-.875 1.166m1.185.004s-.303.605-.963.516m-23.447-.636s.583.371.816.03m1.104.86s-.289.297-.778-.017m-1.822 1.467s2.053.194 3.227 1.509l.696-.337s-.623-1.135-3.923-1.172z"/><path d="M476.29 534.83s4.298-1.34 5.613-3.124c0 0 3.919-2.352 10.73.4 0 0 1.959 3.321 4.3 3.075 0 0 .552.852-.548 1.311 0 0-2.446 5.304-10.346 4.947 0 0-5.341.302-8.609-5.921 0 0-1.676.292-1.14-.688z"/><path d="M476.61 531.94s.33.509.55 0c0 0 1.659.27 1.869 1.679l.67-.338s-.655-1.199-2.715-1.671c0 0 .133.682-.374.33zm-1.19-.96c-.03-.022.83.744 1.103.33 0 0 .113-.207-.254-.103 0 0-.227.216-.849-.227zm-.78-.8c-.02-.02.368.726.82.236 0 0 .038-.321-.292-.085 0 0-.207.17-.528-.151zm18.21 2.05s1.822-1.859 3.037-1.859c.183 0 1.741.294 2.566-.605 0 0-.366.807-1.558.862 0 0-1.192-.085-2.072.581 0 0-1.524 1.222-1.464 1.732zm-8.71.24v.66l2.493 1.584s-2.519-1.531-2.493-2.244zm-3.08 4.87v.66l2.493 1.584s-2.519-1.531-2.493-2.244zm5.91.23v.66l2.493 1.584s-2.519-1.531-2.493-2.244zm2.95-4.97v.66l2.493 1.584s-2.52-1.531-2.493-2.244z"/><path d="M479.7 533.06v.66l1.143.658s-1.17-.605-1.143-1.318z"/></g><g transform="matrix(.62442 0 0 -.62816 -291.4 354.194)" clip-path="url(#am)" fill="none" stroke="#fff" stroke-width="2.2"><path d="M483.45 543.29l2.837 1.778 2.957-1.568.121-3.346-2.836-1.778-2.958 1.569z"/><path d="M486.52 538.38l2.837 1.778 2.957-1.569.121-3.345-2.835-1.778-2.959 1.569zm5.8.2l2.838 1.778 2.957-1.568.121-3.346-2.836-1.778-2.959 1.569z"/><path d="M480.73 538.17l2.838 1.778 2.957-1.569.12-3.345-2.835-1.778-2.959 1.568z"/><path d="M477.65 543.08l2.838 1.778 2.957-1.569.12-3.345-2.836-1.778-2.959 1.568z"/><path d="M474.94 537.96l2.837 1.778 2.957-1.569.121-3.345-2.836-1.779-2.959 1.569zm8.87-4.71l2.837 1.778 2.957-1.569.121-3.345-2.836-1.778-2.958 1.569z"/><path d="M489.6 533.46l2.838 1.778 2.957-1.569.121-3.345-2.837-1.778-2.958 1.569zm-17.38-.63l2.838 1.778 2.957-1.569.121-3.344-2.836-1.779-2.959 1.569zm23.18.84l2.838 1.779 2.957-1.57.121-3.344-2.836-1.779-2.959 1.569zm-6.16 9.83l2.838 1.778 2.957-1.569.121-3.345-2.836-1.778-2.959 1.568z"/><path d="M478.01 533.04l2.837 1.779 2.957-1.569.121-3.345-2.836-1.779-2.958 1.569z"/></g><g transform="matrix(.62442 0 0 -.62816 -291.4 354.194)" clip-path="url(#an)" fill="none"><path d="M476.54 534.98s-.476.546 1.037.216c0 0 1.393 2.447 2.126 3.025 0 0-2.137-2.769-1.939-3.241 0 0-1.353.444-1.224 0zm3.73 3.85s1.316 1.293 3.049 1.897c0 0-2.11-1.155-3.049-1.897zm12.32-1.05v.683l.522.362s-.522-.495-.522-1.045zm-8.83 2.73v.33s.758.44 2.868.385c0 0-2.806-.083-2.868-.715z" stroke="#fff" stroke-width="2.2"/><path d="M493.81 534.98s1.691.602 2.903-.134c0 0 1.167-.031 1.708.289 0 0 1.377 1.418 4.278-.419 0 0 1.127-.731 1.151-1.42 0 0-.33-.577-1.044-.857 0 0 .233-.946-.853-1.005 0 0-4.74.274-5.224 1.271 0 0-4.745-1.636-2.919 2.275z" stroke="#1d6434" stroke-width=".88"/><path d="M501.09 534.49s1.268-.011 1.056-.56c0 0-.24-.338-.515-.153 0 0-.228.167.092.329 0 0-.184.252-.633.384z" stroke="#1d6434" stroke-width=".88"/><path d="M495.92 534.84s.513-.139.696-.319c0 0 1.632.066 1.907.319 0 0 1.247 1.555 4.382-.572 0 0-1.724.926-2.31.711 0 0 1.393-.069 1.686-.637 0 0-.861.696-2.236.275 0 0 .715.513-.037.476 0 0-1.081-.062-1.485-.572 0 0-1.997-1.092-2.782-.509l-1.05 1.376s.495-.416 1.229-.548zm-15.58-3.45s1.569-1.019 2.86-.755c0 0 1.116-.743 2.593-.292 0 0 1.06-.897 2.583-.015 0 0 .855-.606 2.241.195 0 0 .993-.248 1.866.468 0 0 1.03.056 1.748.915 0 0-.424 2.437-2.247 2.184s-10.011.43-10.011.43-3.713-.958-1.633-3.13zm-3.1.86s-2.77-.218-3.888.547c-1.119.765 1.259-.27 3.393 1.577 2.133 1.848 2.728-2.17.495-2.124z" stroke="#1d6434" stroke-width=".88"/><path d="M481.05 532.45s.321-1.903-2.396-2.754c0 0-1.752-.482-3.587-.134 0 0-1.757.398.773 1.903 0 0 1.026 1.495 1.633.852 0 0 .91.201 1.19 1.627 0 0 1.931 1.82 2.387-1.494zm11.69-.63c1.458-1.355 1.932-1.658 3.139-1.798 0 0 1.77.364 2.334-.394 0 0 .482-.561.966.394 0 0 .08 2.388-2.093 2.303 0 0-.804 3.034-1.851 2.612-1.047-.42-4.038-1.684-2.495-3.117zm6.05-2.28s-.178.887-.875 1.166m1.185.004s-.303.605-.963.516m-23.447-.636s.583.371.816.03m1.104.86s-.289.297-.778-.017m-1.822 1.467s2.053.194 3.227 1.509l.696-.337s-.623-1.135-3.923-1.172z" stroke="#1d6434" stroke-width=".88"/><path d="M476.29 534.83s4.298-1.34 5.613-3.124c0 0 3.919-2.352 10.73.4 0 0 1.959 3.321 4.3 3.075 0 0 .552.852-.548 1.311 0 0-2.446 5.304-10.346 4.947 0 0-5.341.302-8.609-5.921 0 0-1.676.292-1.14-.688z" stroke="#1d6434" stroke-width=".88"/><path d="M476.61 531.94s.33.509.55 0c0 0 1.659.27 1.869 1.679l.67-.338s-.655-1.199-2.715-1.671c0 0 .133.682-.374.33zm-1.19-.96c-.03-.022.83.744 1.103.33 0 0 .113-.207-.254-.103 0 0-.227.216-.849-.227zm-.78-.8c-.02-.02.368.726.82.236 0 0 .038-.321-.292-.085 0 0-.207.17-.528-.151zm18.21 2.05s1.822-1.859 3.037-1.859c.183 0 1.741.294 2.566-.605 0 0-.366.807-1.558.862 0 0-1.192-.085-2.072.581 0 0-1.524 1.222-1.464 1.732zm-8.71.24v.66l2.493 1.584s-2.519-1.531-2.493-2.244zm-3.08 4.87v.66l2.493 1.584s-2.519-1.531-2.493-2.244zm5.91.23v.66l2.493 1.584s-2.519-1.531-2.493-2.244zm2.95-4.97v.66l2.493 1.584s-2.52-1.531-2.493-2.244z" stroke="#1d6434" stroke-width=".88"/><path d="M479.7 533.06v.66l1.143.658s-1.17-.605-1.143-1.318z" stroke="#1d6434" stroke-width=".88"/></g><g transform="matrix(.62442 0 0 -.62816 -291.4 354.194)" clip-path="url(#ao)" fill="none" stroke="#1d6434" stroke-width=".88"><path d="M483.45 543.29l2.837 1.778 2.957-1.568.121-3.346-2.836-1.778-2.958 1.569z"/><path d="M486.52 538.38l2.837 1.778 2.957-1.569.121-3.345-2.835-1.778-2.959 1.569zm5.8.2l2.838 1.778 2.957-1.568.121-3.346-2.836-1.778-2.959 1.569z"/><path d="M480.73 538.17l2.838 1.778 2.957-1.569.12-3.345-2.835-1.778-2.959 1.568z"/><path d="M477.65 543.08l2.838 1.778 2.957-1.569.12-3.345-2.836-1.778-2.959 1.568z"/><path d="M474.94 537.96l2.837 1.778 2.957-1.569.121-3.345-2.836-1.779-2.959 1.569zm8.87-4.71l2.837 1.778 2.957-1.569.121-3.345-2.836-1.778-2.958 1.569z"/><path d="M489.6 533.46l2.838 1.778 2.957-1.569.121-3.345-2.837-1.778-2.958 1.569zm-17.38-.63l2.838 1.778 2.957-1.569.121-3.344-2.836-1.779-2.959 1.569zm23.18.84l2.838 1.779 2.957-1.57.121-3.344-2.836-1.779-2.959 1.569zm-6.16 9.83l2.838 1.778 2.957-1.569.121-3.345-2.836-1.778-2.959 1.568z"/><path d="M478.01 533.04l2.837 1.779 2.957-1.569.121-3.345-2.836-1.779-2.958 1.569z"/></g><g transform="matrix(.62442 0 0 -.62816 -291.4 354.194)" clip-path="url(#ap)"><path d="M476.54 534.98s-.476.546 1.037.216c0 0 1.393 2.447 2.126 3.025 0 0-2.137-2.769-1.939-3.241 0 0-1.353.444-1.224 0zm3.73 3.85s1.316 1.293 3.049 1.897c0 0-2.11-1.155-3.049-1.897zm12.32-1.05v.683l.522.362s-.522-.495-.522-1.045zm-8.83 2.73v.33s.758.44 2.868.385c0 0-2.806-.083-2.868-.715z" fill="none" stroke="#1d6434" stroke-width=".88"/></g><g transform="matrix(.62442 0 0 -.62816 -291.4 354.194)" clip-path="url(#aq)"><path d="M498.42 535.14c-.541-.32-1.708-.288-1.708-.288-1.211.736-2.903.133-2.903.133-1.827-3.911 2.918-2.275 2.918-2.275.485-.997 5.226-1.271 5.226-1.271 1.085.059.852 1.004.852 1.004a2.221 2.221 0 011.044.858c-.024.689-1.151 1.42-1.151 1.42-1.141.722-2.045.941-2.724.941-1.047 0-1.554-.522-1.554-.522" fill="url(#ar)"/></g><g transform="matrix(.62442 0 0 -.62816 -291.4 354.194)" clip-path="url(#as)"><path d="M493.81 534.98s1.691.602 2.903-.134c0 0 1.167-.031 1.708.289 0 0 1.377 1.418 4.278-.419 0 0 1.127-.731 1.151-1.42 0 0-.33-.577-1.044-.857 0 0 .233-.946-.853-1.005 0 0-4.74.274-5.224 1.271 0 0-4.745-1.636-2.919 2.275z" fill="none" stroke="#1d6434" stroke-miterlimit="10" stroke-width=".22"/><path d="M501.09 534.49s1.268-.011 1.056-.56c0 0-.24-.338-.515-.153 0 0-.228.167.092.329 0 0-.184.252-.633.384" fill="#1d6434"/><path d="M501.09 534.49s1.268-.011 1.056-.56c0 0-.24-.338-.515-.153 0 0-.228.167.092.329 0 0-.184.252-.633.384z" fill="none" stroke="#1d6434" stroke-miterlimit="10" stroke-width=".22"/></g><g transform="matrix(.62442 0 0 -.62816 -291.4 354.194)" clip-path="url(#at)"><g mask="url(#au)"><path d="M498.52 534.84c-.276-.254-1.907-.319-1.907-.319-.183.18-.696.319-.696.319a2.874 2.874 0 00-1.23.549l1.051-1.377c.784-.583 2.782.509 2.782.509.404.511 1.485.573 1.485.573.751.037.036-.476.036-.476 1.376.421 2.236-.276 2.236-.276-.292.569-1.686.637-1.686.637.586.216 2.311-.711 2.311-.711-1.274.864-2.236 1.121-2.929 1.121-1.014 0-1.453-.549-1.453-.549" fill="url(#av)"/></g></g><g transform="matrix(.62442 0 0 -.62816 -291.4 354.194)" clip-path="url(#aw)"><path d="M480.34 531.39s1.571-1.019 2.861-.754c0 0 1.116-.743 2.593-.292 0 0 1.06-.898 2.582-.016 0 0 .856-.605 2.241.195 0 0 .993-.247 1.868.468 0 0 1.03.057 1.746.916 0 0-.423 2.437-2.246 2.183-1.824-.253-10.011.43-10.011.43s-3.713-.957-1.634-3.13" fill="url(#ax)"/></g><g transform="matrix(.62442 0 0 -.62816 -291.4 354.194)" clip-path="url(#ay)"><path d="M480.34 531.39s1.569-1.019 2.86-.755c0 0 1.116-.743 2.593-.292 0 0 1.06-.897 2.583-.015 0 0 .855-.606 2.241.195 0 0 .993-.248 1.866.468 0 0 1.03.056 1.748.915 0 0-.424 2.437-2.247 2.184s-10.011.43-10.011.43-3.713-.958-1.633-3.13z" fill="none" stroke="#1d6434" stroke-miterlimit="10" stroke-width=".22"/></g><g transform="matrix(.62442 0 0 -.62816 -291.4 354.194)" clip-path="url(#az)"><path d="M476.75 534.38c-2.135-1.847-4.513-.812-3.393-1.578 1.118-.764 3.888-.546 3.888-.546.914-.019 1.354.643 1.409 1.305.054.652-.267 1.305-.877 1.305-.283 0-.628-.141-1.027-.486" fill="url(#aA)"/></g><g transform="matrix(.62442 0 0 -.62816 -291.4 354.194)" clip-path="url(#aB)"><path d="M477.24 532.25s-2.77-.218-3.888.547c-1.119.765 1.259-.27 3.393 1.577 2.133 1.848 2.728-2.17.495-2.124z" fill="none" stroke="#1d6434" stroke-miterlimit="10" stroke-width=".22"/></g><g transform="matrix(.62442 0 0 -.62816 -291.4 354.194)" clip-path="url(#aC)"><path d="M478.66 533.94c-.28-1.427-1.189-1.627-1.189-1.627-.607.643-1.634-.853-1.634-.853-2.53-1.504-.773-1.902-.773-1.902 1.835-.348 3.588.133 3.588.133 2.716.851 2.395 2.755 2.395 2.755-.217 1.579-.769 1.993-1.288 1.993-.57 0-1.099-.499-1.099-.499" fill="url(#aD)"/></g><g transform="matrix(.62442 0 0 -.62816 -291.4 354.194)" clip-path="url(#aE)"><path d="M481.05 532.45s.321-1.903-2.396-2.754c0 0-1.752-.482-3.587-.134 0 0-1.757.398.773 1.903 0 0 1.026 1.495 1.633.852 0 0 .91.201 1.19 1.627 0 0 1.931 1.82 2.387-1.494z" fill="none" stroke="#1d6434" stroke-miterlimit="10" stroke-width=".22"/></g><g transform="matrix(.62442 0 0 -.62816 -291.4 354.194)" clip-path="url(#aF)"><path d="M495.23 534.94c-1.047-.42-4.037-1.684-2.495-3.118 1.457-1.354 1.933-1.657 3.139-1.798 0 0 1.771.365 2.333-.393 0 0 .484-.562.967.393 0 0 .08 2.388-2.093 2.303 0 0-.703 2.653-1.65 2.653a.541.541 0 01-.201-.04" fill="url(#aG)"/></g><g transform="matrix(.62442 0 0 -.62816 -291.4 354.194)" clip-path="url(#aH)" fill="none" stroke="#1d6434" stroke-miterlimit="10" stroke-width=".22"><path d="M492.74 531.82c1.458-1.355 1.932-1.658 3.139-1.798 0 0 1.77.364 2.334-.394 0 0 .482-.561.966.394 0 0 .08 2.388-2.093 2.303 0 0-.804 3.034-1.851 2.612-1.047-.42-4.038-1.684-2.495-3.117z"/><path d="M498.79 529.54s-.178.887-.875 1.166m1.185.004s-.303.605-.963.516m-23.447-.636s.583.371.816.03" stroke-linecap="round" stroke-linejoin="round"/></g><g transform="matrix(.62442 0 0 -.62816 -291.4 354.194)" clip-path="url(#aI)"><path d="M475.84 531.46l.777.018s-.123.127-.346.127a.796.796 0 01-.431-.145" fill="url(#aJ)"/></g><g transform="matrix(.62442 0 0 -.62816 -291.4 354.194)" clip-path="url(#aK)"><path d="M476.61 531.48s-.289.297-.778-.017" fill="none" stroke="#1d6434" stroke-linecap="round" stroke-linejoin="round" stroke-miterlimit="10" stroke-width=".22"/></g><g transform="matrix(.62442 0 0 -.62816 -291.4 354.194)" clip-path="url(#aL)"><g mask="url(#aM)"><path d="M474.01 532.93c3.3.037 3.924 1.172 3.924 1.172l-.696.337c-1.175-1.315-3.228-1.509-3.228-1.509" fill="url(#aN)"/></g></g><g transform="matrix(.62442 0 0 -.62816 -291.4 354.194)" clip-path="url(#aO)"><path d="M486.04 541.44s-5.341.301-8.608-5.922c0 0-1.677.292-1.142-.687 0 0 4.299-1.34 5.614-3.124 0 0 3.918-2.353 10.73.4 0 0 1.959 3.321 4.3 3.074 0 0 .552.853-.548 1.312 0 0-2.29 4.963-9.59 4.964-.246 0-.498-.006-.756-.017" fill="url(#aP)"/></g><g transform="matrix(.62442 0 0 -.62816 -291.4 354.194)" clip-path="url(#aQ)"><path d="M476.29 534.83s4.298-1.34 5.613-3.124c0 0 3.919-2.352 10.73.4 0 0 1.959 3.321 4.3 3.075 0 0 .552.852-.548 1.311 0 0-2.446 5.304-10.346 4.947 0 0-5.341.302-8.609-5.921 0 0-1.676.292-1.14-.688z" fill="none" stroke="#1d6434" stroke-miterlimit="10" stroke-width=".22"/></g><g transform="matrix(.62442 0 0 -.62816 -291.4 354.194)" clip-path="url(#aR)"><g mask="url(#aS)"><path d="M477.16 531.94c-.22.507-.551 0-.551 0 .508.351.374-.331.374-.331 2.06.473 2.716 1.671 2.716 1.671l-.671.338c-.209-1.408-1.868-1.678-1.868-1.678" fill="url(#aT)"/></g></g><g transform="matrix(.62442 0 0 -.62816 -291.4 354.194)" clip-path="url(#aU)"><g mask="url(#aV)"><path d="M475.72 531.2a2.128 2.128 0 01-.296-.226c.621.443.848.226.848.226.367-.103.254.104.254.104a.27.27 0 01-.241.123c-.176 0-.393-.114-.565-.227" fill="url(#aW)"/></g></g><g transform="matrix(.62442 0 0 -.62816 -291.4 354.194)" clip-path="url(#aX)"><g mask="url(#aY)"><path d="M474.77 530.38a.824.824 0 01-.137-.2c.322.32.529.15.529.15.329-.236.292.085.292.085-.112.122-.22.168-.319.168-.148 0-.275-.101-.365-.203" fill="url(#aZ)"/></g></g><g transform="matrix(.62442 0 0 -.62816 -291.4 354.194)" clip-path="url(#ba)"><g mask="url(#bb)"><path d="M492.84 532.22s1.822-1.859 3.038-1.859c.183 0 1.74.295 2.566-.604-.009.019-.381.807-1.558.861 0 0-1.193-.085-2.072.58 0 0-1.525 1.223-1.465 1.733z" fill="url(#bc)"/></g></g><g transform="matrix(.62442 0 0 -.62816 -291.4 354.194)" clip-path="url(#bd)"><g mask="url(#be)"><path d="M486.27 534.48l.366.232s-.146-.088-.366-.232m-2.127-1.352v-.638a.074.074 0 010-.021v.021c.018.548 1.437 1.539 2.127 1.99z" fill="url(#bf)"/></g></g><g transform="matrix(.62442 0 0 -.62816 -291.4 354.194)" clip-path="url(#bg)"><g mask="url(#bh)"><path d="M483.18 539.36l.367.233s-.146-.089-.367-.233m-2.126-1.351v-.638c.018.546 1.437 1.539 2.126 1.989z" fill="url(#bi)"/></g></g><g transform="matrix(.62442 0 0 -.62816 -291.4 354.194)" clip-path="url(#bj)"><g mask="url(#bk)"><path d="M489.09 539.58l.367.234s-.146-.089-.367-.234m-2.126-1.35v-.639c.019.547 1.438 1.539 2.126 1.989z" fill="url(#bl)"/></g></g><g transform="matrix(.62442 0 0 -.62816 -291.4 354.194)" clip-path="url(#bm)"><g mask="url(#bn)"><path d="M492.05 534.61l.368.233s-.147-.088-.368-.233m-2.125-1.351v-.637c.019.546 1.437 1.538 2.125 1.988z" fill="url(#bo)"/></g></g><g transform="matrix(.62442 0 0 -.62816 -291.4 354.194)" clip-path="url(#bp)"><g mask="url(#bq)"><path d="M480.68 534.29l.164.094s-.065-.033-.164-.094m-.979-.564v-.612a.369.369 0 010-.047v.047c.019.525.666.985.979 1.176z" fill="url(#br)"/></g></g><g transform="matrix(.62442 0 0 -.62816 -291.4 354.194)" clip-path="url(#bs)" fill="none" stroke="#1d6434" stroke-linecap="round" stroke-linejoin="round" stroke-miterlimit="10" stroke-width=".22"><path d="M483.45 543.29l2.837 1.778 2.957-1.568.121-3.346-2.836-1.778-2.958 1.569z"/><path d="M486.52 538.38l2.837 1.778 2.957-1.569.121-3.345-2.835-1.778-2.959 1.569zm5.8.2l2.838 1.778 2.957-1.568.121-3.346-2.836-1.778-2.959 1.569z"/><path d="M480.73 538.17l2.838 1.778 2.957-1.569.12-3.345-2.835-1.778-2.959 1.568z"/><path d="M477.65 543.08l2.838 1.778 2.957-1.569.12-3.345-2.836-1.778-2.959 1.568z"/><path d="M474.94 537.96l2.837 1.778 2.957-1.569.121-3.345-2.836-1.779-2.959 1.569zm8.87-4.71l2.837 1.778 2.957-1.569.121-3.345-2.836-1.778-2.958 1.569z"/><path d="M489.6 533.46l2.838 1.778 2.957-1.569.121-3.345-2.837-1.778-2.958 1.569zm-17.38-.63l2.838 1.778 2.957-1.569.121-3.344-2.836-1.779-2.959 1.569zm23.18.84l2.838 1.779 2.957-1.57.121-3.344-2.836-1.779-2.959 1.569zm-6.16 9.83l2.838 1.778 2.957-1.569.121-3.345-2.836-1.778-2.959 1.568z"/><path d="M478.01 533.04l2.837 1.779 2.957-1.569.121-3.345-2.836-1.779-2.958 1.569z"/></g><g transform="matrix(.62442 0 0 -.62816 -291.4 354.194)" clip-path="url(#bt)"><g mask="url(#bu)"><path d="M477.58 535.2c-1.513.33-1.037-.216-1.037-.216-.13.444 1.223 0 1.223 0-.197.472 1.94 3.24 1.94 3.24-.733-.576-2.126-3.024-2.126-3.024" fill="url(#bv)"/></g></g><g transform="matrix(.62442 0 0 -.62816 -291.4 354.194)" clip-path="url(#bw)"><g mask="url(#bx)"><path d="M480.28 538.83c.934.739 3.028 1.887 3.049 1.898-1.721-.601-3.032-1.881-3.049-1.898" fill="url(#by)"/></g></g><g transform="matrix(.62442 0 0 -.62816 -291.4 354.194)" clip-path="url(#bz)"><g mask="url(#bA)"><path d="M492.59 538.46v-.682c0 .55.523 1.044.523 1.044z" fill="url(#bB)"/></g></g><g transform="matrix(.62442 0 0 -.62816 -291.4 354.194)" clip-path="url(#bC)"><g mask="url(#bD)"><path d="M483.76 540.84v-.33c.063.633 2.868.715 2.868.715-.124.003-.244.005-.359.005-1.837 0-2.509-.39-2.509-.39" fill="url(#bE)"/></g></g><g transform="matrix(.62442 0 0 -.62816 -291.4 354.194)" clip-path="url(#bF)"><g mask="url(#bG)"><path d="M0 0s1.603 5.143 7.213 5.363" fill="none" stroke="url(#bH)" stroke-linecap="round" stroke-linejoin="round" stroke-width=".88" transform="translate(475.84 537.78)"/><g mask="url(#bI)"><path d="M0 0s1.151 3.226 4.242 4.051" fill="none" stroke="url(#bJ)" stroke-linecap="round" stroke-linejoin="round" stroke-width=".88" transform="translate(474.36 540.14)"/></g></g></g><path d="M0 0s-5.613 0-5.613-5.613v-26.192s0-5.612 5.613-5.612h26.192s5.613 0 5.613 5.612v26.192S31.805 0 26.192 0z" fill="none" stroke="#231f20" stroke-width=".66" transform="matrix(.62442 0 0 -.62816 5.045 1.434)"/></svg>