<svg xmlns="http://www.w3.org/2000/svg" width="100" height="100" viewBox="0 0 26.458 26.458"><defs><linearGradient x1="0" y1="0" x2="1" y2="0" gradientUnits="userSpaceOnUse" gradientTransform="scale(8.2154 -8.2154) rotate(-10.606 -178.908 -369.052)" spreadMethod="pad" id="T"><stop offset="0" stop-color="#231f20"/><stop offset="1" stop-color="#4f4c4d"/></linearGradient><linearGradient x1="0" y1="0" x2="1" y2="0" gradientUnits="userSpaceOnUse" gradientTransform="matrix(22.26882 0 0 -22.26882 514.658 318.357)" spreadMethod="pad" id="P"><stop offset="0" stop-color="#24265d"/><stop offset=".121" stop-color="#24265d"/><stop offset="1" stop-color="#24265d"/></linearGradient><linearGradient x1="0" y1="0" x2="1" y2="0" gradientUnits="userSpaceOnUse" gradientTransform="matrix(0 37.41712 37.41712 0 533.367 299.649)" spreadMethod="pad" id="D"><stop offset="0" stop-color="#bfb290"/><stop offset="1" stop-color="#fff"/></linearGradient><linearGradient x1="0" y1="0" x2="1" y2="0" gradientUnits="userSpaceOnUse" gradientTransform="scale(13.75312 -13.75312) rotate(-45 -6.38 -58.706)" spreadMethod="pad" id="G"><stop offset="0" stop-color="#fff"/><stop offset="1" stop-color="#fff"/></linearGradient><linearGradient x1="0" y1="0" x2="1" y2="0" gradientUnits="userSpaceOnUse" gradientTransform="scale(13.75312 -13.75312) rotate(-45 -6.38 -58.706)" spreadMethod="pad" id="b"><stop offset="0" stop-opacity="0" stop-color="#fff"/><stop offset="1" stop-color="#fff"/></linearGradient><linearGradient x1="0" y1="0" x2="1" y2="0" gradientUnits="userSpaceOnUse" gradientTransform="scale(20.87492 -20.87492) rotate(-45 -4.49 -38.37)" spreadMethod="pad" id="J"><stop offset="0" stop-color="#fff"/><stop offset="1" stop-color="#fff"/></linearGradient><linearGradient x1="0" y1="0" x2="1" y2="0" gradientUnits="userSpaceOnUse" gradientTransform="scale(20.87492 -20.87492) rotate(-45 -4.49 -38.37)" spreadMethod="pad" id="f"><stop offset="0" stop-opacity="0" stop-color="#fff"/><stop offset="1" stop-color="#fff"/></linearGradient><linearGradient x1="0" y1="0" x2="1" y2="0" gradientUnits="userSpaceOnUse" gradientTransform="scale(50.92017 -50.92017) rotate(-45 -1.976 -15.229)" spreadMethod="pad" id="M"><stop offset="0" stop-color="#fff"/><stop offset="1" stop-color="#fff"/></linearGradient><linearGradient x1="0" y1="0" x2="1" y2="0" gradientUnits="userSpaceOnUse" gradientTransform="scale(50.92017 -50.92017) rotate(-45 -1.976 -15.229)" spreadMethod="pad" id="p"><stop offset="0" stop-opacity="0" stop-color="#fff"/><stop offset="1" stop-color="#fff"/></linearGradient><linearGradient x1="0" y1="0" x2="1" y2="0" gradientUnits="userSpaceOnUse" gradientTransform="matrix(22.26882 0 0 -22.26882 514.658 318.357)" spreadMethod="pad" id="h"><stop offset="0" stop-color="#fff"/><stop offset=".121" stop-color="#fff"/><stop offset="1" stop-opacity="0" stop-color="#fff"/></linearGradient><linearGradient x1="0" y1="0" x2="1" y2="0" gradientUnits="userSpaceOnUse" gradientTransform="matrix(13.78664 0 0 -13.78664 517.069 333.546)" spreadMethod="pad" id="j"><stop offset="0" stop-color="#fff"/><stop offset="1" stop-opacity="0" stop-color="#fff"/></linearGradient><linearGradient x1="0" y1="0" x2="1" y2="0" gradientUnits="userSpaceOnUse" gradientTransform="matrix(13.78664 0 0 -13.78664 517.069 333.546)" spreadMethod="pad" id="be"><stop offset="0" stop-color="#fff"/><stop offset="1" stop-color="#fff"/></linearGradient><linearGradient x1="0" y1="0" x2="1" y2="0" gradientUnits="userSpaceOnUse" gradientTransform="scale(13.73715 -13.73715) rotate(-84.103 7.205 -32.77)" spreadMethod="pad" id="Q"><stop offset="0" stop-color="#4f4c4d"/><stop offset="1" stop-color="#231f20"/></linearGradient><linearGradient x1="0" y1="0" x2="1" y2="0" gradientUnits="userSpaceOnUse" gradientTransform="matrix(10.88992 0 0 -10.88992 518.379 331.126)" spreadMethod="pad" id="l"><stop offset="0" stop-color="#fff"/><stop offset="1" stop-opacity="0" stop-color="#fff"/></linearGradient><linearGradient x1="0" y1="0" x2="1" y2="0" gradientUnits="userSpaceOnUse" gradientTransform="matrix(10.88992 0 0 -10.88992 518.379 331.126)" spreadMethod="pad" id="bb"><stop offset="0" stop-color="#fff"/><stop offset="1" stop-color="#fff"/></linearGradient><linearGradient x1="0" y1="0" x2="1" y2="0" gradientUnits="userSpaceOnUse" gradientTransform="matrix(-12.08143 0 0 12.08143 530.003 331.126)" spreadMethod="pad" id="aX"><stop offset="0" stop-color="#c56b0e"/><stop offset="1" stop-color="#e8c14d"/></linearGradient><linearGradient x1="0" y1="0" x2="1" y2="0" gradientUnits="userSpaceOnUse" gradientTransform="matrix(-14.68489 0 0 14.68489 531.305 333.546)" spreadMethod="pad" id="aV"><stop offset="0" stop-color="#c56b0e"/><stop offset="1" stop-color="#e8c14d"/></linearGradient><linearGradient x1="0" y1="0" x2="1" y2="0" gradientUnits="userSpaceOnUse" gradientTransform="matrix(13.78664 0 0 -13.78664 517.133 303.626)" spreadMethod="pad" id="n"><stop offset="0" stop-color="#fff"/><stop offset="1" stop-opacity="0" stop-color="#fff"/></linearGradient><linearGradient x1="0" y1="0" x2="1" y2="0" gradientUnits="userSpaceOnUse" gradientTransform="matrix(13.78664 0 0 -13.78664 517.133 303.626)" spreadMethod="pad" id="aU"><stop offset="0" stop-color="#fff"/><stop offset="1" stop-color="#fff"/></linearGradient><linearGradient x1="0" y1="0" x2="1" y2="0" gradientUnits="userSpaceOnUse" gradientTransform="scale(2.81724 -2.81724) rotate(-45 -38.204 -285.045)" spreadMethod="pad" id="S"><stop offset="0" stop-color="#231f20"/><stop offset="1" stop-color="#4f4c4d"/></linearGradient><linearGradient x1="0" y1="0" x2="1" y2="0" gradientUnits="userSpaceOnUse" gradientTransform="matrix(10.88992 0 0 -10.88992 518.508 306.028)" spreadMethod="pad" id="r"><stop offset="0" stop-color="#fff"/><stop offset="1" stop-opacity="0" stop-color="#fff"/></linearGradient><linearGradient x1="0" y1="0" x2="1" y2="0" gradientUnits="userSpaceOnUse" gradientTransform="matrix(10.88992 0 0 -10.88992 518.508 306.028)" spreadMethod="pad" id="aR"><stop offset="0" stop-color="#fff"/><stop offset="1" stop-color="#fff"/></linearGradient><linearGradient x1="0" y1="0" x2="1" y2="0" gradientUnits="userSpaceOnUse" gradientTransform="matrix(12.08143 0 0 -12.08143 517.921 306.046)" spreadMethod="pad" id="aN"><stop offset="0" stop-color="#c56b0e"/><stop offset="1" stop-color="#e8c14d"/></linearGradient><linearGradient x1="0" y1="0" x2="1" y2="0" gradientUnits="userSpaceOnUse" gradientTransform="matrix(14.68489 0 0 -14.68489 516.62 303.626)" spreadMethod="pad" id="aL"><stop offset="0" stop-color="#c56b0e"/><stop offset="1" stop-color="#e8c14d"/></linearGradient><linearGradient x1="0" y1="0" x2="1" y2="0" gradientUnits="userSpaceOnUse" gradientTransform="scale(52.91605 -52.91605) rotate(45 12.552 8.555)" spreadMethod="pad" id="C"><stop offset="0" stop-color="#00adef"/><stop offset="1" stop-color="#fff"/></linearGradient><linearGradient x1="0" y1="0" x2="1" y2="0" gradientUnits="userSpaceOnUse" gradientTransform="rotate(-45 657.732 -463.143) scale(9.38001)" spreadMethod="pad" id="t"><stop offset="0" stop-color="#fff"/><stop offset="1" stop-opacity="0" stop-color="#fff"/></linearGradient><linearGradient x1="0" y1="0" x2="1" y2="0" gradientUnits="userSpaceOnUse" gradientTransform="rotate(-45 657.726 -463.147) scale(9.38)" spreadMethod="pad" id="aJ"><stop offset="0" stop-color="#fff"/><stop offset="1" stop-color="#fff"/></linearGradient><linearGradient x1="0" y1="0" x2="1" y2="0" gradientUnits="userSpaceOnUse" gradientTransform="scale(9.37958 -9.37958) rotate(-45 -11.917 -83.355)" spreadMethod="pad" id="v"><stop offset="0" stop-opacity="0" stop-color="#fff"/><stop offset="1" stop-color="#fff"/></linearGradient><linearGradient x1="0" y1="0" x2="1" y2="0" gradientUnits="userSpaceOnUse" gradientTransform="scale(9.37958 -9.37958) rotate(-45 -11.917 -83.355)" spreadMethod="pad" id="aG"><stop offset="0" stop-color="#fff"/><stop offset="1" stop-color="#fff"/></linearGradient><linearGradient x1="0" y1="0" x2="1" y2="0" gradientUnits="userSpaceOnUse" gradientTransform="matrix(8.77243 0 0 -8.77243 519.663 315.89)" spreadMethod="pad" id="aC"><stop offset="0" stop-color="#bfb290"/><stop offset=".496" stop-color="#ecdcbc"/><stop offset="1" stop-color="#bfb290"/></linearGradient><linearGradient x1="0" y1="0" x2="1" y2="0" gradientUnits="userSpaceOnUse" gradientTransform="scale(8.63113 -8.63113) rotate(-45 -13.847 -93.25)" spreadMethod="pad" id="V"><stop offset="0" stop-color="#4f4c4d"/><stop offset="1" stop-color="#231f20"/></linearGradient><linearGradient x1="0" y1="0" x2="1" y2="0" gradientUnits="userSpaceOnUse" gradientTransform="matrix(10.0574 0 0 -10.0574 519.058 318.72)" spreadMethod="pad" id="x"><stop offset="0" stop-opacity=".6" stop-color="#fff"/><stop offset=".437" stop-opacity="0" stop-color="#fff"/><stop offset="1" stop-opacity=".6" stop-color="#fff"/></linearGradient><linearGradient x1="0" y1="0" x2="1" y2="0" gradientUnits="userSpaceOnUse" gradientTransform="matrix(10.0574 0 0 -10.0574 519.058 318.72)" spreadMethod="pad" id="aA"><stop offset="0" stop-color="#fff"/><stop offset=".437" stop-color="#fff"/><stop offset="1" stop-color="#fff"/></linearGradient><linearGradient x1="0" y1="0" x2="1" y2="0" gradientUnits="userSpaceOnUse" gradientTransform="scale(5.88539 -5.88539) rotate(45 110.664 81.826)" spreadMethod="pad" id="W"><stop offset="0" stop-color="#231f20"/><stop offset="1" stop-color="#4f4c4d"/></linearGradient><linearGradient x1="0" y1="0" x2="1" y2="0" gradientUnits="userSpaceOnUse" gradientTransform="scale(3.18804 -3.18804) rotate(-45 -36.873 -250.944)" spreadMethod="pad" id="z"><stop offset="0" stop-color="#fff"/><stop offset="1" stop-opacity="0" stop-color="#fff"/></linearGradient><linearGradient x1="0" y1="0" x2="1" y2="0" gradientUnits="userSpaceOnUse" gradientTransform="scale(3.18804 -3.18804) rotate(-45 -36.873 -250.944)" spreadMethod="pad" id="ax"><stop offset="0" stop-color="#fff"/><stop offset="1" stop-color="#fff"/></linearGradient><linearGradient x1="0" y1="0" x2="1" y2="0" gradientUnits="userSpaceOnUse" gradientTransform="scale(.79767 -.79767) rotate(-45 -123.868 -1010.762)" spreadMethod="pad" id="d"><stop offset="0" stop-color="#fff"/><stop offset="1" stop-opacity="0" stop-color="#fff"/></linearGradient><linearGradient x1="0" y1="0" x2="1" y2="0" gradientUnits="userSpaceOnUse" gradientTransform="scale(.79767 -.79767) rotate(-45 -123.868 -1010.762)" spreadMethod="pad" id="au"><stop offset="0" stop-color="#fff"/><stop offset="1" stop-color="#fff"/></linearGradient><linearGradient x1="0" y1="0" x2="1" y2="0" gradientUnits="userSpaceOnUse" gradientTransform="scale(4.63586 -4.63586) rotate(45 140.424 104.043)" spreadMethod="pad" id="Y"><stop offset="0" stop-color="#4f4c4d"/><stop offset="1" stop-color="#231f20"/></linearGradient><linearGradient x1="0" y1="0" x2="1" y2="0" gradientUnits="userSpaceOnUse" gradientTransform="scale(2.43588 -2.43588) rotate(-45 -51.033 -333.374)" spreadMethod="pad" id="B"><stop offset="0" stop-opacity="0" stop-color="#fff"/><stop offset="1" stop-color="#fff"/></linearGradient><linearGradient x1="0" y1="0" x2="1" y2="0" gradientUnits="userSpaceOnUse" gradientTransform="scale(2.43588 -2.43588) rotate(-45 -51.033 -333.374)" spreadMethod="pad" id="ar"><stop offset="0" stop-color="#fff"/><stop offset="1" stop-color="#fff"/></linearGradient><linearGradient x1="0" y1="0" x2="1" y2="0" gradientUnits="userSpaceOnUse" gradientTransform="scale(1.24651 -1.24651) rotate(45 535.744 401.523)" spreadMethod="pad" id="an"><stop offset="0" stop-color="#231f20"/><stop offset="1" stop-color="#4f4c4d"/></linearGradient><linearGradient x1="0" y1="0" x2="1" y2="0" gradientUnits="userSpaceOnUse" gradientTransform="scale(1.24651 -1.24651) rotate(45 541.115 387.76)" spreadMethod="pad" id="al"><stop offset="0" stop-color="#231f20"/><stop offset="1" stop-color="#4f4c4d"/></linearGradient><linearGradient x1="0" y1="0" x2="1" y2="0" gradientUnits="userSpaceOnUse" gradientTransform="scale(1.24651 -1.24651) rotate(45 508.681 402)" spreadMethod="pad" id="aj"><stop offset="0" stop-color="#231f20"/><stop offset="1" stop-color="#4f4c4d"/></linearGradient><linearGradient x1="0" y1="0" x2="1" y2="0" gradientUnits="userSpaceOnUse" gradientTransform="scale(1.24694 -1.24694) rotate(45 521.332 407.278)" spreadMethod="pad" id="ah"><stop offset="0" stop-color="#231f20"/><stop offset="1" stop-color="#4f4c4d"/></linearGradient><linearGradient x1="0" y1="0" x2="1" y2="0" gradientUnits="userSpaceOnUse" gradientTransform="scale(2.1265 -2.1265) rotate(45 302 237.454)" spreadMethod="pad" id="af"><stop offset="0" stop-color="#231f20"/><stop offset="1" stop-color="#4f4c4d"/></linearGradient><linearGradient x1="0" y1="0" x2="1" y2="0" gradientUnits="userSpaceOnUse" gradientTransform="scale(2.12694 -2.12694) rotate(45 316.089 231.544)" spreadMethod="pad" id="ad"><stop offset="0" stop-color="#231f20"/><stop offset="1" stop-color="#4f4c4d"/></linearGradient><linearGradient x1="0" y1="0" x2="1" y2="0" gradientUnits="userSpaceOnUse" gradientTransform="scale(2.12694 -2.12694) rotate(45 296.298 231.408)" spreadMethod="pad" id="ab"><stop offset="0" stop-color="#231f20"/><stop offset="1" stop-color="#4f4c4d"/></linearGradient><linearGradient x1="0" y1="0" x2="1" y2="0" gradientUnits="userSpaceOnUse" gradientTransform="scale(2.1265 -2.1265) rotate(45 309.983 237.546)" spreadMethod="pad" id="Z"><stop offset="0" stop-color="#231f20"/><stop offset="1" stop-color="#4f4c4d"/></linearGradient><clipPath clipPathUnits="userSpaceOnUse" id="o"><path d="M-13903.2 14717H14932v-28835.2h-28835.2z"/></clipPath><clipPath clipPathUnits="userSpaceOnUse" id="K"><path d="M538.693 337.066l-24.034-26.675v-5.133c0-.074.017-1.134.482-2.313l24.762 24.276-18.92-27.28 2.8-.292h4.966l12.639 15.252-9.119-15.252h6.665l.254.018 12.887 17.578v14.209s0 5.612-5.612 5.612z"/></clipPath><clipPath clipPathUnits="userSpaceOnUse" id="g"><path d="M-32768 32767h65535v-65535h-65535z"/></clipPath><clipPath clipPathUnits="userSpaceOnUse" id="N"><path d="M520.271 337.066s-5.612 0-5.612-5.612v-26.196c.001-.171.087-5.609 5.612-5.609h16.655v37.417z"/></clipPath><clipPath clipPathUnits="userSpaceOnUse" id="R"><path d="M520.271 337.066s-5.612 0-5.612-5.612v-26.196c.001-.171.087-5.609 5.612-5.609h26.192s5.612 0 5.612 5.612v26.193s0 5.612-5.612 5.612z"/></clipPath><clipPath clipPathUnits="userSpaceOnUse" id="E"><path d="M544.083 299.649h2.38s5.612 0 5.612 5.612v5.846z"/></clipPath><clipPath clipPathUnits="userSpaceOnUse" id="U"><path d="M520.271 337.066s-5.612 0-5.612-5.612v-26.196c.001-.171.087-5.609 5.612-5.609h26.192s5.612 0 5.612 5.612v26.193s0 5.612-5.612 5.612z"/></clipPath><clipPath clipPathUnits="userSpaceOnUse" id="X"><path d="M520.271 337.066s-5.612 0-5.612-5.612v-26.196c.001-.171.087-5.609 5.612-5.609h26.192s5.612 0 5.612 5.612v26.193s0 5.612-5.612 5.612z"/></clipPath><clipPath clipPathUnits="userSpaceOnUse" id="aa"><path d="M520.271 337.066s-5.612 0-5.612-5.612v-26.196c.001-.171.087-5.609 5.612-5.609h26.192s5.612 0 5.612 5.612v26.193s0 5.612-5.612 5.612z"/></clipPath><clipPath clipPathUnits="userSpaceOnUse" id="ac"><path d="M520.271 337.066s-5.612 0-5.612-5.612v-26.196c.001-.171.087-5.609 5.612-5.609h26.192s5.612 0 5.612 5.612v26.193s0 5.612-5.612 5.612z"/></clipPath><clipPath clipPathUnits="userSpaceOnUse" id="ae"><path d="M520.271 337.066s-5.612 0-5.612-5.612v-26.196c.001-.171.087-5.609 5.612-5.609h26.192s5.612 0 5.612 5.612v26.193s0 5.612-5.612 5.612z"/></clipPath><clipPath clipPathUnits="userSpaceOnUse" id="ag"><path d="M520.271 337.066s-5.612 0-5.612-5.612v-26.196c.001-.171.087-5.609 5.612-5.609h26.192s5.612 0 5.612 5.612v26.193s0 5.612-5.612 5.612z"/></clipPath><clipPath clipPathUnits="userSpaceOnUse" id="ai"><path d="M520.271 337.066s-5.612 0-5.612-5.612v-26.196c.001-.171.087-5.609 5.612-5.609h26.192s5.612 0 5.612 5.612v26.193s0 5.612-5.612 5.612z"/></clipPath><clipPath clipPathUnits="userSpaceOnUse" id="ak"><path d="M520.271 337.066s-5.612 0-5.612-5.612v-26.196c.001-.171.087-5.609 5.612-5.609h26.192s5.612 0 5.612 5.612v26.193s0 5.612-5.612 5.612z"/></clipPath><clipPath clipPathUnits="userSpaceOnUse" id="am"><path d="M520.271 337.066s-5.612 0-5.612-5.612v-26.196c.001-.171.087-5.609 5.612-5.609h26.192s5.612 0 5.612 5.612v26.193s0 5.612-5.612 5.612z"/></clipPath><clipPath clipPathUnits="userSpaceOnUse" id="ao"><path d="M520.271 337.066s-5.612 0-5.612-5.612v-26.196c.001-.171.087-5.609 5.612-5.609h26.192s5.612 0 5.612 5.612v26.193s0 5.612-5.612 5.612z"/></clipPath><clipPath clipPathUnits="userSpaceOnUse" id="A"><path d="M-13903.2 14717H14932v-28835.2h-28835.2z"/></clipPath><clipPath clipPathUnits="userSpaceOnUse" id="ap"><path d="M538.465 326.868l-.719-1.065c1.102 1.636 2.033 1.413 2.033 1.413a1.043 1.043 0 01-.521.155c-.519 0-.793-.503-.793-.503"/></clipPath><clipPath clipPathUnits="userSpaceOnUse" id="c"><path d="M-13903.2 14717H14932v-28835.2h-28835.2z"/></clipPath><clipPath clipPathUnits="userSpaceOnUse" id="as"><path d="M540.308 307.165l-.174.21c.059-.073.117-.142.174-.21m1.387-1.674s.496-.557 1.239-.111c0 0-.86-.303-2.626 1.785z"/></clipPath><clipPath clipPathUnits="userSpaceOnUse" id="y"><path d="M-13903.2 14717H14932v-28835.2h-28835.2z"/></clipPath><clipPath clipPathUnits="userSpaceOnUse" id="av"><path d="M531.492 317.218c.249 1.762 2.27 2.239 2.27 2.239-2.198-.062-2.27-2.239-2.27-2.239"/></clipPath><clipPath clipPathUnits="userSpaceOnUse" id="w"><path d="M-13903.2 14717H14932v-28835.2h-28835.2z"/></clipPath><clipPath clipPathUnits="userSpaceOnUse" id="ay"><path d="M519.278 330.23a.22.22 0 01-.22-.22v-6.574c0-.011.001-.021.003-.032l-.003-.001a4.994 4.994 0 013.201-4.682c-1.906-.737-3.187-2.559-3.199-4.687a.264.264 0 01-.002-.029v-6.573a.22.22 0 01.22-.221h9.618a.22.22 0 01.219.221v6.573l-.001.033h.001a4.996 4.996 0 01-3.201 4.683c1.906.737 3.188 2.559 3.2 4.686l.001.029v6.574a.22.22 0 01-.219.22z"/></clipPath><clipPath clipPathUnits="userSpaceOnUse" id="aB"><path d="M520.271 337.066s-5.612 0-5.612-5.612v-26.196c.001-.171.087-5.609 5.612-5.609h26.192s5.612 0 5.612 5.612v26.193s0 5.612-5.612 5.612z"/></clipPath><clipPath clipPathUnits="userSpaceOnUse" id="u"><path d="M-13903.2 14717H14932v-28835.2h-28835.2z"/></clipPath><clipPath clipPathUnits="userSpaceOnUse" id="aE"><path d="M519.993 314.15v-6.013h8.113c-8.113 0-7.361 5.206-7.361 5.206 0 3.593 2.53 4.775 2.53 4.775-3.41-.834-3.282-3.968-3.282-3.968"/></clipPath><clipPath clipPathUnits="userSpaceOnUse" id="s"><path d="M-13903.2 14717H14932v-28835.2h-28835.2z"/></clipPath><clipPath clipPathUnits="userSpaceOnUse" id="aH"><path d="M520.031 329.329v-6.013s-.128-3.135 3.281-3.969c0 0-2.529 1.183-2.529 4.775 0 0-.752 5.207 7.36 5.207z"/></clipPath><clipPath clipPathUnits="userSpaceOnUse" id="aK"><path d="M520.271 337.066s-5.612 0-5.612-5.612v-26.196c.001-.171.087-5.609 5.612-5.609h26.192s5.612 0 5.612 5.612v26.193s0 5.612-5.612 5.612z"/></clipPath><clipPath clipPathUnits="userSpaceOnUse" id="aM"><path d="M520.271 337.066s-5.612 0-5.612-5.612v-26.196c.001-.171.087-5.609 5.612-5.609h26.192s5.612 0 5.612 5.612v26.193s0 5.612-5.612 5.612z"/></clipPath><clipPath clipPathUnits="userSpaceOnUse" id="aO"><path d="M520.271 337.066s-5.612 0-5.612-5.612v-26.196c.001-.171.087-5.609 5.612-5.609h26.192s5.612 0 5.612 5.612v26.193s0 5.612-5.612 5.612z"/></clipPath><clipPath clipPathUnits="userSpaceOnUse" id="q"><path d="M-32768 32767h65535v-65535h-65535z"/></clipPath><clipPath clipPathUnits="userSpaceOnUse" id="aP"><path d="M529.374 306.731h-.011.035zm-10.866 0v-1.405c0 1.377 10.174 1.405 10.855 1.405z"/></clipPath><clipPath clipPathUnits="userSpaceOnUse" id="m"><path d="M-13903.2 14717H14932v-28835.2h-28835.2z"/></clipPath><clipPath clipPathUnits="userSpaceOnUse" id="aS"><path d="M530.888 304.329h-.013.045zm-13.755 0v-1.405c0 1.378 12.88 1.405 13.742 1.405z"/></clipPath><clipPath clipPathUnits="userSpaceOnUse" id="aW"><path d="M520.271 337.066s-5.612 0-5.612-5.612v-26.196c.001-.171.087-5.609 5.612-5.609h26.192s5.612 0 5.612 5.612v26.193s0 5.612-5.612 5.612z"/></clipPath><clipPath clipPathUnits="userSpaceOnUse" id="aY"><path d="M520.271 337.066s-5.612 0-5.612-5.612v-26.196c.001-.171.087-5.609 5.612-5.609h26.192s5.612 0 5.612 5.612v26.193s0 5.612-5.612 5.612z"/></clipPath><clipPath clipPathUnits="userSpaceOnUse" id="k"><path d="M-32768 32767h65535v-65535h-65535z"/></clipPath><clipPath clipPathUnits="userSpaceOnUse" id="aZ"><path d="M529.244 331.828h-.012.036zm-10.865 0v-1.405c0 1.377 10.173 1.404 10.853 1.405z"/></clipPath><clipPath clipPathUnits="userSpaceOnUse" id="i"><path d="M-13903.2 14717H14932v-28835.2h-28835.2z"/></clipPath><clipPath clipPathUnits="userSpaceOnUse" id="bc"><path d="M530.824 334.248h-.014.045zm-13.755 0v-1.405c0 1.377 12.88 1.405 13.741 1.405z"/></clipPath><clipPath clipPathUnits="userSpaceOnUse" id="aD"><path d="M520.271 337.066s-5.612 0-5.612-5.612v-26.196c.001-.171.087-5.609 5.612-5.609h26.192s5.612 0 5.612 5.612v26.193s0 5.612-5.612 5.612z"/></clipPath><clipPath clipPathUnits="userSpaceOnUse" id="a"><path d="M-13903.2 14717H14932v-28835.2h-28835.2z"/></clipPath><clipPath clipPathUnits="userSpaceOnUse" id="e"><path d="M-32768 32767h65535v-65535h-65535z"/></clipPath><clipPath clipPathUnits="userSpaceOnUse" id="H"><path d="M540.123 299.649h.77l11.182 16.187v1.382z"/></clipPath><mask maskUnits="userSpaceOnUse" x="0" y="0" width="1" height="1" id="L"><g clip-path="url(#o)"><path d="M495.95 318.357l37.417 37.418 37.417-37.418-37.417-37.417z" fill="url(#p)"/></g></mask><mask maskUnits="userSpaceOnUse" x="0" y="0" width="1" height="1" id="F"><g clip-path="url(#a)"><path d="M538.354 305.378l9.725 9.725 9.725-9.725-9.725-9.726z" fill="url(#b)"/></g></mask><mask maskUnits="userSpaceOnUse" x="0" y="0" width="1" height="1" id="I"><g clip-path="url(#e)"><path d="M531.339 308.433l14.76 14.761 14.761-14.761-14.761-14.76z" fill="url(#f)"/></g></mask><mask maskUnits="userSpaceOnUse" x="0" y="0" width="1" height="1" id="O"><g clip-path="url(#g)"><path d="M514.658 337.066h22.269v-37.417h-22.269z" fill="url(#h)"/></g></mask><mask maskUnits="userSpaceOnUse" x="0" y="0" width="1" height="1" id="bd"><g clip-path="url(#i)"><path d="M517.069 334.248h13.787v-1.405h-13.787z" fill="url(#j)"/></g></mask><mask maskUnits="userSpaceOnUse" x="0" y="0" width="1" height="1" id="ba"><g clip-path="url(#k)"><path d="M518.379 331.828h10.89v-1.404h-10.89z" fill="url(#l)"/></g></mask><mask maskUnits="userSpaceOnUse" x="0" y="0" width="1" height="1" id="aT"><g clip-path="url(#m)"><path d="M517.133 304.329h13.786v-1.405h-13.786z" fill="url(#n)"/></g></mask><mask maskUnits="userSpaceOnUse" x="0" y="0" width="1" height="1" id="at"><g clip-path="url(#c)"><path d="M538.913 306.154l2.621 2.621 2.621-2.621-2.621-2.62z" fill="url(#d)"/></g></mask><mask maskUnits="userSpaceOnUse" x="0" y="0" width="1" height="1" id="aQ"><g clip-path="url(#q)"><path d="M518.508 306.731h10.89v-1.405h-10.89z" fill="url(#r)"/></g></mask><mask maskUnits="userSpaceOnUse" x="0" y="0" width="1" height="1" id="aI"><g clip-path="url(#s)"><path d="M514.912 324.338l9.111-9.111 9.112 9.111-9.112 9.112z" fill="url(#t)"/></g></mask><mask maskUnits="userSpaceOnUse" x="0" y="0" width="1" height="1" id="aF"><g clip-path="url(#u)"><path d="M514.874 313.128l9.111 9.111 9.112-9.111-9.112-9.112z" fill="url(#v)"/></g></mask><mask maskUnits="userSpaceOnUse" x="0" y="0" width="1" height="1" id="az"><g clip-path="url(#w)"><path d="M519.058 330.23h10.057v-23.018h-10.057z" fill="url(#x)"/></g></mask><mask maskUnits="userSpaceOnUse" x="0" y="0" width="1" height="1" id="aw"><g clip-path="url(#y)"><path d="M530.372 318.337l2.255 2.255 2.255-2.255-2.255-2.254z" fill="url(#z)"/></g></mask><mask maskUnits="userSpaceOnUse" x="0" y="0" width="1" height="1" id="aq"><g clip-path="url(#A)"><path d="M536.928 326.621l1.834 1.834 1.834-1.834-1.834-1.834z" fill="url(#B)"/></g></mask></defs><path d="M520.271 337.066s-5.612 0-5.612-5.612v-26.196c.001-.171.087-5.609 5.612-5.609h26.192s5.612 0 5.612 5.612v26.193s0 5.612-5.612 5.612z" fill="url(#C)" transform="matrix(.6244 0 0 -.62815 -319.81 213.166)"/><path d="M520.271 337.066s-5.612 0-5.612-5.612v-26.196c.001-.171.087-5.609 5.612-5.609h26.192s5.612 0 5.612 5.612v26.193s0 5.612-5.612 5.612z" fill="url(#D)" transform="matrix(.6244 0 0 -.62815 -319.81 213.166)"/><g clip-path="url(#E)" transform="matrix(.6244 0 0 -.62815 -319.81 213.166)"><g mask="url(#F)"><path d="M544.083 299.649h2.38s5.612 0 5.612 5.612v5.846z" fill="url(#G)"/></g></g><g clip-path="url(#H)" transform="matrix(.6244 0 0 -.62815 -319.81 213.166)"><g mask="url(#I)"><path d="M540.123 299.649h.77l11.182 16.187v1.382z" fill="url(#J)"/></g></g><g clip-path="url(#K)" transform="matrix(.6244 0 0 -.62815 -319.81 213.166)"><g mask="url(#L)"><path d="M538.693 337.066l-24.034-26.675v-5.133c0-.074.017-1.134.482-2.313l24.762 24.276-18.92-27.28 2.8-.292h4.966l12.639 15.252-9.119-15.252h6.665l.254.018 12.887 17.578v14.209s0 5.612-5.612 5.612z" fill="url(#M)"/></g></g><g clip-path="url(#N)" transform="matrix(.6244 0 0 -.62815 -319.81 213.166)"><g mask="url(#O)"><path d="M520.271 337.066s-5.612 0-5.612-5.612v-26.196c.001-.171.087-5.609 5.612-5.609h16.655v37.417z" fill="url(#P)"/></g></g><path d="M531.495 319.455a1.21 1.21 0 01-.176-1.702l10.095-12.421a1.21 1.21 0 011.877 1.527l-10.094 12.42a1.21 1.21 0 01-.94.447 1.2 1.2 0 01-.762-.271" fill="url(#Q)" transform="matrix(.6244 0 0 -.62815 -319.81 213.166)"/><g clip-path="url(#R)" transform="matrix(.6244 0 0 -.62815 -319.81 213.166)"><path d="M543.292 306.859a1.21 1.21 0 00-1.878-1.526l-10.094 12.42a1.21 1.21 0 101.878 1.526z" fill="none" stroke="#231f20" stroke-width=".44"/></g><path d="M531.888 318.971a.587.587 0 01-.085-.825l10.094-12.42a.589.589 0 01.456-.217.586.586 0 01.455.956l-10.095 12.421a.587.587 0 01-.456.216.576.576 0 01-.369-.131" fill="url(#S)" transform="matrix(.6244 0 0 -.62815 -319.81 213.166)"/><path d="M538.28 327.141l-4.913-7.178 1.996-1.368 4.913 7.179a1.21 1.21 0 01-.315 1.682 1.208 1.208 0 01-1.681-.315" fill="url(#T)" transform="matrix(.6244 0 0 -.62815 -319.81 213.166)"/><g clip-path="url(#U)" transform="matrix(.6244 0 0 -.62815 -319.81 213.166)"><path d="M535.364 318.596l4.913 7.178a1.21 1.21 0 01-1.998 1.368l-4.913-7.178z" fill="none" stroke="#231f20" stroke-width=".44"/></g><path d="M538.795 326.788l-4.561-6.663.967-.663 4.56 6.665a.586.586 0 01-.152.814.586.586 0 01-.814-.153" fill="url(#V)" transform="matrix(.6244 0 0 -.62815 -319.81 213.166)"/><path d="M530.425 317.408a2.943 2.943 0 012.942-2.944 2.943 2.943 0 010 5.886 2.942 2.942 0 01-2.942-2.942" fill="url(#W)" transform="matrix(.6244 0 0 -.62815 -319.81 213.166)"/><g clip-path="url(#X)" transform="matrix(.6244 0 0 -.62815 -319.81 213.166)"><path d="M536.31 317.407a2.942 2.942 0 10-5.884 0 2.942 2.942 0 005.883 0z" fill="none" stroke="#231f20" stroke-width=".44"/></g><path d="M531.048 317.408c0-1.279 1.04-2.32 2.319-2.32a2.321 2.321 0 012.318 2.32 2.32 2.32 0 01-2.318 2.318 2.322 2.322 0 01-2.319-2.318" fill="url(#Y)" transform="matrix(.6244 0 0 -.62815 -319.81 213.166)"/><path d="M549.949 317.408a1.064 1.064 0 112.126 0 1.064 1.064 0 01-2.126 0" fill="url(#Z)" transform="matrix(.6244 0 0 -.62815 -319.81 213.166)"/><g clip-path="url(#aa)" transform="matrix(.6244 0 0 -.62815 -319.81 213.166)"><path d="M552.076 317.407a1.063 1.063 0 10-2.127 0 1.063 1.063 0 002.127 0z" fill="none" stroke="#231f20" stroke-width=".44"/></g><path d="M532.303 300.712a1.064 1.064 0 012.128 0 1.064 1.064 0 01-2.128 0" fill="url(#ab)" transform="matrix(.6244 0 0 -.62815 -319.81 213.166)"/><g clip-path="url(#ac)" transform="matrix(.6244 0 0 -.62815 -319.81 213.166)"><path d="M534.43 300.712a1.064 1.064 0 10-2.127.002 1.064 1.064 0 002.128-.002z" fill="none" stroke="#231f20" stroke-width=".44"/></g><path d="M544.837 330.393c0-.587.477-1.064 1.063-1.064a1.064 1.064 0 110 2.127 1.064 1.064 0 01-1.063-1.063" fill="url(#ad)" transform="matrix(.6244 0 0 -.62815 -319.81 213.166)"/><g clip-path="url(#ae)" transform="matrix(.6244 0 0 -.62815 -319.81 213.166)"><path d="M546.964 330.393a1.064 1.064 0 10-2.127.001 1.064 1.064 0 002.127-.001z" fill="none" stroke="#231f20" stroke-width=".44"/></g><path d="M544.837 305.459a1.064 1.064 0 012.127 0 1.064 1.064 0 11-2.127 0" fill="url(#af)" transform="matrix(.6244 0 0 -.62815 -319.81 213.166)"/><g clip-path="url(#ag)" transform="matrix(.6244 0 0 -.62815 -319.81 213.166)"><path d="M546.964 305.46a1.064 1.064 0 10-2.127 0 1.064 1.064 0 002.127 0z" fill="none" stroke="#231f20" stroke-width=".44"/></g><path d="M549.325 310.482a.624.624 0 011.247 0c0 .345-.28.625-.623.625a.625.625 0 01-.624-.625" fill="url(#ah)" transform="matrix(.6244 0 0 -.62815 -319.81 213.166)"/><g clip-path="url(#ai)" transform="matrix(.6244 0 0 -.62815 -319.81 213.166)"><path d="M550.572 310.482a.624.624 0 10-1.248.002.624.624 0 001.248-.002z" fill="none" stroke="#231f20" stroke-width=".44"/></g><path d="M539.864 301.152a.624.624 0 011.248 0 .624.624 0 01-1.248 0" fill="url(#aj)" transform="matrix(.6244 0 0 -.62815 -319.81 213.166)"/><g clip-path="url(#ak)" transform="matrix(.6244 0 0 -.62815 -319.81 213.166)"><path d="M541.111 301.152a.624.624 0 10-1.247.001.624.624 0 001.247-.001z" fill="none" stroke="#231f20" stroke-width=".44"/></g><path d="M539.155 334.939a.624.624 0 011.247 0 .623.623 0 01-1.247 0" fill="url(#al)" transform="matrix(.6244 0 0 -.62815 -319.81 213.166)"/><g clip-path="url(#am)" transform="matrix(.6244 0 0 -.62815 -319.81 213.166)"><path d="M540.402 334.939a.624.624 0 10-1.248.001.624.624 0 001.248-.001z" fill="none" stroke="#231f20" stroke-width=".44"/></g><path d="M549.325 325.179a.624.624 0 011.247 0 .624.624 0 01-1.247 0" fill="url(#an)" transform="matrix(.6244 0 0 -.62815 -319.81 213.166)"/><g clip-path="url(#ao)" transform="matrix(.6244 0 0 -.62815 -319.81 213.166)"><path d="M550.572 325.18a.624.624 0 10-1.248.001.624.624 0 001.248-.002z" fill="none" stroke="#231f20" stroke-width=".44"/></g><g clip-path="url(#ap)" transform="matrix(.6244 0 0 -.62815 -319.81 213.166)"><g mask="url(#aq)"><path d="M538.465 326.868l-.719-1.065c1.102 1.636 2.033 1.413 2.033 1.413a1.043 1.043 0 01-.521.155c-.519 0-.793-.503-.793-.503" fill="url(#ar)"/></g></g><g clip-path="url(#as)" transform="matrix(.6244 0 0 -.62815 -319.81 213.166)"><g mask="url(#at)"><path d="M540.308 307.165l-.174.21c.059-.073.117-.142.174-.21m1.387-1.674s.496-.557 1.239-.111c0 0-.86-.303-2.626 1.785z" fill="url(#au)"/></g></g><g clip-path="url(#av)" transform="matrix(.6244 0 0 -.62815 -319.81 213.166)"><g mask="url(#aw)"><path d="M531.492 317.218c.249 1.762 2.27 2.239 2.27 2.239-2.198-.062-2.27-2.239-2.27-2.239" fill="url(#ax)"/></g></g><g clip-path="url(#ay)" transform="matrix(.6244 0 0 -.62815 -319.81 213.166)"><g mask="url(#az)"><path d="M519.278 330.23a.22.22 0 01-.22-.22v-6.574c0-.011.001-.021.003-.032l-.003-.001a4.994 4.994 0 013.201-4.682c-1.906-.737-3.187-2.559-3.199-4.687a.264.264 0 01-.002-.029v-6.573a.22.22 0 01.22-.221h9.618a.22.22 0 01.219.221v6.573l-.001.033h.001a4.996 4.996 0 01-3.201 4.683c1.906.737 3.188 2.559 3.2 4.686l.001.029v6.574a.22.22 0 01-.219.22z" fill="url(#aA)"/></g></g><g clip-path="url(#aB)" transform="matrix(.6244 0 0 -.62815 -319.81 213.166)"><path d="M528.896 330.45h-9.617a.44.44 0 01-.44-.44v-6.606a5.215 5.215 0 012.878-4.683 5.215 5.215 0 01-2.878-4.683v-6.606a.44.44 0 01.44-.44h9.617a.44.44 0 01.44.44v6.606a5.215 5.215 0 01-2.878 4.683 5.215 5.215 0 012.878 4.683v6.606a.44.44 0 01-.44.44m0-.44v-6.574h-.002l.002-.032a4.806 4.806 0 00-3.732-4.683 4.807 4.807 0 003.732-4.683l-.001-.032v-6.574h-9.616v6.606a4.807 4.807 0 003.732 4.683 4.806 4.806 0 00-3.732 4.683v6.606h9.617" fill="#fff"/></g><path d="M527.093 323.645c-.537-.288-2.448-.434-3.147-.468a3.283 3.283 0 00-.289-.012c-.816 0-1.984.258-2.607.412a2.792 2.792 0 01-.675.087c-.373 0-.587-.084-.611-.095l-.1-.042v-.109a4.396 4.396 0 013.469-4.291c.151-.203.881-1.406.789-5.472 0-.006.025-.491-.06-.932-.833-.229-2.176-.94-3.992-2.993l-.042-.045v-1.714h8.442v1.762l-.035.046c-.072.091-1.778 2.241-3.59 3.03 0 0-.03.006-.09.009a2.566 2.566 0 00-.135.864l.193 3.545c-.037.702.067 1.761.379 1.908l.135.034c.046 0 .168 0 .248.067a4.363 4.363 0 013.061 4.182v.064l-.043.047c-.012.012-.262.279-.696.279-.197 0-.4-.055-.604-.163" fill="url(#aC)" transform="matrix(.6244 0 0 -.62815 -319.81 213.166)"/><g clip-path="url(#aD)" transform="matrix(.6244 0 0 -.62815 -319.81 213.166)"><path d="M527.697 323.973c-.224 0-.454-.062-.682-.184-.453-.242-2.122-.402-3.068-.446a3.11 3.11 0 00-.29-.013c-.798 0-1.951.255-2.567.407a2.974 2.974 0 01-.716.092 1.86 1.86 0 01-.673-.107l-.202-.085v-.22a4.56 4.56 0 013.537-4.437c.172-.268.807-1.522.72-5.309v-.012l.002-.013c0-.004.02-.404-.041-.793-.861-.264-2.2-1.012-3.971-3.013l-.083-.094v-1.94h8.773v1.985l-.071.09c-.073.092-1.805 2.274-3.62 3.067l-.033.015-.031.006c-.07.243-.102.482-.095.712l.192 3.52v.034c-.041.802.099 1.615.297 1.75l.043.011.029.008.004.001a.571.571 0 01.299.081 4.526 4.526 0 013.15 4.331v.13l-.086.093c-.032.034-.32.333-.817.333m0-.33a.819.819 0 00.574-.226 4.224 4.224 0 00-2.99-4.038c-.01-.028-.057-.044-.154-.044h-.007c-.014 0-.026-.006-.041-.008-.041-.01-.081-.022-.123-.03-.601-.276-.508-2.079-.508-2.079l-.192-3.527a2.743 2.743 0 01.182-1.037l.042.001a.776.776 0 00.134-.009c1.759-.77 3.492-2.97 3.492-2.97v-1.54h-8.112v1.485c1.916 2.165 3.279 2.793 4.007 2.968.118.491.086 1.074.086 1.074.107 4.675-.863 5.614-.863 5.614a4.223 4.223 0 00-3.395 4.14s.195.082.545.082c.175 0 .39-.02.637-.082.656-.162 1.82-.417 2.646-.417.108 0 .21.004.305.013 0 0 2.52.118 3.209.485.2.107.376.145.526.145" fill="#bfb290"/></g><g clip-path="url(#aE)" transform="matrix(.6244 0 0 -.62815 -319.81 213.166)"><g mask="url(#aF)"><path d="M519.993 314.15v-6.013h8.113c-8.113 0-7.361 5.206-7.361 5.206 0 3.593 2.53 4.775 2.53 4.775-3.41-.834-3.282-3.968-3.282-3.968" fill="url(#aG)"/></g></g><g clip-path="url(#aH)" transform="matrix(.6244 0 0 -.62815 -319.81 213.166)"><g mask="url(#aI)"><path d="M520.031 329.329v-6.013s-.128-3.135 3.281-3.969c0 0-2.529 1.183-2.529 4.775 0 0-.752 5.207 7.36 5.207z" fill="url(#aJ)"/></g></g><g clip-path="url(#aK)" transform="matrix(.6244 0 0 -.62815 -319.81 213.166)" fill="none" stroke="#fff" stroke-width="1.32" stroke-linecap="round" stroke-linejoin="round"><path d="M531.305 302.416H516.62v2.42h14.685zm-1.302 2.42h-12.081v2.42h12.08z"/><path d="M518.508 305.326v1.404h10.89s-10.89.021-10.89-1.404zm-1.375-2.402v1.404h13.786s-13.786.021-13.786-1.404zm-.513 31.832h14.685v-2.42H516.62zM517.921 332.336h12.081v-2.42h-12.08z"/><path d="M518.379 330.423v1.404h10.89s-10.89.021-10.89-1.404zm-1.311 2.42v1.404h13.786s-13.786.021-13.786-1.404z"/></g><path d="M516.62 302.416h14.685v2.42H516.62z" fill="url(#aL)" transform="matrix(.6244 0 0 -.62815 -319.81 213.166)"/><g clip-path="url(#aM)" transform="matrix(.6244 0 0 -.62815 -319.81 213.166)"><path d="M531.305 302.416H516.62v2.42h14.685z" fill="none" stroke="#5a3114" stroke-width=".44" stroke-linecap="round" stroke-linejoin="round"/></g><path d="M517.921 304.836h12.082v2.42h-12.082z" fill="url(#aN)" transform="matrix(.6244 0 0 -.62815 -319.81 213.166)"/><g clip-path="url(#aO)" transform="matrix(.6244 0 0 -.62815 -319.81 213.166)"><path d="M530.003 304.836h-12.081v2.42h12.08z" fill="none" stroke="#5a3114" stroke-width=".44" stroke-linecap="round" stroke-linejoin="round"/></g><g clip-path="url(#aP)" transform="matrix(.6244 0 0 -.62815 -319.81 213.166)"><g mask="url(#aQ)"><path d="M529.374 306.731h-.011.035zm-10.866 0v-1.405c0 1.377 10.174 1.405 10.855 1.405z" fill="url(#aR)"/></g></g><g clip-path="url(#aS)" transform="matrix(.6244 0 0 -.62815 -319.81 213.166)"><g mask="url(#aT)"><path d="M530.888 304.329h-.013.045zm-13.755 0v-1.405c0 1.378 12.88 1.405 13.742 1.405z" fill="url(#aU)"/></g></g><path d="M516.62 332.336h14.685v2.42H516.62z" fill="url(#aV)" transform="matrix(.6244 0 0 -.62815 -319.81 213.166)"/><g clip-path="url(#aW)" transform="matrix(.6244 0 0 -.62815 -319.81 213.166)"><path d="M516.62 334.756h14.685v-2.42H516.62z" fill="none" stroke="#5a3114" stroke-width=".44" stroke-linejoin="round"/></g><path d="M517.921 329.916h12.082v2.42h-12.082z" fill="url(#aX)" transform="matrix(.6244 0 0 -.62815 -319.81 213.166)"/><g clip-path="url(#aY)" transform="matrix(.6244 0 0 -.62815 -319.81 213.166)"><path d="M517.921 332.336h12.081v-2.42h-12.08z" fill="none" stroke="#5a3114" stroke-width=".44" stroke-linejoin="round"/></g><g clip-path="url(#aZ)" transform="matrix(.6244 0 0 -.62815 -319.81 213.166)"><g mask="url(#ba)"><path d="M529.244 331.828h-.012.036zm-10.865 0v-1.405c0 1.377 10.173 1.404 10.853 1.405z" fill="url(#bb)"/></g></g><g clip-path="url(#bc)" transform="matrix(.6244 0 0 -.62815 -319.81 213.166)"><g mask="url(#bd)"><path d="M530.824 334.248h-.014.045zm-13.755 0v-1.405c0 1.377 12.88 1.405 13.741 1.405z" fill="url(#be)"/></g></g><path d="M0 0s-5.613 0-5.613-5.613v-26.192s0-5.612 5.613-5.612h26.192s5.613 0 5.613 5.612v26.192S31.805 0 26.192 0z" fill="none" stroke="#231f20" stroke-width=".66" transform="matrix(.6244 0 0 -.62815 5.052 1.438)"/></svg>