<svg xmlns="http://www.w3.org/2000/svg" width="100" height="100" viewBox="0 0 26.458 26.458"><defs><clipPath id="ae" clipPathUnits="userSpaceOnUse"><path d="M179.773 381.967s-5.612 0-5.612-5.613v-26.195c.001-.171.087-5.609 5.612-5.609h26.192s5.613 0 5.613 5.612v26.192s0 5.613-5.613 5.613z"/></clipPath><clipPath id="aV" clipPathUnits="userSpaceOnUse"><path d="M174.233 381.986h37.417v-37.417h-37.417z"/></clipPath><clipPath id="i" clipPathUnits="userSpaceOnUse"><path d="M175.065 350.651h16.828v26.769h-16.828z"/></clipPath><clipPath id="j" clipPathUnits="userSpaceOnUse"><path d="M190.321 352.512a.382.382 0 01.223-.297l-2.432 19.094c-.134.071-.208.173-.224.297z"/></clipPath><clipPath id="k" clipPathUnits="userSpaceOnUse"><path d="M175.189 351.335h18.328v27.454h-18.328z"/></clipPath><clipPath id="l" clipPathUnits="userSpaceOnUse"><path d="M176.775 377.261c-.458-.353-.729-.703-.705-.883l2.432-19.094c-.023.18.248.53.706.881.578.445 1.24.729 1.474.631l-2.433 19.094a.284.284 0 01-.116.02c-.294 0-.857-.264-1.358-.649"/></clipPath><clipPath id="m" clipPathUnits="userSpaceOnUse"><path d="M190.321 352.512a.382.382 0 01.223-.297l-2.432 19.094c-.134.071-.208.173-.224.297z"/></clipPath><clipPath id="n" clipPathUnits="userSpaceOnUse"><path d="M175.189 351.335h18.328v27.454h-18.328z"/></clipPath><clipPath id="o" clipPathUnits="userSpaceOnUse"><path d="M176.775 377.261c-.458-.353-.729-.703-.705-.883l2.432-19.094c-.023.18.248.53.706.881.578.445 1.24.729 1.474.631l-2.433 19.094a.284.284 0 01-.116.02c-.294 0-.857-.264-1.358-.649"/></clipPath><clipPath id="p" clipPathUnits="userSpaceOnUse"><path d="M190.321 352.512a.382.382 0 01.223-.297l-2.432 19.094c-.134.071-.208.173-.224.297z"/></clipPath><clipPath id="q" clipPathUnits="userSpaceOnUse"><path d="M175.189 351.335h18.328v27.454h-18.328z"/></clipPath><clipPath id="r" clipPathUnits="userSpaceOnUse"><path d="M176.775 377.261c-.458-.353-.729-.703-.705-.883l2.432-19.094c-.023.18.248.53.706.881.578.445 1.24.729 1.474.631l-2.433 19.094a.284.284 0 01-.116.02c-.294 0-.857-.264-1.358-.649"/></clipPath><clipPath id="s" clipPathUnits="userSpaceOnUse"><path d="M179.773 381.967s-5.612 0-5.612-5.613v-26.195c.001-.171.087-5.609 5.612-5.609h26.192s5.613 0 5.613 5.612v26.192s0 5.613-5.613 5.613z"/></clipPath><clipPath id="t" clipPathUnits="userSpaceOnUse"><path d="M175.64 376.389l2.51-19.702c-.081 1.527 2.629 2.102 2.771 2.133l-2.51 19.7c-.143-.029-2.852-.606-2.771-2.131"/></clipPath><clipPath id="u" clipPathUnits="userSpaceOnUse"><path d="M179.773 381.967s-5.612 0-5.612-5.613v-26.195c.001-.171.087-5.609 5.612-5.609h26.192s5.613 0 5.613 5.612v26.192s0 5.613-5.613 5.613z"/></clipPath><clipPath id="v" clipPathUnits="userSpaceOnUse"><path d="M175.64 376.389l2.51-19.702c-.081 1.527 2.629 2.102 2.771 2.133l-2.51 19.7c-.143-.029-2.852-.606-2.771-2.131"/></clipPath><clipPath id="w" clipPathUnits="userSpaceOnUse"><path d="M179.773 381.967s-5.612 0-5.612-5.613v-26.195c.001-.171.087-5.609 5.612-5.609h26.192s5.613 0 5.613 5.612v26.192s0 5.613-5.613 5.613z"/></clipPath><clipPath id="x" clipPathUnits="userSpaceOnUse"><path d="M175.64 376.389l2.51-19.702c-.081 1.527 2.629 2.102 2.771 2.133l-2.51 19.7c-.143-.029-2.852-.606-2.771-2.131"/></clipPath><clipPath id="y" clipPathUnits="userSpaceOnUse"><path d="M179.773 381.967s-5.612 0-5.612-5.613v-26.195c.001-.171.087-5.609 5.612-5.609h26.192s5.613 0 5.613 5.612v26.192s0 5.613-5.613 5.613z"/></clipPath><clipPath id="z" clipPathUnits="userSpaceOnUse"><path d="M175.065 350.651h16.828v26.769h-16.828z"/></clipPath><clipPath id="A" clipPathUnits="userSpaceOnUse"><path d="M190.321 352.512a.382.382 0 01.223-.297l-2.432 19.094c-.134.071-.208.173-.224.297z"/></clipPath><clipPath id="B" clipPathUnits="userSpaceOnUse"><path d="M175.189 351.335h18.328v27.454h-18.328z"/></clipPath><clipPath id="C" clipPathUnits="userSpaceOnUse"><path d="M176.775 377.261c-.458-.353-.729-.703-.705-.883l2.432-19.094c-.023.18.248.53.706.881.578.445 1.24.729 1.474.631l-2.433 19.094a.284.284 0 01-.116.02c-.294 0-.857-.264-1.358-.649"/></clipPath><clipPath id="D" clipPathUnits="userSpaceOnUse"><path d="M190.321 352.512a.382.382 0 01.223-.297l-2.432 19.094c-.134.071-.208.173-.224.297z"/></clipPath><clipPath id="E" clipPathUnits="userSpaceOnUse"><path d="M175.189 351.335h18.328v27.454h-18.328z"/></clipPath><clipPath id="F" clipPathUnits="userSpaceOnUse"><path d="M176.775 377.261c-.458-.353-.729-.703-.705-.883l2.432-19.094c-.023.18.248.53.706.881.578.445 1.24.729 1.474.631l-2.433 19.094a.284.284 0 01-.116.02c-.294 0-.857-.264-1.358-.649"/></clipPath><clipPath id="G" clipPathUnits="userSpaceOnUse"><path d="M190.321 352.512a.382.382 0 01.223-.297l-2.432 19.094c-.134.071-.208.173-.224.297z"/></clipPath><clipPath id="H" clipPathUnits="userSpaceOnUse"><path d="M175.189 351.335h18.328v27.454h-18.328z"/></clipPath><clipPath id="I" clipPathUnits="userSpaceOnUse"><path d="M176.775 377.261c-.458-.353-.729-.703-.705-.883l2.432-19.094c-.023.18.248.53.706.881.578.445 1.24.729 1.474.631l-2.433 19.094a.284.284 0 01-.116.02c-.294 0-.857-.264-1.358-.649"/></clipPath><clipPath id="J" clipPathUnits="userSpaceOnUse"><path d="M179.773 381.967s-5.612 0-5.612-5.613v-26.195c.001-.171.087-5.609 5.612-5.609h26.192s5.613 0 5.613 5.612v26.192s0 5.613-5.613 5.613z"/></clipPath><clipPath id="K" clipPathUnits="userSpaceOnUse"><path d="M175.64 376.389l2.51-19.702c-.081 1.527 2.629 2.102 2.771 2.133l-2.51 19.7c-.143-.029-2.852-.606-2.771-2.131"/></clipPath><clipPath id="L" clipPathUnits="userSpaceOnUse"><path d="M179.773 381.967s-5.612 0-5.612-5.613v-26.195c.001-.171.087-5.609 5.612-5.609h26.192s5.613 0 5.613 5.612v26.192s0 5.613-5.613 5.613z"/></clipPath><clipPath id="M" clipPathUnits="userSpaceOnUse"><path d="M175.64 376.389l2.51-19.702c-.081 1.527 2.629 2.102 2.771 2.133l-2.51 19.7c-.143-.029-2.852-.606-2.771-2.131"/></clipPath><clipPath id="N" clipPathUnits="userSpaceOnUse"><path d="M179.773 381.967s-5.612 0-5.612-5.613v-26.195c.001-.171.087-5.609 5.612-5.609h26.192s5.613 0 5.613 5.612v26.192s0 5.613-5.613 5.613z"/></clipPath><clipPath id="O" clipPathUnits="userSpaceOnUse"><path d="M175.64 376.389l2.51-19.702c-.081 1.527 2.629 2.102 2.771 2.133l-2.51 19.7c-.143-.029-2.852-.606-2.771-2.131"/></clipPath><clipPath id="P" clipPathUnits="userSpaceOnUse"><path d="M179.773 381.967s-5.612 0-5.612-5.613v-26.195c.001-.171.087-5.609 5.612-5.609h26.192s5.613 0 5.613 5.612v26.192s0 5.613-5.613 5.613z"/></clipPath><clipPath id="Q" clipPathUnits="userSpaceOnUse"><path d="M175.065 350.651h16.828v26.769h-16.828z"/></clipPath><clipPath id="R" clipPathUnits="userSpaceOnUse"><path d="M190.321 352.512a.382.382 0 01.223-.297l-2.432 19.094c-.134.071-.208.173-.224.297z"/></clipPath><clipPath id="S" clipPathUnits="userSpaceOnUse"><path d="M175.189 351.335h18.328v27.454h-18.328z"/></clipPath><clipPath id="T" clipPathUnits="userSpaceOnUse"><path d="M176.775 377.261c-.458-.353-.729-.703-.705-.883l2.432-19.094c-.023.18.248.53.706.881.578.445 1.24.729 1.474.631l-2.433 19.094a.284.284 0 01-.116.02c-.294 0-.857-.264-1.358-.649"/></clipPath><clipPath id="U" clipPathUnits="userSpaceOnUse"><path d="M190.321 352.512a.382.382 0 01.223-.297l-2.432 19.094c-.134.071-.208.173-.224.297z"/></clipPath><clipPath id="V" clipPathUnits="userSpaceOnUse"><path d="M175.189 351.335h18.328v27.454h-18.328z"/></clipPath><clipPath id="W" clipPathUnits="userSpaceOnUse"><path d="M176.775 377.261c-.458-.353-.729-.703-.705-.883l2.432-19.094c-.023.18.248.53.706.881.578.445 1.24.729 1.474.631l-2.433 19.094a.284.284 0 01-.116.02c-.294 0-.857-.264-1.358-.649"/></clipPath><clipPath id="X" clipPathUnits="userSpaceOnUse"><path d="M190.321 352.512a.382.382 0 01.223-.297l-2.432 19.094c-.134.071-.208.173-.224.297z"/></clipPath><clipPath id="Y" clipPathUnits="userSpaceOnUse"><path d="M175.189 351.335h18.328v27.454h-18.328z"/></clipPath><clipPath id="Z" clipPathUnits="userSpaceOnUse"><path d="M176.775 377.261c-.458-.353-.729-.703-.705-.883l2.432-19.094c-.023.18.248.53.706.881.578.445 1.24.729 1.474.631l-2.433 19.094a.284.284 0 01-.116.02c-.294 0-.857-.264-1.358-.649"/></clipPath><clipPath id="aa" clipPathUnits="userSpaceOnUse"><path d="M179.773 381.967s-5.612 0-5.612-5.613v-26.195c.001-.171.087-5.609 5.612-5.609h26.192s5.613 0 5.613 5.612v26.192s0 5.613-5.613 5.613z"/></clipPath><clipPath id="ab" clipPathUnits="userSpaceOnUse"><path d="M175.64 376.389l2.51-19.702c-.081 1.527 2.629 2.102 2.771 2.133l-2.51 19.7c-.143-.029-2.852-.606-2.771-2.131"/></clipPath><clipPath id="ac" clipPathUnits="userSpaceOnUse"><path d="M179.773 381.967s-5.612 0-5.612-5.613v-26.195c.001-.171.087-5.609 5.612-5.609h26.192s5.613 0 5.613 5.612v26.192s0 5.613-5.613 5.613z"/></clipPath><clipPath id="ad" clipPathUnits="userSpaceOnUse"><path d="M175.64 376.389l2.51-19.702c-.081 1.527 2.629 2.102 2.771 2.133l-2.51 19.7c-.143-.029-2.852-.606-2.771-2.131"/></clipPath><clipPath id="aU" clipPathUnits="userSpaceOnUse"><path d="M179.773 381.967s-5.612 0-5.612-5.613v-26.195c.001-.171.087-5.609 5.612-5.609h26.192s5.613 0 5.613 5.612v26.192s0 5.613-5.613 5.613z"/></clipPath><clipPath id="af" clipPathUnits="userSpaceOnUse"><path d="M175.64 376.389l2.51-19.702c-.081 1.527 2.629 2.102 2.771 2.133l-2.51 19.7c-.143-.029-2.852-.606-2.771-2.131"/></clipPath><clipPath id="ag" clipPathUnits="userSpaceOnUse"><path d="M179.773 381.967s-5.612 0-5.612-5.613v-26.195c.001-.171.087-5.609 5.612-5.609h26.192s5.613 0 5.613 5.612v26.192s0 5.613-5.613 5.613z"/></clipPath><clipPath id="ah" clipPathUnits="userSpaceOnUse"><path d="M175.505 351.091h15.948v25.889h-15.948z"/></clipPath><clipPath id="ak" clipPathUnits="userSpaceOnUse"><path d="M175.945 351.531h15.068v25.008h-15.068z"/></clipPath><clipPath id="aj" clipPathUnits="userSpaceOnUse"><path d="M175.945 376.539h15.068v-25.008h-15.068z"/></clipPath><clipPath id="ai" clipPathUnits="userSpaceOnUse"><path d="M179.773 381.967s-5.612 0-5.612-5.613v-26.195c.001-.171.087-5.609 5.612-5.609h26.192s5.613 0 5.613 5.612v26.192s0 5.613-5.613 5.613z"/></clipPath><clipPath id="al" clipPathUnits="userSpaceOnUse"><path d="M190.321 352.512a.382.382 0 01.223-.297l-2.432 19.094c-.134.071-.208.173-.224.297z"/></clipPath><clipPath id="am" clipPathUnits="userSpaceOnUse"><path d="M175.848 351.995h17.008v26.135h-17.008z"/></clipPath><clipPath id="an" clipPathUnits="userSpaceOnUse"><path d="M176.775 377.261c-.458-.353-.729-.703-.705-.883l2.432-19.094c-.023.18.248.53.706.881.578.445 1.24.729 1.474.631l-2.433 19.094a.284.284 0 01-.116.02c-.294 0-.857-.264-1.358-.649"/></clipPath><clipPath id="aA" clipPathUnits="userSpaceOnUse"><path d="M176.068 353.726h16.568v24.183h-16.568z"/></clipPath><clipPath id="az" clipPathUnits="userSpaceOnUse"><path d="M176.068 377.91h16.569v-24.184h-16.569z"/></clipPath><clipPath id="ay" clipPathUnits="userSpaceOnUse"><path d="M176.775 377.261c-.458-.353-.729-.703-.705-.883l2.432-19.094c-.023.18.248.53.706.881.578.445 1.24.729 1.474.631l-2.433 19.094a.302.302 0 01-.116.02c-.294 0-.857-.264-1.358-.649"/></clipPath><clipPath id="ax" clipPathUnits="userSpaceOnUse"><path d="M176.068 377.91h16.569v-24.184h-16.569z"/></clipPath><clipPath id="aw" clipPathUnits="userSpaceOnUse"><path d="M176.068 352.215h16.568v25.695h-16.568z"/></clipPath><clipPath id="au" clipPathUnits="userSpaceOnUse"><path d="M187.888 352.215h2.657v19.392h-2.657z"/></clipPath><clipPath id="at" clipPathUnits="userSpaceOnUse"><path d="M187.888 371.607h2.656v-19.392h-2.656z"/></clipPath><clipPath id="as" clipPathUnits="userSpaceOnUse"><path d="M190.321 352.512a.382.382 0 01.223-.297l-2.432 19.094c-.134.071-.208.173-.224.297z"/></clipPath><clipPath id="ar" clipPathUnits="userSpaceOnUse"><path d="M187.888 371.607h2.656v-19.392h-2.656z"/></clipPath><clipPath id="aq" clipPathUnits="userSpaceOnUse"><path d="M176.068 352.215h16.568v25.695h-16.568z"/></clipPath><clipPath id="ap" clipPathUnits="userSpaceOnUse"><path d="M176.068 377.91h16.569v-25.695h-16.569z"/></clipPath><clipPath id="ao" clipPathUnits="userSpaceOnUse"><path d="M179.773 381.967s-5.612 0-5.612-5.613v-26.195c.001-.171.087-5.609 5.612-5.609h26.192s5.613 0 5.613 5.612v26.192s0 5.613-5.613 5.613z"/></clipPath><clipPath id="aD" clipPathUnits="userSpaceOnUse"><path d="M175.639 378.52h5.281v-21.833h-5.281z"/></clipPath><clipPath id="aC" clipPathUnits="userSpaceOnUse"><path d="M179.773 381.967s-5.612 0-5.612-5.613v-26.195c.001-.171.087-5.609 5.612-5.609h26.192s5.613 0 5.613 5.612v26.192s0 5.613-5.613 5.613z"/></clipPath><clipPath id="a" clipPathUnits="userSpaceOnUse"><path d="M-14243.7 14761.9h28835.2v-28835.2h-28835.2z"/></clipPath><clipPath id="aG" clipPathUnits="userSpaceOnUse"><path d="M181.409 358.912c-2.424 19.308 9.441 14.338 9.441 14.338l-11.884 4.948z"/></clipPath><clipPath id="c" clipPathUnits="userSpaceOnUse"><path d="M-14243.7 14761.9h28835.2v-28835.2h-28835.2z"/></clipPath><clipPath id="aJ" clipPathUnits="userSpaceOnUse"><path d="M175.861 376.288c1.404 5.001 4.837-17.373 4.837-17.373l-2.43 19.215c-2.434-.06-2.407-1.842-2.407-1.842"/></clipPath><clipPath id="aN" clipPathUnits="userSpaceOnUse"><path d="M179.773 381.967s-5.612 0-5.612-5.613v-26.195c.001-.171.087-5.609 5.612-5.609h26.192s5.613 0 5.613 5.612v26.192s0 5.613-5.613 5.613z"/></clipPath><clipPath id="aP" clipPathUnits="userSpaceOnUse"><path d="M179.773 381.967s-5.612 0-5.612-5.613v-26.195c.001-.171.087-5.609 5.612-5.609h26.192s5.613 0 5.613 5.612v26.192s0 5.613-5.613 5.613z"/></clipPath><clipPath id="e" clipPathUnits="userSpaceOnUse"><path d="M-14243.7 14761.9h28835.2v-28835.2h-28835.2z"/></clipPath><clipPath id="aQ" clipPathUnits="userSpaceOnUse"><path d="M205.174 371.747h-.001zm-6.496 0c-2.337 0-2.023-1.798-2.023-1.798v-22.868c0 24.572 8.402 24.666 8.518 24.666z"/></clipPath><linearGradient id="aI" spreadMethod="pad" gradientTransform="scale(12.43238 -12.43238) rotate(7.578 231.164 93.095)" gradientUnits="userSpaceOnUse" y2="0" x2="1" y1="0" x1="0"><stop offset="0" stop-color="#bf935b"/><stop offset="1" stop-color="#bf935b"/></linearGradient><linearGradient id="aT" spreadMethod="pad" gradientTransform="matrix(0 30.3834 30.3834 0 207.47 340.644)" gradientUnits="userSpaceOnUse" y2="0" x2="1" y1="0" x1="0"><stop offset="0" stop-color="#bdbcbc"/><stop offset="1" stop-color="#fff"/></linearGradient><linearGradient id="aS" spreadMethod="pad" gradientTransform="scale(16.78862 -16.78862) rotate(45 32.156 2.945)" gradientUnits="userSpaceOnUse" y2="0" x2="1" y1="0" x1="0"><stop offset="0" stop-color="#fff"/><stop offset="1" stop-color="#fff"/></linearGradient><linearGradient id="aO" spreadMethod="pad" gradientTransform="matrix(15.69422 0 0 -15.69422 197.327 372.99)" gradientUnits="userSpaceOnUse" y2="0" x2="1" y1="0" x1="0"><stop offset="0" stop-color="#e9e9e9"/><stop offset="1" stop-color="#918f90"/></linearGradient><linearGradient id="aM" spreadMethod="pad" gradientTransform="matrix(17.79065 0 0 -17.79065 196.102 358.09)" gradientUnits="userSpaceOnUse" y2="0" x2="1" y1="0" x1="0"><stop offset="0" stop-color="#ed1c24"/><stop offset="1" stop-color="#730b0e"/></linearGradient><linearGradient id="d" spreadMethod="pad" gradientTransform="scale(-18.72613 18.72613) rotate(-82.422 6.726 15.569)" gradientUnits="userSpaceOnUse" y2="0" x2="1" y1="0" x1="0"><stop offset="0" stop-opacity=".3" stop-color="#fff"/><stop offset="1" stop-opacity="0" stop-color="#fff"/></linearGradient><linearGradient id="aL" spreadMethod="pad" gradientTransform="scale(-18.72613 18.72613) rotate(-82.422 6.726 15.569)" gradientUnits="userSpaceOnUse" y2="0" x2="1" y1="0" x1="0"><stop offset="0" stop-color="#bf935b"/><stop offset="1" stop-color="#bf935b"/></linearGradient><linearGradient id="g" spreadMethod="pad" gradientTransform="scale(52.91605 -52.91605) rotate(45 10.359 .364)" gradientUnits="userSpaceOnUse" y2="0" x2="1" y1="0" x1="0"><stop offset="0" stop-color="#00adef"/><stop offset="1" stop-color="#fff"/></linearGradient><linearGradient id="b" spreadMethod="pad" gradientTransform="scale(12.43238 -12.43238) rotate(7.578 231.164 93.095)" gradientUnits="userSpaceOnUse" y2="0" x2="1" y1="0" x1="0"><stop offset="0" stop-opacity="0" stop-color="#fff"/><stop offset="1" stop-color="#fff"/></linearGradient><linearGradient id="f" spreadMethod="pad" gradientTransform="scale(16.78862 -16.78862) rotate(45 32.156 2.945)" gradientUnits="userSpaceOnUse" y2="0" x2="1" y1="0" x1="0"><stop offset="0" stop-color="#fff"/><stop offset="1" stop-opacity="0" stop-color="#fff"/></linearGradient><linearGradient id="aE" spreadMethod="pad" gradientTransform="scale(17.74965 -17.74965) rotate(52.578 26.243 -.711)" gradientUnits="userSpaceOnUse" y2="0" x2="1" y1="0" x1="0"><stop offset="0" stop-color="#76411c"/><stop offset="1" stop-color="#99603c"/></linearGradient><linearGradient id="aF" spreadMethod="pad" gradientTransform="scale(13.4744 -13.4744) rotate(-37.422 -33.44 -32.424)" gradientUnits="userSpaceOnUse" y2="0" x2="1" y1="0" x1="0"><stop offset="0" stop-color="#76411c"/><stop offset="1" stop-color="#99603c"/></linearGradient><linearGradient id="aB" spreadMethod="pad" gradientTransform="scale(-22.64969 22.64969) rotate(-82.422 5.368 13.06)" gradientUnits="userSpaceOnUse" y2="0" x2="1" y1="0" x1="0"><stop offset="0" stop-color="#9e633e"/><stop offset=".373" stop-color="#9e633e"/><stop offset="1" stop-color="#814e2a"/></linearGradient><linearGradient id="av" spreadMethod="pad" gradientTransform="scale(11.61467 -11.61467) rotate(52.578 39.228 .347)" gradientUnits="userSpaceOnUse" y2="0" x2="1" y1="0" x1="0"><stop offset="0" stop-color="#bdbcbc"/><stop offset=".627" stop-color="#fff"/><stop offset="1" stop-color="#fff"/></linearGradient><linearGradient id="h" spreadMethod="pad" gradientTransform="scale(52.91605 -52.91605) rotate(45 10.359 .364)" gradientUnits="userSpaceOnUse" y2="0" x2="1" y1="0" x1="0"><stop offset="0" stop-color="#f9a72b"/><stop offset="1" stop-color="#f14624"/></linearGradient><linearGradient id="aW" spreadMethod="pad" gradientTransform="scale(52.91647 -52.91647) rotate(45 10.36 .365)" gradientUnits="userSpaceOnUse" y2="0" x2="1" y1="0" x1="0"><stop offset="0" stop-color="#f9a72b"/><stop offset="1" stop-color="#f14624"/></linearGradient><mask id="aH" height="1" width="1" y="0" x="0" maskUnits="userSpaceOnUse"><g clip-path="url(#a)"><path d="M179.172 379.774l14.202-1.889-2.731-20.527-14.201 1.889z" fill="url(#b)"/></g></mask><mask id="aK" height="1" width="1" y="0" x="0" maskUnits="userSpaceOnUse"><g clip-path="url(#c)"><path d="M183.623 380.9l-3.009-22.621-7.704 1.025 3.009 22.621z" fill="url(#d)"/></g></mask><mask id="aR" height="1" width="1" y="0" x="0" maskUnits="userSpaceOnUse"><g clip-path="url(#e)"><path d="M200.758 376.163l16.749-16.749-16.749-16.749-16.749 16.749z" fill="url(#f)"/></g></mask></defs><path d="M179.773 381.967s-5.612 0-5.612-5.613v-26.195c.001-.171.087-5.609 5.612-5.609h26.192s5.613 0 5.613 5.612v26.192s0 5.613-5.613 5.613z" fill="url(#g)" transform="matrix(.62536 0 0 -.62538 -107.384 240.403)"/><path d="M179.773 381.967s-5.612 0-5.612-5.613v-26.195c.001-.171.087-5.609 5.612-5.609h26.192s5.613 0 5.613 5.612v26.192s0 5.613-5.613 5.613z" fill="url(#h)" transform="matrix(.62536 0 0 -.62538 -107.384 240.403)"/><g clip-path="url(#i)" transform="matrix(.62536 0 0 -.62538 -107.384 240.403)" fill="none" stroke="#fff" stroke-width="1.76" stroke-linecap="round" stroke-linejoin="round"><path d="M191.013 351.719l-.244-.188-12.314 5.12.244.188z"/><path d="M178.456 356.65l-2.51 19.7.244.189 2.51-19.7z"/><path d="M178.7 356.839l-2.51 19.7 12.313-5.12 2.51-19.7z"/><path d="M191.013 351.719l-.244-.188-12.314 5.12.244.188z"/><path d="M178.456 356.65l-2.51 19.7.244.189 2.51-19.7z"/><path d="M178.7 356.839l-2.51 19.7 12.313-5.12 2.51-19.7z"/><path d="M191.013 351.719l-.244-.188-12.314 5.12.244.188z"/><path d="M178.456 356.65l-2.51 19.7.244.189 2.51-19.7z"/><path d="M178.7 356.839l-2.51 19.7 12.313-5.12 2.51-19.7z"/></g><g clip-path="url(#j)" transform="matrix(.62536 0 0 -.62538 -107.384 240.403)"><path d="M190.32 352.512l-2.432 19.095a.384.384 0 01.224-.297l2.433-19.095c-.135.07-.21.173-.224.297" fill="none" stroke="#fff" stroke-width="1.76" stroke-linecap="round" stroke-linejoin="round"/></g><g clip-path="url(#k)" transform="matrix(.62536 0 0 -.62538 -107.384 240.403)" fill="none" stroke="#fff" stroke-width="1.76" stroke-linecap="round" stroke-linejoin="round"><path d="M180.683 358.796l-2.433 19.095 11.954-4.971 2.433-19.095z"/><path d="M192.637 353.825c-.46.145-1.246-.063-1.804-.492-.557-.43-.676-.918-.288-1.118l-11.96 4.965c-.236.098.044.54.624.985.577.445 1.239.728 1.474.631z"/></g><g clip-path="url(#l)" transform="matrix(.62536 0 0 -.62538 -107.384 240.403)"><path d="M178.502 357.284c-.023.18.247.53.706.882.577.445-.959 19.724-.959 19.724-.235.098-.896-.184-1.474-.63-.458-.351-.729-.702-.706-.881l2.433-19.095s.988 2.259 13.06-3.557c0 0 .514.099 1.074.099l-13.088 5.82" fill="none" stroke="#fff" stroke-width="1.76" stroke-linecap="round" stroke-linejoin="round"/></g><g clip-path="url(#m)" transform="matrix(.62536 0 0 -.62538 -107.384 240.403)"><path d="M190.32 352.512l-2.432 19.095a.384.384 0 01.224-.297l2.433-19.095c-.135.07-.21.173-.224.297" fill="none" stroke="#fff" stroke-width="1.76" stroke-linecap="round" stroke-linejoin="round"/></g><g clip-path="url(#n)" transform="matrix(.62536 0 0 -.62538 -107.384 240.403)" fill="none" stroke="#fff" stroke-width="1.76" stroke-linecap="round" stroke-linejoin="round"><path d="M180.683 358.796l-2.433 19.095 11.954-4.971 2.433-19.095z"/><path d="M192.637 353.825c-.46.145-1.246-.063-1.804-.492-.557-.43-.676-.918-.288-1.118l-11.96 4.965c-.236.098.044.54.624.985.577.445 1.239.728 1.474.631z"/></g><g clip-path="url(#o)" transform="matrix(.62536 0 0 -.62538 -107.384 240.403)"><path d="M178.502 357.284c-.023.18.247.53.706.882.577.445-.959 19.724-.959 19.724-.235.098-.896-.184-1.474-.63-.458-.351-.729-.702-.706-.881l2.433-19.095s.988 2.259 13.06-3.557c0 0 .514.099 1.074.099l-13.088 5.82" fill="none" stroke="#fff" stroke-width="1.76" stroke-linecap="round" stroke-linejoin="round"/></g><g clip-path="url(#p)" transform="matrix(.62536 0 0 -.62538 -107.384 240.403)"><path d="M190.32 352.512l-2.432 19.095a.384.384 0 01.224-.297l2.433-19.095c-.135.07-.21.173-.224.297" fill="none" stroke="#fff" stroke-width="1.76" stroke-linecap="round" stroke-linejoin="round"/></g><g clip-path="url(#q)" transform="matrix(.62536 0 0 -.62538 -107.384 240.403)" fill="none" stroke="#fff" stroke-width="1.76" stroke-linecap="round" stroke-linejoin="round"><path d="M180.683 358.796l-2.433 19.095 11.954-4.971 2.433-19.095z"/><path d="M192.637 353.825c-.46.145-1.246-.063-1.804-.492-.557-.43-.676-.918-.288-1.118l-11.96 4.965c-.236.098.044.54.624.985.577.445 1.239.728 1.474.631z"/></g><g clip-path="url(#r)" transform="matrix(.62536 0 0 -.62538 -107.384 240.403)"><path d="M178.502 357.284c-.023.18.247.53.706.882.577.445-.959 19.724-.959 19.724-.235.098-.896-.184-1.474-.63-.458-.351-.729-.702-.706-.881l2.433-19.095s.988 2.259 13.06-3.557c0 0 .514.099 1.074.099l-13.088 5.82" fill="none" stroke="#fff" stroke-width="1.76" stroke-linecap="round" stroke-linejoin="round"/></g><g clip-path="url(#s)" transform="matrix(.62536 0 0 -.62538 -107.384 240.403)" fill="none" stroke="#fff" stroke-width="1.76" stroke-linecap="round" stroke-linejoin="round"><path d="M181.074 358.655l12.313-5.12.243.186-2.51 19.701-12.315 5.12a.724.724 0 00-.081-.025c-.006 0-.012-.003-.017-.004-.023-.004-.043-.008-.061-.009h-.014l-.026.001a.209.209 0 00-.068.014.135.135 0 00-.046.031l-.008.01-.01.011a5.968 5.968 0 01-.456-.117c-.012-.003-.026-.008-.04-.01a.161.161 0 00-.028-.01l-.161-.052-.072-.024a4.375 4.375 0 01-.148-.053l-.081-.03a4.205 4.205 0 01-.19-.077l-.042-.016c-.006-.004-.013-.006-.02-.009-.03-.013-.061-.029-.091-.043a4.846 4.846 0 01-.163-.077c-.038-.019-.075-.04-.113-.06-.052-.028-.104-.056-.156-.087l-.11-.069a3.14 3.14 0 01-.146-.099c-.034-.026-.07-.052-.102-.078a2.872 2.872 0 01-.221-.199c-.04-.04-.076-.084-.112-.127-.025-.032-.05-.06-.073-.094a1.44 1.44 0 01-.087-.146c-.018-.033-.037-.063-.052-.097a1.22 1.22 0 01-.058-.177c-.01-.03-.02-.059-.026-.09a1.158 1.158 0 01-.021-.29l2.509-19.702.409.03c0 .066.023 1.3 2.45 1.887z"/><path d="M191.056 373.372l-12.314 5.12 2.51-19.702 12.314-5.12z"/></g><g clip-path="url(#t)" transform="matrix(.62536 0 0 -.62538 -107.384 240.403)"><path d="M179.683 358.421a6.604 6.604 0 001.238.398l-2.51 19.701a5.507 5.507 0 01-.456-.117 6.654 6.654 0 01-.783-.28c-.758-.332-1.577-.886-1.531-1.735l2.51-19.7c-.046.847.772 1.403 1.532 1.733z" fill="none" stroke="#fff" stroke-width="1.76" stroke-linecap="round" stroke-linejoin="round"/></g><g clip-path="url(#u)" transform="matrix(.62536 0 0 -.62538 -107.384 240.403)" fill="none" stroke="#fff" stroke-width="1.76" stroke-linecap="round" stroke-linejoin="round"><path d="M181.01 358.605l12.313-5.12.243.185-12.314 5.12-2.51 19.702a.724.724 0 00-.082-.025l-.018-.005a.488.488 0 00-.06-.008l-.015-.001c-.009 0-.017 0-.025.002a.203.203 0 00-.068.014.131.131 0 00-.047.03l-.008.01-.009.012 2.51-19.701c-.142-.03-2.852-.607-2.77-2.133l.408.03c.001.066.023 1.3 2.452 1.888z"/><path d="M191.056 373.372l-12.314 5.12 2.51-19.702 12.314-5.12z"/></g><g clip-path="url(#v)" transform="matrix(.62536 0 0 -.62538 -107.384 240.403)"><path d="M179.683 358.421a6.604 6.604 0 001.238.398l-2.51 19.701a5.507 5.507 0 01-.456-.117 6.654 6.654 0 01-.783-.28c-.758-.332-1.577-.886-1.531-1.735l2.51-19.7c-.046.847.772 1.403 1.532 1.733z" fill="none" stroke="#fff" stroke-width="1.76" stroke-linecap="round" stroke-linejoin="round"/></g><g clip-path="url(#w)" transform="matrix(.62536 0 0 -.62538 -107.384 240.403)" fill="none" stroke="#fff" stroke-width="1.76" stroke-linecap="round" stroke-linejoin="round"><path d="M181.01 358.605l12.313-5.12.243.185-12.314 5.12-2.51 19.702a.724.724 0 00-.082-.025l-.018-.005a.488.488 0 00-.06-.008l-.015-.001c-.009 0-.017 0-.025.002a.203.203 0 00-.068.014.131.131 0 00-.047.03l-.008.01-.009.012 2.51-19.701c-.142-.03-2.852-.607-2.77-2.133l.408.03c.001.066.023 1.3 2.452 1.888z"/><path d="M191.056 373.372l-12.314 5.12 2.51-19.702 12.314-5.12z"/></g><g clip-path="url(#x)" transform="matrix(.62536 0 0 -.62538 -107.384 240.403)"><path d="M179.683 358.421a6.604 6.604 0 001.238.398l-2.51 19.701a5.507 5.507 0 01-.456-.117 6.654 6.654 0 01-.783-.28c-.758-.332-1.577-.886-1.531-1.735l2.51-19.7c-.046.847.772 1.403 1.532 1.733z" fill="none" stroke="#fff" stroke-width="1.76" stroke-linecap="round" stroke-linejoin="round"/></g><g clip-path="url(#y)" transform="matrix(.62536 0 0 -.62538 -107.384 240.403)" fill="none" stroke="#fff" stroke-width="1.76" stroke-linecap="round" stroke-linejoin="round"><path d="M181.01 358.605l12.313-5.12.243.185-12.314 5.12-2.51 19.702a.724.724 0 00-.082-.025l-.018-.005a.488.488 0 00-.06-.008l-.015-.001c-.009 0-.017 0-.025.002a.203.203 0 00-.068.014.131.131 0 00-.047.03l-.008.01-.009.012 2.51-19.701c-.142-.03-2.852-.607-2.77-2.133l.408.03c.001.066.023 1.3 2.452 1.888z"/><path d="M181.41 358.912l-2.444 19.286 11.884-4.947s-11.866 4.97-9.44-14.34zm-5.55 17.376s-.025 1.782 2.407 1.84l2.432-19.213s-3.434 22.374-4.838 17.373z"/></g><g clip-path="url(#z)" transform="matrix(.62536 0 0 -.62538 -107.384 240.403)" fill="none" stroke="#fff" stroke-width="1.76" stroke-linecap="round" stroke-linejoin="round"><path d="M191.013 351.719l-.244-.188-12.314 5.12.244.188z"/><path d="M178.456 356.65l-2.51 19.7.244.189 2.51-19.7z"/><path d="M178.7 356.839l-2.51 19.7 12.313-5.12 2.51-19.7z"/><path d="M191.013 351.719l-.244-.188-12.314 5.12.244.188z"/><path d="M178.456 356.65l-2.51 19.7.244.189 2.51-19.7z"/><path d="M178.7 356.839l-2.51 19.7 12.313-5.12 2.51-19.7z"/><path d="M191.013 351.719l-.244-.188-12.314 5.12.244.188z"/><path d="M178.456 356.65l-2.51 19.7.244.189 2.51-19.7z"/><path d="M178.7 356.839l-2.51 19.7 12.313-5.12 2.51-19.7z"/></g><g clip-path="url(#A)" transform="matrix(.62536 0 0 -.62538 -107.384 240.403)"><path d="M190.32 352.512l-2.432 19.095a.384.384 0 01.224-.297l2.433-19.095c-.135.07-.21.173-.224.297" fill="none" stroke="#fff" stroke-width="1.76" stroke-linecap="round" stroke-linejoin="round"/></g><g clip-path="url(#B)" transform="matrix(.62536 0 0 -.62538 -107.384 240.403)" fill="none" stroke="#fff" stroke-width="1.76" stroke-linecap="round" stroke-linejoin="round"><path d="M180.683 358.796l-2.433 19.095 11.954-4.971 2.433-19.095z"/><path d="M192.637 353.825c-.46.145-1.246-.063-1.804-.492-.557-.43-.676-.918-.288-1.118l-11.96 4.965c-.236.098.044.54.624.985.577.445 1.239.728 1.474.631z"/></g><g clip-path="url(#C)" transform="matrix(.62536 0 0 -.62538 -107.384 240.403)"><path d="M178.502 357.284c-.023.18.247.53.706.882.577.445-.959 19.724-.959 19.724-.235.098-.896-.184-1.474-.63-.458-.351-.729-.702-.706-.881l2.433-19.095s.988 2.259 13.06-3.557c0 0 .514.099 1.074.099l-13.088 5.82" fill="none" stroke="#fff" stroke-width="1.76" stroke-linecap="round" stroke-linejoin="round"/></g><g clip-path="url(#D)" transform="matrix(.62536 0 0 -.62538 -107.384 240.403)"><path d="M190.32 352.512l-2.432 19.095a.384.384 0 01.224-.297l2.433-19.095c-.135.07-.21.173-.224.297" fill="none" stroke="#fff" stroke-width="1.76" stroke-linecap="round" stroke-linejoin="round"/></g><g clip-path="url(#E)" transform="matrix(.62536 0 0 -.62538 -107.384 240.403)" fill="none" stroke="#fff" stroke-width="1.76" stroke-linecap="round" stroke-linejoin="round"><path d="M180.683 358.796l-2.433 19.095 11.954-4.971 2.433-19.095z"/><path d="M192.637 353.825c-.46.145-1.246-.063-1.804-.492-.557-.43-.676-.918-.288-1.118l-11.96 4.965c-.236.098.044.54.624.985.577.445 1.239.728 1.474.631z"/></g><g clip-path="url(#F)" transform="matrix(.62536 0 0 -.62538 -107.384 240.403)"><path d="M178.502 357.284c-.023.18.247.53.706.882.577.445-.959 19.724-.959 19.724-.235.098-.896-.184-1.474-.63-.458-.351-.729-.702-.706-.881l2.433-19.095s.988 2.259 13.06-3.557c0 0 .514.099 1.074.099l-13.088 5.82" fill="none" stroke="#fff" stroke-width="1.76" stroke-linecap="round" stroke-linejoin="round"/></g><g clip-path="url(#G)" transform="matrix(.62536 0 0 -.62538 -107.384 240.403)"><path d="M190.32 352.512l-2.432 19.095a.384.384 0 01.224-.297l2.433-19.095c-.135.07-.21.173-.224.297" fill="none" stroke="#fff" stroke-width="1.76" stroke-linecap="round" stroke-linejoin="round"/></g><g clip-path="url(#H)" transform="matrix(.62536 0 0 -.62538 -107.384 240.403)" fill="none" stroke="#fff" stroke-width="1.76" stroke-linecap="round" stroke-linejoin="round"><path d="M180.683 358.796l-2.433 19.095 11.954-4.971 2.433-19.095z"/><path d="M192.637 353.825c-.46.145-1.246-.063-1.804-.492-.557-.43-.676-.918-.288-1.118l-11.96 4.965c-.236.098.044.54.624.985.577.445 1.239.728 1.474.631z"/></g><g clip-path="url(#I)" transform="matrix(.62536 0 0 -.62538 -107.384 240.403)"><path d="M178.502 357.284c-.023.18.247.53.706.882.577.445-.959 19.724-.959 19.724-.235.098-.896-.184-1.474-.63-.458-.351-.729-.702-.706-.881l2.433-19.095s.988 2.259 13.06-3.557c0 0 .514.099 1.074.099l-13.088 5.82" fill="none" stroke="#fff" stroke-width="1.76" stroke-linecap="round" stroke-linejoin="round"/></g><g clip-path="url(#J)" transform="matrix(.62536 0 0 -.62538 -107.384 240.403)" fill="none" stroke="#fff" stroke-width="1.76" stroke-linecap="round" stroke-linejoin="round"><path d="M181.074 358.655l12.313-5.12.243.186-2.51 19.701-12.315 5.12a.724.724 0 00-.081-.025c-.006 0-.012-.003-.017-.004-.023-.004-.043-.008-.061-.009h-.014l-.026.001a.209.209 0 00-.068.014.135.135 0 00-.046.031l-.008.01-.01.011a5.968 5.968 0 01-.456-.117c-.012-.003-.026-.008-.04-.01a.161.161 0 00-.028-.01l-.161-.052-.072-.024a4.375 4.375 0 01-.148-.053l-.081-.03a4.205 4.205 0 01-.19-.077l-.042-.016c-.006-.004-.013-.006-.02-.009-.03-.013-.061-.029-.091-.043a4.846 4.846 0 01-.163-.077c-.038-.019-.075-.04-.113-.06-.052-.028-.104-.056-.156-.087l-.11-.069a3.14 3.14 0 01-.146-.099c-.034-.026-.07-.052-.102-.078a2.872 2.872 0 01-.221-.199c-.04-.04-.076-.084-.112-.127-.025-.032-.05-.06-.073-.094a1.44 1.44 0 01-.087-.146c-.018-.033-.037-.063-.052-.097a1.22 1.22 0 01-.058-.177c-.01-.03-.02-.059-.026-.09a1.158 1.158 0 01-.021-.29l2.509-19.702.409.03c0 .066.023 1.3 2.45 1.887z"/><path d="M191.056 373.372l-12.314 5.12 2.51-19.702 12.314-5.12z"/></g><g clip-path="url(#K)" transform="matrix(.62536 0 0 -.62538 -107.384 240.403)"><path d="M179.683 358.421a6.604 6.604 0 001.238.398l-2.51 19.701a5.507 5.507 0 01-.456-.117 6.654 6.654 0 01-.783-.28c-.758-.332-1.577-.886-1.531-1.735l2.51-19.7c-.046.847.772 1.403 1.532 1.733z" fill="none" stroke="#fff" stroke-width="1.76" stroke-linecap="round" stroke-linejoin="round"/></g><g clip-path="url(#L)" transform="matrix(.62536 0 0 -.62538 -107.384 240.403)" fill="none" stroke="#fff" stroke-width="1.76" stroke-linecap="round" stroke-linejoin="round"><path d="M181.01 358.605l12.313-5.12.243.185-12.314 5.12-2.51 19.702a.724.724 0 00-.082-.025l-.018-.005a.488.488 0 00-.06-.008l-.015-.001c-.009 0-.017 0-.025.002a.203.203 0 00-.068.014.131.131 0 00-.047.03l-.008.01-.009.012 2.51-19.701c-.142-.03-2.852-.607-2.77-2.133l.408.03c.001.066.023 1.3 2.452 1.888z"/><path d="M191.056 373.372l-12.314 5.12 2.51-19.702 12.314-5.12z"/></g><g clip-path="url(#M)" transform="matrix(.62536 0 0 -.62538 -107.384 240.403)"><path d="M179.683 358.421a6.604 6.604 0 001.238.398l-2.51 19.701a5.507 5.507 0 01-.456-.117 6.654 6.654 0 01-.783-.28c-.758-.332-1.577-.886-1.531-1.735l2.51-19.7c-.046.847.772 1.403 1.532 1.733z" fill="none" stroke="#fff" stroke-width="1.76" stroke-linecap="round" stroke-linejoin="round"/></g><g clip-path="url(#N)" transform="matrix(.62536 0 0 -.62538 -107.384 240.403)" fill="none" stroke="#fff" stroke-width="1.76" stroke-linecap="round" stroke-linejoin="round"><path d="M181.01 358.605l12.313-5.12.243.185-12.314 5.12-2.51 19.702a.724.724 0 00-.082-.025l-.018-.005a.488.488 0 00-.06-.008l-.015-.001c-.009 0-.017 0-.025.002a.203.203 0 00-.068.014.131.131 0 00-.047.03l-.008.01-.009.012 2.51-19.701c-.142-.03-2.852-.607-2.77-2.133l.408.03c.001.066.023 1.3 2.452 1.888z"/><path d="M191.056 373.372l-12.314 5.12 2.51-19.702 12.314-5.12z"/></g><g clip-path="url(#O)" transform="matrix(.62536 0 0 -.62538 -107.384 240.403)"><path d="M179.683 358.421a6.604 6.604 0 001.238.398l-2.51 19.701a5.507 5.507 0 01-.456-.117 6.654 6.654 0 01-.783-.28c-.758-.332-1.577-.886-1.531-1.735l2.51-19.7c-.046.847.772 1.403 1.532 1.733z" fill="none" stroke="#fff" stroke-width="1.76" stroke-linecap="round" stroke-linejoin="round"/></g><g clip-path="url(#P)" transform="matrix(.62536 0 0 -.62538 -107.384 240.403)" fill="none" stroke="#fff" stroke-width="1.76" stroke-linecap="round" stroke-linejoin="round"><path d="M181.01 358.605l12.313-5.12.243.185-12.314 5.12-2.51 19.702a.724.724 0 00-.082-.025l-.018-.005a.488.488 0 00-.06-.008l-.015-.001c-.009 0-.017 0-.025.002a.203.203 0 00-.068.014.131.131 0 00-.047.03l-.008.01-.009.012 2.51-19.701c-.142-.03-2.852-.607-2.77-2.133l.408.03c.001.066.023 1.3 2.452 1.888z"/><path d="M181.41 358.912l-2.444 19.286 11.884-4.947s-11.866 4.97-9.44-14.34zm-5.55 17.376s-.025 1.782 2.407 1.84l2.432-19.213s-3.434 22.374-4.838 17.373z"/></g><g clip-path="url(#Q)" transform="matrix(.62536 0 0 -.62538 -107.384 240.403)" fill="none" stroke="#fff" stroke-width="1.76" stroke-linecap="round" stroke-linejoin="round"><path d="M191.013 351.719l-.244-.188-12.314 5.12.244.188z"/><path d="M178.456 356.65l-2.51 19.7.244.189 2.51-19.7z"/><path d="M178.7 356.839l-2.51 19.7 12.313-5.12 2.51-19.7z"/><path d="M191.013 351.719l-.244-.188-12.314 5.12.244.188z"/><path d="M178.456 356.65l-2.51 19.7.244.189 2.51-19.7z"/><path d="M178.7 356.839l-2.51 19.7 12.313-5.12 2.51-19.7z"/><path d="M191.013 351.719l-.244-.188-12.314 5.12.244.188z"/><path d="M178.456 356.65l-2.51 19.7.244.189 2.51-19.7z"/><path d="M178.7 356.839l-2.51 19.7 12.313-5.12 2.51-19.7z"/></g><g clip-path="url(#R)" transform="matrix(.62536 0 0 -.62538 -107.384 240.403)"><path d="M190.32 352.512l-2.432 19.095a.384.384 0 01.224-.297l2.433-19.095c-.135.07-.21.173-.224.297" fill="none" stroke="#fff" stroke-width="1.76" stroke-linecap="round" stroke-linejoin="round"/></g><g clip-path="url(#S)" transform="matrix(.62536 0 0 -.62538 -107.384 240.403)" fill="none" stroke="#fff" stroke-width="1.76" stroke-linecap="round" stroke-linejoin="round"><path d="M180.683 358.796l-2.433 19.095 11.954-4.971 2.433-19.095z"/><path d="M192.637 353.825c-.46.145-1.246-.063-1.804-.492-.557-.43-.676-.918-.288-1.118l-11.96 4.965c-.236.098.044.54.624.985.577.445 1.239.728 1.474.631z"/></g><g clip-path="url(#T)" transform="matrix(.62536 0 0 -.62538 -107.384 240.403)"><path d="M178.502 357.284c-.023.18.247.53.706.882.577.445-.959 19.724-.959 19.724-.235.098-.896-.184-1.474-.63-.458-.351-.729-.702-.706-.881l2.433-19.095s.988 2.259 13.06-3.557c0 0 .514.099 1.074.099l-13.088 5.82" fill="none" stroke="#fff" stroke-width="1.76" stroke-linecap="round" stroke-linejoin="round"/></g><g clip-path="url(#U)" transform="matrix(.62536 0 0 -.62538 -107.384 240.403)"><path d="M190.32 352.512l-2.432 19.095a.384.384 0 01.224-.297l2.433-19.095c-.135.07-.21.173-.224.297" fill="none" stroke="#fff" stroke-width="1.76" stroke-linecap="round" stroke-linejoin="round"/></g><g clip-path="url(#V)" transform="matrix(.62536 0 0 -.62538 -107.384 240.403)" fill="none" stroke="#fff" stroke-width="1.76" stroke-linecap="round" stroke-linejoin="round"><path d="M180.683 358.796l-2.433 19.095 11.954-4.971 2.433-19.095z"/><path d="M192.637 353.825c-.46.145-1.246-.063-1.804-.492-.557-.43-.676-.918-.288-1.118l-11.96 4.965c-.236.098.044.54.624.985.577.445 1.239.728 1.474.631z"/></g><g clip-path="url(#W)" transform="matrix(.62536 0 0 -.62538 -107.384 240.403)"><path d="M178.502 357.284c-.023.18.247.53.706.882.577.445-.959 19.724-.959 19.724-.235.098-.896-.184-1.474-.63-.458-.351-.729-.702-.706-.881l2.433-19.095s.988 2.259 13.06-3.557c0 0 .514.099 1.074.099l-13.088 5.82" fill="none" stroke="#fff" stroke-width="1.76" stroke-linecap="round" stroke-linejoin="round"/></g><g clip-path="url(#X)" transform="matrix(.62536 0 0 -.62538 -107.384 240.403)"><path d="M190.32 352.512l-2.432 19.095a.384.384 0 01.224-.297l2.433-19.095c-.135.07-.21.173-.224.297" fill="none" stroke="#fff" stroke-width="1.76" stroke-linecap="round" stroke-linejoin="round"/></g><g clip-path="url(#Y)" transform="matrix(.62536 0 0 -.62538 -107.384 240.403)" fill="none" stroke="#fff" stroke-width="1.76" stroke-linecap="round" stroke-linejoin="round"><path d="M180.683 358.796l-2.433 19.095 11.954-4.971 2.433-19.095z"/><path d="M192.637 353.825c-.46.145-1.246-.063-1.804-.492-.557-.43-.676-.918-.288-1.118l-11.96 4.965c-.236.098.044.54.624.985.577.445 1.239.728 1.474.631z"/></g><g clip-path="url(#Z)" transform="matrix(.62536 0 0 -.62538 -107.384 240.403)"><path d="M178.502 357.284c-.023.18.247.53.706.882.577.445-.959 19.724-.959 19.724-.235.098-.896-.184-1.474-.63-.458-.351-.729-.702-.706-.881l2.433-19.095s.988 2.259 13.06-3.557c0 0 .514.099 1.074.099l-13.088 5.82" fill="none" stroke="#fff" stroke-width="1.76" stroke-linecap="round" stroke-linejoin="round"/></g><g clip-path="url(#aa)" transform="matrix(.62536 0 0 -.62538 -107.384 240.403)" fill="none" stroke="#fff" stroke-width="1.76" stroke-linecap="round" stroke-linejoin="round"><path d="M181.074 358.655l12.313-5.12.243.186-2.51 19.701-12.315 5.12a.724.724 0 00-.081-.025c-.006 0-.012-.003-.017-.004-.023-.004-.043-.008-.061-.009h-.014l-.026.001a.209.209 0 00-.068.014.135.135 0 00-.046.031l-.008.01-.01.011a5.968 5.968 0 01-.456-.117c-.012-.003-.026-.008-.04-.01a.161.161 0 00-.028-.01l-.161-.052-.072-.024a4.375 4.375 0 01-.148-.053l-.081-.03a4.205 4.205 0 01-.19-.077l-.042-.016c-.006-.004-.013-.006-.02-.009-.03-.013-.061-.029-.091-.043a4.846 4.846 0 01-.163-.077c-.038-.019-.075-.04-.113-.06-.052-.028-.104-.056-.156-.087l-.11-.069a3.14 3.14 0 01-.146-.099c-.034-.026-.07-.052-.102-.078a2.872 2.872 0 01-.221-.199c-.04-.04-.076-.084-.112-.127-.025-.032-.05-.06-.073-.094a1.44 1.44 0 01-.087-.146c-.018-.033-.037-.063-.052-.097a1.22 1.22 0 01-.058-.177c-.01-.03-.02-.059-.026-.09a1.158 1.158 0 01-.021-.29l2.509-19.702.409.03c0 .066.023 1.3 2.45 1.887z"/><path d="M191.056 373.372l-12.314 5.12 2.51-19.702 12.314-5.12z"/></g><g clip-path="url(#ab)" transform="matrix(.62536 0 0 -.62538 -107.384 240.403)"><path d="M179.683 358.421a6.604 6.604 0 001.238.398l-2.51 19.701a5.507 5.507 0 01-.456-.117 6.654 6.654 0 01-.783-.28c-.758-.332-1.577-.886-1.531-1.735l2.51-19.7c-.046.847.772 1.403 1.532 1.733z" fill="none" stroke="#fff" stroke-width="1.76" stroke-linecap="round" stroke-linejoin="round"/></g><g clip-path="url(#ac)" transform="matrix(.62536 0 0 -.62538 -107.384 240.403)" fill="none" stroke="#fff" stroke-width="1.76" stroke-linecap="round" stroke-linejoin="round"><path d="M181.01 358.605l12.313-5.12.243.185-12.314 5.12-2.51 19.702a.724.724 0 00-.082-.025l-.018-.005a.488.488 0 00-.06-.008l-.015-.001c-.009 0-.017 0-.025.002a.203.203 0 00-.068.014.131.131 0 00-.047.03l-.008.01-.009.012 2.51-19.701c-.142-.03-2.852-.607-2.77-2.133l.408.03c.001.066.023 1.3 2.452 1.888z"/><path d="M191.056 373.372l-12.314 5.12 2.51-19.702 12.314-5.12z"/></g><g clip-path="url(#ad)" transform="matrix(.62536 0 0 -.62538 -107.384 240.403)"><path d="M179.683 358.421a6.604 6.604 0 001.238.398l-2.51 19.701a5.507 5.507 0 01-.456-.117 6.654 6.654 0 01-.783-.28c-.758-.332-1.577-.886-1.531-1.735l2.51-19.7c-.046.847.772 1.403 1.532 1.733z" fill="none" stroke="#fff" stroke-width="1.76" stroke-linecap="round" stroke-linejoin="round"/></g><g clip-path="url(#ae)" transform="matrix(.62536 0 0 -.62538 -107.384 240.403)" fill="none" stroke="#fff" stroke-width="1.76" stroke-linecap="round" stroke-linejoin="round"><path d="M181.01 358.605l12.313-5.12.243.185-12.314 5.12-2.51 19.702a.724.724 0 00-.082-.025l-.018-.005a.488.488 0 00-.06-.008l-.015-.001c-.009 0-.017 0-.025.002a.203.203 0 00-.068.014.131.131 0 00-.047.03l-.008.01-.009.012 2.51-19.701c-.142-.03-2.852-.607-2.77-2.133l.408.03c.001.066.023 1.3 2.452 1.888z"/><path d="M191.056 373.372l-12.314 5.12 2.51-19.702 12.314-5.12z"/></g><g clip-path="url(#af)" transform="matrix(.62536 0 0 -.62538 -107.384 240.403)"><path d="M179.683 358.421a6.604 6.604 0 001.238.398l-2.51 19.701a5.507 5.507 0 01-.456-.117 6.654 6.654 0 01-.783-.28c-.758-.332-1.577-.886-1.531-1.735l2.51-19.7c-.046.847.772 1.403 1.532 1.733z" fill="none" stroke="#fff" stroke-width="1.76" stroke-linecap="round" stroke-linejoin="round"/></g><g clip-path="url(#ag)" transform="matrix(.62536 0 0 -.62538 -107.384 240.403)" fill="none" stroke="#fff" stroke-width="1.76" stroke-linecap="round" stroke-linejoin="round"><path d="M181.01 358.605l12.313-5.12.243.185-12.314 5.12-2.51 19.702a.724.724 0 00-.082-.025l-.018-.005a.488.488 0 00-.06-.008l-.015-.001c-.009 0-.017 0-.025.002a.203.203 0 00-.068.014.131.131 0 00-.047.03l-.008.01-.009.012 2.51-19.701c-.142-.03-2.852-.607-2.77-2.133l.408.03c.001.066.023 1.3 2.452 1.888z"/><path d="M181.41 358.912l-2.444 19.286 11.884-4.947s-11.866 4.97-9.44-14.34zm-5.55 17.376s-.025 1.782 2.407 1.84l2.432-19.213s-3.434 22.374-4.838 17.373zm38.033-29.502a2.865 2.865 0 00-2.864-2.864h-12.063a2.865 2.865 0 00-2.864 2.864v22.605c0 1.582 0 2.864 2.864 2.864h12.063c2.864 0 2.864-1.282 2.864-2.864zM197.327 373.5v-.479h.66v-.54h15.034v1.019z"/><path d="M196.656 347.082v22.868s-.315 1.796 2.022 1.796h6.497s-8.52.08-8.52-24.664zm8.151-5.992s-4.635 8.897-.362 12.073 3.027 7.883 2.34 9.449c-.69 1.566-3.265 8.364 5.26 8.416l.258-1.46s-7.962 3.47-4.622-6.614c3.341-10.085 2.435-10.382 1.934-11.931-.5-1.55-1.049-2.832 1.54-7.392 2.588-4.56-6.348-2.541-6.348-2.541z"/></g><g clip-path="url(#ah)" transform="matrix(.62536 0 0 -.62538 -107.384 240.403)" fill="none" stroke="#351f17" stroke-width=".88" stroke-linecap="round" stroke-linejoin="round"><path d="M191.013 351.719l-.244-.188-12.314 5.12.244.188z"/><path d="M178.456 356.65l-2.51 19.7.244.189 2.51-19.7z"/><path d="M178.7 356.839l-2.51 19.7 12.313-5.12 2.51-19.7z"/></g><g clip-path="url(#ai)" transform="matrix(.62536 0 0 -.62538 -107.384 240.403)"><g clip-path="url(#aj)"><g clip-path="url(#ak)"><path d="M191.013 351.719l-.244-.188-12.314 5.12.244.188z" fill="#6b4228"/><path d="M178.456 356.65l-2.51 19.7.244.189 2.51-19.7z" fill="#51311c"/><path d="M178.7 356.839l-2.51 19.7 12.313-5.12 2.51-19.7z" fill="#75482c"/></g></g></g><g clip-path="url(#al)" transform="matrix(.62536 0 0 -.62538 -107.384 240.403)"><path d="M190.32 352.512l-2.432 19.095a.384.384 0 01.224-.297l2.433-19.095c-.135.07-.21.173-.224.297" fill="none" stroke="#918f90" stroke-width=".44" stroke-linecap="round" stroke-linejoin="round"/></g><g clip-path="url(#am)" transform="matrix(.62536 0 0 -.62538 -107.384 240.403)" fill="none" stroke="#918f90" stroke-width=".44" stroke-linecap="round" stroke-linejoin="round"><path d="M180.683 358.796l-2.433 19.095 11.954-4.971 2.433-19.095z"/><path d="M192.637 353.825c-.46.145-1.246-.063-1.804-.492-.557-.43-.676-.918-.288-1.118l-11.96 4.965c-.236.098.044.54.624.985.577.445 1.239.728 1.474.631z"/></g><g clip-path="url(#an)" transform="matrix(.62536 0 0 -.62538 -107.384 240.403)"><path d="M178.502 357.284c-.023.18.247.53.706.882.577.445-.959 19.724-.959 19.724-.235.098-.896-.184-1.474-.63-.458-.351-.729-.702-.706-.881l2.433-19.095s.988 2.259 13.06-3.557c0 0 .514.099 1.074.099l-13.088 5.82" fill="none" stroke="#918f90" stroke-width=".44" stroke-linecap="round" stroke-linejoin="round"/></g><g clip-path="url(#ao)" transform="matrix(.62536 0 0 -.62538 -107.384 240.403)"><g clip-path="url(#ap)"><g clip-path="url(#aq)"><g clip-path="url(#ar)"><g clip-path="url(#as)"><g clip-path="url(#at)"><g clip-path="url(#au)"><path d="M190.32 352.512l-2.432 19.095a.384.384 0 01.224-.297l2.433-19.095c-.135.07-.21.173-.224.297" fill="#959394"/></g></g></g></g><path d="M180.683 358.796l-2.433 19.095 11.954-4.971 2.433-19.095z" fill="#999797"/></g><path d="M179.208 358.165c-.58-.446-.86-.887-.624-.985l11.96-4.965c-.388.201-.269.688.289 1.118.557.429 1.343.637 1.804.492l-11.955 4.971a.3.3 0 01-.115.02c-.294-.001-.859-.265-1.359-.651" fill="url(#av)"/><g clip-path="url(#aw)"><g clip-path="url(#ax)"><g clip-path="url(#ay)"><g clip-path="url(#az)"><g clip-path="url(#aA)"><path d="M178.502 357.284c-.023.18.247.53.706.882.577.445-.959 19.724-.959 19.724-.235.098-.896-.184-1.474-.63-.458-.351-.729-.702-.706-.881l2.433-19.095s.988 2.259 13.06-3.557c0 0 .514.099 1.074.099l-13.088 5.82" fill="#959394"/></g></g></g></g></g></g><path d="M181.074 358.655l12.313-5.12.243.186-2.51 19.701-12.315 5.12a.724.724 0 00-.081-.025c-.006 0-.012-.003-.017-.004-.023-.004-.043-.008-.061-.009h-.014l-.026.001a.209.209 0 00-.068.014.135.135 0 00-.046.031l-.008.01-.01.011a5.968 5.968 0 01-.456-.117c-.012-.003-.026-.008-.04-.01a.161.161 0 00-.028-.01l-.161-.052-.072-.024a4.375 4.375 0 01-.148-.053l-.081-.03a4.205 4.205 0 01-.19-.077l-.042-.016c-.006-.004-.013-.006-.02-.009-.03-.013-.061-.029-.091-.043a4.846 4.846 0 01-.163-.077c-.038-.019-.075-.04-.113-.06-.052-.028-.104-.056-.156-.087l-.11-.069a3.14 3.14 0 01-.146-.099c-.034-.026-.07-.052-.102-.078a2.872 2.872 0 01-.221-.199c-.04-.04-.076-.084-.112-.127-.025-.032-.05-.06-.073-.094a1.44 1.44 0 01-.087-.146c-.018-.033-.037-.063-.052-.097a1.22 1.22 0 01-.058-.177c-.01-.03-.02-.059-.026-.09a1.158 1.158 0 01-.021-.29l2.509-19.702.409.03c0 .066.023 1.3 2.45 1.887" fill="#58351f"/><path d="M181.074 358.655l12.313-5.12.243.186-2.51 19.701-12.315 5.12a.724.724 0 00-.081-.025c-.006 0-.012-.003-.017-.004-.023-.004-.043-.008-.061-.009h-.014l-.026.001a.209.209 0 00-.068.014.135.135 0 00-.046.031l-.008.01-.01.011a5.968 5.968 0 01-.456-.117c-.012-.003-.026-.008-.04-.01a.161.161 0 00-.028-.01l-.161-.052-.072-.024a4.375 4.375 0 01-.148-.053l-.081-.03a4.205 4.205 0 01-.19-.077l-.042-.016c-.006-.004-.013-.006-.02-.009-.03-.013-.061-.029-.091-.043a4.846 4.846 0 01-.163-.077c-.038-.019-.075-.04-.113-.06-.052-.028-.104-.056-.156-.087l-.11-.069a3.14 3.14 0 01-.146-.099c-.034-.026-.07-.052-.102-.078a2.872 2.872 0 01-.221-.199c-.04-.04-.076-.084-.112-.127-.025-.032-.05-.06-.073-.094a1.44 1.44 0 01-.087-.146c-.018-.033-.037-.063-.052-.097a1.22 1.22 0 01-.058-.177c-.01-.03-.02-.059-.026-.09a1.158 1.158 0 01-.021-.29l2.509-19.702.409.03c0 .066.023 1.3 2.45 1.887z" fill="none" stroke="#351f17" stroke-width=".88" stroke-linecap="round" stroke-linejoin="round"/></g><path d="M181.252 358.79l12.314-5.119v.001l-2.51 19.7-12.314 5.119z" fill="url(#aB)" transform="matrix(.62536 0 0 -.62538 -107.384 240.403)"/><g clip-path="url(#aC)" transform="matrix(.62536 0 0 -.62538 -107.384 240.403)"><g clip-path="url(#aD)"><path d="M175.639 376.462v-.006l.001-.067 2.51-19.702c-.081 1.524 2.618 2.1 2.77 2.133v.007l-2.509 19.693c-.14-.029-2.766-.588-2.772-2.058" fill="url(#aE)"/><path d="M175.657 376.664v-.001a.06.06 0 01-.002-.015l-.001-.002a.06.06 0 01-.002-.015l-.001-.002-.002-.015v-.002l-.002-.015c-.002-.022-.005-.043-.006-.066v-.002l-.001-.013v-.006l-.001-.011v-.091l.001-.019 2.51-19.702v.047l-.001.009v.018l.001.011v.057c.002.028.005.055.009.082l.001.002.001.015v.002l.003.015v.001l.003.016c.046.265.178.496.362.698l.011.012.001.001.011.012.059.06.001.001c.003.003.006.007.01.009a.018.018 0 00.004.005l.008.007.005.005.007.008a.03.03 0 01.007.005l.007.006.006.007a.043.043 0 01.007.006l.009.007a.018.018 0 00.004.005l.012.01.002.001c.332.293.764.512 1.161.669a7.062 7.062 0 001.059.323v.007l-2.509 19.694c-.134-.028-2.523-.536-2.754-1.856" fill="url(#aF)"/></g><path d="M181.01 358.605l12.313-5.12.243.185-12.314 5.12-2.51 19.702a.724.724 0 00-.082-.025l-.018-.005a.488.488 0 00-.06-.008l-.015-.001c-.009 0-.017 0-.025.002a.203.203 0 00-.068.014.131.131 0 00-.047.03l-.008.01-.009.012 2.51-19.701c-.142-.03-2.852-.607-2.77-2.133l.408.03c.001.066.023 1.3 2.452 1.888" fill="#58351f"/></g><g clip-path="url(#aG)" transform="matrix(.62536 0 0 -.62538 -107.384 240.403)"><g mask="url(#aH)"><path d="M181.409 358.912c-2.424 19.308 9.441 14.338 9.441 14.338l-11.884 4.948z" fill="url(#aI)"/></g></g><g clip-path="url(#aJ)" transform="matrix(.62536 0 0 -.62538 -107.384 240.403)"><g mask="url(#aK)"><path d="M175.861 376.288c1.404 5.001 4.837-17.373 4.837-17.373l-2.43 19.215c-2.434-.06-2.407-1.842-2.407-1.842" fill="url(#aL)"/></g></g><path d="M198.966 372.255c-2.831 0-2.864-1.252-2.864-2.808v-22.661c0-.904.42-1.712 1.075-2.236h8.788s5.613 0 5.613 5.612v22.075a7.285 7.285 0 01-.55.018z" fill="url(#aM)" transform="matrix(.62536 0 0 -.62538 -107.384 240.403)"/><g clip-path="url(#aN)" transform="matrix(.62536 0 0 -.62538 -107.384 240.403)"><path d="M213.893 346.786a2.865 2.865 0 00-2.864-2.864h-12.063a2.865 2.865 0 00-2.864 2.864v22.605c0 1.582 0 2.864 2.864 2.864h12.063c2.864 0 2.864-1.282 2.864-2.864z" fill="none" stroke="#730b0e" stroke-width=".44" stroke-miterlimit="10"/></g><path d="M197.328 373.5v-.479h.658v-.54h13.592v1.019z" fill="url(#aO)" transform="matrix(.62536 0 0 -.62538 -107.384 240.403)"/><g clip-path="url(#aP)" transform="matrix(.62536 0 0 -.62538 -107.384 240.403)"><path d="M197.327 373.5v-.479h.66v-.54h15.034v1.019z" fill="none" stroke="#656263" stroke-width=".44" stroke-linecap="round" stroke-linejoin="round" stroke-miterlimit="10"/></g><g clip-path="url(#aQ)" transform="matrix(.62536 0 0 -.62538 -107.384 240.403)"><g mask="url(#aR)"><path d="M205.174 371.747h-.001zm-6.496 0c-2.337 0-2.023-1.798-2.023-1.798v-22.868c0 24.572 8.402 24.666 8.518 24.666z" fill="url(#aS)"/></g></g><path d="M206.785 362.612c.688-1.566 1.933-6.273-2.34-9.449-2.526-1.879-1.939-5.757-1.036-8.613h2.556s2.316 0 3.973 1.487c-1.15 2.686-.722 3.752-.323 4.985.502 1.549 1.407 1.847-1.934 11.931-2.708 8.175 2.013 7.443 3.897 6.872v1.193c-7.961-.295-5.469-6.869-4.793-8.406" fill="url(#aT)" transform="matrix(.62536 0 0 -.62538 -107.384 240.403)"/><g clip-path="url(#aU)" transform="matrix(.62536 0 0 -.62538 -107.384 240.403)"><g clip-path="url(#aV)" opacity=".3"><path d="M174.233 381.986v-37.417h37.417v37.417z" fill="url(#aW)"/></g><path d="M181.582 369.234c-.063.543.185.82.596.66.427-.166.748-.664.82-1.211.06-.534-.178-.824-.605-.657-.419.162-.749.673-.81 1.208m.041 1.336l-.038.27c-.085.533-.012 1.015.28 1.43.207.292.375.54.335.89-.042.359-.25.666-.647.84-.262.102-.564.102-.748-.003l-.397 1.224c.26.104.71.126 1.271-.093a2.704 2.704 0 001.702-2.192c.09-.781-.223-1.15-.473-1.464-.244-.307-.316-.661-.255-1.126l.021-.185z" fill="#231f20"/><path d="M181.582 369.234c-.063.543.185.82.596.66.427-.166.748-.664.82-1.211.06-.534-.178-.824-.605-.657-.419.162-.749.673-.81 1.208zm.042 1.336l-.038.27c-.085.533-.012 1.015.28 1.43.207.292.375.54.335.89-.042.359-.25.666-.647.84-.262.102-.564.102-.748-.003l-.397 1.224c.26.104.71.126 1.271-.093a2.704 2.704 0 001.702-2.192c.09-.781-.223-1.15-.473-1.464-.244-.307-.316-.661-.255-1.126l.021-.185z" fill="none" stroke="#fff" stroke-width=".44" stroke-miterlimit="10"/><path d="M185.097 367.865c-.063.544.185.82.596.66.426-.166.748-.664.819-1.211.06-.534-.177-.824-.604-.657-.418.163-.75.674-.811 1.208m.043 1.337l-.04.27c-.084.532-.011 1.014.28 1.43.208.292.376.54.336.889-.041.36-.25.667-.647.84-.261.102-.563.102-.747-.003l-.398 1.224c.26.105.71.126 1.27-.093a2.702 2.702 0 001.703-2.192c.09-.78-.223-1.15-.473-1.464-.244-.306-.316-.661-.255-1.125l.02-.186z" fill="#231f20"/><path d="M185.097 367.865c-.063.544.185.82.596.66.426-.166.748-.664.819-1.211.06-.534-.177-.824-.604-.657-.418.163-.75.674-.811 1.208zm.043 1.337l-.04.27c-.084.532-.011 1.014.28 1.43.208.292.376.54.336.889-.041.36-.25.667-.647.84-.261.102-.563.102-.747-.003l-.398 1.224c.26.105.71.126 1.27-.093a2.702 2.702 0 001.703-2.193c.09-.78-.223-1.149-.473-1.464-.244-.306-.316-.66-.255-1.125l.02-.186z" fill="none" stroke="#fff" stroke-width=".44" stroke-miterlimit="10"/><path d="M188.613 366.495c-.063.544.185.82.596.66.426-.165.748-.663.819-1.21.06-.534-.177-.824-.605-.657-.418.162-.748.674-.81 1.208m.042 1.336l-.04.27c-.083.533-.01 1.015.282 1.43.207.292.375.54.335.89-.042.359-.25.666-.648.84-.261.102-.563.102-.747-.003l-.397 1.224c.26.104.71.126 1.27-.093a2.7 2.7 0 001.702-2.192c.09-.781-.222-1.15-.472-1.463-.244-.309-.316-.663-.256-1.128l.022-.185z" fill="#231f20"/><path d="M188.613 366.495c-.063.544.185.82.596.66.426-.165.748-.663.819-1.21.06-.534-.177-.824-.605-.657-.418.162-.748.674-.81 1.208zm.042 1.336l-.04.27c-.083.533-.01 1.015.282 1.43.207.292.375.541.335.89-.042.36-.25.666-.648.84-.261.102-.563.102-.747-.003l-.397 1.224c.26.104.71.126 1.27-.093a2.7 2.7 0 001.702-2.192c.09-.78-.222-1.15-.472-1.463-.244-.308-.316-.662-.256-1.127l.022-.185z" fill="none" stroke="#fff" stroke-width=".44" stroke-miterlimit="10"/><path d="M177.14 369.459c.156.125.285.1.31-.062.024-.168-.072-.367-.228-.496-.154-.124-.285-.104-.31.065-.024.165.074.369.228.493zm.42.246l.075.065c.15.13.31.2.49.188.126-.009.233-.015.333.066a.399.399 0 01.144.37c-.015.103-.069.199-.134.237l.306.365c.078-.063.165-.202.197-.423a1.059 1.059 0 00-.372-.969c-.224-.18-.393-.152-.535-.134-.137.019-.26-.027-.392-.136l-.052-.044zm-.217-1.633c.156.126.285.101.31-.062.024-.168-.072-.367-.229-.496-.153-.123-.284-.103-.309.065-.024.165.074.37.228.493zm.418.246l.077.066c.15.129.31.2.49.187.126-.009.233-.014.333.066.103.084.16.21.144.37-.015.103-.069.199-.134.238l.306.364c.078-.062.164-.202.197-.423a1.058 1.058 0 00-.373-.969c-.223-.18-.392-.152-.534-.133-.137.018-.259-.028-.392-.137l-.052-.043zm-.215-1.632c.156.125.286.1.31-.062.024-.168-.072-.367-.228-.496-.154-.124-.285-.103-.31.064-.024.166.074.37.228.494zm.42.246l.075.065c.15.13.31.2.49.188.126-.01.233-.015.333.066a.4.4 0 01.144.37c-.015.103-.069.199-.134.238l.306.364c.078-.063.165-.202.197-.423a1.057 1.057 0 00-.372-.97c-.224-.18-.393-.151-.535-.133-.137.018-.259-.027-.392-.137l-.053-.043z" fill="none" stroke="#fff" stroke-width=".44"/><path d="M177.14 369.459c.156.125.285.1.31-.062.024-.168-.072-.367-.228-.496-.154-.124-.285-.104-.31.065-.024.165.074.369.228.493m.42.246l.075.065c.15.13.31.2.49.188.126-.009.233-.015.333.066a.399.399 0 01.144.37c-.015.103-.069.199-.134.237l.306.365c.078-.063.165-.202.197-.423a1.059 1.059 0 00-.372-.969c-.224-.18-.393-.152-.535-.134-.137.019-.26-.027-.392-.136l-.052-.044zm-.217-1.633c.156.126.285.101.31-.062.024-.168-.072-.367-.229-.496-.153-.123-.284-.103-.309.065-.024.165.074.37.228.493m.418.246l.077.066c.15.129.31.2.49.187.126-.009.233-.014.333.066.103.084.16.21.144.37-.015.103-.069.199-.134.238l.306.364c.078-.062.164-.202.197-.423a1.058 1.058 0 00-.373-.969c-.223-.18-.392-.152-.534-.133-.137.018-.259-.028-.392-.137l-.052-.043zm-.215-1.632c.156.125.286.1.31-.062.024-.168-.072-.367-.228-.496-.154-.124-.285-.103-.31.064-.024.166.074.37.228.494m.42.246l.075.065c.15.13.31.2.49.188.126-.01.233-.015.333.066a.4.4 0 01.144.37c-.015.103-.069.199-.134.238l.306.364c.078-.063.165-.202.197-.423a1.057 1.057 0 00-.372-.97c-.224-.18-.393-.151-.535-.133-.137.018-.259-.027-.392-.137l-.053-.043zm24.779-14.308a.375.375 0 00.216-.208.375.375 0 00.004-.3.375.375 0 00-.208-.217.375.375 0 00-.301-.004.375.375 0 00-.216.208.375.375 0 00-.004.301c.04.102.11.174.208.216a.375.375 0 00.3.004m-3.396.48l-.008-.008-.005.001c-.001-.003-.003-.003-.006-.002l-.008-.007-.056-.024a.476.476 0 00-.085-.029.915.915 0 00-.094-.029l-.09-.019a1.376 1.376 0 00-.68.084l-.092.044a1.518 1.518 0 00-.446.375 1.689 1.689 0 00-.245.487l-.026.084a.68.68 0 00-.02.086l-.028.167a3.34 3.34 0 00-.012.337c.009.225.044.441.104.646a.97.97 0 01.028.077.998.998 0 00.028.078l.059.15c.045.095.093.191.144.285.053.09.11.18.173.267.063.088.134.172.214.251.038.037.08.074.122.111a.91.91 0 00.138.1c.096.065.2.116.31.152.057.02.114.035.172.046a1.278 1.278 0 00.365.007l.088-.014a.683.683 0 00.09-.02 1.32 1.32 0 00.33-.152 1.487 1.487 0 00.4-.339c.037-.043.073-.086.107-.13l.052-.069.022-.035.01-.014.013-.02.045-.07.045-.07a3.531 3.531 0 00.263-.614l.02-.079a.592.592 0 00.02-.078.85.85 0 00.02-.08 2.58 2.58 0 00.055-.319.442.442 0 01.014-.078c.014-.106.025-.209.035-.308.008-.099.019-.196.03-.29.014-.096.033-.187.057-.272a1.163 1.163 0 01.167-.36 3.19 3.19 0 01.08-.113 1.19 1.19 0 01.097-.103c.034-.033.069-.065.105-.097a.1.1 0 00.039-.072.102.102 0 00-.026-.079c-.04-.04-.081-.048-.123-.023a1.398 1.398 0 00-.53.412 1.72 1.72 0 00-.235.457c-.018.052-.034.106-.052.161a3.05 3.05 0 01-.018.077c-.006.025-.012.051-.02.078l-.032.154-.028.151-.028.152-.062.285a2.459 2.459 0 01-.078.27c-.01.031-.015.053-.021.065a.696.696 0 00-.026.068 1.251 1.251 0 00-.025.065l-.027.065a.512.512 0 01-.031.062.576.576 0 00-.03.061.287.287 0 01-.032.065.441.441 0 01-.034.06.293.293 0 01-.033.06.35.35 0 00-.033.06l-.04.057a.34.34 0 01-.04.058c-.052.08-.105.15-.16.214-.031.033-.063.064-.092.093a1.35 1.35 0 01-.2.161 1.043 1.043 0 01-.11.06 1.358 1.358 0 01-.116.041.762.762 0 01-.117.026 1.263 1.263 0 01-.253-.009 1.265 1.265 0 01-.253-.087 1.742 1.742 0 01-.232-.153 1.384 1.384 0 01-.104-.097 3.272 3.272 0 01-.096-.106l-.043-.056c-.014-.018-.03-.038-.045-.06a.818.818 0 01-.078-.119 1.087 1.087 0 01-.072-.129l-.062-.13-.027-.068a.686.686 0 01-.011-.035c-.003-.01-.006-.023-.011-.035l-.04-.14a1.402 1.402 0 01-.015-.566 1.259 1.259 0 01.527-.865.709.709 0 01.197-.093.415.415 0 01.05-.017.291.291 0 01.053-.013l.105-.01c.077-.007.15-.008.218-.004.044 0 .083.002.116.007l.097.008.004-.002.007.003.004-.002.007.003.01.001a.318.318 0 00.23-.07.297.297 0 00.112-.212.323.323 0 00-.156-.302m5.131 3.907a.375.375 0 00.216-.209.369.369 0 00.004-.3.376.376 0 00-.208-.218.381.381 0 00-.3-.003.374.374 0 00-.217.208.375.375 0 00-.004.301c.04.102.11.174.208.216a.375.375 0 00.3.004m-3.396.48l-.007-.008-.005.002c-.001-.003-.004-.004-.006-.003l-.008-.007-.057-.024a.476.476 0 00-.085-.029.712.712 0 00-.094-.028c-.03-.007-.06-.014-.09-.019a1.376 1.376 0 00-.585.048.944.944 0 00-.187.08 1.479 1.479 0 00-.446.374 1.656 1.656 0 00-.245.487c-.01.028-.018.055-.026.084a.705.705 0 00-.02.085l-.028.168a3.34 3.34 0 00-.012.337c.009.226.044.441.104.646l.028.078a.97.97 0 00.028.077l.059.15c.045.095.093.19.144.285.053.09.11.18.173.267.063.088.135.171.214.252l.122.11a.91.91 0 00.138.1c.096.065.2.116.31.152a1.118 1.118 0 00.537.053 2.68 2.68 0 00.179-.034 1.3 1.3 0 00.33-.152 1.453 1.453 0 00.28-.214 2.344 2.344 0 00.226-.255l.052-.068.022-.035.01-.015.013-.02.045-.07a1.35 1.35 0 00.045-.07c.056-.098.104-.198.147-.3.043-.102.082-.207.116-.314a8.67 8.67 0 00.042-.157l.018-.08c.005-.026.01-.053.017-.08a2.165 2.165 0 00.025-.16.374.374 0 00.013-.079.459.459 0 01.014-.078c.014-.106.025-.209.035-.308.008-.099.019-.196.03-.29.015-.096.033-.187.057-.272a1.219 1.219 0 01.167-.36c.024-.036.05-.074.08-.113a2.491 2.491 0 01.203-.2.107.107 0 00.038-.072.103.103 0 00-.026-.079c-.04-.039-.081-.047-.123-.024-.092.04-.188.097-.287.171a1.608 1.608 0 00-.243.242 1.72 1.72 0 00-.235.457c-.018.052-.034.106-.051.161l-.02.077-.018.078-.033.154a2.624 2.624 0 01-.028.151l-.028.152c-.021.1-.041.194-.062.285a2.61 2.61 0 01-.078.271c-.01.03-.015.052-.021.065a.563.563 0 00-.026.067l-.025.065a4.304 4.304 0 01-.027.065.512.512 0 01-.031.062.69.69 0 00-.03.061.266.266 0 01-.032.064.45.45 0 01-.033.061.298.298 0 01-.034.06.35.35 0 00-.033.06l-.04.057a.34.34 0 01-.04.058c-.051.08-.105.15-.16.214a4.075 4.075 0 01-.092.093 1.35 1.35 0 01-.2.161 1.416 1.416 0 01-.108.06.952.952 0 01-.235.067 1.263 1.263 0 01-.253-.009 1.265 1.265 0 01-.253-.087 1.204 1.204 0 01-.336-.25 3.385 3.385 0 01-.096-.106l-.043-.056-.045-.059a.958.958 0 01-.078-.12 1.159 1.159 0 01-.072-.128l-.062-.132-.027-.067a.268.268 0 01-.01-.035.23.23 0 00-.012-.034l-.04-.14a1.406 1.406 0 01-.015-.568 1.265 1.265 0 01.527-.863.697.697 0 01.197-.094.415.415 0 01.05-.017.407.407 0 01.053-.013l.105-.01c.077-.007.15-.008.218-.004.044 0 .083.002.116.007l.097.008.005-.002.006.003.004-.002.007.003.01.001a.314.314 0 00.343-.28.294.294 0 00-.036-.177.313.313 0 00-.121-.126m5.13 3.905a.372.372 0 00.216-.208.369.369 0 00.004-.3.371.371 0 00-.208-.217.373.373 0 00-.3-.004.374.374 0 00-.217.208.38.38 0 00-.004.301c.04.102.11.174.208.216a.371.371 0 00.301.004m-3.397.479l-.007-.007-.005.002c0-.003-.004-.004-.006-.003l-.008-.007-.057-.024a.37.37 0 00-.085-.029.915.915 0 00-.184-.048 1.376 1.376 0 00-.68.084l-.092.045a1.479 1.479 0 00-.446.374 1.628 1.628 0 00-.244.487 1.624 1.624 0 00-.047.17l-.028.167c-.009.107-.013.22-.012.337.01.226.044.441.104.646.01.024.02.05.028.077l.028.078.06.149c.044.096.092.192.143.286.054.09.111.179.173.267a2.016 2.016 0 00.336.362c.043.037.09.07.138.099.097.066.2.117.311.153.056.019.114.035.172.046a.889.889 0 00.181.018c.06 0 .12-.003.183-.01l.09-.015a.638.638 0 00.09-.02c.123-.038.233-.089.33-.152a1.824 1.824 0 00.506-.47l.051-.067.023-.035.01-.015.013-.021.045-.07.044-.069a3.363 3.363 0 00.263-.614.888.888 0 01.021-.078c.008-.026.014-.052.021-.079l.018-.08.017-.08a2.58 2.58 0 00.04-.239.438.438 0 01.012-.078c.014-.106.025-.209.035-.308l.03-.29c.015-.096.033-.186.057-.272a1.219 1.219 0 01.167-.361l.08-.112a2.491 2.491 0 01.203-.2.1.1 0 00.038-.072.106.106 0 00-.025-.079c-.04-.039-.082-.047-.124-.023-.092.04-.187.096-.287.17a1.366 1.366 0 00-.416.539 2.176 2.176 0 00-.062.16 3.384 3.384 0 00-.05.161l-.02.077-.019.078-.032.154c-.01.056-.019.107-.029.151l-.028.152c-.02.098-.04.193-.062.285a2.459 2.459 0 01-.078.27c-.009.031-.015.053-.02.066a.469.469 0 00-.026.067 1.257 1.257 0 00-.026.065 1.434 1.434 0 01-.088.188.22.22 0 01-.032.065.532.532 0 01-.033.06.298.298 0 01-.034.06.35.35 0 00-.033.06l-.039.057a.397.397 0 01-.04.058 1.95 1.95 0 01-.16.214 4.075 4.075 0 01-.093.093 1.35 1.35 0 01-.2.161 1.14 1.14 0 01-.108.06.8.8 0 01-.235.067 1.193 1.193 0 01-.253-.009 1.287 1.287 0 01-.253-.087 1.708 1.708 0 01-.232-.153 1.37 1.37 0 01-.104-.097 5 5 0 01-.096-.105l-.043-.056-.045-.061a.876.876 0 01-.078-.119 1.15 1.15 0 01-.07-.128l-.064-.132-.027-.067a.268.268 0 01-.01-.035.279.279 0 00-.012-.034l-.039-.141a1.42 1.42 0 01-.016-.566 1.28 1.28 0 01.187-.512c.092-.147.205-.264.34-.352a.69.69 0 01.198-.094.322.322 0 01.05-.017.264.264 0 01.052-.013l.105-.011c.077-.006.15-.007.218-.003.044 0 .083.002.116.007l.097.008.005-.002.006.003.004-.002.007.003.011.001a.314.314 0 00.342-.281.288.288 0 00-.036-.175.319.319 0 00-.12-.128" fill="#231f20"/><path d="M202.745 352.624a.375.375 0 00.216-.208.375.375 0 00.004-.3.375.375 0 00-.208-.217.375.375 0 00-.301-.004.375.375 0 00-.216.208.375.375 0 00-.004.301c.04.102.11.174.208.216a.375.375 0 00.3.004m-3.396.48l-.008-.008-.005.001c-.001-.003-.003-.003-.006-.002l-.008-.007-.056-.024a.476.476 0 00-.085-.029.915.915 0 00-.094-.029l-.09-.019a1.376 1.376 0 00-.68.084l-.092.044a1.518 1.518 0 00-.446.375 1.689 1.689 0 00-.245.487l-.026.084a.68.68 0 00-.02.086l-.028.167a3.34 3.34 0 00-.012.337c.009.225.044.441.104.646a.97.97 0 01.028.077.998.998 0 00.028.078l.059.15c.045.095.093.191.144.285.053.09.11.18.173.267.063.088.134.172.214.251.038.037.08.074.122.111a.91.91 0 00.138.1c.096.065.2.116.31.152.057.02.114.035.172.046a1.278 1.278 0 00.365.007l.088-.014a.683.683 0 00.09-.02 1.32 1.32 0 00.33-.152 1.487 1.487 0 00.4-.339c.037-.043.073-.086.107-.13l.052-.069.022-.035.01-.014.013-.02.045-.07.045-.07a3.531 3.531 0 00.263-.614l.02-.079a.592.592 0 00.02-.078.85.85 0 00.02-.08 2.58 2.58 0 00.055-.319.442.442 0 01.014-.078c.014-.106.025-.209.035-.308.008-.099.019-.196.03-.29.014-.096.033-.187.057-.272a1.163 1.163 0 01.167-.36 3.19 3.19 0 01.08-.113 1.19 1.19 0 01.097-.103c.034-.033.069-.065.105-.097a.1.1 0 00.039-.072.102.102 0 00-.026-.079c-.04-.04-.081-.048-.123-.023a1.398 1.398 0 00-.53.412 1.72 1.72 0 00-.235.457c-.018.052-.034.106-.052.161a3.05 3.05 0 01-.018.077c-.006.025-.012.051-.02.078l-.032.154-.028.151-.028.152-.062.285a2.459 2.459 0 01-.078.27c-.01.031-.015.053-.021.065a.696.696 0 00-.026.068 1.251 1.251 0 00-.025.065l-.027.065a.512.512 0 01-.031.062.576.576 0 00-.03.061.287.287 0 01-.032.065.441.441 0 01-.034.06.293.293 0 01-.033.06.35.35 0 00-.033.06l-.04.057a.34.34 0 01-.04.058c-.052.08-.105.15-.16.214-.031.033-.063.064-.092.093a1.35 1.35 0 01-.2.161 1.043 1.043 0 01-.11.06 1.358 1.358 0 01-.116.041.762.762 0 01-.117.026 1.263 1.263 0 01-.253-.009 1.265 1.265 0 01-.253-.087 1.742 1.742 0 01-.232-.153 1.384 1.384 0 01-.104-.097 3.272 3.272 0 01-.096-.106l-.043-.056c-.014-.018-.03-.038-.045-.06a.818.818 0 01-.078-.119 1.087 1.087 0 01-.072-.129l-.062-.13-.027-.068a.686.686 0 01-.011-.035c-.003-.01-.006-.023-.011-.035l-.04-.14a1.402 1.402 0 01-.015-.566 1.259 1.259 0 01.527-.865.709.709 0 01.197-.093.415.415 0 01.05-.017.291.291 0 01.053-.013l.105-.01c.077-.007.15-.008.218-.004.044 0 .083.002.116.007l.097.008.004-.002.007.003.004-.002.007.003.01.001a.318.318 0 00.23-.07.297.297 0 00.112-.212.323.323 0 00-.156-.302m5.131 3.907a.375.375 0 00.216-.209.369.369 0 00.004-.3.376.376 0 00-.208-.218.381.381 0 00-.3-.003.374.374 0 00-.217.208.375.375 0 00-.004.301c.04.102.11.174.208.216a.375.375 0 00.3.004m-3.396.48l-.007-.008-.005.002c-.001-.003-.004-.004-.006-.003l-.008-.007-.057-.024a.476.476 0 00-.085-.029.712.712 0 00-.094-.028c-.03-.007-.06-.014-.09-.019a1.376 1.376 0 00-.585.048.944.944 0 00-.187.08 1.479 1.479 0 00-.446.374 1.656 1.656 0 00-.245.487c-.01.028-.018.055-.026.084a.705.705 0 00-.02.085l-.028.168a3.34 3.34 0 00-.012.337c.009.226.044.441.104.646l.028.078a.97.97 0 00.028.077l.059.15c.045.095.093.19.144.285.053.09.11.18.173.267.063.088.135.171.214.252l.122.11a.91.91 0 00.138.1c.096.065.2.116.31.152a1.118 1.118 0 00.537.053 2.68 2.68 0 00.179-.034 1.3 1.3 0 00.33-.152 1.453 1.453 0 00.28-.214 2.344 2.344 0 00.226-.255l.052-.068.022-.035.01-.015.013-.02.045-.07a1.35 1.35 0 00.045-.07c.056-.098.104-.198.147-.3.043-.102.082-.207.116-.314a8.67 8.67 0 00.042-.157l.018-.08c.005-.026.01-.053.017-.08a2.165 2.165 0 00.025-.16.374.374 0 00.013-.079.459.459 0 01.014-.078c.014-.106.025-.209.035-.308.008-.099.019-.196.03-.29.015-.096.033-.187.057-.272a1.219 1.219 0 01.167-.36c.024-.036.05-.074.08-.113a2.491 2.491 0 01.203-.2.107.107 0 00.038-.072.103.103 0 00-.026-.079c-.04-.039-.081-.047-.123-.024-.092.04-.188.097-.287.171a1.608 1.608 0 00-.243.242 1.72 1.72 0 00-.235.457c-.018.052-.034.106-.051.161l-.02.077-.018.078-.033.154a2.624 2.624 0 01-.028.151l-.028.152c-.021.1-.041.194-.062.285a2.61 2.61 0 01-.078.271c-.01.03-.015.052-.021.065a.563.563 0 00-.026.067l-.025.065a4.304 4.304 0 01-.027.065.512.512 0 01-.031.062.69.69 0 00-.03.061.266.266 0 01-.032.064.45.45 0 01-.033.061.298.298 0 01-.034.06.35.35 0 00-.033.06l-.04.057a.34.34 0 01-.04.058c-.051.08-.105.15-.16.214a4.075 4.075 0 01-.092.093 1.35 1.35 0 01-.2.161 1.416 1.416 0 01-.108.06.952.952 0 01-.235.067 1.263 1.263 0 01-.253-.009 1.265 1.265 0 01-.253-.087 1.204 1.204 0 01-.336-.25 3.385 3.385 0 01-.096-.106l-.043-.056-.045-.059a.958.958 0 01-.078-.12 1.159 1.159 0 01-.072-.128l-.062-.132-.027-.067a.268.268 0 01-.01-.035.23.23 0 00-.012-.034l-.04-.14a1.406 1.406 0 01-.015-.568 1.265 1.265 0 01.527-.863.697.697 0 01.197-.094.415.415 0 01.05-.017.407.407 0 01.053-.013l.105-.01c.077-.007.15-.008.218-.004.044 0 .083.002.116.007l.097.008.005-.002.006.003.004-.002.007.003.01.001a.314.314 0 00.343-.28.294.294 0 00-.036-.177.313.313 0 00-.121-.126m5.13 3.905a.372.372 0 00.216-.208.369.369 0 00.004-.3.371.371 0 00-.208-.217.373.373 0 00-.3-.004.374.374 0 00-.217.208.38.38 0 00-.004.301c.04.102.11.174.208.216a.371.371 0 00.301.004m-3.397.479l-.007-.007-.005.002c0-.003-.004-.004-.006-.003l-.008-.007-.057-.024a.37.37 0 00-.085-.029.915.915 0 00-.184-.048 1.376 1.376 0 00-.68.084l-.092.045a1.479 1.479 0 00-.446.374 1.628 1.628 0 00-.244.487 1.624 1.624 0 00-.047.17l-.028.167c-.009.107-.013.22-.012.337.01.226.044.441.104.646.01.024.02.05.028.077l.028.078.06.149c.044.096.092.192.143.286.054.09.111.179.173.267a2.016 2.016 0 00.336.362c.043.037.09.07.138.099.097.066.2.117.311.153.056.019.114.035.172.046a.889.889 0 00.181.018c.06 0 .12-.003.183-.01l.09-.015a.638.638 0 00.09-.02c.123-.038.233-.089.33-.152a1.824 1.824 0 00.506-.47l.051-.067.023-.035.01-.015.013-.021.045-.07.044-.069a3.363 3.363 0 00.263-.614.888.888 0 01.021-.078c.008-.026.014-.052.021-.079l.018-.08.017-.08a2.58 2.58 0 00.04-.239.438.438 0 01.012-.078c.014-.106.025-.209.035-.308l.03-.29c.015-.096.033-.186.057-.272a1.219 1.219 0 01.167-.361l.08-.112a2.491 2.491 0 01.203-.2.1.1 0 00.038-.072.106.106 0 00-.025-.079c-.04-.039-.082-.047-.124-.023-.092.04-.187.096-.287.17a1.366 1.366 0 00-.416.539 2.176 2.176 0 00-.062.16 3.384 3.384 0 00-.05.161l-.02.077-.019.078-.032.154c-.01.056-.019.107-.029.151l-.028.152c-.02.098-.04.193-.062.285a2.459 2.459 0 01-.078.27c-.009.031-.015.053-.02.066a.469.469 0 00-.026.067 1.257 1.257 0 00-.026.065 1.434 1.434 0 01-.088.188.22.22 0 01-.032.065.532.532 0 01-.033.06.298.298 0 01-.034.06.35.35 0 00-.033.06l-.039.057a.397.397 0 01-.04.058 1.95 1.95 0 01-.16.214 4.075 4.075 0 01-.093.093 1.35 1.35 0 01-.2.161 1.14 1.14 0 01-.108.06.8.8 0 01-.235.067 1.193 1.193 0 01-.253-.009 1.287 1.287 0 01-.253-.087 1.708 1.708 0 01-.232-.153 1.37 1.37 0 01-.104-.097 5 5 0 01-.096-.105l-.043-.056-.045-.061a.876.876 0 01-.078-.119 1.15 1.15 0 01-.07-.128l-.064-.132-.027-.067a.268.268 0 01-.01-.035.279.279 0 00-.012-.034l-.039-.141a1.42 1.42 0 01-.016-.566 1.28 1.28 0 01.187-.512c.092-.147.205-.264.34-.352a.69.69 0 01.198-.094.322.322 0 01.05-.017.264.264 0 01.052-.013l.105-.011c.077-.006.15-.007.218-.003.044 0 .083.002.116.007l.097.008.005-.002.006.003.004-.002.007.003.011.001a.314.314 0 00.342-.281.288.288 0 00-.036-.175.319.319 0 00-.12-.128" fill="#fff"/><path d="M202.745 352.624a.375.375 0 00.216-.208.375.375 0 00.004-.3.375.375 0 00-.208-.217.375.375 0 00-.301-.004.375.375 0 00-.216.208.375.375 0 00-.004.301c.04.102.11.174.208.216a.375.375 0 00.3.004zm-3.397.48l-.008-.008-.005.001c-.001-.003-.003-.003-.006-.002l-.008-.007-.056-.024a.476.476 0 00-.085-.029.915.915 0 00-.094-.029l-.09-.019a1.376 1.376 0 00-.68.084l-.092.044a1.518 1.518 0 00-.446.375 1.689 1.689 0 00-.245.487l-.026.084a.68.68 0 00-.02.086l-.028.167a3.34 3.34 0 00-.012.337c.009.225.044.441.104.646a.97.97 0 01.028.077.998.998 0 00.028.078l.059.15c.045.095.093.191.144.285.053.09.11.18.173.267.063.088.134.172.214.251.038.037.08.074.122.111a.91.91 0 00.138.1c.096.065.2.116.31.152.057.02.114.035.172.046a1.278 1.278 0 00.365.007l.088-.014a.683.683 0 00.09-.02 1.32 1.32 0 00.33-.152 1.487 1.487 0 00.4-.339c.037-.043.073-.086.107-.13l.052-.069.022-.035.01-.014.013-.02.045-.07.045-.07a3.531 3.531 0 00.263-.614l.02-.079a.592.592 0 00.02-.078.85.85 0 00.02-.08 2.58 2.58 0 00.055-.319.442.442 0 01.014-.078c.014-.106.025-.209.035-.308.008-.099.019-.196.03-.29.014-.096.033-.187.057-.272a1.163 1.163 0 01.167-.36 3.19 3.19 0 01.08-.113 1.19 1.19 0 01.097-.103c.034-.033.069-.065.105-.097a.1.1 0 00.039-.072.102.102 0 00-.026-.079c-.04-.04-.081-.048-.123-.023a1.398 1.398 0 00-.53.412 1.72 1.72 0 00-.235.457c-.018.052-.034.106-.052.161a3.05 3.05 0 01-.018.077c-.006.025-.012.051-.02.078l-.032.154-.028.151-.028.152-.062.285a2.459 2.459 0 01-.078.27c-.01.031-.015.053-.021.065a.696.696 0 00-.026.068 1.251 1.251 0 00-.025.065l-.027.065a.512.512 0 01-.031.062.576.576 0 00-.03.061.287.287 0 01-.032.065.441.441 0 01-.034.06.293.293 0 01-.033.06.35.35 0 00-.033.06l-.04.057a.34.34 0 01-.04.058c-.052.08-.105.15-.16.214-.031.033-.063.064-.092.093a1.35 1.35 0 01-.2.161 1.043 1.043 0 01-.11.06 1.358 1.358 0 01-.116.041.762.762 0 01-.117.026 1.263 1.263 0 01-.253-.009 1.265 1.265 0 01-.253-.087 1.742 1.742 0 01-.232-.153 1.384 1.384 0 01-.104-.097 3.272 3.272 0 01-.096-.106l-.043-.056c-.014-.018-.03-.038-.045-.06a.818.818 0 01-.078-.119 1.087 1.087 0 01-.072-.129l-.062-.13-.027-.068a.686.686 0 01-.011-.035c-.003-.01-.006-.023-.011-.035l-.04-.14a1.402 1.402 0 01-.015-.566 1.259 1.259 0 01.527-.865.709.709 0 01.197-.093.415.415 0 01.05-.017.291.291 0 01.053-.013l.105-.01c.077-.007.15-.008.218-.004.044 0 .083.002.116.007l.097.008.004-.002.007.003.004-.002.007.003.01.001a.318.318 0 00.23-.07.297.297 0 00.112-.212.323.323 0 00-.156-.302zm5.131 3.906a.375.375 0 00.216-.209.369.369 0 00.004-.3.376.376 0 00-.208-.218.381.381 0 00-.3-.003.374.374 0 00-.217.208.375.375 0 00-.004.301c.04.102.11.174.208.216a.375.375 0 00.3.004zm-3.397.48l-.007-.009-.005.002c-.001-.003-.004-.004-.006-.003l-.008-.007-.057-.024a.476.476 0 00-.085-.029.712.712 0 00-.094-.028c-.03-.007-.06-.014-.09-.019a1.376 1.376 0 00-.585.048.944.944 0 00-.187.08 1.479 1.479 0 00-.446.374 1.656 1.656 0 00-.245.487c-.01.028-.018.055-.026.084a.705.705 0 00-.02.085l-.028.168a3.34 3.34 0 00-.012.337c.009.226.044.441.104.646l.028.078a.97.97 0 00.028.077l.059.15c.045.095.093.19.144.285.053.09.11.18.173.267.063.088.135.171.214.252l.122.11a.91.91 0 00.138.1c.096.065.2.116.31.152a1.118 1.118 0 00.537.053 2.68 2.68 0 00.179-.034 1.3 1.3 0 00.33-.152 1.453 1.453 0 00.28-.214 2.344 2.344 0 00.226-.255l.052-.068.022-.035.01-.015.013-.02.045-.07a1.35 1.35 0 00.045-.07c.056-.098.104-.198.147-.3.043-.102.082-.207.116-.314a8.67 8.67 0 00.042-.157l.018-.08c.005-.026.01-.053.017-.08a2.165 2.165 0 00.025-.16.374.374 0 00.013-.079.459.459 0 01.014-.078c.014-.106.025-.209.035-.308.008-.099.019-.196.03-.29.015-.096.033-.187.057-.272a1.219 1.219 0 01.167-.36c.024-.036.05-.074.08-.113a2.491 2.491 0 01.203-.2.107.107 0 00.038-.072.103.103 0 00-.026-.079c-.04-.039-.081-.047-.123-.024-.092.04-.188.097-.287.171a1.608 1.608 0 00-.243.242 1.72 1.72 0 00-.235.457c-.018.052-.034.106-.051.161l-.02.077-.018.078-.033.154a2.624 2.624 0 01-.028.151l-.028.152c-.021.1-.041.194-.062.285a2.61 2.61 0 01-.078.271c-.01.03-.015.052-.021.065a.563.563 0 00-.026.067l-.025.065a4.304 4.304 0 01-.027.065.512.512 0 01-.031.062.69.69 0 00-.03.061.266.266 0 01-.032.064.45.45 0 01-.033.061.298.298 0 01-.034.06.35.35 0 00-.033.06l-.04.057a.34.34 0 01-.04.058c-.051.08-.105.15-.16.214a4.075 4.075 0 01-.092.093 1.35 1.35 0 01-.2.161 1.416 1.416 0 01-.108.06.952.952 0 01-.235.067 1.263 1.263 0 01-.253-.009 1.265 1.265 0 01-.253-.087 1.204 1.204 0 01-.336-.25 3.385 3.385 0 01-.096-.106l-.043-.056-.045-.059a.958.958 0 01-.078-.12 1.159 1.159 0 01-.072-.128l-.062-.132-.027-.067a.268.268 0 01-.01-.035.23.23 0 00-.012-.034l-.04-.14a1.406 1.406 0 01-.015-.568 1.265 1.265 0 01.527-.863.697.697 0 01.197-.094.415.415 0 01.05-.017.407.407 0 01.053-.013l.105-.01c.077-.007.15-.008.218-.004.044 0 .083.002.116.007l.097.008.005-.002.006.003.004-.002.007.003.01.001a.314.314 0 00.343-.28.294.294 0 00-.036-.177.313.313 0 00-.121-.126zM206.212 361.394a.372.372 0 00.216-.208.369.369 0 00.004-.3.371.371 0 00-.208-.217.373.373 0 00-.3-.004.374.374 0 00-.217.208.38.38 0 00-.004.301c.04.102.11.174.208.216a.371.371 0 00.301.004zm-3.397.479l-.007-.007-.005.002c0-.003-.004-.004-.006-.003l-.008-.007-.057-.024a.37.37 0 00-.085-.029.915.915 0 00-.184-.048 1.376 1.376 0 00-.68.084l-.092.045a1.479 1.479 0 00-.446.374 1.628 1.628 0 00-.244.487 1.624 1.624 0 00-.047.17l-.028.167c-.009.107-.013.22-.012.337.01.226.044.441.104.646.01.024.02.05.028.077l.028.078.06.149c.044.096.092.192.143.286.054.09.111.179.173.267a2.016 2.016 0 00.336.362c.043.037.09.07.138.099.097.066.2.117.311.153.056.019.114.035.172.046a.889.889 0 00.181.018c.06 0 .12-.003.183-.01l.09-.015a.638.638 0 00.09-.02c.123-.038.233-.089.33-.152a1.824 1.824 0 00.506-.47l.051-.067.023-.035.01-.015.013-.021.045-.07.044-.069a3.363 3.363 0 00.263-.614.888.888 0 01.021-.078c.008-.026.014-.052.021-.079l.018-.08.017-.08a2.58 2.58 0 00.04-.239.438.438 0 01.012-.078c.014-.106.025-.209.035-.308l.03-.29c.015-.096.033-.186.057-.272a1.219 1.219 0 01.167-.361l.08-.112a2.491 2.491 0 01.203-.2.1.1 0 00.038-.072.106.106 0 00-.025-.079c-.04-.039-.082-.047-.124-.023-.092.04-.187.096-.287.17a1.366 1.366 0 00-.416.539 2.176 2.176 0 00-.062.16 3.384 3.384 0 00-.05.161l-.02.077-.019.078-.032.154c-.01.056-.019.107-.029.151l-.028.152c-.02.098-.04.193-.062.285a2.459 2.459 0 01-.078.27c-.009.031-.015.053-.02.066a.469.469 0 00-.026.067 1.257 1.257 0 00-.026.065 1.434 1.434 0 01-.088.188.22.22 0 01-.032.065.532.532 0 01-.033.06.298.298 0 01-.034.06.35.35 0 00-.033.06l-.039.057a.397.397 0 01-.04.058 1.95 1.95 0 01-.16.214 4.075 4.075 0 01-.093.093 1.35 1.35 0 01-.2.161 1.14 1.14 0 01-.108.06.8.8 0 01-.235.067 1.193 1.193 0 01-.253-.009 1.287 1.287 0 01-.253-.087 1.708 1.708 0 01-.232-.153 1.37 1.37 0 01-.104-.097 5 5 0 01-.096-.105l-.043-.056-.045-.061a.876.876 0 01-.078-.119 1.15 1.15 0 01-.07-.128l-.064-.132-.027-.067a.268.268 0 01-.01-.035.279.279 0 00-.012-.034l-.039-.141a1.42 1.42 0 01-.016-.566 1.28 1.28 0 01.187-.512c.092-.147.205-.264.34-.352a.69.69 0 01.198-.094.322.322 0 01.05-.017.264.264 0 01.052-.013l.105-.011c.077-.006.15-.007.218-.003.044 0 .083.002.116.007l.097.008.005-.002.006.003.004-.002.007.003.011.001a.314.314 0 00.342-.281.288.288 0 00-.036-.175.319.319 0 00-.12-.128z" fill="none" stroke="#fff" stroke-width=".44"/></g><path d="M0 0s-5.613 0-5.613-5.613v-26.192s0-5.612 5.613-5.612h26.192s5.613 0 5.613 5.612v26.192S31.805 0 26.192 0z" fill="none" stroke="#231f20" stroke-width=".66" transform="matrix(.62536 0 0 -.62538 5.04 1.53)"/></svg>