<svg xmlns="http://www.w3.org/2000/svg" width="100" height="100" viewBox="0 0 26.458 26.458"><defs><clipPath id="bd" clipPathUnits="userSpaceOnUse"><path d="M179.773 157.463s-5.612 0-5.612-5.612v-26.197c.001-.17.087-5.608 5.612-5.608h26.192s5.613 0 5.613 5.612v26.193s0 5.612-5.613 5.612z"/></clipPath><clipPath id="S" clipPathUnits="userSpaceOnUse"><path d="M-14243.7 14537.4h28835.2v-28835.2h-28835.2z"/></clipPath><clipPath id="ac" clipPathUnits="userSpaceOnUse"><path d="M199.061 157.463l-24.9-24.901v-4.977l29.878 29.878z"/></clipPath><clipPath id="W" clipPathUnits="userSpaceOnUse"><path d="M-14243.7 14537.4h28835.2v-28835.2h-28835.2z"/></clipPath><clipPath id="af" clipPathUnits="userSpaceOnUse"><path d="M188.611 157.463l-14.45-14.451v-4.978l19.429 19.429z"/></clipPath><clipPath id="a" clipPathUnits="userSpaceOnUse"><path d="M-14243.7 14537.4h28835.2v-28835.2h-28835.2z"/></clipPath><clipPath id="ai" clipPathUnits="userSpaceOnUse"><path d="M179.773 157.463s-.41 0-1.008-.111l-4.546-4.546a7.766 7.766 0 01-.058-.955v-4.082l9.694 9.694z"/></clipPath><clipPath id="G" clipPathUnits="userSpaceOnUse"><path d="M-14243.7 14537.4h28835.2v-28835.2h-28835.2z"/></clipPath><clipPath id="al" clipPathUnits="userSpaceOnUse"><path d="M181.897 120.046h4.98l24.701 24.701v4.978z"/></clipPath><clipPath id="w" clipPathUnits="userSpaceOnUse"><path d="M-14243.7 14537.4h28835.2v-28835.2h-28835.2z"/></clipPath><clipPath id="ao" clipPathUnits="userSpaceOnUse"><path d="M192.347 120.046h4.98l14.251 14.251v4.978z"/></clipPath><clipPath id="m" clipPathUnits="userSpaceOnUse"><path d="M-14243.7 14537.4h28835.2v-28835.2h-28835.2z"/></clipPath><clipPath id="ar" clipPathUnits="userSpaceOnUse"><path d="M202.082 120.046h3.883s.527 0 1.257.161l4.264 4.263c.06.365.092.76.092 1.188v3.882z"/></clipPath><clipPath id="au" clipPathUnits="userSpaceOnUse"><path d="M179.773 157.463s-5.612 0-5.612-5.612v-26.197c.001-.17.087-5.608 5.612-5.608h26.192s5.613 0 5.613 5.612v26.193s0 5.612-5.613 5.612z"/></clipPath><clipPath id="aw" clipPathUnits="userSpaceOnUse"><path d="M179.773 157.463s-5.612 0-5.612-5.612v-26.197c.001-.17.087-5.608 5.612-5.608h26.192s5.613 0 5.613 5.612v26.193s0 5.612-5.613 5.612z"/></clipPath><clipPath id="ay" clipPathUnits="userSpaceOnUse"><path d="M179.773 157.463s-5.612 0-5.612-5.612v-26.197c.001-.17.087-5.608 5.612-5.608h26.192s5.613 0 5.613 5.612v26.193s0 5.612-5.613 5.612z"/></clipPath><clipPath id="aB" clipPathUnits="userSpaceOnUse"><path d="M179.773 157.463s-5.612 0-5.612-5.612v-26.197c.001-.17.087-5.608 5.612-5.608h26.192s5.613 0 5.613 5.612v26.193s0 5.612-5.613 5.612z"/></clipPath><clipPath id="aD" clipPathUnits="userSpaceOnUse"><path d="M179.773 157.463s-5.612 0-5.612-5.612v-26.197c.001-.17.087-5.608 5.612-5.608h26.192s5.613 0 5.613 5.612v26.193s0 5.612-5.613 5.612z"/></clipPath><clipPath id="c" clipPathUnits="userSpaceOnUse"><path d="M-32768 32767h65535v-65535h-65535z"/></clipPath><clipPath id="aE" clipPathUnits="userSpaceOnUse"><path d="M204.191 141.623h-.495c.724-1.074 1.004-5.144 1.1-9.033v7.768c0 1.162-.4 1.27-.549 1.27-.035 0-.056-.005-.056-.005m.605-16.995s.101 3.88 0 7.962z"/></clipPath><clipPath id="Q" clipPathUnits="userSpaceOnUse"><path d="M-14243.7 14537.4h28835.2v-28835.2h-28835.2z"/></clipPath><clipPath id="aH" clipPathUnits="userSpaceOnUse"><path d="M201.001 141.629c-.55-.049-.605-.611-.605-.611v-18.479c0 18.479 1.76 19.09 1.76 19.09z"/></clipPath><clipPath id="e" clipPathUnits="userSpaceOnUse"><path d="M-14243.7 14537.4h28835.2v-28835.2h-28835.2z"/></clipPath><clipPath id="aK" clipPathUnits="userSpaceOnUse"><path d="M201.262 142.283h.949v5.83h-.949z"/></clipPath><clipPath id="g" clipPathUnits="userSpaceOnUse"><path d="M-14243.7 14537.4h28835.2v-28835.2h-28835.2z"/></clipPath><clipPath id="aN" clipPathUnits="userSpaceOnUse"><path d="M198.251 153.228c-.44-3.85-4.51-3.52-4.51-3.52v-.33h8.896c-6.724 2.31 0 3.85 0 3.85z"/></clipPath><clipPath id="i" clipPathUnits="userSpaceOnUse"><path d="M-32768 32767h65535v-65535h-65535z"/></clipPath><clipPath id="aQ" clipPathUnits="userSpaceOnUse"><path d="M205.401 153.228c2.31 0 2.365-3.85 2.365-3.85v3.85z"/></clipPath><clipPath id="aV" clipPathUnits="userSpaceOnUse"><path d="M179.773 157.463s-5.612 0-5.612-5.612v-26.197c.001-.17.087-5.608 5.612-5.608h26.192s5.613 0 5.613 5.612v26.193s0 5.612-5.613 5.612z"/></clipPath><clipPath id="k" clipPathUnits="userSpaceOnUse"><path d="M-14243.7 14537.4h28835.2v-28835.2h-28835.2z"/></clipPath><clipPath id="aW" clipPathUnits="userSpaceOnUse"><path d="M183.315 138.727h.423v11.22h-.423z"/></clipPath><clipPath id="ba" clipPathUnits="userSpaceOnUse"><path d="M179.773 157.463s-5.612 0-5.612-5.612v-26.197c.001-.17.087-5.608 5.612-5.608h26.192s5.613 0 5.613 5.612v26.193s0 5.612-5.613 5.612z"/></clipPath><clipPath id="bb" clipPathUnits="userSpaceOnUse"><path d="M181.126 136.344h5.133z"/></clipPath><clipPath id="U" clipPathUnits="userSpaceOnUse"><path d="M-14243.7 14537.4h28835.2v-28835.2h-28835.2z"/></clipPath><clipPath id="be" clipPathUnits="userSpaceOnUse"><path d="M179.773 157.463s-5.612 0-5.612-5.612v-26.197c.001-.17.087-5.608 5.612-5.608h26.192s5.613 0 5.613 5.612v26.193s0 5.612-5.613 5.612z"/></clipPath><clipPath id="bg" clipPathUnits="userSpaceOnUse"><path d="M179.773 157.463s-5.612 0-5.612-5.612v-26.197c.001-.17.087-5.608 5.612-5.608h26.192s5.613 0 5.613 5.612v26.193s0 5.612-5.613 5.612z"/></clipPath><clipPath id="bh" clipPathUnits="userSpaceOnUse"><path d="M183.032 152.485h1.321z"/></clipPath><clipPath id="bj" clipPathUnits="userSpaceOnUse"><path d="M179.773 157.463s-5.612 0-5.612-5.612v-26.197c.001-.17.087-5.608 5.612-5.608h26.192s5.613 0 5.613 5.612v26.193s0 5.612-5.613 5.612z"/></clipPath><clipPath id="bl" clipPathUnits="userSpaceOnUse"><path d="M179.773 157.463s-5.612 0-5.612-5.612v-26.197c.001-.17.087-5.608 5.612-5.608h26.192s5.613 0 5.613 5.612v26.193s0 5.612-5.613 5.612z"/></clipPath><clipPath id="o" clipPathUnits="userSpaceOnUse"><path d="M-32768 32767h65535v-65535h-65535z"/></clipPath><clipPath id="bm" clipPathUnits="userSpaceOnUse"><path d="M182.307 139.087v-.736h.362l-.009.736z"/></clipPath><clipPath id="q" clipPathUnits="userSpaceOnUse"><path d="M-32768 32767h65535v-65535h-65535z"/></clipPath><clipPath id="bp" clipPathUnits="userSpaceOnUse"><path d="M181.503 123.556c.371-1.794 2.19-1.733 2.19-1.733-1.166.578-1.448 1.733-1.448 1.733z"/></clipPath><clipPath id="s" clipPathUnits="userSpaceOnUse"><path d="M-14243.7 14537.4h28835.2v-28835.2h-28835.2z"/></clipPath><clipPath id="bs" clipPathUnits="userSpaceOnUse"><path d="M182.245 137.897c-.481-.323-.742-1.279-.742-1.279v-.069h.742c-.302.55.415 1.348.415 1.348z"/></clipPath><clipPath id="u" clipPathUnits="userSpaceOnUse"><path d="M-32768 32767h65535v-65535h-65535z"/></clipPath><clipPath id="bv" clipPathUnits="userSpaceOnUse"><path d="M185.023 136.618h.979s-.127.715-.787 1.182c0 0 .771-1.182-.192-1.182"/></clipPath><clipPath id="y" clipPathUnits="userSpaceOnUse"><path d="M-14243.7 14537.4h28835.2v-28835.2h-28835.2z"/></clipPath><clipPath id="by" clipPathUnits="userSpaceOnUse"><path d="M184.61 123.473c1.348 0 0-1.485 0-1.485 1.358.385 1.392 1.485 1.392 1.485z"/></clipPath><clipPath id="A" clipPathUnits="userSpaceOnUse"><path d="M-32768 32767h65535v-65535h-65535z"/></clipPath><clipPath id="bB" clipPathUnits="userSpaceOnUse"><path d="M181.503 136.15v-.549c.055.22.742.192.742.192v.357z"/></clipPath><clipPath id="C" clipPathUnits="userSpaceOnUse"><path d="M-32768 32767h65535v-65535h-65535z"/></clipPath><clipPath id="bE" clipPathUnits="userSpaceOnUse"><path d="M181.503 123.899h.742v.248s-.714.027-.742.302z"/></clipPath><clipPath id="bK" clipPathUnits="userSpaceOnUse"><path d="M179.773 157.463s-5.612 0-5.612-5.612v-26.197c.001-.17.087-5.608 5.612-5.608h26.192s5.613 0 5.613 5.612v26.193s0 5.612-5.613 5.612z"/></clipPath><clipPath id="E" clipPathUnits="userSpaceOnUse"><path d="M-32768 32767h65535v-65535h-65535z"/></clipPath><clipPath id="bL" clipPathUnits="userSpaceOnUse"><path d="M182.66 134.307v.001zm0-.101c-.001-1.02-.023-9.355-.639-9.957 0 0 .641.081.641.642l-.002 9.315v.101z"/></clipPath><clipPath id="I" clipPathUnits="userSpaceOnUse"><path d="M-32768 32767h65535v-65535h-65535z"/></clipPath><clipPath id="bO" clipPathUnits="userSpaceOnUse"><path d="M184.279 134.307v.001zm0-.101c0-1.02-.023-9.355-.638-9.957 0 0 .641.081.641.642l-.003 9.315v.101z"/></clipPath><clipPath id="K" clipPathUnits="userSpaceOnUse"><path d="M-32768 32767h65535v-65535h-65535z"/></clipPath><clipPath id="bR" clipPathUnits="userSpaceOnUse"><path d="M186.002 134.307v.001zm0-.095c0-.994-.022-9.36-.638-9.963 0 0 .642.081.642.642l-.004 9.321v.095z"/></clipPath><clipPath id="M" clipPathUnits="userSpaceOnUse"><path d="M-32768 32767h65535v-65535h-65535z"/></clipPath><clipPath id="bU" clipPathUnits="userSpaceOnUse"><path d="M182.905 152.348l.41-1.907h.305c-.641 1.847.881 1.907.881 1.907z"/></clipPath><clipPath id="O" clipPathUnits="userSpaceOnUse"><path d="M-14243.7 14537.4h28835.2v-28835.2h-28835.2z"/></clipPath><clipPath id="bX" clipPathUnits="userSpaceOnUse"><path d="M183.032 155.227l-.127-2.604c.165 2.604 1.448 2.604 1.448 2.604z"/></clipPath><clipPath id="aT" clipPathUnits="userSpaceOnUse"><path d="M179.773 157.463s-5.612 0-5.612-5.612v-26.197c.001-.17.087-5.608 5.612-5.608h26.192s5.613 0 5.613 5.612v26.193s0 5.612-5.613 5.612z"/></clipPath><clipPath id="Z" clipPathUnits="userSpaceOnUse"><path d="M174.701 123.202c.407-.965 1.124-1.985 2.381-2.596l33.878 33.877c-.439.955-1.192 1.936-2.479 2.5z"/></clipPath><linearGradient id="Y" spreadMethod="pad" gradientTransform="matrix(0 37.41734 37.41734 0 192.87 120.046)" gradientUnits="userSpaceOnUse" y2="0" x2="1" y1="0" x1="0"><stop offset="0" stop-color="#f14624"/><stop offset=".548" stop-color="#fff200"/><stop offset="1" stop-color="#fff200"/></linearGradient><linearGradient id="ab" spreadMethod="pad" gradientTransform="scale(53.96125 -53.96125) rotate(-45 -1.07 -4.997)" gradientUnits="userSpaceOnUse" y2="0" x2="1" y1="0" x1="0"><stop offset="0" stop-color="#231f20"/><stop offset=".523" stop-color="#231f20"/><stop offset="1" stop-color="#231f20"/></linearGradient><linearGradient id="T" spreadMethod="pad" gradientTransform="scale(53.96125 -53.96125) rotate(-45 -1.07 -4.997)" gradientUnits="userSpaceOnUse" y2="0" x2="1" y1="0" x1="0"><stop offset="0" stop-color="#fff"/><stop offset=".523" stop-color="#fff"/><stop offset="1" stop-opacity="0" stop-color="#fff"/></linearGradient><linearGradient id="ae" spreadMethod="pad" gradientTransform="scale(44.02287 -44.02287) rotate(-45 -1.556 -6.174)" gradientUnits="userSpaceOnUse" y2="0" x2="1" y1="0" x1="0"><stop offset="0" stop-color="#231f20"/><stop offset=".523" stop-color="#231f20"/><stop offset="1" stop-color="#231f20"/></linearGradient><linearGradient id="V" spreadMethod="pad" gradientTransform="scale(44.02287 -44.02287) rotate(-45 -1.556 -6.174)" gradientUnits="userSpaceOnUse" y2="0" x2="1" y1="0" x1="0"><stop offset="0" stop-color="#fff"/><stop offset=".523" stop-color="#fff"/><stop offset="1" stop-opacity="0" stop-color="#fff"/></linearGradient><linearGradient id="ah" spreadMethod="pad" gradientTransform="scale(29.33003 -29.33003) rotate(-45 -2.76 -9.432)" gradientUnits="userSpaceOnUse" y2="0" x2="1" y1="0" x1="0"><stop offset="0" stop-color="#231f20"/><stop offset=".523" stop-color="#231f20"/><stop offset="1" stop-color="#231f20"/></linearGradient><linearGradient id="X" spreadMethod="pad" gradientTransform="scale(29.33003 -29.33003) rotate(-45 -2.76 -9.432)" gradientUnits="userSpaceOnUse" y2="0" x2="1" y1="0" x1="0"><stop offset="0" stop-color="#fff"/><stop offset=".523" stop-color="#fff"/><stop offset="1" stop-opacity="0" stop-color="#fff"/></linearGradient><linearGradient id="ak" spreadMethod="pad" gradientTransform="scale(14.81788 -14.81788) rotate(-45 -6.293 -19.087)" gradientUnits="userSpaceOnUse" y2="0" x2="1" y1="0" x1="0"><stop offset="0" stop-color="#231f20"/><stop offset=".523" stop-color="#231f20"/><stop offset="1" stop-color="#231f20"/></linearGradient><linearGradient id="b" spreadMethod="pad" gradientTransform="scale(14.81788 -14.81788) rotate(-45 -6.293 -19.087)" gradientUnits="userSpaceOnUse" y2="0" x2="1" y1="0" x1="0"><stop offset="0" stop-color="#fff"/><stop offset=".523" stop-color="#fff"/><stop offset="1" stop-opacity="0" stop-color="#fff"/></linearGradient><linearGradient id="P" spreadMethod="pad" gradientTransform="matrix(1.44825 0 0 -1.44825 182.905 153.925)" gradientUnits="userSpaceOnUse" y2="0" x2="1" y1="0" x1="0"><stop offset="0" stop-color="#fff"/><stop offset="1" stop-opacity="0" stop-color="#fff"/></linearGradient><linearGradient id="bZ" spreadMethod="pad" gradientTransform="matrix(1.44825 0 0 -1.44825 182.905 153.925)" gradientUnits="userSpaceOnUse" y2="0" x2="1" y1="0" x1="0"><stop offset="0" stop-color="#fff"/><stop offset="1" stop-color="#fff"/></linearGradient><linearGradient id="an" spreadMethod="pad" gradientTransform="scale(44.02266 -44.02266) rotate(-45 -1.166 -6.344)" gradientUnits="userSpaceOnUse" y2="0" x2="1" y1="0" x1="0"><stop offset="0" stop-color="#231f20"/><stop offset=".523" stop-color="#231f20"/><stop offset="1" stop-color="#231f20"/></linearGradient><linearGradient id="N" spreadMethod="pad" gradientTransform="matrix(1.59499 0 0 -1.59499 182.905 151.395)" gradientUnits="userSpaceOnUse" y2="0" x2="1" y1="0" x1="0"><stop offset="0" stop-color="#fff"/><stop offset="1" stop-opacity="0" stop-color="#fff"/></linearGradient><linearGradient id="bW" spreadMethod="pad" gradientTransform="matrix(1.59499 0 0 -1.59499 182.905 151.395)" gradientUnits="userSpaceOnUse" y2="0" x2="1" y1="0" x1="0"><stop offset="0" stop-color="#fff"/><stop offset="1" stop-color="#fff"/></linearGradient><linearGradient id="H" spreadMethod="pad" gradientTransform="scale(44.02265 -44.02265) rotate(-45 -1.166 -6.344)" gradientUnits="userSpaceOnUse" y2="0" x2="1" y1="0" x1="0"><stop offset="0" stop-color="#fff"/><stop offset=".523" stop-color="#fff"/><stop offset="1" stop-opacity="0" stop-color="#fff"/></linearGradient><linearGradient id="L" spreadMethod="pad" gradientTransform="matrix(.64173 0 0 -.64173 185.364 129.28)" gradientUnits="userSpaceOnUse" y2="0" x2="1" y1="0" x1="0"><stop offset="0" stop-opacity="0" stop-color="#fff"/><stop offset="1" stop-color="#fff"/></linearGradient><linearGradient id="bT" spreadMethod="pad" gradientTransform="matrix(.64173 0 0 -.64173 185.364 129.28)" gradientUnits="userSpaceOnUse" y2="0" x2="1" y1="0" x1="0"><stop offset="0" stop-color="#fff"/><stop offset="1" stop-color="#fff"/></linearGradient><linearGradient id="J" spreadMethod="pad" gradientTransform="matrix(.64173 0 0 -.64173 183.64 129.28)" gradientUnits="userSpaceOnUse" y2="0" x2="1" y1="0" x1="0"><stop offset="0" stop-opacity="0" stop-color="#fff"/><stop offset="1" stop-color="#fff"/></linearGradient><linearGradient id="bQ" spreadMethod="pad" gradientTransform="matrix(.64173 0 0 -.64173 183.64 129.28)" gradientUnits="userSpaceOnUse" y2="0" x2="1" y1="0" x1="0"><stop offset="0" stop-color="#fff"/><stop offset="1" stop-color="#fff"/></linearGradient><linearGradient id="F" spreadMethod="pad" gradientTransform="matrix(.64173 0 0 -.64173 182.021 129.28)" gradientUnits="userSpaceOnUse" y2="0" x2="1" y1="0" x1="0"><stop offset="0" stop-opacity="0" stop-color="#fff"/><stop offset="1" stop-color="#fff"/></linearGradient><linearGradient id="bN" spreadMethod="pad" gradientTransform="matrix(.64173 0 0 -.64173 182.021 129.28)" gradientUnits="userSpaceOnUse" y2="0" x2="1" y1="0" x1="0"><stop offset="0" stop-color="#fff"/><stop offset="1" stop-color="#fff"/></linearGradient><linearGradient id="bJ" spreadMethod="pad" gradientTransform="scale(8.3678 -8.3678) rotate(-45 -7.413 -33.898)" gradientUnits="userSpaceOnUse" y2="0" x2="1" y1="0" x1="0"><stop offset="0" stop-color="#ed1c24"/><stop offset="1" stop-color="#981015"/></linearGradient><linearGradient id="bI" spreadMethod="pad" gradientTransform="scale(8.36767 -8.36767) rotate(45 29.963 18.126)" gradientUnits="userSpaceOnUse" y2="0" x2="1" y1="0" x1="0"><stop offset="0" stop-color="#981015"/><stop offset="1" stop-color="#ed1c24"/></linearGradient><linearGradient id="bH" spreadMethod="pad" gradientTransform="scale(8.3681 -8.3681) rotate(45 29.864 17.891)" gradientUnits="userSpaceOnUse" y2="0" x2="1" y1="0" x1="0"><stop offset="0" stop-color="#981015"/><stop offset="1" stop-color="#ed1c24"/></linearGradient><linearGradient id="aq" spreadMethod="pad" gradientTransform="scale(29.32982 -29.32982) rotate(-45 -1.576 -9.961)" gradientUnits="userSpaceOnUse" y2="0" x2="1" y1="0" x1="0"><stop offset="0" stop-color="#231f20"/><stop offset=".523" stop-color="#231f20"/><stop offset="1" stop-color="#231f20"/></linearGradient><linearGradient id="D" spreadMethod="pad" gradientTransform="translate(181.503 124.174) scale(.7425)" gradientUnits="userSpaceOnUse" y2="0" x2="1" y1="0" x1="0"><stop offset="0" stop-color="#fff"/><stop offset="1" stop-opacity="0" stop-color="#fff"/></linearGradient><linearGradient id="bG" spreadMethod="pad" gradientTransform="translate(181.503 124.174) scale(.7425)" gradientUnits="userSpaceOnUse" y2="0" x2="1" y1="0" x1="0"><stop offset="0" stop-color="#fff"/><stop offset="1" stop-color="#fff"/></linearGradient><linearGradient id="x" spreadMethod="pad" gradientTransform="scale(29.32982 -29.32982) rotate(-45 -1.576 -9.961)" gradientUnits="userSpaceOnUse" y2="0" x2="1" y1="0" x1="0"><stop offset="0" stop-color="#fff"/><stop offset=".523" stop-color="#fff"/><stop offset="1" stop-opacity="0" stop-color="#fff"/></linearGradient><linearGradient id="B" spreadMethod="pad" gradientTransform="matrix(.7425 0 0 -.7425 181.503 135.876)" gradientUnits="userSpaceOnUse" y2="0" x2="1" y1="0" x1="0"><stop offset="0" stop-color="#fff"/><stop offset="1" stop-opacity="0" stop-color="#fff"/></linearGradient><linearGradient id="bD" spreadMethod="pad" gradientTransform="matrix(.7425 0 0 -.7425 181.503 135.876)" gradientUnits="userSpaceOnUse" y2="0" x2="1" y1="0" x1="0"><stop offset="0" stop-color="#fff"/><stop offset="1" stop-color="#fff"/></linearGradient><linearGradient id="z" spreadMethod="pad" gradientTransform="matrix(1.39153 0 0 -1.39153 184.61 122.73)" gradientUnits="userSpaceOnUse" y2="0" x2="1" y1="0" x1="0"><stop offset="0" stop-opacity="0" stop-color="#fff"/><stop offset="1" stop-color="#fff"/></linearGradient><linearGradient id="bA" spreadMethod="pad" gradientTransform="matrix(1.39153 0 0 -1.39153 184.61 122.73)" gradientUnits="userSpaceOnUse" y2="0" x2="1" y1="0" x1="0"><stop offset="0" stop-color="#ed1c24"/><stop offset="1" stop-color="#ed1c24"/></linearGradient><linearGradient id="v" spreadMethod="pad" gradientTransform="matrix(.97904 0 0 -.97904 185.023 137.21)" gradientUnits="userSpaceOnUse" y2="0" x2="1" y1="0" x1="0"><stop offset="0" stop-opacity="0" stop-color="#fff"/><stop offset="1" stop-color="#fff"/></linearGradient><linearGradient id="bx" spreadMethod="pad" gradientTransform="matrix(.97904 0 0 -.97904 185.023 137.21)" gradientUnits="userSpaceOnUse" y2="0" x2="1" y1="0" x1="0"><stop offset="0" stop-color="#ed1c24"/><stop offset="1" stop-color="#ed1c24"/></linearGradient><linearGradient id="at" spreadMethod="pad" gradientTransform="scale(14.81745 -14.81745) rotate(-45 -2.78 -20.482)" gradientUnits="userSpaceOnUse" y2="0" x2="1" y1="0" x1="0"><stop offset="0" stop-color="#231f20"/><stop offset=".523" stop-color="#231f20"/><stop offset="1" stop-color="#231f20"/></linearGradient><linearGradient id="t" spreadMethod="pad" gradientTransform="matrix(1.15628 0 0 -1.15628 181.503 137.223)" gradientUnits="userSpaceOnUse" y2="0" x2="1" y1="0" x1="0"><stop offset="0" stop-color="#fff"/><stop offset="1" stop-opacity="0" stop-color="#fff"/></linearGradient><linearGradient id="bu" spreadMethod="pad" gradientTransform="matrix(1.15628 0 0 -1.15628 181.503 137.223)" gradientUnits="userSpaceOnUse" y2="0" x2="1" y1="0" x1="0"><stop offset="0" stop-color="#fff"/><stop offset="1" stop-color="#fff"/></linearGradient><linearGradient id="n" spreadMethod="pad" gradientTransform="scale(14.81745 -14.81745) rotate(-45 -2.78 -20.482)" gradientUnits="userSpaceOnUse" y2="0" x2="1" y1="0" x1="0"><stop offset="0" stop-color="#fff"/><stop offset=".523" stop-color="#fff"/><stop offset="1" stop-opacity="0" stop-color="#fff"/></linearGradient><linearGradient id="r" spreadMethod="pad" gradientTransform="matrix(2.18967 0 0 -2.18967 181.503 122.69)" gradientUnits="userSpaceOnUse" y2="0" x2="1" y1="0" x1="0"><stop offset="0" stop-color="#fff"/><stop offset="1" stop-opacity="0" stop-color="#fff"/></linearGradient><linearGradient id="br" spreadMethod="pad" gradientTransform="matrix(2.18967 0 0 -2.18967 181.503 122.69)" gradientUnits="userSpaceOnUse" y2="0" x2="1" y1="0" x1="0"><stop offset="0" stop-color="#fff"/><stop offset="1" stop-color="#fff"/></linearGradient><linearGradient id="p" spreadMethod="pad" gradientTransform="matrix(.36222 0 0 -.36222 182.307 138.718)" gradientUnits="userSpaceOnUse" y2="0" x2="1" y1="0" x1="0"><stop offset="0" stop-color="#fff"/><stop offset="1" stop-opacity="0" stop-color="#fff"/></linearGradient><linearGradient id="bo" spreadMethod="pad" gradientTransform="matrix(.36222 0 0 -.36222 182.307 138.718)" gradientUnits="userSpaceOnUse" y2="0" x2="1" y1="0" x1="0"><stop offset="0" stop-color="#fff"/><stop offset="1" stop-color="#fff"/></linearGradient><linearGradient id="bk" spreadMethod="pad" gradientTransform="matrix(3.35283 0 0 -3.35283 182.064 138.692)" gradientUnits="userSpaceOnUse" y2="0" x2="1" y1="0" x1="0"><stop offset="0" stop-color="#ed1c24"/><stop offset="1" stop-color="#bf1b2c"/></linearGradient><linearGradient id="bi" spreadMethod="pad" gradientTransform="matrix(1.32192 0 0 -1.32192 183.032 152.485)" gradientUnits="userSpaceOnUse" y2="0" x2="1" y1="0" x1="0"><stop offset="0" stop-color="#e9e9e9"/><stop offset="1" stop-color="#918f90"/></linearGradient><linearGradient id="bf" spreadMethod="pad" gradientTransform="matrix(2.20192 0 0 -2.20192 182.592 152.81)" gradientUnits="userSpaceOnUse" y2="0" x2="1" y1="0" x1="0"><stop offset="0" stop-color="#e9e9e9"/><stop offset="1" stop-color="#918f90"/></linearGradient><linearGradient id="bc" spreadMethod="pad" gradientTransform="matrix(5.1328 0 0 -5.1328 181.126 136.344)" gradientUnits="userSpaceOnUse" y2="0" x2="1" y1="0" x1="0"><stop offset="0" stop-color="#ed1c24"/><stop offset="1" stop-color="#bf1b2c"/></linearGradient><linearGradient id="aZ" spreadMethod="pad" gradientTransform="matrix(5.1328 0 0 -5.1328 181.126 130.037)" gradientUnits="userSpaceOnUse" y2="0" x2="1" y1="0" x1="0"><stop offset="0" stop-color="#ed1c24"/><stop offset="1" stop-color="#bf1b2c"/></linearGradient><linearGradient id="l" spreadMethod="pad" gradientTransform="matrix(.4228 0 0 -.4228 183.315 144.337)" gradientUnits="userSpaceOnUse" y2="0" x2="1" y1="0" x1="0"><stop offset="0" stop-color="#fff"/><stop offset="1" stop-opacity="0" stop-color="#fff"/></linearGradient><linearGradient id="aY" spreadMethod="pad" gradientTransform="matrix(.4228 0 0 -.4228 183.315 144.337)" gradientUnits="userSpaceOnUse" y2="0" x2="1" y1="0" x1="0"><stop offset="0" stop-color="#fff"/><stop offset="1" stop-color="#fff"/></linearGradient><linearGradient id="aU" spreadMethod="pad" gradientTransform="matrix(1.32192 0 0 -1.32192 183.032 143.99)" gradientUnits="userSpaceOnUse" y2="0" x2="1" y1="0" x1="0"><stop offset="0" stop-color="#e9e9e9"/><stop offset="1" stop-color="#918f90"/></linearGradient><linearGradient id="j" spreadMethod="pad" gradientTransform="scale(2.72226 -2.72226) rotate(-45 -29.051 -119.16)" gradientUnits="userSpaceOnUse" y2="0" x2="1" y1="0" x1="0"><stop offset="0" stop-opacity="0" stop-color="#fff"/><stop offset="1" stop-color="#fff"/></linearGradient><linearGradient id="aS" spreadMethod="pad" gradientTransform="scale(2.72226 -2.72226) rotate(-45 -29.051 -119.16)" gradientUnits="userSpaceOnUse" y2="0" x2="1" y1="0" x1="0"><stop offset="0" stop-color="#fff"/><stop offset="1" stop-color="#fff"/></linearGradient><linearGradient id="av" spreadMethod="pad" gradientTransform="matrix(4.00595 0 0 -4.00595 200.634 144.79)" gradientUnits="userSpaceOnUse" y2="0" x2="1" y1="0" x1="0"><stop offset="0" stop-color="#e9e9e9"/><stop offset="1" stop-color="#918f90"/></linearGradient><linearGradient id="h" spreadMethod="pad" gradientTransform="matrix(8.89618 0 0 -8.89618 193.74 151.303)" gradientUnits="userSpaceOnUse" y2="0" x2="1" y1="0" x1="0"><stop offset="0" stop-color="#fff"/><stop offset="1" stop-opacity="0" stop-color="#fff"/></linearGradient><linearGradient id="aP" spreadMethod="pad" gradientTransform="matrix(8.89618 0 0 -8.89618 193.74 151.303)" gradientUnits="userSpaceOnUse" y2="0" x2="1" y1="0" x1="0"><stop offset="0" stop-color="#fff"/><stop offset="1" stop-color="#fff"/></linearGradient><linearGradient id="f" spreadMethod="pad" gradientTransform="scale(4.79313 -4.79313) rotate(45 57.861 35.056)" gradientUnits="userSpaceOnUse" y2="0" x2="1" y1="0" x1="0"><stop offset="0" stop-color="#fff"/><stop offset="1" stop-opacity="0" stop-color="#fff"/></linearGradient><linearGradient id="aM" spreadMethod="pad" gradientTransform="scale(4.79313 -4.79313) rotate(45 57.861 35.056)" gradientUnits="userSpaceOnUse" y2="0" x2="1" y1="0" x1="0"><stop offset="0" stop-color="#fff"/><stop offset="1" stop-color="#fff"/></linearGradient><linearGradient id="ax" spreadMethod="pad" gradientTransform="matrix(0 5.82996 5.82996 0 200.822 148.406)" gradientUnits="userSpaceOnUse" y2="0" x2="1" y1="0" x1="0"><stop offset="0" stop-color="#918f90"/><stop offset="1" stop-color="#e9e9e9"/></linearGradient><linearGradient id="R" spreadMethod="pad" gradientTransform="scale(13.2274 -13.2274) rotate(45 19.93 12.727)" gradientUnits="userSpaceOnUse" y2="0" x2="1" y1="0" x1="0"><stop offset="0" stop-color="#fff"/><stop offset="1" stop-opacity="0" stop-color="#fff"/></linearGradient><linearGradient id="aJ" spreadMethod="pad" gradientTransform="scale(13.2274 -13.2274) rotate(45 19.93 12.727)" gradientUnits="userSpaceOnUse" y2="0" x2="1" y1="0" x1="0"><stop offset="0" stop-color="#fff"/><stop offset="1" stop-color="#fff"/></linearGradient><linearGradient id="d" spreadMethod="pad" gradientTransform="matrix(0 17.00046 17.00046 0 204.269 124.628)" gradientUnits="userSpaceOnUse" y2="0" x2="1" y1="0" x1="0"><stop offset="0" stop-opacity="0" stop-color="#fff"/><stop offset=".635" stop-opacity="0" stop-color="#fff"/><stop offset="1" stop-color="#fff"/></linearGradient><linearGradient id="aG" spreadMethod="pad" gradientTransform="matrix(0 17.00046 17.00046 0 204.269 124.628)" gradientUnits="userSpaceOnUse" y2="0" x2="1" y1="0" x1="0"><stop offset="0" stop-color="#fcce78"/><stop offset=".635" stop-color="#fcce78"/><stop offset="1" stop-color="#fcce78"/></linearGradient><linearGradient id="aC" spreadMethod="pad" gradientTransform="matrix(5.133 0 0 -5.133 200.048 137.758)" gradientUnits="userSpaceOnUse" y2="0" x2="1" y1="0" x1="0"><stop offset="0" stop-color="#fcce7d"/><stop offset="1" stop-color="#c97224"/></linearGradient><linearGradient id="aA" spreadMethod="pad" gradientTransform="matrix(5.133 0 0 -5.133 200.048 131.797)" gradientUnits="userSpaceOnUse" y2="0" x2="1" y1="0" x1="0"><stop offset="0" stop-color="#ed1c24"/><stop offset="1" stop-color="#bf1b2c"/></linearGradient><linearGradient id="az" spreadMethod="pad" gradientTransform="matrix(0 4.58258 4.58258 0 200.822 149.03)" gradientUnits="userSpaceOnUse" y2="0" x2="1" y1="0" x1="0"><stop offset="0" stop-color="#e9e9e9"/><stop offset="1" stop-color="#918f90"/></linearGradient><mask id="bz" height="1" width="1" y="0" x="0" maskUnits="userSpaceOnUse"><g clip-path="url(#y)"><path d="M184.61 123.473h1.392v-1.485h-1.392z" fill="url(#z)"/></g></mask><mask id="aj" height="1" width="1" y="0" x="0" maskUnits="userSpaceOnUse"><g clip-path="url(#a)"><path d="M169.314 152.616l9.694 9.694 9.694-9.694-9.694-9.694z" fill="url(#b)"/></g></mask><mask id="aL" height="1" width="1" y="0" x="0" maskUnits="userSpaceOnUse"><g clip-path="url(#e)"><path d="M201.737 148.587l3.389-3.389-3.389-3.389-3.39 3.389z" fill="url(#f)"/></g></mask><mask id="aO" height="1" width="1" y="0" x="0" maskUnits="userSpaceOnUse"><g clip-path="url(#g)"><path d="M193.741 153.228h8.896v-3.85h-8.896z" fill="url(#h)"/></g></mask><mask id="aR" height="1" width="1" y="0" x="0" maskUnits="userSpaceOnUse"><g clip-path="url(#i)"><path d="M203.476 151.303l3.107 3.107 3.108-3.107-3.108-3.108z" fill="url(#j)"/></g></mask><mask id="aX" height="1" width="1" y="0" x="0" maskUnits="userSpaceOnUse"><g clip-path="url(#k)"><path d="M183.315 149.947h.423v-11.22h-.423z" fill="url(#l)"/></g></mask><mask id="as" height="1" width="1" y="0" x="0" maskUnits="userSpaceOnUse"><g clip-path="url(#m)"><path d="M197.335 124.793l9.495 9.495 9.495-9.495-9.495-9.495z" fill="url(#n)"/></g></mask><mask id="bn" height="1" width="1" y="0" x="0" maskUnits="userSpaceOnUse"><g clip-path="url(#o)"><path d="M182.307 139.086h.362v-.736h-.362z" fill="url(#p)"/></g></mask><mask id="bq" height="1" width="1" y="0" x="0" maskUnits="userSpaceOnUse"><g clip-path="url(#q)"><path d="M181.503 123.556h2.19v-1.794h-2.19z" fill="url(#r)"/></g></mask><mask id="bt" height="1" width="1" y="0" x="0" maskUnits="userSpaceOnUse"><g clip-path="url(#s)"><path d="M181.503 137.897h1.156v-1.348h-1.156z" fill="url(#t)"/></g></mask><mask id="bw" height="1" width="1" y="0" x="0" maskUnits="userSpaceOnUse"><g clip-path="url(#u)"><path d="M185.023 137.8h.979v-1.182h-.979z" fill="url(#v)"/></g></mask><mask id="ap" height="1" width="1" y="0" x="0" maskUnits="userSpaceOnUse"><g clip-path="url(#w)"><path d="M182.733 129.66l19.23 19.23 19.23-19.23-19.23-19.23z" fill="url(#x)"/></g></mask><mask id="aF" height="1" width="1" y="0" x="0" maskUnits="userSpaceOnUse"><g clip-path="url(#c)"><path d="M203.696 141.629h1.201v-17.001h-1.201z" fill="url(#d)"/></g></mask><mask id="bC" height="1" width="1" y="0" x="0" maskUnits="userSpaceOnUse"><g clip-path="url(#A)"><path d="M181.503 136.15h.742v-.55h-.742z" fill="url(#B)"/></g></mask><mask id="bF" height="1" width="1" y="0" x="0" maskUnits="userSpaceOnUse"><g clip-path="url(#C)"><path d="M181.503 123.9h.742v.55h-.742z" fill="url(#D)"/></g></mask><mask id="bM" height="1" width="1" y="0" x="0" maskUnits="userSpaceOnUse"><g clip-path="url(#E)"><path d="M182.021 134.308h.642V124.25h-.642z" fill="url(#F)"/></g></mask><mask id="am" height="1" width="1" y="0" x="0" maskUnits="userSpaceOnUse"><g clip-path="url(#G)"><path d="M167.058 134.885l29.68 29.68 29.68-29.68-29.68-29.68z" fill="url(#H)"/></g></mask><mask id="bP" height="1" width="1" y="0" x="0" maskUnits="userSpaceOnUse"><g clip-path="url(#I)"><path d="M183.641 134.308h.642V124.25h-.642z" fill="url(#J)"/></g></mask><mask id="bS" height="1" width="1" y="0" x="0" maskUnits="userSpaceOnUse"><g clip-path="url(#K)"><path d="M185.364 134.308h.642V124.25h-.642z" fill="url(#L)"/></g></mask><mask id="bV" height="1" width="1" y="0" x="0" maskUnits="userSpaceOnUse"><g clip-path="url(#M)"><path d="M182.906 152.348h1.595v-1.907h-1.595z" fill="url(#N)"/></g></mask><mask id="bY" height="1" width="1" y="0" x="0" maskUnits="userSpaceOnUse"><g clip-path="url(#O)"><path d="M182.906 155.227h1.448v-2.604h-1.448z" fill="url(#P)"/></g></mask><mask id="aI" height="1" width="1" y="0" x="0" maskUnits="userSpaceOnUse"><g clip-path="url(#Q)"><path d="M201.276 142.509l10.425-10.425-10.425-10.426-10.426 10.426z" fill="url(#R)"/></g></mask><mask id="aa" height="1" width="1" y="0" x="0" maskUnits="userSpaceOnUse"><g clip-path="url(#S)"><path d="M155.927 138.788l36.908 36.909 36.908-36.909-36.908-36.908z" fill="url(#T)"/></g></mask><mask id="ad" height="1" width="1" y="0" x="0" maskUnits="userSpaceOnUse"><g clip-path="url(#U)"><path d="M159.221 142.524l29.879 29.878 29.879-29.878-29.879-29.879z" fill="url(#V)"/></g></mask><mask id="ag" height="1" width="1" y="0" x="0" maskUnits="userSpaceOnUse"><g clip-path="url(#W)"><path d="M164.446 147.748l19.429 19.43 19.429-19.43-19.429-19.429z" fill="url(#X)"/></g></mask></defs><path d="M179.773 157.463s-5.612 0-5.612-5.612v-26.197c.001-.17.087-5.608 5.612-5.608h26.192s5.613 0 5.613 5.612v26.193s0 5.612-5.613 5.612z" fill="url(#Y)" transform="matrix(.6244 0 0 -.62815 -107.2 100.35)"/><g clip-path="url(#Z)" transform="matrix(.6244 0 0 -.62815 -107.2 100.35)"><g mask="url(#aa)"><path d="M174.701 123.202c.407-.965 1.124-1.985 2.381-2.596l33.878 33.877c-.439.955-1.192 1.936-2.479 2.5z" fill="url(#ab)"/></g></g><g clip-path="url(#ac)" transform="matrix(.6244 0 0 -.62815 -107.2 100.35)"><g mask="url(#ad)"><path d="M199.061 157.463l-24.9-24.901v-4.977l29.878 29.878z" fill="url(#ae)"/></g></g><g clip-path="url(#af)" transform="matrix(.6244 0 0 -.62815 -107.2 100.35)"><g mask="url(#ag)"><path d="M188.611 157.463l-14.45-14.451v-4.978l19.429 19.429z" fill="url(#ah)"/></g></g><g clip-path="url(#ai)" transform="matrix(.6244 0 0 -.62815 -107.2 100.35)"><g mask="url(#aj)"><path d="M179.773 157.463s-.41 0-1.008-.111l-4.546-4.546a7.766 7.766 0 01-.058-.955v-4.082l9.694 9.694z" fill="url(#ak)"/></g></g><g clip-path="url(#al)" transform="matrix(.6244 0 0 -.62815 -107.2 100.35)"><g mask="url(#am)"><path d="M181.897 120.046h4.98l24.701 24.701v4.978z" fill="url(#an)"/></g></g><g clip-path="url(#ao)" transform="matrix(.6244 0 0 -.62815 -107.2 100.35)"><g mask="url(#ap)"><path d="M192.347 120.046h4.98l14.251 14.251v4.978z" fill="url(#aq)"/></g></g><g clip-path="url(#ar)" transform="matrix(.6244 0 0 -.62815 -107.2 100.35)"><g mask="url(#as)"><path d="M202.082 120.046h3.883s.527 0 1.257.161l4.264 4.263c.06.365.092.76.092 1.188v3.882z" fill="url(#at)"/></g></g><g clip-path="url(#au)" transform="matrix(.6244 0 0 -.62815 -107.2 100.35)" fill="none"><path d="M204.64 134.537h-4.006v20.506h4.006z" stroke="#fff200" stroke-width="2.2"/><path d="M208.774 154.236h-11.358s.073-3.63-3.41-3.63h-1.136v-2.2h15.904z" stroke="#fff200" stroke-width="2.2"/><path d="M193.493 149.03v.953h.513c1.176 0 2.13.364 2.835 1.084.794.81 1.063 1.876 1.153 2.546h10.157v-4.583zm10.881-7.04h-3.52c-.446 0-.806-.438-.806-.979v-18.428c0-.542.36-.98.806-.98h3.52c.446 0 .807.438.807.98v18.428c0 .541-.36.979-.807.979z" stroke="#fff200" stroke-width="2.2"/><path d="M205.18 135.189v6.506c0 .217-.36.392-.806.392h-3.52c-.445 0-.806-.175-.806-.392v-8.266z" stroke="#fff200" stroke-width="2.2"/><path d="M203.696 141.623h.495s.605.165.605-1.265v-15.73s.385 14.795-1.1 16.995zm-3.3-19.085v18.48s.055.561.605.611h1.155s-1.76-.61-1.76-19.09zm1.814 19.745h-.948v5.83h.949zm-8.47 7.425s4.07-.33 4.51 3.52h4.387s-6.724-1.54 0-3.85h-8.896zm11.66 3.52h2.366v-3.85s-.055 3.85-2.365 3.85z" stroke="#fff200" stroke-width="2.2"/><path d="M204.64 134.537h-4.006v20.506h4.006z" stroke="#393536" stroke-width=".88"/><path d="M208.774 154.236h-11.358s.073-3.63-3.41-3.63h-1.136v-2.2h15.904z" stroke="#393536" stroke-width=".88"/><path d="M193.493 149.03v.953h.513c1.176 0 2.13.364 2.835 1.084.794.81 1.063 1.876 1.153 2.546h10.157v-4.583zm10.881-7.04h-3.52c-.446 0-.806-.438-.806-.979v-18.428c0-.542.36-.98.806-.98h3.52c.446 0 .807.438.807.98v18.428c0 .541-.36.979-.807.979z" stroke="#393536" stroke-width=".88"/><path d="M205.18 135.189v6.506c0 .217-.36.392-.806.392h-3.52c-.445 0-.806-.175-.806-.392v-8.266z" stroke="#393536" stroke-width=".88"/><path d="M203.696 141.623h.495s.605.165.605-1.265v-15.73s.385 14.795-1.1 16.995zm-3.3-19.085v18.48s.055.561.605.611h1.155s-1.76-.61-1.76-19.09zm1.814 19.745h-.948v5.83h.949zm-8.47 7.425s4.07-.33 4.51 3.52h4.387s-6.724-1.54 0-3.85h-8.896zm11.66 3.52h2.366v-3.85s-.055 3.85-2.365 3.85z" stroke="#393536" stroke-width=".88"/></g><path d="M200.634 134.537h4.006v20.506h-4.006z" fill="url(#av)" transform="matrix(.6244 0 0 -.62815 -107.2 100.35)"/><g clip-path="url(#aw)" transform="matrix(.6244 0 0 -.62815 -107.2 100.35)"><path d="M204.64 134.537h-4.006v20.506h4.006z" fill="none" stroke="#656263" stroke-width=".22"/></g><path d="M197.416 154.237s.074-3.631-3.41-3.631h-1.136v-2.2h15.904v5.831z" fill="url(#ax)" transform="matrix(.6244 0 0 -.62815 -107.2 100.35)"/><g clip-path="url(#ay)" transform="matrix(.6244 0 0 -.62815 -107.2 100.35)"><path d="M208.774 154.236h-11.358s.073-3.63-3.41-3.63h-1.136v-2.2h15.904z" fill="none" stroke="#656263" stroke-width=".22"/></g><path d="M197.995 153.613c-.091-.67-.36-1.736-1.153-2.546-.706-.719-1.66-1.085-2.836-1.085h-.512v-.952h14.657v4.583z" fill="url(#az)" transform="matrix(.6244 0 0 -.62815 -107.2 100.35)"/><path d="M200.854 141.99c-.445 0-.806-.438-.806-.979v-18.429c0-.54.361-.978.806-.978h3.521c.445 0 .806.438.806.978v18.429c0 .541-.361.979-.806.979z" fill="url(#aA)" transform="matrix(.6244 0 0 -.62815 -107.2 100.35)"/><g clip-path="url(#aB)" transform="matrix(.6244 0 0 -.62815 -107.2 100.35)"><path d="M204.374 141.99h-3.52c-.446 0-.806-.438-.806-.979v-18.428c0-.542.36-.98.806-.98h3.52c.446 0 .807.438.807.98v18.428c0 .541-.36.979-.807.979z" fill="none" stroke="#730b0e" stroke-width=".22"/></g><path d="M200.854 142.087c-.445 0-.806-.176-.806-.392v-8.266l5.133 1.759v6.507c0 .216-.361.392-.806.392z" fill="url(#aC)" transform="matrix(.6244 0 0 -.62815 -107.2 100.35)"/><g clip-path="url(#aD)" transform="matrix(.6244 0 0 -.62815 -107.2 100.35)"><path d="M205.18 135.189v6.506c0 .217-.36.392-.806.392h-3.52c-.445 0-.806-.175-.806-.392v-8.266z" fill="none" stroke="#8a5621" stroke-width=".22"/></g><g clip-path="url(#aE)" transform="matrix(.6244 0 0 -.62815 -107.2 100.35)"><g mask="url(#aF)"><path d="M204.191 141.623h-.495c.724-1.074 1.004-5.144 1.1-9.033v7.768c0 1.162-.4 1.27-.549 1.27-.035 0-.056-.005-.056-.005m.605-16.995s.101 3.88 0 7.962z" fill="url(#aG)"/></g></g><g clip-path="url(#aH)" transform="matrix(.6244 0 0 -.62815 -107.2 100.35)"><g mask="url(#aI)"><path d="M201.001 141.629c-.55-.049-.605-.611-.605-.611v-18.479c0 18.479 1.76 19.09 1.76 19.09z" fill="url(#aJ)"/></g></g><g clip-path="url(#aK)" transform="matrix(.6244 0 0 -.62815 -107.2 100.35)"><g mask="url(#aL)"><path d="M201.262 142.283h.949v5.83h-.949z" fill="url(#aM)"/></g></g><g clip-path="url(#aN)" transform="matrix(.6244 0 0 -.62815 -107.2 100.35)"><g mask="url(#aO)"><path d="M198.251 153.228c-.44-3.85-4.51-3.52-4.51-3.52v-.33h8.896c-6.724 2.31 0 3.85 0 3.85z" fill="url(#aP)"/></g></g><g clip-path="url(#aQ)" transform="matrix(.6244 0 0 -.62815 -107.2 100.35)"><g mask="url(#aR)"><path d="M205.401 153.228c2.31 0 2.365-3.85 2.365-3.85v3.85z" fill="url(#aS)"/></g></g><g clip-path="url(#aT)" transform="matrix(.6244 0 0 -.62815 -107.2 100.35)" fill="none"><path d="M184.353 137.812h-1.322v12.355h1.322z" stroke="#fff200" stroke-width="2.2" stroke-linecap="round" stroke-linejoin="round"/><path d="M183.738 149.947h-.423v-11.22h.423zm2.521-26.217a2.127 2.127 0 00-2.127-2.127h-.88a2.128 2.128 0 00-2.126 2.127v12.614c0 1.174.953 2.126 2.126 2.126h.88a2.126 2.126 0 002.127-2.126zm-5.133 12.614h5.133m-5.133-12.614h5.133m-1.731 31.725h-1.705l-.231-2.979.44-2.31h1.322l.44 2.31zm-1.496-2.97h1.322" stroke="#fff200" stroke-width="2.2" stroke-linecap="round" stroke-linejoin="round"/><path d="M185.417 139.276h-3.353v-1.17h3.353z" stroke="#fff200" stroke-width="2.2" stroke-linecap="round" stroke-linejoin="round"/><path d="M182.67 138.35h-.363v.737h.352zm-1.167-14.794h.742s.282-1.155 1.448-1.733c0 0-1.82-.061-2.19 1.733zm0 12.994v.068s.26.955.742 1.28h.414s-.716-.799-.414-1.349zm3.52.068h.979s-.127.715-.787 1.183c0 0 .77-1.183-.192-1.183zm-.413-13.145h1.392s-.035-1.1-1.392-1.485c0 0 1.348 1.485 0 1.485zm-3.107 12.677h.742v-.356s-.687.027-.742-.193zm0-12.25h.742v.246s-.715.028-.742.303z" stroke="#fff200" stroke-width="2.2" stroke-linecap="round" stroke-linejoin="round"/><path d="M182.663 124.892a.642.642 0 00-1.283 0v10.019a.642.642 0 101.283 0zm1.619 0a.642.642 0 00-1.283 0v10.019a.642.642 0 101.283 0zm1.724 0a.642.642 0 00-1.283 0v10.019a.642.642 0 101.282 0z" stroke="#fff200" stroke-width="2.2" stroke-linecap="round" stroke-linejoin="round"/><path d="M181.386 124.82v10.093s-.082.633.632.633c0 0 .64.12.64-.641m2.071-10.085v10.093s-.082.633.632.633c0 0 .64.12.64-.641m-2.995-10.085v10.093s-.082.633.632.633c0 0 .64.12.64-.641m-2.257-10.655s.642.08.642.642l-.004 9.416s.018-9.419-.638-10.058zm1.619 0s.643.08.643.642l-.004 9.416s.018-9.419-.638-10.058zm1.724 0s.642.08.642.642l-.004 9.416s.018-9.419-.638-10.058zm-2.049 26.191l-.41 1.907h1.595s-1.521-.06-.88-1.907zm-.41 2.182l.126 2.603h1.322s-1.283 0-1.448-2.603z" stroke="#fff200" stroke-width="2.2" stroke-linecap="round" stroke-linejoin="round"/><path d="M184.353 137.812h-1.322v12.355h1.322z" stroke="#393536" stroke-width=".88"/><path d="M183.738 149.947h-.423v-11.22h.423zm2.521-26.217a2.127 2.127 0 00-2.127-2.127h-.88a2.128 2.128 0 00-2.126 2.127v12.614c0 1.174.953 2.126 2.126 2.126h.88a2.126 2.126 0 002.127-2.126zm-5.133 12.614h5.133m-5.133-12.614h5.133m-1.731 31.725h-1.705l-.231-2.979.44-2.31h1.322l.44 2.31zm-1.496-2.97h1.322" stroke="#393536" stroke-width=".88"/><path d="M185.417 139.276h-3.353v-1.17h3.353z" stroke="#393536" stroke-width=".88"/><path d="M182.67 138.35h-.363v.737h.352zm-1.167-14.794h.742s.282-1.155 1.448-1.733c0 0-1.82-.061-2.19 1.733zm0 12.994v.068s.26.955.742 1.28h.414s-.716-.799-.414-1.349zm3.52.068h.979s-.127.715-.787 1.183c0 0 .77-1.183-.192-1.183zm-.413-13.145h1.392s-.035-1.1-1.392-1.485c0 0 1.348 1.485 0 1.485zm-3.107 12.677h.742v-.356s-.687.027-.742-.193zm0-12.25h.742v.246s-.715.028-.742.303z" stroke="#393536" stroke-width=".88"/><path d="M182.663 124.892a.642.642 0 00-1.283 0v10.019a.642.642 0 101.283 0zm1.619 0a.642.642 0 00-1.283 0v10.019a.642.642 0 101.283 0zm1.724 0a.642.642 0 00-1.283 0v10.019a.642.642 0 101.282 0z" stroke="#393536" stroke-width=".88"/><path d="M181.386 124.82v10.093s-.082.633.632.633c0 0 .64.12.64-.641m2.071-10.085v10.093s-.082.633.632.633c0 0 .64.12.64-.641m-2.995-10.085v10.093s-.082.633.632.633c0 0 .64.12.64-.641m-2.257-10.655s.642.08.642.642l-.004 9.416s.018-9.419-.638-10.058zm1.619 0s.643.08.643.642l-.004 9.416s.018-9.419-.638-10.058zm1.724 0s.642.08.642.642l-.004 9.416s.018-9.419-.638-10.058zm-2.049 26.191l-.41 1.907h1.595s-1.521-.06-.88-1.907zm-.41 2.182l.126 2.603h1.322s-1.283 0-1.448-2.603z" stroke="#393536" stroke-width=".88"/></g><path d="M183.032 137.812h1.321v12.355h-1.321z" fill="url(#aU)" transform="matrix(.6244 0 0 -.62815 -107.2 100.35)"/><g clip-path="url(#aV)" transform="matrix(.6244 0 0 -.62815 -107.2 100.35)"><path d="M184.353 137.812h-1.322v12.355h1.322z" fill="none" stroke="#656263" stroke-width=".22"/></g><g clip-path="url(#aW)" transform="matrix(.6244 0 0 -.62815 -107.2 100.35)"><g mask="url(#aX)"><path d="M183.315 138.727h.423v11.22h-.423z" fill="url(#aY)"/></g></g><path d="M183.253 138.47a2.126 2.126 0 01-2.127-2.126v-12.615c0-1.173.952-2.125 2.127-2.125h.88c1.173 0 2.126.952 2.126 2.125v12.615a2.127 2.127 0 01-2.126 2.126z" fill="url(#aZ)" transform="matrix(.6244 0 0 -.62815 -107.2 100.35)"/><g clip-path="url(#ba)" transform="matrix(.6244 0 0 -.62815 -107.2 100.35)"><path d="M186.259 123.73a2.127 2.127 0 00-2.127-2.127h-.88a2.128 2.128 0 00-2.126 2.127v12.614c0 1.174.953 2.126 2.126 2.126h.88a2.126 2.126 0 002.127-2.126z" fill="none" stroke="#730b0e" stroke-width=".22"/></g><g clip-path="url(#bb)" transform="matrix(.6244 0 0 -.62815 -107.2 100.35)"><path d="M181.126 136.344h5.133z" fill="url(#bc)"/></g><g clip-path="url(#bd)" transform="matrix(.6244 0 0 -.62815 -107.2 100.35)"><path d="M181.126 136.344h5.133" fill="none" stroke="#730b0e" stroke-width=".22"/></g><g clip-path="url(#be)" transform="matrix(.6244 0 0 -.62815 -107.2 100.35)"><path d="M181.126 123.73h5.133" fill="none" stroke="#730b0e" stroke-width=".22"/></g><path d="M182.822 155.455l-.23-2.979.44-2.309h1.321l.44 2.309-.265 2.979z" fill="url(#bf)" transform="matrix(.6244 0 0 -.62815 -107.2 100.35)"/><g clip-path="url(#bg)" transform="matrix(.6244 0 0 -.62815 -107.2 100.35)"><path d="M184.528 155.455h-1.705l-.231-2.979.44-2.31h1.322l.44 2.31z" fill="none" stroke="#656263" stroke-width=".22"/></g><g clip-path="url(#bh)" transform="matrix(.6244 0 0 -.62815 -107.2 100.35)"><path d="M183.032 152.485h1.322z" fill="url(#bi)"/></g><g clip-path="url(#bj)" transform="matrix(.6244 0 0 -.62815 -107.2 100.35)"><path d="M183.032 152.485h1.322" fill="none" stroke="#656263" stroke-width=".22"/></g><path d="M182.065 138.107h3.353v1.17h-3.353z" fill="url(#bk)" transform="matrix(.6244 0 0 -.62815 -107.2 100.35)"/><g clip-path="url(#bl)" transform="matrix(.6244 0 0 -.62815 -107.2 100.35)"><path d="M185.417 139.276h-3.353v-1.17h3.353z" fill="none" stroke="#730b0e" stroke-width=".22"/></g><g clip-path="url(#bm)" transform="matrix(.6244 0 0 -.62815 -107.2 100.35)"><g mask="url(#bn)"><path d="M182.307 139.087v-.736h.362l-.009.736z" fill="url(#bo)"/></g></g><g clip-path="url(#bp)" transform="matrix(.6244 0 0 -.62815 -107.2 100.35)"><g mask="url(#bq)"><path d="M181.503 123.556c.371-1.794 2.19-1.733 2.19-1.733-1.166.578-1.448 1.733-1.448 1.733z" fill="url(#br)"/></g></g><g clip-path="url(#bs)" transform="matrix(.6244 0 0 -.62815 -107.2 100.35)"><g mask="url(#bt)"><path d="M182.245 137.897c-.481-.323-.742-1.279-.742-1.279v-.069h.742c-.302.55.415 1.348.415 1.348z" fill="url(#bu)"/></g></g><g clip-path="url(#bv)" transform="matrix(.6244 0 0 -.62815 -107.2 100.35)"><g mask="url(#bw)"><path d="M185.023 136.618h.979s-.127.715-.787 1.182c0 0 .771-1.182-.192-1.182" fill="url(#bx)"/></g></g><g clip-path="url(#by)" transform="matrix(.6244 0 0 -.62815 -107.2 100.35)"><g mask="url(#bz)"><path d="M184.61 123.473c1.348 0 0-1.485 0-1.485 1.358.385 1.392 1.485 1.392 1.485z" fill="url(#bA)"/></g></g><g clip-path="url(#bB)" transform="matrix(.6244 0 0 -.62815 -107.2 100.35)"><g mask="url(#bC)"><path d="M181.503 136.15v-.549c.055.22.742.192.742.192v.357z" fill="url(#bD)"/></g></g><g clip-path="url(#bE)" transform="matrix(.6244 0 0 -.62815 -107.2 100.35)"><g mask="url(#bF)"><path d="M181.503 123.899h.742v.248s-.714.027-.742.302z" fill="url(#bG)"/></g></g><path d="M181.379 134.911v-10.02a.642.642 0 111.283 0v10.02a.642.642 0 01-1.283 0" fill="url(#bH)" transform="matrix(.6244 0 0 -.62815 -107.2 100.35)"/><path d="M182.999 134.911v-10.02a.643.643 0 011.283 0v10.02a.641.641 0 11-1.283 0" fill="url(#bI)" transform="matrix(.6244 0 0 -.62815 -107.2 100.35)"/><path d="M184.721 134.911v-10.02a.643.643 0 011.285 0v10.02a.642.642 0 01-1.285 0" fill="url(#bJ)" transform="matrix(.6244 0 0 -.62815 -107.2 100.35)"/><g clip-path="url(#bK)" transform="matrix(.6244 0 0 -.62815 -107.2 100.35)"><path d="M181.386 124.82v10.093s-.082.633.632.633c0 0 .64.12.64-.641m2.071-10.085v10.093s-.082.633.632.633c0 0 .64.12.64-.641m-2.995-10.085v10.093s-.082.633.632.633c0 0 .64.12.64-.641" fill="none" stroke="#730b0e" stroke-width=".22" stroke-linecap="round" stroke-linejoin="round"/></g><g clip-path="url(#bL)" transform="matrix(.6244 0 0 -.62815 -107.2 100.35)"><g mask="url(#bM)"><path d="M182.66 134.307v.001zm0-.101c-.001-1.02-.023-9.355-.639-9.957 0 0 .641.081.641.642l-.002 9.315v.101z" fill="url(#bN)"/></g></g><g clip-path="url(#bO)" transform="matrix(.6244 0 0 -.62815 -107.2 100.35)"><g mask="url(#bP)"><path d="M184.279 134.307v.001zm0-.101c0-1.02-.023-9.355-.638-9.957 0 0 .641.081.641.642l-.003 9.315v.101z" fill="url(#bQ)"/></g></g><g clip-path="url(#bR)" transform="matrix(.6244 0 0 -.62815 -107.2 100.35)"><g mask="url(#bS)"><path d="M186.002 134.307v.001zm0-.095c0-.994-.022-9.36-.638-9.963 0 0 .642.081.642.642l-.004 9.321v.095z" fill="url(#bT)"/></g></g><g clip-path="url(#bU)" transform="matrix(.6244 0 0 -.62815 -107.2 100.35)"><g mask="url(#bV)"><path d="M182.905 152.348l.41-1.907h.305c-.641 1.847.881 1.907.881 1.907z" fill="url(#bW)"/></g></g><g clip-path="url(#bX)" transform="matrix(.6244 0 0 -.62815 -107.2 100.35)"><g mask="url(#bY)"><path d="M183.032 155.227l-.127-2.604c.165 2.604 1.448 2.604 1.448 2.604z" fill="url(#bZ)"/></g></g><path d="M0 0s-5.613 0-5.613-5.613v-26.192s0-5.612 5.613-5.612h26.192s5.613 0 5.613 5.612v26.192S31.805 0 26.192 0z" fill="none" stroke="#231f20" stroke-width=".66" transform="matrix(.6244 0 0 -.62815 5.052 1.438)"/></svg>