<svg xmlns="http://www.w3.org/2000/svg" width="100" height="100" viewBox="0 0 26.458 26.458"><defs><clipPath clipPathUnits="userSpaceOnUse" id="ba"><path d="M474.699 157.462c-.54-.015-5.489-.298-5.564-5.491v-26.363c.016-.559.312-5.562 5.611-5.562h26.192s5.533 0 5.613 5.492v26.36c-.016.54-.299 5.488-5.491 5.564z"/></clipPath><clipPath clipPathUnits="userSpaceOnUse" id="N"><path d="M488.023 138.208l-4.522.319c-1.127 0-2.476-2.22-2.476-3.809l-.88-7.767c0-1.587.913-2.875 2.039-2.875h11.689c1.125 0 2.04 1.288 2.04 2.875l-.881 7.767c0 1.589-1.423 3.809-2.549 3.809z"/></clipPath><clipPath clipPathUnits="userSpaceOnUse" id="M"><path d="M474.699 157.462c-.54-.015-5.489-.298-5.564-5.491v-26.363c.016-.559.312-5.562 5.611-5.562h26.192s5.533 0 5.613 5.492v26.36c-.016.54-.299 5.488-5.491 5.564z"/></clipPath><clipPath clipPathUnits="userSpaceOnUse" id="P"><path d="M474.699 157.462c-.54-.015-5.489-.298-5.564-5.491v-26.363c.016-.559.312-5.562 5.611-5.562h26.192s5.533 0 5.613 5.492v26.36c-.016.54-.299 5.488-5.491 5.564z"/></clipPath><clipPath clipPathUnits="userSpaceOnUse" id="Q"><path d="M482.238 155.977c-1.222 0-2.768-3.436-2.768-5.205l.881-8.649c0-1.769 1.593-3.915 2.815-3.915h9.724c1.223 0 2.816 2.146 2.816 3.915l.88 8.649c0 1.769-1.545 5.205-2.768 5.205z"/></clipPath><clipPath clipPathUnits="userSpaceOnUse" id="S"><path d="M474.699 157.462c-.54-.015-5.489-.298-5.564-5.491v-26.363c.016-.559.312-5.562 5.611-5.562h26.192s5.533 0 5.613 5.492v26.36c-.016.54-.299 5.488-5.491 5.564z"/></clipPath><clipPath clipPathUnits="userSpaceOnUse" id="T"><path d="M484.858 157.462a3.484 3.484 0 01-.336-1.497c0-1.936 1.57-3.207 3.507-3.207 1.936 0 3.505 1.271 3.505 3.207 0 .536-.12 1.044-.335 1.497z"/></clipPath><clipPath clipPathUnits="userSpaceOnUse" id="V"><path d="M474.699 157.462c-.54-.015-5.489-.298-5.564-5.491v-26.363c.016-.559.312-5.562 5.611-5.562h26.192s5.533 0 5.613 5.492v26.36c-.016.54-.299 5.488-5.491 5.564z"/></clipPath><clipPath clipPathUnits="userSpaceOnUse" id="W"><path d="M495.229 152.869c0-1.728 1.401-2.861 3.129-2.861s3.128 1.133 3.128 2.861a3.13 3.13 0 11-6.257 0"/></clipPath><clipPath clipPathUnits="userSpaceOnUse" id="Y"><path d="M474.699 157.462c-.54-.015-5.489-.298-5.564-5.491v-26.363c.016-.559.312-5.562 5.611-5.562h26.192s5.533 0 5.613 5.492v26.36c-.016.54-.299 5.488-5.491 5.564z"/></clipPath><clipPath clipPathUnits="userSpaceOnUse" id="Z"><path d="M474.171 152.848c0-1.728 1.402-2.86 3.13-2.86s3.129 1.132 3.129 2.86a3.13 3.13 0 01-6.259 0"/></clipPath><clipPath clipPathUnits="userSpaceOnUse" id="ab"><path d="M474.699 157.462c-.54-.015-5.489-.298-5.564-5.491v-26.363c.016-.559.312-5.562 5.611-5.562h26.192s5.533 0 5.613 5.492v26.36c-.016.54-.299 5.488-5.491 5.564z"/></clipPath><clipPath clipPathUnits="userSpaceOnUse" id="ac"><path d="M475.816 152.313a1.965 1.965 0 013.931 0 1.966 1.966 0 11-3.931 0"/></clipPath><clipPath clipPathUnits="userSpaceOnUse" id="ae"><path d="M474.699 157.462c-.54-.015-5.489-.298-5.564-5.491v-26.363c.016-.559.312-5.562 5.611-5.562h26.192s5.533 0 5.613 5.492v26.36c-.016.54-.299 5.488-5.491 5.564z"/></clipPath><clipPath clipPathUnits="userSpaceOnUse" id="af"><path d="M501.39 152.17l-.718-1.535c-.345-.898-1.089-1.174-.737-1.339l6.616-3.095v5.238l-4.607 2.155a.216.216 0 01-.091.025c-.221 0-.076-.623-.463-1.449"/></clipPath><clipPath clipPathUnits="userSpaceOnUse" id="ah"><path d="M474.699 157.462c-.54-.015-5.489-.298-5.564-5.491v-26.363c.016-.559.312-5.562 5.611-5.562h26.192s5.533 0 5.613 5.492v26.36c-.016.54-.299 5.488-5.491 5.564z"/></clipPath><clipPath clipPathUnits="userSpaceOnUse" id="ai"><path d="M473.529 154.309l-4.373-1.855a9.245 9.245 0 01-.021-.483v-4.681l6.247 2.65c.603.256-.354.402-.752 1.338l-.661 1.56c-.422.74.025 1.516-.274 1.516a.47.47 0 01-.166-.045"/></clipPath><clipPath clipPathUnits="userSpaceOnUse" id="ak"><path d="M474.699 157.462c-.54-.015-5.489-.298-5.564-5.491v-26.363c.016-.559.312-5.562 5.611-5.562h26.192s5.533 0 5.613 5.492v26.36c-.016.54-.299 5.488-5.491 5.564z"/></clipPath><clipPath clipPathUnits="userSpaceOnUse" id="I"><path d="M476.215 156.957l3.307-3.307-3.307-3.307-3.307 3.307z"/></clipPath><clipPath clipPathUnits="userSpaceOnUse" id="H"><path d="M-13948.5 14537.2h28834.8v-28834.8h-28834.8z"/></clipPath><clipPath clipPathUnits="userSpaceOnUse" id="al"><path d="M474.648 153.096l.701-1.186c-.351 2.012 2.433 3.455 2.433 3.455a3.683 3.683 0 01-.41.024c-2.231 0-2.724-2.293-2.724-2.293"/></clipPath><clipPath clipPathUnits="userSpaceOnUse" id="e"><path d="M476.942 154.708l1.617-1.617-1.617-1.618-1.617 1.618z"/></clipPath><clipPath clipPathUnits="userSpaceOnUse" id="d"><path d="M-13948.5 14537.2h28834.8v-28834.8h-28834.8z"/></clipPath><clipPath clipPathUnits="userSpaceOnUse" id="ao"><path d="M476.215 152.313l.538.022c-.651.68 1.029 1.525 1.029 1.525-.05.006-.099.008-.147.008-1.227 0-1.42-1.555-1.42-1.555"/></clipPath><clipPath clipPathUnits="userSpaceOnUse" id="F"><path d="M496.941 154.44l1.349-1.349-1.349-1.35-1.35 1.35z"/></clipPath><clipPath clipPathUnits="userSpaceOnUse" id="E"><path d="M-13948.5 14537.2h28834.8v-28834.8h-28834.8z"/></clipPath><clipPath clipPathUnits="userSpaceOnUse" id="ar"><path d="M497.506 153.868c-.797 0-1.137-1.11-1.137-1.11l.217-.445c0 .742.927 1.555.927 1.555z"/></clipPath><clipPath clipPathUnits="userSpaceOnUse" id="C"><path d="M497.29 156.882l2.327-2.327-2.327-2.328-2.328 2.328z"/></clipPath><clipPath clipPathUnits="userSpaceOnUse" id="B"><path d="M-13948.5 14537.2h28834.8v-28834.8h-28834.8z"/></clipPath><clipPath clipPathUnits="userSpaceOnUse" id="au"><path d="M495.913 153.605c1.355 1.9 2.755 1.784 2.755 1.784-.228.06-.437.087-.631.087-1.625 0-2.124-1.871-2.124-1.871"/></clipPath><clipPath clipPathUnits="userSpaceOnUse" id="z"><path d="M484.245 158.923l5.596-5.596-5.596-5.597-5.597 5.597z"/></clipPath><clipPath clipPathUnits="userSpaceOnUse" id="y"><path d="M-13948.5 14537.2h28834.8v-28834.8h-28834.8z"/></clipPath><clipPath clipPathUnits="userSpaceOnUse" id="ax"><path d="M481.117 154.279c.782-.041 4.015-1.682 5.658-2.54-6.027 3.284-2.901 3.65-2.901 3.65a4.67 4.67 0 01-.58.036c-1.804 0-2.177-1.146-2.177-1.146m6.624-3.051c-.018.011-.396.214-.966.511.299-.163.622-.334.966-.511m0 0"/></clipPath><clipPath clipPathUnits="userSpaceOnUse" id="w"><path d="M485.654 157.446l2.46-2.46-2.46-2.46-2.46 2.46z"/></clipPath><clipPath clipPathUnits="userSpaceOnUse" id="v"><path d="M-32768 32767h65535v-65535h-65535z"/></clipPath><clipPath clipPathUnits="userSpaceOnUse" id="aA"><path d="M486.733 153.605s-1.296 1.774-.8 2.394l-.704.369s-.653-1.415 1.504-2.763"/></clipPath><clipPath clipPathUnits="userSpaceOnUse" id="aD"><path d="M484.439 157.462c1.048-1.111 2.241-1.799 3.51-1.827h.159c1.269.028 2.463.716 3.51 1.827z"/></clipPath><clipPath clipPathUnits="userSpaceOnUse" id="aF"><path d="M474.699 157.462c-.54-.015-5.489-.298-5.564-5.491v-26.363c.016-.559.312-5.562 5.611-5.562h26.192s5.533 0 5.613 5.492v26.36c-.016.54-.299 5.488-5.491 5.564z"/></clipPath><clipPath clipPathUnits="userSpaceOnUse" id="b"><path d="M486.1 157.744l.578-.578-.578-.578-.578.578z"/></clipPath><clipPath clipPathUnits="userSpaceOnUse" id="a"><path d="M-32768 32767h65535v-65535h-65535z"/></clipPath><clipPath clipPathUnits="userSpaceOnUse" id="aG"><path d="M485.818 157.462c.336-.375.552-.582.563-.592-.127.198-.248.396-.366.592z"/></clipPath><clipPath clipPathUnits="userSpaceOnUse" id="q"><path d="M485.046 160.021l14.252-14.252-14.252-14.252-14.252 14.252z"/></clipPath><clipPath clipPathUnits="userSpaceOnUse" id="p"><path d="M-13948.5 14537.2h28834.8v-28834.8h-28834.8z"/></clipPath><clipPath clipPathUnits="userSpaceOnUse" id="aJ"><path d="M480.59 150.349c-.294-.143.824-8.919.824-8.919s.489-2.227 2.131-2.227h9.187s-15.372 1.999-10.926 13.132c0 0-.923-1.843-1.216-1.986"/></clipPath><clipPath clipPathUnits="userSpaceOnUse" id="n"><path d="M491.239 155.973l6.777-6.777-6.777-6.778-6.778 6.778z"/></clipPath><clipPath clipPathUnits="userSpaceOnUse" id="m"><path d="M-13948.5 14537.2h28834.8v-28834.8h-28834.8z"/></clipPath><clipPath clipPathUnits="userSpaceOnUse" id="aM"><path d="M494.233 152.664l.221.094a1.34 1.34 0 01-.221-.094m-6.21-2.656v-4.375s4.344 6.06 6.21 7.031z"/></clipPath><clipPath clipPathUnits="userSpaceOnUse" id="k"><path d="M484.429 140.16l8.86-8.859-8.86-8.86-8.859 8.86z"/></clipPath><clipPath clipPathUnits="userSpaceOnUse" id="j"><path d="M-13948.5 14537.2h28834.8v-28834.8h-28834.8z"/></clipPath><clipPath clipPathUnits="userSpaceOnUse" id="aP"><path d="M486.967 137.373h.246s-.04.003-.112.003a3.62 3.62 0 01-.134-.003m-2.503 0c-1.287 0-2.249-2.019-2.249-2.019l-.569-7.883c0-2.246 1.14-2.105 1.14-2.105-.887.561-.705 2.246-.705 2.246-.148 8.914 3.845 9.705 4.886 9.761z"/></clipPath><clipPath clipPathUnits="userSpaceOnUse" id="h"><path d="M501.028 152.607l6.217-.92-.815-5.508-6.218.92z"/></clipPath><clipPath clipPathUnits="userSpaceOnUse" id="g"><path d="M-13948.5 14537.2h28834.8v-28834.8h-28834.8z"/></clipPath><clipPath clipPathUnits="userSpaceOnUse" id="aS"><path d="M500.907 149.551c.446-.285 3.4-1.582 5.644-2.555v.282c-3.937 2.428-4.563 4.511-4.563 4.511.046-.526-1.081-2.238-1.081-2.238"/></clipPath><clipPath clipPathUnits="userSpaceOnUse" id="t"><path d="M474.286 153.717l.25-3.441-5.374-.391-.251 3.441z"/></clipPath><clipPath clipPathUnits="userSpaceOnUse" id="s"><path d="M-13948.5 14537.2h28834.8v-28834.8h-28834.8z"/></clipPath><clipPath clipPathUnits="userSpaceOnUse" id="aV"><path d="M469.135 151.561v-.566c2.274.471 4.305.45 5.178-.736 0 0-1.359 2.117-1.072 3.083z"/></clipPath><clipPath clipPathUnits="userSpaceOnUse" id="aY"><path d="M479.29 124.77c0-2.075 1.681-3.437 3.756-3.437 2.076 0 3.759 1.362 3.759 3.437a3.758 3.758 0 01-3.759 3.757 3.756 3.756 0 01-3.756-3.757"/></clipPath><clipPath clipPathUnits="userSpaceOnUse" id="K"><path d="M474.699 157.462c-.539-.015-5.488-.299-5.564-5.491v-26.363c.016-.558.312-5.562 5.611-5.562h26.192s5.533 0 5.613 5.492v26.36c-.016.539-.299 5.488-5.491 5.564z"/></clipPath><clipPath clipPathUnits="userSpaceOnUse" id="bb"><path d="M489.553 124.77c0-2.075 1.68-3.437 3.757-3.437 2.075 0 3.757 1.362 3.757 3.437a3.757 3.757 0 01-3.757 3.757 3.756 3.756 0 01-3.757-3.757"/></clipPath><clipPath clipPathUnits="userSpaceOnUse" id="bd"><path d="M474.699 157.462c-.54-.015-5.489-.298-5.564-5.491v-26.363c.016-.559.312-5.562 5.611-5.562h26.192s5.533 0 5.613 5.492v26.36c-.016.54-.299 5.488-5.491 5.564z"/></clipPath><clipPath clipPathUnits="userSpaceOnUse" id="be"><path d="M478.948 122.697l-.384-2.651h6.725l.337 1.409c.074.398-.196.314-.72.23a4.166 4.166 0 00-1.458-.008l-2.386.444c-1.059.103-1.665.793-1.946.793-.084 0-.139-.061-.168-.217"/></clipPath><clipPath clipPathUnits="userSpaceOnUse" id="bg"><path d="M474.699 157.462c-.54-.015-5.489-.298-5.564-5.491v-26.363c.016-.559.312-5.562 5.611-5.562h26.192s5.533 0 5.613 5.492v26.36c-.016.54-.299 5.488-5.491 5.564z"/></clipPath><clipPath clipPathUnits="userSpaceOnUse" id="bh"><path d="M495.819 122.299l-2.294-.79c-.608-.27-1.176-.254-1.575-.237-.429.017-.664.035-.547-.303l.359-.923h6.964l-.9 3.132c-.05.147-.11.207-.187.207-.269 0-.752-.719-1.82-1.086"/></clipPath><clipPath clipPathUnits="userSpaceOnUse" id="bj"><path d="M474.699 157.462c-.54-.015-5.489-.298-5.564-5.491v-26.363c.016-.559.312-5.562 5.611-5.562h26.192s5.533 0 5.613 5.492v26.36c-.016.54-.299 5.488-5.491 5.564z"/></clipPath><linearGradient x1="0" y1="0" x2="1" y2="0" gradientUnits="userSpaceOnUse" gradientTransform="scale(3.0172 -3.0172) rotate(45 142.812 168.15)" spreadMethod="pad" id="x"><stop offset="0" stop-color="#fff"/><stop offset="1" stop-opacity="0" stop-color="#fff"/></linearGradient><linearGradient x1="0" y1="0" x2="1" y2="0" gradientUnits="userSpaceOnUse" gradientTransform="scale(52.91542 -52.91542) rotate(45 8.025 9.214)" spreadMethod="pad" id="L"><stop offset="0" stop-color="#50ade5"/><stop offset="1" stop-color="#fff"/></linearGradient><linearGradient x1="0" y1="0" x2="1" y2="0" gradientUnits="userSpaceOnUse" gradientTransform="matrix(7.01236 0 0 -7.01236 484.522 156.115)" spreadMethod="pad" id="U"><stop offset="0" stop-color="#fbcec5"/><stop offset="1" stop-color="#bb8661"/></linearGradient><linearGradient x1="0" y1="0" x2="1" y2="0" gradientUnits="userSpaceOnUse" gradientTransform="matrix(6.25785 0 0 -6.25785 495.229 153.004)" spreadMethod="pad" id="X"><stop offset="0" stop-color="#fbcec5"/><stop offset="1" stop-color="#bb8661"/></linearGradient><linearGradient x1="0" y1="0" x2="1" y2="0" gradientUnits="userSpaceOnUse" gradientTransform="rotate(180 240.215 76.491) scale(6.25828)" spreadMethod="pad" id="aa"><stop offset="0" stop-color="#bb8661"/><stop offset="1" stop-color="#fbcec5"/></linearGradient><linearGradient x1="0" y1="0" x2="1" y2="0" gradientUnits="userSpaceOnUse" gradientTransform="matrix(6.42355 2.21002 1.6304 -4.73884 494.437 112.149)" spreadMethod="pad" id="bi"><stop offset="0" stop-color="#fbcec5"/><stop offset="1" stop-color="#bb8661"/></linearGradient><linearGradient x1="0" y1="0" x2="1" y2="0" gradientUnits="userSpaceOnUse" gradientTransform="matrix(6.67856 -1.2422 -.91641 -4.92696 477.243 113.527)" spreadMethod="pad" id="bf"><stop offset="0" stop-color="#fbcec5"/><stop offset="1" stop-color="#bb8661"/></linearGradient><linearGradient x1="0" y1="0" x2="1" y2="0" gradientUnits="userSpaceOnUse" gradientTransform="matrix(7.51423 0 0 -7.51423 489.553 124.93)" spreadMethod="pad" id="bc"><stop offset="0" stop-color="#fbcec5"/><stop offset="1" stop-color="#bb8661"/></linearGradient><linearGradient x1="0" y1="0" x2="1" y2="0" gradientUnits="userSpaceOnUse" gradientTransform="matrix(7.51509 0 0 -7.51509 479.29 124.93)" spreadMethod="pad" id="aZ"><stop offset="0" stop-color="#fbcec5"/><stop offset="1" stop-color="#bb8661"/></linearGradient><linearGradient x1="0" y1="0" x2="1" y2="0" gradientUnits="userSpaceOnUse" gradientTransform="matrix(3.93006 0 0 -3.93006 475.817 152.314)" spreadMethod="pad" id="ad"><stop offset="0" stop-color="#fbcec5"/><stop offset="1" stop-color="#bb8661"/></linearGradient><linearGradient x1="0" y1="0" x2="1" y2="0" gradientUnits="userSpaceOnUse" gradientTransform="scale(4.83002 -4.83002) rotate(85.839 65.34 36.139)" spreadMethod="pad" id="u"><stop offset="0" stop-color="#fff"/><stop offset="1" stop-opacity="0" stop-color="#fff"/></linearGradient><linearGradient x1="0" y1="0" x2="1" y2="0" gradientUnits="userSpaceOnUse" gradientTransform="scale(4.83002 -4.83002) rotate(85.839 65.34 36.139)" spreadMethod="pad" id="aX"><stop offset="0" stop-color="#fff"/><stop offset="1" stop-color="#fff"/></linearGradient><linearGradient x1="0" y1="0" x2="1" y2="0" gradientUnits="userSpaceOnUse" gradientTransform="scale(8.68768 -8.68768) rotate(8.42 145.732 383.016)" spreadMethod="pad" id="i"><stop offset="0" stop-color="#fff"/><stop offset="1" stop-opacity="0" stop-color="#fff"/></linearGradient><linearGradient x1="0" y1="0" x2="1" y2="0" gradientUnits="userSpaceOnUse" gradientTransform="scale(8.68768 -8.68768) rotate(8.42 145.732 383.016)" spreadMethod="pad" id="aU"><stop offset="0" stop-color="#fff"/><stop offset="1" stop-color="#fff"/></linearGradient><linearGradient x1="0" y1="0" x2="1" y2="0" gradientUnits="userSpaceOnUse" gradientTransform="scale(7.7557 -7.7557) rotate(45 52.02 66.218)" spreadMethod="pad" id="l"><stop offset="0" stop-color="#fff"/><stop offset="1" stop-opacity="0" stop-color="#fff"/></linearGradient><linearGradient x1="0" y1="0" x2="1" y2="0" gradientUnits="userSpaceOnUse" gradientTransform="scale(7.7557 -7.7557) rotate(45 52.02 66.218)" spreadMethod="pad" id="aR"><stop offset="0" stop-color="#fff"/><stop offset="1" stop-color="#fff"/></linearGradient><linearGradient x1="0" y1="0" x2="1" y2="0" gradientUnits="userSpaceOnUse" gradientTransform="matrix(2.01015 4.29764 2.55094 -1.19316 504.68 147.077)" spreadMethod="pad" id="ag"><stop offset="0" stop-color="#fbcec5"/><stop offset="1" stop-color="#bb8661"/></linearGradient><linearGradient x1="0" y1="0" x2="1" y2="0" gradientUnits="userSpaceOnUse" gradientTransform="scale(3.09369 -3.09369) rotate(45 138.068 166.449)" spreadMethod="pad" id="o"><stop offset="0" stop-color="#fff"/><stop offset="1" stop-opacity="0" stop-color="#fff"/></linearGradient><linearGradient x1="0" y1="0" x2="1" y2="0" gradientUnits="userSpaceOnUse" gradientTransform="scale(3.09369 -3.09369) rotate(45 138.068 166.449)" spreadMethod="pad" id="aO"><stop offset="0" stop-color="#fff"/><stop offset="1" stop-color="#fff"/></linearGradient><linearGradient x1="0" y1="0" x2="1" y2="0" gradientUnits="userSpaceOnUse" gradientTransform="scale(17.011 -17.011) rotate(45 24.668 29.586)" spreadMethod="pad" id="r"><stop offset="0" stop-color="#fff"/><stop offset="1" stop-opacity="0" stop-color="#fff"/></linearGradient><linearGradient x1="0" y1="0" x2="1" y2="0" gradientUnits="userSpaceOnUse" gradientTransform="scale(17.011 -17.011) rotate(45 24.668 29.586)" spreadMethod="pad" id="aL"><stop offset="0" stop-color="#fff"/><stop offset="1" stop-color="#fff"/></linearGradient><linearGradient x1="0" y1="0" x2="1" y2="0" gradientUnits="userSpaceOnUse" gradientTransform="scale(14.68386 -14.68386) rotate(45 30.57 33.689)" spreadMethod="pad" id="c"><stop offset="0" stop-color="#fff"/><stop offset="1" stop-opacity="0" stop-color="#fff"/></linearGradient><linearGradient x1="0" y1="0" x2="1" y2="0" gradientUnits="userSpaceOnUse" gradientTransform="scale(14.68386 -14.68386) rotate(45 30.57 33.689)" spreadMethod="pad" id="aI"><stop offset="0" stop-color="#fff"/><stop offset="1" stop-color="#fff"/></linearGradient><linearGradient x1="0" y1="0" x2="1" y2="0" gradientUnits="userSpaceOnUse" gradientTransform="matrix(15.19797 0 0 -15.19797 480.43 166.485)" spreadMethod="pad" id="aE"><stop offset="0" stop-color="#fbcec5"/><stop offset="1" stop-color="#bb8661"/></linearGradient><linearGradient x1="0" y1="0" x2="1" y2="0" gradientUnits="userSpaceOnUse" gradientTransform="scale(4.74495 -4.74495) rotate(67.013 73.054 58.179)" spreadMethod="pad" id="aj"><stop offset="0" stop-color="#fbcec5"/><stop offset="1" stop-color="#bb8661"/></linearGradient><linearGradient x1="0" y1="0" x2="1" y2="0" gradientUnits="userSpaceOnUse" gradientTransform="matrix(17.1152 0 0 -17.1152 479.47 147.093)" spreadMethod="pad" id="R"><stop offset="0" stop-color="#fbcec5"/><stop offset="1" stop-color="#bb8661"/></linearGradient><linearGradient x1="0" y1="0" x2="1" y2="0" gradientUnits="userSpaceOnUse" gradientTransform="scale(3.0172 -3.0172) rotate(45 142.812 168.15)" spreadMethod="pad" id="aC"><stop offset="0" stop-color="#fff"/><stop offset="1" stop-color="#fff"/></linearGradient><linearGradient x1="0" y1="0" x2="1" y2="0" gradientUnits="userSpaceOnUse" gradientTransform="scale(6.95865 -6.95865) rotate(45 61.578 72.451)" spreadMethod="pad" id="A"><stop offset="0" stop-color="#fff"/><stop offset="1" stop-opacity="0" stop-color="#fff"/></linearGradient><linearGradient x1="0" y1="0" x2="1" y2="0" gradientUnits="userSpaceOnUse" gradientTransform="scale(6.95865 -6.95865) rotate(45 61.578 72.451)" spreadMethod="pad" id="az"><stop offset="0" stop-color="#fff"/><stop offset="1" stop-color="#fff"/></linearGradient><linearGradient x1="0" y1="0" x2="1" y2="0" gradientUnits="userSpaceOnUse" gradientTransform="scale(1.06818 -1.06818) rotate(45 407.704 488.828)" spreadMethod="pad" id="D"><stop offset="0" stop-color="#fff"/><stop offset="1" stop-opacity="0" stop-color="#fff"/></linearGradient><linearGradient x1="0" y1="0" x2="1" y2="0" gradientUnits="userSpaceOnUse" gradientTransform="scale(1.06818 -1.06818) rotate(45 407.704 488.828)" spreadMethod="pad" id="aw"><stop offset="0" stop-color="#fff"/><stop offset="1" stop-color="#fff"/></linearGradient><linearGradient x1="0" y1="0" x2="1" y2="0" gradientUnits="userSpaceOnUse" gradientTransform="scale(1.82055 -1.82055) rotate(45 233.154 272.822)" spreadMethod="pad" id="an"><stop offset="0" stop-color="#fff"/><stop offset="1" stop-color="#fff"/></linearGradient><linearGradient x1="0" y1="0" x2="1" y2="0" gradientUnits="userSpaceOnUse" gradientTransform="scale(.70424 -.70424) rotate(45 615.642 742.447)" spreadMethod="pad" id="G"><stop offset="0" stop-color="#fff"/><stop offset="1" stop-opacity="0" stop-color="#fff"/></linearGradient><linearGradient x1="0" y1="0" x2="1" y2="0" gradientUnits="userSpaceOnUse" gradientTransform="scale(.70424 -.70424) rotate(45 615.642 742.447)" spreadMethod="pad" id="at"><stop offset="0" stop-color="#fff"/><stop offset="1" stop-color="#fff"/></linearGradient><linearGradient x1="0" y1="0" x2="1" y2="0" gradientUnits="userSpaceOnUse" gradientTransform="scale(1.82055 -1.82055) rotate(45 233.154 272.822)" spreadMethod="pad" id="J"><stop offset="0" stop-color="#fff"/><stop offset="1" stop-opacity="0" stop-color="#fff"/></linearGradient><linearGradient x1="0" y1="0" x2="1" y2="0" gradientUnits="userSpaceOnUse" gradientTransform="scale(.82327 -.82327) rotate(45 514.444 605.74)" spreadMethod="pad" id="f"><stop offset="0" stop-color="#fff"/><stop offset="1" stop-opacity="0" stop-color="#fff"/></linearGradient><linearGradient x1="0" y1="0" x2="1" y2="0" gradientUnits="userSpaceOnUse" gradientTransform="scale(.82327 -.82327) rotate(45 514.444 605.74)" spreadMethod="pad" id="aq"><stop offset="0" stop-color="#fff"/><stop offset="1" stop-color="#fff"/></linearGradient><linearGradient x1="0" y1="0" x2="1" y2="0" gradientUnits="userSpaceOnUse" gradientTransform="matrix(15.76708 0 0 -15.76708 480.145 131.301)" spreadMethod="pad" id="O"><stop offset="0" stop-color="#fbcec5"/><stop offset="1" stop-color="#bb8661"/></linearGradient><mask maskUnits="userSpaceOnUse" x="0" y="0" width="1" height="1" id="aW"><g clip-path="url(#s)"><g clip-path="url(#t)"><path d="M474.286 153.717l.25-3.441-5.374-.391-.251 3.441z" fill="url(#u)"/></g></g></mask><mask maskUnits="userSpaceOnUse" x="0" y="0" width="1" height="1" id="aH"><g clip-path="url(#a)"><g clip-path="url(#b)"><path d="M486.1 157.744l.578-.578-.578-.578-.578.578z" fill="url(#c)"/></g></g></mask><mask maskUnits="userSpaceOnUse" x="0" y="0" width="1" height="1" id="aT"><g clip-path="url(#g)"><g clip-path="url(#h)"><path d="M501.028 152.607l6.217-.92-.815-5.508-6.218.92z" fill="url(#i)"/></g></g></mask><mask maskUnits="userSpaceOnUse" x="0" y="0" width="1" height="1" id="aQ"><g clip-path="url(#j)"><g clip-path="url(#k)"><path d="M484.429 140.16l8.86-8.859-8.86-8.86-8.859 8.86z" fill="url(#l)"/></g></g></mask><mask maskUnits="userSpaceOnUse" x="0" y="0" width="1" height="1" id="aN"><g clip-path="url(#m)"><g clip-path="url(#n)"><path d="M491.239 155.973l6.777-6.777-6.777-6.778-6.778 6.778z" fill="url(#o)"/></g></g></mask><mask maskUnits="userSpaceOnUse" x="0" y="0" width="1" height="1" id="aK"><g clip-path="url(#p)"><g clip-path="url(#q)"><path d="M485.046 160.021l14.252-14.252-14.252-14.252-14.252 14.252z" fill="url(#r)"/></g></g></mask><mask maskUnits="userSpaceOnUse" x="0" y="0" width="1" height="1" id="ap"><g clip-path="url(#d)"><g clip-path="url(#e)"><path d="M476.942 154.708l1.617-1.617-1.617-1.618-1.617 1.618z" fill="url(#f)"/></g></g></mask><mask maskUnits="userSpaceOnUse" x="0" y="0" width="1" height="1" id="aB"><g clip-path="url(#v)"><g clip-path="url(#w)"><path d="M485.654 157.446l2.46-2.46-2.46-2.46-2.46 2.46z" fill="url(#x)"/></g></g></mask><mask maskUnits="userSpaceOnUse" x="0" y="0" width="1" height="1" id="ay"><g clip-path="url(#y)"><g clip-path="url(#z)"><path d="M484.245 158.923l5.596-5.596-5.596-5.597-5.597 5.597z" fill="url(#A)"/></g></g></mask><mask maskUnits="userSpaceOnUse" x="0" y="0" width="1" height="1" id="av"><g clip-path="url(#B)"><g clip-path="url(#C)"><path d="M497.29 156.882l2.327-2.327-2.327-2.328-2.328 2.328z" fill="url(#D)"/></g></g></mask><mask maskUnits="userSpaceOnUse" x="0" y="0" width="1" height="1" id="as"><g clip-path="url(#E)"><g clip-path="url(#F)"><path d="M496.941 154.44l1.349-1.349-1.349-1.35-1.35 1.35z" fill="url(#G)"/></g></g></mask><mask maskUnits="userSpaceOnUse" x="0" y="0" width="1" height="1" id="am"><g clip-path="url(#H)"><g clip-path="url(#I)"><path d="M476.215 156.957l3.307-3.307-3.307-3.307-3.307 3.307z" fill="url(#J)"/></g></g></mask></defs><g clip-path="url(#K)" transform="matrix(.62536 0 0 -.62538 -291.849 100.003)"><path d="M474.699 157.462c-.539-.015-5.488-.299-5.564-5.491v-26.363c.016-.558.312-5.562 5.611-5.562h26.192s5.533 0 5.613 5.492v26.36c-.016.539-.299 5.488-5.491 5.564z" fill="url(#L)"/></g><g clip-path="url(#M)" transform="matrix(.62536 0 0 -.62538 -291.849 100.003)" fill="none" stroke="#fff" stroke-width="2.64"><path d="M495.912 126.951c0-1.588-.913-2.876-2.039-2.876h-11.689c-1.126 0-2.039 1.288-2.039 2.876l.88 7.767c0 1.59 1.35 3.81 2.476 3.81l4.522-.32 4.46.32c1.126 0 2.55-2.22 2.55-3.81z"/><path d="M495.706 142.123c0-1.769-1.592-3.915-2.815-3.915h-9.725c-1.222 0-2.815 2.146-2.815 3.915l-.88 8.649c0 1.769 1.545 5.205 2.767 5.205h11.58c1.224 0 2.768-3.436 2.768-5.205z"/><path d="M491.534 155.965c0-1.936-1.57-3.207-3.506-3.207-1.937 0-3.507 1.27-3.507 3.207a3.507 3.507 0 007.013 0z"/><path d="M481.501 153.604l6.527-3.123 6.517 3.123m6.942-.734c0-1.728-1.401-2.861-3.13-2.861-1.727 0-3.128 1.133-3.128 2.86a3.13 3.13 0 006.258 0z"/><path d="M499.842 152.335a1.965 1.965 0 10-3.93 0 1.965 1.965 0 003.93 0zm-25.671.513c0-1.728 1.401-2.86 3.13-2.86 1.728 0 3.128 1.132 3.128 2.86a3.128 3.128 0 11-6.258 0z"/><path d="M475.817 152.313a1.966 1.966 0 113.932.002 1.966 1.966 0 01-3.932-.002zm35.118-2.923c.353-.166.413-.78.136-1.374l-1.006-2.148c-.277-.594-.788-.94-1.14-.777l-8.99 4.205c-.352.165.392.441.738 1.34l.718 1.534c.43.921.202 1.588.554 1.424zm-50.945-5.979a1.186 1.186 0 00-1.556.63l-.926 2.182c-.256.603.026 1.3.629 1.556l15.392 6.53c.603.255-.04-.63.44-1.47l.662-1.56c.397-.937 1.354-1.083.75-1.339z"/><path d="M474.648 153.096s.552 2.57 3.135 2.268c0 0-2.784-1.443-2.433-3.454zm1.567-.783s.208 1.677 1.567 1.547c0 0-1.68-.845-1.028-1.525zm20.153.445s.343 1.117 1.145 1.11c0 0-.928-.813-.928-1.555zm-.456.846s.627 2.345 2.755 1.785c0 0-1.399.115-2.755-1.785zm-14.796.675s.451 1.386 2.758 1.11c0 0-3.445-.403 3.868-4.161 0 0-5.564 2.995-6.626 3.05zm4.112 2.089s-.652-1.415 1.504-2.763c0 0-1.296 1.774-.799 2.394z"/><path d="M495.628 168.871c0-5.992-3.402-13.236-7.6-13.236-4.196 0-7.598 7.244-7.598 13.236 0 5.993 3.402 8.464 7.599 8.464s7.599-2.47 7.599-8.464zm-7.6-5.449v-6.799"/><path d="M486.381 156.87s-4.844 4.604-4.88 10.73c-.035 6.126 1.933 8.374 6.241 8.976 0 0-9.334-7.12-1.36-19.707zm-4.575-4.535s-.922-1.844-1.216-1.986c-.294-.143.824-8.92.824-8.92s.489-2.226 2.131-2.226h9.187s-15.372 1.999-10.926 13.132zm6.217-2.327v-4.375s4.715 6.577 6.43 7.125zm-5.237-24.643s-1.14-.14-1.14 2.105l.57 7.883s.96 2.02 2.247 2.02h2.75s-5.303.486-5.13-9.762c0 0-.185-1.684.703-2.246zm18.121 24.186s1.127 1.712 1.08 2.238c0 0 .885-2.941 7.159-5.909 0 0-7.506 3.203-8.24 3.671zm-26.594.709s-1.36 2.116-1.072 3.082l-13.414-5.818s11.991 6.126 14.486 2.736z"/><path d="M486.804 124.77c0-2.076-1.682-3.437-3.758-3.437-2.075 0-3.757 1.361-3.757 3.436a3.758 3.758 0 107.515 0z"/><path d="M484.829 124.128a2.36 2.36 0 10-4.72 0 2.36 2.36 0 004.72 0zm12.238.642c0-2.076-1.682-3.437-3.757-3.437-2.076 0-3.757 1.361-3.757 3.436a3.757 3.757 0 107.514 0z"/><path d="M495.091 124.128a2.36 2.36 0 10-4.72 0 2.36 2.36 0 004.72 0zm-13.592-19.877c-.126-.68-.976-1.093-1.899-.92l-1.743.372c-.922.171-1.567.862-1.44 1.541l2.531 17.452c.127.68.741-.44 2.114-.576l2.385-.443c1.431-.266 2.306.457 2.18-.222z"/><path d="M502.711 106.175c.224-.654-.312-1.432-1.199-1.738l-1.7-.533c-.887-.306-1.789-.023-2.013.63l-6.397 16.435c-.225.653.862-.02 2.122.54l2.295.79c1.377.474 1.781 1.532 2.006.88z"/></g><g clip-path="url(#N)" transform="matrix(.62536 0 0 -.62538 -291.849 100.003)"><path d="M488.023 138.208l-4.522.319c-1.127 0-2.476-2.22-2.476-3.809l-.88-7.767c0-1.587.913-2.875 2.039-2.875h11.689c1.125 0 2.04 1.288 2.04 2.875l-.881 7.767c0 1.589-1.423 3.809-2.549 3.809z" fill="url(#O)"/></g><g clip-path="url(#P)" transform="matrix(.62536 0 0 -.62538 -291.849 100.003)"><path d="M495.912 126.951c0-1.588-.913-2.876-2.039-2.876h-11.689c-1.126 0-2.039 1.288-2.039 2.876l.88 7.767c0 1.59 1.35 3.81 2.476 3.81l4.522-.32 4.46.32c1.126 0 2.55-2.22 2.55-3.81z" fill="none" stroke="#6f4324" stroke-width=".88"/></g><g clip-path="url(#Q)" transform="matrix(.62536 0 0 -.62538 -291.849 100.003)"><path d="M482.238 155.977c-1.222 0-2.768-3.436-2.768-5.205l.881-8.649c0-1.769 1.593-3.915 2.815-3.915h9.724c1.223 0 2.816 2.146 2.816 3.915l.88 8.649c0 1.769-1.545 5.205-2.768 5.205z" fill="url(#R)"/></g><g clip-path="url(#S)" transform="matrix(.62536 0 0 -.62538 -291.849 100.003)"><path d="M495.706 142.123c0-1.769-1.592-3.915-2.815-3.915h-9.725c-1.222 0-2.815 2.146-2.815 3.915l-.88 8.649c0 1.769 1.545 5.205 2.767 5.205h11.58c1.224 0 2.768-3.436 2.768-5.205z" fill="none" stroke="#6f4324" stroke-width=".88"/></g><g clip-path="url(#T)" transform="matrix(.62536 0 0 -.62538 -291.849 100.003)"><path d="M484.858 157.462a3.484 3.484 0 01-.336-1.497c0-1.936 1.57-3.207 3.507-3.207 1.936 0 3.505 1.271 3.505 3.207 0 .536-.12 1.044-.335 1.497z" fill="url(#U)"/></g><g clip-path="url(#V)" transform="matrix(.62536 0 0 -.62538 -291.849 100.003)" fill="none" stroke="#6f4324"><path d="M491.534 155.965c0-1.936-1.57-3.207-3.506-3.207-1.937 0-3.507 1.27-3.507 3.207a3.507 3.507 0 007.013 0z" stroke-width=".88"/><path d="M481.501 153.604l6.527-3.123 6.517 3.123" stroke-width=".44"/></g><g clip-path="url(#W)" transform="matrix(.62536 0 0 -.62538 -291.849 100.003)"><path d="M495.229 152.869c0-1.728 1.401-2.861 3.129-2.861s3.128 1.133 3.128 2.861a3.13 3.13 0 11-6.257 0" fill="url(#X)"/></g><g clip-path="url(#Y)" transform="matrix(.62536 0 0 -.62538 -291.849 100.003)" fill="none" stroke="#6f4324"><path d="M501.487 152.87c0-1.728-1.401-2.861-3.13-2.861-1.727 0-3.128 1.133-3.128 2.86a3.13 3.13 0 006.258 0z" stroke-width=".88"/><path d="M499.842 152.335a1.965 1.965 0 10-3.93 0 1.965 1.965 0 003.93 0z" stroke-width=".44"/></g><g clip-path="url(#Z)" transform="matrix(.62536 0 0 -.62538 -291.849 100.003)"><path d="M474.171 152.848c0-1.728 1.402-2.86 3.13-2.86s3.129 1.132 3.129 2.86a3.13 3.13 0 01-6.259 0" fill="url(#aa)"/></g><g clip-path="url(#ab)" transform="matrix(.62536 0 0 -.62538 -291.849 100.003)"><path d="M474.171 152.848c0-1.728 1.401-2.86 3.13-2.86 1.728 0 3.128 1.132 3.128 2.86a3.128 3.128 0 11-6.258 0z" fill="none" stroke="#6f4324" stroke-width=".88"/></g><g clip-path="url(#ac)" transform="matrix(.62536 0 0 -.62538 -291.849 100.003)"><path d="M475.816 152.313a1.965 1.965 0 013.931 0 1.966 1.966 0 11-3.931 0" fill="url(#ad)"/></g><g clip-path="url(#ae)" transform="matrix(.62536 0 0 -.62538 -291.849 100.003)"><path d="M475.817 152.313a1.966 1.966 0 113.932.002 1.966 1.966 0 01-3.932-.002z" fill="none" stroke="#6f4324" stroke-width=".44"/></g><g clip-path="url(#af)" transform="matrix(.62536 0 0 -.62538 -291.849 100.003)"><path d="M501.39 152.17l-.718-1.535c-.345-.898-1.089-1.174-.737-1.339l6.616-3.095v5.238l-4.607 2.155a.216.216 0 01-.091.025c-.221 0-.076-.623-.463-1.449" fill="url(#ag)"/></g><g clip-path="url(#ah)" transform="matrix(.62536 0 0 -.62538 -291.849 100.003)"><path d="M510.935 149.39c.353-.166.413-.78.136-1.374l-1.006-2.148c-.277-.594-.788-.94-1.14-.777l-8.99 4.205c-.352.165.392.441.738 1.34l.718 1.534c.43.921.202 1.588.554 1.424z" fill="none" stroke="#6f4324" stroke-width=".88"/></g><g clip-path="url(#ai)" transform="matrix(.62536 0 0 -.62538 -291.849 100.003)"><path d="M473.529 154.309l-4.373-1.855a9.245 9.245 0 01-.021-.483v-4.681l6.247 2.65c.603.256-.354.402-.752 1.338l-.661 1.56c-.422.74.025 1.516-.274 1.516a.47.47 0 01-.166-.045" fill="url(#aj)"/></g><g clip-path="url(#ak)" transform="matrix(.62536 0 0 -.62538 -291.849 100.003)"><path d="M459.99 143.411a1.186 1.186 0 00-1.556.63l-.926 2.182c-.256.603.026 1.3.629 1.556l15.392 6.53c.603.255-.04-.63.44-1.47l.662-1.56c.397-.937 1.354-1.083.75-1.339z" fill="none" stroke="#6f4324" stroke-width=".88"/></g><g clip-path="url(#al)" transform="matrix(.62536 0 0 -.62538 -291.849 100.003)"><g mask="url(#am)"><path d="M474.648 153.096l.701-1.186c-.351 2.012 2.433 3.455 2.433 3.455a3.683 3.683 0 01-.41.024c-2.231 0-2.724-2.293-2.724-2.293" fill="url(#an)"/></g></g><g clip-path="url(#ao)" transform="matrix(.62536 0 0 -.62538 -291.849 100.003)"><g mask="url(#ap)"><path d="M476.215 152.313l.538.022c-.651.68 1.029 1.525 1.029 1.525-.05.006-.099.008-.147.008-1.227 0-1.42-1.555-1.42-1.555" fill="url(#aq)"/></g></g><g clip-path="url(#ar)" transform="matrix(.62536 0 0 -.62538 -291.849 100.003)"><g mask="url(#as)"><path d="M497.506 153.868c-.797 0-1.137-1.11-1.137-1.11l.217-.445c0 .742.927 1.555.927 1.555z" fill="url(#at)"/></g></g><g clip-path="url(#au)" transform="matrix(.62536 0 0 -.62538 -291.849 100.003)"><g mask="url(#av)"><path d="M495.913 153.605c1.355 1.9 2.755 1.784 2.755 1.784-.228.06-.437.087-.631.087-1.625 0-2.124-1.871-2.124-1.871" fill="url(#aw)"/></g></g><g clip-path="url(#ax)" transform="matrix(.62536 0 0 -.62538 -291.849 100.003)"><g mask="url(#ay)"><path d="M481.117 154.279c.782-.041 4.015-1.682 5.658-2.54-6.027 3.284-2.901 3.65-2.901 3.65a4.67 4.67 0 01-.58.036c-1.804 0-2.177-1.146-2.177-1.146m6.624-3.051c-.018.011-.396.214-.966.511.299-.163.622-.334.966-.511m0 0" fill="url(#az)"/></g></g><g clip-path="url(#aA)" transform="matrix(.62536 0 0 -.62538 -291.849 100.003)"><g mask="url(#aB)"><path d="M486.733 153.605s-1.296 1.774-.8 2.394l-.704.369s-.653-1.415 1.504-2.763" fill="url(#aC)"/></g></g><g clip-path="url(#aD)" transform="matrix(.62536 0 0 -.62538 -291.849 100.003)"><path d="M484.439 157.462c1.048-1.111 2.241-1.799 3.51-1.827h.159c1.269.028 2.463.716 3.51 1.827z" fill="url(#aE)"/></g><g clip-path="url(#aF)" transform="matrix(.62536 0 0 -.62538 -291.849 100.003)" fill="none" stroke="#6f4324"><path d="M495.628 168.871c0-5.992-3.402-13.236-7.6-13.236-4.196 0-7.598 7.244-7.598 13.236 0 5.993 3.402 8.464 7.599 8.464s7.599-2.47 7.599-8.464z" stroke-width=".88"/><path d="M488.028 163.422v-6.799" stroke-width=".44"/></g><g clip-path="url(#aG)" transform="matrix(.62536 0 0 -.62538 -291.849 100.003)"><g mask="url(#aH)"><path d="M485.818 157.462c.336-.375.552-.582.563-.592-.127.198-.248.396-.366.592z" fill="url(#aI)"/></g></g><g clip-path="url(#aJ)" transform="matrix(.62536 0 0 -.62538 -291.849 100.003)"><g mask="url(#aK)"><path d="M480.59 150.349c-.294-.143.824-8.919.824-8.919s.489-2.227 2.131-2.227h9.187s-15.372 1.999-10.926 13.132c0 0-.923-1.843-1.216-1.986" fill="url(#aL)"/></g></g><g clip-path="url(#aM)" transform="matrix(.62536 0 0 -.62538 -291.849 100.003)"><g mask="url(#aN)"><path d="M494.233 152.664l.221.094a1.34 1.34 0 01-.221-.094m-6.21-2.656v-4.375s4.344 6.06 6.21 7.031z" fill="url(#aO)"/></g></g><g clip-path="url(#aP)" transform="matrix(.62536 0 0 -.62538 -291.849 100.003)"><g mask="url(#aQ)"><path d="M486.967 137.373h.246s-.04.003-.112.003a3.62 3.62 0 01-.134-.003m-2.503 0c-1.287 0-2.249-2.019-2.249-2.019l-.569-7.883c0-2.246 1.14-2.105 1.14-2.105-.887.561-.705 2.246-.705 2.246-.148 8.914 3.845 9.705 4.886 9.761z" fill="url(#aR)"/></g></g><g clip-path="url(#aS)" transform="matrix(.62536 0 0 -.62538 -291.849 100.003)"><g mask="url(#aT)"><path d="M500.907 149.551c.446-.285 3.4-1.582 5.644-2.555v.282c-3.937 2.428-4.563 4.511-4.563 4.511.046-.526-1.081-2.238-1.081-2.238" fill="url(#aU)"/></g></g><g clip-path="url(#aV)" transform="matrix(.62536 0 0 -.62538 -291.849 100.003)"><g mask="url(#aW)"><path d="M469.135 151.561v-.566c2.274.471 4.305.45 5.178-.736 0 0-1.359 2.117-1.072 3.083z" fill="url(#aX)"/></g></g><g clip-path="url(#aY)" transform="matrix(.62536 0 0 -.62538 -291.849 100.003)"><path d="M479.29 124.77c0-2.075 1.681-3.437 3.756-3.437 2.076 0 3.759 1.362 3.759 3.437a3.758 3.758 0 01-3.759 3.757 3.756 3.756 0 01-3.756-3.757" fill="url(#aZ)"/></g><g clip-path="url(#ba)" transform="matrix(.62536 0 0 -.62538 -291.849 100.003)" fill="none" stroke="#6f4324"><path d="M486.804 124.77c0-2.076-1.682-3.437-3.758-3.437-2.075 0-3.757 1.361-3.757 3.436a3.758 3.758 0 107.515 0z" stroke-width=".88"/><path d="M484.829 124.128a2.36 2.36 0 10-4.72 0 2.36 2.36 0 004.72 0z" stroke-width=".44"/></g><g clip-path="url(#bb)" transform="matrix(.62536 0 0 -.62538 -291.849 100.003)"><path d="M489.553 124.77c0-2.075 1.68-3.437 3.757-3.437 2.075 0 3.757 1.362 3.757 3.437a3.757 3.757 0 01-3.757 3.757 3.756 3.756 0 01-3.757-3.757" fill="url(#bc)"/></g><g clip-path="url(#bd)" transform="matrix(.62536 0 0 -.62538 -291.849 100.003)" fill="none" stroke="#6f4324"><path d="M497.067 124.77c0-2.076-1.682-3.437-3.757-3.437-2.076 0-3.757 1.361-3.757 3.436a3.757 3.757 0 107.514 0z" stroke-width=".88"/><path d="M495.091 124.128a2.36 2.36 0 10-4.72 0 2.36 2.36 0 004.72 0z" stroke-width=".44"/></g><g clip-path="url(#be)" transform="matrix(.62536 0 0 -.62538 -291.849 100.003)"><path d="M478.948 122.697l-.384-2.651h6.725l.337 1.409c.074.398-.196.314-.72.23a4.166 4.166 0 00-1.458-.008l-2.386.444c-1.059.103-1.665.793-1.946.793-.084 0-.139-.061-.168-.217" fill="url(#bf)"/></g><g clip-path="url(#bg)" transform="matrix(.62536 0 0 -.62538 -291.849 100.003)"><path d="M481.499 104.251c-.126-.68-.976-1.093-1.899-.92l-1.743.372c-.922.171-1.567.862-1.44 1.541l2.531 17.452c.127.68.741-.44 2.114-.576l2.385-.443c1.431-.266 2.306.457 2.18-.222z" fill="none" stroke="#6f4324" stroke-width=".88"/></g><g clip-path="url(#bh)" transform="matrix(.62536 0 0 -.62538 -291.849 100.003)"><path d="M495.819 122.299l-2.294-.79c-.608-.27-1.176-.254-1.575-.237-.429.017-.664.035-.547-.303l.359-.923h6.964l-.9 3.132c-.05.147-.11.207-.187.207-.269 0-.752-.719-1.82-1.086" fill="url(#bi)"/></g><g clip-path="url(#bj)" transform="matrix(.62536 0 0 -.62538 -291.849 100.003)"><path d="M502.711 106.175c.224-.654-.312-1.432-1.199-1.738l-1.7-.533c-.887-.306-1.789-.023-2.013.63l-6.397 16.435c-.225.653.862-.02 2.122.54l2.295.79c1.377.474 1.781 1.532 2.006.88z" fill="none" stroke="#6f4324" stroke-width=".88"/></g><path d="M0 0s-5.613 0-5.613-5.613v-26.192s0-5.612 5.613-5.612h26.192s5.613 0 5.613 5.612v26.192S31.805 0 26.192 0z" fill="none" stroke="#231f20" stroke-width=".66" transform="matrix(.62536 0 0 -.62538 5.04 1.53)"/></svg>